G04 #@! TF.GenerationSoftware,KiCad,Pcbnew,(6.0.4)*
G04 #@! TF.CreationDate,2022-04-25T16:44:11-05:00*
G04 #@! TF.ProjectId,FireflyV1,46697265-666c-4795-9631-2e6b69636164,rev?*
G04 #@! TF.SameCoordinates,Original*
G04 #@! TF.FileFunction,Soldermask,Bot*
G04 #@! TF.FilePolarity,Negative*
%FSLAX46Y46*%
G04 Gerber Fmt 4.6, Leading zero omitted, Abs format (unit mm)*
G04 Created by KiCad (PCBNEW (6.0.4)) date 2022-04-25 16:44:11*
%MOMM*%
%LPD*%
G01*
G04 APERTURE LIST*
G04 Aperture macros list*
%AMRoundRect*
0 Rectangle with rounded corners*
0 $1 Rounding radius*
0 $2 $3 $4 $5 $6 $7 $8 $9 X,Y pos of 4 corners*
0 Add a 4 corners polygon primitive as box body*
4,1,4,$2,$3,$4,$5,$6,$7,$8,$9,$2,$3,0*
0 Add four circle primitives for the rounded corners*
1,1,$1+$1,$2,$3*
1,1,$1+$1,$4,$5*
1,1,$1+$1,$6,$7*
1,1,$1+$1,$8,$9*
0 Add four rect primitives between the rounded corners*
20,1,$1+$1,$2,$3,$4,$5,0*
20,1,$1+$1,$4,$5,$6,$7,0*
20,1,$1+$1,$6,$7,$8,$9,0*
20,1,$1+$1,$8,$9,$2,$3,0*%
G04 Aperture macros list end*
%ADD10C,1.800000*%
%ADD11C,4.800000*%
%ADD12R,1.700000X1.700000*%
%ADD13O,1.700000X1.700000*%
%ADD14C,2.010000*%
%ADD15C,4.460000*%
%ADD16C,3.200000*%
%ADD17RoundRect,0.337500X0.337500X-1.662500X0.337500X1.662500X-0.337500X1.662500X-0.337500X-1.662500X0*%
%ADD18RoundRect,0.500000X-1.500000X-0.500000X1.500000X-0.500000X1.500000X0.500000X-1.500000X0.500000X0*%
G04 APERTURE END LIST*
D10*
X61873821Y-39320000D03*
X56873821Y-39320000D03*
X59373821Y-39320000D03*
X61873821Y-53820000D03*
X56873821Y-53820000D03*
D11*
X53773821Y-46820000D03*
X64973821Y-46820000D03*
D12*
X21000000Y-24660000D03*
D13*
X21000000Y-27200000D03*
X21000000Y-29740000D03*
X21000000Y-32280000D03*
D14*
X18921321Y-37000000D03*
X15121321Y-37000000D03*
X15121321Y-45640000D03*
X18921321Y-45640000D03*
X70673821Y-53540000D03*
X74473821Y-53540000D03*
X74473821Y-44900000D03*
X70673821Y-44900000D03*
X15313821Y-50082500D03*
X15313821Y-53882500D03*
X23953821Y-53882500D03*
X23953821Y-50082500D03*
D12*
X20703821Y-20250000D03*
D13*
X18163821Y-20250000D03*
X15623821Y-20250000D03*
X38330000Y-33650000D03*
X40870000Y-33690000D03*
X53570000Y-33690000D03*
X63730000Y-33690000D03*
X73890000Y-33690000D03*
D10*
X36253821Y-39840000D03*
X33753821Y-39840000D03*
X31253821Y-39840000D03*
D15*
X38153821Y-46840000D03*
X29353821Y-46840000D03*
D16*
X46000000Y-52000000D03*
D17*
X19853821Y-15250000D03*
X18153821Y-15250000D03*
X16453821Y-15250000D03*
D18*
X15993821Y-32840000D03*
X15993821Y-29840000D03*
X15993821Y-26840000D03*
M02*
