%FSLAX45Y45*%
G04 Gerber Fmt 4.5, Leading zero omitted, Abs format (unit mm)*
G04 Created by KiCad (PCBNEW (6.0.4)) date 2022-04-25 16:11:08*
%MOMM*%
%LPD*%
G01*
G04 APERTURE LIST*
%TA.AperFunction,Profile*%
%ADD10C,0.200000*%
%TD*%
%ADD11C,0.200000*%
%ADD12C,0.320000*%
G04 APERTURE END LIST*
D10*
X1335000Y-1287725D02*
X7658000Y-1287725D01*
X7658000Y-1287725D02*
X7658000Y-5594000D01*
X7658000Y-5594000D02*
X1335000Y-5594000D01*
X1335000Y-5594000D02*
X1335000Y-1287725D01*
D11*
D12*
X4440000Y-5040000D02*
X4760000Y-5360000D01*
X4760000Y-5040000D02*
X4440000Y-5360000D01*
D11*
X1582619Y-5914476D02*
X1582619Y-5714476D01*
X1630238Y-5714476D01*
X1658809Y-5724000D01*
X1677857Y-5743048D01*
X1687381Y-5762095D01*
X1696905Y-5800190D01*
X1696905Y-5828762D01*
X1687381Y-5866857D01*
X1677857Y-5885905D01*
X1658809Y-5904952D01*
X1630238Y-5914476D01*
X1582619Y-5914476D01*
X1782619Y-5914476D02*
X1782619Y-5781143D01*
X1782619Y-5819238D02*
X1792143Y-5800190D01*
X1801667Y-5790667D01*
X1820714Y-5781143D01*
X1839762Y-5781143D01*
X1906428Y-5914476D02*
X1906428Y-5781143D01*
X1906428Y-5714476D02*
X1896905Y-5724000D01*
X1906428Y-5733524D01*
X1915952Y-5724000D01*
X1906428Y-5714476D01*
X1906428Y-5733524D01*
X2030238Y-5914476D02*
X2011190Y-5904952D01*
X2001667Y-5885905D01*
X2001667Y-5714476D01*
X2135000Y-5914476D02*
X2115952Y-5904952D01*
X2106429Y-5885905D01*
X2106429Y-5714476D01*
X2363571Y-5914476D02*
X2363571Y-5714476D01*
X2430238Y-5857333D01*
X2496905Y-5714476D01*
X2496905Y-5914476D01*
X2677857Y-5914476D02*
X2677857Y-5809714D01*
X2668333Y-5790667D01*
X2649286Y-5781143D01*
X2611190Y-5781143D01*
X2592143Y-5790667D01*
X2677857Y-5904952D02*
X2658810Y-5914476D01*
X2611190Y-5914476D01*
X2592143Y-5904952D01*
X2582619Y-5885905D01*
X2582619Y-5866857D01*
X2592143Y-5847809D01*
X2611190Y-5838286D01*
X2658810Y-5838286D01*
X2677857Y-5828762D01*
X2773095Y-5781143D02*
X2773095Y-5981143D01*
X2773095Y-5790667D02*
X2792143Y-5781143D01*
X2830238Y-5781143D01*
X2849286Y-5790667D01*
X2858809Y-5800190D01*
X2868333Y-5819238D01*
X2868333Y-5876381D01*
X2858809Y-5895428D01*
X2849286Y-5904952D01*
X2830238Y-5914476D01*
X2792143Y-5914476D01*
X2773095Y-5904952D01*
X2954048Y-5895428D02*
X2963571Y-5904952D01*
X2954048Y-5914476D01*
X2944524Y-5904952D01*
X2954048Y-5895428D01*
X2954048Y-5914476D01*
X2954048Y-5790667D02*
X2963571Y-5800190D01*
X2954048Y-5809714D01*
X2944524Y-5800190D01*
X2954048Y-5790667D01*
X2954048Y-5809714D01*
X1125000Y-6144000D02*
X1325000Y-6344000D01*
X1325000Y-6144000D02*
X1125000Y-6344000D01*
X1563571Y-6134476D02*
X1687381Y-6134476D01*
X1620714Y-6210667D01*
X1649286Y-6210667D01*
X1668333Y-6220190D01*
X1677857Y-6229714D01*
X1687381Y-6248762D01*
X1687381Y-6296381D01*
X1677857Y-6315428D01*
X1668333Y-6324952D01*
X1649286Y-6334476D01*
X1592143Y-6334476D01*
X1573095Y-6324952D01*
X1563571Y-6315428D01*
X1773095Y-6315428D02*
X1782619Y-6324952D01*
X1773095Y-6334476D01*
X1763571Y-6324952D01*
X1773095Y-6315428D01*
X1773095Y-6334476D01*
X1858809Y-6153524D02*
X1868333Y-6144000D01*
X1887381Y-6134476D01*
X1935000Y-6134476D01*
X1954048Y-6144000D01*
X1963571Y-6153524D01*
X1973095Y-6172571D01*
X1973095Y-6191619D01*
X1963571Y-6220190D01*
X1849286Y-6334476D01*
X1973095Y-6334476D01*
X2096905Y-6134476D02*
X2115952Y-6134476D01*
X2135000Y-6144000D01*
X2144524Y-6153524D01*
X2154048Y-6172571D01*
X2163571Y-6210667D01*
X2163571Y-6258286D01*
X2154048Y-6296381D01*
X2144524Y-6315428D01*
X2135000Y-6324952D01*
X2115952Y-6334476D01*
X2096905Y-6334476D01*
X2077857Y-6324952D01*
X2068333Y-6315428D01*
X2058809Y-6296381D01*
X2049286Y-6258286D01*
X2049286Y-6210667D01*
X2058809Y-6172571D01*
X2068333Y-6153524D01*
X2077857Y-6144000D01*
X2096905Y-6134476D01*
X2287381Y-6134476D02*
X2306429Y-6134476D01*
X2325476Y-6144000D01*
X2335000Y-6153524D01*
X2344524Y-6172571D01*
X2354048Y-6210667D01*
X2354048Y-6258286D01*
X2344524Y-6296381D01*
X2335000Y-6315428D01*
X2325476Y-6324952D01*
X2306429Y-6334476D01*
X2287381Y-6334476D01*
X2268333Y-6324952D01*
X2258810Y-6315428D01*
X2249286Y-6296381D01*
X2239762Y-6258286D01*
X2239762Y-6210667D01*
X2249286Y-6172571D01*
X2258810Y-6153524D01*
X2268333Y-6144000D01*
X2287381Y-6134476D01*
X2439762Y-6334476D02*
X2439762Y-6201143D01*
X2439762Y-6220190D02*
X2449286Y-6210667D01*
X2468333Y-6201143D01*
X2496905Y-6201143D01*
X2515952Y-6210667D01*
X2525476Y-6229714D01*
X2525476Y-6334476D01*
X2525476Y-6229714D02*
X2535000Y-6210667D01*
X2554048Y-6201143D01*
X2582619Y-6201143D01*
X2601667Y-6210667D01*
X2611190Y-6229714D01*
X2611190Y-6334476D01*
X2706429Y-6334476D02*
X2706429Y-6201143D01*
X2706429Y-6220190D02*
X2715952Y-6210667D01*
X2735000Y-6201143D01*
X2763571Y-6201143D01*
X2782619Y-6210667D01*
X2792143Y-6229714D01*
X2792143Y-6334476D01*
X2792143Y-6229714D02*
X2801667Y-6210667D01*
X2820714Y-6201143D01*
X2849286Y-6201143D01*
X2868333Y-6210667D01*
X2877857Y-6229714D01*
X2877857Y-6334476D01*
X3268333Y-6124952D02*
X3096905Y-6382095D01*
X3525476Y-6134476D02*
X3544524Y-6134476D01*
X3563571Y-6144000D01*
X3573095Y-6153524D01*
X3582619Y-6172571D01*
X3592143Y-6210667D01*
X3592143Y-6258286D01*
X3582619Y-6296381D01*
X3573095Y-6315428D01*
X3563571Y-6324952D01*
X3544524Y-6334476D01*
X3525476Y-6334476D01*
X3506428Y-6324952D01*
X3496905Y-6315428D01*
X3487381Y-6296381D01*
X3477857Y-6258286D01*
X3477857Y-6210667D01*
X3487381Y-6172571D01*
X3496905Y-6153524D01*
X3506428Y-6144000D01*
X3525476Y-6134476D01*
X3677857Y-6315428D02*
X3687381Y-6324952D01*
X3677857Y-6334476D01*
X3668333Y-6324952D01*
X3677857Y-6315428D01*
X3677857Y-6334476D01*
X3877857Y-6334476D02*
X3763571Y-6334476D01*
X3820714Y-6334476D02*
X3820714Y-6134476D01*
X3801667Y-6163048D01*
X3782619Y-6182095D01*
X3763571Y-6191619D01*
X3954048Y-6153524D02*
X3963571Y-6144000D01*
X3982619Y-6134476D01*
X4030238Y-6134476D01*
X4049286Y-6144000D01*
X4058809Y-6153524D01*
X4068333Y-6172571D01*
X4068333Y-6191619D01*
X4058809Y-6220190D01*
X3944524Y-6334476D01*
X4068333Y-6334476D01*
X4239762Y-6134476D02*
X4201667Y-6134476D01*
X4182619Y-6144000D01*
X4173095Y-6153524D01*
X4154048Y-6182095D01*
X4144524Y-6220190D01*
X4144524Y-6296381D01*
X4154048Y-6315428D01*
X4163571Y-6324952D01*
X4182619Y-6334476D01*
X4220714Y-6334476D01*
X4239762Y-6324952D01*
X4249286Y-6315428D01*
X4258810Y-6296381D01*
X4258810Y-6248762D01*
X4249286Y-6229714D01*
X4239762Y-6220190D01*
X4220714Y-6210667D01*
X4182619Y-6210667D01*
X4163571Y-6220190D01*
X4154048Y-6229714D01*
X4144524Y-6248762D01*
X4382619Y-6134476D02*
X4401667Y-6134476D01*
X4420714Y-6144000D01*
X4430238Y-6153524D01*
X4439762Y-6172571D01*
X4449286Y-6210667D01*
X4449286Y-6258286D01*
X4439762Y-6296381D01*
X4430238Y-6315428D01*
X4420714Y-6324952D01*
X4401667Y-6334476D01*
X4382619Y-6334476D01*
X4363571Y-6324952D01*
X4354048Y-6315428D01*
X4344524Y-6296381D01*
X4335000Y-6258286D01*
X4335000Y-6210667D01*
X4344524Y-6172571D01*
X4354048Y-6153524D01*
X4363571Y-6144000D01*
X4382619Y-6134476D01*
X4525476Y-6134476D02*
X4525476Y-6172571D01*
X4601667Y-6134476D02*
X4601667Y-6172571D01*
X4896905Y-6410667D02*
X4887381Y-6401143D01*
X4868333Y-6372571D01*
X4858810Y-6353524D01*
X4849286Y-6324952D01*
X4839762Y-6277333D01*
X4839762Y-6239238D01*
X4849286Y-6191619D01*
X4858810Y-6163048D01*
X4868333Y-6144000D01*
X4887381Y-6115428D01*
X4896905Y-6105905D01*
X5077857Y-6334476D02*
X4963571Y-6334476D01*
X5020714Y-6334476D02*
X5020714Y-6134476D01*
X5001667Y-6163048D01*
X4982619Y-6182095D01*
X4963571Y-6191619D01*
X5315952Y-6334476D02*
X5315952Y-6134476D01*
X5401667Y-6334476D02*
X5401667Y-6229714D01*
X5392143Y-6210667D01*
X5373095Y-6201143D01*
X5344524Y-6201143D01*
X5325476Y-6210667D01*
X5315952Y-6220190D01*
X5525476Y-6334476D02*
X5506429Y-6324952D01*
X5496905Y-6315428D01*
X5487381Y-6296381D01*
X5487381Y-6239238D01*
X5496905Y-6220190D01*
X5506429Y-6210667D01*
X5525476Y-6201143D01*
X5554048Y-6201143D01*
X5573095Y-6210667D01*
X5582619Y-6220190D01*
X5592143Y-6239238D01*
X5592143Y-6296381D01*
X5582619Y-6315428D01*
X5573095Y-6324952D01*
X5554048Y-6334476D01*
X5525476Y-6334476D01*
X5706428Y-6334476D02*
X5687381Y-6324952D01*
X5677857Y-6305905D01*
X5677857Y-6134476D01*
X5858809Y-6324952D02*
X5839762Y-6334476D01*
X5801667Y-6334476D01*
X5782619Y-6324952D01*
X5773095Y-6305905D01*
X5773095Y-6229714D01*
X5782619Y-6210667D01*
X5801667Y-6201143D01*
X5839762Y-6201143D01*
X5858809Y-6210667D01*
X5868333Y-6229714D01*
X5868333Y-6248762D01*
X5773095Y-6267809D01*
X5935000Y-6410667D02*
X5944524Y-6401143D01*
X5963571Y-6372571D01*
X5973095Y-6353524D01*
X5982619Y-6324952D01*
X5992143Y-6277333D01*
X5992143Y-6239238D01*
X5982619Y-6191619D01*
X5973095Y-6163048D01*
X5963571Y-6144000D01*
X5944524Y-6115428D01*
X5935000Y-6105905D01*
X6296905Y-6410667D02*
X6287381Y-6401143D01*
X6268333Y-6372571D01*
X6258809Y-6353524D01*
X6249286Y-6324952D01*
X6239762Y-6277333D01*
X6239762Y-6239238D01*
X6249286Y-6191619D01*
X6258809Y-6163048D01*
X6268333Y-6144000D01*
X6287381Y-6115428D01*
X6296905Y-6105905D01*
X6373095Y-6201143D02*
X6373095Y-6334476D01*
X6373095Y-6220190D02*
X6382619Y-6210667D01*
X6401667Y-6201143D01*
X6430238Y-6201143D01*
X6449286Y-6210667D01*
X6458809Y-6229714D01*
X6458809Y-6334476D01*
X6582619Y-6334476D02*
X6563571Y-6324952D01*
X6554048Y-6315428D01*
X6544524Y-6296381D01*
X6544524Y-6239238D01*
X6554048Y-6220190D01*
X6563571Y-6210667D01*
X6582619Y-6201143D01*
X6611190Y-6201143D01*
X6630238Y-6210667D01*
X6639762Y-6220190D01*
X6649286Y-6239238D01*
X6649286Y-6296381D01*
X6639762Y-6315428D01*
X6630238Y-6324952D01*
X6611190Y-6334476D01*
X6582619Y-6334476D01*
X6706428Y-6201143D02*
X6782619Y-6201143D01*
X6735000Y-6134476D02*
X6735000Y-6305905D01*
X6744524Y-6324952D01*
X6763571Y-6334476D01*
X6782619Y-6334476D01*
X7001667Y-6201143D02*
X7001667Y-6401143D01*
X7001667Y-6210667D02*
X7020714Y-6201143D01*
X7058809Y-6201143D01*
X7077857Y-6210667D01*
X7087381Y-6220190D01*
X7096905Y-6239238D01*
X7096905Y-6296381D01*
X7087381Y-6315428D01*
X7077857Y-6324952D01*
X7058809Y-6334476D01*
X7020714Y-6334476D01*
X7001667Y-6324952D01*
X7211190Y-6334476D02*
X7192143Y-6324952D01*
X7182619Y-6305905D01*
X7182619Y-6134476D01*
X7373095Y-6334476D02*
X7373095Y-6229714D01*
X7363571Y-6210667D01*
X7344524Y-6201143D01*
X7306428Y-6201143D01*
X7287381Y-6210667D01*
X7373095Y-6324952D02*
X7354048Y-6334476D01*
X7306428Y-6334476D01*
X7287381Y-6324952D01*
X7277857Y-6305905D01*
X7277857Y-6286857D01*
X7287381Y-6267809D01*
X7306428Y-6258286D01*
X7354048Y-6258286D01*
X7373095Y-6248762D01*
X7439762Y-6201143D02*
X7515952Y-6201143D01*
X7468333Y-6134476D02*
X7468333Y-6305905D01*
X7477857Y-6324952D01*
X7496905Y-6334476D01*
X7515952Y-6334476D01*
X7658809Y-6324952D02*
X7639762Y-6334476D01*
X7601667Y-6334476D01*
X7582619Y-6324952D01*
X7573095Y-6305905D01*
X7573095Y-6229714D01*
X7582619Y-6210667D01*
X7601667Y-6201143D01*
X7639762Y-6201143D01*
X7658809Y-6210667D01*
X7668333Y-6229714D01*
X7668333Y-6248762D01*
X7573095Y-6267809D01*
X7839762Y-6334476D02*
X7839762Y-6134476D01*
X7839762Y-6324952D02*
X7820714Y-6334476D01*
X7782619Y-6334476D01*
X7763571Y-6324952D01*
X7754048Y-6315428D01*
X7744524Y-6296381D01*
X7744524Y-6239238D01*
X7754048Y-6220190D01*
X7763571Y-6210667D01*
X7782619Y-6201143D01*
X7820714Y-6201143D01*
X7839762Y-6210667D01*
X7915952Y-6410667D02*
X7925476Y-6401143D01*
X7944524Y-6372571D01*
X7954048Y-6353524D01*
X7963571Y-6324952D01*
X7973095Y-6277333D01*
X7973095Y-6239238D01*
X7963571Y-6191619D01*
X7954048Y-6163048D01*
X7944524Y-6144000D01*
X7925476Y-6115428D01*
X7915952Y-6105905D01*
M02*
