%FSLAX45Y45*%
G04 Gerber Fmt 4.5, Leading zero omitted, Abs format (unit mm)*
G04 Created by KiCad (PCBNEW (6.0.4)) date 2022-04-25 16:11:08*
%MOMM*%
%LPD*%
G01*
G04 APERTURE LIST*
%TA.AperFunction,Profile*%
%ADD10C,0.200000*%
%TD*%
%ADD11C,0.200000*%
%ADD12C,0.100000*%
%ADD13C,0.102000*%
%ADD14C,0.120000*%
%ADD15C,0.134000*%
%ADD16C,0.297320*%
%ADD17C,0.328000*%
G04 APERTURE END LIST*
D10*
X1335000Y-1287725D02*
X7658000Y-1287725D01*
X7658000Y-1287725D02*
X7658000Y-5594000D01*
X7658000Y-5594000D02*
X1335000Y-5594000D01*
X1335000Y-5594000D02*
X1335000Y-1287725D01*
D11*
D12*
X2250000Y-3950000D02*
X2350000Y-4050000D01*
X2350000Y-3950000D02*
X2250000Y-4050000D01*
X2250000Y-4150000D02*
X2350000Y-4250000D01*
X2350000Y-4150000D02*
X2250000Y-4250000D01*
X2250000Y-4350000D02*
X2350000Y-4450000D01*
X2350000Y-4350000D02*
X2250000Y-4450000D01*
X2250000Y-4540000D02*
X2350000Y-4640000D01*
X2350000Y-4540000D02*
X2250000Y-4640000D01*
X2450000Y-1906000D02*
X2550000Y-2006000D01*
X2550000Y-1906000D02*
X2450000Y-2006000D01*
X3807462Y-3857412D02*
X3907462Y-3957412D01*
X3907462Y-3857412D02*
X3807462Y-3957412D01*
X6906926Y-3850000D02*
X7006926Y-3950000D01*
X7006926Y-3850000D02*
X6906926Y-3950000D01*
X6923000Y-4144000D02*
X7023000Y-4244000D01*
X7023000Y-4144000D02*
X6923000Y-4244000D01*
X7350000Y-3850000D02*
X7450000Y-3950000D01*
X7450000Y-3850000D02*
X7350000Y-3950000D01*
X7350000Y-4150000D02*
X7450000Y-4250000D01*
X7450000Y-4150000D02*
X7350000Y-4250000D01*
X1612382Y-2025000D02*
G75*
G03*
X1612382Y-2025000I-50000J0D01*
G01*
X1866382Y-2025000D02*
G75*
G03*
X1866382Y-2025000I-50000J0D01*
G01*
X2120382Y-2025000D02*
G75*
G03*
X2120382Y-2025000I-50000J0D01*
G01*
X2150000Y-2466000D02*
G75*
G03*
X2150000Y-2466000I-50000J0D01*
G01*
X2150000Y-2720000D02*
G75*
G03*
X2150000Y-2720000I-50000J0D01*
G01*
X2150000Y-2974000D02*
G75*
G03*
X2150000Y-2974000I-50000J0D01*
G01*
X2150000Y-3228000D02*
G75*
G03*
X2150000Y-3228000I-50000J0D01*
G01*
D13*
X3833000Y-3314000D02*
X3833000Y-3416000D01*
X3782000Y-3365000D02*
X3884000Y-3365000D01*
X4087000Y-3318000D02*
X4087000Y-3420000D01*
X4036000Y-3369000D02*
X4138000Y-3369000D01*
X5357000Y-3318000D02*
X5357000Y-3420000D01*
X5306000Y-3369000D02*
X5408000Y-3369000D01*
X6373000Y-3318000D02*
X6373000Y-3420000D01*
X6322000Y-3369000D02*
X6424000Y-3369000D01*
X7389000Y-3318000D02*
X7389000Y-3420000D01*
X7338000Y-3369000D02*
X7440000Y-3369000D01*
D14*
X3167809Y-4026427D02*
X3167809Y-3941573D01*
X3082955Y-3941573D01*
X3082955Y-4026427D01*
X3167809Y-4026427D01*
X3417809Y-4026427D02*
X3417809Y-3941573D01*
X3332955Y-3941573D01*
X3332955Y-4026427D01*
X3417809Y-4026427D01*
X3667809Y-4026427D02*
X3667809Y-3941573D01*
X3582955Y-3941573D01*
X3582955Y-4026427D01*
X3667809Y-4026427D01*
X5729809Y-3974427D02*
X5729809Y-3889573D01*
X5644955Y-3889573D01*
X5644955Y-3974427D01*
X5729809Y-3974427D01*
X5729809Y-5424427D02*
X5729809Y-5339573D01*
X5644955Y-5339573D01*
X5644955Y-5424427D01*
X5729809Y-5424427D01*
X5979809Y-3974427D02*
X5979809Y-3889573D01*
X5894955Y-3889573D01*
X5894955Y-3974427D01*
X5979809Y-3974427D01*
X6229809Y-3974427D02*
X6229809Y-3889573D01*
X6144955Y-3889573D01*
X6144955Y-3974427D01*
X6229809Y-3974427D01*
X6229809Y-5424427D02*
X6229809Y-5339573D01*
X6144955Y-5339573D01*
X6144955Y-5424427D01*
X6229809Y-5424427D01*
D15*
X1512132Y-3767000D02*
X1579132Y-3700000D01*
X1512132Y-3633000D01*
X1445132Y-3700000D01*
X1512132Y-3767000D01*
X1512132Y-4631000D02*
X1579132Y-4564000D01*
X1512132Y-4497000D01*
X1445132Y-4564000D01*
X1512132Y-4631000D01*
X1531382Y-5075250D02*
X1598382Y-5008250D01*
X1531382Y-4941250D01*
X1464382Y-5008250D01*
X1531382Y-5075250D01*
X1531382Y-5455250D02*
X1598382Y-5388250D01*
X1531382Y-5321250D01*
X1464382Y-5388250D01*
X1531382Y-5455250D01*
X1892132Y-3767000D02*
X1959132Y-3700000D01*
X1892132Y-3633000D01*
X1825132Y-3700000D01*
X1892132Y-3767000D01*
X1892132Y-4631000D02*
X1959132Y-4564000D01*
X1892132Y-4497000D01*
X1825132Y-4564000D01*
X1892132Y-4631000D01*
X2395382Y-5075250D02*
X2462382Y-5008250D01*
X2395382Y-4941250D01*
X2328382Y-5008250D01*
X2395382Y-5075250D01*
X2395382Y-5455250D02*
X2462382Y-5388250D01*
X2395382Y-5321250D01*
X2328382Y-5388250D01*
X2395382Y-5455250D01*
X7067382Y-4557000D02*
X7134382Y-4490000D01*
X7067382Y-4423000D01*
X7000382Y-4490000D01*
X7067382Y-4557000D01*
X7067382Y-5421000D02*
X7134382Y-5354000D01*
X7067382Y-5287000D01*
X7000382Y-5354000D01*
X7067382Y-5421000D01*
X7447382Y-4557000D02*
X7514382Y-4490000D01*
X7447382Y-4423000D01*
X7380382Y-4490000D01*
X7447382Y-4557000D01*
X7447382Y-5421000D02*
X7514382Y-5354000D01*
X7447382Y-5287000D01*
X7380382Y-5354000D01*
X7447382Y-5421000D01*
D16*
X2786722Y-4535340D02*
X3084042Y-4832660D01*
X3084042Y-4535340D02*
X2786722Y-4832660D01*
X3084042Y-4684000D02*
G75*
G03*
X3084042Y-4684000I-148660J0D01*
G01*
X3666722Y-4535340D02*
X3964042Y-4832660D01*
X3964042Y-4535340D02*
X3666722Y-4832660D01*
X3964042Y-4684000D02*
G75*
G03*
X3964042Y-4684000I-148660J0D01*
G01*
D17*
X5213382Y-4518000D02*
X5541382Y-4846000D01*
X5541382Y-4518000D02*
X5213382Y-4846000D01*
X5377382Y-4518000D02*
X5377382Y-4846000D01*
X5213382Y-4682000D02*
X5541382Y-4682000D01*
X6333382Y-4518000D02*
X6661382Y-4846000D01*
X6661382Y-4518000D02*
X6333382Y-4846000D01*
X6497382Y-4518000D02*
X6497382Y-4846000D01*
X6333382Y-4682000D02*
X6661382Y-4682000D01*
D11*
X1582619Y-5914476D02*
X1582619Y-5714476D01*
X1630238Y-5714476D01*
X1658809Y-5724000D01*
X1677857Y-5743048D01*
X1687381Y-5762095D01*
X1696905Y-5800190D01*
X1696905Y-5828762D01*
X1687381Y-5866857D01*
X1677857Y-5885905D01*
X1658809Y-5904952D01*
X1630238Y-5914476D01*
X1582619Y-5914476D01*
X1782619Y-5914476D02*
X1782619Y-5781143D01*
X1782619Y-5819238D02*
X1792143Y-5800190D01*
X1801667Y-5790667D01*
X1820714Y-5781143D01*
X1839762Y-5781143D01*
X1906428Y-5914476D02*
X1906428Y-5781143D01*
X1906428Y-5714476D02*
X1896905Y-5724000D01*
X1906428Y-5733524D01*
X1915952Y-5724000D01*
X1906428Y-5714476D01*
X1906428Y-5733524D01*
X2030238Y-5914476D02*
X2011190Y-5904952D01*
X2001667Y-5885905D01*
X2001667Y-5714476D01*
X2135000Y-5914476D02*
X2115952Y-5904952D01*
X2106429Y-5885905D01*
X2106429Y-5714476D01*
X2363571Y-5914476D02*
X2363571Y-5714476D01*
X2430238Y-5857333D01*
X2496905Y-5714476D01*
X2496905Y-5914476D01*
X2677857Y-5914476D02*
X2677857Y-5809714D01*
X2668333Y-5790667D01*
X2649286Y-5781143D01*
X2611190Y-5781143D01*
X2592143Y-5790667D01*
X2677857Y-5904952D02*
X2658810Y-5914476D01*
X2611190Y-5914476D01*
X2592143Y-5904952D01*
X2582619Y-5885905D01*
X2582619Y-5866857D01*
X2592143Y-5847809D01*
X2611190Y-5838286D01*
X2658810Y-5838286D01*
X2677857Y-5828762D01*
X2773095Y-5781143D02*
X2773095Y-5981143D01*
X2773095Y-5790667D02*
X2792143Y-5781143D01*
X2830238Y-5781143D01*
X2849286Y-5790667D01*
X2858809Y-5800190D01*
X2868333Y-5819238D01*
X2868333Y-5876381D01*
X2858809Y-5895428D01*
X2849286Y-5904952D01*
X2830238Y-5914476D01*
X2792143Y-5914476D01*
X2773095Y-5904952D01*
X2954048Y-5895428D02*
X2963571Y-5904952D01*
X2954048Y-5914476D01*
X2944524Y-5904952D01*
X2954048Y-5895428D01*
X2954048Y-5914476D01*
X2954048Y-5790667D02*
X2963571Y-5800190D01*
X2954048Y-5809714D01*
X2944524Y-5800190D01*
X2954048Y-5790667D01*
X2954048Y-5809714D01*
D12*
X1225000Y-6194000D02*
X1325000Y-6294000D01*
X1325000Y-6194000D02*
X1225000Y-6294000D01*
D11*
X1687381Y-6334476D02*
X1573095Y-6334476D01*
X1630238Y-6334476D02*
X1630238Y-6134476D01*
X1611190Y-6163048D01*
X1592143Y-6182095D01*
X1573095Y-6191619D01*
X1773095Y-6315428D02*
X1782619Y-6324952D01*
X1773095Y-6334476D01*
X1763571Y-6324952D01*
X1773095Y-6315428D01*
X1773095Y-6334476D01*
X1906428Y-6134476D02*
X1925476Y-6134476D01*
X1944524Y-6144000D01*
X1954048Y-6153524D01*
X1963571Y-6172571D01*
X1973095Y-6210667D01*
X1973095Y-6258286D01*
X1963571Y-6296381D01*
X1954048Y-6315428D01*
X1944524Y-6324952D01*
X1925476Y-6334476D01*
X1906428Y-6334476D01*
X1887381Y-6324952D01*
X1877857Y-6315428D01*
X1868333Y-6296381D01*
X1858809Y-6258286D01*
X1858809Y-6210667D01*
X1868333Y-6172571D01*
X1877857Y-6153524D01*
X1887381Y-6144000D01*
X1906428Y-6134476D01*
X2096905Y-6134476D02*
X2115952Y-6134476D01*
X2135000Y-6144000D01*
X2144524Y-6153524D01*
X2154048Y-6172571D01*
X2163571Y-6210667D01*
X2163571Y-6258286D01*
X2154048Y-6296381D01*
X2144524Y-6315428D01*
X2135000Y-6324952D01*
X2115952Y-6334476D01*
X2096905Y-6334476D01*
X2077857Y-6324952D01*
X2068333Y-6315428D01*
X2058809Y-6296381D01*
X2049286Y-6258286D01*
X2049286Y-6210667D01*
X2058809Y-6172571D01*
X2068333Y-6153524D01*
X2077857Y-6144000D01*
X2096905Y-6134476D01*
X2287381Y-6134476D02*
X2306429Y-6134476D01*
X2325476Y-6144000D01*
X2335000Y-6153524D01*
X2344524Y-6172571D01*
X2354048Y-6210667D01*
X2354048Y-6258286D01*
X2344524Y-6296381D01*
X2335000Y-6315428D01*
X2325476Y-6324952D01*
X2306429Y-6334476D01*
X2287381Y-6334476D01*
X2268333Y-6324952D01*
X2258810Y-6315428D01*
X2249286Y-6296381D01*
X2239762Y-6258286D01*
X2239762Y-6210667D01*
X2249286Y-6172571D01*
X2258810Y-6153524D01*
X2268333Y-6144000D01*
X2287381Y-6134476D01*
X2439762Y-6334476D02*
X2439762Y-6201143D01*
X2439762Y-6220190D02*
X2449286Y-6210667D01*
X2468333Y-6201143D01*
X2496905Y-6201143D01*
X2515952Y-6210667D01*
X2525476Y-6229714D01*
X2525476Y-6334476D01*
X2525476Y-6229714D02*
X2535000Y-6210667D01*
X2554048Y-6201143D01*
X2582619Y-6201143D01*
X2601667Y-6210667D01*
X2611190Y-6229714D01*
X2611190Y-6334476D01*
X2706429Y-6334476D02*
X2706429Y-6201143D01*
X2706429Y-6220190D02*
X2715952Y-6210667D01*
X2735000Y-6201143D01*
X2763571Y-6201143D01*
X2782619Y-6210667D01*
X2792143Y-6229714D01*
X2792143Y-6334476D01*
X2792143Y-6229714D02*
X2801667Y-6210667D01*
X2820714Y-6201143D01*
X2849286Y-6201143D01*
X2868333Y-6210667D01*
X2877857Y-6229714D01*
X2877857Y-6334476D01*
X3268333Y-6124952D02*
X3096905Y-6382095D01*
X3525476Y-6134476D02*
X3544524Y-6134476D01*
X3563571Y-6144000D01*
X3573095Y-6153524D01*
X3582619Y-6172571D01*
X3592143Y-6210667D01*
X3592143Y-6258286D01*
X3582619Y-6296381D01*
X3573095Y-6315428D01*
X3563571Y-6324952D01*
X3544524Y-6334476D01*
X3525476Y-6334476D01*
X3506428Y-6324952D01*
X3496905Y-6315428D01*
X3487381Y-6296381D01*
X3477857Y-6258286D01*
X3477857Y-6210667D01*
X3487381Y-6172571D01*
X3496905Y-6153524D01*
X3506428Y-6144000D01*
X3525476Y-6134476D01*
X3677857Y-6315428D02*
X3687381Y-6324952D01*
X3677857Y-6334476D01*
X3668333Y-6324952D01*
X3677857Y-6315428D01*
X3677857Y-6334476D01*
X3811190Y-6134476D02*
X3830238Y-6134476D01*
X3849286Y-6144000D01*
X3858809Y-6153524D01*
X3868333Y-6172571D01*
X3877857Y-6210667D01*
X3877857Y-6258286D01*
X3868333Y-6296381D01*
X3858809Y-6315428D01*
X3849286Y-6324952D01*
X3830238Y-6334476D01*
X3811190Y-6334476D01*
X3792143Y-6324952D01*
X3782619Y-6315428D01*
X3773095Y-6296381D01*
X3763571Y-6258286D01*
X3763571Y-6210667D01*
X3773095Y-6172571D01*
X3782619Y-6153524D01*
X3792143Y-6144000D01*
X3811190Y-6134476D01*
X3944524Y-6134476D02*
X4068333Y-6134476D01*
X4001667Y-6210667D01*
X4030238Y-6210667D01*
X4049286Y-6220190D01*
X4058809Y-6229714D01*
X4068333Y-6248762D01*
X4068333Y-6296381D01*
X4058809Y-6315428D01*
X4049286Y-6324952D01*
X4030238Y-6334476D01*
X3973095Y-6334476D01*
X3954048Y-6324952D01*
X3944524Y-6315428D01*
X4163571Y-6334476D02*
X4201667Y-6334476D01*
X4220714Y-6324952D01*
X4230238Y-6315428D01*
X4249286Y-6286857D01*
X4258810Y-6248762D01*
X4258810Y-6172571D01*
X4249286Y-6153524D01*
X4239762Y-6144000D01*
X4220714Y-6134476D01*
X4182619Y-6134476D01*
X4163571Y-6144000D01*
X4154048Y-6153524D01*
X4144524Y-6172571D01*
X4144524Y-6220190D01*
X4154048Y-6239238D01*
X4163571Y-6248762D01*
X4182619Y-6258286D01*
X4220714Y-6258286D01*
X4239762Y-6248762D01*
X4249286Y-6239238D01*
X4258810Y-6220190D01*
X4430238Y-6201143D02*
X4430238Y-6334476D01*
X4382619Y-6124952D02*
X4335000Y-6267809D01*
X4458810Y-6267809D01*
X4525476Y-6134476D02*
X4525476Y-6172571D01*
X4601667Y-6134476D02*
X4601667Y-6172571D01*
X4896905Y-6410667D02*
X4887381Y-6401143D01*
X4868333Y-6372571D01*
X4858810Y-6353524D01*
X4849286Y-6324952D01*
X4839762Y-6277333D01*
X4839762Y-6239238D01*
X4849286Y-6191619D01*
X4858810Y-6163048D01*
X4868333Y-6144000D01*
X4887381Y-6115428D01*
X4896905Y-6105905D01*
X5077857Y-6334476D02*
X4963571Y-6334476D01*
X5020714Y-6334476D02*
X5020714Y-6134476D01*
X5001667Y-6163048D01*
X4982619Y-6182095D01*
X4963571Y-6191619D01*
X5201667Y-6134476D02*
X5220714Y-6134476D01*
X5239762Y-6144000D01*
X5249286Y-6153524D01*
X5258810Y-6172571D01*
X5268333Y-6210667D01*
X5268333Y-6258286D01*
X5258810Y-6296381D01*
X5249286Y-6315428D01*
X5239762Y-6324952D01*
X5220714Y-6334476D01*
X5201667Y-6334476D01*
X5182619Y-6324952D01*
X5173095Y-6315428D01*
X5163571Y-6296381D01*
X5154048Y-6258286D01*
X5154048Y-6210667D01*
X5163571Y-6172571D01*
X5173095Y-6153524D01*
X5182619Y-6144000D01*
X5201667Y-6134476D01*
X5506429Y-6334476D02*
X5506429Y-6134476D01*
X5592143Y-6334476D02*
X5592143Y-6229714D01*
X5582619Y-6210667D01*
X5563571Y-6201143D01*
X5535000Y-6201143D01*
X5515952Y-6210667D01*
X5506429Y-6220190D01*
X5715952Y-6334476D02*
X5696905Y-6324952D01*
X5687381Y-6315428D01*
X5677857Y-6296381D01*
X5677857Y-6239238D01*
X5687381Y-6220190D01*
X5696905Y-6210667D01*
X5715952Y-6201143D01*
X5744524Y-6201143D01*
X5763571Y-6210667D01*
X5773095Y-6220190D01*
X5782619Y-6239238D01*
X5782619Y-6296381D01*
X5773095Y-6315428D01*
X5763571Y-6324952D01*
X5744524Y-6334476D01*
X5715952Y-6334476D01*
X5896905Y-6334476D02*
X5877857Y-6324952D01*
X5868333Y-6305905D01*
X5868333Y-6134476D01*
X6049286Y-6324952D02*
X6030238Y-6334476D01*
X5992143Y-6334476D01*
X5973095Y-6324952D01*
X5963571Y-6305905D01*
X5963571Y-6229714D01*
X5973095Y-6210667D01*
X5992143Y-6201143D01*
X6030238Y-6201143D01*
X6049286Y-6210667D01*
X6058809Y-6229714D01*
X6058809Y-6248762D01*
X5963571Y-6267809D01*
X6135000Y-6324952D02*
X6154048Y-6334476D01*
X6192143Y-6334476D01*
X6211190Y-6324952D01*
X6220714Y-6305905D01*
X6220714Y-6296381D01*
X6211190Y-6277333D01*
X6192143Y-6267809D01*
X6163571Y-6267809D01*
X6144524Y-6258286D01*
X6135000Y-6239238D01*
X6135000Y-6229714D01*
X6144524Y-6210667D01*
X6163571Y-6201143D01*
X6192143Y-6201143D01*
X6211190Y-6210667D01*
X6287381Y-6410667D02*
X6296905Y-6401143D01*
X6315952Y-6372571D01*
X6325476Y-6353524D01*
X6335000Y-6324952D01*
X6344524Y-6277333D01*
X6344524Y-6239238D01*
X6335000Y-6191619D01*
X6325476Y-6163048D01*
X6315952Y-6144000D01*
X6296905Y-6115428D01*
X6287381Y-6105905D01*
D12*
X1325000Y-6508000D02*
G75*
G03*
X1325000Y-6508000I-50000J0D01*
G01*
D11*
X1687381Y-6598476D02*
X1573095Y-6598476D01*
X1630238Y-6598476D02*
X1630238Y-6398476D01*
X1611190Y-6427048D01*
X1592143Y-6446095D01*
X1573095Y-6455619D01*
X1773095Y-6579428D02*
X1782619Y-6588952D01*
X1773095Y-6598476D01*
X1763571Y-6588952D01*
X1773095Y-6579428D01*
X1773095Y-6598476D01*
X1906428Y-6398476D02*
X1925476Y-6398476D01*
X1944524Y-6408000D01*
X1954048Y-6417524D01*
X1963571Y-6436571D01*
X1973095Y-6474667D01*
X1973095Y-6522286D01*
X1963571Y-6560381D01*
X1954048Y-6579428D01*
X1944524Y-6588952D01*
X1925476Y-6598476D01*
X1906428Y-6598476D01*
X1887381Y-6588952D01*
X1877857Y-6579428D01*
X1868333Y-6560381D01*
X1858809Y-6522286D01*
X1858809Y-6474667D01*
X1868333Y-6436571D01*
X1877857Y-6417524D01*
X1887381Y-6408000D01*
X1906428Y-6398476D01*
X2096905Y-6398476D02*
X2115952Y-6398476D01*
X2135000Y-6408000D01*
X2144524Y-6417524D01*
X2154048Y-6436571D01*
X2163571Y-6474667D01*
X2163571Y-6522286D01*
X2154048Y-6560381D01*
X2144524Y-6579428D01*
X2135000Y-6588952D01*
X2115952Y-6598476D01*
X2096905Y-6598476D01*
X2077857Y-6588952D01*
X2068333Y-6579428D01*
X2058809Y-6560381D01*
X2049286Y-6522286D01*
X2049286Y-6474667D01*
X2058809Y-6436571D01*
X2068333Y-6417524D01*
X2077857Y-6408000D01*
X2096905Y-6398476D01*
X2287381Y-6398476D02*
X2306429Y-6398476D01*
X2325476Y-6408000D01*
X2335000Y-6417524D01*
X2344524Y-6436571D01*
X2354048Y-6474667D01*
X2354048Y-6522286D01*
X2344524Y-6560381D01*
X2335000Y-6579428D01*
X2325476Y-6588952D01*
X2306429Y-6598476D01*
X2287381Y-6598476D01*
X2268333Y-6588952D01*
X2258810Y-6579428D01*
X2249286Y-6560381D01*
X2239762Y-6522286D01*
X2239762Y-6474667D01*
X2249286Y-6436571D01*
X2258810Y-6417524D01*
X2268333Y-6408000D01*
X2287381Y-6398476D01*
X2439762Y-6598476D02*
X2439762Y-6465143D01*
X2439762Y-6484190D02*
X2449286Y-6474667D01*
X2468333Y-6465143D01*
X2496905Y-6465143D01*
X2515952Y-6474667D01*
X2525476Y-6493714D01*
X2525476Y-6598476D01*
X2525476Y-6493714D02*
X2535000Y-6474667D01*
X2554048Y-6465143D01*
X2582619Y-6465143D01*
X2601667Y-6474667D01*
X2611190Y-6493714D01*
X2611190Y-6598476D01*
X2706429Y-6598476D02*
X2706429Y-6465143D01*
X2706429Y-6484190D02*
X2715952Y-6474667D01*
X2735000Y-6465143D01*
X2763571Y-6465143D01*
X2782619Y-6474667D01*
X2792143Y-6493714D01*
X2792143Y-6598476D01*
X2792143Y-6493714D02*
X2801667Y-6474667D01*
X2820714Y-6465143D01*
X2849286Y-6465143D01*
X2868333Y-6474667D01*
X2877857Y-6493714D01*
X2877857Y-6598476D01*
X3268333Y-6388952D02*
X3096905Y-6646095D01*
X3525476Y-6398476D02*
X3544524Y-6398476D01*
X3563571Y-6408000D01*
X3573095Y-6417524D01*
X3582619Y-6436571D01*
X3592143Y-6474667D01*
X3592143Y-6522286D01*
X3582619Y-6560381D01*
X3573095Y-6579428D01*
X3563571Y-6588952D01*
X3544524Y-6598476D01*
X3525476Y-6598476D01*
X3506428Y-6588952D01*
X3496905Y-6579428D01*
X3487381Y-6560381D01*
X3477857Y-6522286D01*
X3477857Y-6474667D01*
X3487381Y-6436571D01*
X3496905Y-6417524D01*
X3506428Y-6408000D01*
X3525476Y-6398476D01*
X3677857Y-6579428D02*
X3687381Y-6588952D01*
X3677857Y-6598476D01*
X3668333Y-6588952D01*
X3677857Y-6579428D01*
X3677857Y-6598476D01*
X3811190Y-6398476D02*
X3830238Y-6398476D01*
X3849286Y-6408000D01*
X3858809Y-6417524D01*
X3868333Y-6436571D01*
X3877857Y-6474667D01*
X3877857Y-6522286D01*
X3868333Y-6560381D01*
X3858809Y-6579428D01*
X3849286Y-6588952D01*
X3830238Y-6598476D01*
X3811190Y-6598476D01*
X3792143Y-6588952D01*
X3782619Y-6579428D01*
X3773095Y-6560381D01*
X3763571Y-6522286D01*
X3763571Y-6474667D01*
X3773095Y-6436571D01*
X3782619Y-6417524D01*
X3792143Y-6408000D01*
X3811190Y-6398476D01*
X3944524Y-6398476D02*
X4068333Y-6398476D01*
X4001667Y-6474667D01*
X4030238Y-6474667D01*
X4049286Y-6484190D01*
X4058809Y-6493714D01*
X4068333Y-6512762D01*
X4068333Y-6560381D01*
X4058809Y-6579428D01*
X4049286Y-6588952D01*
X4030238Y-6598476D01*
X3973095Y-6598476D01*
X3954048Y-6588952D01*
X3944524Y-6579428D01*
X4163571Y-6598476D02*
X4201667Y-6598476D01*
X4220714Y-6588952D01*
X4230238Y-6579428D01*
X4249286Y-6550857D01*
X4258810Y-6512762D01*
X4258810Y-6436571D01*
X4249286Y-6417524D01*
X4239762Y-6408000D01*
X4220714Y-6398476D01*
X4182619Y-6398476D01*
X4163571Y-6408000D01*
X4154048Y-6417524D01*
X4144524Y-6436571D01*
X4144524Y-6484190D01*
X4154048Y-6503238D01*
X4163571Y-6512762D01*
X4182619Y-6522286D01*
X4220714Y-6522286D01*
X4239762Y-6512762D01*
X4249286Y-6503238D01*
X4258810Y-6484190D01*
X4430238Y-6465143D02*
X4430238Y-6598476D01*
X4382619Y-6388952D02*
X4335000Y-6531809D01*
X4458810Y-6531809D01*
X4525476Y-6398476D02*
X4525476Y-6436571D01*
X4601667Y-6398476D02*
X4601667Y-6436571D01*
X4896905Y-6674667D02*
X4887381Y-6665143D01*
X4868333Y-6636571D01*
X4858810Y-6617524D01*
X4849286Y-6588952D01*
X4839762Y-6541333D01*
X4839762Y-6503238D01*
X4849286Y-6455619D01*
X4858810Y-6427048D01*
X4868333Y-6408000D01*
X4887381Y-6379428D01*
X4896905Y-6369905D01*
X4954048Y-6398476D02*
X5087381Y-6398476D01*
X5001667Y-6598476D01*
X5315952Y-6598476D02*
X5315952Y-6398476D01*
X5401667Y-6598476D02*
X5401667Y-6493714D01*
X5392143Y-6474667D01*
X5373095Y-6465143D01*
X5344524Y-6465143D01*
X5325476Y-6474667D01*
X5315952Y-6484190D01*
X5525476Y-6598476D02*
X5506429Y-6588952D01*
X5496905Y-6579428D01*
X5487381Y-6560381D01*
X5487381Y-6503238D01*
X5496905Y-6484190D01*
X5506429Y-6474667D01*
X5525476Y-6465143D01*
X5554048Y-6465143D01*
X5573095Y-6474667D01*
X5582619Y-6484190D01*
X5592143Y-6503238D01*
X5592143Y-6560381D01*
X5582619Y-6579428D01*
X5573095Y-6588952D01*
X5554048Y-6598476D01*
X5525476Y-6598476D01*
X5706428Y-6598476D02*
X5687381Y-6588952D01*
X5677857Y-6569905D01*
X5677857Y-6398476D01*
X5858809Y-6588952D02*
X5839762Y-6598476D01*
X5801667Y-6598476D01*
X5782619Y-6588952D01*
X5773095Y-6569905D01*
X5773095Y-6493714D01*
X5782619Y-6474667D01*
X5801667Y-6465143D01*
X5839762Y-6465143D01*
X5858809Y-6474667D01*
X5868333Y-6493714D01*
X5868333Y-6512762D01*
X5773095Y-6531809D01*
X5944524Y-6588952D02*
X5963571Y-6598476D01*
X6001667Y-6598476D01*
X6020714Y-6588952D01*
X6030238Y-6569905D01*
X6030238Y-6560381D01*
X6020714Y-6541333D01*
X6001667Y-6531809D01*
X5973095Y-6531809D01*
X5954048Y-6522286D01*
X5944524Y-6503238D01*
X5944524Y-6493714D01*
X5954048Y-6474667D01*
X5973095Y-6465143D01*
X6001667Y-6465143D01*
X6020714Y-6474667D01*
X6096905Y-6674667D02*
X6106428Y-6665143D01*
X6125476Y-6636571D01*
X6135000Y-6617524D01*
X6144524Y-6588952D01*
X6154048Y-6541333D01*
X6154048Y-6503238D01*
X6144524Y-6455619D01*
X6135000Y-6427048D01*
X6125476Y-6408000D01*
X6106428Y-6379428D01*
X6096905Y-6369905D01*
D13*
X1274000Y-6721000D02*
X1274000Y-6823000D01*
X1223000Y-6772000D02*
X1325000Y-6772000D01*
D11*
X1687381Y-6862476D02*
X1573095Y-6862476D01*
X1630238Y-6862476D02*
X1630238Y-6662476D01*
X1611190Y-6691048D01*
X1592143Y-6710095D01*
X1573095Y-6719619D01*
X1773095Y-6843428D02*
X1782619Y-6852952D01*
X1773095Y-6862476D01*
X1763571Y-6852952D01*
X1773095Y-6843428D01*
X1773095Y-6862476D01*
X1906428Y-6662476D02*
X1925476Y-6662476D01*
X1944524Y-6672000D01*
X1954048Y-6681524D01*
X1963571Y-6700571D01*
X1973095Y-6738667D01*
X1973095Y-6786286D01*
X1963571Y-6824381D01*
X1954048Y-6843428D01*
X1944524Y-6852952D01*
X1925476Y-6862476D01*
X1906428Y-6862476D01*
X1887381Y-6852952D01*
X1877857Y-6843428D01*
X1868333Y-6824381D01*
X1858809Y-6786286D01*
X1858809Y-6738667D01*
X1868333Y-6700571D01*
X1877857Y-6681524D01*
X1887381Y-6672000D01*
X1906428Y-6662476D01*
X2049286Y-6681524D02*
X2058809Y-6672000D01*
X2077857Y-6662476D01*
X2125476Y-6662476D01*
X2144524Y-6672000D01*
X2154048Y-6681524D01*
X2163571Y-6700571D01*
X2163571Y-6719619D01*
X2154048Y-6748190D01*
X2039762Y-6862476D01*
X2163571Y-6862476D01*
X2287381Y-6662476D02*
X2306429Y-6662476D01*
X2325476Y-6672000D01*
X2335000Y-6681524D01*
X2344524Y-6700571D01*
X2354048Y-6738667D01*
X2354048Y-6786286D01*
X2344524Y-6824381D01*
X2335000Y-6843428D01*
X2325476Y-6852952D01*
X2306429Y-6862476D01*
X2287381Y-6862476D01*
X2268333Y-6852952D01*
X2258810Y-6843428D01*
X2249286Y-6824381D01*
X2239762Y-6786286D01*
X2239762Y-6738667D01*
X2249286Y-6700571D01*
X2258810Y-6681524D01*
X2268333Y-6672000D01*
X2287381Y-6662476D01*
X2439762Y-6862476D02*
X2439762Y-6729143D01*
X2439762Y-6748190D02*
X2449286Y-6738667D01*
X2468333Y-6729143D01*
X2496905Y-6729143D01*
X2515952Y-6738667D01*
X2525476Y-6757714D01*
X2525476Y-6862476D01*
X2525476Y-6757714D02*
X2535000Y-6738667D01*
X2554048Y-6729143D01*
X2582619Y-6729143D01*
X2601667Y-6738667D01*
X2611190Y-6757714D01*
X2611190Y-6862476D01*
X2706429Y-6862476D02*
X2706429Y-6729143D01*
X2706429Y-6748190D02*
X2715952Y-6738667D01*
X2735000Y-6729143D01*
X2763571Y-6729143D01*
X2782619Y-6738667D01*
X2792143Y-6757714D01*
X2792143Y-6862476D01*
X2792143Y-6757714D02*
X2801667Y-6738667D01*
X2820714Y-6729143D01*
X2849286Y-6729143D01*
X2868333Y-6738667D01*
X2877857Y-6757714D01*
X2877857Y-6862476D01*
X3268333Y-6652952D02*
X3096905Y-6910095D01*
X3525476Y-6662476D02*
X3544524Y-6662476D01*
X3563571Y-6672000D01*
X3573095Y-6681524D01*
X3582619Y-6700571D01*
X3592143Y-6738667D01*
X3592143Y-6786286D01*
X3582619Y-6824381D01*
X3573095Y-6843428D01*
X3563571Y-6852952D01*
X3544524Y-6862476D01*
X3525476Y-6862476D01*
X3506428Y-6852952D01*
X3496905Y-6843428D01*
X3487381Y-6824381D01*
X3477857Y-6786286D01*
X3477857Y-6738667D01*
X3487381Y-6700571D01*
X3496905Y-6681524D01*
X3506428Y-6672000D01*
X3525476Y-6662476D01*
X3677857Y-6843428D02*
X3687381Y-6852952D01*
X3677857Y-6862476D01*
X3668333Y-6852952D01*
X3677857Y-6843428D01*
X3677857Y-6862476D01*
X3811190Y-6662476D02*
X3830238Y-6662476D01*
X3849286Y-6672000D01*
X3858809Y-6681524D01*
X3868333Y-6700571D01*
X3877857Y-6738667D01*
X3877857Y-6786286D01*
X3868333Y-6824381D01*
X3858809Y-6843428D01*
X3849286Y-6852952D01*
X3830238Y-6862476D01*
X3811190Y-6862476D01*
X3792143Y-6852952D01*
X3782619Y-6843428D01*
X3773095Y-6824381D01*
X3763571Y-6786286D01*
X3763571Y-6738667D01*
X3773095Y-6700571D01*
X3782619Y-6681524D01*
X3792143Y-6672000D01*
X3811190Y-6662476D01*
X4049286Y-6729143D02*
X4049286Y-6862476D01*
X4001667Y-6652952D02*
X3954048Y-6795809D01*
X4077857Y-6795809D01*
X4192143Y-6662476D02*
X4211190Y-6662476D01*
X4230238Y-6672000D01*
X4239762Y-6681524D01*
X4249286Y-6700571D01*
X4258810Y-6738667D01*
X4258810Y-6786286D01*
X4249286Y-6824381D01*
X4239762Y-6843428D01*
X4230238Y-6852952D01*
X4211190Y-6862476D01*
X4192143Y-6862476D01*
X4173095Y-6852952D01*
X4163571Y-6843428D01*
X4154048Y-6824381D01*
X4144524Y-6786286D01*
X4144524Y-6738667D01*
X4154048Y-6700571D01*
X4163571Y-6681524D01*
X4173095Y-6672000D01*
X4192143Y-6662476D01*
X4335000Y-6681524D02*
X4344524Y-6672000D01*
X4363571Y-6662476D01*
X4411190Y-6662476D01*
X4430238Y-6672000D01*
X4439762Y-6681524D01*
X4449286Y-6700571D01*
X4449286Y-6719619D01*
X4439762Y-6748190D01*
X4325476Y-6862476D01*
X4449286Y-6862476D01*
X4525476Y-6662476D02*
X4525476Y-6700571D01*
X4601667Y-6662476D02*
X4601667Y-6700571D01*
X4896905Y-6938667D02*
X4887381Y-6929143D01*
X4868333Y-6900571D01*
X4858810Y-6881524D01*
X4849286Y-6852952D01*
X4839762Y-6805333D01*
X4839762Y-6767238D01*
X4849286Y-6719619D01*
X4858810Y-6691048D01*
X4868333Y-6672000D01*
X4887381Y-6643428D01*
X4896905Y-6633905D01*
X5068333Y-6662476D02*
X4973095Y-6662476D01*
X4963571Y-6757714D01*
X4973095Y-6748190D01*
X4992143Y-6738667D01*
X5039762Y-6738667D01*
X5058810Y-6748190D01*
X5068333Y-6757714D01*
X5077857Y-6776762D01*
X5077857Y-6824381D01*
X5068333Y-6843428D01*
X5058810Y-6852952D01*
X5039762Y-6862476D01*
X4992143Y-6862476D01*
X4973095Y-6852952D01*
X4963571Y-6843428D01*
X5315952Y-6862476D02*
X5315952Y-6662476D01*
X5401667Y-6862476D02*
X5401667Y-6757714D01*
X5392143Y-6738667D01*
X5373095Y-6729143D01*
X5344524Y-6729143D01*
X5325476Y-6738667D01*
X5315952Y-6748190D01*
X5525476Y-6862476D02*
X5506429Y-6852952D01*
X5496905Y-6843428D01*
X5487381Y-6824381D01*
X5487381Y-6767238D01*
X5496905Y-6748190D01*
X5506429Y-6738667D01*
X5525476Y-6729143D01*
X5554048Y-6729143D01*
X5573095Y-6738667D01*
X5582619Y-6748190D01*
X5592143Y-6767238D01*
X5592143Y-6824381D01*
X5582619Y-6843428D01*
X5573095Y-6852952D01*
X5554048Y-6862476D01*
X5525476Y-6862476D01*
X5706428Y-6862476D02*
X5687381Y-6852952D01*
X5677857Y-6833905D01*
X5677857Y-6662476D01*
X5858809Y-6852952D02*
X5839762Y-6862476D01*
X5801667Y-6862476D01*
X5782619Y-6852952D01*
X5773095Y-6833905D01*
X5773095Y-6757714D01*
X5782619Y-6738667D01*
X5801667Y-6729143D01*
X5839762Y-6729143D01*
X5858809Y-6738667D01*
X5868333Y-6757714D01*
X5868333Y-6776762D01*
X5773095Y-6795809D01*
X5944524Y-6852952D02*
X5963571Y-6862476D01*
X6001667Y-6862476D01*
X6020714Y-6852952D01*
X6030238Y-6833905D01*
X6030238Y-6824381D01*
X6020714Y-6805333D01*
X6001667Y-6795809D01*
X5973095Y-6795809D01*
X5954048Y-6786286D01*
X5944524Y-6767238D01*
X5944524Y-6757714D01*
X5954048Y-6738667D01*
X5973095Y-6729143D01*
X6001667Y-6729143D01*
X6020714Y-6738667D01*
X6096905Y-6938667D02*
X6106428Y-6929143D01*
X6125476Y-6900571D01*
X6135000Y-6881524D01*
X6144524Y-6852952D01*
X6154048Y-6805333D01*
X6154048Y-6767238D01*
X6144524Y-6719619D01*
X6135000Y-6691048D01*
X6125476Y-6672000D01*
X6106428Y-6643428D01*
X6096905Y-6633905D01*
D14*
X1307427Y-7078427D02*
X1307427Y-6993573D01*
X1222573Y-6993573D01*
X1222573Y-7078427D01*
X1307427Y-7078427D01*
D11*
X1687381Y-7126476D02*
X1573095Y-7126476D01*
X1630238Y-7126476D02*
X1630238Y-6926476D01*
X1611190Y-6955048D01*
X1592143Y-6974095D01*
X1573095Y-6983619D01*
X1773095Y-7107428D02*
X1782619Y-7116952D01*
X1773095Y-7126476D01*
X1763571Y-7116952D01*
X1773095Y-7107428D01*
X1773095Y-7126476D01*
X1858809Y-6945524D02*
X1868333Y-6936000D01*
X1887381Y-6926476D01*
X1935000Y-6926476D01*
X1954048Y-6936000D01*
X1963571Y-6945524D01*
X1973095Y-6964571D01*
X1973095Y-6983619D01*
X1963571Y-7012190D01*
X1849286Y-7126476D01*
X1973095Y-7126476D01*
X2096905Y-6926476D02*
X2115952Y-6926476D01*
X2135000Y-6936000D01*
X2144524Y-6945524D01*
X2154048Y-6964571D01*
X2163571Y-7002667D01*
X2163571Y-7050286D01*
X2154048Y-7088381D01*
X2144524Y-7107428D01*
X2135000Y-7116952D01*
X2115952Y-7126476D01*
X2096905Y-7126476D01*
X2077857Y-7116952D01*
X2068333Y-7107428D01*
X2058809Y-7088381D01*
X2049286Y-7050286D01*
X2049286Y-7002667D01*
X2058809Y-6964571D01*
X2068333Y-6945524D01*
X2077857Y-6936000D01*
X2096905Y-6926476D01*
X2287381Y-6926476D02*
X2306429Y-6926476D01*
X2325476Y-6936000D01*
X2335000Y-6945524D01*
X2344524Y-6964571D01*
X2354048Y-7002667D01*
X2354048Y-7050286D01*
X2344524Y-7088381D01*
X2335000Y-7107428D01*
X2325476Y-7116952D01*
X2306429Y-7126476D01*
X2287381Y-7126476D01*
X2268333Y-7116952D01*
X2258810Y-7107428D01*
X2249286Y-7088381D01*
X2239762Y-7050286D01*
X2239762Y-7002667D01*
X2249286Y-6964571D01*
X2258810Y-6945524D01*
X2268333Y-6936000D01*
X2287381Y-6926476D01*
X2439762Y-7126476D02*
X2439762Y-6993143D01*
X2439762Y-7012190D02*
X2449286Y-7002667D01*
X2468333Y-6993143D01*
X2496905Y-6993143D01*
X2515952Y-7002667D01*
X2525476Y-7021714D01*
X2525476Y-7126476D01*
X2525476Y-7021714D02*
X2535000Y-7002667D01*
X2554048Y-6993143D01*
X2582619Y-6993143D01*
X2601667Y-7002667D01*
X2611190Y-7021714D01*
X2611190Y-7126476D01*
X2706429Y-7126476D02*
X2706429Y-6993143D01*
X2706429Y-7012190D02*
X2715952Y-7002667D01*
X2735000Y-6993143D01*
X2763571Y-6993143D01*
X2782619Y-7002667D01*
X2792143Y-7021714D01*
X2792143Y-7126476D01*
X2792143Y-7021714D02*
X2801667Y-7002667D01*
X2820714Y-6993143D01*
X2849286Y-6993143D01*
X2868333Y-7002667D01*
X2877857Y-7021714D01*
X2877857Y-7126476D01*
X3268333Y-6916952D02*
X3096905Y-7174095D01*
X3525476Y-6926476D02*
X3544524Y-6926476D01*
X3563571Y-6936000D01*
X3573095Y-6945524D01*
X3582619Y-6964571D01*
X3592143Y-7002667D01*
X3592143Y-7050286D01*
X3582619Y-7088381D01*
X3573095Y-7107428D01*
X3563571Y-7116952D01*
X3544524Y-7126476D01*
X3525476Y-7126476D01*
X3506428Y-7116952D01*
X3496905Y-7107428D01*
X3487381Y-7088381D01*
X3477857Y-7050286D01*
X3477857Y-7002667D01*
X3487381Y-6964571D01*
X3496905Y-6945524D01*
X3506428Y-6936000D01*
X3525476Y-6926476D01*
X3677857Y-7107428D02*
X3687381Y-7116952D01*
X3677857Y-7126476D01*
X3668333Y-7116952D01*
X3677857Y-7107428D01*
X3677857Y-7126476D01*
X3811190Y-6926476D02*
X3830238Y-6926476D01*
X3849286Y-6936000D01*
X3858809Y-6945524D01*
X3868333Y-6964571D01*
X3877857Y-7002667D01*
X3877857Y-7050286D01*
X3868333Y-7088381D01*
X3858809Y-7107428D01*
X3849286Y-7116952D01*
X3830238Y-7126476D01*
X3811190Y-7126476D01*
X3792143Y-7116952D01*
X3782619Y-7107428D01*
X3773095Y-7088381D01*
X3763571Y-7050286D01*
X3763571Y-7002667D01*
X3773095Y-6964571D01*
X3782619Y-6945524D01*
X3792143Y-6936000D01*
X3811190Y-6926476D01*
X4049286Y-6993143D02*
X4049286Y-7126476D01*
X4001667Y-6916952D02*
X3954048Y-7059809D01*
X4077857Y-7059809D01*
X4135000Y-6926476D02*
X4268333Y-6926476D01*
X4182619Y-7126476D01*
X4335000Y-6945524D02*
X4344524Y-6936000D01*
X4363571Y-6926476D01*
X4411190Y-6926476D01*
X4430238Y-6936000D01*
X4439762Y-6945524D01*
X4449286Y-6964571D01*
X4449286Y-6983619D01*
X4439762Y-7012190D01*
X4325476Y-7126476D01*
X4449286Y-7126476D01*
X4525476Y-6926476D02*
X4525476Y-6964571D01*
X4601667Y-6926476D02*
X4601667Y-6964571D01*
X4896905Y-7202667D02*
X4887381Y-7193143D01*
X4868333Y-7164571D01*
X4858810Y-7145524D01*
X4849286Y-7116952D01*
X4839762Y-7069333D01*
X4839762Y-7031238D01*
X4849286Y-6983619D01*
X4858810Y-6955048D01*
X4868333Y-6936000D01*
X4887381Y-6907428D01*
X4896905Y-6897905D01*
X5001667Y-7012190D02*
X4982619Y-7002667D01*
X4973095Y-6993143D01*
X4963571Y-6974095D01*
X4963571Y-6964571D01*
X4973095Y-6945524D01*
X4982619Y-6936000D01*
X5001667Y-6926476D01*
X5039762Y-6926476D01*
X5058810Y-6936000D01*
X5068333Y-6945524D01*
X5077857Y-6964571D01*
X5077857Y-6974095D01*
X5068333Y-6993143D01*
X5058810Y-7002667D01*
X5039762Y-7012190D01*
X5001667Y-7012190D01*
X4982619Y-7021714D01*
X4973095Y-7031238D01*
X4963571Y-7050286D01*
X4963571Y-7088381D01*
X4973095Y-7107428D01*
X4982619Y-7116952D01*
X5001667Y-7126476D01*
X5039762Y-7126476D01*
X5058810Y-7116952D01*
X5068333Y-7107428D01*
X5077857Y-7088381D01*
X5077857Y-7050286D01*
X5068333Y-7031238D01*
X5058810Y-7021714D01*
X5039762Y-7012190D01*
X5315952Y-7126476D02*
X5315952Y-6926476D01*
X5401667Y-7126476D02*
X5401667Y-7021714D01*
X5392143Y-7002667D01*
X5373095Y-6993143D01*
X5344524Y-6993143D01*
X5325476Y-7002667D01*
X5315952Y-7012190D01*
X5525476Y-7126476D02*
X5506429Y-7116952D01*
X5496905Y-7107428D01*
X5487381Y-7088381D01*
X5487381Y-7031238D01*
X5496905Y-7012190D01*
X5506429Y-7002667D01*
X5525476Y-6993143D01*
X5554048Y-6993143D01*
X5573095Y-7002667D01*
X5582619Y-7012190D01*
X5592143Y-7031238D01*
X5592143Y-7088381D01*
X5582619Y-7107428D01*
X5573095Y-7116952D01*
X5554048Y-7126476D01*
X5525476Y-7126476D01*
X5706428Y-7126476D02*
X5687381Y-7116952D01*
X5677857Y-7097905D01*
X5677857Y-6926476D01*
X5858809Y-7116952D02*
X5839762Y-7126476D01*
X5801667Y-7126476D01*
X5782619Y-7116952D01*
X5773095Y-7097905D01*
X5773095Y-7021714D01*
X5782619Y-7002667D01*
X5801667Y-6993143D01*
X5839762Y-6993143D01*
X5858809Y-7002667D01*
X5868333Y-7021714D01*
X5868333Y-7040762D01*
X5773095Y-7059809D01*
X5944524Y-7116952D02*
X5963571Y-7126476D01*
X6001667Y-7126476D01*
X6020714Y-7116952D01*
X6030238Y-7097905D01*
X6030238Y-7088381D01*
X6020714Y-7069333D01*
X6001667Y-7059809D01*
X5973095Y-7059809D01*
X5954048Y-7050286D01*
X5944524Y-7031238D01*
X5944524Y-7021714D01*
X5954048Y-7002667D01*
X5973095Y-6993143D01*
X6001667Y-6993143D01*
X6020714Y-7002667D01*
X6096905Y-7202667D02*
X6106428Y-7193143D01*
X6125476Y-7164571D01*
X6135000Y-7145524D01*
X6144524Y-7116952D01*
X6154048Y-7069333D01*
X6154048Y-7031238D01*
X6144524Y-6983619D01*
X6135000Y-6955048D01*
X6125476Y-6936000D01*
X6106428Y-6907428D01*
X6096905Y-6897905D01*
D15*
X1258000Y-7367000D02*
X1325000Y-7300000D01*
X1258000Y-7233000D01*
X1191000Y-7300000D01*
X1258000Y-7367000D01*
D11*
X1687381Y-7390476D02*
X1573095Y-7390476D01*
X1630238Y-7390476D02*
X1630238Y-7190476D01*
X1611190Y-7219048D01*
X1592143Y-7238095D01*
X1573095Y-7247619D01*
X1773095Y-7371428D02*
X1782619Y-7380952D01*
X1773095Y-7390476D01*
X1763571Y-7380952D01*
X1773095Y-7371428D01*
X1773095Y-7390476D01*
X1849286Y-7190476D02*
X1973095Y-7190476D01*
X1906428Y-7266667D01*
X1935000Y-7266667D01*
X1954048Y-7276190D01*
X1963571Y-7285714D01*
X1973095Y-7304762D01*
X1973095Y-7352381D01*
X1963571Y-7371428D01*
X1954048Y-7380952D01*
X1935000Y-7390476D01*
X1877857Y-7390476D01*
X1858809Y-7380952D01*
X1849286Y-7371428D01*
X2144524Y-7257143D02*
X2144524Y-7390476D01*
X2096905Y-7180952D02*
X2049286Y-7323809D01*
X2173095Y-7323809D01*
X2287381Y-7190476D02*
X2306429Y-7190476D01*
X2325476Y-7200000D01*
X2335000Y-7209524D01*
X2344524Y-7228571D01*
X2354048Y-7266667D01*
X2354048Y-7314286D01*
X2344524Y-7352381D01*
X2335000Y-7371428D01*
X2325476Y-7380952D01*
X2306429Y-7390476D01*
X2287381Y-7390476D01*
X2268333Y-7380952D01*
X2258810Y-7371428D01*
X2249286Y-7352381D01*
X2239762Y-7314286D01*
X2239762Y-7266667D01*
X2249286Y-7228571D01*
X2258810Y-7209524D01*
X2268333Y-7200000D01*
X2287381Y-7190476D01*
X2439762Y-7390476D02*
X2439762Y-7257143D01*
X2439762Y-7276190D02*
X2449286Y-7266667D01*
X2468333Y-7257143D01*
X2496905Y-7257143D01*
X2515952Y-7266667D01*
X2525476Y-7285714D01*
X2525476Y-7390476D01*
X2525476Y-7285714D02*
X2535000Y-7266667D01*
X2554048Y-7257143D01*
X2582619Y-7257143D01*
X2601667Y-7266667D01*
X2611190Y-7285714D01*
X2611190Y-7390476D01*
X2706429Y-7390476D02*
X2706429Y-7257143D01*
X2706429Y-7276190D02*
X2715952Y-7266667D01*
X2735000Y-7257143D01*
X2763571Y-7257143D01*
X2782619Y-7266667D01*
X2792143Y-7285714D01*
X2792143Y-7390476D01*
X2792143Y-7285714D02*
X2801667Y-7266667D01*
X2820714Y-7257143D01*
X2849286Y-7257143D01*
X2868333Y-7266667D01*
X2877857Y-7285714D01*
X2877857Y-7390476D01*
X3268333Y-7180952D02*
X3096905Y-7438095D01*
X3525476Y-7190476D02*
X3544524Y-7190476D01*
X3563571Y-7200000D01*
X3573095Y-7209524D01*
X3582619Y-7228571D01*
X3592143Y-7266667D01*
X3592143Y-7314286D01*
X3582619Y-7352381D01*
X3573095Y-7371428D01*
X3563571Y-7380952D01*
X3544524Y-7390476D01*
X3525476Y-7390476D01*
X3506428Y-7380952D01*
X3496905Y-7371428D01*
X3487381Y-7352381D01*
X3477857Y-7314286D01*
X3477857Y-7266667D01*
X3487381Y-7228571D01*
X3496905Y-7209524D01*
X3506428Y-7200000D01*
X3525476Y-7190476D01*
X3677857Y-7371428D02*
X3687381Y-7380952D01*
X3677857Y-7390476D01*
X3668333Y-7380952D01*
X3677857Y-7371428D01*
X3677857Y-7390476D01*
X3811190Y-7190476D02*
X3830238Y-7190476D01*
X3849286Y-7200000D01*
X3858809Y-7209524D01*
X3868333Y-7228571D01*
X3877857Y-7266667D01*
X3877857Y-7314286D01*
X3868333Y-7352381D01*
X3858809Y-7371428D01*
X3849286Y-7380952D01*
X3830238Y-7390476D01*
X3811190Y-7390476D01*
X3792143Y-7380952D01*
X3782619Y-7371428D01*
X3773095Y-7352381D01*
X3763571Y-7314286D01*
X3763571Y-7266667D01*
X3773095Y-7228571D01*
X3782619Y-7209524D01*
X3792143Y-7200000D01*
X3811190Y-7190476D01*
X4058809Y-7190476D02*
X3963571Y-7190476D01*
X3954048Y-7285714D01*
X3963571Y-7276190D01*
X3982619Y-7266667D01*
X4030238Y-7266667D01*
X4049286Y-7276190D01*
X4058809Y-7285714D01*
X4068333Y-7304762D01*
X4068333Y-7352381D01*
X4058809Y-7371428D01*
X4049286Y-7380952D01*
X4030238Y-7390476D01*
X3982619Y-7390476D01*
X3963571Y-7380952D01*
X3954048Y-7371428D01*
X4144524Y-7209524D02*
X4154048Y-7200000D01*
X4173095Y-7190476D01*
X4220714Y-7190476D01*
X4239762Y-7200000D01*
X4249286Y-7209524D01*
X4258810Y-7228571D01*
X4258810Y-7247619D01*
X4249286Y-7276190D01*
X4135000Y-7390476D01*
X4258810Y-7390476D01*
X4373095Y-7276190D02*
X4354048Y-7266667D01*
X4344524Y-7257143D01*
X4335000Y-7238095D01*
X4335000Y-7228571D01*
X4344524Y-7209524D01*
X4354048Y-7200000D01*
X4373095Y-7190476D01*
X4411190Y-7190476D01*
X4430238Y-7200000D01*
X4439762Y-7209524D01*
X4449286Y-7228571D01*
X4449286Y-7238095D01*
X4439762Y-7257143D01*
X4430238Y-7266667D01*
X4411190Y-7276190D01*
X4373095Y-7276190D01*
X4354048Y-7285714D01*
X4344524Y-7295238D01*
X4335000Y-7314286D01*
X4335000Y-7352381D01*
X4344524Y-7371428D01*
X4354048Y-7380952D01*
X4373095Y-7390476D01*
X4411190Y-7390476D01*
X4430238Y-7380952D01*
X4439762Y-7371428D01*
X4449286Y-7352381D01*
X4449286Y-7314286D01*
X4439762Y-7295238D01*
X4430238Y-7285714D01*
X4411190Y-7276190D01*
X4525476Y-7190476D02*
X4525476Y-7228571D01*
X4601667Y-7190476D02*
X4601667Y-7228571D01*
X4896905Y-7466667D02*
X4887381Y-7457143D01*
X4868333Y-7428571D01*
X4858810Y-7409524D01*
X4849286Y-7380952D01*
X4839762Y-7333333D01*
X4839762Y-7295238D01*
X4849286Y-7247619D01*
X4858810Y-7219048D01*
X4868333Y-7200000D01*
X4887381Y-7171428D01*
X4896905Y-7161905D01*
X5077857Y-7390476D02*
X4963571Y-7390476D01*
X5020714Y-7390476D02*
X5020714Y-7190476D01*
X5001667Y-7219048D01*
X4982619Y-7238095D01*
X4963571Y-7247619D01*
X5154048Y-7209524D02*
X5163571Y-7200000D01*
X5182619Y-7190476D01*
X5230238Y-7190476D01*
X5249286Y-7200000D01*
X5258810Y-7209524D01*
X5268333Y-7228571D01*
X5268333Y-7247619D01*
X5258810Y-7276190D01*
X5144524Y-7390476D01*
X5268333Y-7390476D01*
X5506429Y-7390476D02*
X5506429Y-7190476D01*
X5592143Y-7390476D02*
X5592143Y-7285714D01*
X5582619Y-7266667D01*
X5563571Y-7257143D01*
X5535000Y-7257143D01*
X5515952Y-7266667D01*
X5506429Y-7276190D01*
X5715952Y-7390476D02*
X5696905Y-7380952D01*
X5687381Y-7371428D01*
X5677857Y-7352381D01*
X5677857Y-7295238D01*
X5687381Y-7276190D01*
X5696905Y-7266667D01*
X5715952Y-7257143D01*
X5744524Y-7257143D01*
X5763571Y-7266667D01*
X5773095Y-7276190D01*
X5782619Y-7295238D01*
X5782619Y-7352381D01*
X5773095Y-7371428D01*
X5763571Y-7380952D01*
X5744524Y-7390476D01*
X5715952Y-7390476D01*
X5896905Y-7390476D02*
X5877857Y-7380952D01*
X5868333Y-7361905D01*
X5868333Y-7190476D01*
X6049286Y-7380952D02*
X6030238Y-7390476D01*
X5992143Y-7390476D01*
X5973095Y-7380952D01*
X5963571Y-7361905D01*
X5963571Y-7285714D01*
X5973095Y-7266667D01*
X5992143Y-7257143D01*
X6030238Y-7257143D01*
X6049286Y-7266667D01*
X6058809Y-7285714D01*
X6058809Y-7304762D01*
X5963571Y-7323809D01*
X6135000Y-7380952D02*
X6154048Y-7390476D01*
X6192143Y-7390476D01*
X6211190Y-7380952D01*
X6220714Y-7361905D01*
X6220714Y-7352381D01*
X6211190Y-7333333D01*
X6192143Y-7323809D01*
X6163571Y-7323809D01*
X6144524Y-7314286D01*
X6135000Y-7295238D01*
X6135000Y-7285714D01*
X6144524Y-7266667D01*
X6163571Y-7257143D01*
X6192143Y-7257143D01*
X6211190Y-7266667D01*
X6287381Y-7466667D02*
X6296905Y-7457143D01*
X6315952Y-7428571D01*
X6325476Y-7409524D01*
X6335000Y-7380952D01*
X6344524Y-7333333D01*
X6344524Y-7295238D01*
X6335000Y-7247619D01*
X6325476Y-7219048D01*
X6315952Y-7200000D01*
X6296905Y-7171428D01*
X6287381Y-7161905D01*
X1125000Y-7464000D02*
X1325000Y-7664000D01*
X1325000Y-7464000D02*
X1125000Y-7664000D01*
X1325000Y-7564000D02*
G75*
G03*
X1325000Y-7564000I-100000J0D01*
G01*
X1573095Y-7473524D02*
X1582619Y-7464000D01*
X1601667Y-7454476D01*
X1649286Y-7454476D01*
X1668333Y-7464000D01*
X1677857Y-7473524D01*
X1687381Y-7492571D01*
X1687381Y-7511619D01*
X1677857Y-7540190D01*
X1563571Y-7654476D01*
X1687381Y-7654476D01*
X1773095Y-7635428D02*
X1782619Y-7644952D01*
X1773095Y-7654476D01*
X1763571Y-7644952D01*
X1773095Y-7635428D01*
X1773095Y-7654476D01*
X1877857Y-7654476D02*
X1915952Y-7654476D01*
X1935000Y-7644952D01*
X1944524Y-7635428D01*
X1963571Y-7606857D01*
X1973095Y-7568762D01*
X1973095Y-7492571D01*
X1963571Y-7473524D01*
X1954048Y-7464000D01*
X1935000Y-7454476D01*
X1896905Y-7454476D01*
X1877857Y-7464000D01*
X1868333Y-7473524D01*
X1858809Y-7492571D01*
X1858809Y-7540190D01*
X1868333Y-7559238D01*
X1877857Y-7568762D01*
X1896905Y-7578286D01*
X1935000Y-7578286D01*
X1954048Y-7568762D01*
X1963571Y-7559238D01*
X1973095Y-7540190D01*
X2039762Y-7454476D02*
X2173095Y-7454476D01*
X2087381Y-7654476D01*
X2230238Y-7454476D02*
X2354048Y-7454476D01*
X2287381Y-7530667D01*
X2315952Y-7530667D01*
X2335000Y-7540190D01*
X2344524Y-7549714D01*
X2354048Y-7568762D01*
X2354048Y-7616381D01*
X2344524Y-7635428D01*
X2335000Y-7644952D01*
X2315952Y-7654476D01*
X2258810Y-7654476D01*
X2239762Y-7644952D01*
X2230238Y-7635428D01*
X2439762Y-7654476D02*
X2439762Y-7521143D01*
X2439762Y-7540190D02*
X2449286Y-7530667D01*
X2468333Y-7521143D01*
X2496905Y-7521143D01*
X2515952Y-7530667D01*
X2525476Y-7549714D01*
X2525476Y-7654476D01*
X2525476Y-7549714D02*
X2535000Y-7530667D01*
X2554048Y-7521143D01*
X2582619Y-7521143D01*
X2601667Y-7530667D01*
X2611190Y-7549714D01*
X2611190Y-7654476D01*
X2706429Y-7654476D02*
X2706429Y-7521143D01*
X2706429Y-7540190D02*
X2715952Y-7530667D01*
X2735000Y-7521143D01*
X2763571Y-7521143D01*
X2782619Y-7530667D01*
X2792143Y-7549714D01*
X2792143Y-7654476D01*
X2792143Y-7549714D02*
X2801667Y-7530667D01*
X2820714Y-7521143D01*
X2849286Y-7521143D01*
X2868333Y-7530667D01*
X2877857Y-7549714D01*
X2877857Y-7654476D01*
X3268333Y-7444952D02*
X3096905Y-7702095D01*
X3525476Y-7454476D02*
X3544524Y-7454476D01*
X3563571Y-7464000D01*
X3573095Y-7473524D01*
X3582619Y-7492571D01*
X3592143Y-7530667D01*
X3592143Y-7578286D01*
X3582619Y-7616381D01*
X3573095Y-7635428D01*
X3563571Y-7644952D01*
X3544524Y-7654476D01*
X3525476Y-7654476D01*
X3506428Y-7644952D01*
X3496905Y-7635428D01*
X3487381Y-7616381D01*
X3477857Y-7578286D01*
X3477857Y-7530667D01*
X3487381Y-7492571D01*
X3496905Y-7473524D01*
X3506428Y-7464000D01*
X3525476Y-7454476D01*
X3677857Y-7635428D02*
X3687381Y-7644952D01*
X3677857Y-7654476D01*
X3668333Y-7644952D01*
X3677857Y-7635428D01*
X3677857Y-7654476D01*
X3877857Y-7654476D02*
X3763571Y-7654476D01*
X3820714Y-7654476D02*
X3820714Y-7454476D01*
X3801667Y-7483048D01*
X3782619Y-7502095D01*
X3763571Y-7511619D01*
X4068333Y-7654476D02*
X3954048Y-7654476D01*
X4011190Y-7654476D02*
X4011190Y-7454476D01*
X3992143Y-7483048D01*
X3973095Y-7502095D01*
X3954048Y-7511619D01*
X4135000Y-7454476D02*
X4268333Y-7454476D01*
X4182619Y-7654476D01*
X4449286Y-7654476D02*
X4335000Y-7654476D01*
X4392143Y-7654476D02*
X4392143Y-7454476D01*
X4373095Y-7483048D01*
X4354048Y-7502095D01*
X4335000Y-7511619D01*
X4525476Y-7454476D02*
X4525476Y-7492571D01*
X4601667Y-7454476D02*
X4601667Y-7492571D01*
X4896905Y-7730667D02*
X4887381Y-7721143D01*
X4868333Y-7692571D01*
X4858810Y-7673524D01*
X4849286Y-7644952D01*
X4839762Y-7597333D01*
X4839762Y-7559238D01*
X4849286Y-7511619D01*
X4858810Y-7483048D01*
X4868333Y-7464000D01*
X4887381Y-7435428D01*
X4896905Y-7425905D01*
X4963571Y-7473524D02*
X4973095Y-7464000D01*
X4992143Y-7454476D01*
X5039762Y-7454476D01*
X5058810Y-7464000D01*
X5068333Y-7473524D01*
X5077857Y-7492571D01*
X5077857Y-7511619D01*
X5068333Y-7540190D01*
X4954048Y-7654476D01*
X5077857Y-7654476D01*
X5315952Y-7654476D02*
X5315952Y-7454476D01*
X5401667Y-7654476D02*
X5401667Y-7549714D01*
X5392143Y-7530667D01*
X5373095Y-7521143D01*
X5344524Y-7521143D01*
X5325476Y-7530667D01*
X5315952Y-7540190D01*
X5525476Y-7654476D02*
X5506429Y-7644952D01*
X5496905Y-7635428D01*
X5487381Y-7616381D01*
X5487381Y-7559238D01*
X5496905Y-7540190D01*
X5506429Y-7530667D01*
X5525476Y-7521143D01*
X5554048Y-7521143D01*
X5573095Y-7530667D01*
X5582619Y-7540190D01*
X5592143Y-7559238D01*
X5592143Y-7616381D01*
X5582619Y-7635428D01*
X5573095Y-7644952D01*
X5554048Y-7654476D01*
X5525476Y-7654476D01*
X5706428Y-7654476D02*
X5687381Y-7644952D01*
X5677857Y-7625905D01*
X5677857Y-7454476D01*
X5858809Y-7644952D02*
X5839762Y-7654476D01*
X5801667Y-7654476D01*
X5782619Y-7644952D01*
X5773095Y-7625905D01*
X5773095Y-7549714D01*
X5782619Y-7530667D01*
X5801667Y-7521143D01*
X5839762Y-7521143D01*
X5858809Y-7530667D01*
X5868333Y-7549714D01*
X5868333Y-7568762D01*
X5773095Y-7587809D01*
X5944524Y-7644952D02*
X5963571Y-7654476D01*
X6001667Y-7654476D01*
X6020714Y-7644952D01*
X6030238Y-7625905D01*
X6030238Y-7616381D01*
X6020714Y-7597333D01*
X6001667Y-7587809D01*
X5973095Y-7587809D01*
X5954048Y-7578286D01*
X5944524Y-7559238D01*
X5944524Y-7549714D01*
X5954048Y-7530667D01*
X5973095Y-7521143D01*
X6001667Y-7521143D01*
X6020714Y-7530667D01*
X6096905Y-7730667D02*
X6106428Y-7721143D01*
X6125476Y-7692571D01*
X6135000Y-7673524D01*
X6144524Y-7644952D01*
X6154048Y-7597333D01*
X6154048Y-7559238D01*
X6144524Y-7511619D01*
X6135000Y-7483048D01*
X6125476Y-7464000D01*
X6106428Y-7435428D01*
X6096905Y-7425905D01*
X1125000Y-7784000D02*
X1325000Y-7984000D01*
X1325000Y-7784000D02*
X1125000Y-7984000D01*
X1225000Y-7784000D02*
X1225000Y-7984000D01*
X1125000Y-7884000D02*
X1325000Y-7884000D01*
X1563571Y-7774476D02*
X1687381Y-7774476D01*
X1620714Y-7850667D01*
X1649286Y-7850667D01*
X1668333Y-7860190D01*
X1677857Y-7869714D01*
X1687381Y-7888762D01*
X1687381Y-7936381D01*
X1677857Y-7955428D01*
X1668333Y-7964952D01*
X1649286Y-7974476D01*
X1592143Y-7974476D01*
X1573095Y-7964952D01*
X1563571Y-7955428D01*
X1773095Y-7955428D02*
X1782619Y-7964952D01*
X1773095Y-7974476D01*
X1763571Y-7964952D01*
X1773095Y-7955428D01*
X1773095Y-7974476D01*
X1858809Y-7793524D02*
X1868333Y-7784000D01*
X1887381Y-7774476D01*
X1935000Y-7774476D01*
X1954048Y-7784000D01*
X1963571Y-7793524D01*
X1973095Y-7812571D01*
X1973095Y-7831619D01*
X1963571Y-7860190D01*
X1849286Y-7974476D01*
X1973095Y-7974476D01*
X2087381Y-7860190D02*
X2068333Y-7850667D01*
X2058809Y-7841143D01*
X2049286Y-7822095D01*
X2049286Y-7812571D01*
X2058809Y-7793524D01*
X2068333Y-7784000D01*
X2087381Y-7774476D01*
X2125476Y-7774476D01*
X2144524Y-7784000D01*
X2154048Y-7793524D01*
X2163571Y-7812571D01*
X2163571Y-7822095D01*
X2154048Y-7841143D01*
X2144524Y-7850667D01*
X2125476Y-7860190D01*
X2087381Y-7860190D01*
X2068333Y-7869714D01*
X2058809Y-7879238D01*
X2049286Y-7898286D01*
X2049286Y-7936381D01*
X2058809Y-7955428D01*
X2068333Y-7964952D01*
X2087381Y-7974476D01*
X2125476Y-7974476D01*
X2144524Y-7964952D01*
X2154048Y-7955428D01*
X2163571Y-7936381D01*
X2163571Y-7898286D01*
X2154048Y-7879238D01*
X2144524Y-7869714D01*
X2125476Y-7860190D01*
X2287381Y-7774476D02*
X2306429Y-7774476D01*
X2325476Y-7784000D01*
X2335000Y-7793524D01*
X2344524Y-7812571D01*
X2354048Y-7850667D01*
X2354048Y-7898286D01*
X2344524Y-7936381D01*
X2335000Y-7955428D01*
X2325476Y-7964952D01*
X2306429Y-7974476D01*
X2287381Y-7974476D01*
X2268333Y-7964952D01*
X2258810Y-7955428D01*
X2249286Y-7936381D01*
X2239762Y-7898286D01*
X2239762Y-7850667D01*
X2249286Y-7812571D01*
X2258810Y-7793524D01*
X2268333Y-7784000D01*
X2287381Y-7774476D01*
X2439762Y-7974476D02*
X2439762Y-7841143D01*
X2439762Y-7860190D02*
X2449286Y-7850667D01*
X2468333Y-7841143D01*
X2496905Y-7841143D01*
X2515952Y-7850667D01*
X2525476Y-7869714D01*
X2525476Y-7974476D01*
X2525476Y-7869714D02*
X2535000Y-7850667D01*
X2554048Y-7841143D01*
X2582619Y-7841143D01*
X2601667Y-7850667D01*
X2611190Y-7869714D01*
X2611190Y-7974476D01*
X2706429Y-7974476D02*
X2706429Y-7841143D01*
X2706429Y-7860190D02*
X2715952Y-7850667D01*
X2735000Y-7841143D01*
X2763571Y-7841143D01*
X2782619Y-7850667D01*
X2792143Y-7869714D01*
X2792143Y-7974476D01*
X2792143Y-7869714D02*
X2801667Y-7850667D01*
X2820714Y-7841143D01*
X2849286Y-7841143D01*
X2868333Y-7850667D01*
X2877857Y-7869714D01*
X2877857Y-7974476D01*
X3268333Y-7764952D02*
X3096905Y-8022095D01*
X3525476Y-7774476D02*
X3544524Y-7774476D01*
X3563571Y-7784000D01*
X3573095Y-7793524D01*
X3582619Y-7812571D01*
X3592143Y-7850667D01*
X3592143Y-7898286D01*
X3582619Y-7936381D01*
X3573095Y-7955428D01*
X3563571Y-7964952D01*
X3544524Y-7974476D01*
X3525476Y-7974476D01*
X3506428Y-7964952D01*
X3496905Y-7955428D01*
X3487381Y-7936381D01*
X3477857Y-7898286D01*
X3477857Y-7850667D01*
X3487381Y-7812571D01*
X3496905Y-7793524D01*
X3506428Y-7784000D01*
X3525476Y-7774476D01*
X3677857Y-7955428D02*
X3687381Y-7964952D01*
X3677857Y-7974476D01*
X3668333Y-7964952D01*
X3677857Y-7955428D01*
X3677857Y-7974476D01*
X3877857Y-7974476D02*
X3763571Y-7974476D01*
X3820714Y-7974476D02*
X3820714Y-7774476D01*
X3801667Y-7803048D01*
X3782619Y-7822095D01*
X3763571Y-7831619D01*
X3954048Y-7793524D02*
X3963571Y-7784000D01*
X3982619Y-7774476D01*
X4030238Y-7774476D01*
X4049286Y-7784000D01*
X4058809Y-7793524D01*
X4068333Y-7812571D01*
X4068333Y-7831619D01*
X4058809Y-7860190D01*
X3944524Y-7974476D01*
X4068333Y-7974476D01*
X4163571Y-7974476D02*
X4201667Y-7974476D01*
X4220714Y-7964952D01*
X4230238Y-7955428D01*
X4249286Y-7926857D01*
X4258810Y-7888762D01*
X4258810Y-7812571D01*
X4249286Y-7793524D01*
X4239762Y-7784000D01*
X4220714Y-7774476D01*
X4182619Y-7774476D01*
X4163571Y-7784000D01*
X4154048Y-7793524D01*
X4144524Y-7812571D01*
X4144524Y-7860190D01*
X4154048Y-7879238D01*
X4163571Y-7888762D01*
X4182619Y-7898286D01*
X4220714Y-7898286D01*
X4239762Y-7888762D01*
X4249286Y-7879238D01*
X4258810Y-7860190D01*
X4449286Y-7974476D02*
X4335000Y-7974476D01*
X4392143Y-7974476D02*
X4392143Y-7774476D01*
X4373095Y-7803048D01*
X4354048Y-7822095D01*
X4335000Y-7831619D01*
X4525476Y-7774476D02*
X4525476Y-7812571D01*
X4601667Y-7774476D02*
X4601667Y-7812571D01*
X4896905Y-8050667D02*
X4887381Y-8041143D01*
X4868333Y-8012571D01*
X4858810Y-7993524D01*
X4849286Y-7964952D01*
X4839762Y-7917333D01*
X4839762Y-7879238D01*
X4849286Y-7831619D01*
X4858810Y-7803048D01*
X4868333Y-7784000D01*
X4887381Y-7755428D01*
X4896905Y-7745905D01*
X4963571Y-7793524D02*
X4973095Y-7784000D01*
X4992143Y-7774476D01*
X5039762Y-7774476D01*
X5058810Y-7784000D01*
X5068333Y-7793524D01*
X5077857Y-7812571D01*
X5077857Y-7831619D01*
X5068333Y-7860190D01*
X4954048Y-7974476D01*
X5077857Y-7974476D01*
X5315952Y-7974476D02*
X5315952Y-7774476D01*
X5401667Y-7974476D02*
X5401667Y-7869714D01*
X5392143Y-7850667D01*
X5373095Y-7841143D01*
X5344524Y-7841143D01*
X5325476Y-7850667D01*
X5315952Y-7860190D01*
X5525476Y-7974476D02*
X5506429Y-7964952D01*
X5496905Y-7955428D01*
X5487381Y-7936381D01*
X5487381Y-7879238D01*
X5496905Y-7860190D01*
X5506429Y-7850667D01*
X5525476Y-7841143D01*
X5554048Y-7841143D01*
X5573095Y-7850667D01*
X5582619Y-7860190D01*
X5592143Y-7879238D01*
X5592143Y-7936381D01*
X5582619Y-7955428D01*
X5573095Y-7964952D01*
X5554048Y-7974476D01*
X5525476Y-7974476D01*
X5706428Y-7974476D02*
X5687381Y-7964952D01*
X5677857Y-7945905D01*
X5677857Y-7774476D01*
X5858809Y-7964952D02*
X5839762Y-7974476D01*
X5801667Y-7974476D01*
X5782619Y-7964952D01*
X5773095Y-7945905D01*
X5773095Y-7869714D01*
X5782619Y-7850667D01*
X5801667Y-7841143D01*
X5839762Y-7841143D01*
X5858809Y-7850667D01*
X5868333Y-7869714D01*
X5868333Y-7888762D01*
X5773095Y-7907809D01*
X5944524Y-7964952D02*
X5963571Y-7974476D01*
X6001667Y-7974476D01*
X6020714Y-7964952D01*
X6030238Y-7945905D01*
X6030238Y-7936381D01*
X6020714Y-7917333D01*
X6001667Y-7907809D01*
X5973095Y-7907809D01*
X5954048Y-7898286D01*
X5944524Y-7879238D01*
X5944524Y-7869714D01*
X5954048Y-7850667D01*
X5973095Y-7841143D01*
X6001667Y-7841143D01*
X6020714Y-7850667D01*
X6096905Y-8050667D02*
X6106428Y-8041143D01*
X6125476Y-8012571D01*
X6135000Y-7993524D01*
X6144524Y-7964952D01*
X6154048Y-7917333D01*
X6154048Y-7879238D01*
X6144524Y-7831619D01*
X6135000Y-7803048D01*
X6125476Y-7784000D01*
X6106428Y-7755428D01*
X6096905Y-7745905D01*
M02*
