M48
; DRILL file {KiCad (6.0.4)} date Sat Sep 10 18:16:35 2022
; FORMAT={-:-/ absolute / inch / decimal}
; #@! TF.CreationDate,2022-09-10T18:16:35-05:00
; #@! TF.GenerationSoftware,Kicad,Pcbnew,(6.0.4)
; #@! TF.FileFunction,Plated,1,2,PTH
FMAT,2
INCH
; #@! TA.AperFunction,Plated,PTH,ViaDrill
T1C0.0118
; #@! TA.AperFunction,Plated,PTH,ComponentDrill
T2C0.0276
; #@! TA.AperFunction,Plated,PTH,ComponentDrill
T3C0.0472
; #@! TA.AperFunction,Plated,PTH,ComponentDrill
T4C0.1291
%
G90
G05
T1
X0.3295Y-6.268
X0.3448Y-4.2199
X0.3695Y-3.828
X0.6045Y-4.548
X0.6295Y-5.608
X0.8845Y-6.833
X0.9055Y-6.7047
X0.9295Y-3.288
X1.3595Y-5.678
X1.3845Y-4.443
X1.4845Y-7.803
X1.4995Y-2.343
X1.4995Y-6.413
X1.5995Y-3.678
X1.6295Y-1.583
X1.6545Y-8.598
X2.1245Y-5.063
X2.1295Y-7.453
X2.2148Y-4.3368
X2.2345Y-2.648
X2.2402Y-8.1811
X2.3317Y-2.5837
X2.3945Y-1.453
X2.4245Y-8.698
X2.5345Y-3.593
X2.5545Y-6.558
X2.6745Y-5.743
X2.6823Y-6.7911
X2.6945Y-4.408
X2.7145Y-8.018
X2.7195Y-2.058
X3.3195Y-6.848
X3.3245Y-0.883
X3.3245Y-3.273
X3.3245Y-9.238
X3.3268Y-6.7205
X3.4895Y-5.523
X3.5095Y-4.628
X3.5906Y-1.5315
X3.6245Y-7.673
X3.6378Y-9.8465
X3.6445Y-2.483
X3.7323Y-3.8701
X3.7795Y-1.528
X3.7945Y-8.628
X3.8245Y-9.843
X3.8545Y-0.288
X3.8583Y-0.1614
X3.9145Y-6.253
X3.9195Y-3.868
X4.3307Y-5.0551
X4.3386Y-4.6496
X4.3386Y-5.4646
X4.3386Y-5.8819
X4.3465Y-4.2126
X4.3465Y-5.7559
X4.4695Y-2.643
X4.4724Y-2.5197
X4.5095Y-7.513
X4.5245Y-1.298
X4.5495Y-8.843
X4.5845Y-9.603
X4.5995Y-0.553
X4.622Y-5.6614
X4.6417Y-4.1732
X4.6845Y-3.458
X4.7045Y-6.688
X4.8661Y-4.8543
X4.8661Y-4.9724
X4.874Y-5.4646
X4.874Y-5.5787
X4.9213Y-8.0405
X5.0669Y-5.622
X5.1145Y-2.073
X5.1145Y-8.043
X5.1181Y-7.9173
X5.1575Y-4.8543
X5.1614Y-4.9724
X5.1614Y-5.5709
X5.4016Y-5.6693
X5.4094Y-5.7756
X5.4094Y-5.878
X5.4134Y-4.1693
X5.4252Y-5.0748
X5.4331Y-5.2756
X5.4409Y-5.374
X5.4488Y-5.4724
X5.4488Y-5.5748
X5.5545Y-6.718
X5.5745Y-3.438
X5.5984Y-2.626
X5.6595Y-0.578
X5.6995Y-8.853
X5.7145Y-9.623
X5.7195Y-1.293
X5.7595Y-7.533
X5.7895Y-2.628
X5.9134Y-5.8858
X5.9173Y-5.4685
X5.9213Y-4.2087
X5.9213Y-5.0551
X5.9252Y-4.6457
X6.2205Y-4.9134
X6.2205Y-5.122
X6.2205Y-5.1772
X6.3045Y-3.863
X6.3045Y-6.253
X6.3071Y-3.7362
X6.315Y-4.2126
X6.316Y-9.713
X6.3595Y-0.223
X6.3701Y-5.1575
X6.4252Y-5.126
X6.4252Y-5.1575
X6.4295Y-9.838
X6.5195Y-8.653
X6.5395Y-1.503
X6.5433Y-1.378
X6.6145Y-2.503
X6.6295Y-7.653
X6.7087Y-6.8465
X6.7495Y-4.643
X6.7745Y-5.503
X6.8845Y-0.788
X6.8995Y-3.268
X6.8995Y-6.848
X6.9045Y-9.238
X6.9094Y-6.7244
X7.3071Y-8.0236
X7.3976Y-5.7205
X7.4995Y-8.023
X7.5645Y-4.453
X7.5895Y-5.718
X7.5945Y-2.153
X7.7045Y-6.583
X7.7245Y-3.573
X7.8445Y-8.733
X7.8645Y-1.483
X8.0845Y-2.673
X8.0866Y-2.5512
X8.0995Y-5.063
X8.0995Y-7.448
X8.1024Y-4.937
X8.311Y-5.126
X8.315Y-4.8898
X8.6295Y-8.558
X8.6345Y-1.578
X8.6795Y-3.703
X8.6811Y-3.5748
X8.752Y-6.8425
X8.7545Y-2.368
X8.7645Y-6.403
X8.7677Y-6.2756
X8.7795Y-7.788
X8.8995Y-4.513
X8.9245Y-5.653
X8.9935Y-3.5187
X9.2895Y-3.273
X9.2953Y-3.1457
X9.3795Y-6.843
X9.5079Y-3.4724
X9.6195Y-5.628
X9.6545Y-4.528
X9.6575Y-4.4016
X9.8995Y-6.348
X9.9145Y-3.788
X9.9173Y-3.6614
T3
X8.6929Y-4.937
X8.6929Y-5.0354
X8.6929Y-5.1339
X9.2638Y-4.937
X9.2638Y-5.1339
T4
X8.9882Y-4.815
X8.9882Y-5.2559
T2
G00X4.8535Y-9.9257
M15
G01X4.8535Y-9.9572
M16
G05
G00X4.8535Y-10.0753
M15
G01X4.8535Y-10.1068
M16
G05
G00X4.885Y0.1225
M15
G01X4.885Y0.154
M16
G05
G00X4.885Y-0.0271
M15
G01X4.885Y0.0044
M16
G05
G00X5.1937Y-9.9257
M15
G01X5.1937Y-9.9572
M16
G05
G00X5.1937Y-10.0753
M15
G01X5.1937Y-10.1068
M16
G05
G00X5.2252Y0.1225
M15
G01X5.2252Y0.154
M16
G05
G00X5.2252Y-0.0271
M15
G01X5.2252Y0.0044
M16
G05
T0
M30
