M48
; DRILL file {KiCad 8.0.1} date 2024-08-20T12:31:36+0200
; FORMAT={-:-/ absolute / inch / decimal}
; #@! TF.CreationDate,2024-08-20T12:31:36+02:00
; #@! TF.GenerationSoftware,Kicad,Pcbnew,8.0.1
; #@! TF.FileFunction,Plated,1,4,PTH
FMAT,2
INCH
; #@! TA.AperFunction,Plated,PTH,ViaDrill
T1C0.0100
; #@! TA.AperFunction,Plated,PTH,ViaDrill
T2C0.0118
; #@! TA.AperFunction,Plated,PTH,ComponentDrill
T3C0.0157
; #@! TA.AperFunction,Plated,PTH,ViaDrill
T4C0.0236
; #@! TA.AperFunction,Plated,PTH,ViaDrill
T5C0.0276
%
G90
G05
T1
X4.3854Y-3.2453
X4.4051Y-3.248
X4.422Y-3.2618
X4.4823Y-3.2006
X4.4826Y-3.1771
X4.539Y-3.3602
X4.5394Y-3.1496
X4.5492Y-3.0157
X4.6777Y-3.1457
X4.7382Y-3.0866
X4.7692Y-3.1279
X4.8012Y-3.0
X4.8245Y-3.1375
X4.8366Y-3.189
X4.8366Y-3.2598
X4.8409Y-3.1539
X4.8602Y-3.0953
X4.8799Y-3.1811
X4.8878Y-3.2244
X4.9035Y-3.0174
X4.9175Y-3.0461
X4.9232Y-3.2047
X4.9272Y-3.0828
X4.9272Y-3.2914
X4.9293Y-3.2274
X4.9705Y-2.9961
X4.9783Y-3.374
X5.0059Y-3.289
X5.0071Y-3.194
X5.0368Y-3.0383
X5.0807Y-3.2087
X5.0886Y-3.0995
X5.1009Y-3.2895
X5.1122Y-2.9961
X5.1437Y-3.0261
X5.1488Y-3.2693
X5.1713Y-3.0039
X5.1762Y-3.2625
X5.1917Y-3.3798
X5.1996Y-3.087
X5.2224Y-3.2795
X5.2269Y-3.0913
X5.25Y-3.2638
X5.2579Y-3.378
X5.2599Y-3.1384
X5.2657Y-3.1038
X5.2685Y-3.1594
X5.2776Y-3.2717
X5.2862Y-3.174
X5.2889Y-3.2233
X5.4193Y-3.1299
X5.4744Y-3.1014
X5.5089Y-3.1722
X5.522Y-3.3786
X5.628Y-3.126
X5.6338Y-3.1991
X5.6398Y-3.2283
X5.6516Y-3.1063
X5.6516Y-3.2087
X5.6522Y-3.1383
X5.6713Y-3.126
X5.6713Y-3.1971
X5.7579Y-3.2047
X5.7602Y-3.0575
X5.7614Y-3.0937
X5.7736Y-3.3268
X5.7815Y-3.2598
X5.8051Y-3.1493
X5.876Y-3.2216
X5.8839Y-3.3307
X5.8911Y-3.2589
X5.8917Y-3.1535
X5.9173Y-3.1761
X5.9193Y-3.1181
X6.0035Y-3.1531
X6.0089Y-3.2302
X6.0135Y-3.3043
X6.0335Y-3.3268
X6.0491Y-3.1314
X6.0571Y-3.311
X6.063Y-3.0669
X6.0906Y-3.0669
X6.1201Y-3.0669
X6.1476Y-3.0669
X6.1732Y-3.0669
X6.1825Y-3.0965
X6.1959Y-3.0648
X6.2421Y-3.3268
X6.2461Y-3.1142
X6.2662Y-3.252
X6.279Y-3.2295
X6.2823Y-3.1681
X6.3248Y-3.0547
X6.3563Y-3.0157
X6.3839Y-3.0976
X6.4024Y-3.0547
X6.4295Y-3.0157
X6.435Y-3.1457
X6.4626Y-3.0787
X6.5114Y-3.3043
X6.5669Y-3.0335
X6.6036Y-3.1176
X6.6232Y-3.1272
X6.6528Y-3.1315
X6.7126Y-3.3346
T2
X4.881Y-3.3621
T3
X6.1122Y-3.2224
X6.1398Y-3.1949
X6.1398Y-3.25
X6.1673Y-3.2224
T4
X4.3642Y-3.0236
X4.628Y-3.3346
T5
X5.5364Y-3.313
X6.6122Y-3.2992
M30
