%TF.GenerationSoftware,KiCad,Pcbnew,8.0.1*%
%TF.CreationDate,2024-08-20T12:32:33+02:00*%
%TF.ProjectId,ESP32_PICO_LED,45535033-325f-4504-9943-4f5f4c45442e,rev?*%
%TF.SameCoordinates,Original*%
%TF.FileFunction,Soldermask,Top*%
%TF.FilePolarity,Negative*%
%FSLAX46Y46*%
G04 Gerber Fmt 4.6, Leading zero omitted, Abs format (unit mm)*
G04 Created by KiCad (PCBNEW 8.0.1) date 2024-08-20 12:32:33*
%MOMM*%
%LPD*%
G01*
G04 APERTURE LIST*
G04 Aperture macros list*
%AMRoundRect*
0 Rectangle with rounded corners*
0 $1 Rounding radius*
0 $2 $3 $4 $5 $6 $7 $8 $9 X,Y pos of 4 corners*
0 Add a 4 corners polygon primitive as box body*
4,1,4,$2,$3,$4,$5,$6,$7,$8,$9,$2,$3,0*
0 Add four circle primitives for the rounded corners*
1,1,$1+$1,$2,$3*
1,1,$1+$1,$4,$5*
1,1,$1+$1,$6,$7*
1,1,$1+$1,$8,$9*
0 Add four rect primitives between the rounded corners*
20,1,$1+$1,$2,$3,$4,$5,0*
20,1,$1+$1,$4,$5,$6,$7,0*
20,1,$1+$1,$6,$7,$8,$9,0*
20,1,$1+$1,$8,$9,$2,$3,0*%
G04 Aperture macros list end*
%ADD10R,1.000000X1.150000*%
%ADD11R,1.700000X0.900000*%
%ADD12RoundRect,0.135000X-0.135000X-0.185000X0.135000X-0.185000X0.135000X0.185000X-0.135000X0.185000X0*%
%ADD13RoundRect,0.147500X-0.147500X-0.172500X0.147500X-0.172500X0.147500X0.172500X-0.147500X0.172500X0*%
%ADD14RoundRect,0.135000X0.135000X0.185000X-0.135000X0.185000X-0.135000X-0.185000X0.135000X-0.185000X0*%
%ADD15RoundRect,0.147500X0.147500X0.172500X-0.147500X0.172500X-0.147500X-0.172500X0.147500X-0.172500X0*%
%ADD16RoundRect,0.225000X0.225000X0.250000X-0.225000X0.250000X-0.225000X-0.250000X0.225000X-0.250000X0*%
%ADD17RoundRect,0.250000X0.300000X-0.300000X0.300000X0.300000X-0.300000X0.300000X-0.300000X-0.300000X0*%
%ADD18RoundRect,0.140000X0.140000X0.170000X-0.140000X0.170000X-0.140000X-0.170000X0.140000X-0.170000X0*%
%ADD19RoundRect,0.135000X0.185000X-0.135000X0.185000X0.135000X-0.185000X0.135000X-0.185000X-0.135000X0*%
%ADD20RoundRect,0.140000X-0.170000X0.140000X-0.170000X-0.140000X0.170000X-0.140000X0.170000X0.140000X0*%
%ADD21RoundRect,0.140000X-0.140000X-0.170000X0.140000X-0.170000X0.140000X0.170000X-0.140000X0.170000X0*%
%ADD22RoundRect,0.140000X0.170000X-0.140000X0.170000X0.140000X-0.170000X0.140000X-0.170000X-0.140000X0*%
%ADD23R,0.400000X0.800000*%
%ADD24R,0.800000X0.350000*%
%ADD25R,0.600000X0.600000*%
%ADD26RoundRect,0.059250X-0.177750X0.447750X-0.177750X-0.447750X0.177750X-0.447750X0.177750X0.447750X0*%
%ADD27RoundRect,0.059250X-0.447750X0.177750X-0.447750X-0.177750X0.447750X-0.177750X0.447750X0.177750X0*%
%ADD28RoundRect,0.102000X-1.700000X1.700000X-1.700000X-1.700000X1.700000X-1.700000X1.700000X1.700000X0*%
%ADD29RoundRect,0.250000X-0.300000X0.300000X-0.300000X-0.300000X0.300000X-0.300000X0.300000X0.300000X0*%
%ADD30R,1.150000X1.000000*%
%ADD31R,1.380000X0.450000*%
%ADD32R,1.900000X2.380000*%
%ADD33R,2.100000X1.480000*%
%ADD34R,1.900000X1.180000*%
%ADD35RoundRect,0.225000X-0.250000X0.225000X-0.250000X-0.225000X0.250000X-0.225000X0.250000X0.225000X0*%
%ADD36RoundRect,0.050000X0.050000X-0.387500X0.050000X0.387500X-0.050000X0.387500X-0.050000X-0.387500X0*%
%ADD37RoundRect,0.050000X0.387500X-0.050000X0.387500X0.050000X-0.387500X0.050000X-0.387500X-0.050000X0*%
%ADD38R,3.200000X3.200000*%
%ADD39RoundRect,0.147500X0.172500X-0.147500X0.172500X0.147500X-0.172500X0.147500X-0.172500X-0.147500X0*%
%ADD40RoundRect,0.135000X-0.185000X0.135000X-0.185000X-0.135000X0.185000X-0.135000X0.185000X0.135000X0*%
%ADD41RoundRect,0.225000X0.250000X-0.225000X0.250000X0.225000X-0.250000X0.225000X-0.250000X-0.225000X0*%
%ADD42RoundRect,0.150000X-0.512500X-0.150000X0.512500X-0.150000X0.512500X0.150000X-0.512500X0.150000X0*%
%ADD43RoundRect,0.375000X-0.375000X0.625000X-0.375000X-0.625000X0.375000X-0.625000X0.375000X0.625000X0*%
%ADD44RoundRect,0.500000X-1.400000X0.500000X-1.400000X-0.500000X1.400000X-0.500000X1.400000X0.500000X0*%
%ADD45R,0.800000X1.660000*%
G04 APERTURE END LIST*
D10*
%TO.C,Y2*%
X161030000Y-80065000D03*
X161030000Y-81815000D03*
X162430000Y-81815000D03*
X162430000Y-80065000D03*
%TD*%
D11*
%TO.C,SW1*%
X115550000Y-76600000D03*
X115550000Y-80000000D03*
%TD*%
D12*
%TO.C,R2*%
X125390000Y-80200000D03*
X126410000Y-80200000D03*
%TD*%
D13*
%TO.C,D2*%
X129850000Y-85600000D03*
X130820000Y-85600000D03*
%TD*%
D14*
%TO.C,R3*%
X137710000Y-77350000D03*
X136690000Y-77350000D03*
%TD*%
D15*
%TO.C,D4*%
X168385000Y-77000000D03*
X167415000Y-77000000D03*
%TD*%
D16*
%TO.C,C17*%
X151675000Y-81600000D03*
X150125000Y-81600000D03*
%TD*%
D17*
%TO.C,D5*%
X167950000Y-85107500D03*
X167950000Y-82307500D03*
%TD*%
D18*
%TO.C,C3*%
X121250000Y-77650000D03*
X120290000Y-77650000D03*
%TD*%
%TO.C,C19*%
X162860000Y-83190000D03*
X161900000Y-83190000D03*
%TD*%
D12*
%TO.C,R4*%
X120490000Y-82500000D03*
X121510000Y-82500000D03*
%TD*%
D19*
%TO.C,R13*%
X150850000Y-85310000D03*
X150850000Y-84290000D03*
%TD*%
D12*
%TO.C,R5*%
X118250000Y-77600000D03*
X119270000Y-77600000D03*
%TD*%
%TO.C,R14*%
X150900000Y-80250000D03*
X151920000Y-80250000D03*
%TD*%
D20*
%TO.C,C20*%
X157670000Y-76340000D03*
X157670000Y-77300000D03*
%TD*%
D12*
%TO.C,R1*%
X127830000Y-85600000D03*
X128850000Y-85600000D03*
%TD*%
D21*
%TO.C,C6*%
X128170000Y-76300000D03*
X129130000Y-76300000D03*
%TD*%
D22*
%TO.C,C21*%
X159600000Y-79800000D03*
X159600000Y-78840000D03*
%TD*%
D18*
%TO.C,C22*%
X162860000Y-76600000D03*
X161900000Y-76600000D03*
%TD*%
D11*
%TO.C,SW3*%
X165050000Y-81800000D03*
X165050000Y-85200000D03*
%TD*%
D21*
%TO.C,C9*%
X136690000Y-79500000D03*
X137650000Y-79500000D03*
%TD*%
D23*
%TO.C,U1*%
X124150000Y-85045000D03*
X124950000Y-85045000D03*
X125750000Y-85045000D03*
X126550000Y-85045000D03*
X126550000Y-82445000D03*
X125750000Y-82445000D03*
X124950000Y-82445000D03*
X124150000Y-82445000D03*
D24*
X124550000Y-83745000D03*
X126150000Y-83745000D03*
%TD*%
D21*
%TO.C,C2*%
X120300000Y-76600000D03*
X121260000Y-76600000D03*
%TD*%
D25*
%TO.C,MIC1*%
X122670000Y-76640000D03*
X122670000Y-78620000D03*
X123730000Y-78620000D03*
X123730000Y-76640000D03*
%TD*%
D18*
%TO.C,C24*%
X161610000Y-78650000D03*
X160650000Y-78650000D03*
%TD*%
D26*
%TO.C,U4*%
X157700000Y-79400000D03*
X157200000Y-79400000D03*
X156700000Y-79400000D03*
X156200000Y-79400000D03*
X155700000Y-79400000D03*
X155200000Y-79400000D03*
X154700000Y-79400000D03*
X154200000Y-79400000D03*
D27*
X153500000Y-80100000D03*
X153500000Y-80600000D03*
X153500000Y-81100000D03*
X153500000Y-81600000D03*
X153500000Y-82100000D03*
X153500000Y-82600000D03*
X153500000Y-83100000D03*
X153500000Y-83600000D03*
D26*
X154200000Y-84300000D03*
X154700000Y-84300000D03*
X155200000Y-84300000D03*
X155700000Y-84300000D03*
X156200000Y-84300000D03*
X156700000Y-84300000D03*
X157200000Y-84300000D03*
X157700000Y-84300000D03*
D27*
X158400000Y-83600000D03*
X158400000Y-83100000D03*
X158400000Y-82600000D03*
X158400000Y-82100000D03*
X158400000Y-81600000D03*
X158400000Y-81100000D03*
X158400000Y-80600000D03*
X158400000Y-80100000D03*
D28*
X155950000Y-81850000D03*
%TD*%
D29*
%TO.C,D1*%
X112350000Y-76700000D03*
X112350000Y-79500000D03*
%TD*%
D21*
%TO.C,C7*%
X136540000Y-84900000D03*
X137500000Y-84900000D03*
%TD*%
D30*
%TO.C,Y1*%
X136950000Y-83500000D03*
X138700000Y-83500000D03*
X138700000Y-82100000D03*
X136950000Y-82100000D03*
%TD*%
D31*
%TO.C,USB2*%
X170020000Y-82180000D03*
X170020000Y-81530000D03*
X170020000Y-80880000D03*
X170020000Y-80230000D03*
X170020000Y-79580000D03*
D32*
X172680000Y-83910000D03*
D33*
X170380000Y-83340000D03*
D34*
X172680000Y-81720000D03*
X172680000Y-80040000D03*
D33*
X170380000Y-78420000D03*
D32*
X172680000Y-77890000D03*
%TD*%
D18*
%TO.C,C4*%
X126380000Y-81250000D03*
X125420000Y-81250000D03*
%TD*%
D12*
%TO.C,R16*%
X148040000Y-80000000D03*
X149060000Y-80000000D03*
%TD*%
D31*
%TO.C,USB1*%
X110210000Y-79690000D03*
X110210000Y-80340000D03*
X110210000Y-80990000D03*
X110210000Y-81640000D03*
X110210000Y-82290000D03*
D32*
X107550000Y-77960000D03*
D33*
X109850000Y-78530000D03*
D34*
X107550000Y-80150000D03*
X107550000Y-81830000D03*
D33*
X109850000Y-83450000D03*
D32*
X107550000Y-83980000D03*
%TD*%
D14*
%TO.C,R17*%
X162740000Y-85460000D03*
X161720000Y-85460000D03*
%TD*%
D35*
%TO.C,C8*%
X139050000Y-77225000D03*
X139050000Y-78775000D03*
%TD*%
D22*
%TO.C,C5*%
X125950000Y-78080000D03*
X125950000Y-77120000D03*
%TD*%
D15*
%TO.C,L3*%
X153655000Y-76400000D03*
X152685000Y-76400000D03*
%TD*%
D21*
%TO.C,C1*%
X136690000Y-78450000D03*
X137650000Y-78450000D03*
%TD*%
D36*
%TO.C,U2*%
X129050000Y-84337500D03*
X129450000Y-84337500D03*
X129850000Y-84337500D03*
X130250000Y-84337500D03*
X130650000Y-84337500D03*
X131050000Y-84337500D03*
X131450000Y-84337500D03*
X131850000Y-84337500D03*
X132250000Y-84337500D03*
X132650000Y-84337500D03*
X133050000Y-84337500D03*
X133450000Y-84337500D03*
X133850000Y-84337500D03*
X134250000Y-84337500D03*
D37*
X135087500Y-83500000D03*
X135087500Y-83100000D03*
X135087500Y-82700000D03*
X135087500Y-82300000D03*
X135087500Y-81900000D03*
X135087500Y-81500000D03*
X135087500Y-81100000D03*
X135087500Y-80700000D03*
X135087500Y-80300000D03*
X135087500Y-79900000D03*
X135087500Y-79500000D03*
X135087500Y-79100000D03*
X135087500Y-78700000D03*
X135087500Y-78300000D03*
D36*
X134250000Y-77462500D03*
X133850000Y-77462500D03*
X133450000Y-77462500D03*
X133050000Y-77462500D03*
X132650000Y-77462500D03*
X132250000Y-77462500D03*
X131850000Y-77462500D03*
X131450000Y-77462500D03*
X131050000Y-77462500D03*
X130650000Y-77462500D03*
X130250000Y-77462500D03*
X129850000Y-77462500D03*
X129450000Y-77462500D03*
X129050000Y-77462500D03*
D37*
X128212500Y-78300000D03*
X128212500Y-78700000D03*
X128212500Y-79100000D03*
X128212500Y-79500000D03*
X128212500Y-79900000D03*
X128212500Y-80300000D03*
X128212500Y-80700000D03*
X128212500Y-81100000D03*
X128212500Y-81500000D03*
X128212500Y-81900000D03*
X128212500Y-82300000D03*
X128212500Y-82700000D03*
X128212500Y-83100000D03*
X128212500Y-83500000D03*
D38*
X131650000Y-80900000D03*
%TD*%
D15*
%TO.C,L1*%
X156655000Y-76400000D03*
X155685000Y-76400000D03*
%TD*%
D18*
%TO.C,C16*%
X153950000Y-85600000D03*
X152990000Y-85600000D03*
%TD*%
D39*
%TO.C,D3*%
X152000000Y-85285000D03*
X152000000Y-84315000D03*
%TD*%
D18*
%TO.C,C10*%
X119280000Y-82450000D03*
X118320000Y-82450000D03*
%TD*%
D21*
%TO.C,C18*%
X154920000Y-85600000D03*
X155880000Y-85600000D03*
%TD*%
D12*
%TO.C,R6*%
X125390000Y-79150000D03*
X126410000Y-79150000D03*
%TD*%
%TO.C,R11*%
X150980000Y-82900000D03*
X152000000Y-82900000D03*
%TD*%
%TO.C,R12*%
X150900000Y-79170000D03*
X151920000Y-79170000D03*
%TD*%
D14*
%TO.C,R7*%
X137610000Y-80650000D03*
X136590000Y-80650000D03*
%TD*%
D12*
%TO.C,R8*%
X118240000Y-76550000D03*
X119260000Y-76550000D03*
%TD*%
D14*
%TO.C,R15*%
X162740000Y-84400000D03*
X161720000Y-84400000D03*
%TD*%
D20*
%TO.C,C26*%
X154670000Y-76320000D03*
X154670000Y-77280000D03*
%TD*%
D12*
%TO.C,R18*%
X167430000Y-78250000D03*
X168450000Y-78250000D03*
%TD*%
D22*
%TO.C,C11*%
X127050000Y-77380000D03*
X127050000Y-76420000D03*
%TD*%
D40*
%TO.C,R10*%
X122550000Y-83880000D03*
X122550000Y-84900000D03*
%TD*%
D18*
%TO.C,C12*%
X132830000Y-85600000D03*
X131870000Y-85600000D03*
%TD*%
D41*
%TO.C,C23*%
X148050000Y-84575000D03*
X148050000Y-83025000D03*
%TD*%
D21*
%TO.C,C13*%
X138620000Y-80650000D03*
X139580000Y-80650000D03*
%TD*%
%TO.C,C25*%
X161130000Y-77590000D03*
X162090000Y-77590000D03*
%TD*%
D42*
%TO.C,U3*%
X118812500Y-79150000D03*
X118812500Y-80100000D03*
X118812500Y-81050000D03*
X121087500Y-81050000D03*
X121087500Y-79150000D03*
%TD*%
D12*
%TO.C,R9*%
X118290000Y-83500000D03*
X119310000Y-83500000D03*
%TD*%
D15*
%TO.C,L2*%
X160945000Y-83180000D03*
X159975000Y-83180000D03*
%TD*%
%TO.C,FB1*%
X132765000Y-76240000D03*
X131795000Y-76240000D03*
%TD*%
D43*
%TO.C,U5*%
X145950000Y-77800000D03*
X143650000Y-77800000D03*
D44*
X143650000Y-84100000D03*
D43*
X141350000Y-77800000D03*
%TD*%
D20*
%TO.C,C14*%
X124950000Y-76496250D03*
X124950000Y-77456250D03*
%TD*%
D11*
%TO.C,SW4*%
X165100000Y-76600000D03*
X165100000Y-80000000D03*
%TD*%
D45*
%TO.C,AE1*%
X151600000Y-76800000D03*
X148500000Y-76800000D03*
%TD*%
D20*
%TO.C,C15*%
X122650000Y-81840000D03*
X122650000Y-82800000D03*
%TD*%
D11*
%TO.C,SW2*%
X115550000Y-81900000D03*
X115550000Y-85300000D03*
%TD*%
M02*
