%TF.GenerationSoftware,KiCad,Pcbnew,8.0.1*%
%TF.CreationDate,2024-08-20T12:32:33+02:00*%
%TF.ProjectId,ESP32_PICO_LED,45535033-325f-4504-9943-4f5f4c45442e,rev?*%
%TF.SameCoordinates,Original*%
%TF.FileFunction,Legend,Bot*%
%TF.FilePolarity,Positive*%
%FSLAX46Y46*%
G04 Gerber Fmt 4.6, Leading zero omitted, Abs format (unit mm)*
G04 Created by KiCad (PCBNEW 8.0.1) date 2024-08-20 12:32:33*
%MOMM*%
%LPD*%
G01*
G04 APERTURE LIST*
%ADD10C,0.090000*%
%ADD11C,0.120000*%
%ADD12C,0.100000*%
G04 APERTURE END LIST*
D10*
X168583647Y-81034129D02*
X168821742Y-81034129D01*
X168821742Y-81034129D02*
X168821742Y-80534129D01*
X168416980Y-80772224D02*
X168250313Y-80772224D01*
X168178885Y-81034129D02*
X168416980Y-81034129D01*
X168416980Y-81034129D02*
X168416980Y-80534129D01*
X168416980Y-80534129D02*
X168178885Y-80534129D01*
X167964599Y-81034129D02*
X167964599Y-80534129D01*
X167964599Y-80534129D02*
X167845551Y-80534129D01*
X167845551Y-80534129D02*
X167774123Y-80557939D01*
X167774123Y-80557939D02*
X167726504Y-80605558D01*
X167726504Y-80605558D02*
X167702694Y-80653177D01*
X167702694Y-80653177D02*
X167678885Y-80748415D01*
X167678885Y-80748415D02*
X167678885Y-80819843D01*
X167678885Y-80819843D02*
X167702694Y-80915081D01*
X167702694Y-80915081D02*
X167726504Y-80962700D01*
X167726504Y-80962700D02*
X167774123Y-81010320D01*
X167774123Y-81010320D02*
X167845551Y-81034129D01*
X167845551Y-81034129D02*
X167964599Y-81034129D01*
X167488408Y-80581748D02*
X167464599Y-80557939D01*
X167464599Y-80557939D02*
X167416980Y-80534129D01*
X167416980Y-80534129D02*
X167297932Y-80534129D01*
X167297932Y-80534129D02*
X167250313Y-80557939D01*
X167250313Y-80557939D02*
X167226504Y-80581748D01*
X167226504Y-80581748D02*
X167202694Y-80629367D01*
X167202694Y-80629367D02*
X167202694Y-80676986D01*
X167202694Y-80676986D02*
X167226504Y-80748415D01*
X167226504Y-80748415D02*
X167512218Y-81034129D01*
X167512218Y-81034129D02*
X167202694Y-81034129D01*
X111809837Y-83307939D02*
X111857456Y-83284129D01*
X111857456Y-83284129D02*
X111928885Y-83284129D01*
X111928885Y-83284129D02*
X112000313Y-83307939D01*
X112000313Y-83307939D02*
X112047932Y-83355558D01*
X112047932Y-83355558D02*
X112071742Y-83403177D01*
X112071742Y-83403177D02*
X112095551Y-83498415D01*
X112095551Y-83498415D02*
X112095551Y-83569843D01*
X112095551Y-83569843D02*
X112071742Y-83665081D01*
X112071742Y-83665081D02*
X112047932Y-83712700D01*
X112047932Y-83712700D02*
X112000313Y-83760320D01*
X112000313Y-83760320D02*
X111928885Y-83784129D01*
X111928885Y-83784129D02*
X111881266Y-83784129D01*
X111881266Y-83784129D02*
X111809837Y-83760320D01*
X111809837Y-83760320D02*
X111786028Y-83736510D01*
X111786028Y-83736510D02*
X111786028Y-83569843D01*
X111786028Y-83569843D02*
X111881266Y-83569843D01*
X111571742Y-83784129D02*
X111571742Y-83284129D01*
X111571742Y-83284129D02*
X111286028Y-83784129D01*
X111286028Y-83784129D02*
X111286028Y-83284129D01*
X111047932Y-83784129D02*
X111047932Y-83284129D01*
X111047932Y-83284129D02*
X110928884Y-83284129D01*
X110928884Y-83284129D02*
X110857456Y-83307939D01*
X110857456Y-83307939D02*
X110809837Y-83355558D01*
X110809837Y-83355558D02*
X110786027Y-83403177D01*
X110786027Y-83403177D02*
X110762218Y-83498415D01*
X110762218Y-83498415D02*
X110762218Y-83569843D01*
X110762218Y-83569843D02*
X110786027Y-83665081D01*
X110786027Y-83665081D02*
X110809837Y-83712700D01*
X110809837Y-83712700D02*
X110857456Y-83760320D01*
X110857456Y-83760320D02*
X110928884Y-83784129D01*
X110928884Y-83784129D02*
X111047932Y-83784129D01*
X139643653Y-80178257D02*
X139643653Y-80559210D01*
X139834129Y-80368733D02*
X139453177Y-80368733D01*
X139334129Y-81035400D02*
X139334129Y-80797305D01*
X139334129Y-80797305D02*
X139572224Y-80773496D01*
X139572224Y-80773496D02*
X139548415Y-80797305D01*
X139548415Y-80797305D02*
X139524605Y-80844924D01*
X139524605Y-80844924D02*
X139524605Y-80963972D01*
X139524605Y-80963972D02*
X139548415Y-81011591D01*
X139548415Y-81011591D02*
X139572224Y-81035400D01*
X139572224Y-81035400D02*
X139619843Y-81059210D01*
X139619843Y-81059210D02*
X139738891Y-81059210D01*
X139738891Y-81059210D02*
X139786510Y-81035400D01*
X139786510Y-81035400D02*
X139810320Y-81011591D01*
X139810320Y-81011591D02*
X139834129Y-80963972D01*
X139834129Y-80963972D02*
X139834129Y-80844924D01*
X139834129Y-80844924D02*
X139810320Y-80797305D01*
X139810320Y-80797305D02*
X139786510Y-80773496D01*
X139334129Y-81202067D02*
X139834129Y-81368733D01*
X139834129Y-81368733D02*
X139334129Y-81535400D01*
X143782219Y-78107939D02*
X143829838Y-78084129D01*
X143829838Y-78084129D02*
X143901267Y-78084129D01*
X143901267Y-78084129D02*
X143972695Y-78107939D01*
X143972695Y-78107939D02*
X144020314Y-78155558D01*
X144020314Y-78155558D02*
X144044124Y-78203177D01*
X144044124Y-78203177D02*
X144067933Y-78298415D01*
X144067933Y-78298415D02*
X144067933Y-78369843D01*
X144067933Y-78369843D02*
X144044124Y-78465081D01*
X144044124Y-78465081D02*
X144020314Y-78512700D01*
X144020314Y-78512700D02*
X143972695Y-78560320D01*
X143972695Y-78560320D02*
X143901267Y-78584129D01*
X143901267Y-78584129D02*
X143853648Y-78584129D01*
X143853648Y-78584129D02*
X143782219Y-78560320D01*
X143782219Y-78560320D02*
X143758410Y-78536510D01*
X143758410Y-78536510D02*
X143758410Y-78369843D01*
X143758410Y-78369843D02*
X143853648Y-78369843D01*
X143544124Y-78584129D02*
X143544124Y-78084129D01*
X143544124Y-78084129D02*
X143258410Y-78584129D01*
X143258410Y-78584129D02*
X143258410Y-78084129D01*
X143020314Y-78584129D02*
X143020314Y-78084129D01*
X143020314Y-78084129D02*
X142901266Y-78084129D01*
X142901266Y-78084129D02*
X142829838Y-78107939D01*
X142829838Y-78107939D02*
X142782219Y-78155558D01*
X142782219Y-78155558D02*
X142758409Y-78203177D01*
X142758409Y-78203177D02*
X142734600Y-78298415D01*
X142734600Y-78298415D02*
X142734600Y-78369843D01*
X142734600Y-78369843D02*
X142758409Y-78465081D01*
X142758409Y-78465081D02*
X142782219Y-78512700D01*
X142782219Y-78512700D02*
X142829838Y-78560320D01*
X142829838Y-78560320D02*
X142901266Y-78584129D01*
X142901266Y-78584129D02*
X143020314Y-78584129D01*
X168559837Y-82807939D02*
X168607456Y-82784129D01*
X168607456Y-82784129D02*
X168678885Y-82784129D01*
X168678885Y-82784129D02*
X168750313Y-82807939D01*
X168750313Y-82807939D02*
X168797932Y-82855558D01*
X168797932Y-82855558D02*
X168821742Y-82903177D01*
X168821742Y-82903177D02*
X168845551Y-82998415D01*
X168845551Y-82998415D02*
X168845551Y-83069843D01*
X168845551Y-83069843D02*
X168821742Y-83165081D01*
X168821742Y-83165081D02*
X168797932Y-83212700D01*
X168797932Y-83212700D02*
X168750313Y-83260320D01*
X168750313Y-83260320D02*
X168678885Y-83284129D01*
X168678885Y-83284129D02*
X168631266Y-83284129D01*
X168631266Y-83284129D02*
X168559837Y-83260320D01*
X168559837Y-83260320D02*
X168536028Y-83236510D01*
X168536028Y-83236510D02*
X168536028Y-83069843D01*
X168536028Y-83069843D02*
X168631266Y-83069843D01*
X168321742Y-83284129D02*
X168321742Y-82784129D01*
X168321742Y-82784129D02*
X168036028Y-83284129D01*
X168036028Y-83284129D02*
X168036028Y-82784129D01*
X167797932Y-83284129D02*
X167797932Y-82784129D01*
X167797932Y-82784129D02*
X167678884Y-82784129D01*
X167678884Y-82784129D02*
X167607456Y-82807939D01*
X167607456Y-82807939D02*
X167559837Y-82855558D01*
X167559837Y-82855558D02*
X167536027Y-82903177D01*
X167536027Y-82903177D02*
X167512218Y-82998415D01*
X167512218Y-82998415D02*
X167512218Y-83069843D01*
X167512218Y-83069843D02*
X167536027Y-83165081D01*
X167536027Y-83165081D02*
X167559837Y-83212700D01*
X167559837Y-83212700D02*
X167607456Y-83260320D01*
X167607456Y-83260320D02*
X167678884Y-83284129D01*
X167678884Y-83284129D02*
X167797932Y-83284129D01*
X120334129Y-80366352D02*
X120334129Y-80128257D01*
X120334129Y-80128257D02*
X119834129Y-80128257D01*
X120072224Y-80533019D02*
X120072224Y-80699686D01*
X120334129Y-80771114D02*
X120334129Y-80533019D01*
X120334129Y-80533019D02*
X119834129Y-80533019D01*
X119834129Y-80533019D02*
X119834129Y-80771114D01*
X120334129Y-80985400D02*
X119834129Y-80985400D01*
X119834129Y-80985400D02*
X119834129Y-81104448D01*
X119834129Y-81104448D02*
X119857939Y-81175876D01*
X119857939Y-81175876D02*
X119905558Y-81223495D01*
X119905558Y-81223495D02*
X119953177Y-81247305D01*
X119953177Y-81247305D02*
X120048415Y-81271114D01*
X120048415Y-81271114D02*
X120119843Y-81271114D01*
X120119843Y-81271114D02*
X120215081Y-81247305D01*
X120215081Y-81247305D02*
X120262700Y-81223495D01*
X120262700Y-81223495D02*
X120310320Y-81175876D01*
X120310320Y-81175876D02*
X120334129Y-81104448D01*
X120334129Y-81104448D02*
X120334129Y-80985400D01*
X119834129Y-81437781D02*
X119834129Y-81747305D01*
X119834129Y-81747305D02*
X120024605Y-81580638D01*
X120024605Y-81580638D02*
X120024605Y-81652067D01*
X120024605Y-81652067D02*
X120048415Y-81699686D01*
X120048415Y-81699686D02*
X120072224Y-81723495D01*
X120072224Y-81723495D02*
X120119843Y-81747305D01*
X120119843Y-81747305D02*
X120238891Y-81747305D01*
X120238891Y-81747305D02*
X120286510Y-81723495D01*
X120286510Y-81723495D02*
X120310320Y-81699686D01*
X120310320Y-81699686D02*
X120334129Y-81652067D01*
X120334129Y-81652067D02*
X120334129Y-81509210D01*
X120334129Y-81509210D02*
X120310320Y-81461591D01*
X120310320Y-81461591D02*
X120286510Y-81437781D01*
X169071742Y-78243653D02*
X168690790Y-78243653D01*
X168881266Y-78434129D02*
X168881266Y-78053177D01*
X168214599Y-77934129D02*
X168452694Y-77934129D01*
X168452694Y-77934129D02*
X168476503Y-78172224D01*
X168476503Y-78172224D02*
X168452694Y-78148415D01*
X168452694Y-78148415D02*
X168405075Y-78124605D01*
X168405075Y-78124605D02*
X168286027Y-78124605D01*
X168286027Y-78124605D02*
X168238408Y-78148415D01*
X168238408Y-78148415D02*
X168214599Y-78172224D01*
X168214599Y-78172224D02*
X168190789Y-78219843D01*
X168190789Y-78219843D02*
X168190789Y-78338891D01*
X168190789Y-78338891D02*
X168214599Y-78386510D01*
X168214599Y-78386510D02*
X168238408Y-78410320D01*
X168238408Y-78410320D02*
X168286027Y-78434129D01*
X168286027Y-78434129D02*
X168405075Y-78434129D01*
X168405075Y-78434129D02*
X168452694Y-78410320D01*
X168452694Y-78410320D02*
X168476503Y-78386510D01*
X168047932Y-77934129D02*
X167881266Y-78434129D01*
X167881266Y-78434129D02*
X167714599Y-77934129D01*
X112083647Y-81184129D02*
X112321742Y-81184129D01*
X112321742Y-81184129D02*
X112321742Y-80684129D01*
X111916980Y-80922224D02*
X111750313Y-80922224D01*
X111678885Y-81184129D02*
X111916980Y-81184129D01*
X111916980Y-81184129D02*
X111916980Y-80684129D01*
X111916980Y-80684129D02*
X111678885Y-80684129D01*
X111464599Y-81184129D02*
X111464599Y-80684129D01*
X111464599Y-80684129D02*
X111345551Y-80684129D01*
X111345551Y-80684129D02*
X111274123Y-80707939D01*
X111274123Y-80707939D02*
X111226504Y-80755558D01*
X111226504Y-80755558D02*
X111202694Y-80803177D01*
X111202694Y-80803177D02*
X111178885Y-80898415D01*
X111178885Y-80898415D02*
X111178885Y-80969843D01*
X111178885Y-80969843D02*
X111202694Y-81065081D01*
X111202694Y-81065081D02*
X111226504Y-81112700D01*
X111226504Y-81112700D02*
X111274123Y-81160320D01*
X111274123Y-81160320D02*
X111345551Y-81184129D01*
X111345551Y-81184129D02*
X111464599Y-81184129D01*
X110702694Y-81184129D02*
X110988408Y-81184129D01*
X110845551Y-81184129D02*
X110845551Y-80684129D01*
X110845551Y-80684129D02*
X110893170Y-80755558D01*
X110893170Y-80755558D02*
X110940789Y-80803177D01*
X110940789Y-80803177D02*
X110988408Y-80826986D01*
X144357939Y-80490162D02*
X144334129Y-80442543D01*
X144334129Y-80442543D02*
X144334129Y-80371114D01*
X144334129Y-80371114D02*
X144357939Y-80299686D01*
X144357939Y-80299686D02*
X144405558Y-80252067D01*
X144405558Y-80252067D02*
X144453177Y-80228257D01*
X144453177Y-80228257D02*
X144548415Y-80204448D01*
X144548415Y-80204448D02*
X144619843Y-80204448D01*
X144619843Y-80204448D02*
X144715081Y-80228257D01*
X144715081Y-80228257D02*
X144762700Y-80252067D01*
X144762700Y-80252067D02*
X144810320Y-80299686D01*
X144810320Y-80299686D02*
X144834129Y-80371114D01*
X144834129Y-80371114D02*
X144834129Y-80418733D01*
X144834129Y-80418733D02*
X144810320Y-80490162D01*
X144810320Y-80490162D02*
X144786510Y-80513971D01*
X144786510Y-80513971D02*
X144619843Y-80513971D01*
X144619843Y-80513971D02*
X144619843Y-80418733D01*
X144834129Y-80728257D02*
X144334129Y-80728257D01*
X144334129Y-80728257D02*
X144834129Y-81013971D01*
X144834129Y-81013971D02*
X144334129Y-81013971D01*
X144834129Y-81252067D02*
X144334129Y-81252067D01*
X144334129Y-81252067D02*
X144334129Y-81371115D01*
X144334129Y-81371115D02*
X144357939Y-81442543D01*
X144357939Y-81442543D02*
X144405558Y-81490162D01*
X144405558Y-81490162D02*
X144453177Y-81513972D01*
X144453177Y-81513972D02*
X144548415Y-81537781D01*
X144548415Y-81537781D02*
X144619843Y-81537781D01*
X144619843Y-81537781D02*
X144715081Y-81513972D01*
X144715081Y-81513972D02*
X144762700Y-81490162D01*
X144762700Y-81490162D02*
X144810320Y-81442543D01*
X144810320Y-81442543D02*
X144834129Y-81371115D01*
X144834129Y-81371115D02*
X144834129Y-81252067D01*
X139195551Y-78560320D02*
X139124123Y-78584129D01*
X139124123Y-78584129D02*
X139005075Y-78584129D01*
X139005075Y-78584129D02*
X138957456Y-78560320D01*
X138957456Y-78560320D02*
X138933647Y-78536510D01*
X138933647Y-78536510D02*
X138909837Y-78488891D01*
X138909837Y-78488891D02*
X138909837Y-78441272D01*
X138909837Y-78441272D02*
X138933647Y-78393653D01*
X138933647Y-78393653D02*
X138957456Y-78369843D01*
X138957456Y-78369843D02*
X139005075Y-78346034D01*
X139005075Y-78346034D02*
X139100313Y-78322224D01*
X139100313Y-78322224D02*
X139147932Y-78298415D01*
X139147932Y-78298415D02*
X139171742Y-78274605D01*
X139171742Y-78274605D02*
X139195551Y-78226986D01*
X139195551Y-78226986D02*
X139195551Y-78179367D01*
X139195551Y-78179367D02*
X139171742Y-78131748D01*
X139171742Y-78131748D02*
X139147932Y-78107939D01*
X139147932Y-78107939D02*
X139100313Y-78084129D01*
X139100313Y-78084129D02*
X138981266Y-78084129D01*
X138981266Y-78084129D02*
X138909837Y-78107939D01*
X138743171Y-78084129D02*
X138624123Y-78584129D01*
X138624123Y-78584129D02*
X138528885Y-78226986D01*
X138528885Y-78226986D02*
X138433647Y-78584129D01*
X138433647Y-78584129D02*
X138314600Y-78084129D01*
X137838409Y-78536510D02*
X137862218Y-78560320D01*
X137862218Y-78560320D02*
X137933647Y-78584129D01*
X137933647Y-78584129D02*
X137981266Y-78584129D01*
X137981266Y-78584129D02*
X138052694Y-78560320D01*
X138052694Y-78560320D02*
X138100313Y-78512700D01*
X138100313Y-78512700D02*
X138124123Y-78465081D01*
X138124123Y-78465081D02*
X138147932Y-78369843D01*
X138147932Y-78369843D02*
X138147932Y-78298415D01*
X138147932Y-78298415D02*
X138124123Y-78203177D01*
X138124123Y-78203177D02*
X138100313Y-78155558D01*
X138100313Y-78155558D02*
X138052694Y-78107939D01*
X138052694Y-78107939D02*
X137981266Y-78084129D01*
X137981266Y-78084129D02*
X137933647Y-78084129D01*
X137933647Y-78084129D02*
X137862218Y-78107939D01*
X137862218Y-78107939D02*
X137838409Y-78131748D01*
X137386028Y-78584129D02*
X137624123Y-78584129D01*
X137624123Y-78584129D02*
X137624123Y-78084129D01*
X137219361Y-78584129D02*
X137219361Y-78084129D01*
X136933647Y-78584129D02*
X137147932Y-78298415D01*
X136933647Y-78084129D02*
X137219361Y-78369843D01*
X117543653Y-80378257D02*
X117543653Y-80759210D01*
X117734129Y-80568733D02*
X117353177Y-80568733D01*
X117234129Y-81235400D02*
X117234129Y-80997305D01*
X117234129Y-80997305D02*
X117472224Y-80973496D01*
X117472224Y-80973496D02*
X117448415Y-80997305D01*
X117448415Y-80997305D02*
X117424605Y-81044924D01*
X117424605Y-81044924D02*
X117424605Y-81163972D01*
X117424605Y-81163972D02*
X117448415Y-81211591D01*
X117448415Y-81211591D02*
X117472224Y-81235400D01*
X117472224Y-81235400D02*
X117519843Y-81259210D01*
X117519843Y-81259210D02*
X117638891Y-81259210D01*
X117638891Y-81259210D02*
X117686510Y-81235400D01*
X117686510Y-81235400D02*
X117710320Y-81211591D01*
X117710320Y-81211591D02*
X117734129Y-81163972D01*
X117734129Y-81163972D02*
X117734129Y-81044924D01*
X117734129Y-81044924D02*
X117710320Y-80997305D01*
X117710320Y-80997305D02*
X117686510Y-80973496D01*
X117234129Y-81402067D02*
X117734129Y-81568733D01*
X117734129Y-81568733D02*
X117234129Y-81735400D01*
X141845551Y-78610320D02*
X141774123Y-78634129D01*
X141774123Y-78634129D02*
X141655075Y-78634129D01*
X141655075Y-78634129D02*
X141607456Y-78610320D01*
X141607456Y-78610320D02*
X141583647Y-78586510D01*
X141583647Y-78586510D02*
X141559837Y-78538891D01*
X141559837Y-78538891D02*
X141559837Y-78491272D01*
X141559837Y-78491272D02*
X141583647Y-78443653D01*
X141583647Y-78443653D02*
X141607456Y-78419843D01*
X141607456Y-78419843D02*
X141655075Y-78396034D01*
X141655075Y-78396034D02*
X141750313Y-78372224D01*
X141750313Y-78372224D02*
X141797932Y-78348415D01*
X141797932Y-78348415D02*
X141821742Y-78324605D01*
X141821742Y-78324605D02*
X141845551Y-78276986D01*
X141845551Y-78276986D02*
X141845551Y-78229367D01*
X141845551Y-78229367D02*
X141821742Y-78181748D01*
X141821742Y-78181748D02*
X141797932Y-78157939D01*
X141797932Y-78157939D02*
X141750313Y-78134129D01*
X141750313Y-78134129D02*
X141631266Y-78134129D01*
X141631266Y-78134129D02*
X141559837Y-78157939D01*
X141393171Y-78134129D02*
X141274123Y-78634129D01*
X141274123Y-78634129D02*
X141178885Y-78276986D01*
X141178885Y-78276986D02*
X141083647Y-78634129D01*
X141083647Y-78634129D02*
X140964600Y-78134129D01*
X140774123Y-78634129D02*
X140774123Y-78134129D01*
X140774123Y-78134129D02*
X140655075Y-78134129D01*
X140655075Y-78134129D02*
X140583647Y-78157939D01*
X140583647Y-78157939D02*
X140536028Y-78205558D01*
X140536028Y-78205558D02*
X140512218Y-78253177D01*
X140512218Y-78253177D02*
X140488409Y-78348415D01*
X140488409Y-78348415D02*
X140488409Y-78419843D01*
X140488409Y-78419843D02*
X140512218Y-78515081D01*
X140512218Y-78515081D02*
X140536028Y-78562700D01*
X140536028Y-78562700D02*
X140583647Y-78610320D01*
X140583647Y-78610320D02*
X140655075Y-78634129D01*
X140655075Y-78634129D02*
X140774123Y-78634129D01*
X140274123Y-78634129D02*
X140274123Y-78134129D01*
X139940790Y-78134129D02*
X139845552Y-78134129D01*
X139845552Y-78134129D02*
X139797933Y-78157939D01*
X139797933Y-78157939D02*
X139750314Y-78205558D01*
X139750314Y-78205558D02*
X139726504Y-78300796D01*
X139726504Y-78300796D02*
X139726504Y-78467462D01*
X139726504Y-78467462D02*
X139750314Y-78562700D01*
X139750314Y-78562700D02*
X139797933Y-78610320D01*
X139797933Y-78610320D02*
X139845552Y-78634129D01*
X139845552Y-78634129D02*
X139940790Y-78634129D01*
X139940790Y-78634129D02*
X139988409Y-78610320D01*
X139988409Y-78610320D02*
X140036028Y-78562700D01*
X140036028Y-78562700D02*
X140059837Y-78467462D01*
X140059837Y-78467462D02*
X140059837Y-78300796D01*
X140059837Y-78300796D02*
X140036028Y-78205558D01*
X140036028Y-78205558D02*
X139988409Y-78157939D01*
X139988409Y-78157939D02*
X139940790Y-78134129D01*
X112071742Y-78493653D02*
X111690790Y-78493653D01*
X111881266Y-78684129D02*
X111881266Y-78303177D01*
X111214599Y-78184129D02*
X111452694Y-78184129D01*
X111452694Y-78184129D02*
X111476503Y-78422224D01*
X111476503Y-78422224D02*
X111452694Y-78398415D01*
X111452694Y-78398415D02*
X111405075Y-78374605D01*
X111405075Y-78374605D02*
X111286027Y-78374605D01*
X111286027Y-78374605D02*
X111238408Y-78398415D01*
X111238408Y-78398415D02*
X111214599Y-78422224D01*
X111214599Y-78422224D02*
X111190789Y-78469843D01*
X111190789Y-78469843D02*
X111190789Y-78588891D01*
X111190789Y-78588891D02*
X111214599Y-78636510D01*
X111214599Y-78636510D02*
X111238408Y-78660320D01*
X111238408Y-78660320D02*
X111286027Y-78684129D01*
X111286027Y-78684129D02*
X111405075Y-78684129D01*
X111405075Y-78684129D02*
X111452694Y-78660320D01*
X111452694Y-78660320D02*
X111476503Y-78636510D01*
X111047932Y-78184129D02*
X110881266Y-78684129D01*
X110881266Y-78684129D02*
X110714599Y-78184129D01*
X122407939Y-80640162D02*
X122384129Y-80592543D01*
X122384129Y-80592543D02*
X122384129Y-80521114D01*
X122384129Y-80521114D02*
X122407939Y-80449686D01*
X122407939Y-80449686D02*
X122455558Y-80402067D01*
X122455558Y-80402067D02*
X122503177Y-80378257D01*
X122503177Y-80378257D02*
X122598415Y-80354448D01*
X122598415Y-80354448D02*
X122669843Y-80354448D01*
X122669843Y-80354448D02*
X122765081Y-80378257D01*
X122765081Y-80378257D02*
X122812700Y-80402067D01*
X122812700Y-80402067D02*
X122860320Y-80449686D01*
X122860320Y-80449686D02*
X122884129Y-80521114D01*
X122884129Y-80521114D02*
X122884129Y-80568733D01*
X122884129Y-80568733D02*
X122860320Y-80640162D01*
X122860320Y-80640162D02*
X122836510Y-80663971D01*
X122836510Y-80663971D02*
X122669843Y-80663971D01*
X122669843Y-80663971D02*
X122669843Y-80568733D01*
X122884129Y-80878257D02*
X122384129Y-80878257D01*
X122384129Y-80878257D02*
X122884129Y-81163971D01*
X122884129Y-81163971D02*
X122384129Y-81163971D01*
X122884129Y-81402067D02*
X122384129Y-81402067D01*
X122384129Y-81402067D02*
X122384129Y-81521115D01*
X122384129Y-81521115D02*
X122407939Y-81592543D01*
X122407939Y-81592543D02*
X122455558Y-81640162D01*
X122455558Y-81640162D02*
X122503177Y-81663972D01*
X122503177Y-81663972D02*
X122598415Y-81687781D01*
X122598415Y-81687781D02*
X122669843Y-81687781D01*
X122669843Y-81687781D02*
X122765081Y-81663972D01*
X122765081Y-81663972D02*
X122812700Y-81640162D01*
X122812700Y-81640162D02*
X122860320Y-81592543D01*
X122860320Y-81592543D02*
X122884129Y-81521115D01*
X122884129Y-81521115D02*
X122884129Y-81402067D01*
X142184129Y-80066352D02*
X142184129Y-79828257D01*
X142184129Y-79828257D02*
X141684129Y-79828257D01*
X141922224Y-80233019D02*
X141922224Y-80399686D01*
X142184129Y-80471114D02*
X142184129Y-80233019D01*
X142184129Y-80233019D02*
X141684129Y-80233019D01*
X141684129Y-80233019D02*
X141684129Y-80471114D01*
X142184129Y-80685400D02*
X141684129Y-80685400D01*
X141684129Y-80685400D02*
X141684129Y-80804448D01*
X141684129Y-80804448D02*
X141707939Y-80875876D01*
X141707939Y-80875876D02*
X141755558Y-80923495D01*
X141755558Y-80923495D02*
X141803177Y-80947305D01*
X141803177Y-80947305D02*
X141898415Y-80971114D01*
X141898415Y-80971114D02*
X141969843Y-80971114D01*
X141969843Y-80971114D02*
X142065081Y-80947305D01*
X142065081Y-80947305D02*
X142112700Y-80923495D01*
X142112700Y-80923495D02*
X142160320Y-80875876D01*
X142160320Y-80875876D02*
X142184129Y-80804448D01*
X142184129Y-80804448D02*
X142184129Y-80685400D01*
X141850796Y-81399686D02*
X142184129Y-81399686D01*
X141660320Y-81280638D02*
X142017462Y-81161591D01*
X142017462Y-81161591D02*
X142017462Y-81471114D01*
D11*
%TO.C,J4*%
X137500000Y-76400000D02*
X138900000Y-76400000D01*
X137500000Y-77800000D02*
X137500000Y-76400000D01*
X138900000Y-76400000D02*
X138900000Y-77800000D01*
X138900000Y-77800000D02*
X137500000Y-77800000D01*
%TO.C,J5*%
D12*
X145350000Y-85600000D02*
X138750000Y-85600000D01*
X138750000Y-81800000D01*
X145350000Y-81800000D01*
X145350000Y-85600000D01*
%TO.C,J6*%
X123350000Y-85800000D02*
X116750000Y-85800000D01*
X116750000Y-82000000D01*
X123350000Y-82000000D01*
X123350000Y-85800000D01*
D11*
%TO.C,J2*%
X140100000Y-76400000D02*
X141500000Y-76400000D01*
X140100000Y-77800000D02*
X140100000Y-76400000D01*
X141500000Y-76400000D02*
X141500000Y-77800000D01*
X141500000Y-77800000D02*
X140100000Y-77800000D01*
%TO.C,J3*%
X142700000Y-76400000D02*
X144100000Y-76400000D01*
X142700000Y-77800000D02*
X142700000Y-76400000D01*
X144100000Y-76400000D02*
X144100000Y-77800000D01*
X144100000Y-77800000D02*
X142700000Y-77800000D01*
%TO.C,J1*%
D12*
X169350000Y-84100000D02*
X173150000Y-84100000D01*
X173150000Y-77500000D01*
X169350000Y-77500000D01*
X169350000Y-84100000D01*
%TO.C,J7*%
X106650000Y-84300000D02*
X110450000Y-84300000D01*
X110450000Y-77700000D01*
X106650000Y-77700000D01*
X106650000Y-84300000D01*
%TD*%
M02*
