%TF.GenerationSoftware,KiCad,Pcbnew,8.0.1*%
%TF.CreationDate,2024-08-20T12:32:33+02:00*%
%TF.ProjectId,ESP32_PICO_LED,45535033-325f-4504-9943-4f5f4c45442e,rev?*%
%TF.SameCoordinates,Original*%
%TF.FileFunction,Copper,L2,Inr*%
%TF.FilePolarity,Positive*%
%FSLAX46Y46*%
G04 Gerber Fmt 4.6, Leading zero omitted, Abs format (unit mm)*
G04 Created by KiCad (PCBNEW 8.0.1) date 2024-08-20 12:32:33*
%MOMM*%
%LPD*%
G01*
G04 APERTURE LIST*
%TA.AperFunction,ComponentPad*%
%ADD10C,0.500000*%
%TD*%
%TA.AperFunction,ViaPad*%
%ADD11C,0.450000*%
%TD*%
%TA.AperFunction,ViaPad*%
%ADD12C,1.200000*%
%TD*%
%TA.AperFunction,ViaPad*%
%ADD13C,1.000000*%
%TD*%
%TA.AperFunction,ViaPad*%
%ADD14C,0.600000*%
%TD*%
%TA.AperFunction,Conductor*%
%ADD15C,0.152400*%
%TD*%
%TA.AperFunction,Conductor*%
%ADD16C,1.100000*%
%TD*%
G04 APERTURE END LIST*
D10*
%TO.N,GND*%
%TO.C,U4*%
X155950000Y-81150000D03*
X156650000Y-81850000D03*
X155250000Y-81850000D03*
X155950000Y-82550000D03*
%TD*%
D11*
%TO.N,GND*%
X149632784Y-82777216D03*
X111390000Y-82430000D03*
X126250000Y-76100000D03*
X123450006Y-78620000D03*
X118812514Y-79900000D03*
X139050000Y-78775006D03*
X154000000Y-77900000D03*
X139925000Y-80575000D03*
X125150357Y-83600357D03*
X162150000Y-78680000D03*
X162620000Y-77589988D03*
X168980000Y-79540000D03*
X137650028Y-79499986D03*
X112320000Y-82850000D03*
X153250000Y-84500000D03*
X157376074Y-77847103D03*
X134338783Y-81871800D03*
X167731499Y-79187500D03*
X156800000Y-77900002D03*
X170500000Y-84700000D03*
X115290010Y-85350000D03*
X115299986Y-80000000D03*
X146340000Y-78580000D03*
X126450000Y-85700000D03*
X163450000Y-79900000D03*
X158550000Y-84500000D03*
X125050004Y-81400000D03*
X122850000Y-82800000D03*
X129850000Y-76100000D03*
X158650000Y-79100000D03*
X155450000Y-77900000D03*
X154700000Y-77900000D03*
X149450000Y-84600000D03*
X111890000Y-82500000D03*
X168230000Y-79430000D03*
X149250000Y-81828200D03*
X161450000Y-76600000D03*
X124904185Y-77371800D03*
X156150002Y-77900002D03*
X131870001Y-85848000D03*
X146310000Y-77660000D03*
X146250000Y-81400000D03*
X146850000Y-82800000D03*
X164150000Y-78200000D03*
%TO.N,+3.3V*%
X157035947Y-78650000D03*
X132762216Y-78517784D03*
X143098270Y-81257298D03*
X143550000Y-81500000D03*
X124550026Y-76640900D03*
X153850000Y-84100000D03*
X121137500Y-79447498D03*
X122850000Y-81000000D03*
X143565791Y-79713000D03*
X134269417Y-80620000D03*
X144050000Y-79400000D03*
X143550000Y-78900000D03*
X152626167Y-82048200D03*
X129562468Y-83552735D03*
X129250468Y-78728200D03*
X132650002Y-83300000D03*
X127180000Y-81128200D03*
X124150000Y-81900000D03*
X166800000Y-77050000D03*
X144050422Y-81207600D03*
X159570000Y-80470000D03*
X150350000Y-79200000D03*
X142950000Y-79400000D03*
X160650000Y-77590000D03*
X143250000Y-82000000D03*
X146650000Y-84500000D03*
%TO.N,Net-(U2-ADC_AVDD)*%
X131350000Y-76300000D03*
X127935639Y-77172040D03*
D12*
%TO.N,+5V*%
X167950000Y-83800000D03*
D13*
X110850000Y-76800000D03*
D12*
X140625001Y-84150000D03*
D13*
X117550000Y-84700000D03*
D11*
%TO.N,Net-(U4-CHIP_EN)*%
X163310000Y-76600000D03*
X152490000Y-80090000D03*
%TO.N,ESP_STATUS_LED*%
X153647784Y-79537784D03*
X150300000Y-80671800D03*
%TO.N,SWCLK*%
X133820000Y-80250000D03*
%TO.N,SWDIO*%
X133602002Y-79716297D03*
%TO.N,Net-(U2-RUN)*%
X115549972Y-76600000D03*
X120350000Y-78400000D03*
X133749994Y-78836366D03*
X125150000Y-78302777D03*
%TO.N,Net-(U4-U0TXD)*%
X149650000Y-80100000D03*
X159486800Y-82028200D03*
%TO.N,/esp32_wifi_section/IO9*%
X165389786Y-83928200D03*
X152743000Y-83928200D03*
D14*
%TO.N,QSPI_SS*%
X123977442Y-85396800D03*
D11*
X127150000Y-83540900D03*
%TO.N,BUTTON*%
X132070000Y-78410000D03*
X123950000Y-80800010D03*
%TO.N,QSPI_SD3*%
X125204649Y-81976898D03*
X129050000Y-81500000D03*
%TO.N,/UART1_RX*%
X147450000Y-79992400D03*
X131476735Y-82867698D03*
%TO.N,/UART1_TX*%
X159160657Y-82600004D03*
X130780000Y-83040000D03*
%TO.N,MIC_ADC*%
X130649997Y-76864103D03*
X121950000Y-76200000D03*
%TO.N,LED_OUT_1*%
X134050000Y-83100000D03*
%TO.N,LED_OUT_3*%
X133550000Y-85800000D03*
%TO.N,LED_OUT_2*%
X133350000Y-82900000D03*
%TO.N,LED_OUT_4*%
X140257924Y-85816946D03*
%TO.N,/_RPI_USB_P*%
X122958491Y-80108491D03*
X113850000Y-81294850D03*
%TO.N,/_RPI_USB_N*%
X113858207Y-80697490D03*
X122541509Y-79691509D03*
%TD*%
D15*
%TO.N,+3.3V*%
X156699992Y-78985955D02*
X157035947Y-78650000D01*
X156699992Y-79249992D02*
X156699992Y-78985955D01*
D16*
%TO.N,+5V*%
X140625001Y-84150000D02*
X140147101Y-84627900D01*
X124693467Y-84627900D02*
X124412367Y-84346800D01*
X123542517Y-84346800D02*
X123492517Y-84396800D01*
X124412367Y-84346800D02*
X123542517Y-84346800D01*
X123492517Y-84396800D02*
X117853200Y-84396800D01*
X117853200Y-84396800D02*
X117550000Y-84700000D01*
X140147101Y-84627900D02*
X124693467Y-84627900D01*
%TD*%
%TA.AperFunction,Conductor*%
%TO.N,+3.3V*%
G36*
X121526938Y-75847185D02*
G01*
X121572693Y-75899989D01*
X121582637Y-75969147D01*
X121570385Y-76007791D01*
X121540281Y-76066874D01*
X121540279Y-76066878D01*
X121519196Y-76199997D01*
X121519196Y-76200002D01*
X121540279Y-76333121D01*
X121540280Y-76333124D01*
X121540281Y-76333126D01*
X121601472Y-76453220D01*
X121601473Y-76453221D01*
X121601476Y-76453225D01*
X121696774Y-76548523D01*
X121696778Y-76548526D01*
X121696780Y-76548528D01*
X121816874Y-76609719D01*
X121816876Y-76609719D01*
X121816878Y-76609720D01*
X121949998Y-76630804D01*
X121950000Y-76630804D01*
X121950002Y-76630804D01*
X122083121Y-76609720D01*
X122083121Y-76609719D01*
X122083126Y-76609719D01*
X122203220Y-76548528D01*
X122298528Y-76453220D01*
X122359719Y-76333126D01*
X122363082Y-76311893D01*
X122380804Y-76200002D01*
X122380804Y-76199997D01*
X122359720Y-76066878D01*
X122359719Y-76066876D01*
X122359719Y-76066874D01*
X122329615Y-76007792D01*
X122316720Y-75939125D01*
X122342996Y-75874385D01*
X122400103Y-75834128D01*
X122440101Y-75827500D01*
X125717170Y-75827500D01*
X125784209Y-75847185D01*
X125829964Y-75899989D01*
X125839908Y-75969147D01*
X125839643Y-75970898D01*
X125819196Y-76099997D01*
X125819196Y-76100002D01*
X125840279Y-76233121D01*
X125840280Y-76233124D01*
X125840281Y-76233126D01*
X125891234Y-76333126D01*
X125901473Y-76353221D01*
X125901476Y-76353225D01*
X125996774Y-76448523D01*
X125996778Y-76448526D01*
X125996780Y-76448528D01*
X126116874Y-76509719D01*
X126116876Y-76509719D01*
X126116878Y-76509720D01*
X126249998Y-76530804D01*
X126250000Y-76530804D01*
X126250002Y-76530804D01*
X126383121Y-76509720D01*
X126383121Y-76509719D01*
X126383126Y-76509719D01*
X126503220Y-76448528D01*
X126598528Y-76353220D01*
X126659719Y-76233126D01*
X126661915Y-76219263D01*
X126680804Y-76100002D01*
X126680804Y-76099997D01*
X126660357Y-75970898D01*
X126669312Y-75901604D01*
X126714308Y-75848152D01*
X126781060Y-75827513D01*
X126782830Y-75827500D01*
X129317170Y-75827500D01*
X129384209Y-75847185D01*
X129429964Y-75899989D01*
X129439908Y-75969147D01*
X129439643Y-75970898D01*
X129419196Y-76099997D01*
X129419196Y-76100002D01*
X129440279Y-76233121D01*
X129440280Y-76233124D01*
X129440281Y-76233126D01*
X129491234Y-76333126D01*
X129501473Y-76353221D01*
X129501476Y-76353225D01*
X129596774Y-76448523D01*
X129596778Y-76448526D01*
X129596780Y-76448528D01*
X129716874Y-76509719D01*
X129716876Y-76509719D01*
X129716878Y-76509720D01*
X129849998Y-76530804D01*
X129850000Y-76530804D01*
X129850002Y-76530804D01*
X129983121Y-76509720D01*
X129983121Y-76509719D01*
X129983126Y-76509719D01*
X130103220Y-76448528D01*
X130198528Y-76353220D01*
X130259719Y-76233126D01*
X130261915Y-76219263D01*
X130280804Y-76100002D01*
X130280804Y-76099997D01*
X130260357Y-75970898D01*
X130269312Y-75901604D01*
X130314308Y-75848152D01*
X130381060Y-75827513D01*
X130382830Y-75827500D01*
X130921389Y-75827500D01*
X130988428Y-75847185D01*
X131034183Y-75899989D01*
X131044127Y-75969147D01*
X131015102Y-76032703D01*
X131009070Y-76039181D01*
X131001476Y-76046774D01*
X131001473Y-76046778D01*
X130940279Y-76166878D01*
X130926881Y-76251476D01*
X130919196Y-76300000D01*
X130921080Y-76311893D01*
X130912124Y-76381186D01*
X130867127Y-76434638D01*
X130800376Y-76455277D01*
X130779209Y-76453763D01*
X130650000Y-76433299D01*
X130649995Y-76433299D01*
X130516875Y-76454382D01*
X130396775Y-76515576D01*
X130396771Y-76515579D01*
X130301473Y-76610877D01*
X130301470Y-76610881D01*
X130240276Y-76730981D01*
X130219193Y-76864100D01*
X130219193Y-76864105D01*
X130240276Y-76997224D01*
X130240277Y-76997227D01*
X130240278Y-76997229D01*
X130261518Y-77038914D01*
X130301470Y-77117324D01*
X130301473Y-77117328D01*
X130396771Y-77212626D01*
X130396775Y-77212629D01*
X130396777Y-77212631D01*
X130516871Y-77273822D01*
X130516873Y-77273822D01*
X130516875Y-77273823D01*
X130649995Y-77294907D01*
X130649997Y-77294907D01*
X130649999Y-77294907D01*
X130783118Y-77273823D01*
X130783118Y-77273822D01*
X130783123Y-77273822D01*
X130903217Y-77212631D01*
X130998525Y-77117323D01*
X131059716Y-76997229D01*
X131080801Y-76864103D01*
X131078917Y-76852210D01*
X131087870Y-76782920D01*
X131132865Y-76729467D01*
X131199616Y-76708825D01*
X131220788Y-76710339D01*
X131349998Y-76730804D01*
X131350000Y-76730804D01*
X131350002Y-76730804D01*
X131483121Y-76709720D01*
X131483121Y-76709719D01*
X131483126Y-76709719D01*
X131603220Y-76648528D01*
X131698528Y-76553220D01*
X131759719Y-76433126D01*
X131759720Y-76433121D01*
X131780804Y-76300002D01*
X131780804Y-76299997D01*
X131759720Y-76166878D01*
X131759719Y-76166876D01*
X131759719Y-76166874D01*
X131698528Y-76046780D01*
X131698526Y-76046778D01*
X131698523Y-76046774D01*
X131690930Y-76039181D01*
X131657445Y-75977858D01*
X131662429Y-75908166D01*
X131704301Y-75852233D01*
X131769765Y-75827816D01*
X131778611Y-75827500D01*
X147026000Y-75827500D01*
X147093039Y-75847185D01*
X147138794Y-75899989D01*
X147150000Y-75951500D01*
X147150000Y-78950000D01*
X153347634Y-78950000D01*
X153414673Y-78969685D01*
X153460428Y-79022489D01*
X153470372Y-79091647D01*
X153441347Y-79155203D01*
X153403931Y-79184482D01*
X153394806Y-79189132D01*
X153394562Y-79189257D01*
X153394558Y-79189260D01*
X153299260Y-79284558D01*
X153299257Y-79284562D01*
X153238063Y-79404662D01*
X153216980Y-79537781D01*
X153216980Y-79537786D01*
X153238063Y-79670905D01*
X153238064Y-79670908D01*
X153238065Y-79670910D01*
X153294147Y-79780977D01*
X153299257Y-79791005D01*
X153299260Y-79791009D01*
X153394558Y-79886307D01*
X153394562Y-79886310D01*
X153394564Y-79886312D01*
X153514658Y-79947503D01*
X153514660Y-79947503D01*
X153514662Y-79947504D01*
X153647782Y-79968588D01*
X153647784Y-79968588D01*
X153647786Y-79968588D01*
X153780905Y-79947504D01*
X153780905Y-79947503D01*
X153780910Y-79947503D01*
X153874136Y-79900002D01*
X163019196Y-79900002D01*
X163040279Y-80033121D01*
X163040280Y-80033124D01*
X163040281Y-80033126D01*
X163101472Y-80153220D01*
X163101473Y-80153221D01*
X163101476Y-80153225D01*
X163196774Y-80248523D01*
X163196778Y-80248526D01*
X163196780Y-80248528D01*
X163316874Y-80309719D01*
X163316876Y-80309719D01*
X163316878Y-80309720D01*
X163449998Y-80330804D01*
X163450000Y-80330804D01*
X163450002Y-80330804D01*
X163583121Y-80309720D01*
X163583121Y-80309719D01*
X163583126Y-80309719D01*
X163703220Y-80248528D01*
X163798528Y-80153220D01*
X163859719Y-80033126D01*
X163859720Y-80033121D01*
X163880804Y-79900002D01*
X163880804Y-79899997D01*
X163859720Y-79766878D01*
X163859719Y-79766876D01*
X163859719Y-79766874D01*
X163798528Y-79646780D01*
X163798526Y-79646778D01*
X163798523Y-79646774D01*
X163703225Y-79551476D01*
X163703221Y-79551473D01*
X163703220Y-79551472D01*
X163583126Y-79490281D01*
X163583124Y-79490280D01*
X163583121Y-79490279D01*
X163450002Y-79469196D01*
X163449998Y-79469196D01*
X163316878Y-79490279D01*
X163196778Y-79551473D01*
X163196774Y-79551476D01*
X163101476Y-79646774D01*
X163101473Y-79646778D01*
X163040279Y-79766878D01*
X163019196Y-79899997D01*
X163019196Y-79900002D01*
X153874136Y-79900002D01*
X153901004Y-79886312D01*
X153996312Y-79791004D01*
X154057503Y-79670910D01*
X154057772Y-79669213D01*
X154078588Y-79537786D01*
X154078588Y-79537781D01*
X154057504Y-79404662D01*
X154057503Y-79404660D01*
X154057503Y-79404658D01*
X153996312Y-79284564D01*
X153996310Y-79284562D01*
X153996307Y-79284558D01*
X153901009Y-79189260D01*
X153901005Y-79189257D01*
X153901004Y-79189256D01*
X153891637Y-79184483D01*
X153840843Y-79136511D01*
X153824048Y-79068690D01*
X153846585Y-79002555D01*
X153901300Y-78959103D01*
X153947934Y-78950000D01*
X158097768Y-78950000D01*
X158164807Y-78969685D01*
X158210562Y-79022489D01*
X158220506Y-79091647D01*
X158220242Y-79093396D01*
X158219196Y-79100001D01*
X158219196Y-79100002D01*
X158240279Y-79233121D01*
X158240280Y-79233124D01*
X158240281Y-79233126D01*
X158296257Y-79342985D01*
X158301473Y-79353221D01*
X158301476Y-79353225D01*
X158396774Y-79448523D01*
X158396778Y-79448526D01*
X158396780Y-79448528D01*
X158516874Y-79509719D01*
X158516876Y-79509719D01*
X158516878Y-79509720D01*
X158649998Y-79530804D01*
X158650000Y-79530804D01*
X158650002Y-79530804D01*
X158783121Y-79509720D01*
X158783121Y-79509719D01*
X158783126Y-79509719D01*
X158903220Y-79448528D01*
X158998528Y-79353220D01*
X159059719Y-79233126D01*
X159063612Y-79208549D01*
X159066945Y-79187502D01*
X167300695Y-79187502D01*
X167321778Y-79320621D01*
X167321779Y-79320624D01*
X167321780Y-79320626D01*
X167382971Y-79440720D01*
X167382972Y-79440721D01*
X167382975Y-79440725D01*
X167478273Y-79536023D01*
X167478277Y-79536026D01*
X167478279Y-79536028D01*
X167598373Y-79597219D01*
X167598375Y-79597219D01*
X167598377Y-79597220D01*
X167664936Y-79607761D01*
X167731499Y-79618304D01*
X167750683Y-79615265D01*
X167819973Y-79624218D01*
X167873426Y-79669213D01*
X167880563Y-79681437D01*
X167881472Y-79683221D01*
X167976774Y-79778523D01*
X167976778Y-79778526D01*
X167976780Y-79778528D01*
X168096874Y-79839719D01*
X168096876Y-79839719D01*
X168096878Y-79839720D01*
X168229998Y-79860804D01*
X168230000Y-79860804D01*
X168230002Y-79860804D01*
X168363121Y-79839720D01*
X168363121Y-79839719D01*
X168363126Y-79839719D01*
X168483220Y-79778528D01*
X168483222Y-79778525D01*
X168491425Y-79774346D01*
X168560094Y-79761450D01*
X168624834Y-79787726D01*
X168635401Y-79797150D01*
X168726774Y-79888523D01*
X168726778Y-79888526D01*
X168726780Y-79888528D01*
X168846874Y-79949719D01*
X168846876Y-79949719D01*
X168846878Y-79949720D01*
X168979998Y-79970804D01*
X168980000Y-79970804D01*
X168980002Y-79970804D01*
X169113121Y-79949720D01*
X169113121Y-79949719D01*
X169113126Y-79949719D01*
X169233220Y-79888528D01*
X169328528Y-79793220D01*
X169389719Y-79673126D01*
X169390339Y-79669213D01*
X169410804Y-79540002D01*
X169410804Y-79539997D01*
X169389720Y-79406878D01*
X169389719Y-79406876D01*
X169389719Y-79406874D01*
X169328528Y-79286780D01*
X169328526Y-79286778D01*
X169328523Y-79286774D01*
X169233225Y-79191476D01*
X169233221Y-79191473D01*
X169233220Y-79191472D01*
X169113126Y-79130281D01*
X169113124Y-79130280D01*
X169113121Y-79130279D01*
X168980002Y-79109196D01*
X168979998Y-79109196D01*
X168846876Y-79130279D01*
X168718573Y-79195653D01*
X168649904Y-79208549D01*
X168585164Y-79182272D01*
X168574598Y-79172849D01*
X168483225Y-79081476D01*
X168483221Y-79081473D01*
X168483220Y-79081472D01*
X168363126Y-79020281D01*
X168363124Y-79020280D01*
X168363121Y-79020279D01*
X168230002Y-78999196D01*
X168230001Y-78999196D01*
X168230000Y-78999196D01*
X168210811Y-79002235D01*
X168141518Y-78993278D01*
X168088067Y-78948281D01*
X168080937Y-78936066D01*
X168080027Y-78934280D01*
X168080025Y-78934278D01*
X168080022Y-78934274D01*
X167984724Y-78838976D01*
X167984720Y-78838973D01*
X167984719Y-78838972D01*
X167864625Y-78777781D01*
X167864623Y-78777780D01*
X167864620Y-78777779D01*
X167731501Y-78756696D01*
X167731497Y-78756696D01*
X167598377Y-78777779D01*
X167478277Y-78838973D01*
X167478273Y-78838976D01*
X167382975Y-78934274D01*
X167382972Y-78934278D01*
X167321778Y-79054378D01*
X167300695Y-79187497D01*
X167300695Y-79187502D01*
X159066945Y-79187502D01*
X159080804Y-79100002D01*
X159080804Y-79100001D01*
X159079758Y-79093396D01*
X159088715Y-79024102D01*
X159133712Y-78970651D01*
X159200464Y-78950013D01*
X159202232Y-78950000D01*
X160250000Y-78950000D01*
X160250000Y-78680002D01*
X161719196Y-78680002D01*
X161740279Y-78813121D01*
X161740280Y-78813124D01*
X161740281Y-78813126D01*
X161801472Y-78933220D01*
X161801473Y-78933221D01*
X161801476Y-78933225D01*
X161896774Y-79028523D01*
X161896778Y-79028526D01*
X161896780Y-79028528D01*
X162016874Y-79089719D01*
X162016876Y-79089719D01*
X162016878Y-79089720D01*
X162149998Y-79110804D01*
X162150000Y-79110804D01*
X162150002Y-79110804D01*
X162283121Y-79089720D01*
X162283121Y-79089719D01*
X162283126Y-79089719D01*
X162403220Y-79028528D01*
X162498528Y-78933220D01*
X162559719Y-78813126D01*
X162559720Y-78813121D01*
X162580804Y-78680002D01*
X162580804Y-78679997D01*
X162559720Y-78546878D01*
X162559719Y-78546876D01*
X162559719Y-78546874D01*
X162498528Y-78426780D01*
X162498526Y-78426778D01*
X162498523Y-78426774D01*
X162403225Y-78331476D01*
X162403221Y-78331473D01*
X162403220Y-78331472D01*
X162283126Y-78270281D01*
X162283124Y-78270280D01*
X162283121Y-78270279D01*
X162150002Y-78249196D01*
X162149998Y-78249196D01*
X162016878Y-78270279D01*
X161896778Y-78331473D01*
X161896774Y-78331476D01*
X161801476Y-78426774D01*
X161801473Y-78426778D01*
X161740279Y-78546878D01*
X161719196Y-78679997D01*
X161719196Y-78680002D01*
X160250000Y-78680002D01*
X160250000Y-78200002D01*
X163719196Y-78200002D01*
X163740279Y-78333121D01*
X163740280Y-78333124D01*
X163740281Y-78333126D01*
X163792646Y-78435898D01*
X163801473Y-78453221D01*
X163801476Y-78453225D01*
X163896774Y-78548523D01*
X163896778Y-78548526D01*
X163896780Y-78548528D01*
X164016874Y-78609719D01*
X164016876Y-78609719D01*
X164016878Y-78609720D01*
X164149998Y-78630804D01*
X164150000Y-78630804D01*
X164150002Y-78630804D01*
X164283121Y-78609720D01*
X164283121Y-78609719D01*
X164283126Y-78609719D01*
X164403220Y-78548528D01*
X164498528Y-78453220D01*
X164559719Y-78333126D01*
X164559720Y-78333121D01*
X164580804Y-78200002D01*
X164580804Y-78199997D01*
X164559720Y-78066878D01*
X164559719Y-78066876D01*
X164559719Y-78066874D01*
X164498528Y-77946780D01*
X164498526Y-77946778D01*
X164498523Y-77946774D01*
X164403225Y-77851476D01*
X164403221Y-77851473D01*
X164403220Y-77851472D01*
X164283126Y-77790281D01*
X164283124Y-77790280D01*
X164283121Y-77790279D01*
X164150002Y-77769196D01*
X164149998Y-77769196D01*
X164016878Y-77790279D01*
X163896778Y-77851473D01*
X163896774Y-77851476D01*
X163801476Y-77946774D01*
X163801473Y-77946778D01*
X163801472Y-77946780D01*
X163749106Y-78049555D01*
X163740279Y-78066878D01*
X163719196Y-78199997D01*
X163719196Y-78200002D01*
X160250000Y-78200002D01*
X160250000Y-77589990D01*
X162189196Y-77589990D01*
X162210279Y-77723109D01*
X162210280Y-77723112D01*
X162210281Y-77723114D01*
X162256682Y-77814181D01*
X162271473Y-77843209D01*
X162271476Y-77843213D01*
X162366774Y-77938511D01*
X162366778Y-77938514D01*
X162366780Y-77938516D01*
X162486874Y-77999707D01*
X162486876Y-77999707D01*
X162486878Y-77999708D01*
X162619998Y-78020792D01*
X162620000Y-78020792D01*
X162620002Y-78020792D01*
X162753121Y-77999708D01*
X162753121Y-77999707D01*
X162753126Y-77999707D01*
X162873220Y-77938516D01*
X162968528Y-77843208D01*
X163029719Y-77723114D01*
X163031166Y-77713977D01*
X163050804Y-77589990D01*
X163050804Y-77589985D01*
X163029720Y-77456866D01*
X163029719Y-77456864D01*
X163029719Y-77456862D01*
X162968528Y-77336768D01*
X162968526Y-77336766D01*
X162968523Y-77336762D01*
X162873225Y-77241464D01*
X162873221Y-77241461D01*
X162873220Y-77241460D01*
X162753126Y-77180269D01*
X162753124Y-77180268D01*
X162753121Y-77180267D01*
X162620002Y-77159184D01*
X162619998Y-77159184D01*
X162486878Y-77180267D01*
X162366778Y-77241461D01*
X162366774Y-77241464D01*
X162271476Y-77336762D01*
X162271473Y-77336766D01*
X162271472Y-77336768D01*
X162226381Y-77425265D01*
X162210279Y-77456866D01*
X162189196Y-77589985D01*
X162189196Y-77589990D01*
X160250000Y-77589990D01*
X160250000Y-76600002D01*
X161019196Y-76600002D01*
X161040279Y-76733121D01*
X161040280Y-76733124D01*
X161040281Y-76733126D01*
X161101472Y-76853220D01*
X161101473Y-76853221D01*
X161101476Y-76853225D01*
X161196774Y-76948523D01*
X161196778Y-76948526D01*
X161196780Y-76948528D01*
X161316874Y-77009719D01*
X161316876Y-77009719D01*
X161316878Y-77009720D01*
X161449998Y-77030804D01*
X161450000Y-77030804D01*
X161450002Y-77030804D01*
X161583121Y-77009720D01*
X161583121Y-77009719D01*
X161583126Y-77009719D01*
X161703220Y-76948528D01*
X161798528Y-76853220D01*
X161859719Y-76733126D01*
X161860059Y-76730981D01*
X161880804Y-76600002D01*
X162879196Y-76600002D01*
X162900279Y-76733121D01*
X162900280Y-76733124D01*
X162900281Y-76733126D01*
X162961472Y-76853220D01*
X162961473Y-76853221D01*
X162961476Y-76853225D01*
X163056774Y-76948523D01*
X163056778Y-76948526D01*
X163056780Y-76948528D01*
X163176874Y-77009719D01*
X163176876Y-77009719D01*
X163176878Y-77009720D01*
X163309998Y-77030804D01*
X163310000Y-77030804D01*
X163310002Y-77030804D01*
X163443121Y-77009720D01*
X163443121Y-77009719D01*
X163443126Y-77009719D01*
X163563220Y-76948528D01*
X163658528Y-76853220D01*
X163719719Y-76733126D01*
X163720059Y-76730981D01*
X163740804Y-76600002D01*
X163740804Y-76599997D01*
X163719720Y-76466878D01*
X163719719Y-76466876D01*
X163719719Y-76466874D01*
X163658528Y-76346780D01*
X163658526Y-76346778D01*
X163658523Y-76346774D01*
X163563225Y-76251476D01*
X163563221Y-76251473D01*
X163563220Y-76251472D01*
X163443126Y-76190281D01*
X163443124Y-76190280D01*
X163443121Y-76190279D01*
X163310002Y-76169196D01*
X163309998Y-76169196D01*
X163176878Y-76190279D01*
X163176874Y-76190280D01*
X163176874Y-76190281D01*
X163119994Y-76219263D01*
X163056778Y-76251473D01*
X163056774Y-76251476D01*
X162961476Y-76346774D01*
X162961473Y-76346778D01*
X162961472Y-76346780D01*
X162917477Y-76433126D01*
X162900279Y-76466878D01*
X162879196Y-76599997D01*
X162879196Y-76600002D01*
X161880804Y-76600002D01*
X161880804Y-76599997D01*
X161859720Y-76466878D01*
X161859719Y-76466876D01*
X161859719Y-76466874D01*
X161798528Y-76346780D01*
X161798526Y-76346778D01*
X161798523Y-76346774D01*
X161703225Y-76251476D01*
X161703221Y-76251473D01*
X161703220Y-76251472D01*
X161583126Y-76190281D01*
X161583124Y-76190280D01*
X161583121Y-76190279D01*
X161450002Y-76169196D01*
X161449998Y-76169196D01*
X161316878Y-76190279D01*
X161316874Y-76190280D01*
X161316874Y-76190281D01*
X161259994Y-76219263D01*
X161196778Y-76251473D01*
X161196774Y-76251476D01*
X161101476Y-76346774D01*
X161101473Y-76346778D01*
X161101472Y-76346780D01*
X161057477Y-76433126D01*
X161040279Y-76466878D01*
X161019196Y-76599997D01*
X161019196Y-76600002D01*
X160250000Y-76600002D01*
X160250000Y-75951500D01*
X160269685Y-75884461D01*
X160322489Y-75838706D01*
X160374000Y-75827500D01*
X173698500Y-75827500D01*
X173765539Y-75847185D01*
X173811294Y-75899989D01*
X173822500Y-75951500D01*
X173822500Y-85948500D01*
X173802815Y-86015539D01*
X173750011Y-86061294D01*
X173698500Y-86072500D01*
X166671264Y-86072500D01*
X166604225Y-86052815D01*
X166558470Y-86000011D01*
X166548526Y-85930853D01*
X166577551Y-85867297D01*
X166602481Y-85845326D01*
X166645051Y-85816946D01*
X166853776Y-85677796D01*
X166870071Y-85665730D01*
X166888969Y-85650237D01*
X166903994Y-85636627D01*
X167191940Y-85348680D01*
X167197403Y-85343003D01*
X167203870Y-85336020D01*
X167209123Y-85330125D01*
X167707401Y-84748802D01*
X167765976Y-84710712D01*
X167801549Y-84705500D01*
X167837721Y-84705500D01*
X167837722Y-84705500D01*
X167837727Y-84705499D01*
X167837745Y-84705499D01*
X167857954Y-84704501D01*
X167857955Y-84704500D01*
X167857973Y-84704500D01*
X167882290Y-84702092D01*
X167896301Y-84700002D01*
X170069196Y-84700002D01*
X170090279Y-84833121D01*
X170090280Y-84833124D01*
X170090281Y-84833126D01*
X170150214Y-84950751D01*
X170151473Y-84953221D01*
X170151476Y-84953225D01*
X170246774Y-85048523D01*
X170246778Y-85048526D01*
X170246780Y-85048528D01*
X170366874Y-85109719D01*
X170366876Y-85109719D01*
X170366878Y-85109720D01*
X170499998Y-85130804D01*
X170500000Y-85130804D01*
X170500002Y-85130804D01*
X170633121Y-85109720D01*
X170633121Y-85109719D01*
X170633126Y-85109719D01*
X170753220Y-85048528D01*
X170848528Y-84953220D01*
X170909719Y-84833126D01*
X170909720Y-84833121D01*
X170930804Y-84700002D01*
X170930804Y-84699997D01*
X170909720Y-84566878D01*
X170909719Y-84566876D01*
X170909719Y-84566874D01*
X170848528Y-84446780D01*
X170848526Y-84446778D01*
X170848523Y-84446774D01*
X170753225Y-84351476D01*
X170753221Y-84351473D01*
X170753220Y-84351472D01*
X170633126Y-84290281D01*
X170633124Y-84290280D01*
X170633121Y-84290279D01*
X170500002Y-84269196D01*
X170499998Y-84269196D01*
X170366878Y-84290279D01*
X170246778Y-84351473D01*
X170246774Y-84351476D01*
X170151476Y-84446774D01*
X170151473Y-84446778D01*
X170151472Y-84446780D01*
X170110740Y-84526722D01*
X170090279Y-84566878D01*
X170069196Y-84699997D01*
X170069196Y-84700002D01*
X167896301Y-84700002D01*
X167902341Y-84699101D01*
X168343846Y-84610800D01*
X168359691Y-84606972D01*
X168378601Y-84601601D01*
X168445458Y-84568542D01*
X168501429Y-84526721D01*
X168542825Y-84485399D01*
X168789600Y-84156366D01*
X168793957Y-84150332D01*
X168794191Y-84149996D01*
X168794626Y-84149368D01*
X168799072Y-84142971D01*
X168827490Y-84083603D01*
X168847175Y-84016564D01*
X168855500Y-83958666D01*
X168855500Y-83551362D01*
X168854322Y-83529393D01*
X168851488Y-83503035D01*
X168827529Y-83426518D01*
X168794044Y-83365195D01*
X168785080Y-83353221D01*
X168759001Y-83318384D01*
X168758998Y-83318381D01*
X168758991Y-83318371D01*
X168524537Y-83083917D01*
X168519204Y-83078771D01*
X168512632Y-83072658D01*
X168512626Y-83072654D01*
X168457867Y-83036118D01*
X168445396Y-83030436D01*
X168394284Y-83007149D01*
X168338147Y-82990719D01*
X167729913Y-82903828D01*
X167724188Y-82903321D01*
X167707980Y-82901886D01*
X167706361Y-82901829D01*
X167681494Y-82900964D01*
X167681490Y-82900965D01*
X167602361Y-82913862D01*
X167536927Y-82938334D01*
X167536925Y-82938335D01*
X167485613Y-82966414D01*
X167485612Y-82966414D01*
X167176304Y-83198396D01*
X167149123Y-83222845D01*
X167119283Y-83254925D01*
X167117156Y-83257246D01*
X167072511Y-83337059D01*
X167072509Y-83337064D01*
X167052826Y-83404096D01*
X167052825Y-83404101D01*
X167052825Y-83404102D01*
X167046438Y-83448526D01*
X167044500Y-83462003D01*
X167044500Y-83963518D01*
X167024815Y-84030557D01*
X167008181Y-84051199D01*
X166201199Y-84858181D01*
X166139876Y-84891666D01*
X166113518Y-84894500D01*
X159028891Y-84894500D01*
X158961852Y-84874815D01*
X158916097Y-84822011D01*
X158906153Y-84752853D01*
X158918404Y-84714210D01*
X158959719Y-84633126D01*
X158959720Y-84633121D01*
X158980804Y-84500002D01*
X158980804Y-84499997D01*
X158959720Y-84366878D01*
X158959719Y-84366876D01*
X158959719Y-84366874D01*
X158898528Y-84246780D01*
X158898526Y-84246778D01*
X158898523Y-84246774D01*
X158803225Y-84151476D01*
X158803221Y-84151473D01*
X158803220Y-84151472D01*
X158683126Y-84090281D01*
X158683124Y-84090280D01*
X158683121Y-84090279D01*
X158550002Y-84069196D01*
X158549998Y-84069196D01*
X158416878Y-84090279D01*
X158296778Y-84151473D01*
X158296774Y-84151476D01*
X158201476Y-84246774D01*
X158201473Y-84246778D01*
X158140279Y-84366878D01*
X158119196Y-84499997D01*
X158119196Y-84500002D01*
X158140279Y-84633121D01*
X158140280Y-84633124D01*
X158140281Y-84633126D01*
X158181594Y-84714208D01*
X158194490Y-84782874D01*
X158168214Y-84847615D01*
X158111108Y-84887872D01*
X158071109Y-84894500D01*
X155550420Y-84894500D01*
X155549529Y-84894502D01*
X155548415Y-84894508D01*
X155547438Y-84894514D01*
X153721125Y-84912074D01*
X153653900Y-84893035D01*
X153607639Y-84840674D01*
X153597031Y-84771614D01*
X153609447Y-84731790D01*
X153659719Y-84633126D01*
X153660835Y-84626083D01*
X153680804Y-84500002D01*
X153680804Y-84499997D01*
X153659720Y-84366878D01*
X153659719Y-84366876D01*
X153659719Y-84366874D01*
X153598528Y-84246780D01*
X153598526Y-84246778D01*
X153598523Y-84246774D01*
X153503225Y-84151476D01*
X153503221Y-84151473D01*
X153503220Y-84151472D01*
X153383126Y-84090281D01*
X153383124Y-84090280D01*
X153383121Y-84090279D01*
X153276357Y-84073370D01*
X153213222Y-84043441D01*
X153176290Y-83984130D01*
X153173282Y-83931494D01*
X153173804Y-83928202D01*
X164958982Y-83928202D01*
X164980065Y-84061321D01*
X164980066Y-84061324D01*
X164980067Y-84061326D01*
X165035030Y-84169196D01*
X165041259Y-84181421D01*
X165041262Y-84181425D01*
X165136560Y-84276723D01*
X165136564Y-84276726D01*
X165136566Y-84276728D01*
X165256660Y-84337919D01*
X165256662Y-84337919D01*
X165256664Y-84337920D01*
X165389784Y-84359004D01*
X165389786Y-84359004D01*
X165389788Y-84359004D01*
X165522907Y-84337920D01*
X165522907Y-84337919D01*
X165522912Y-84337919D01*
X165643006Y-84276728D01*
X165738314Y-84181420D01*
X165799505Y-84061326D01*
X165802338Y-84043441D01*
X165820590Y-83928202D01*
X165820590Y-83928197D01*
X165799506Y-83795078D01*
X165799505Y-83795076D01*
X165799505Y-83795074D01*
X165738314Y-83674980D01*
X165738312Y-83674978D01*
X165738309Y-83674974D01*
X165643011Y-83579676D01*
X165643007Y-83579673D01*
X165643006Y-83579672D01*
X165522912Y-83518481D01*
X165522910Y-83518480D01*
X165522907Y-83518479D01*
X165389788Y-83497396D01*
X165389784Y-83497396D01*
X165256664Y-83518479D01*
X165136564Y-83579673D01*
X165136560Y-83579676D01*
X165041262Y-83674974D01*
X165041259Y-83674978D01*
X164980065Y-83795078D01*
X164958982Y-83928197D01*
X164958982Y-83928202D01*
X153173804Y-83928202D01*
X153173804Y-83928200D01*
X153165758Y-83877400D01*
X153152720Y-83795078D01*
X153152719Y-83795076D01*
X153152719Y-83795074D01*
X153091528Y-83674980D01*
X153091526Y-83674978D01*
X153091523Y-83674974D01*
X152996225Y-83579676D01*
X152996221Y-83579673D01*
X152996220Y-83579672D01*
X152876126Y-83518481D01*
X152876124Y-83518480D01*
X152876121Y-83518479D01*
X152743002Y-83497396D01*
X152742998Y-83497396D01*
X152609878Y-83518479D01*
X152489778Y-83579673D01*
X152489774Y-83579676D01*
X152394476Y-83674974D01*
X152394473Y-83674978D01*
X152333279Y-83795078D01*
X152312196Y-83928197D01*
X152312196Y-83928202D01*
X152333279Y-84061321D01*
X152333280Y-84061324D01*
X152333281Y-84061326D01*
X152388244Y-84169196D01*
X152394473Y-84181421D01*
X152394476Y-84181425D01*
X152489774Y-84276723D01*
X152489778Y-84276726D01*
X152489780Y-84276728D01*
X152609874Y-84337919D01*
X152716646Y-84354829D01*
X152779777Y-84384757D01*
X152816709Y-84444068D01*
X152819719Y-84496697D01*
X152819196Y-84499999D01*
X152819196Y-84500002D01*
X152840279Y-84633123D01*
X152895133Y-84740780D01*
X152908029Y-84809449D01*
X152881752Y-84874189D01*
X152824646Y-84914446D01*
X152785840Y-84921068D01*
X149953619Y-84948301D01*
X149886394Y-84929262D01*
X149840133Y-84876901D01*
X149829525Y-84807841D01*
X149841940Y-84768018D01*
X149859719Y-84733126D01*
X149864634Y-84702093D01*
X149880804Y-84600002D01*
X149880804Y-84599997D01*
X149859720Y-84466878D01*
X149859719Y-84466876D01*
X149859719Y-84466874D01*
X149798528Y-84346780D01*
X149798526Y-84346778D01*
X149798523Y-84346774D01*
X149703225Y-84251476D01*
X149703221Y-84251473D01*
X149703220Y-84251472D01*
X149583126Y-84190281D01*
X149583124Y-84190280D01*
X149583121Y-84190279D01*
X149450002Y-84169196D01*
X149449998Y-84169196D01*
X149316878Y-84190279D01*
X149196778Y-84251473D01*
X149196774Y-84251476D01*
X149101476Y-84346774D01*
X149101473Y-84346778D01*
X149040279Y-84466878D01*
X149019196Y-84599997D01*
X149019196Y-84600002D01*
X149040279Y-84733123D01*
X149062956Y-84777628D01*
X149075852Y-84846297D01*
X149049575Y-84911037D01*
X148992469Y-84951294D01*
X148953663Y-84957916D01*
X145149612Y-84994494D01*
X145148420Y-84994500D01*
X141741266Y-84994500D01*
X141677469Y-84976829D01*
X141338004Y-84773150D01*
X141290889Y-84722267D01*
X141286596Y-84713680D01*
X141274228Y-84644914D01*
X141292517Y-84592264D01*
X141350788Y-84499526D01*
X141350788Y-84499524D01*
X141350790Y-84499522D01*
X141410369Y-84329255D01*
X141410370Y-84329249D01*
X141430566Y-84150003D01*
X141430566Y-84149996D01*
X141410370Y-83970750D01*
X141410369Y-83970745D01*
X141396634Y-83931492D01*
X141350790Y-83800478D01*
X141347394Y-83795074D01*
X141271933Y-83674978D01*
X141254817Y-83647738D01*
X141127263Y-83520184D01*
X141090996Y-83497396D01*
X140974524Y-83424211D01*
X140804255Y-83364631D01*
X140804250Y-83364630D01*
X140625005Y-83344435D01*
X140624997Y-83344435D01*
X140445751Y-83364630D01*
X140445746Y-83364631D01*
X140275477Y-83424211D01*
X140122738Y-83520184D01*
X139995187Y-83647735D01*
X139995182Y-83647741D01*
X139974792Y-83680190D01*
X139957482Y-83701895D01*
X139818296Y-83841082D01*
X139756976Y-83874566D01*
X139730617Y-83877400D01*
X127658444Y-83877400D01*
X127591405Y-83857715D01*
X127545650Y-83804911D01*
X127535706Y-83735753D01*
X127547959Y-83697106D01*
X127559150Y-83675142D01*
X127559719Y-83674026D01*
X127559719Y-83674024D01*
X127559720Y-83674023D01*
X127580804Y-83540902D01*
X127580804Y-83540897D01*
X127559720Y-83407778D01*
X127559719Y-83407776D01*
X127559719Y-83407774D01*
X127498528Y-83287680D01*
X127498526Y-83287678D01*
X127498523Y-83287674D01*
X127403225Y-83192376D01*
X127403221Y-83192373D01*
X127403220Y-83192372D01*
X127283126Y-83131181D01*
X127283124Y-83131180D01*
X127283121Y-83131179D01*
X127150002Y-83110096D01*
X127149998Y-83110096D01*
X127016878Y-83131179D01*
X126896778Y-83192373D01*
X126896774Y-83192376D01*
X126801476Y-83287674D01*
X126801473Y-83287678D01*
X126740279Y-83407778D01*
X126719196Y-83540897D01*
X126719196Y-83540902D01*
X126740279Y-83674023D01*
X126752041Y-83697106D01*
X126764937Y-83765775D01*
X126738660Y-83830515D01*
X126681554Y-83870772D01*
X126641556Y-83877400D01*
X125682467Y-83877400D01*
X125615428Y-83857715D01*
X125569673Y-83804911D01*
X125559729Y-83735753D01*
X125559994Y-83734002D01*
X125581161Y-83600359D01*
X125581161Y-83600354D01*
X125560077Y-83467235D01*
X125560076Y-83467233D01*
X125560076Y-83467231D01*
X125498885Y-83347137D01*
X125498883Y-83347135D01*
X125498880Y-83347131D01*
X125403582Y-83251833D01*
X125403578Y-83251830D01*
X125403577Y-83251829D01*
X125283483Y-83190638D01*
X125283481Y-83190637D01*
X125283478Y-83190636D01*
X125150359Y-83169553D01*
X125150355Y-83169553D01*
X125017235Y-83190636D01*
X125017231Y-83190637D01*
X125017231Y-83190638D01*
X124970541Y-83214428D01*
X124897135Y-83251830D01*
X124897131Y-83251833D01*
X124801833Y-83347131D01*
X124801830Y-83347135D01*
X124740636Y-83467235D01*
X124733225Y-83514028D01*
X124703295Y-83577163D01*
X124643983Y-83614093D01*
X124586560Y-83616246D01*
X124486287Y-83596300D01*
X124486285Y-83596300D01*
X123468599Y-83596300D01*
X123457479Y-83598512D01*
X123457478Y-83598512D01*
X123323612Y-83625139D01*
X123323604Y-83625141D01*
X123295311Y-83636861D01*
X123247858Y-83646300D01*
X117779276Y-83646300D01*
X117750442Y-83652034D01*
X117750443Y-83652035D01*
X117634293Y-83675139D01*
X117634283Y-83675142D01*
X117554281Y-83708279D01*
X117554282Y-83708280D01*
X117497705Y-83731715D01*
X117415572Y-83786595D01*
X117374785Y-83813847D01*
X117374781Y-83813850D01*
X116967052Y-84221578D01*
X116967052Y-84221579D01*
X116967049Y-84221582D01*
X116967048Y-84221584D01*
X116930206Y-84276723D01*
X116884918Y-84344502D01*
X116884914Y-84344509D01*
X116828342Y-84481087D01*
X116828340Y-84481093D01*
X116799500Y-84626080D01*
X116799500Y-84626083D01*
X116799500Y-84773917D01*
X116799500Y-84773919D01*
X116799499Y-84773919D01*
X116828340Y-84918906D01*
X116828342Y-84918912D01*
X116882030Y-85048528D01*
X116884916Y-85055494D01*
X116967048Y-85178416D01*
X116967052Y-85178420D01*
X116967052Y-85178421D01*
X117071578Y-85282947D01*
X117071581Y-85282949D01*
X117071584Y-85282952D01*
X117194506Y-85365084D01*
X117331088Y-85421658D01*
X117331092Y-85421658D01*
X117331093Y-85421659D01*
X117476080Y-85450500D01*
X117476083Y-85450500D01*
X117623919Y-85450500D01*
X117750683Y-85425284D01*
X117768912Y-85421658D01*
X117905494Y-85365084D01*
X118028416Y-85282952D01*
X118127750Y-85183617D01*
X118189071Y-85150134D01*
X118215430Y-85147300D01*
X123364564Y-85147300D01*
X123431603Y-85166985D01*
X123477358Y-85219789D01*
X123487301Y-85288946D01*
X123474395Y-85378716D01*
X123471795Y-85396800D01*
X123492276Y-85539256D01*
X123550558Y-85666874D01*
X123552065Y-85670173D01*
X123646314Y-85778943D01*
X123747832Y-85844185D01*
X123793587Y-85896988D01*
X123803531Y-85966147D01*
X123774506Y-86029702D01*
X123715728Y-86067477D01*
X123680793Y-86072500D01*
X106501500Y-86072500D01*
X106434461Y-86052815D01*
X106388706Y-86000011D01*
X106377500Y-85948500D01*
X106377500Y-85350002D01*
X114859206Y-85350002D01*
X114880289Y-85483121D01*
X114880290Y-85483124D01*
X114880291Y-85483126D01*
X114937179Y-85594774D01*
X114941483Y-85603221D01*
X114941486Y-85603225D01*
X115036784Y-85698523D01*
X115036788Y-85698526D01*
X115036790Y-85698528D01*
X115156884Y-85759719D01*
X115156886Y-85759719D01*
X115156888Y-85759720D01*
X115290008Y-85780804D01*
X115290010Y-85780804D01*
X115290012Y-85780804D01*
X115423131Y-85759720D01*
X115423131Y-85759719D01*
X115423136Y-85759719D01*
X115543230Y-85698528D01*
X115638538Y-85603220D01*
X115699729Y-85483126D01*
X115703540Y-85459066D01*
X115720814Y-85350002D01*
X115720814Y-85349997D01*
X115699730Y-85216878D01*
X115699729Y-85216876D01*
X115699729Y-85216874D01*
X115638538Y-85096780D01*
X115638536Y-85096778D01*
X115638533Y-85096774D01*
X115543235Y-85001476D01*
X115543231Y-85001473D01*
X115543230Y-85001472D01*
X115423136Y-84940281D01*
X115423134Y-84940280D01*
X115423131Y-84940279D01*
X115290012Y-84919196D01*
X115290008Y-84919196D01*
X115156888Y-84940279D01*
X115156884Y-84940280D01*
X115156884Y-84940281D01*
X115135270Y-84951294D01*
X115036788Y-85001473D01*
X115036784Y-85001476D01*
X114941486Y-85096774D01*
X114941483Y-85096778D01*
X114880289Y-85216878D01*
X114859206Y-85349997D01*
X114859206Y-85350002D01*
X106377500Y-85350002D01*
X106377500Y-82430002D01*
X110959196Y-82430002D01*
X110980279Y-82563121D01*
X110980280Y-82563124D01*
X110980281Y-82563126D01*
X111041472Y-82683220D01*
X111041473Y-82683221D01*
X111041476Y-82683225D01*
X111136774Y-82778523D01*
X111136778Y-82778526D01*
X111136780Y-82778528D01*
X111256874Y-82839719D01*
X111256876Y-82839719D01*
X111256878Y-82839720D01*
X111389998Y-82860804D01*
X111390000Y-82860804D01*
X111390002Y-82860804D01*
X111523123Y-82839720D01*
X111532405Y-82836704D01*
X111533592Y-82840357D01*
X111583599Y-82830895D01*
X111626488Y-82847230D01*
X111628085Y-82844097D01*
X111636778Y-82848526D01*
X111636780Y-82848528D01*
X111756874Y-82909719D01*
X111820659Y-82919821D01*
X111883791Y-82949749D01*
X111911744Y-82985998D01*
X111971472Y-83103220D01*
X111971474Y-83103222D01*
X111971476Y-83103225D01*
X112066774Y-83198523D01*
X112066778Y-83198526D01*
X112066780Y-83198528D01*
X112186874Y-83259719D01*
X112186876Y-83259719D01*
X112186878Y-83259720D01*
X112319998Y-83280804D01*
X112320000Y-83280804D01*
X112320002Y-83280804D01*
X112453121Y-83259720D01*
X112453121Y-83259719D01*
X112453126Y-83259719D01*
X112573220Y-83198528D01*
X112668528Y-83103220D01*
X112729719Y-82983126D01*
X112729720Y-82983121D01*
X112750804Y-82850002D01*
X112750804Y-82849997D01*
X112742886Y-82800002D01*
X122419196Y-82800002D01*
X122440279Y-82933121D01*
X122440280Y-82933124D01*
X122440281Y-82933126D01*
X122501472Y-83053220D01*
X122501473Y-83053221D01*
X122501476Y-83053225D01*
X122596774Y-83148523D01*
X122596778Y-83148526D01*
X122596780Y-83148528D01*
X122716874Y-83209719D01*
X122716876Y-83209719D01*
X122716878Y-83209720D01*
X122849998Y-83230804D01*
X122850000Y-83230804D01*
X122850002Y-83230804D01*
X122983121Y-83209720D01*
X122983121Y-83209719D01*
X122983126Y-83209719D01*
X123103220Y-83148528D01*
X123198528Y-83053220D01*
X123205263Y-83040002D01*
X130349196Y-83040002D01*
X130370279Y-83173121D01*
X130370280Y-83173124D01*
X130370281Y-83173126D01*
X130431472Y-83293220D01*
X130431473Y-83293221D01*
X130431476Y-83293225D01*
X130526774Y-83388523D01*
X130526778Y-83388526D01*
X130526780Y-83388528D01*
X130646874Y-83449719D01*
X130646876Y-83449719D01*
X130646878Y-83449720D01*
X130779998Y-83470804D01*
X130780000Y-83470804D01*
X130780002Y-83470804D01*
X130913121Y-83449720D01*
X130913121Y-83449719D01*
X130913126Y-83449719D01*
X131033220Y-83388528D01*
X131128528Y-83293220D01*
X131128532Y-83293212D01*
X131132765Y-83287387D01*
X131188094Y-83244720D01*
X131257708Y-83238739D01*
X131289374Y-83249783D01*
X131343609Y-83277417D01*
X131343611Y-83277417D01*
X131343613Y-83277418D01*
X131476733Y-83298502D01*
X131476735Y-83298502D01*
X131476737Y-83298502D01*
X131609856Y-83277418D01*
X131609856Y-83277417D01*
X131609861Y-83277417D01*
X131729955Y-83216226D01*
X131825263Y-83120918D01*
X131886454Y-83000824D01*
X131886455Y-83000819D01*
X131902423Y-82900002D01*
X132919196Y-82900002D01*
X132940279Y-83033121D01*
X132940280Y-83033124D01*
X132940281Y-83033126D01*
X133001472Y-83153220D01*
X133001473Y-83153221D01*
X133001476Y-83153225D01*
X133096774Y-83248523D01*
X133096778Y-83248526D01*
X133096780Y-83248528D01*
X133216874Y-83309719D01*
X133216876Y-83309719D01*
X133216878Y-83309720D01*
X133349998Y-83330804D01*
X133350000Y-83330804D01*
X133350002Y-83330804D01*
X133483122Y-83309720D01*
X133483123Y-83309719D01*
X133483126Y-83309719D01*
X133528388Y-83286656D01*
X133597055Y-83273760D01*
X133661796Y-83300036D01*
X133695165Y-83340843D01*
X133701470Y-83353217D01*
X133701476Y-83353225D01*
X133796774Y-83448523D01*
X133796778Y-83448526D01*
X133796780Y-83448528D01*
X133916874Y-83509719D01*
X133916876Y-83509719D01*
X133916878Y-83509720D01*
X134049998Y-83530804D01*
X134050000Y-83530804D01*
X134050002Y-83530804D01*
X134183121Y-83509720D01*
X134183121Y-83509719D01*
X134183126Y-83509719D01*
X134303220Y-83448528D01*
X134398528Y-83353220D01*
X134459719Y-83233126D01*
X134460087Y-83230804D01*
X134480804Y-83100002D01*
X134480804Y-83099997D01*
X134459720Y-82966878D01*
X134459719Y-82966876D01*
X134459719Y-82966874D01*
X134398528Y-82846780D01*
X134398526Y-82846778D01*
X134398523Y-82846774D01*
X134351751Y-82800002D01*
X146419196Y-82800002D01*
X146440279Y-82933121D01*
X146440280Y-82933124D01*
X146440281Y-82933126D01*
X146501472Y-83053220D01*
X146501473Y-83053221D01*
X146501476Y-83053225D01*
X146596774Y-83148523D01*
X146596778Y-83148526D01*
X146596780Y-83148528D01*
X146716874Y-83209719D01*
X146716876Y-83209719D01*
X146716878Y-83209720D01*
X146849998Y-83230804D01*
X146850000Y-83230804D01*
X146850002Y-83230804D01*
X146983121Y-83209720D01*
X146983121Y-83209719D01*
X146983126Y-83209719D01*
X147103220Y-83148528D01*
X147198528Y-83053220D01*
X147259719Y-82933126D01*
X147260087Y-82930804D01*
X147280804Y-82800002D01*
X147280804Y-82799997D01*
X147259720Y-82666878D01*
X147259719Y-82666876D01*
X147259719Y-82666874D01*
X147198528Y-82546780D01*
X147198526Y-82546778D01*
X147198523Y-82546774D01*
X147103225Y-82451476D01*
X147103221Y-82451473D01*
X147103220Y-82451472D01*
X146983126Y-82390281D01*
X146983124Y-82390280D01*
X146983121Y-82390279D01*
X146850002Y-82369196D01*
X146849998Y-82369196D01*
X146716878Y-82390279D01*
X146596778Y-82451473D01*
X146596774Y-82451476D01*
X146501476Y-82546774D01*
X146501473Y-82546778D01*
X146440279Y-82666878D01*
X146419196Y-82799997D01*
X146419196Y-82800002D01*
X134351751Y-82800002D01*
X134303225Y-82751476D01*
X134303221Y-82751473D01*
X134303220Y-82751472D01*
X134183126Y-82690281D01*
X134183124Y-82690280D01*
X134183121Y-82690279D01*
X134050002Y-82669196D01*
X134049998Y-82669196D01*
X133916877Y-82690279D01*
X133871610Y-82713344D01*
X133802941Y-82726239D01*
X133738201Y-82699962D01*
X133704833Y-82659154D01*
X133703576Y-82656687D01*
X133698528Y-82646780D01*
X133698525Y-82646777D01*
X133698523Y-82646774D01*
X133603225Y-82551476D01*
X133603221Y-82551473D01*
X133603220Y-82551472D01*
X133483126Y-82490281D01*
X133483124Y-82490280D01*
X133483121Y-82490279D01*
X133350002Y-82469196D01*
X133349998Y-82469196D01*
X133216878Y-82490279D01*
X133216874Y-82490280D01*
X133216874Y-82490281D01*
X133194903Y-82501476D01*
X133096778Y-82551473D01*
X133096774Y-82551476D01*
X133001476Y-82646774D01*
X133001473Y-82646778D01*
X132940279Y-82766878D01*
X132919196Y-82899997D01*
X132919196Y-82900002D01*
X131902423Y-82900002D01*
X131907539Y-82867700D01*
X131907539Y-82867695D01*
X131886455Y-82734576D01*
X131886454Y-82734574D01*
X131886454Y-82734572D01*
X131825263Y-82614478D01*
X131825261Y-82614476D01*
X131825258Y-82614472D01*
X131729960Y-82519174D01*
X131729956Y-82519171D01*
X131729955Y-82519170D01*
X131609861Y-82457979D01*
X131609859Y-82457978D01*
X131609856Y-82457977D01*
X131476737Y-82436894D01*
X131476733Y-82436894D01*
X131343613Y-82457977D01*
X131223513Y-82519171D01*
X131223509Y-82519174D01*
X131128206Y-82614477D01*
X131123965Y-82620315D01*
X131068634Y-82662979D01*
X130999020Y-82668957D01*
X130967355Y-82657912D01*
X130913123Y-82630279D01*
X130780002Y-82609196D01*
X130779998Y-82609196D01*
X130646878Y-82630279D01*
X130646874Y-82630280D01*
X130646874Y-82630281D01*
X130614505Y-82646774D01*
X130526778Y-82691473D01*
X130526774Y-82691476D01*
X130431476Y-82786774D01*
X130431473Y-82786778D01*
X130431472Y-82786780D01*
X130373784Y-82900000D01*
X130370279Y-82906878D01*
X130349196Y-83039997D01*
X130349196Y-83040002D01*
X123205263Y-83040002D01*
X123259719Y-82933126D01*
X123260087Y-82930804D01*
X123280804Y-82800002D01*
X123280804Y-82799997D01*
X123259720Y-82666878D01*
X123259719Y-82666876D01*
X123259719Y-82666874D01*
X123198528Y-82546780D01*
X123198526Y-82546778D01*
X123198523Y-82546774D01*
X123103225Y-82451476D01*
X123103221Y-82451473D01*
X123103220Y-82451472D01*
X122983126Y-82390281D01*
X122983124Y-82390280D01*
X122983121Y-82390279D01*
X122850002Y-82369196D01*
X122849998Y-82369196D01*
X122716878Y-82390279D01*
X122596778Y-82451473D01*
X122596774Y-82451476D01*
X122501476Y-82546774D01*
X122501473Y-82546778D01*
X122440279Y-82666878D01*
X122419196Y-82799997D01*
X122419196Y-82800002D01*
X112742886Y-82800002D01*
X112729720Y-82716878D01*
X112729719Y-82716876D01*
X112729719Y-82716874D01*
X112668528Y-82596780D01*
X112668526Y-82596778D01*
X112668523Y-82596774D01*
X112573225Y-82501476D01*
X112573221Y-82501473D01*
X112573220Y-82501472D01*
X112453126Y-82440281D01*
X112453124Y-82440280D01*
X112453121Y-82440279D01*
X112389339Y-82430177D01*
X112326205Y-82400247D01*
X112298256Y-82364003D01*
X112238528Y-82246780D01*
X112238526Y-82246778D01*
X112238523Y-82246774D01*
X112143225Y-82151476D01*
X112143221Y-82151473D01*
X112143220Y-82151472D01*
X112023126Y-82090281D01*
X112023124Y-82090280D01*
X112023121Y-82090279D01*
X111890002Y-82069196D01*
X111889998Y-82069196D01*
X111756875Y-82090280D01*
X111747590Y-82093297D01*
X111746414Y-82089678D01*
X111696104Y-82099073D01*
X111653480Y-82082831D01*
X111651915Y-82085903D01*
X111643221Y-82081473D01*
X111643220Y-82081472D01*
X111523126Y-82020281D01*
X111523124Y-82020280D01*
X111523121Y-82020279D01*
X111390002Y-81999196D01*
X111389998Y-81999196D01*
X111256878Y-82020279D01*
X111136778Y-82081473D01*
X111136774Y-82081476D01*
X111041476Y-82176774D01*
X111041473Y-82176778D01*
X110980279Y-82296878D01*
X110959196Y-82429997D01*
X110959196Y-82430002D01*
X106377500Y-82430002D01*
X106377500Y-81294852D01*
X113419196Y-81294852D01*
X113440279Y-81427971D01*
X113440280Y-81427974D01*
X113440281Y-81427976D01*
X113501472Y-81548070D01*
X113501473Y-81548071D01*
X113501476Y-81548075D01*
X113596774Y-81643373D01*
X113596778Y-81643376D01*
X113596780Y-81643378D01*
X113716874Y-81704569D01*
X113716876Y-81704569D01*
X113716878Y-81704570D01*
X113849998Y-81725654D01*
X113850000Y-81725654D01*
X113850002Y-81725654D01*
X113983121Y-81704570D01*
X113983121Y-81704569D01*
X113983126Y-81704569D01*
X114103220Y-81643378D01*
X114198528Y-81548070D01*
X114259719Y-81427976D01*
X114261557Y-81416371D01*
X114264150Y-81400002D01*
X124619200Y-81400002D01*
X124640283Y-81533121D01*
X124640284Y-81533124D01*
X124640285Y-81533126D01*
X124701476Y-81653220D01*
X124701477Y-81653221D01*
X124701480Y-81653225D01*
X124765010Y-81716755D01*
X124798495Y-81778078D01*
X124795697Y-81834012D01*
X124796456Y-81834133D01*
X124795339Y-81841183D01*
X124795261Y-81842751D01*
X124794929Y-81843771D01*
X124773845Y-81976895D01*
X124773845Y-81976900D01*
X124794928Y-82110019D01*
X124794929Y-82110022D01*
X124794930Y-82110024D01*
X124851132Y-82220326D01*
X124856122Y-82230119D01*
X124856125Y-82230123D01*
X124951423Y-82325421D01*
X124951427Y-82325424D01*
X124951429Y-82325426D01*
X125071523Y-82386617D01*
X125071525Y-82386617D01*
X125071527Y-82386618D01*
X125204647Y-82407702D01*
X125204649Y-82407702D01*
X125204651Y-82407702D01*
X125337770Y-82386618D01*
X125337770Y-82386617D01*
X125337775Y-82386617D01*
X125457869Y-82325426D01*
X125553177Y-82230118D01*
X125614368Y-82110024D01*
X125616035Y-82099500D01*
X125635453Y-81976900D01*
X125635453Y-81976895D01*
X125614369Y-81843776D01*
X125614368Y-81843774D01*
X125614368Y-81843772D01*
X125553177Y-81723678D01*
X125553175Y-81723676D01*
X125553172Y-81723672D01*
X125489642Y-81660142D01*
X125456157Y-81598819D01*
X125458956Y-81542885D01*
X125458197Y-81542765D01*
X125459316Y-81535694D01*
X125459395Y-81534133D01*
X125459717Y-81533136D01*
X125459723Y-81533126D01*
X125464969Y-81500002D01*
X128619196Y-81500002D01*
X128640279Y-81633121D01*
X128640280Y-81633124D01*
X128640281Y-81633126D01*
X128701472Y-81753220D01*
X128701473Y-81753221D01*
X128701476Y-81753225D01*
X128796774Y-81848523D01*
X128796778Y-81848526D01*
X128796780Y-81848528D01*
X128916874Y-81909719D01*
X128916876Y-81909719D01*
X128916878Y-81909720D01*
X129049998Y-81930804D01*
X129050000Y-81930804D01*
X129050002Y-81930804D01*
X129183121Y-81909720D01*
X129183121Y-81909719D01*
X129183126Y-81909719D01*
X129257542Y-81871802D01*
X133907979Y-81871802D01*
X133929062Y-82004921D01*
X133929063Y-82004924D01*
X133929064Y-82004926D01*
X133990255Y-82125020D01*
X133990256Y-82125021D01*
X133990259Y-82125025D01*
X134085557Y-82220323D01*
X134085561Y-82220326D01*
X134085563Y-82220328D01*
X134205657Y-82281519D01*
X134205659Y-82281519D01*
X134205661Y-82281520D01*
X134338781Y-82302604D01*
X134338783Y-82302604D01*
X134338785Y-82302604D01*
X134471904Y-82281520D01*
X134471904Y-82281519D01*
X134471909Y-82281519D01*
X134592003Y-82220328D01*
X134687311Y-82125020D01*
X134748502Y-82004926D01*
X134752942Y-81976895D01*
X134769587Y-81871802D01*
X134769587Y-81871797D01*
X134748503Y-81738678D01*
X134748502Y-81738676D01*
X134748502Y-81738674D01*
X134687311Y-81618580D01*
X134687309Y-81618578D01*
X134687306Y-81618574D01*
X134592008Y-81523276D01*
X134592004Y-81523273D01*
X134592003Y-81523272D01*
X134471909Y-81462081D01*
X134471907Y-81462080D01*
X134471904Y-81462079D01*
X134338785Y-81440996D01*
X134338781Y-81440996D01*
X134205661Y-81462079D01*
X134085561Y-81523273D01*
X134085557Y-81523276D01*
X133990259Y-81618574D01*
X133990256Y-81618578D01*
X133929062Y-81738678D01*
X133907979Y-81871797D01*
X133907979Y-81871802D01*
X129257542Y-81871802D01*
X129303220Y-81848528D01*
X129398528Y-81753220D01*
X129459719Y-81633126D01*
X129460472Y-81628370D01*
X129480804Y-81500002D01*
X129480804Y-81499997D01*
X129464966Y-81400002D01*
X145819196Y-81400002D01*
X145840279Y-81533121D01*
X145840280Y-81533124D01*
X145840281Y-81533126D01*
X145901472Y-81653220D01*
X145901473Y-81653221D01*
X145901476Y-81653225D01*
X145996774Y-81748523D01*
X145996778Y-81748526D01*
X145996780Y-81748528D01*
X146116874Y-81809719D01*
X146116876Y-81809719D01*
X146116878Y-81809720D01*
X146249998Y-81830804D01*
X146250000Y-81830804D01*
X146250002Y-81830804D01*
X146266430Y-81828202D01*
X148819196Y-81828202D01*
X148840279Y-81961321D01*
X148840280Y-81961324D01*
X148840281Y-81961326D01*
X148898598Y-82075779D01*
X148901473Y-82081421D01*
X148901476Y-82081425D01*
X148996774Y-82176723D01*
X148996778Y-82176726D01*
X148996780Y-82176728D01*
X149116874Y-82237919D01*
X149116876Y-82237919D01*
X149116878Y-82237920D01*
X149259639Y-82260531D01*
X149259436Y-82261808D01*
X149316924Y-82278689D01*
X149362679Y-82331493D01*
X149372623Y-82400651D01*
X149343598Y-82464207D01*
X149337566Y-82470685D01*
X149284260Y-82523990D01*
X149284257Y-82523994D01*
X149284256Y-82523996D01*
X149245530Y-82600001D01*
X149223063Y-82644094D01*
X149201980Y-82777213D01*
X149201980Y-82777218D01*
X149223063Y-82910337D01*
X149223064Y-82910340D01*
X149223065Y-82910342D01*
X149273703Y-83009724D01*
X149284257Y-83030437D01*
X149284260Y-83030441D01*
X149379558Y-83125739D01*
X149379562Y-83125742D01*
X149379564Y-83125744D01*
X149499658Y-83186935D01*
X149499660Y-83186935D01*
X149499662Y-83186936D01*
X149632782Y-83208020D01*
X149632784Y-83208020D01*
X149632786Y-83208020D01*
X149765905Y-83186936D01*
X149765905Y-83186935D01*
X149765910Y-83186935D01*
X149886004Y-83125744D01*
X149981312Y-83030436D01*
X150042503Y-82910342D01*
X150043535Y-82903827D01*
X150063588Y-82777218D01*
X150063588Y-82777213D01*
X150042504Y-82644094D01*
X150042503Y-82644092D01*
X150042503Y-82644090D01*
X149981312Y-82523996D01*
X149981310Y-82523994D01*
X149981307Y-82523990D01*
X149886009Y-82428692D01*
X149886005Y-82428689D01*
X149886004Y-82428688D01*
X149765910Y-82367497D01*
X149765908Y-82367496D01*
X149765905Y-82367495D01*
X149623145Y-82344885D01*
X149623347Y-82343607D01*
X149565860Y-82326727D01*
X149520105Y-82273923D01*
X149510161Y-82204765D01*
X149539186Y-82141209D01*
X149545218Y-82134731D01*
X149598523Y-82081425D01*
X149598528Y-82081420D01*
X149659719Y-81961326D01*
X149670212Y-81895078D01*
X149677352Y-81850000D01*
X154794867Y-81850000D01*
X154813302Y-81978225D01*
X154864477Y-82090280D01*
X154867118Y-82096063D01*
X154915133Y-82151476D01*
X154948760Y-82190285D01*
X154951951Y-82193967D01*
X155060931Y-82264004D01*
X155185225Y-82300499D01*
X155185227Y-82300500D01*
X155185228Y-82300500D01*
X155314771Y-82300500D01*
X155314772Y-82300500D01*
X155355127Y-82288651D01*
X155424995Y-82288651D01*
X155483774Y-82326425D01*
X155512799Y-82389980D01*
X155512799Y-82425274D01*
X155494867Y-82549999D01*
X155513302Y-82678225D01*
X155567117Y-82796061D01*
X155567118Y-82796063D01*
X155651951Y-82893967D01*
X155760931Y-82964004D01*
X155851920Y-82990720D01*
X155885225Y-83000499D01*
X155885227Y-83000500D01*
X155885228Y-83000500D01*
X156014773Y-83000500D01*
X156014773Y-83000499D01*
X156139069Y-82964004D01*
X156248049Y-82893967D01*
X156332882Y-82796063D01*
X156386697Y-82678226D01*
X156397943Y-82600006D01*
X158729853Y-82600006D01*
X158750936Y-82733125D01*
X158750937Y-82733128D01*
X158750938Y-82733130D01*
X158812129Y-82853224D01*
X158812130Y-82853225D01*
X158812133Y-82853229D01*
X158907431Y-82948527D01*
X158907435Y-82948530D01*
X158907437Y-82948532D01*
X159027531Y-83009723D01*
X159027533Y-83009723D01*
X159027535Y-83009724D01*
X159160655Y-83030808D01*
X159160657Y-83030808D01*
X159160659Y-83030808D01*
X159293778Y-83009724D01*
X159293778Y-83009723D01*
X159293783Y-83009723D01*
X159413877Y-82948532D01*
X159509185Y-82853224D01*
X159570376Y-82733130D01*
X159571124Y-82728408D01*
X159591461Y-82600006D01*
X159591461Y-82600003D01*
X159583925Y-82552425D01*
X159592879Y-82483131D01*
X159637875Y-82429679D01*
X159650083Y-82422553D01*
X159740020Y-82376728D01*
X159835328Y-82281420D01*
X159896519Y-82161326D01*
X159898080Y-82151472D01*
X159917604Y-82028202D01*
X159917604Y-82028197D01*
X159896520Y-81895078D01*
X159896519Y-81895076D01*
X159896519Y-81895074D01*
X159835328Y-81774980D01*
X159835326Y-81774978D01*
X159835323Y-81774974D01*
X159740025Y-81679676D01*
X159740021Y-81679673D01*
X159740020Y-81679672D01*
X159619926Y-81618481D01*
X159619924Y-81618480D01*
X159619921Y-81618479D01*
X159486802Y-81597396D01*
X159486798Y-81597396D01*
X159353678Y-81618479D01*
X159353674Y-81618480D01*
X159353674Y-81618481D01*
X159353484Y-81618578D01*
X159233578Y-81679673D01*
X159233574Y-81679676D01*
X159138276Y-81774974D01*
X159138273Y-81774978D01*
X159077079Y-81895078D01*
X159055996Y-82028197D01*
X159055996Y-82028203D01*
X159063531Y-82075779D01*
X159054576Y-82145072D01*
X159009580Y-82198524D01*
X158997354Y-82205660D01*
X158907438Y-82251475D01*
X158907431Y-82251480D01*
X158812133Y-82346778D01*
X158812130Y-82346782D01*
X158750936Y-82466882D01*
X158729853Y-82600001D01*
X158729853Y-82600006D01*
X156397943Y-82600006D01*
X156405133Y-82550000D01*
X156387200Y-82425273D01*
X156397144Y-82356117D01*
X156442898Y-82303313D01*
X156509938Y-82283628D01*
X156544873Y-82288651D01*
X156585227Y-82300500D01*
X156585228Y-82300500D01*
X156714773Y-82300500D01*
X156714773Y-82300499D01*
X156839069Y-82264004D01*
X156948049Y-82193967D01*
X157032882Y-82096063D01*
X157086697Y-81978226D01*
X157105133Y-81850000D01*
X157086697Y-81721774D01*
X157032882Y-81603937D01*
X156948049Y-81506033D01*
X156839069Y-81435996D01*
X156839065Y-81435994D01*
X156839064Y-81435994D01*
X156714774Y-81399500D01*
X156714772Y-81399500D01*
X156585228Y-81399500D01*
X156585227Y-81399500D01*
X156544870Y-81411349D01*
X156475001Y-81411347D01*
X156416223Y-81373572D01*
X156387200Y-81310016D01*
X156387200Y-81274725D01*
X156405133Y-81150000D01*
X156386697Y-81021774D01*
X156332882Y-80903937D01*
X156248049Y-80806033D01*
X156139069Y-80735996D01*
X156139065Y-80735994D01*
X156139064Y-80735994D01*
X156014774Y-80699500D01*
X156014772Y-80699500D01*
X155885228Y-80699500D01*
X155885226Y-80699500D01*
X155760935Y-80735994D01*
X155760932Y-80735995D01*
X155760931Y-80735996D01*
X155709677Y-80768934D01*
X155651950Y-80806033D01*
X155567118Y-80903937D01*
X155567117Y-80903938D01*
X155513302Y-81021774D01*
X155494867Y-81150000D01*
X155512799Y-81274725D01*
X155502855Y-81343883D01*
X155457100Y-81396687D01*
X155390060Y-81416371D01*
X155355128Y-81411349D01*
X155314772Y-81399500D01*
X155185228Y-81399500D01*
X155185226Y-81399500D01*
X155060935Y-81435994D01*
X155060932Y-81435995D01*
X155060931Y-81435996D01*
X155020345Y-81462079D01*
X154951950Y-81506033D01*
X154867118Y-81603937D01*
X154867117Y-81603938D01*
X154813302Y-81721774D01*
X154794867Y-81850000D01*
X149677352Y-81850000D01*
X149680804Y-81828202D01*
X149680804Y-81828197D01*
X149659720Y-81695078D01*
X149659719Y-81695076D01*
X149659719Y-81695074D01*
X149598528Y-81574980D01*
X149598526Y-81574978D01*
X149598523Y-81574974D01*
X149503225Y-81479676D01*
X149503221Y-81479673D01*
X149503220Y-81479672D01*
X149383126Y-81418481D01*
X149383124Y-81418480D01*
X149383121Y-81418479D01*
X149250002Y-81397396D01*
X149249998Y-81397396D01*
X149116878Y-81418479D01*
X148996778Y-81479673D01*
X148996774Y-81479676D01*
X148901476Y-81574974D01*
X148901473Y-81574978D01*
X148840279Y-81695078D01*
X148819196Y-81828197D01*
X148819196Y-81828202D01*
X146266430Y-81828202D01*
X146383121Y-81809720D01*
X146383121Y-81809719D01*
X146383126Y-81809719D01*
X146503220Y-81748528D01*
X146598528Y-81653220D01*
X146659719Y-81533126D01*
X146659720Y-81533121D01*
X146680804Y-81400002D01*
X146680804Y-81399997D01*
X146659720Y-81266878D01*
X146659719Y-81266876D01*
X146659719Y-81266874D01*
X146598528Y-81146780D01*
X146598526Y-81146778D01*
X146598523Y-81146774D01*
X146503225Y-81051476D01*
X146503221Y-81051473D01*
X146503220Y-81051472D01*
X146383126Y-80990281D01*
X146383124Y-80990280D01*
X146383121Y-80990279D01*
X146250002Y-80969196D01*
X146249998Y-80969196D01*
X146116878Y-80990279D01*
X146116874Y-80990280D01*
X146116874Y-80990281D01*
X146055066Y-81021774D01*
X145996778Y-81051473D01*
X145996774Y-81051476D01*
X145901476Y-81146774D01*
X145901473Y-81146778D01*
X145840279Y-81266878D01*
X145819196Y-81399997D01*
X145819196Y-81400002D01*
X129464966Y-81400002D01*
X129459720Y-81366878D01*
X129459719Y-81366876D01*
X129459719Y-81366874D01*
X129398528Y-81246780D01*
X129398526Y-81246778D01*
X129398523Y-81246774D01*
X129303225Y-81151476D01*
X129303221Y-81151473D01*
X129303220Y-81151472D01*
X129183126Y-81090281D01*
X129183124Y-81090280D01*
X129183121Y-81090279D01*
X129050002Y-81069196D01*
X129049998Y-81069196D01*
X128916878Y-81090279D01*
X128796778Y-81151473D01*
X128796774Y-81151476D01*
X128701476Y-81246774D01*
X128701473Y-81246778D01*
X128640279Y-81366878D01*
X128619196Y-81499997D01*
X128619196Y-81500002D01*
X125464969Y-81500002D01*
X125480808Y-81400000D01*
X125480283Y-81396687D01*
X125459724Y-81266878D01*
X125459723Y-81266876D01*
X125459723Y-81266874D01*
X125398532Y-81146780D01*
X125398530Y-81146778D01*
X125398527Y-81146774D01*
X125303229Y-81051476D01*
X125303225Y-81051473D01*
X125303224Y-81051472D01*
X125183130Y-80990281D01*
X125183128Y-80990280D01*
X125183125Y-80990279D01*
X125050006Y-80969196D01*
X125050002Y-80969196D01*
X124916882Y-80990279D01*
X124916878Y-80990280D01*
X124916878Y-80990281D01*
X124855070Y-81021774D01*
X124796782Y-81051473D01*
X124796778Y-81051476D01*
X124701480Y-81146774D01*
X124701477Y-81146778D01*
X124640283Y-81266878D01*
X124619200Y-81399997D01*
X124619200Y-81400002D01*
X114264150Y-81400002D01*
X114280804Y-81294852D01*
X114280804Y-81294847D01*
X114259720Y-81161728D01*
X114259719Y-81161726D01*
X114259719Y-81161724D01*
X114208150Y-81060515D01*
X114195255Y-80991849D01*
X114208148Y-80947934D01*
X114267926Y-80830616D01*
X114268305Y-80828225D01*
X114272773Y-80800012D01*
X123519196Y-80800012D01*
X123540279Y-80933131D01*
X123540280Y-80933134D01*
X123540281Y-80933136D01*
X123601472Y-81053230D01*
X123601473Y-81053231D01*
X123601476Y-81053235D01*
X123696774Y-81148533D01*
X123696778Y-81148536D01*
X123696780Y-81148538D01*
X123816874Y-81209729D01*
X123816876Y-81209729D01*
X123816878Y-81209730D01*
X123949998Y-81230814D01*
X123950000Y-81230814D01*
X123950002Y-81230814D01*
X124083121Y-81209730D01*
X124083121Y-81209729D01*
X124083126Y-81209729D01*
X124203220Y-81148538D01*
X124298528Y-81053230D01*
X124359719Y-80933136D01*
X124361004Y-80925021D01*
X124380804Y-80800012D01*
X124380804Y-80800007D01*
X124359720Y-80666888D01*
X124359719Y-80666886D01*
X124359719Y-80666884D01*
X124298528Y-80546790D01*
X124298526Y-80546788D01*
X124298523Y-80546784D01*
X124203225Y-80451486D01*
X124203221Y-80451483D01*
X124203220Y-80451482D01*
X124083126Y-80390291D01*
X124083124Y-80390290D01*
X124083121Y-80390289D01*
X123950002Y-80369206D01*
X123949998Y-80369206D01*
X123816878Y-80390289D01*
X123816874Y-80390290D01*
X123816874Y-80390291D01*
X123761366Y-80418574D01*
X123696778Y-80451483D01*
X123696774Y-80451486D01*
X123601476Y-80546784D01*
X123601473Y-80546788D01*
X123540279Y-80666888D01*
X123519196Y-80800007D01*
X123519196Y-80800012D01*
X114272773Y-80800012D01*
X114289011Y-80697492D01*
X114289011Y-80697487D01*
X114267927Y-80564368D01*
X114267926Y-80564366D01*
X114267926Y-80564364D01*
X114206735Y-80444270D01*
X114206733Y-80444268D01*
X114206730Y-80444264D01*
X114111432Y-80348966D01*
X114111428Y-80348963D01*
X114111427Y-80348962D01*
X113991333Y-80287771D01*
X113991331Y-80287770D01*
X113991328Y-80287769D01*
X113858209Y-80266686D01*
X113858205Y-80266686D01*
X113725085Y-80287769D01*
X113604985Y-80348963D01*
X113604981Y-80348966D01*
X113509683Y-80444264D01*
X113509680Y-80444268D01*
X113448486Y-80564368D01*
X113427403Y-80697487D01*
X113427403Y-80697492D01*
X113448486Y-80830611D01*
X113448487Y-80830614D01*
X113448488Y-80830616D01*
X113496590Y-80925021D01*
X113500055Y-80931821D01*
X113512951Y-81000491D01*
X113500055Y-81044410D01*
X113440279Y-81161726D01*
X113419196Y-81294847D01*
X113419196Y-81294852D01*
X106377500Y-81294852D01*
X106377500Y-80000002D01*
X114869182Y-80000002D01*
X114890265Y-80133121D01*
X114890266Y-80133124D01*
X114890267Y-80133126D01*
X114951458Y-80253220D01*
X114951459Y-80253221D01*
X114951462Y-80253225D01*
X115046760Y-80348523D01*
X115046764Y-80348526D01*
X115046766Y-80348528D01*
X115166860Y-80409719D01*
X115166862Y-80409719D01*
X115166864Y-80409720D01*
X115299984Y-80430804D01*
X115299986Y-80430804D01*
X115299988Y-80430804D01*
X115433107Y-80409720D01*
X115433107Y-80409719D01*
X115433112Y-80409719D01*
X115553206Y-80348528D01*
X115648514Y-80253220D01*
X115709705Y-80133126D01*
X115711717Y-80120423D01*
X115730790Y-80000002D01*
X115730790Y-79999997D01*
X115714952Y-79900002D01*
X118381710Y-79900002D01*
X118402793Y-80033121D01*
X118402794Y-80033124D01*
X118402795Y-80033126D01*
X118463986Y-80153220D01*
X118463987Y-80153221D01*
X118463990Y-80153225D01*
X118559288Y-80248523D01*
X118559292Y-80248526D01*
X118559294Y-80248528D01*
X118679388Y-80309719D01*
X118679390Y-80309719D01*
X118679392Y-80309720D01*
X118812512Y-80330804D01*
X118812514Y-80330804D01*
X118812516Y-80330804D01*
X118945635Y-80309720D01*
X118945635Y-80309719D01*
X118945640Y-80309719D01*
X119065734Y-80248528D01*
X119161042Y-80153220D01*
X119222233Y-80033126D01*
X119222234Y-80033121D01*
X119243318Y-79900002D01*
X119243318Y-79899997D01*
X119222234Y-79766878D01*
X119222233Y-79766876D01*
X119222233Y-79766874D01*
X119183834Y-79691511D01*
X122110705Y-79691511D01*
X122131788Y-79824630D01*
X122131789Y-79824633D01*
X122131790Y-79824635D01*
X122175136Y-79909706D01*
X122192982Y-79944730D01*
X122192985Y-79944734D01*
X122288283Y-80040032D01*
X122288287Y-80040035D01*
X122288289Y-80040037D01*
X122408383Y-80101228D01*
X122440594Y-80106329D01*
X122503728Y-80136258D01*
X122540660Y-80195570D01*
X122543669Y-80209404D01*
X122548770Y-80241614D01*
X122559198Y-80262079D01*
X122609963Y-80361711D01*
X122609965Y-80361713D01*
X122609967Y-80361716D01*
X122705265Y-80457014D01*
X122705269Y-80457017D01*
X122705271Y-80457019D01*
X122825365Y-80518210D01*
X122825367Y-80518210D01*
X122825369Y-80518211D01*
X122958489Y-80539295D01*
X122958491Y-80539295D01*
X122958493Y-80539295D01*
X123091612Y-80518211D01*
X123091612Y-80518210D01*
X123091617Y-80518210D01*
X123211711Y-80457019D01*
X123307019Y-80361711D01*
X123368210Y-80241617D01*
X123368211Y-80241612D01*
X123389295Y-80108493D01*
X123389295Y-80108488D01*
X123368211Y-79975369D01*
X123368210Y-79975367D01*
X123368210Y-79975365D01*
X123307019Y-79855271D01*
X123307017Y-79855269D01*
X123307014Y-79855265D01*
X123211716Y-79759967D01*
X123211713Y-79759965D01*
X123211711Y-79759963D01*
X123126016Y-79716299D01*
X133171198Y-79716299D01*
X133192281Y-79849418D01*
X133192282Y-79849421D01*
X133192283Y-79849423D01*
X133253001Y-79968588D01*
X133253475Y-79969518D01*
X133253478Y-79969522D01*
X133348776Y-80064820D01*
X133348779Y-80064822D01*
X133348782Y-80064825D01*
X133348784Y-80064826D01*
X133349844Y-80065596D01*
X133350828Y-80066872D01*
X133355682Y-80071726D01*
X133355055Y-80072352D01*
X133392514Y-80120922D01*
X133399440Y-80185317D01*
X133389196Y-80249996D01*
X133389196Y-80250002D01*
X133410279Y-80383121D01*
X133410280Y-80383124D01*
X133410281Y-80383126D01*
X133469689Y-80499720D01*
X133471473Y-80503221D01*
X133471476Y-80503225D01*
X133566774Y-80598523D01*
X133566778Y-80598526D01*
X133566780Y-80598528D01*
X133686874Y-80659719D01*
X133686876Y-80659719D01*
X133686878Y-80659720D01*
X133819998Y-80680804D01*
X133820000Y-80680804D01*
X133820002Y-80680804D01*
X133953121Y-80659720D01*
X133953121Y-80659719D01*
X133953126Y-80659719D01*
X134073220Y-80598528D01*
X134096746Y-80575002D01*
X139494196Y-80575002D01*
X139515279Y-80708121D01*
X139515280Y-80708124D01*
X139515281Y-80708126D01*
X139576472Y-80828220D01*
X139576473Y-80828221D01*
X139576476Y-80828225D01*
X139671774Y-80923523D01*
X139671778Y-80923526D01*
X139671780Y-80923528D01*
X139791874Y-80984719D01*
X139791876Y-80984719D01*
X139791878Y-80984720D01*
X139924998Y-81005804D01*
X139925000Y-81005804D01*
X139925002Y-81005804D01*
X140058121Y-80984720D01*
X140058121Y-80984719D01*
X140058126Y-80984719D01*
X140178220Y-80923528D01*
X140273528Y-80828220D01*
X140334719Y-80708126D01*
X140336404Y-80697487D01*
X140355804Y-80575002D01*
X140355804Y-80574997D01*
X140334720Y-80441878D01*
X140334719Y-80441876D01*
X140334719Y-80441874D01*
X140273528Y-80321780D01*
X140273526Y-80321778D01*
X140273523Y-80321774D01*
X140178225Y-80226476D01*
X140178221Y-80226473D01*
X140178220Y-80226472D01*
X140058126Y-80165281D01*
X140058124Y-80165280D01*
X140058121Y-80165279D01*
X139925002Y-80144196D01*
X139924998Y-80144196D01*
X139791878Y-80165279D01*
X139671778Y-80226473D01*
X139671774Y-80226476D01*
X139576476Y-80321774D01*
X139576473Y-80321778D01*
X139515279Y-80441878D01*
X139494196Y-80574997D01*
X139494196Y-80575002D01*
X134096746Y-80575002D01*
X134168528Y-80503220D01*
X134229719Y-80383126D01*
X134234455Y-80353225D01*
X134250804Y-80250002D01*
X134250804Y-80249997D01*
X134229720Y-80116878D01*
X134229719Y-80116876D01*
X134229719Y-80116874D01*
X134168528Y-79996780D01*
X134168526Y-79996778D01*
X134168523Y-79996774D01*
X134164151Y-79992402D01*
X147019196Y-79992402D01*
X147040279Y-80125521D01*
X147040280Y-80125524D01*
X147040281Y-80125526D01*
X147101472Y-80245620D01*
X147101473Y-80245621D01*
X147101476Y-80245625D01*
X147196774Y-80340923D01*
X147196778Y-80340926D01*
X147196780Y-80340928D01*
X147316874Y-80402119D01*
X147316876Y-80402119D01*
X147316878Y-80402120D01*
X147449998Y-80423204D01*
X147450000Y-80423204D01*
X147450002Y-80423204D01*
X147583121Y-80402120D01*
X147583121Y-80402119D01*
X147583126Y-80402119D01*
X147703220Y-80340928D01*
X147798528Y-80245620D01*
X147859719Y-80125526D01*
X147861089Y-80116878D01*
X147863762Y-80100002D01*
X149219196Y-80100002D01*
X149240279Y-80233121D01*
X149240280Y-80233124D01*
X149240281Y-80233126D01*
X149301472Y-80353220D01*
X149301473Y-80353221D01*
X149301476Y-80353225D01*
X149396774Y-80448523D01*
X149396778Y-80448526D01*
X149396780Y-80448528D01*
X149516874Y-80509719D01*
X149516876Y-80509719D01*
X149516878Y-80509720D01*
X149649998Y-80530804D01*
X149650000Y-80530804D01*
X149650001Y-80530804D01*
X149672641Y-80527218D01*
X149729173Y-80518264D01*
X149798465Y-80527218D01*
X149851917Y-80572214D01*
X149872557Y-80638965D01*
X149871044Y-80660130D01*
X149869197Y-80671797D01*
X149869196Y-80671802D01*
X149890279Y-80804921D01*
X149890280Y-80804924D01*
X149890281Y-80804926D01*
X149950711Y-80923526D01*
X149951473Y-80925021D01*
X149951476Y-80925025D01*
X150046774Y-81020323D01*
X150046778Y-81020326D01*
X150046780Y-81020328D01*
X150166874Y-81081519D01*
X150166876Y-81081519D01*
X150166878Y-81081520D01*
X150299998Y-81102604D01*
X150300000Y-81102604D01*
X150300002Y-81102604D01*
X150433121Y-81081520D01*
X150433121Y-81081519D01*
X150433126Y-81081519D01*
X150553220Y-81020328D01*
X150648528Y-80925020D01*
X150709719Y-80804926D01*
X150709720Y-80804921D01*
X150730804Y-80671802D01*
X150730804Y-80671797D01*
X150709720Y-80538678D01*
X150709719Y-80538676D01*
X150709719Y-80538674D01*
X150648528Y-80418580D01*
X150648526Y-80418578D01*
X150648523Y-80418574D01*
X150553225Y-80323276D01*
X150553221Y-80323273D01*
X150553220Y-80323272D01*
X150433126Y-80262081D01*
X150433124Y-80262080D01*
X150433121Y-80262079D01*
X150300002Y-80240996D01*
X150299997Y-80240996D01*
X150220826Y-80253535D01*
X150151533Y-80244580D01*
X150098081Y-80199584D01*
X150077442Y-80132832D01*
X150078954Y-80111675D01*
X150080804Y-80100000D01*
X150079221Y-80090002D01*
X152059196Y-80090002D01*
X152080279Y-80223121D01*
X152080280Y-80223124D01*
X152080281Y-80223126D01*
X152141472Y-80343220D01*
X152141473Y-80343221D01*
X152141476Y-80343225D01*
X152236774Y-80438523D01*
X152236778Y-80438526D01*
X152236780Y-80438528D01*
X152356874Y-80499719D01*
X152356876Y-80499719D01*
X152356878Y-80499720D01*
X152489998Y-80520804D01*
X152490000Y-80520804D01*
X152490002Y-80520804D01*
X152623121Y-80499720D01*
X152623121Y-80499719D01*
X152623126Y-80499719D01*
X152743220Y-80438528D01*
X152838528Y-80343220D01*
X152899719Y-80223126D01*
X152899720Y-80223121D01*
X152920804Y-80090002D01*
X152920804Y-80089997D01*
X152899720Y-79956878D01*
X152899719Y-79956876D01*
X152899719Y-79956874D01*
X152838528Y-79836780D01*
X152838526Y-79836778D01*
X152838523Y-79836774D01*
X152743225Y-79741476D01*
X152743221Y-79741473D01*
X152743220Y-79741472D01*
X152623126Y-79680281D01*
X152623124Y-79680280D01*
X152623121Y-79680279D01*
X152490002Y-79659196D01*
X152489998Y-79659196D01*
X152356878Y-79680279D01*
X152236778Y-79741473D01*
X152236774Y-79741476D01*
X152141476Y-79836774D01*
X152141473Y-79836778D01*
X152080279Y-79956878D01*
X152059196Y-80089997D01*
X152059196Y-80090002D01*
X150079221Y-80090002D01*
X150064456Y-79996780D01*
X150059720Y-79966878D01*
X150059719Y-79966876D01*
X150059719Y-79966874D01*
X149998528Y-79846780D01*
X149998526Y-79846778D01*
X149998523Y-79846774D01*
X149903225Y-79751476D01*
X149903221Y-79751473D01*
X149903220Y-79751472D01*
X149783126Y-79690281D01*
X149783124Y-79690280D01*
X149783121Y-79690279D01*
X149650002Y-79669196D01*
X149649998Y-79669196D01*
X149516878Y-79690279D01*
X149516874Y-79690280D01*
X149516874Y-79690281D01*
X149465821Y-79716294D01*
X149396778Y-79751473D01*
X149396774Y-79751476D01*
X149301476Y-79846774D01*
X149301473Y-79846778D01*
X149240279Y-79966878D01*
X149219196Y-80099997D01*
X149219196Y-80100002D01*
X147863762Y-80100002D01*
X147880804Y-79992402D01*
X147880804Y-79992397D01*
X147859720Y-79859278D01*
X147859719Y-79859276D01*
X147859719Y-79859274D01*
X147798528Y-79739180D01*
X147798526Y-79739178D01*
X147798523Y-79739174D01*
X147703225Y-79643876D01*
X147703221Y-79643873D01*
X147703220Y-79643872D01*
X147583126Y-79582681D01*
X147583124Y-79582680D01*
X147583121Y-79582679D01*
X147450002Y-79561596D01*
X147449998Y-79561596D01*
X147316878Y-79582679D01*
X147316874Y-79582680D01*
X147316874Y-79582681D01*
X147301962Y-79590279D01*
X147196778Y-79643873D01*
X147196774Y-79643876D01*
X147101476Y-79739174D01*
X147101473Y-79739178D01*
X147101472Y-79739180D01*
X147045764Y-79848514D01*
X147040279Y-79859278D01*
X147019196Y-79992397D01*
X147019196Y-79992402D01*
X134164151Y-79992402D01*
X134073219Y-79901470D01*
X134072144Y-79900689D01*
X134071154Y-79899405D01*
X134066320Y-79894571D01*
X134066944Y-79893946D01*
X134029481Y-79845356D01*
X134022562Y-79780977D01*
X134032806Y-79716299D01*
X134032806Y-79716294D01*
X134011722Y-79583175D01*
X134011721Y-79583173D01*
X134011721Y-79583171D01*
X133969337Y-79499988D01*
X137219224Y-79499988D01*
X137240307Y-79633107D01*
X137240308Y-79633110D01*
X137240309Y-79633112D01*
X137300617Y-79751473D01*
X137301501Y-79753207D01*
X137301504Y-79753211D01*
X137396802Y-79848509D01*
X137396806Y-79848512D01*
X137396808Y-79848514D01*
X137516902Y-79909705D01*
X137516904Y-79909705D01*
X137516906Y-79909706D01*
X137650026Y-79930790D01*
X137650028Y-79930790D01*
X137650030Y-79930790D01*
X137783149Y-79909706D01*
X137783149Y-79909705D01*
X137783154Y-79909705D01*
X137903248Y-79848514D01*
X137998556Y-79753206D01*
X138059747Y-79633112D01*
X138061156Y-79624218D01*
X138080832Y-79499988D01*
X138080832Y-79499983D01*
X138059748Y-79366864D01*
X138059747Y-79366862D01*
X138059747Y-79366860D01*
X137998556Y-79246766D01*
X137998554Y-79246764D01*
X137998551Y-79246760D01*
X137903253Y-79151462D01*
X137903249Y-79151459D01*
X137903248Y-79151458D01*
X137783154Y-79090267D01*
X137783152Y-79090266D01*
X137783149Y-79090265D01*
X137650030Y-79069182D01*
X137650026Y-79069182D01*
X137516906Y-79090265D01*
X137396806Y-79151459D01*
X137396802Y-79151462D01*
X137301504Y-79246760D01*
X137301501Y-79246764D01*
X137240307Y-79366864D01*
X137219224Y-79499983D01*
X137219224Y-79499988D01*
X133969337Y-79499988D01*
X133950530Y-79463077D01*
X133950528Y-79463075D01*
X133950525Y-79463071D01*
X133904711Y-79417257D01*
X133871226Y-79355934D01*
X133876210Y-79286242D01*
X133918082Y-79230309D01*
X133936089Y-79219095D01*
X134003214Y-79184894D01*
X134098522Y-79089586D01*
X134159713Y-78969492D01*
X134159866Y-78968526D01*
X134180798Y-78836368D01*
X134180798Y-78836363D01*
X134171080Y-78775008D01*
X138619196Y-78775008D01*
X138640279Y-78908127D01*
X138640280Y-78908130D01*
X138640281Y-78908132D01*
X138697423Y-79020279D01*
X138701473Y-79028227D01*
X138701476Y-79028231D01*
X138796774Y-79123529D01*
X138796778Y-79123532D01*
X138796780Y-79123534D01*
X138916874Y-79184725D01*
X138916876Y-79184725D01*
X138916878Y-79184726D01*
X139049998Y-79205810D01*
X139050000Y-79205810D01*
X139050002Y-79205810D01*
X139183121Y-79184726D01*
X139183121Y-79184725D01*
X139183126Y-79184725D01*
X139303220Y-79123534D01*
X139398528Y-79028226D01*
X139459719Y-78908132D01*
X139465248Y-78873225D01*
X139480804Y-78775008D01*
X139480804Y-78775003D01*
X139459720Y-78641884D01*
X139459719Y-78641882D01*
X139459719Y-78641880D01*
X139398528Y-78521786D01*
X139398526Y-78521784D01*
X139398523Y-78521780D01*
X139303225Y-78426482D01*
X139303221Y-78426479D01*
X139303220Y-78426478D01*
X139183126Y-78365287D01*
X139183124Y-78365286D01*
X139183121Y-78365285D01*
X139050002Y-78344202D01*
X139049998Y-78344202D01*
X138916878Y-78365285D01*
X138796778Y-78426479D01*
X138796774Y-78426482D01*
X138701476Y-78521780D01*
X138701473Y-78521784D01*
X138701472Y-78521786D01*
X138670208Y-78583146D01*
X138640279Y-78641884D01*
X138619196Y-78775003D01*
X138619196Y-78775008D01*
X134171080Y-78775008D01*
X134159714Y-78703244D01*
X134159713Y-78703242D01*
X134159713Y-78703240D01*
X134098522Y-78583146D01*
X134098520Y-78583144D01*
X134098517Y-78583140D01*
X134003219Y-78487842D01*
X134003215Y-78487839D01*
X134003214Y-78487838D01*
X133883120Y-78426647D01*
X133883118Y-78426646D01*
X133883115Y-78426645D01*
X133749996Y-78405562D01*
X133749992Y-78405562D01*
X133616872Y-78426645D01*
X133496772Y-78487839D01*
X133496768Y-78487842D01*
X133401470Y-78583140D01*
X133401467Y-78583144D01*
X133340273Y-78703244D01*
X133319190Y-78836363D01*
X133319190Y-78836368D01*
X133340273Y-78969487D01*
X133340274Y-78969490D01*
X133340275Y-78969492D01*
X133397334Y-79081476D01*
X133401467Y-79089587D01*
X133401470Y-79089591D01*
X133447284Y-79135405D01*
X133480769Y-79196728D01*
X133475785Y-79266420D01*
X133433913Y-79322353D01*
X133415899Y-79333570D01*
X133348783Y-79367768D01*
X133348776Y-79367773D01*
X133253478Y-79463071D01*
X133253475Y-79463075D01*
X133192281Y-79583175D01*
X133171198Y-79716294D01*
X133171198Y-79716299D01*
X123126016Y-79716299D01*
X123126006Y-79716294D01*
X123091614Y-79698770D01*
X123059404Y-79693669D01*
X122996269Y-79663739D01*
X122959339Y-79604427D01*
X122956330Y-79590602D01*
X122951228Y-79558383D01*
X122890037Y-79438289D01*
X122890035Y-79438287D01*
X122890032Y-79438283D01*
X122794734Y-79342985D01*
X122794730Y-79342982D01*
X122794729Y-79342981D01*
X122674635Y-79281790D01*
X122674633Y-79281789D01*
X122674630Y-79281788D01*
X122541511Y-79260705D01*
X122541507Y-79260705D01*
X122408387Y-79281788D01*
X122408383Y-79281789D01*
X122408383Y-79281790D01*
X122398601Y-79286774D01*
X122288287Y-79342982D01*
X122288283Y-79342985D01*
X122192985Y-79438283D01*
X122192982Y-79438287D01*
X122131788Y-79558387D01*
X122110705Y-79691506D01*
X122110705Y-79691511D01*
X119183834Y-79691511D01*
X119161042Y-79646780D01*
X119161040Y-79646778D01*
X119161037Y-79646774D01*
X119065739Y-79551476D01*
X119065735Y-79551473D01*
X119065734Y-79551472D01*
X118945640Y-79490281D01*
X118945638Y-79490280D01*
X118945635Y-79490279D01*
X118812516Y-79469196D01*
X118812512Y-79469196D01*
X118679392Y-79490279D01*
X118559292Y-79551473D01*
X118559288Y-79551476D01*
X118463990Y-79646774D01*
X118463987Y-79646778D01*
X118402793Y-79766878D01*
X118381710Y-79899997D01*
X118381710Y-79900002D01*
X115714952Y-79900002D01*
X115709706Y-79866878D01*
X115709705Y-79866876D01*
X115709705Y-79866874D01*
X115648514Y-79746780D01*
X115648512Y-79746778D01*
X115648509Y-79746774D01*
X115553211Y-79651476D01*
X115553207Y-79651473D01*
X115553206Y-79651472D01*
X115433112Y-79590281D01*
X115433110Y-79590280D01*
X115433107Y-79590279D01*
X115299988Y-79569196D01*
X115299984Y-79569196D01*
X115166864Y-79590279D01*
X115166860Y-79590280D01*
X115166860Y-79590281D01*
X115145485Y-79601172D01*
X115046764Y-79651473D01*
X115046760Y-79651476D01*
X114951462Y-79746774D01*
X114951459Y-79746778D01*
X114890265Y-79866878D01*
X114869182Y-79999997D01*
X114869182Y-80000002D01*
X106377500Y-80000002D01*
X106377500Y-78400002D01*
X119919196Y-78400002D01*
X119940279Y-78533121D01*
X119940280Y-78533124D01*
X119940281Y-78533126D01*
X120001472Y-78653220D01*
X120001473Y-78653221D01*
X120001476Y-78653225D01*
X120096774Y-78748523D01*
X120096778Y-78748526D01*
X120096780Y-78748528D01*
X120216874Y-78809719D01*
X120216876Y-78809719D01*
X120216878Y-78809720D01*
X120349998Y-78830804D01*
X120350000Y-78830804D01*
X120350002Y-78830804D01*
X120483121Y-78809720D01*
X120483121Y-78809719D01*
X120483126Y-78809719D01*
X120603220Y-78748528D01*
X120698528Y-78653220D01*
X120715453Y-78620002D01*
X123019202Y-78620002D01*
X123040285Y-78753121D01*
X123040286Y-78753124D01*
X123040287Y-78753126D01*
X123101478Y-78873220D01*
X123101479Y-78873221D01*
X123101482Y-78873225D01*
X123196780Y-78968523D01*
X123196784Y-78968526D01*
X123196786Y-78968528D01*
X123316880Y-79029719D01*
X123316882Y-79029719D01*
X123316884Y-79029720D01*
X123450004Y-79050804D01*
X123450006Y-79050804D01*
X123450008Y-79050804D01*
X123583127Y-79029720D01*
X123583127Y-79029719D01*
X123583132Y-79029719D01*
X123703226Y-78968528D01*
X123798534Y-78873220D01*
X123859725Y-78753126D01*
X123862821Y-78733581D01*
X123880810Y-78620002D01*
X123880810Y-78619997D01*
X123859726Y-78486878D01*
X123859725Y-78486876D01*
X123859725Y-78486874D01*
X123798534Y-78366780D01*
X123798532Y-78366778D01*
X123798529Y-78366774D01*
X123703231Y-78271476D01*
X123703227Y-78271473D01*
X123703226Y-78271472D01*
X123583132Y-78210281D01*
X123583130Y-78210280D01*
X123583127Y-78210279D01*
X123450008Y-78189196D01*
X123450004Y-78189196D01*
X123316884Y-78210279D01*
X123196784Y-78271473D01*
X123196780Y-78271476D01*
X123101482Y-78366774D01*
X123101479Y-78366778D01*
X123040285Y-78486878D01*
X123019202Y-78619997D01*
X123019202Y-78620002D01*
X120715453Y-78620002D01*
X120759719Y-78533126D01*
X120761515Y-78521786D01*
X120780804Y-78400002D01*
X120780804Y-78399997D01*
X120759720Y-78266878D01*
X120759719Y-78266876D01*
X120759719Y-78266874D01*
X120698528Y-78146780D01*
X120698526Y-78146778D01*
X120698523Y-78146774D01*
X120603225Y-78051476D01*
X120603221Y-78051473D01*
X120603220Y-78051472D01*
X120483126Y-77990281D01*
X120483124Y-77990280D01*
X120483121Y-77990279D01*
X120350002Y-77969196D01*
X120349998Y-77969196D01*
X120216878Y-77990279D01*
X120216874Y-77990280D01*
X120216874Y-77990281D01*
X120197252Y-78000279D01*
X120096778Y-78051473D01*
X120096774Y-78051476D01*
X120001476Y-78146774D01*
X120001473Y-78146778D01*
X120001472Y-78146780D01*
X119959911Y-78228349D01*
X119940279Y-78266878D01*
X119919196Y-78399997D01*
X119919196Y-78400002D01*
X106377500Y-78400002D01*
X106377500Y-76800000D01*
X110144355Y-76800000D01*
X110164859Y-76968869D01*
X110164860Y-76968874D01*
X110225182Y-77127931D01*
X110261308Y-77180267D01*
X110321817Y-77267929D01*
X110427505Y-77361560D01*
X110449150Y-77380736D01*
X110557084Y-77437384D01*
X110599775Y-77459790D01*
X110764944Y-77500500D01*
X110935056Y-77500500D01*
X111100225Y-77459790D01*
X111201230Y-77406778D01*
X111250849Y-77380736D01*
X111250850Y-77380734D01*
X111250852Y-77380734D01*
X111260934Y-77371802D01*
X124473381Y-77371802D01*
X124494464Y-77504921D01*
X124494465Y-77504924D01*
X124494466Y-77504926D01*
X124539792Y-77593883D01*
X124555658Y-77625021D01*
X124555661Y-77625025D01*
X124650959Y-77720323D01*
X124650963Y-77720326D01*
X124650965Y-77720328D01*
X124771059Y-77781519D01*
X124788332Y-77784254D01*
X124851467Y-77814181D01*
X124888400Y-77873492D01*
X124887404Y-77943354D01*
X124856619Y-77994409D01*
X124801473Y-78049554D01*
X124801473Y-78049555D01*
X124740279Y-78169655D01*
X124719196Y-78302774D01*
X124719196Y-78302779D01*
X124740279Y-78435898D01*
X124740280Y-78435901D01*
X124740281Y-78435903D01*
X124801472Y-78555997D01*
X124801473Y-78555998D01*
X124801476Y-78556002D01*
X124896774Y-78651300D01*
X124896778Y-78651303D01*
X124896780Y-78651305D01*
X125016874Y-78712496D01*
X125016876Y-78712496D01*
X125016878Y-78712497D01*
X125149998Y-78733581D01*
X125150000Y-78733581D01*
X125150002Y-78733581D01*
X125283121Y-78712497D01*
X125283121Y-78712496D01*
X125283126Y-78712496D01*
X125403220Y-78651305D01*
X125498528Y-78555997D01*
X125559719Y-78435903D01*
X125561185Y-78426647D01*
X125563821Y-78410002D01*
X131639196Y-78410002D01*
X131660279Y-78543121D01*
X131660280Y-78543124D01*
X131660281Y-78543126D01*
X131721472Y-78663220D01*
X131721473Y-78663221D01*
X131721476Y-78663225D01*
X131816774Y-78758523D01*
X131816778Y-78758526D01*
X131816780Y-78758528D01*
X131936874Y-78819719D01*
X131936876Y-78819719D01*
X131936878Y-78819720D01*
X132069998Y-78840804D01*
X132070000Y-78840804D01*
X132070002Y-78840804D01*
X132203121Y-78819720D01*
X132203121Y-78819719D01*
X132203126Y-78819719D01*
X132323220Y-78758528D01*
X132418528Y-78663220D01*
X132479719Y-78543126D01*
X132488628Y-78486878D01*
X132500804Y-78410002D01*
X132500804Y-78409997D01*
X132479720Y-78276878D01*
X132479719Y-78276876D01*
X132479719Y-78276874D01*
X132418528Y-78156780D01*
X132418526Y-78156778D01*
X132418523Y-78156774D01*
X132323225Y-78061476D01*
X132323221Y-78061473D01*
X132323220Y-78061472D01*
X132203126Y-78000281D01*
X132203124Y-78000280D01*
X132203121Y-78000279D01*
X132070002Y-77979196D01*
X132069998Y-77979196D01*
X131936878Y-78000279D01*
X131816778Y-78061473D01*
X131816774Y-78061476D01*
X131721476Y-78156774D01*
X131721473Y-78156778D01*
X131721472Y-78156780D01*
X131683415Y-78231472D01*
X131660279Y-78276878D01*
X131639196Y-78409997D01*
X131639196Y-78410002D01*
X125563821Y-78410002D01*
X125580804Y-78302779D01*
X125580804Y-78302774D01*
X125559720Y-78169655D01*
X125559719Y-78169653D01*
X125559719Y-78169651D01*
X125498528Y-78049557D01*
X125498525Y-78049554D01*
X125498523Y-78049551D01*
X125403225Y-77954253D01*
X125403221Y-77954250D01*
X125403220Y-77954249D01*
X125283126Y-77893058D01*
X125283124Y-77893057D01*
X125283121Y-77893056D01*
X125265849Y-77890321D01*
X125202715Y-77860392D01*
X125165783Y-77801081D01*
X125166781Y-77731218D01*
X125197564Y-77680168D01*
X125217730Y-77660002D01*
X145879196Y-77660002D01*
X145900279Y-77793121D01*
X145900280Y-77793124D01*
X145900281Y-77793126D01*
X145961472Y-77913220D01*
X145961473Y-77913221D01*
X145961476Y-77913225D01*
X146056774Y-78008523D01*
X146056776Y-78008524D01*
X146056780Y-78008528D01*
X146074485Y-78017549D01*
X146125280Y-78065523D01*
X146142075Y-78133344D01*
X146119538Y-78199479D01*
X146091077Y-78228349D01*
X146086779Y-78231471D01*
X145991476Y-78326774D01*
X145991473Y-78326778D01*
X145991472Y-78326780D01*
X145954164Y-78400002D01*
X145930279Y-78446878D01*
X145909196Y-78579997D01*
X145909196Y-78580002D01*
X145930279Y-78713121D01*
X145930280Y-78713124D01*
X145930281Y-78713126D01*
X145990241Y-78830804D01*
X145991473Y-78833221D01*
X145991476Y-78833225D01*
X146086774Y-78928523D01*
X146086778Y-78928526D01*
X146086780Y-78928528D01*
X146206874Y-78989719D01*
X146206876Y-78989719D01*
X146206878Y-78989720D01*
X146339998Y-79010804D01*
X146340000Y-79010804D01*
X146340002Y-79010804D01*
X146473121Y-78989720D01*
X146473121Y-78989719D01*
X146473126Y-78989719D01*
X146593220Y-78928528D01*
X146688528Y-78833220D01*
X146749719Y-78713126D01*
X146751285Y-78703240D01*
X146770804Y-78580002D01*
X146770804Y-78579997D01*
X146749720Y-78446878D01*
X146749719Y-78446876D01*
X146749719Y-78446874D01*
X146688528Y-78326780D01*
X146688526Y-78326778D01*
X146688523Y-78326774D01*
X146593225Y-78231476D01*
X146593220Y-78231472D01*
X146575513Y-78222450D01*
X146524718Y-78174475D01*
X146507924Y-78106654D01*
X146530462Y-78040519D01*
X146558932Y-78011643D01*
X146563216Y-78008529D01*
X146563220Y-78008528D01*
X146658528Y-77913220D01*
X146719719Y-77793126D01*
X146721124Y-77784254D01*
X146740804Y-77660002D01*
X146740804Y-77659997D01*
X146719720Y-77526878D01*
X146719719Y-77526876D01*
X146719719Y-77526874D01*
X146658528Y-77406780D01*
X146658526Y-77406778D01*
X146658523Y-77406774D01*
X146563225Y-77311476D01*
X146563221Y-77311473D01*
X146563220Y-77311472D01*
X146443126Y-77250281D01*
X146443124Y-77250280D01*
X146443121Y-77250279D01*
X146310002Y-77229196D01*
X146309998Y-77229196D01*
X146176878Y-77250279D01*
X146056778Y-77311473D01*
X146056774Y-77311476D01*
X145961476Y-77406774D01*
X145961473Y-77406778D01*
X145900279Y-77526878D01*
X145879196Y-77659997D01*
X145879196Y-77660002D01*
X125217730Y-77660002D01*
X125252713Y-77625020D01*
X125313904Y-77504926D01*
X125334989Y-77371800D01*
X125329440Y-77336768D01*
X125313905Y-77238678D01*
X125313904Y-77238676D01*
X125313904Y-77238674D01*
X125279953Y-77172042D01*
X127504835Y-77172042D01*
X127525918Y-77305161D01*
X127525919Y-77305164D01*
X127525920Y-77305166D01*
X127587111Y-77425260D01*
X127587112Y-77425261D01*
X127587115Y-77425265D01*
X127682413Y-77520563D01*
X127682417Y-77520566D01*
X127682419Y-77520568D01*
X127802513Y-77581759D01*
X127802515Y-77581759D01*
X127802517Y-77581760D01*
X127935637Y-77602844D01*
X127935639Y-77602844D01*
X127935641Y-77602844D01*
X128068760Y-77581760D01*
X128068760Y-77581759D01*
X128068765Y-77581759D01*
X128188859Y-77520568D01*
X128284167Y-77425260D01*
X128345358Y-77305166D01*
X128350322Y-77273823D01*
X128366443Y-77172042D01*
X128366443Y-77172037D01*
X128345359Y-77038918D01*
X128345358Y-77038916D01*
X128345358Y-77038914D01*
X128284167Y-76918820D01*
X128284165Y-76918818D01*
X128284162Y-76918814D01*
X128188864Y-76823516D01*
X128188860Y-76823513D01*
X128188859Y-76823512D01*
X128068765Y-76762321D01*
X128068763Y-76762320D01*
X128068760Y-76762319D01*
X127935641Y-76741236D01*
X127935637Y-76741236D01*
X127802517Y-76762319D01*
X127682417Y-76823513D01*
X127682413Y-76823516D01*
X127587115Y-76918814D01*
X127587112Y-76918818D01*
X127587111Y-76918820D01*
X127533890Y-77023273D01*
X127525918Y-77038918D01*
X127504835Y-77172037D01*
X127504835Y-77172042D01*
X125279953Y-77172042D01*
X125252713Y-77118580D01*
X125252711Y-77118578D01*
X125252708Y-77118574D01*
X125157410Y-77023276D01*
X125157406Y-77023273D01*
X125157405Y-77023272D01*
X125037311Y-76962081D01*
X125037309Y-76962080D01*
X125037306Y-76962079D01*
X124904187Y-76940996D01*
X124904183Y-76940996D01*
X124771063Y-76962079D01*
X124650963Y-77023273D01*
X124650959Y-77023276D01*
X124555661Y-77118574D01*
X124555658Y-77118578D01*
X124494464Y-77238678D01*
X124473381Y-77371797D01*
X124473381Y-77371802D01*
X111260934Y-77371802D01*
X111378183Y-77267929D01*
X111474818Y-77127930D01*
X111535140Y-76968872D01*
X111555645Y-76800000D01*
X111535140Y-76631128D01*
X111527461Y-76610881D01*
X111523335Y-76600002D01*
X115119168Y-76600002D01*
X115140251Y-76733121D01*
X115140252Y-76733124D01*
X115140253Y-76733126D01*
X115201444Y-76853220D01*
X115201445Y-76853221D01*
X115201448Y-76853225D01*
X115296746Y-76948523D01*
X115296750Y-76948526D01*
X115296752Y-76948528D01*
X115416846Y-77009719D01*
X115416848Y-77009719D01*
X115416850Y-77009720D01*
X115549970Y-77030804D01*
X115549972Y-77030804D01*
X115549974Y-77030804D01*
X115683093Y-77009720D01*
X115683093Y-77009719D01*
X115683098Y-77009719D01*
X115803192Y-76948528D01*
X115898500Y-76853220D01*
X115959691Y-76733126D01*
X115960031Y-76730981D01*
X115980776Y-76600002D01*
X115980776Y-76599997D01*
X115959692Y-76466878D01*
X115959691Y-76466876D01*
X115959691Y-76466874D01*
X115898500Y-76346780D01*
X115898498Y-76346778D01*
X115898495Y-76346774D01*
X115803197Y-76251476D01*
X115803193Y-76251473D01*
X115803192Y-76251472D01*
X115683098Y-76190281D01*
X115683096Y-76190280D01*
X115683093Y-76190279D01*
X115549974Y-76169196D01*
X115549970Y-76169196D01*
X115416850Y-76190279D01*
X115416846Y-76190280D01*
X115416846Y-76190281D01*
X115359966Y-76219263D01*
X115296750Y-76251473D01*
X115296746Y-76251476D01*
X115201448Y-76346774D01*
X115201445Y-76346778D01*
X115201444Y-76346780D01*
X115157449Y-76433126D01*
X115140251Y-76466878D01*
X115119168Y-76599997D01*
X115119168Y-76600002D01*
X111523335Y-76600002D01*
X111503812Y-76548523D01*
X111474818Y-76472070D01*
X111471234Y-76466878D01*
X111412085Y-76381186D01*
X111378183Y-76332071D01*
X111250852Y-76219266D01*
X111250849Y-76219263D01*
X111100226Y-76140210D01*
X110935056Y-76099500D01*
X110764944Y-76099500D01*
X110599773Y-76140210D01*
X110449150Y-76219263D01*
X110321816Y-76332072D01*
X110225182Y-76472068D01*
X110164860Y-76631125D01*
X110164859Y-76631130D01*
X110144355Y-76800000D01*
X106377500Y-76800000D01*
X106377500Y-75951500D01*
X106397185Y-75884461D01*
X106449989Y-75838706D01*
X106501500Y-75827500D01*
X121459899Y-75827500D01*
X121526938Y-75847185D01*
G37*
%TD.AperFunction*%
%TD*%
%TA.AperFunction,Conductor*%
%TO.N,+5V*%
G36*
X167700839Y-83107262D02*
G01*
X168309083Y-83194154D01*
X168372664Y-83223122D01*
X168379227Y-83229227D01*
X168613681Y-83463681D01*
X168647166Y-83525004D01*
X168650000Y-83551362D01*
X168650000Y-83958666D01*
X168630315Y-84025705D01*
X168625200Y-84033066D01*
X168378425Y-84362099D01*
X168322454Y-84403920D01*
X168303544Y-84409291D01*
X168082792Y-84453441D01*
X167862039Y-84497592D01*
X167837722Y-84500000D01*
X167650000Y-84500000D01*
X167328590Y-84874977D01*
X167053096Y-85196387D01*
X167046629Y-85203370D01*
X166758683Y-85491317D01*
X166739785Y-85506810D01*
X166481239Y-85679174D01*
X166414540Y-85699982D01*
X166412456Y-85700000D01*
X147249990Y-85700000D01*
X142251250Y-85799975D01*
X142248770Y-85800000D01*
X141208078Y-85800000D01*
X141141039Y-85780315D01*
X141112822Y-85755386D01*
X140650000Y-85200000D01*
X140624709Y-85196387D01*
X140022761Y-85110394D01*
X139959179Y-85081426D01*
X139924192Y-85031179D01*
X139678035Y-84374760D01*
X139672927Y-84305078D01*
X139706302Y-84243697D01*
X140113681Y-83836319D01*
X140175004Y-83802834D01*
X140201362Y-83800000D01*
X140766048Y-83800000D01*
X140833087Y-83819685D01*
X140878842Y-83872489D01*
X140881175Y-83877939D01*
X141041131Y-84277828D01*
X141050000Y-84323879D01*
X141050000Y-84699999D01*
X141150000Y-84900000D01*
X141650000Y-85200000D01*
X145150000Y-85200000D01*
X145150028Y-85200000D01*
X155549376Y-85100006D01*
X155550568Y-85100000D01*
X166250000Y-85100000D01*
X167250000Y-84100000D01*
X167250000Y-83462000D01*
X167269685Y-83394961D01*
X167299600Y-83362800D01*
X167608912Y-83130815D01*
X167674351Y-83106341D01*
X167700839Y-83107262D01*
G37*
%TD.AperFunction*%
%TD*%
M02*
