%TF.GenerationSoftware,KiCad,Pcbnew,8.0.1*%
%TF.CreationDate,2024-08-20T12:32:33+02:00*%
%TF.ProjectId,ESP32_PICO_LED,45535033-325f-4504-9943-4f5f4c45442e,rev?*%
%TF.SameCoordinates,Original*%
%TF.FileFunction,Copper,L3,Inr*%
%TF.FilePolarity,Positive*%
%FSLAX46Y46*%
G04 Gerber Fmt 4.6, Leading zero omitted, Abs format (unit mm)*
G04 Created by KiCad (PCBNEW 8.0.1) date 2024-08-20 12:32:33*
%MOMM*%
%LPD*%
G01*
G04 APERTURE LIST*
%TA.AperFunction,ComponentPad*%
%ADD10C,0.500000*%
%TD*%
%TA.AperFunction,ViaPad*%
%ADD11C,0.450000*%
%TD*%
%TA.AperFunction,ViaPad*%
%ADD12C,1.200000*%
%TD*%
%TA.AperFunction,ViaPad*%
%ADD13C,1.000000*%
%TD*%
%TA.AperFunction,ViaPad*%
%ADD14C,0.600000*%
%TD*%
%TA.AperFunction,Conductor*%
%ADD15C,0.700000*%
%TD*%
G04 APERTURE END LIST*
D10*
%TO.N,GND*%
%TO.C,U4*%
X155950000Y-81150000D03*
X156650000Y-81850000D03*
X155250000Y-81850000D03*
X155950000Y-82550000D03*
%TD*%
D11*
%TO.N,GND*%
X149632784Y-82777216D03*
X111390000Y-82430000D03*
X126250000Y-76100000D03*
X123450006Y-78620000D03*
X118812514Y-79900000D03*
X139050000Y-78775006D03*
X154000000Y-77900000D03*
X139925000Y-80575000D03*
X125150357Y-83600357D03*
X162150000Y-78680000D03*
X162620000Y-77589988D03*
X168980000Y-79540000D03*
X137650028Y-79499986D03*
X112320000Y-82850000D03*
X153250000Y-84500000D03*
X157376074Y-77847103D03*
X134338783Y-81871800D03*
X167731499Y-79187500D03*
X156800000Y-77900002D03*
X170500000Y-84700000D03*
X115290010Y-85350000D03*
X115299986Y-80000000D03*
X146340000Y-78580000D03*
X126450000Y-85700000D03*
X163450000Y-79900000D03*
X158550000Y-84500000D03*
X125050004Y-81400000D03*
X122850000Y-82800000D03*
X129850000Y-76100000D03*
X158650000Y-79100000D03*
X155450000Y-77900000D03*
X154700000Y-77900000D03*
X149450000Y-84600000D03*
X111890000Y-82500000D03*
X168230000Y-79430000D03*
X149250000Y-81828200D03*
X161450000Y-76600000D03*
X124904185Y-77371800D03*
X156150002Y-77900002D03*
X131870001Y-85848000D03*
X146310000Y-77660000D03*
X146250000Y-81400000D03*
X146850000Y-82800000D03*
X164150000Y-78200000D03*
%TO.N,+3.3V*%
X157035947Y-78650000D03*
X132762216Y-78517784D03*
X143098270Y-81257298D03*
X143550000Y-81500000D03*
X124550026Y-76640900D03*
X153850000Y-84100000D03*
X121137500Y-79447498D03*
X122850000Y-81000000D03*
X143565791Y-79713000D03*
X134269417Y-80620000D03*
X144050000Y-79400000D03*
X143550000Y-78900000D03*
X152626167Y-82048200D03*
X129562468Y-83552735D03*
X129250468Y-78728200D03*
X132650002Y-83300000D03*
X127180000Y-81128200D03*
X124150000Y-81900000D03*
X166800000Y-77050000D03*
X144050422Y-81207600D03*
X159570000Y-80470000D03*
X150350000Y-79200000D03*
X142950000Y-79400000D03*
X160650000Y-77590000D03*
X143250000Y-82000000D03*
X146650000Y-84500000D03*
%TO.N,Net-(U2-ADC_AVDD)*%
X131350000Y-76300000D03*
X127935639Y-77172040D03*
D12*
%TO.N,+5V*%
X167950000Y-83800000D03*
D13*
X110850000Y-76800000D03*
D12*
X140625001Y-84150000D03*
D13*
X117550000Y-84700000D03*
D11*
%TO.N,Net-(U4-CHIP_EN)*%
X163310000Y-76600000D03*
X152490000Y-80090000D03*
%TO.N,ESP_STATUS_LED*%
X153647784Y-79537784D03*
X150300000Y-80671800D03*
%TO.N,SWCLK*%
X133820000Y-80250000D03*
%TO.N,SWDIO*%
X133602002Y-79716297D03*
%TO.N,Net-(U2-RUN)*%
X115549972Y-76600000D03*
X120350000Y-78400000D03*
X133749994Y-78836366D03*
X125150000Y-78302777D03*
%TO.N,Net-(U4-U0TXD)*%
X149650000Y-80100000D03*
X159486800Y-82028200D03*
%TO.N,/esp32_wifi_section/IO9*%
X165389786Y-83928200D03*
X152743000Y-83928200D03*
D14*
%TO.N,QSPI_SS*%
X123977442Y-85396800D03*
D11*
X127150000Y-83540900D03*
%TO.N,BUTTON*%
X132070000Y-78410000D03*
X123950000Y-80800010D03*
%TO.N,QSPI_SD3*%
X125204649Y-81976898D03*
X129050000Y-81500000D03*
%TO.N,/UART1_RX*%
X147450000Y-79992400D03*
X131476735Y-82867698D03*
%TO.N,/UART1_TX*%
X159160657Y-82600004D03*
X130780000Y-83040000D03*
%TO.N,MIC_ADC*%
X130649997Y-76864103D03*
X121950000Y-76200000D03*
%TO.N,LED_OUT_1*%
X134050000Y-83100000D03*
%TO.N,LED_OUT_3*%
X133550000Y-85800000D03*
%TO.N,LED_OUT_2*%
X133350000Y-82900000D03*
%TO.N,LED_OUT_4*%
X140257924Y-85816946D03*
%TO.N,/_RPI_USB_P*%
X122958491Y-80108491D03*
X113850000Y-81294850D03*
%TO.N,/_RPI_USB_N*%
X113858207Y-80697490D03*
X122541509Y-79691509D03*
%TD*%
D15*
%TO.N,+5V*%
X140625001Y-84150000D02*
X141200000Y-84150000D01*
X141200000Y-84150000D02*
X142450000Y-85400000D01*
X166350000Y-85400000D02*
X167950000Y-83800000D01*
X142450000Y-85400000D02*
X166350000Y-85400000D01*
%TD*%
%TA.AperFunction,Conductor*%
%TO.N,GND*%
G36*
X157543039Y-77619685D02*
G01*
X157588794Y-77672489D01*
X157600000Y-77724000D01*
X157600000Y-78126000D01*
X157580315Y-78193039D01*
X157527511Y-78238794D01*
X157476000Y-78250000D01*
X157217918Y-78250000D01*
X157179199Y-78240702D01*
X157178357Y-78243297D01*
X157169071Y-78240280D01*
X157035949Y-78219196D01*
X157035945Y-78219196D01*
X156902822Y-78240280D01*
X156893537Y-78243297D01*
X156892694Y-78240702D01*
X156853976Y-78250000D01*
X156300000Y-78250000D01*
X156300000Y-80700000D01*
X155450000Y-80700000D01*
X155450000Y-78200000D01*
X153724000Y-78200000D01*
X153656961Y-78180315D01*
X153611206Y-78127511D01*
X153600000Y-78076000D01*
X153600000Y-77724000D01*
X153619685Y-77656961D01*
X153672489Y-77611206D01*
X153724000Y-77600000D01*
X157476000Y-77600000D01*
X157543039Y-77619685D01*
G37*
%TD.AperFunction*%
%TD*%
%TA.AperFunction,Conductor*%
%TO.N,GND*%
G36*
X121526938Y-75847185D02*
G01*
X121572693Y-75899989D01*
X121582637Y-75969147D01*
X121570385Y-76007791D01*
X121540281Y-76066874D01*
X121540279Y-76066878D01*
X121519196Y-76199997D01*
X121519196Y-76200002D01*
X121540279Y-76333121D01*
X121540280Y-76333124D01*
X121540281Y-76333126D01*
X121591234Y-76433126D01*
X121601473Y-76453221D01*
X121601476Y-76453225D01*
X121696774Y-76548523D01*
X121696778Y-76548526D01*
X121696780Y-76548528D01*
X121816874Y-76609719D01*
X121816876Y-76609719D01*
X121816878Y-76609720D01*
X121949998Y-76630804D01*
X121950000Y-76630804D01*
X121950002Y-76630804D01*
X122083121Y-76609720D01*
X122083121Y-76609719D01*
X122083126Y-76609719D01*
X122203220Y-76548528D01*
X122298528Y-76453220D01*
X122359719Y-76333126D01*
X122363082Y-76311893D01*
X122380804Y-76200002D01*
X122380804Y-76199997D01*
X122359720Y-76066878D01*
X122359719Y-76066876D01*
X122359719Y-76066874D01*
X122329615Y-76007792D01*
X122316720Y-75939125D01*
X122342996Y-75874385D01*
X122400103Y-75834128D01*
X122440101Y-75827500D01*
X130921389Y-75827500D01*
X130988428Y-75847185D01*
X131034183Y-75899989D01*
X131044127Y-75969147D01*
X131015102Y-76032703D01*
X131009070Y-76039181D01*
X131001476Y-76046774D01*
X131001473Y-76046778D01*
X130940279Y-76166878D01*
X130919196Y-76299997D01*
X130919196Y-76300000D01*
X130921080Y-76311893D01*
X130912124Y-76381186D01*
X130867127Y-76434638D01*
X130800376Y-76455277D01*
X130779209Y-76453763D01*
X130650000Y-76433299D01*
X130649995Y-76433299D01*
X130516875Y-76454382D01*
X130396775Y-76515576D01*
X130396771Y-76515579D01*
X130301473Y-76610877D01*
X130301470Y-76610881D01*
X130240276Y-76730981D01*
X130219193Y-76864100D01*
X130219193Y-76864105D01*
X130240276Y-76997224D01*
X130240277Y-76997227D01*
X130240278Y-76997229D01*
X130278225Y-77071704D01*
X130301470Y-77117324D01*
X130301473Y-77117328D01*
X130396771Y-77212626D01*
X130396775Y-77212629D01*
X130396777Y-77212631D01*
X130516871Y-77273822D01*
X130516873Y-77273822D01*
X130516875Y-77273823D01*
X130649995Y-77294907D01*
X130649997Y-77294907D01*
X130649999Y-77294907D01*
X130783118Y-77273823D01*
X130783118Y-77273822D01*
X130783123Y-77273822D01*
X130903217Y-77212631D01*
X130998525Y-77117323D01*
X131059716Y-76997229D01*
X131060953Y-76989423D01*
X131067430Y-76948523D01*
X131080801Y-76864103D01*
X131078917Y-76852210D01*
X131087870Y-76782920D01*
X131132865Y-76729467D01*
X131199616Y-76708825D01*
X131220788Y-76710339D01*
X131349998Y-76730804D01*
X131350000Y-76730804D01*
X131350002Y-76730804D01*
X131483121Y-76709720D01*
X131483121Y-76709719D01*
X131483126Y-76709719D01*
X131603220Y-76648528D01*
X131698528Y-76553220D01*
X131759719Y-76433126D01*
X131766918Y-76387674D01*
X131780804Y-76300002D01*
X131780804Y-76299997D01*
X131759720Y-76166878D01*
X131759719Y-76166876D01*
X131759719Y-76166874D01*
X131698528Y-76046780D01*
X131698526Y-76046778D01*
X131698523Y-76046774D01*
X131690930Y-76039181D01*
X131657445Y-75977858D01*
X131662429Y-75908166D01*
X131704301Y-75852233D01*
X131769765Y-75827816D01*
X131778611Y-75827500D01*
X147026000Y-75827500D01*
X147093039Y-75847185D01*
X147138794Y-75899989D01*
X147150000Y-75951500D01*
X147150000Y-78950000D01*
X149813606Y-78950000D01*
X149880645Y-78969685D01*
X149926400Y-79022489D01*
X149936344Y-79091647D01*
X149936079Y-79093397D01*
X149919196Y-79199996D01*
X149919196Y-79200002D01*
X149940279Y-79333121D01*
X149940280Y-79333124D01*
X149940281Y-79333126D01*
X149998558Y-79447500D01*
X150001473Y-79453221D01*
X150001476Y-79453225D01*
X150096774Y-79548523D01*
X150096778Y-79548526D01*
X150096780Y-79548528D01*
X150216874Y-79609719D01*
X150216876Y-79609719D01*
X150216878Y-79609720D01*
X150349998Y-79630804D01*
X150350000Y-79630804D01*
X150350002Y-79630804D01*
X150483121Y-79609720D01*
X150483121Y-79609719D01*
X150483126Y-79609719D01*
X150603220Y-79548528D01*
X150698528Y-79453220D01*
X150759719Y-79333126D01*
X150762689Y-79314376D01*
X150780804Y-79200002D01*
X150780804Y-79199996D01*
X150763921Y-79093397D01*
X150772876Y-79024104D01*
X150817872Y-78970652D01*
X150884624Y-78950013D01*
X150886394Y-78950000D01*
X153347634Y-78950000D01*
X153414673Y-78969685D01*
X153460428Y-79022489D01*
X153470372Y-79091647D01*
X153441347Y-79155203D01*
X153403931Y-79184482D01*
X153394806Y-79189132D01*
X153394562Y-79189257D01*
X153394558Y-79189260D01*
X153299260Y-79284558D01*
X153299257Y-79284562D01*
X153238063Y-79404662D01*
X153216980Y-79537781D01*
X153216980Y-79537786D01*
X153238063Y-79670905D01*
X153238064Y-79670908D01*
X153238065Y-79670910D01*
X153294147Y-79780977D01*
X153299257Y-79791005D01*
X153299260Y-79791009D01*
X153394558Y-79886307D01*
X153394562Y-79886310D01*
X153394564Y-79886312D01*
X153514658Y-79947503D01*
X153514660Y-79947503D01*
X153514662Y-79947504D01*
X153647782Y-79968588D01*
X153647784Y-79968588D01*
X153647786Y-79968588D01*
X153780905Y-79947504D01*
X153780905Y-79947503D01*
X153780910Y-79947503D01*
X153901004Y-79886312D01*
X153996312Y-79791004D01*
X154057503Y-79670910D01*
X154057504Y-79670905D01*
X154078588Y-79537786D01*
X154078588Y-79537781D01*
X154057504Y-79404662D01*
X154057503Y-79404660D01*
X154057503Y-79404658D01*
X153996312Y-79284564D01*
X153996310Y-79284562D01*
X153996307Y-79284558D01*
X153901009Y-79189260D01*
X153901005Y-79189257D01*
X153901004Y-79189256D01*
X153891637Y-79184483D01*
X153840843Y-79136511D01*
X153824048Y-79068690D01*
X153846585Y-79002555D01*
X153901300Y-78959103D01*
X153947934Y-78950000D01*
X155450000Y-78950000D01*
X155450000Y-80700000D01*
X156300000Y-80700000D01*
X156300000Y-80470002D01*
X159139196Y-80470002D01*
X159160279Y-80603121D01*
X159160280Y-80603124D01*
X159160281Y-80603126D01*
X159221472Y-80723220D01*
X159221473Y-80723221D01*
X159221476Y-80723225D01*
X159316774Y-80818523D01*
X159316778Y-80818526D01*
X159316780Y-80818528D01*
X159436874Y-80879719D01*
X159436876Y-80879719D01*
X159436878Y-80879720D01*
X159569998Y-80900804D01*
X159570000Y-80900804D01*
X159570002Y-80900804D01*
X159703121Y-80879720D01*
X159703121Y-80879719D01*
X159703126Y-80879719D01*
X159823220Y-80818528D01*
X159918528Y-80723220D01*
X159979719Y-80603126D01*
X159980448Y-80598523D01*
X160000804Y-80470002D01*
X160000804Y-80469997D01*
X159979720Y-80336878D01*
X159979719Y-80336876D01*
X159979719Y-80336874D01*
X159918528Y-80216780D01*
X159918526Y-80216778D01*
X159918523Y-80216774D01*
X159823225Y-80121476D01*
X159823221Y-80121473D01*
X159823220Y-80121472D01*
X159703126Y-80060281D01*
X159703124Y-80060280D01*
X159703121Y-80060279D01*
X159570002Y-80039196D01*
X159569998Y-80039196D01*
X159436878Y-80060279D01*
X159436874Y-80060280D01*
X159436874Y-80060281D01*
X159414412Y-80071726D01*
X159316778Y-80121473D01*
X159316774Y-80121476D01*
X159221476Y-80216774D01*
X159221473Y-80216778D01*
X159160279Y-80336878D01*
X159139196Y-80469997D01*
X159139196Y-80470002D01*
X156300000Y-80470002D01*
X156300000Y-78950000D01*
X156682836Y-78950000D01*
X156749875Y-78969685D01*
X156770517Y-78986319D01*
X156782721Y-78998523D01*
X156782725Y-78998526D01*
X156782727Y-78998528D01*
X156902821Y-79059719D01*
X156902823Y-79059719D01*
X156902825Y-79059720D01*
X157035945Y-79080804D01*
X157035947Y-79080804D01*
X157035949Y-79080804D01*
X157169068Y-79059720D01*
X157169068Y-79059719D01*
X157169073Y-79059719D01*
X157289167Y-78998528D01*
X157289172Y-78998523D01*
X157301377Y-78986319D01*
X157362700Y-78952834D01*
X157389058Y-78950000D01*
X160250000Y-78950000D01*
X160250000Y-78066089D01*
X160269685Y-77999050D01*
X160322489Y-77953295D01*
X160391647Y-77943351D01*
X160430291Y-77955602D01*
X160516874Y-77999719D01*
X160516876Y-77999719D01*
X160516878Y-77999720D01*
X160649998Y-78020804D01*
X160650000Y-78020804D01*
X160650002Y-78020804D01*
X160783121Y-77999720D01*
X160783121Y-77999719D01*
X160783126Y-77999719D01*
X160903220Y-77938528D01*
X160998528Y-77843220D01*
X161059719Y-77723126D01*
X161080804Y-77590000D01*
X161069807Y-77520568D01*
X161059720Y-77456878D01*
X161059719Y-77456876D01*
X161059719Y-77456874D01*
X160998528Y-77336780D01*
X160998526Y-77336778D01*
X160998523Y-77336774D01*
X160903225Y-77241476D01*
X160903221Y-77241473D01*
X160903220Y-77241472D01*
X160783126Y-77180281D01*
X160783124Y-77180280D01*
X160783121Y-77180279D01*
X160650002Y-77159196D01*
X160649998Y-77159196D01*
X160516876Y-77180279D01*
X160430294Y-77224395D01*
X160361625Y-77237291D01*
X160296884Y-77211014D01*
X160256628Y-77153907D01*
X160250000Y-77113910D01*
X160250000Y-77050002D01*
X166369196Y-77050002D01*
X166390279Y-77183121D01*
X166390280Y-77183124D01*
X166390281Y-77183126D01*
X166451472Y-77303220D01*
X166451473Y-77303221D01*
X166451476Y-77303225D01*
X166546774Y-77398523D01*
X166546778Y-77398526D01*
X166546780Y-77398528D01*
X166666874Y-77459719D01*
X166666876Y-77459719D01*
X166666878Y-77459720D01*
X166799998Y-77480804D01*
X166800000Y-77480804D01*
X166800002Y-77480804D01*
X166933121Y-77459720D01*
X166933121Y-77459719D01*
X166933126Y-77459719D01*
X167053220Y-77398528D01*
X167148528Y-77303220D01*
X167209719Y-77183126D01*
X167211475Y-77172040D01*
X167230804Y-77050002D01*
X167230804Y-77049997D01*
X167209720Y-76916878D01*
X167209719Y-76916876D01*
X167209719Y-76916874D01*
X167148528Y-76796780D01*
X167148526Y-76796778D01*
X167148523Y-76796774D01*
X167053225Y-76701476D01*
X167053221Y-76701473D01*
X167053220Y-76701472D01*
X166933126Y-76640281D01*
X166933124Y-76640280D01*
X166933121Y-76640279D01*
X166800002Y-76619196D01*
X166799998Y-76619196D01*
X166666878Y-76640279D01*
X166546778Y-76701473D01*
X166546774Y-76701476D01*
X166451476Y-76796774D01*
X166451473Y-76796778D01*
X166390279Y-76916878D01*
X166369196Y-77049997D01*
X166369196Y-77050002D01*
X160250000Y-77050002D01*
X160250000Y-76600002D01*
X162879196Y-76600002D01*
X162900279Y-76733121D01*
X162900280Y-76733124D01*
X162900281Y-76733126D01*
X162961472Y-76853220D01*
X162961473Y-76853221D01*
X162961476Y-76853225D01*
X163056774Y-76948523D01*
X163056778Y-76948526D01*
X163056780Y-76948528D01*
X163176874Y-77009719D01*
X163176876Y-77009719D01*
X163176878Y-77009720D01*
X163309998Y-77030804D01*
X163310000Y-77030804D01*
X163310002Y-77030804D01*
X163443121Y-77009720D01*
X163443121Y-77009719D01*
X163443126Y-77009719D01*
X163563220Y-76948528D01*
X163658528Y-76853220D01*
X163719719Y-76733126D01*
X163720059Y-76730981D01*
X163740804Y-76600002D01*
X163740804Y-76599997D01*
X163719720Y-76466878D01*
X163719719Y-76466876D01*
X163719719Y-76466874D01*
X163658528Y-76346780D01*
X163658526Y-76346778D01*
X163658523Y-76346774D01*
X163563225Y-76251476D01*
X163563221Y-76251473D01*
X163563220Y-76251472D01*
X163443126Y-76190281D01*
X163443124Y-76190280D01*
X163443121Y-76190279D01*
X163310002Y-76169196D01*
X163309998Y-76169196D01*
X163176878Y-76190279D01*
X163176874Y-76190280D01*
X163176874Y-76190281D01*
X163137985Y-76210096D01*
X163056778Y-76251473D01*
X163056774Y-76251476D01*
X162961476Y-76346774D01*
X162961473Y-76346778D01*
X162961472Y-76346780D01*
X162917477Y-76433126D01*
X162900279Y-76466878D01*
X162879196Y-76599997D01*
X162879196Y-76600002D01*
X160250000Y-76600002D01*
X160250000Y-75951500D01*
X160269685Y-75884461D01*
X160322489Y-75838706D01*
X160374000Y-75827500D01*
X173698500Y-75827500D01*
X173765539Y-75847185D01*
X173811294Y-75899989D01*
X173822500Y-75951500D01*
X173822500Y-85948500D01*
X173802815Y-86015539D01*
X173750011Y-86061294D01*
X173698500Y-86072500D01*
X166748971Y-86072500D01*
X166681932Y-86052815D01*
X166636177Y-86000011D01*
X166626233Y-85930853D01*
X166655258Y-85867297D01*
X166681619Y-85845531D01*
X166681564Y-85845460D01*
X166683574Y-85843917D01*
X166686972Y-85841112D01*
X166688015Y-85840510D01*
X167888846Y-84639677D01*
X167950167Y-84606194D01*
X167962630Y-84604141D01*
X168059204Y-84593260D01*
X168129250Y-84585369D01*
X168129253Y-84585368D01*
X168129255Y-84585368D01*
X168299522Y-84525789D01*
X168452262Y-84429816D01*
X168579816Y-84302262D01*
X168675789Y-84149522D01*
X168735368Y-83979255D01*
X168736219Y-83971704D01*
X168755565Y-83800003D01*
X168755565Y-83799996D01*
X168735369Y-83620750D01*
X168735368Y-83620745D01*
X168699584Y-83518481D01*
X168675789Y-83450478D01*
X168674562Y-83448526D01*
X168609158Y-83344435D01*
X168579816Y-83297738D01*
X168452262Y-83170184D01*
X168446994Y-83166874D01*
X168299523Y-83074211D01*
X168129254Y-83014631D01*
X168129249Y-83014630D01*
X167950004Y-82994435D01*
X167949996Y-82994435D01*
X167770750Y-83014630D01*
X167770745Y-83014631D01*
X167600476Y-83074211D01*
X167447737Y-83170184D01*
X167320184Y-83297737D01*
X167224211Y-83450476D01*
X167164631Y-83620745D01*
X167164630Y-83620749D01*
X167145859Y-83787356D01*
X167118793Y-83851769D01*
X167110320Y-83861153D01*
X166158294Y-84813181D01*
X166096971Y-84846666D01*
X166070613Y-84849500D01*
X147151820Y-84849500D01*
X147084781Y-84829815D01*
X147039026Y-84777011D01*
X147029082Y-84707853D01*
X147041333Y-84669209D01*
X147059719Y-84633126D01*
X147075874Y-84531128D01*
X147080804Y-84500002D01*
X147080804Y-84499997D01*
X147059720Y-84366878D01*
X147059719Y-84366876D01*
X147059719Y-84366874D01*
X146998528Y-84246780D01*
X146998526Y-84246778D01*
X146998523Y-84246774D01*
X146903225Y-84151476D01*
X146903221Y-84151473D01*
X146903220Y-84151472D01*
X146783126Y-84090281D01*
X146783124Y-84090280D01*
X146783121Y-84090279D01*
X146650002Y-84069196D01*
X146649998Y-84069196D01*
X146516878Y-84090279D01*
X146516874Y-84090280D01*
X146516874Y-84090281D01*
X146459994Y-84119263D01*
X146396778Y-84151473D01*
X146396774Y-84151476D01*
X146301476Y-84246774D01*
X146301473Y-84246778D01*
X146240279Y-84366878D01*
X146219196Y-84499997D01*
X146219196Y-84500002D01*
X146240279Y-84633121D01*
X146240280Y-84633124D01*
X146240281Y-84633126D01*
X146258665Y-84669207D01*
X146271561Y-84737874D01*
X146245285Y-84802615D01*
X146188178Y-84842872D01*
X146148180Y-84849500D01*
X142729387Y-84849500D01*
X142662348Y-84829815D01*
X142641706Y-84813181D01*
X141756727Y-83928202D01*
X152312196Y-83928202D01*
X152333279Y-84061321D01*
X152333280Y-84061324D01*
X152333281Y-84061326D01*
X152379215Y-84151476D01*
X152394473Y-84181421D01*
X152394476Y-84181425D01*
X152489774Y-84276723D01*
X152489778Y-84276726D01*
X152489780Y-84276728D01*
X152609874Y-84337919D01*
X152609876Y-84337919D01*
X152609878Y-84337920D01*
X152742998Y-84359004D01*
X152743000Y-84359004D01*
X152743002Y-84359004D01*
X152876121Y-84337920D01*
X152876121Y-84337919D01*
X152876126Y-84337919D01*
X152996220Y-84276728D01*
X153091528Y-84181420D01*
X153133013Y-84100002D01*
X153419196Y-84100002D01*
X153440279Y-84233121D01*
X153440280Y-84233124D01*
X153440281Y-84233126D01*
X153501472Y-84353220D01*
X153501473Y-84353221D01*
X153501476Y-84353225D01*
X153596774Y-84448523D01*
X153596778Y-84448526D01*
X153596780Y-84448528D01*
X153716874Y-84509719D01*
X153716876Y-84509719D01*
X153716878Y-84509720D01*
X153849998Y-84530804D01*
X153850000Y-84530804D01*
X153850002Y-84530804D01*
X153983121Y-84509720D01*
X153983121Y-84509719D01*
X153983126Y-84509719D01*
X154103220Y-84448528D01*
X154198528Y-84353220D01*
X154259719Y-84233126D01*
X154267908Y-84181421D01*
X154280804Y-84100002D01*
X154280804Y-84099997D01*
X154259720Y-83966878D01*
X154259719Y-83966876D01*
X154259719Y-83966874D01*
X154240015Y-83928202D01*
X164958982Y-83928202D01*
X164980065Y-84061321D01*
X164980066Y-84061324D01*
X164980067Y-84061326D01*
X165026001Y-84151476D01*
X165041259Y-84181421D01*
X165041262Y-84181425D01*
X165136560Y-84276723D01*
X165136564Y-84276726D01*
X165136566Y-84276728D01*
X165256660Y-84337919D01*
X165256662Y-84337919D01*
X165256664Y-84337920D01*
X165389784Y-84359004D01*
X165389786Y-84359004D01*
X165389788Y-84359004D01*
X165522907Y-84337920D01*
X165522907Y-84337919D01*
X165522912Y-84337919D01*
X165643006Y-84276728D01*
X165738314Y-84181420D01*
X165799505Y-84061326D01*
X165799506Y-84061321D01*
X165820590Y-83928202D01*
X165820590Y-83928197D01*
X165799506Y-83795078D01*
X165799505Y-83795076D01*
X165799505Y-83795074D01*
X165738314Y-83674980D01*
X165738312Y-83674978D01*
X165738309Y-83674974D01*
X165643011Y-83579676D01*
X165643007Y-83579673D01*
X165643006Y-83579672D01*
X165522912Y-83518481D01*
X165522910Y-83518480D01*
X165522907Y-83518479D01*
X165389788Y-83497396D01*
X165389784Y-83497396D01*
X165256664Y-83518479D01*
X165136564Y-83579673D01*
X165136560Y-83579676D01*
X165041262Y-83674974D01*
X165041259Y-83674978D01*
X164980065Y-83795078D01*
X164958982Y-83928197D01*
X164958982Y-83928202D01*
X154240015Y-83928202D01*
X154198528Y-83846780D01*
X154198526Y-83846778D01*
X154198523Y-83846774D01*
X154103225Y-83751476D01*
X154103221Y-83751473D01*
X154103220Y-83751472D01*
X153983126Y-83690281D01*
X153983124Y-83690280D01*
X153983121Y-83690279D01*
X153850002Y-83669196D01*
X153849998Y-83669196D01*
X153716878Y-83690279D01*
X153596778Y-83751473D01*
X153596774Y-83751476D01*
X153501476Y-83846774D01*
X153501473Y-83846778D01*
X153440279Y-83966878D01*
X153419196Y-84099997D01*
X153419196Y-84100002D01*
X153133013Y-84100002D01*
X153152719Y-84061326D01*
X153152720Y-84061321D01*
X153173804Y-83928202D01*
X153173804Y-83928197D01*
X153152720Y-83795078D01*
X153152719Y-83795076D01*
X153152719Y-83795074D01*
X153091528Y-83674980D01*
X153091526Y-83674978D01*
X153091523Y-83674974D01*
X152996225Y-83579676D01*
X152996221Y-83579673D01*
X152996220Y-83579672D01*
X152876126Y-83518481D01*
X152876124Y-83518480D01*
X152876121Y-83518479D01*
X152743002Y-83497396D01*
X152742998Y-83497396D01*
X152609878Y-83518479D01*
X152489778Y-83579673D01*
X152489774Y-83579676D01*
X152394476Y-83674974D01*
X152394473Y-83674978D01*
X152333279Y-83795078D01*
X152312196Y-83928197D01*
X152312196Y-83928202D01*
X141756727Y-83928202D01*
X141538016Y-83709491D01*
X141538015Y-83709490D01*
X141412485Y-83637016D01*
X141412480Y-83637014D01*
X141376972Y-83627499D01*
X141376972Y-83627500D01*
X141324723Y-83613500D01*
X141272475Y-83599500D01*
X141272474Y-83599500D01*
X141257941Y-83599500D01*
X141190902Y-83579815D01*
X141170260Y-83563181D01*
X141127263Y-83520184D01*
X140974524Y-83424211D01*
X140804255Y-83364631D01*
X140804250Y-83364630D01*
X140625005Y-83344435D01*
X140624997Y-83344435D01*
X140445751Y-83364630D01*
X140445746Y-83364631D01*
X140275477Y-83424211D01*
X140122738Y-83520184D01*
X139995185Y-83647737D01*
X139899212Y-83800476D01*
X139839632Y-83970745D01*
X139839631Y-83970750D01*
X139819436Y-84149996D01*
X139819436Y-84150003D01*
X139839631Y-84329249D01*
X139839632Y-84329254D01*
X139899212Y-84499523D01*
X139983158Y-84633121D01*
X139995185Y-84652262D01*
X140122739Y-84779816D01*
X140169394Y-84809131D01*
X140264470Y-84868872D01*
X140275479Y-84875789D01*
X140445740Y-84935366D01*
X140445746Y-84935368D01*
X140445751Y-84935369D01*
X140624997Y-84955565D01*
X140625001Y-84955565D01*
X140625005Y-84955565D01*
X140804250Y-84935369D01*
X140804252Y-84935368D01*
X140804256Y-84935368D01*
X140804259Y-84935366D01*
X140804263Y-84935366D01*
X140855301Y-84917506D01*
X140974523Y-84875789D01*
X140996875Y-84861743D01*
X141064111Y-84842742D01*
X141130946Y-84863108D01*
X141150530Y-84879055D01*
X142111985Y-85840510D01*
X142113028Y-85841112D01*
X142113731Y-85841850D01*
X142118436Y-85845460D01*
X142117873Y-85846193D01*
X142161244Y-85891678D01*
X142174468Y-85960285D01*
X142148501Y-86025150D01*
X142091587Y-86065680D01*
X142051029Y-86072500D01*
X140793438Y-86072500D01*
X140726399Y-86052815D01*
X140680644Y-86000011D01*
X140670700Y-85930853D01*
X140670965Y-85929103D01*
X140688728Y-85816949D01*
X140688728Y-85816943D01*
X140667644Y-85683824D01*
X140667643Y-85683822D01*
X140667643Y-85683820D01*
X140606452Y-85563726D01*
X140606450Y-85563724D01*
X140606447Y-85563720D01*
X140511149Y-85468422D01*
X140511145Y-85468419D01*
X140511144Y-85468418D01*
X140391050Y-85407227D01*
X140391048Y-85407226D01*
X140391045Y-85407225D01*
X140257926Y-85386142D01*
X140257922Y-85386142D01*
X140124802Y-85407225D01*
X140004702Y-85468419D01*
X140004698Y-85468422D01*
X139909400Y-85563720D01*
X139909397Y-85563724D01*
X139909396Y-85563726D01*
X139855159Y-85670173D01*
X139848203Y-85683824D01*
X139827120Y-85816943D01*
X139827120Y-85816949D01*
X139844883Y-85929103D01*
X139835928Y-85998396D01*
X139790932Y-86051848D01*
X139724180Y-86072487D01*
X139722410Y-86072500D01*
X134082830Y-86072500D01*
X134015791Y-86052815D01*
X133970036Y-86000011D01*
X133960092Y-85930853D01*
X133960357Y-85929102D01*
X133980804Y-85800002D01*
X133980804Y-85799997D01*
X133959720Y-85666878D01*
X133959719Y-85666876D01*
X133959719Y-85666874D01*
X133898528Y-85546780D01*
X133898526Y-85546778D01*
X133898523Y-85546774D01*
X133803225Y-85451476D01*
X133803221Y-85451473D01*
X133803220Y-85451472D01*
X133683126Y-85390281D01*
X133683124Y-85390280D01*
X133683121Y-85390279D01*
X133550002Y-85369196D01*
X133549998Y-85369196D01*
X133416878Y-85390279D01*
X133296778Y-85451473D01*
X133296774Y-85451476D01*
X133201476Y-85546774D01*
X133201473Y-85546778D01*
X133140279Y-85666878D01*
X133119196Y-85799997D01*
X133119196Y-85800002D01*
X133139643Y-85929102D01*
X133130688Y-85998396D01*
X133085692Y-86051848D01*
X133018940Y-86072487D01*
X133017170Y-86072500D01*
X124274091Y-86072500D01*
X124207052Y-86052815D01*
X124161297Y-86000011D01*
X124151353Y-85930853D01*
X124180378Y-85867297D01*
X124207049Y-85844185D01*
X124308570Y-85778943D01*
X124402819Y-85670173D01*
X124462607Y-85539257D01*
X124483089Y-85396800D01*
X124462607Y-85254343D01*
X124402819Y-85123427D01*
X124308570Y-85014657D01*
X124187495Y-84936847D01*
X124187493Y-84936846D01*
X124187491Y-84936845D01*
X124187492Y-84936845D01*
X124049405Y-84896300D01*
X124049403Y-84896300D01*
X123905481Y-84896300D01*
X123905478Y-84896300D01*
X123767391Y-84936845D01*
X123646315Y-85014656D01*
X123552065Y-85123426D01*
X123552064Y-85123428D01*
X123492276Y-85254343D01*
X123471795Y-85396800D01*
X123492276Y-85539256D01*
X123550558Y-85666874D01*
X123552065Y-85670173D01*
X123646314Y-85778943D01*
X123747832Y-85844185D01*
X123793587Y-85896988D01*
X123803531Y-85966147D01*
X123774506Y-86029702D01*
X123715728Y-86067477D01*
X123680793Y-86072500D01*
X106501500Y-86072500D01*
X106434461Y-86052815D01*
X106388706Y-86000011D01*
X106377500Y-85948500D01*
X106377500Y-84700000D01*
X116844355Y-84700000D01*
X116864859Y-84868869D01*
X116864860Y-84868874D01*
X116925182Y-85027931D01*
X116987475Y-85118177D01*
X117021817Y-85167929D01*
X117119359Y-85254343D01*
X117149150Y-85280736D01*
X117299773Y-85359789D01*
X117299775Y-85359790D01*
X117464944Y-85400500D01*
X117635056Y-85400500D01*
X117800225Y-85359790D01*
X117879692Y-85318081D01*
X117950849Y-85280736D01*
X117950850Y-85280734D01*
X117950852Y-85280734D01*
X118078183Y-85167929D01*
X118174818Y-85027930D01*
X118235140Y-84868872D01*
X118255645Y-84700000D01*
X118235140Y-84531128D01*
X118174818Y-84372070D01*
X118171234Y-84366878D01*
X118126633Y-84302262D01*
X118078183Y-84232071D01*
X117950852Y-84119266D01*
X117950849Y-84119263D01*
X117800226Y-84040210D01*
X117635056Y-83999500D01*
X117464944Y-83999500D01*
X117299773Y-84040210D01*
X117149150Y-84119263D01*
X117021816Y-84232072D01*
X116925182Y-84372068D01*
X116864860Y-84531125D01*
X116864859Y-84531130D01*
X116844355Y-84700000D01*
X106377500Y-84700000D01*
X106377500Y-83540902D01*
X126719196Y-83540902D01*
X126740279Y-83674021D01*
X126740280Y-83674024D01*
X126740281Y-83674026D01*
X126779744Y-83751476D01*
X126801473Y-83794121D01*
X126801476Y-83794125D01*
X126896774Y-83889423D01*
X126896778Y-83889426D01*
X126896780Y-83889428D01*
X127016874Y-83950619D01*
X127016876Y-83950619D01*
X127016878Y-83950620D01*
X127149998Y-83971704D01*
X127150000Y-83971704D01*
X127150002Y-83971704D01*
X127283121Y-83950620D01*
X127283121Y-83950619D01*
X127283126Y-83950619D01*
X127403220Y-83889428D01*
X127498528Y-83794120D01*
X127559719Y-83674026D01*
X127560484Y-83669196D01*
X127578929Y-83552737D01*
X129131664Y-83552737D01*
X129152747Y-83685856D01*
X129152748Y-83685859D01*
X129152749Y-83685861D01*
X129213940Y-83805955D01*
X129213941Y-83805956D01*
X129213944Y-83805960D01*
X129309242Y-83901258D01*
X129309246Y-83901261D01*
X129309248Y-83901263D01*
X129429342Y-83962454D01*
X129429344Y-83962454D01*
X129429346Y-83962455D01*
X129562466Y-83983539D01*
X129562468Y-83983539D01*
X129562470Y-83983539D01*
X129695589Y-83962455D01*
X129695589Y-83962454D01*
X129695594Y-83962454D01*
X129815688Y-83901263D01*
X129910996Y-83805955D01*
X129972187Y-83685861D01*
X129972188Y-83685856D01*
X129993272Y-83552737D01*
X129993272Y-83552732D01*
X129972188Y-83419613D01*
X129972187Y-83419611D01*
X129972187Y-83419609D01*
X129910996Y-83299515D01*
X129910994Y-83299513D01*
X129910991Y-83299509D01*
X129815693Y-83204211D01*
X129815689Y-83204208D01*
X129815688Y-83204207D01*
X129695594Y-83143016D01*
X129695592Y-83143015D01*
X129695589Y-83143014D01*
X129562470Y-83121931D01*
X129562466Y-83121931D01*
X129429346Y-83143014D01*
X129309246Y-83204208D01*
X129309242Y-83204211D01*
X129213944Y-83299509D01*
X129213941Y-83299513D01*
X129152747Y-83419613D01*
X129131664Y-83552732D01*
X129131664Y-83552737D01*
X127578929Y-83552737D01*
X127580804Y-83540902D01*
X127580804Y-83540897D01*
X127559720Y-83407778D01*
X127559719Y-83407776D01*
X127559719Y-83407774D01*
X127498528Y-83287680D01*
X127498526Y-83287678D01*
X127498523Y-83287674D01*
X127403225Y-83192376D01*
X127403221Y-83192373D01*
X127403220Y-83192372D01*
X127283126Y-83131181D01*
X127283124Y-83131180D01*
X127283121Y-83131179D01*
X127150002Y-83110096D01*
X127149998Y-83110096D01*
X127016878Y-83131179D01*
X127016874Y-83131180D01*
X127016874Y-83131181D01*
X126993647Y-83143016D01*
X126896778Y-83192373D01*
X126896774Y-83192376D01*
X126801476Y-83287674D01*
X126801473Y-83287678D01*
X126740279Y-83407778D01*
X126719196Y-83540897D01*
X126719196Y-83540902D01*
X106377500Y-83540902D01*
X106377500Y-83040002D01*
X130349196Y-83040002D01*
X130370279Y-83173121D01*
X130370280Y-83173124D01*
X130370281Y-83173126D01*
X130431472Y-83293220D01*
X130431473Y-83293221D01*
X130431476Y-83293225D01*
X130526774Y-83388523D01*
X130526778Y-83388526D01*
X130526780Y-83388528D01*
X130646874Y-83449719D01*
X130646876Y-83449719D01*
X130646878Y-83449720D01*
X130779998Y-83470804D01*
X130780000Y-83470804D01*
X130780002Y-83470804D01*
X130913121Y-83449720D01*
X130913121Y-83449719D01*
X130913126Y-83449719D01*
X131033220Y-83388528D01*
X131121746Y-83300002D01*
X132219198Y-83300002D01*
X132240281Y-83433121D01*
X132240282Y-83433124D01*
X132240283Y-83433126D01*
X132301227Y-83552735D01*
X132301475Y-83553221D01*
X132301478Y-83553225D01*
X132396776Y-83648523D01*
X132396780Y-83648526D01*
X132396782Y-83648528D01*
X132516876Y-83709719D01*
X132516878Y-83709719D01*
X132516880Y-83709720D01*
X132650000Y-83730804D01*
X132650002Y-83730804D01*
X132650004Y-83730804D01*
X132783123Y-83709720D01*
X132783123Y-83709719D01*
X132783128Y-83709719D01*
X132903222Y-83648528D01*
X132998530Y-83553220D01*
X133059721Y-83433126D01*
X133063289Y-83410594D01*
X133093218Y-83347460D01*
X133152529Y-83310529D01*
X133206742Y-83311301D01*
X133207235Y-83308193D01*
X133349998Y-83330804D01*
X133350000Y-83330804D01*
X133350002Y-83330804D01*
X133483122Y-83309720D01*
X133483123Y-83309719D01*
X133483126Y-83309719D01*
X133528388Y-83286656D01*
X133597055Y-83273760D01*
X133661796Y-83300036D01*
X133695165Y-83340843D01*
X133701470Y-83353217D01*
X133701476Y-83353225D01*
X133796774Y-83448523D01*
X133796778Y-83448526D01*
X133796780Y-83448528D01*
X133916874Y-83509719D01*
X133916876Y-83509719D01*
X133916878Y-83509720D01*
X134049998Y-83530804D01*
X134050000Y-83530804D01*
X134050002Y-83530804D01*
X134183121Y-83509720D01*
X134183121Y-83509719D01*
X134183126Y-83509719D01*
X134303220Y-83448528D01*
X134398528Y-83353220D01*
X134459719Y-83233126D01*
X134462396Y-83216224D01*
X134480804Y-83100002D01*
X134480804Y-83099997D01*
X134459720Y-82966878D01*
X134459719Y-82966876D01*
X134459719Y-82966874D01*
X134398528Y-82846780D01*
X134398526Y-82846778D01*
X134398523Y-82846774D01*
X134303225Y-82751476D01*
X134303221Y-82751473D01*
X134303220Y-82751472D01*
X134183126Y-82690281D01*
X134183124Y-82690280D01*
X134183121Y-82690279D01*
X134050002Y-82669196D01*
X134049998Y-82669196D01*
X133916877Y-82690279D01*
X133871610Y-82713344D01*
X133802941Y-82726239D01*
X133738201Y-82699962D01*
X133704833Y-82659154D01*
X133703576Y-82656687D01*
X133698528Y-82646780D01*
X133698525Y-82646777D01*
X133698523Y-82646774D01*
X133651755Y-82600006D01*
X158729853Y-82600006D01*
X158750936Y-82733125D01*
X158750937Y-82733128D01*
X158750938Y-82733130D01*
X158808843Y-82846774D01*
X158812130Y-82853225D01*
X158812133Y-82853229D01*
X158907431Y-82948527D01*
X158907435Y-82948530D01*
X158907437Y-82948532D01*
X159027531Y-83009723D01*
X159027533Y-83009723D01*
X159027535Y-83009724D01*
X159160655Y-83030808D01*
X159160657Y-83030808D01*
X159160659Y-83030808D01*
X159293778Y-83009724D01*
X159293778Y-83009723D01*
X159293783Y-83009723D01*
X159413877Y-82948532D01*
X159509185Y-82853224D01*
X159570376Y-82733130D01*
X159571124Y-82728408D01*
X159591461Y-82600006D01*
X159591461Y-82600003D01*
X159583925Y-82552425D01*
X159592879Y-82483131D01*
X159637875Y-82429679D01*
X159650083Y-82422553D01*
X159740020Y-82376728D01*
X159835328Y-82281420D01*
X159896519Y-82161326D01*
X159897803Y-82153219D01*
X159917604Y-82028202D01*
X159917604Y-82028197D01*
X159896520Y-81895078D01*
X159896519Y-81895076D01*
X159896519Y-81895074D01*
X159835328Y-81774980D01*
X159835326Y-81774978D01*
X159835323Y-81774974D01*
X159740025Y-81679676D01*
X159740021Y-81679673D01*
X159740020Y-81679672D01*
X159619926Y-81618481D01*
X159619924Y-81618480D01*
X159619921Y-81618479D01*
X159486802Y-81597396D01*
X159486798Y-81597396D01*
X159353678Y-81618479D01*
X159233578Y-81679673D01*
X159233574Y-81679676D01*
X159138276Y-81774974D01*
X159138273Y-81774978D01*
X159077079Y-81895078D01*
X159055996Y-82028197D01*
X159055996Y-82028203D01*
X159063531Y-82075779D01*
X159054576Y-82145072D01*
X159009580Y-82198524D01*
X158997354Y-82205660D01*
X158907438Y-82251475D01*
X158907431Y-82251480D01*
X158812133Y-82346778D01*
X158812130Y-82346782D01*
X158750936Y-82466882D01*
X158729853Y-82600001D01*
X158729853Y-82600006D01*
X133651755Y-82600006D01*
X133603225Y-82551476D01*
X133603221Y-82551473D01*
X133603220Y-82551472D01*
X133483126Y-82490281D01*
X133483124Y-82490280D01*
X133483121Y-82490279D01*
X133350002Y-82469196D01*
X133349998Y-82469196D01*
X133216878Y-82490279D01*
X133096778Y-82551473D01*
X133096774Y-82551476D01*
X133001476Y-82646774D01*
X133001473Y-82646778D01*
X133001472Y-82646780D01*
X132940281Y-82766874D01*
X132940280Y-82766875D01*
X132940280Y-82766877D01*
X132936711Y-82789408D01*
X132906780Y-82852542D01*
X132847468Y-82889472D01*
X132793259Y-82888696D01*
X132792767Y-82891807D01*
X132650004Y-82869196D01*
X132650000Y-82869196D01*
X132516880Y-82890279D01*
X132396780Y-82951473D01*
X132396776Y-82951476D01*
X132301478Y-83046774D01*
X132301475Y-83046778D01*
X132240281Y-83166878D01*
X132219198Y-83299997D01*
X132219198Y-83300002D01*
X131121746Y-83300002D01*
X131128528Y-83293220D01*
X131128532Y-83293212D01*
X131132765Y-83287387D01*
X131188094Y-83244720D01*
X131257708Y-83238739D01*
X131289374Y-83249783D01*
X131343609Y-83277417D01*
X131343611Y-83277417D01*
X131343613Y-83277418D01*
X131476733Y-83298502D01*
X131476735Y-83298502D01*
X131476737Y-83298502D01*
X131609856Y-83277418D01*
X131609856Y-83277417D01*
X131609861Y-83277417D01*
X131729955Y-83216226D01*
X131825263Y-83120918D01*
X131886454Y-83000824D01*
X131887466Y-82994435D01*
X131907539Y-82867700D01*
X131907539Y-82867695D01*
X131886455Y-82734576D01*
X131886454Y-82734574D01*
X131886454Y-82734572D01*
X131825263Y-82614478D01*
X131825261Y-82614476D01*
X131825258Y-82614472D01*
X131729960Y-82519174D01*
X131729956Y-82519171D01*
X131729955Y-82519170D01*
X131609861Y-82457979D01*
X131609859Y-82457978D01*
X131609856Y-82457977D01*
X131476737Y-82436894D01*
X131476733Y-82436894D01*
X131343613Y-82457977D01*
X131223513Y-82519171D01*
X131223509Y-82519174D01*
X131128206Y-82614477D01*
X131123965Y-82620315D01*
X131068634Y-82662979D01*
X130999020Y-82668957D01*
X130967355Y-82657912D01*
X130913123Y-82630279D01*
X130780002Y-82609196D01*
X130779998Y-82609196D01*
X130646878Y-82630279D01*
X130526778Y-82691473D01*
X130526774Y-82691476D01*
X130431476Y-82786774D01*
X130431473Y-82786778D01*
X130431472Y-82786780D01*
X130373784Y-82900000D01*
X130370279Y-82906878D01*
X130349196Y-83039997D01*
X130349196Y-83040002D01*
X106377500Y-83040002D01*
X106377500Y-81900002D01*
X123719196Y-81900002D01*
X123740279Y-82033121D01*
X123740280Y-82033124D01*
X123740281Y-82033126D01*
X123801472Y-82153220D01*
X123801473Y-82153221D01*
X123801476Y-82153225D01*
X123896774Y-82248523D01*
X123896778Y-82248526D01*
X123896780Y-82248528D01*
X124016874Y-82309719D01*
X124016876Y-82309719D01*
X124016878Y-82309720D01*
X124149998Y-82330804D01*
X124150000Y-82330804D01*
X124150002Y-82330804D01*
X124283121Y-82309720D01*
X124283121Y-82309719D01*
X124283126Y-82309719D01*
X124403220Y-82248528D01*
X124498528Y-82153220D01*
X124556606Y-82039233D01*
X124604576Y-81988442D01*
X124672397Y-81971646D01*
X124738532Y-81994183D01*
X124781984Y-82048897D01*
X124789561Y-82076132D01*
X124794928Y-82110020D01*
X124794929Y-82110023D01*
X124794930Y-82110024D01*
X124831260Y-82181326D01*
X124856122Y-82230119D01*
X124856125Y-82230123D01*
X124951423Y-82325421D01*
X124951427Y-82325424D01*
X124951429Y-82325426D01*
X125071523Y-82386617D01*
X125071525Y-82386617D01*
X125071527Y-82386618D01*
X125204647Y-82407702D01*
X125204649Y-82407702D01*
X125204651Y-82407702D01*
X125337770Y-82386618D01*
X125337770Y-82386617D01*
X125337775Y-82386617D01*
X125457869Y-82325426D01*
X125553177Y-82230118D01*
X125614368Y-82110024D01*
X125624160Y-82048200D01*
X125635453Y-81976900D01*
X125635453Y-81976895D01*
X125614369Y-81843776D01*
X125614368Y-81843774D01*
X125614368Y-81843772D01*
X125553177Y-81723678D01*
X125553175Y-81723676D01*
X125553172Y-81723672D01*
X125457874Y-81628374D01*
X125457870Y-81628371D01*
X125457869Y-81628370D01*
X125337775Y-81567179D01*
X125337773Y-81567178D01*
X125337770Y-81567177D01*
X125204651Y-81546094D01*
X125204647Y-81546094D01*
X125071527Y-81567177D01*
X124951427Y-81628371D01*
X124951423Y-81628374D01*
X124856125Y-81723672D01*
X124856122Y-81723676D01*
X124856121Y-81723678D01*
X124798043Y-81837661D01*
X124750070Y-81888456D01*
X124682250Y-81905251D01*
X124616115Y-81882714D01*
X124572663Y-81827999D01*
X124565087Y-81800762D01*
X124559720Y-81766878D01*
X124559719Y-81766876D01*
X124559719Y-81766874D01*
X124498528Y-81646780D01*
X124498526Y-81646778D01*
X124498523Y-81646774D01*
X124403225Y-81551476D01*
X124403221Y-81551473D01*
X124403220Y-81551472D01*
X124283126Y-81490281D01*
X124283124Y-81490280D01*
X124283121Y-81490279D01*
X124150002Y-81469196D01*
X124149998Y-81469196D01*
X124016878Y-81490279D01*
X124016874Y-81490280D01*
X124016874Y-81490281D01*
X123977157Y-81510518D01*
X123896778Y-81551473D01*
X123896774Y-81551476D01*
X123801476Y-81646774D01*
X123801473Y-81646778D01*
X123801472Y-81646780D01*
X123762292Y-81723676D01*
X123740279Y-81766878D01*
X123719196Y-81899997D01*
X123719196Y-81900002D01*
X106377500Y-81900002D01*
X106377500Y-81294852D01*
X113419196Y-81294852D01*
X113440279Y-81427971D01*
X113440280Y-81427974D01*
X113440281Y-81427976D01*
X113501472Y-81548070D01*
X113501473Y-81548071D01*
X113501476Y-81548075D01*
X113596774Y-81643373D01*
X113596778Y-81643376D01*
X113596780Y-81643378D01*
X113716874Y-81704569D01*
X113716876Y-81704569D01*
X113716878Y-81704570D01*
X113849998Y-81725654D01*
X113850000Y-81725654D01*
X113850002Y-81725654D01*
X113983121Y-81704570D01*
X113983121Y-81704569D01*
X113983126Y-81704569D01*
X114103220Y-81643378D01*
X114198528Y-81548070D01*
X114259719Y-81427976D01*
X114259720Y-81427971D01*
X114280804Y-81294852D01*
X114280804Y-81294847D01*
X114259720Y-81161728D01*
X114259719Y-81161726D01*
X114259719Y-81161724D01*
X114208150Y-81060515D01*
X114195255Y-80991849D01*
X114208148Y-80947934D01*
X114267926Y-80830616D01*
X114269841Y-80818526D01*
X114289011Y-80697492D01*
X114289011Y-80697487D01*
X114267927Y-80564368D01*
X114267926Y-80564366D01*
X114267926Y-80564364D01*
X114206735Y-80444270D01*
X114206733Y-80444268D01*
X114206730Y-80444264D01*
X114111432Y-80348966D01*
X114111428Y-80348963D01*
X114111427Y-80348962D01*
X113991333Y-80287771D01*
X113991331Y-80287770D01*
X113991328Y-80287769D01*
X113858209Y-80266686D01*
X113858205Y-80266686D01*
X113725085Y-80287769D01*
X113604985Y-80348963D01*
X113604981Y-80348966D01*
X113509683Y-80444264D01*
X113509680Y-80444268D01*
X113448486Y-80564368D01*
X113427403Y-80697487D01*
X113427403Y-80697492D01*
X113448486Y-80830611D01*
X113448487Y-80830614D01*
X113448488Y-80830616D01*
X113496590Y-80925021D01*
X113500055Y-80931821D01*
X113512951Y-81000491D01*
X113500055Y-81044410D01*
X113440279Y-81161726D01*
X113419196Y-81294847D01*
X113419196Y-81294852D01*
X106377500Y-81294852D01*
X106377500Y-79447500D01*
X120706696Y-79447500D01*
X120727779Y-79580619D01*
X120727780Y-79580622D01*
X120727781Y-79580624D01*
X120788972Y-79700718D01*
X120788973Y-79700719D01*
X120788976Y-79700723D01*
X120884274Y-79796021D01*
X120884278Y-79796024D01*
X120884280Y-79796026D01*
X121004374Y-79857217D01*
X121004376Y-79857217D01*
X121004378Y-79857218D01*
X121137498Y-79878302D01*
X121137500Y-79878302D01*
X121137502Y-79878302D01*
X121270621Y-79857218D01*
X121270621Y-79857217D01*
X121270626Y-79857217D01*
X121390720Y-79796026D01*
X121486028Y-79700718D01*
X121490719Y-79691511D01*
X122110705Y-79691511D01*
X122131788Y-79824630D01*
X122131789Y-79824633D01*
X122131790Y-79824635D01*
X122192981Y-79944729D01*
X122192982Y-79944730D01*
X122192985Y-79944734D01*
X122288283Y-80040032D01*
X122288287Y-80040035D01*
X122288289Y-80040037D01*
X122408383Y-80101228D01*
X122440594Y-80106329D01*
X122503728Y-80136258D01*
X122540660Y-80195570D01*
X122543669Y-80209404D01*
X122548770Y-80241614D01*
X122559198Y-80262079D01*
X122609963Y-80361711D01*
X122609965Y-80361713D01*
X122609967Y-80361716D01*
X122676785Y-80428534D01*
X122710270Y-80489857D01*
X122705286Y-80559549D01*
X122663414Y-80615482D01*
X122645404Y-80626696D01*
X122596780Y-80651472D01*
X122596779Y-80651473D01*
X122596774Y-80651476D01*
X122501476Y-80746774D01*
X122501473Y-80746778D01*
X122440279Y-80866878D01*
X122419196Y-80999997D01*
X122419196Y-81000002D01*
X122440279Y-81133121D01*
X122440280Y-81133124D01*
X122440281Y-81133126D01*
X122479313Y-81209730D01*
X122501473Y-81253221D01*
X122501476Y-81253225D01*
X122596774Y-81348523D01*
X122596778Y-81348526D01*
X122596780Y-81348528D01*
X122716874Y-81409719D01*
X122716876Y-81409719D01*
X122716878Y-81409720D01*
X122849998Y-81430804D01*
X122850000Y-81430804D01*
X122850002Y-81430804D01*
X122983121Y-81409720D01*
X122983121Y-81409719D01*
X122983126Y-81409719D01*
X123103220Y-81348528D01*
X123198528Y-81253220D01*
X123259719Y-81133126D01*
X123266505Y-81090281D01*
X123280804Y-81000002D01*
X123280804Y-80999997D01*
X123259720Y-80866878D01*
X123259719Y-80866876D01*
X123259719Y-80866874D01*
X123225651Y-80800012D01*
X123519196Y-80800012D01*
X123540279Y-80933131D01*
X123540280Y-80933134D01*
X123540281Y-80933136D01*
X123600236Y-81050804D01*
X123601473Y-81053231D01*
X123601476Y-81053235D01*
X123696774Y-81148533D01*
X123696778Y-81148536D01*
X123696780Y-81148538D01*
X123816874Y-81209729D01*
X123816876Y-81209729D01*
X123816878Y-81209730D01*
X123949998Y-81230814D01*
X123950000Y-81230814D01*
X123950002Y-81230814D01*
X124083121Y-81209730D01*
X124083121Y-81209729D01*
X124083126Y-81209729D01*
X124203220Y-81148538D01*
X124223556Y-81128202D01*
X126749196Y-81128202D01*
X126770279Y-81261321D01*
X126770280Y-81261324D01*
X126770281Y-81261326D01*
X126831472Y-81381420D01*
X126831473Y-81381421D01*
X126831476Y-81381425D01*
X126926774Y-81476723D01*
X126926778Y-81476726D01*
X126926780Y-81476728D01*
X127046874Y-81537919D01*
X127046876Y-81537919D01*
X127046878Y-81537920D01*
X127179998Y-81559004D01*
X127180000Y-81559004D01*
X127180002Y-81559004D01*
X127313121Y-81537920D01*
X127313121Y-81537919D01*
X127313126Y-81537919D01*
X127387542Y-81500002D01*
X128619196Y-81500002D01*
X128640279Y-81633121D01*
X128640280Y-81633124D01*
X128640281Y-81633126D01*
X128701472Y-81753220D01*
X128701473Y-81753221D01*
X128701476Y-81753225D01*
X128796774Y-81848523D01*
X128796778Y-81848526D01*
X128796780Y-81848528D01*
X128916874Y-81909719D01*
X128916876Y-81909719D01*
X128916878Y-81909720D01*
X129049998Y-81930804D01*
X129050000Y-81930804D01*
X129050002Y-81930804D01*
X129183121Y-81909720D01*
X129183121Y-81909719D01*
X129183126Y-81909719D01*
X129303220Y-81848528D01*
X129398528Y-81753220D01*
X129459719Y-81633126D01*
X129462039Y-81618479D01*
X129480804Y-81500002D01*
X129480804Y-81499997D01*
X129459720Y-81366878D01*
X129459719Y-81366876D01*
X129459719Y-81366874D01*
X129403888Y-81257300D01*
X142667466Y-81257300D01*
X142688549Y-81390419D01*
X142688550Y-81390422D01*
X142688551Y-81390424D01*
X142744383Y-81500000D01*
X142749743Y-81510519D01*
X142749746Y-81510523D01*
X142845044Y-81605821D01*
X142845047Y-81605823D01*
X142845050Y-81605826D01*
X142845052Y-81605827D01*
X142852942Y-81611559D01*
X142850507Y-81614909D01*
X142886693Y-81648568D01*
X142904003Y-81716260D01*
X142890565Y-81768184D01*
X142840279Y-81866876D01*
X142819196Y-81999997D01*
X142819196Y-82000002D01*
X142840279Y-82133121D01*
X142840280Y-82133124D01*
X142840281Y-82133126D01*
X142901472Y-82253220D01*
X142901473Y-82253221D01*
X142901476Y-82253225D01*
X142996774Y-82348523D01*
X142996778Y-82348526D01*
X142996780Y-82348528D01*
X143116874Y-82409719D01*
X143116876Y-82409719D01*
X143116878Y-82409720D01*
X143249998Y-82430804D01*
X143250000Y-82430804D01*
X143250002Y-82430804D01*
X143383121Y-82409720D01*
X143383121Y-82409719D01*
X143383126Y-82409719D01*
X143503220Y-82348528D01*
X143598528Y-82253220D01*
X143659719Y-82133126D01*
X143673170Y-82048202D01*
X152195363Y-82048202D01*
X152216446Y-82181321D01*
X152216447Y-82181324D01*
X152216448Y-82181326D01*
X152277639Y-82301420D01*
X152277640Y-82301421D01*
X152277643Y-82301425D01*
X152372941Y-82396723D01*
X152372945Y-82396726D01*
X152372947Y-82396728D01*
X152493041Y-82457919D01*
X152493043Y-82457919D01*
X152493045Y-82457920D01*
X152626165Y-82479004D01*
X152626167Y-82479004D01*
X152626169Y-82479004D01*
X152759288Y-82457920D01*
X152759288Y-82457919D01*
X152759293Y-82457919D01*
X152879387Y-82396728D01*
X152974695Y-82301420D01*
X153035886Y-82181326D01*
X153039054Y-82161326D01*
X153056971Y-82048202D01*
X153056971Y-82048197D01*
X153035887Y-81915078D01*
X153035886Y-81915076D01*
X153035886Y-81915074D01*
X152974695Y-81794980D01*
X152974693Y-81794978D01*
X152974690Y-81794974D01*
X152879392Y-81699676D01*
X152879388Y-81699673D01*
X152879387Y-81699672D01*
X152759293Y-81638481D01*
X152759291Y-81638480D01*
X152759288Y-81638479D01*
X152626169Y-81617396D01*
X152626165Y-81617396D01*
X152493045Y-81638479D01*
X152493041Y-81638480D01*
X152493041Y-81638481D01*
X152437036Y-81667017D01*
X152372945Y-81699673D01*
X152372941Y-81699676D01*
X152277643Y-81794974D01*
X152277640Y-81794978D01*
X152277639Y-81794980D01*
X152226637Y-81895078D01*
X152216446Y-81915078D01*
X152195363Y-82048197D01*
X152195363Y-82048202D01*
X143673170Y-82048202D01*
X143673170Y-82048200D01*
X143680804Y-82000002D01*
X143680804Y-81990240D01*
X143683950Y-81990240D01*
X143690780Y-81937274D01*
X143735762Y-81883810D01*
X143748006Y-81876660D01*
X143803220Y-81848528D01*
X143898528Y-81753220D01*
X143923104Y-81704986D01*
X143971075Y-81654193D01*
X144038896Y-81637397D01*
X144048940Y-81638404D01*
X144050422Y-81638404D01*
X144050424Y-81638404D01*
X144183543Y-81617320D01*
X144183543Y-81617319D01*
X144183548Y-81617319D01*
X144303642Y-81556128D01*
X144398950Y-81460820D01*
X144460141Y-81340726D01*
X144467407Y-81294850D01*
X144481226Y-81207602D01*
X144481226Y-81207597D01*
X144460142Y-81074478D01*
X144460141Y-81074476D01*
X144460141Y-81074474D01*
X144398950Y-80954380D01*
X144398948Y-80954378D01*
X144398945Y-80954374D01*
X144303647Y-80859076D01*
X144303643Y-80859073D01*
X144303642Y-80859072D01*
X144183548Y-80797881D01*
X144183546Y-80797880D01*
X144183543Y-80797879D01*
X144050424Y-80776796D01*
X144050420Y-80776796D01*
X143917300Y-80797879D01*
X143917296Y-80797880D01*
X143917296Y-80797881D01*
X143913118Y-80800010D01*
X143797200Y-80859073D01*
X143797196Y-80859076D01*
X143701898Y-80954374D01*
X143701893Y-80954381D01*
X143677318Y-81002612D01*
X143629343Y-81053407D01*
X143561522Y-81070202D01*
X143547446Y-81068791D01*
X143540371Y-81067671D01*
X143540832Y-81064752D01*
X143488925Y-81049511D01*
X143453997Y-81010904D01*
X143452531Y-81011970D01*
X143446799Y-81004080D01*
X143446798Y-81004078D01*
X143446795Y-81004075D01*
X143446793Y-81004072D01*
X143351495Y-80908774D01*
X143351491Y-80908771D01*
X143351490Y-80908770D01*
X143231396Y-80847579D01*
X143231394Y-80847578D01*
X143231391Y-80847577D01*
X143098272Y-80826494D01*
X143098268Y-80826494D01*
X142965148Y-80847577D01*
X142965144Y-80847578D01*
X142965144Y-80847579D01*
X142911367Y-80874980D01*
X142845048Y-80908771D01*
X142845044Y-80908774D01*
X142749746Y-81004072D01*
X142749743Y-81004076D01*
X142688549Y-81124176D01*
X142667466Y-81257295D01*
X142667466Y-81257300D01*
X129403888Y-81257300D01*
X129398528Y-81246780D01*
X129398526Y-81246778D01*
X129398523Y-81246774D01*
X129303225Y-81151476D01*
X129303221Y-81151473D01*
X129303220Y-81151472D01*
X129183126Y-81090281D01*
X129183124Y-81090280D01*
X129183121Y-81090279D01*
X129050002Y-81069196D01*
X129049998Y-81069196D01*
X128916878Y-81090279D01*
X128796778Y-81151473D01*
X128796774Y-81151476D01*
X128701476Y-81246774D01*
X128701473Y-81246778D01*
X128640279Y-81366878D01*
X128619196Y-81499997D01*
X128619196Y-81500002D01*
X127387542Y-81500002D01*
X127433220Y-81476728D01*
X127528528Y-81381420D01*
X127589719Y-81261326D01*
X127590357Y-81257298D01*
X127610804Y-81128202D01*
X127610804Y-81128197D01*
X127589720Y-80995078D01*
X127589719Y-80995076D01*
X127589719Y-80995074D01*
X127528528Y-80874980D01*
X127528526Y-80874978D01*
X127528523Y-80874974D01*
X127433225Y-80779676D01*
X127433221Y-80779673D01*
X127433220Y-80779672D01*
X127313126Y-80718481D01*
X127313124Y-80718480D01*
X127313121Y-80718479D01*
X127180002Y-80697396D01*
X127179998Y-80697396D01*
X127046878Y-80718479D01*
X126926778Y-80779673D01*
X126926774Y-80779676D01*
X126831476Y-80874974D01*
X126831473Y-80874978D01*
X126770279Y-80995078D01*
X126749196Y-81128197D01*
X126749196Y-81128202D01*
X124223556Y-81128202D01*
X124298528Y-81053230D01*
X124359719Y-80933136D01*
X124361004Y-80925021D01*
X124380804Y-80800012D01*
X124380804Y-80800007D01*
X124359720Y-80666888D01*
X124359719Y-80666886D01*
X124359719Y-80666884D01*
X124298528Y-80546790D01*
X124298526Y-80546788D01*
X124298523Y-80546784D01*
X124203225Y-80451486D01*
X124203221Y-80451483D01*
X124203220Y-80451482D01*
X124083126Y-80390291D01*
X124083124Y-80390290D01*
X124083121Y-80390289D01*
X123950002Y-80369206D01*
X123949998Y-80369206D01*
X123816878Y-80390289D01*
X123696778Y-80451483D01*
X123696774Y-80451486D01*
X123601476Y-80546784D01*
X123601473Y-80546788D01*
X123540279Y-80666888D01*
X123519196Y-80800007D01*
X123519196Y-80800012D01*
X123225651Y-80800012D01*
X123198528Y-80746780D01*
X123198526Y-80746778D01*
X123198523Y-80746774D01*
X123131705Y-80679956D01*
X123098220Y-80618633D01*
X123103204Y-80548941D01*
X123145076Y-80493008D01*
X123163074Y-80481800D01*
X123211711Y-80457019D01*
X123307019Y-80361711D01*
X123368210Y-80241617D01*
X123368211Y-80241612D01*
X123389295Y-80108493D01*
X123389295Y-80108488D01*
X123368211Y-79975369D01*
X123368210Y-79975367D01*
X123368210Y-79975365D01*
X123307019Y-79855271D01*
X123307017Y-79855269D01*
X123307014Y-79855265D01*
X123211716Y-79759967D01*
X123211713Y-79759965D01*
X123211711Y-79759963D01*
X123126006Y-79716294D01*
X123091614Y-79698770D01*
X123059404Y-79693669D01*
X122996269Y-79663739D01*
X122959339Y-79604427D01*
X122956330Y-79590602D01*
X122951228Y-79558383D01*
X122890037Y-79438289D01*
X122890035Y-79438287D01*
X122890032Y-79438283D01*
X122794734Y-79342985D01*
X122794730Y-79342982D01*
X122794729Y-79342981D01*
X122674635Y-79281790D01*
X122674633Y-79281789D01*
X122674630Y-79281788D01*
X122541511Y-79260705D01*
X122541507Y-79260705D01*
X122408387Y-79281788D01*
X122408383Y-79281789D01*
X122408383Y-79281790D01*
X122359734Y-79306578D01*
X122288287Y-79342982D01*
X122288283Y-79342985D01*
X122192985Y-79438283D01*
X122192982Y-79438287D01*
X122131788Y-79558387D01*
X122110705Y-79691506D01*
X122110705Y-79691511D01*
X121490719Y-79691511D01*
X121547219Y-79580624D01*
X121550741Y-79558387D01*
X121568304Y-79447500D01*
X121568304Y-79447495D01*
X121547220Y-79314376D01*
X121547219Y-79314374D01*
X121547219Y-79314372D01*
X121486028Y-79194278D01*
X121486026Y-79194276D01*
X121486023Y-79194272D01*
X121390725Y-79098974D01*
X121390721Y-79098971D01*
X121390720Y-79098970D01*
X121270626Y-79037779D01*
X121270624Y-79037778D01*
X121270621Y-79037777D01*
X121137502Y-79016694D01*
X121137498Y-79016694D01*
X121004378Y-79037777D01*
X120884278Y-79098971D01*
X120884274Y-79098974D01*
X120788976Y-79194272D01*
X120788973Y-79194276D01*
X120727779Y-79314376D01*
X120706696Y-79447495D01*
X120706696Y-79447500D01*
X106377500Y-79447500D01*
X106377500Y-78400002D01*
X119919196Y-78400002D01*
X119940279Y-78533121D01*
X119940280Y-78533124D01*
X119940281Y-78533126D01*
X120001472Y-78653220D01*
X120001473Y-78653221D01*
X120001476Y-78653225D01*
X120096774Y-78748523D01*
X120096778Y-78748526D01*
X120096780Y-78748528D01*
X120216874Y-78809719D01*
X120216876Y-78809719D01*
X120216878Y-78809720D01*
X120349998Y-78830804D01*
X120350000Y-78830804D01*
X120350002Y-78830804D01*
X120483121Y-78809720D01*
X120483121Y-78809719D01*
X120483126Y-78809719D01*
X120603220Y-78748528D01*
X120698528Y-78653220D01*
X120759719Y-78533126D01*
X120762293Y-78516874D01*
X120780804Y-78400002D01*
X120780804Y-78399997D01*
X120765406Y-78302779D01*
X124719196Y-78302779D01*
X124740279Y-78435898D01*
X124740280Y-78435901D01*
X124740281Y-78435903D01*
X124801472Y-78555997D01*
X124801473Y-78555998D01*
X124801476Y-78556002D01*
X124896774Y-78651300D01*
X124896778Y-78651303D01*
X124896780Y-78651305D01*
X125016874Y-78712496D01*
X125016876Y-78712496D01*
X125016878Y-78712497D01*
X125149998Y-78733581D01*
X125150000Y-78733581D01*
X125150002Y-78733581D01*
X125183964Y-78728202D01*
X128819664Y-78728202D01*
X128840747Y-78861321D01*
X128840748Y-78861324D01*
X128840749Y-78861326D01*
X128901940Y-78981420D01*
X128901941Y-78981421D01*
X128901944Y-78981425D01*
X128997242Y-79076723D01*
X128997246Y-79076726D01*
X128997248Y-79076728D01*
X129117342Y-79137919D01*
X129117344Y-79137919D01*
X129117346Y-79137920D01*
X129250466Y-79159004D01*
X129250468Y-79159004D01*
X129250470Y-79159004D01*
X129383589Y-79137920D01*
X129383589Y-79137919D01*
X129383594Y-79137919D01*
X129503688Y-79076728D01*
X129598996Y-78981420D01*
X129660187Y-78861326D01*
X129661748Y-78851472D01*
X129681272Y-78728202D01*
X129681272Y-78728197D01*
X129660188Y-78595078D01*
X129660187Y-78595076D01*
X129660187Y-78595074D01*
X129598996Y-78474980D01*
X129598994Y-78474978D01*
X129598991Y-78474974D01*
X129534019Y-78410002D01*
X131639196Y-78410002D01*
X131660279Y-78543121D01*
X131660280Y-78543124D01*
X131660281Y-78543126D01*
X131721472Y-78663220D01*
X131721473Y-78663221D01*
X131721476Y-78663225D01*
X131816774Y-78758523D01*
X131816778Y-78758526D01*
X131816780Y-78758528D01*
X131936874Y-78819719D01*
X131936876Y-78819719D01*
X131936878Y-78819720D01*
X132069998Y-78840804D01*
X132070000Y-78840804D01*
X132070002Y-78840804D01*
X132203122Y-78819720D01*
X132203123Y-78819719D01*
X132203126Y-78819719D01*
X132294616Y-78773102D01*
X132363281Y-78760206D01*
X132428022Y-78786482D01*
X132438589Y-78795906D01*
X132508990Y-78866307D01*
X132508994Y-78866310D01*
X132508996Y-78866312D01*
X132629090Y-78927503D01*
X132629092Y-78927503D01*
X132629094Y-78927504D01*
X132762214Y-78948588D01*
X132762216Y-78948588D01*
X132762218Y-78948588D01*
X132895337Y-78927504D01*
X132895337Y-78927503D01*
X132895342Y-78927503D01*
X133015436Y-78866312D01*
X133109669Y-78772078D01*
X133170990Y-78738595D01*
X133240682Y-78743579D01*
X133296616Y-78785450D01*
X133319822Y-78840363D01*
X133340273Y-78969487D01*
X133340274Y-78969490D01*
X133340275Y-78969492D01*
X133401466Y-79089586D01*
X133401467Y-79089587D01*
X133401470Y-79089591D01*
X133447284Y-79135405D01*
X133480769Y-79196728D01*
X133475785Y-79266420D01*
X133433913Y-79322353D01*
X133415899Y-79333570D01*
X133348783Y-79367768D01*
X133348776Y-79367773D01*
X133253478Y-79463071D01*
X133253475Y-79463075D01*
X133192281Y-79583175D01*
X133171198Y-79716294D01*
X133171198Y-79716299D01*
X133192281Y-79849418D01*
X133192282Y-79849421D01*
X133192283Y-79849423D01*
X133253001Y-79968588D01*
X133253475Y-79969518D01*
X133253478Y-79969522D01*
X133348776Y-80064820D01*
X133348779Y-80064822D01*
X133348782Y-80064825D01*
X133348784Y-80064826D01*
X133349844Y-80065596D01*
X133350828Y-80066872D01*
X133355682Y-80071726D01*
X133355055Y-80072352D01*
X133392514Y-80120922D01*
X133399440Y-80185317D01*
X133389196Y-80249996D01*
X133389196Y-80250002D01*
X133410279Y-80383121D01*
X133410280Y-80383124D01*
X133410281Y-80383126D01*
X133469689Y-80499720D01*
X133471473Y-80503221D01*
X133471476Y-80503225D01*
X133566774Y-80598523D01*
X133566778Y-80598526D01*
X133566780Y-80598528D01*
X133686874Y-80659719D01*
X133686876Y-80659719D01*
X133686878Y-80659720D01*
X133762025Y-80671622D01*
X133825160Y-80701551D01*
X133853681Y-80745239D01*
X133855268Y-80744431D01*
X133859697Y-80753124D01*
X133859698Y-80753126D01*
X133920889Y-80873220D01*
X133920891Y-80873222D01*
X133920893Y-80873225D01*
X134016191Y-80968523D01*
X134016195Y-80968526D01*
X134016197Y-80968528D01*
X134136291Y-81029719D01*
X134136293Y-81029719D01*
X134136295Y-81029720D01*
X134269415Y-81050804D01*
X134269417Y-81050804D01*
X134269419Y-81050804D01*
X134402538Y-81029720D01*
X134402538Y-81029719D01*
X134402543Y-81029719D01*
X134522637Y-80968528D01*
X134617945Y-80873220D01*
X134679136Y-80753126D01*
X134680141Y-80746780D01*
X134700221Y-80620002D01*
X134700221Y-80619997D01*
X134679137Y-80486878D01*
X134679136Y-80486876D01*
X134679136Y-80486874D01*
X134617945Y-80366780D01*
X134617943Y-80366778D01*
X134617940Y-80366774D01*
X134522642Y-80271476D01*
X134522638Y-80271473D01*
X134522637Y-80271472D01*
X134402543Y-80210281D01*
X134402541Y-80210280D01*
X134402538Y-80210279D01*
X134327390Y-80198377D01*
X134264255Y-80168448D01*
X134235736Y-80124761D01*
X134234149Y-80125570D01*
X134229719Y-80116876D01*
X134229719Y-80116874D01*
X134168528Y-79996780D01*
X134168526Y-79996778D01*
X134168523Y-79996774D01*
X134073219Y-79901470D01*
X134072144Y-79900689D01*
X134071154Y-79899405D01*
X134066320Y-79894571D01*
X134066944Y-79893946D01*
X134029481Y-79845356D01*
X134022562Y-79780977D01*
X134032806Y-79716299D01*
X134032806Y-79716294D01*
X134011722Y-79583175D01*
X134011721Y-79583173D01*
X134011721Y-79583171D01*
X133950530Y-79463077D01*
X133950528Y-79463075D01*
X133950525Y-79463071D01*
X133904711Y-79417257D01*
X133895289Y-79400002D01*
X142519196Y-79400002D01*
X142540279Y-79533121D01*
X142540280Y-79533124D01*
X142540281Y-79533126D01*
X142596711Y-79643876D01*
X142601473Y-79653221D01*
X142601476Y-79653225D01*
X142696774Y-79748523D01*
X142696778Y-79748526D01*
X142696780Y-79748528D01*
X142816874Y-79809719D01*
X142816876Y-79809719D01*
X142816878Y-79809720D01*
X142949998Y-79830804D01*
X142950000Y-79830804D01*
X142950001Y-79830804D01*
X142971632Y-79827377D01*
X143044477Y-79815840D01*
X143113770Y-79824794D01*
X143167222Y-79869790D01*
X143174359Y-79882016D01*
X143183219Y-79899405D01*
X143217263Y-79966220D01*
X143217267Y-79966225D01*
X143312565Y-80061523D01*
X143312569Y-80061526D01*
X143312571Y-80061528D01*
X143432665Y-80122719D01*
X143432667Y-80122719D01*
X143432669Y-80122720D01*
X143565789Y-80143804D01*
X143565791Y-80143804D01*
X143565793Y-80143804D01*
X143698912Y-80122720D01*
X143698912Y-80122719D01*
X143698917Y-80122719D01*
X143819011Y-80061528D01*
X143888137Y-79992402D01*
X147019196Y-79992402D01*
X147040279Y-80125521D01*
X147040280Y-80125524D01*
X147040281Y-80125526D01*
X147101472Y-80245620D01*
X147101473Y-80245621D01*
X147101476Y-80245625D01*
X147196774Y-80340923D01*
X147196778Y-80340926D01*
X147196780Y-80340928D01*
X147316874Y-80402119D01*
X147316876Y-80402119D01*
X147316878Y-80402120D01*
X147449998Y-80423204D01*
X147450000Y-80423204D01*
X147450002Y-80423204D01*
X147583121Y-80402120D01*
X147583121Y-80402119D01*
X147583126Y-80402119D01*
X147703220Y-80340928D01*
X147798528Y-80245620D01*
X147859719Y-80125526D01*
X147859840Y-80124761D01*
X147863762Y-80100002D01*
X149219196Y-80100002D01*
X149240279Y-80233121D01*
X149240280Y-80233124D01*
X149240281Y-80233126D01*
X149301472Y-80353220D01*
X149301473Y-80353221D01*
X149301476Y-80353225D01*
X149396774Y-80448523D01*
X149396778Y-80448526D01*
X149396780Y-80448528D01*
X149516874Y-80509719D01*
X149516876Y-80509719D01*
X149516878Y-80509720D01*
X149649998Y-80530804D01*
X149650000Y-80530804D01*
X149650001Y-80530804D01*
X149672641Y-80527218D01*
X149729173Y-80518264D01*
X149798465Y-80527218D01*
X149851917Y-80572214D01*
X149872557Y-80638965D01*
X149871044Y-80660130D01*
X149869197Y-80671797D01*
X149869196Y-80671802D01*
X149890279Y-80804921D01*
X149890280Y-80804924D01*
X149890281Y-80804926D01*
X149951472Y-80925020D01*
X149951473Y-80925021D01*
X149951476Y-80925025D01*
X150046774Y-81020323D01*
X150046778Y-81020326D01*
X150046780Y-81020328D01*
X150166874Y-81081519D01*
X150166876Y-81081519D01*
X150166878Y-81081520D01*
X150299998Y-81102604D01*
X150300000Y-81102604D01*
X150300002Y-81102604D01*
X150433121Y-81081520D01*
X150433121Y-81081519D01*
X150433126Y-81081519D01*
X150553220Y-81020328D01*
X150648528Y-80925020D01*
X150709719Y-80804926D01*
X150709720Y-80804921D01*
X150730804Y-80671802D01*
X150730804Y-80671797D01*
X150709720Y-80538678D01*
X150709719Y-80538676D01*
X150709719Y-80538674D01*
X150648528Y-80418580D01*
X150648526Y-80418578D01*
X150648523Y-80418574D01*
X150553225Y-80323276D01*
X150553221Y-80323273D01*
X150553220Y-80323272D01*
X150433126Y-80262081D01*
X150433124Y-80262080D01*
X150433121Y-80262079D01*
X150300002Y-80240996D01*
X150299997Y-80240996D01*
X150220826Y-80253535D01*
X150151533Y-80244580D01*
X150098081Y-80199584D01*
X150077442Y-80132832D01*
X150078954Y-80111675D01*
X150080804Y-80100000D01*
X150079221Y-80090002D01*
X152059196Y-80090002D01*
X152080279Y-80223121D01*
X152080280Y-80223124D01*
X152080281Y-80223126D01*
X152141472Y-80343220D01*
X152141473Y-80343221D01*
X152141476Y-80343225D01*
X152236774Y-80438523D01*
X152236778Y-80438526D01*
X152236780Y-80438528D01*
X152356874Y-80499719D01*
X152356876Y-80499719D01*
X152356878Y-80499720D01*
X152489998Y-80520804D01*
X152490000Y-80520804D01*
X152490002Y-80520804D01*
X152623121Y-80499720D01*
X152623121Y-80499719D01*
X152623126Y-80499719D01*
X152743220Y-80438528D01*
X152838528Y-80343220D01*
X152899719Y-80223126D01*
X152900724Y-80216780D01*
X152920804Y-80090002D01*
X152920804Y-80089997D01*
X152899720Y-79956878D01*
X152899719Y-79956876D01*
X152899719Y-79956874D01*
X152838528Y-79836780D01*
X152838526Y-79836778D01*
X152838523Y-79836774D01*
X152743225Y-79741476D01*
X152743221Y-79741473D01*
X152743220Y-79741472D01*
X152623126Y-79680281D01*
X152623124Y-79680280D01*
X152623121Y-79680279D01*
X152490002Y-79659196D01*
X152489998Y-79659196D01*
X152356878Y-79680279D01*
X152236778Y-79741473D01*
X152236774Y-79741476D01*
X152141476Y-79836774D01*
X152141473Y-79836778D01*
X152080279Y-79956878D01*
X152059196Y-80089997D01*
X152059196Y-80090002D01*
X150079221Y-80090002D01*
X150064456Y-79996780D01*
X150059720Y-79966878D01*
X150059719Y-79966876D01*
X150059719Y-79966874D01*
X149998528Y-79846780D01*
X149998526Y-79846778D01*
X149998523Y-79846774D01*
X149903225Y-79751476D01*
X149903221Y-79751473D01*
X149903220Y-79751472D01*
X149783126Y-79690281D01*
X149783124Y-79690280D01*
X149783121Y-79690279D01*
X149650002Y-79669196D01*
X149649998Y-79669196D01*
X149516878Y-79690279D01*
X149516874Y-79690280D01*
X149516874Y-79690281D01*
X149496390Y-79700718D01*
X149396778Y-79751473D01*
X149396774Y-79751476D01*
X149301476Y-79846774D01*
X149301473Y-79846778D01*
X149240279Y-79966878D01*
X149219196Y-80099997D01*
X149219196Y-80100002D01*
X147863762Y-80100002D01*
X147880804Y-79992402D01*
X147880804Y-79992397D01*
X147859720Y-79859278D01*
X147859719Y-79859276D01*
X147859719Y-79859274D01*
X147798528Y-79739180D01*
X147798526Y-79739178D01*
X147798523Y-79739174D01*
X147703225Y-79643876D01*
X147703221Y-79643873D01*
X147703220Y-79643872D01*
X147583126Y-79582681D01*
X147583124Y-79582680D01*
X147583121Y-79582679D01*
X147450002Y-79561596D01*
X147449998Y-79561596D01*
X147316878Y-79582679D01*
X147316874Y-79582680D01*
X147316874Y-79582681D01*
X147301346Y-79590593D01*
X147196778Y-79643873D01*
X147196774Y-79643876D01*
X147101476Y-79739174D01*
X147101473Y-79739178D01*
X147101472Y-79739180D01*
X147072508Y-79796026D01*
X147040279Y-79859278D01*
X147019196Y-79992397D01*
X147019196Y-79992402D01*
X143888137Y-79992402D01*
X143914319Y-79966220D01*
X143948820Y-79898507D01*
X143996794Y-79847713D01*
X144040907Y-79835780D01*
X144040361Y-79832331D01*
X144183121Y-79809720D01*
X144183121Y-79809719D01*
X144183126Y-79809719D01*
X144303220Y-79748528D01*
X144398528Y-79653220D01*
X144459719Y-79533126D01*
X144480066Y-79404662D01*
X144480804Y-79400002D01*
X144480804Y-79399997D01*
X144459720Y-79266878D01*
X144459719Y-79266876D01*
X144459719Y-79266874D01*
X144398528Y-79146780D01*
X144398526Y-79146778D01*
X144398523Y-79146774D01*
X144303225Y-79051476D01*
X144303221Y-79051473D01*
X144303220Y-79051472D01*
X144183126Y-78990281D01*
X144183124Y-78990280D01*
X144183121Y-78990279D01*
X144079247Y-78973827D01*
X144016112Y-78943897D01*
X143979181Y-78884586D01*
X143976172Y-78870752D01*
X143959720Y-78766878D01*
X143959719Y-78766876D01*
X143959719Y-78766874D01*
X143898528Y-78646780D01*
X143898526Y-78646778D01*
X143898523Y-78646774D01*
X143803225Y-78551476D01*
X143803221Y-78551473D01*
X143803220Y-78551472D01*
X143683126Y-78490281D01*
X143683124Y-78490280D01*
X143683121Y-78490279D01*
X143550002Y-78469196D01*
X143549998Y-78469196D01*
X143416878Y-78490279D01*
X143296778Y-78551473D01*
X143296774Y-78551476D01*
X143201476Y-78646774D01*
X143201473Y-78646778D01*
X143201472Y-78646780D01*
X143167988Y-78712497D01*
X143140279Y-78766878D01*
X143123761Y-78871171D01*
X143093832Y-78934306D01*
X143034520Y-78971237D01*
X142981892Y-78974247D01*
X142962886Y-78971237D01*
X142950000Y-78969196D01*
X142949999Y-78969196D01*
X142949998Y-78969196D01*
X142816878Y-78990279D01*
X142696778Y-79051473D01*
X142696774Y-79051476D01*
X142601476Y-79146774D01*
X142601473Y-79146778D01*
X142540279Y-79266878D01*
X142519196Y-79399997D01*
X142519196Y-79400002D01*
X133895289Y-79400002D01*
X133871226Y-79355934D01*
X133876210Y-79286242D01*
X133918082Y-79230309D01*
X133936089Y-79219095D01*
X134003214Y-79184894D01*
X134098522Y-79089586D01*
X134159713Y-78969492D01*
X134159760Y-78969196D01*
X134180798Y-78836368D01*
X134180798Y-78836363D01*
X134159714Y-78703244D01*
X134159713Y-78703242D01*
X134159713Y-78703240D01*
X134098522Y-78583146D01*
X134098520Y-78583144D01*
X134098517Y-78583140D01*
X134003219Y-78487842D01*
X134003215Y-78487839D01*
X134003214Y-78487838D01*
X133883120Y-78426647D01*
X133883118Y-78426646D01*
X133883115Y-78426645D01*
X133749996Y-78405562D01*
X133749992Y-78405562D01*
X133616872Y-78426645D01*
X133496772Y-78487839D01*
X133402541Y-78582070D01*
X133341217Y-78615554D01*
X133271526Y-78610570D01*
X133215593Y-78568698D01*
X133192387Y-78513785D01*
X133171936Y-78384662D01*
X133171935Y-78384660D01*
X133171935Y-78384658D01*
X133110744Y-78264564D01*
X133110742Y-78264562D01*
X133110739Y-78264558D01*
X133015441Y-78169260D01*
X133015437Y-78169257D01*
X133015436Y-78169256D01*
X132895342Y-78108065D01*
X132895340Y-78108064D01*
X132895337Y-78108063D01*
X132762218Y-78086980D01*
X132762214Y-78086980D01*
X132629092Y-78108063D01*
X132537600Y-78154681D01*
X132468931Y-78167577D01*
X132404191Y-78141300D01*
X132393633Y-78131885D01*
X132323220Y-78061472D01*
X132203126Y-78000281D01*
X132203124Y-78000280D01*
X132203121Y-78000279D01*
X132070002Y-77979196D01*
X132069998Y-77979196D01*
X131936878Y-78000279D01*
X131816778Y-78061473D01*
X131816774Y-78061476D01*
X131721476Y-78156774D01*
X131721473Y-78156778D01*
X131660279Y-78276878D01*
X131639196Y-78409997D01*
X131639196Y-78410002D01*
X129534019Y-78410002D01*
X129503693Y-78379676D01*
X129503689Y-78379673D01*
X129503688Y-78379672D01*
X129383594Y-78318481D01*
X129383592Y-78318480D01*
X129383589Y-78318479D01*
X129250470Y-78297396D01*
X129250466Y-78297396D01*
X129117346Y-78318479D01*
X128997246Y-78379673D01*
X128997242Y-78379676D01*
X128901944Y-78474974D01*
X128901941Y-78474978D01*
X128840747Y-78595078D01*
X128819664Y-78728197D01*
X128819664Y-78728202D01*
X125183964Y-78728202D01*
X125283121Y-78712497D01*
X125283121Y-78712496D01*
X125283126Y-78712496D01*
X125403220Y-78651305D01*
X125498528Y-78555997D01*
X125559719Y-78435903D01*
X125561185Y-78426647D01*
X125580804Y-78302779D01*
X125580804Y-78302774D01*
X125559720Y-78169655D01*
X125559719Y-78169653D01*
X125559719Y-78169651D01*
X125498528Y-78049557D01*
X125498526Y-78049555D01*
X125498523Y-78049551D01*
X125403225Y-77954253D01*
X125403221Y-77954250D01*
X125403220Y-77954249D01*
X125283126Y-77893058D01*
X125283124Y-77893057D01*
X125283121Y-77893056D01*
X125150002Y-77871973D01*
X125149998Y-77871973D01*
X125016878Y-77893056D01*
X124896778Y-77954250D01*
X124896774Y-77954253D01*
X124801476Y-78049551D01*
X124801473Y-78049555D01*
X124740279Y-78169655D01*
X124719196Y-78302774D01*
X124719196Y-78302779D01*
X120765406Y-78302779D01*
X120759720Y-78266878D01*
X120759719Y-78266876D01*
X120759719Y-78266874D01*
X120698528Y-78146780D01*
X120698526Y-78146778D01*
X120698523Y-78146774D01*
X120603225Y-78051476D01*
X120603221Y-78051473D01*
X120603220Y-78051472D01*
X120483126Y-77990281D01*
X120483124Y-77990280D01*
X120483121Y-77990279D01*
X120350002Y-77969196D01*
X120349998Y-77969196D01*
X120216878Y-77990279D01*
X120096778Y-78051473D01*
X120096774Y-78051476D01*
X120001476Y-78146774D01*
X120001473Y-78146778D01*
X119940279Y-78266878D01*
X119919196Y-78399997D01*
X119919196Y-78400002D01*
X106377500Y-78400002D01*
X106377500Y-76800000D01*
X110144355Y-76800000D01*
X110164859Y-76968869D01*
X110164860Y-76968874D01*
X110225182Y-77127931D01*
X110263278Y-77183121D01*
X110321817Y-77267929D01*
X110399532Y-77336778D01*
X110449150Y-77380736D01*
X110594219Y-77456874D01*
X110599775Y-77459790D01*
X110764944Y-77500500D01*
X110935056Y-77500500D01*
X111100225Y-77459790D01*
X111216953Y-77398526D01*
X111250849Y-77380736D01*
X111250850Y-77380734D01*
X111250852Y-77380734D01*
X111378183Y-77267929D01*
X111444369Y-77172042D01*
X127504835Y-77172042D01*
X127525918Y-77305161D01*
X127525919Y-77305164D01*
X127525920Y-77305166D01*
X127587111Y-77425260D01*
X127587112Y-77425261D01*
X127587115Y-77425265D01*
X127682413Y-77520563D01*
X127682417Y-77520566D01*
X127682419Y-77520568D01*
X127802513Y-77581759D01*
X127802515Y-77581759D01*
X127802517Y-77581760D01*
X127935637Y-77602844D01*
X127935639Y-77602844D01*
X127935641Y-77602844D01*
X128068760Y-77581760D01*
X128068760Y-77581759D01*
X128068765Y-77581759D01*
X128188859Y-77520568D01*
X128284167Y-77425260D01*
X128345358Y-77305166D01*
X128345359Y-77305161D01*
X128366443Y-77172042D01*
X128366443Y-77172037D01*
X128345359Y-77038918D01*
X128345358Y-77038916D01*
X128345358Y-77038914D01*
X128284167Y-76918820D01*
X128284165Y-76918818D01*
X128284162Y-76918814D01*
X128188864Y-76823516D01*
X128188860Y-76823513D01*
X128188859Y-76823512D01*
X128068765Y-76762321D01*
X128068763Y-76762320D01*
X128068760Y-76762319D01*
X127935641Y-76741236D01*
X127935637Y-76741236D01*
X127802517Y-76762319D01*
X127802513Y-76762320D01*
X127802513Y-76762321D01*
X127779541Y-76774026D01*
X127682417Y-76823513D01*
X127682413Y-76823516D01*
X127587115Y-76918814D01*
X127587112Y-76918818D01*
X127525918Y-77038918D01*
X127504835Y-77172037D01*
X127504835Y-77172042D01*
X111444369Y-77172042D01*
X111474818Y-77127930D01*
X111535140Y-76968872D01*
X111555645Y-76800000D01*
X111535140Y-76631128D01*
X111527461Y-76610881D01*
X111523335Y-76600002D01*
X115119168Y-76600002D01*
X115140251Y-76733121D01*
X115140252Y-76733124D01*
X115140253Y-76733126D01*
X115201444Y-76853220D01*
X115201445Y-76853221D01*
X115201448Y-76853225D01*
X115296746Y-76948523D01*
X115296750Y-76948526D01*
X115296752Y-76948528D01*
X115416846Y-77009719D01*
X115416848Y-77009719D01*
X115416850Y-77009720D01*
X115549970Y-77030804D01*
X115549972Y-77030804D01*
X115549974Y-77030804D01*
X115683093Y-77009720D01*
X115683093Y-77009719D01*
X115683098Y-77009719D01*
X115803192Y-76948528D01*
X115898500Y-76853220D01*
X115959691Y-76733126D01*
X115960031Y-76730981D01*
X115974298Y-76640902D01*
X124119222Y-76640902D01*
X124140305Y-76774021D01*
X124140306Y-76774024D01*
X124140307Y-76774026D01*
X124201498Y-76894120D01*
X124201499Y-76894121D01*
X124201502Y-76894125D01*
X124296800Y-76989423D01*
X124296804Y-76989426D01*
X124296806Y-76989428D01*
X124416900Y-77050619D01*
X124416902Y-77050619D01*
X124416904Y-77050620D01*
X124550024Y-77071704D01*
X124550026Y-77071704D01*
X124550028Y-77071704D01*
X124683147Y-77050620D01*
X124683147Y-77050619D01*
X124683152Y-77050619D01*
X124803246Y-76989428D01*
X124898554Y-76894120D01*
X124959745Y-76774026D01*
X124961599Y-76762319D01*
X124980830Y-76640902D01*
X124980830Y-76640897D01*
X124959746Y-76507778D01*
X124959745Y-76507776D01*
X124959745Y-76507774D01*
X124898554Y-76387680D01*
X124898552Y-76387678D01*
X124898549Y-76387674D01*
X124803251Y-76292376D01*
X124803247Y-76292373D01*
X124803246Y-76292372D01*
X124683152Y-76231181D01*
X124683150Y-76231180D01*
X124683147Y-76231179D01*
X124550028Y-76210096D01*
X124550024Y-76210096D01*
X124416904Y-76231179D01*
X124296804Y-76292373D01*
X124296800Y-76292376D01*
X124201502Y-76387674D01*
X124201499Y-76387678D01*
X124140305Y-76507778D01*
X124119222Y-76640897D01*
X124119222Y-76640902D01*
X115974298Y-76640902D01*
X115980776Y-76600002D01*
X115980776Y-76599997D01*
X115959692Y-76466878D01*
X115959691Y-76466876D01*
X115959691Y-76466874D01*
X115898500Y-76346780D01*
X115898498Y-76346778D01*
X115898495Y-76346774D01*
X115803197Y-76251476D01*
X115803193Y-76251473D01*
X115803192Y-76251472D01*
X115683098Y-76190281D01*
X115683096Y-76190280D01*
X115683093Y-76190279D01*
X115549974Y-76169196D01*
X115549970Y-76169196D01*
X115416850Y-76190279D01*
X115416846Y-76190280D01*
X115416846Y-76190281D01*
X115377957Y-76210096D01*
X115296750Y-76251473D01*
X115296746Y-76251476D01*
X115201448Y-76346774D01*
X115201445Y-76346778D01*
X115201444Y-76346780D01*
X115157449Y-76433126D01*
X115140251Y-76466878D01*
X115119168Y-76599997D01*
X115119168Y-76600002D01*
X111523335Y-76600002D01*
X111503812Y-76548523D01*
X111474818Y-76472070D01*
X111471234Y-76466878D01*
X111412085Y-76381186D01*
X111378183Y-76332071D01*
X111283316Y-76248026D01*
X111250849Y-76219263D01*
X111100226Y-76140210D01*
X110935056Y-76099500D01*
X110764944Y-76099500D01*
X110599773Y-76140210D01*
X110449150Y-76219263D01*
X110321816Y-76332072D01*
X110225182Y-76472068D01*
X110164860Y-76631125D01*
X110164859Y-76631130D01*
X110144355Y-76800000D01*
X106377500Y-76800000D01*
X106377500Y-75951500D01*
X106397185Y-75884461D01*
X106449989Y-75838706D01*
X106501500Y-75827500D01*
X121459899Y-75827500D01*
X121526938Y-75847185D01*
G37*
%TD.AperFunction*%
%TD*%
M02*
