%TF.GenerationSoftware,KiCad,Pcbnew,8.0.1*%
%TF.CreationDate,2024-08-20T12:32:33+02:00*%
%TF.ProjectId,ESP32_PICO_LED,45535033-325f-4504-9943-4f5f4c45442e,rev?*%
%TF.SameCoordinates,Original*%
%TF.FileFunction,Copper,L1,Top*%
%TF.FilePolarity,Positive*%
%FSLAX46Y46*%
G04 Gerber Fmt 4.6, Leading zero omitted, Abs format (unit mm)*
G04 Created by KiCad (PCBNEW 8.0.1) date 2024-08-20 12:32:33*
%MOMM*%
%LPD*%
G01*
G04 APERTURE LIST*
G04 Aperture macros list*
%AMRoundRect*
0 Rectangle with rounded corners*
0 $1 Rounding radius*
0 $2 $3 $4 $5 $6 $7 $8 $9 X,Y pos of 4 corners*
0 Add a 4 corners polygon primitive as box body*
4,1,4,$2,$3,$4,$5,$6,$7,$8,$9,$2,$3,0*
0 Add four circle primitives for the rounded corners*
1,1,$1+$1,$2,$3*
1,1,$1+$1,$4,$5*
1,1,$1+$1,$6,$7*
1,1,$1+$1,$8,$9*
0 Add four rect primitives between the rounded corners*
20,1,$1+$1,$2,$3,$4,$5,0*
20,1,$1+$1,$4,$5,$6,$7,0*
20,1,$1+$1,$6,$7,$8,$9,0*
20,1,$1+$1,$8,$9,$2,$3,0*%
G04 Aperture macros list end*
%TA.AperFunction,SMDPad,CuDef*%
%ADD10R,1.000000X1.150000*%
%TD*%
%TA.AperFunction,SMDPad,CuDef*%
%ADD11R,1.700000X0.900000*%
%TD*%
%TA.AperFunction,SMDPad,CuDef*%
%ADD12RoundRect,0.135000X-0.135000X-0.185000X0.135000X-0.185000X0.135000X0.185000X-0.135000X0.185000X0*%
%TD*%
%TA.AperFunction,SMDPad,CuDef*%
%ADD13RoundRect,0.147500X-0.147500X-0.172500X0.147500X-0.172500X0.147500X0.172500X-0.147500X0.172500X0*%
%TD*%
%TA.AperFunction,SMDPad,CuDef*%
%ADD14RoundRect,0.135000X0.135000X0.185000X-0.135000X0.185000X-0.135000X-0.185000X0.135000X-0.185000X0*%
%TD*%
%TA.AperFunction,SMDPad,CuDef*%
%ADD15RoundRect,0.147500X0.147500X0.172500X-0.147500X0.172500X-0.147500X-0.172500X0.147500X-0.172500X0*%
%TD*%
%TA.AperFunction,SMDPad,CuDef*%
%ADD16RoundRect,0.225000X0.225000X0.250000X-0.225000X0.250000X-0.225000X-0.250000X0.225000X-0.250000X0*%
%TD*%
%TA.AperFunction,SMDPad,CuDef*%
%ADD17RoundRect,0.250000X0.300000X-0.300000X0.300000X0.300000X-0.300000X0.300000X-0.300000X-0.300000X0*%
%TD*%
%TA.AperFunction,SMDPad,CuDef*%
%ADD18RoundRect,0.140000X0.140000X0.170000X-0.140000X0.170000X-0.140000X-0.170000X0.140000X-0.170000X0*%
%TD*%
%TA.AperFunction,SMDPad,CuDef*%
%ADD19RoundRect,0.135000X0.185000X-0.135000X0.185000X0.135000X-0.185000X0.135000X-0.185000X-0.135000X0*%
%TD*%
%TA.AperFunction,SMDPad,CuDef*%
%ADD20RoundRect,0.140000X-0.170000X0.140000X-0.170000X-0.140000X0.170000X-0.140000X0.170000X0.140000X0*%
%TD*%
%TA.AperFunction,SMDPad,CuDef*%
%ADD21RoundRect,0.140000X-0.140000X-0.170000X0.140000X-0.170000X0.140000X0.170000X-0.140000X0.170000X0*%
%TD*%
%TA.AperFunction,SMDPad,CuDef*%
%ADD22RoundRect,0.140000X0.170000X-0.140000X0.170000X0.140000X-0.170000X0.140000X-0.170000X-0.140000X0*%
%TD*%
%TA.AperFunction,SMDPad,CuDef*%
%ADD23R,0.400000X0.800000*%
%TD*%
%TA.AperFunction,SMDPad,CuDef*%
%ADD24R,0.800000X0.350000*%
%TD*%
%TA.AperFunction,SMDPad,CuDef*%
%ADD25R,0.600000X0.600000*%
%TD*%
%TA.AperFunction,SMDPad,CuDef*%
%ADD26RoundRect,0.033750X-0.101250X0.371250X-0.101250X-0.371250X0.101250X-0.371250X0.101250X0.371250X0*%
%TD*%
%TA.AperFunction,SMDPad,CuDef*%
%ADD27RoundRect,0.033750X-0.371250X0.101250X-0.371250X-0.101250X0.371250X-0.101250X0.371250X0.101250X0*%
%TD*%
%TA.AperFunction,ComponentPad*%
%ADD28C,0.500000*%
%TD*%
%TA.AperFunction,SMDPad,CuDef*%
%ADD29R,3.400000X3.400000*%
%TD*%
%TA.AperFunction,SMDPad,CuDef*%
%ADD30RoundRect,0.250000X-0.300000X0.300000X-0.300000X-0.300000X0.300000X-0.300000X0.300000X0.300000X0*%
%TD*%
%TA.AperFunction,SMDPad,CuDef*%
%ADD31R,1.150000X1.000000*%
%TD*%
%TA.AperFunction,SMDPad,CuDef*%
%ADD32R,1.380000X0.450000*%
%TD*%
%TA.AperFunction,SMDPad,CuDef*%
%ADD33R,1.900000X2.380000*%
%TD*%
%TA.AperFunction,SMDPad,CuDef*%
%ADD34R,2.100000X1.480000*%
%TD*%
%TA.AperFunction,SMDPad,CuDef*%
%ADD35R,1.900000X1.180000*%
%TD*%
%TA.AperFunction,SMDPad,CuDef*%
%ADD36RoundRect,0.225000X-0.250000X0.225000X-0.250000X-0.225000X0.250000X-0.225000X0.250000X0.225000X0*%
%TD*%
%TA.AperFunction,SMDPad,CuDef*%
%ADD37RoundRect,0.050000X0.050000X-0.387500X0.050000X0.387500X-0.050000X0.387500X-0.050000X-0.387500X0*%
%TD*%
%TA.AperFunction,SMDPad,CuDef*%
%ADD38RoundRect,0.050000X0.387500X-0.050000X0.387500X0.050000X-0.387500X0.050000X-0.387500X-0.050000X0*%
%TD*%
%TA.AperFunction,HeatsinkPad*%
%ADD39R,3.200000X3.200000*%
%TD*%
%TA.AperFunction,SMDPad,CuDef*%
%ADD40RoundRect,0.147500X0.172500X-0.147500X0.172500X0.147500X-0.172500X0.147500X-0.172500X-0.147500X0*%
%TD*%
%TA.AperFunction,SMDPad,CuDef*%
%ADD41RoundRect,0.135000X-0.185000X0.135000X-0.185000X-0.135000X0.185000X-0.135000X0.185000X0.135000X0*%
%TD*%
%TA.AperFunction,SMDPad,CuDef*%
%ADD42RoundRect,0.225000X0.250000X-0.225000X0.250000X0.225000X-0.250000X0.225000X-0.250000X-0.225000X0*%
%TD*%
%TA.AperFunction,SMDPad,CuDef*%
%ADD43RoundRect,0.150000X-0.512500X-0.150000X0.512500X-0.150000X0.512500X0.150000X-0.512500X0.150000X0*%
%TD*%
%TA.AperFunction,SMDPad,CuDef*%
%ADD44RoundRect,0.375000X-0.375000X0.625000X-0.375000X-0.625000X0.375000X-0.625000X0.375000X0.625000X0*%
%TD*%
%TA.AperFunction,SMDPad,CuDef*%
%ADD45RoundRect,0.500000X-1.400000X0.500000X-1.400000X-0.500000X1.400000X-0.500000X1.400000X0.500000X0*%
%TD*%
%TA.AperFunction,SMDPad,CuDef*%
%ADD46R,0.800000X1.660000*%
%TD*%
%TA.AperFunction,ViaPad*%
%ADD47C,0.450000*%
%TD*%
%TA.AperFunction,ViaPad*%
%ADD48C,1.200000*%
%TD*%
%TA.AperFunction,ViaPad*%
%ADD49C,1.000000*%
%TD*%
%TA.AperFunction,ViaPad*%
%ADD50C,0.600000*%
%TD*%
%TA.AperFunction,Conductor*%
%ADD51C,0.152400*%
%TD*%
%TA.AperFunction,Conductor*%
%ADD52C,0.500000*%
%TD*%
%TA.AperFunction,Conductor*%
%ADD53C,0.156464*%
%TD*%
%TA.AperFunction,Conductor*%
%ADD54C,0.177800*%
%TD*%
%TA.AperFunction,Conductor*%
%ADD55C,0.700000*%
%TD*%
%TA.AperFunction,Conductor*%
%ADD56C,0.127000*%
%TD*%
%TA.AperFunction,Conductor*%
%ADD57C,1.000000*%
%TD*%
%TA.AperFunction,Conductor*%
%ADD58C,0.800000*%
%TD*%
%TA.AperFunction,Conductor*%
%ADD59C,0.349250*%
%TD*%
%TA.AperFunction,Conductor*%
%ADD60C,0.211074*%
%TD*%
G04 APERTURE END LIST*
D10*
%TO.P,Y2,1,1*%
%TO.N,/esp32_wifi_section/XTAL_P*%
X161030000Y-80065000D03*
%TO.P,Y2,2,2*%
%TO.N,GND*%
X161030000Y-81815000D03*
%TO.P,Y2,3,3*%
%TO.N,Net-(C19-Pad2)*%
X162430000Y-81815000D03*
%TO.P,Y2,4,4*%
%TO.N,GND*%
X162430000Y-80065000D03*
%TD*%
D11*
%TO.P,SW1,1,1*%
%TO.N,Net-(U2-RUN)*%
X115550000Y-76600000D03*
%TO.P,SW1,2,2*%
%TO.N,GND*%
X115550000Y-80000000D03*
%TD*%
D12*
%TO.P,R2,1*%
%TO.N,/_RPI_USB_P*%
X125390000Y-80200000D03*
%TO.P,R2,2*%
%TO.N,RPI_USB_P*%
X126410000Y-80200000D03*
%TD*%
D13*
%TO.P,D2,1,K*%
%TO.N,Net-(D2-K)*%
X129850000Y-85600000D03*
%TO.P,D2,2,A*%
%TO.N,RPI_STATUS_LED*%
X130820000Y-85600000D03*
%TD*%
D14*
%TO.P,R3,1*%
%TO.N,+3.3V*%
X137710000Y-77350000D03*
%TO.P,R3,2*%
%TO.N,Net-(U2-RUN)*%
X136690000Y-77350000D03*
%TD*%
D15*
%TO.P,D4,1,K*%
%TO.N,Net-(D4-K)*%
X168385000Y-77000000D03*
%TO.P,D4,2,A*%
%TO.N,+3.3V*%
X167415000Y-77000000D03*
%TD*%
D16*
%TO.P,C17,1*%
%TO.N,+3.3V*%
X151675000Y-81600000D03*
%TO.P,C17,2*%
%TO.N,GND*%
X150125000Y-81600000D03*
%TD*%
D17*
%TO.P,D5,1,K*%
%TO.N,+5V*%
X167950000Y-85107500D03*
%TO.P,D5,2,A*%
%TO.N,Net-(D5-A)*%
X167950000Y-82307500D03*
%TD*%
D18*
%TO.P,C3,1*%
%TO.N,MIC_RAW_OUT*%
X121250000Y-77650000D03*
%TO.P,C3,2*%
%TO.N,Net-(C3-Pad2)*%
X120290000Y-77650000D03*
%TD*%
%TO.P,C19,1*%
%TO.N,GND*%
X162860000Y-83190000D03*
%TO.P,C19,2*%
%TO.N,Net-(C19-Pad2)*%
X161900000Y-83190000D03*
%TD*%
D12*
%TO.P,R4,1*%
%TO.N,Net-(U3--)*%
X120490000Y-82500000D03*
%TO.P,R4,2*%
%TO.N,+3.3V*%
X121510000Y-82500000D03*
%TD*%
D19*
%TO.P,R13,1*%
%TO.N,GND*%
X150850000Y-85310000D03*
%TO.P,R13,2*%
%TO.N,Net-(D3-K)*%
X150850000Y-84290000D03*
%TD*%
D12*
%TO.P,R5,1*%
%TO.N,Net-(U3-+)*%
X118250000Y-77600000D03*
%TO.P,R5,2*%
%TO.N,Net-(C3-Pad2)*%
X119270000Y-77600000D03*
%TD*%
%TO.P,R14,1*%
%TO.N,+3.3V*%
X150900000Y-80250000D03*
%TO.P,R14,2*%
%TO.N,Net-(U4-CHIP_EN)*%
X151920000Y-80250000D03*
%TD*%
D20*
%TO.P,C20,1*%
%TO.N,/esp32_wifi_section/LNA_IN*%
X157670000Y-76340000D03*
%TO.P,C20,2*%
%TO.N,GND*%
X157670000Y-77300000D03*
%TD*%
D12*
%TO.P,R1,1*%
%TO.N,GND*%
X127830000Y-85600000D03*
%TO.P,R1,2*%
%TO.N,Net-(D2-K)*%
X128850000Y-85600000D03*
%TD*%
D21*
%TO.P,C6,1*%
%TO.N,Net-(U2-ADC_AVDD)*%
X128170000Y-76300000D03*
%TO.P,C6,2*%
%TO.N,GND*%
X129130000Y-76300000D03*
%TD*%
D22*
%TO.P,C21,1*%
%TO.N,+3.3V*%
X159600000Y-79800000D03*
%TO.P,C21,2*%
%TO.N,GND*%
X159600000Y-78840000D03*
%TD*%
D18*
%TO.P,C22,1*%
%TO.N,Net-(U4-CHIP_EN)*%
X162860000Y-76600000D03*
%TO.P,C22,2*%
%TO.N,GND*%
X161900000Y-76600000D03*
%TD*%
D11*
%TO.P,SW3,1,1*%
%TO.N,GND*%
X165050000Y-81800000D03*
%TO.P,SW3,2,2*%
%TO.N,/esp32_wifi_section/IO9*%
X165050000Y-85200000D03*
%TD*%
D21*
%TO.P,C9,1*%
%TO.N,+3.3V*%
X136690000Y-79500000D03*
%TO.P,C9,2*%
%TO.N,GND*%
X137650000Y-79500000D03*
%TD*%
D23*
%TO.P,U1,1,~{CS}*%
%TO.N,QSPI_SS*%
X124150000Y-85045000D03*
%TO.P,U1,2,DO(IO1)*%
%TO.N,QSPI_SP1*%
X124950000Y-85045000D03*
%TO.P,U1,3,IO2*%
%TO.N,QSPI_SD2*%
X125750000Y-85045000D03*
%TO.P,U1,4,GND*%
%TO.N,GND*%
X126550000Y-85045000D03*
%TO.P,U1,5,DI(IO0)*%
%TO.N,QSPI_SP0*%
X126550000Y-82445000D03*
%TO.P,U1,6,CLK*%
%TO.N,QSPI_CLK*%
X125750000Y-82445000D03*
%TO.P,U1,7,IO3*%
%TO.N,QSPI_SD3*%
X124950000Y-82445000D03*
%TO.P,U1,8,VCC*%
%TO.N,+3.3V*%
X124150000Y-82445000D03*
D24*
%TO.P,U1,9,EP1*%
%TO.N,GND*%
X124550000Y-83745000D03*
%TO.P,U1,10,EP2*%
X126150000Y-83745000D03*
%TD*%
D21*
%TO.P,C2,1*%
%TO.N,Net-(U3-+)*%
X120300000Y-76600000D03*
%TO.P,C2,2*%
%TO.N,MIC_ADC*%
X121260000Y-76600000D03*
%TD*%
D25*
%TO.P,MIC1,1,OUT*%
%TO.N,MIC_RAW_OUT*%
X122670000Y-76640000D03*
%TO.P,MIC1,2,GND*%
%TO.N,GND*%
X122670000Y-78620000D03*
%TO.P,MIC1,3,GND*%
X123730000Y-78620000D03*
%TO.P,MIC1,4,VDD*%
%TO.N,+3.3V*%
X123730000Y-76640000D03*
%TD*%
D18*
%TO.P,C24,1*%
%TO.N,GND*%
X161610000Y-78650000D03*
%TO.P,C24,2*%
%TO.N,/esp32_wifi_section/XTAL_P*%
X160650000Y-78650000D03*
%TD*%
D26*
%TO.P,U4,1,LNA_IN*%
%TO.N,/esp32_wifi_section/LNA_IN*%
X157700000Y-79400000D03*
%TO.P,U4,2,VDD3P3*%
%TO.N,+3.3V*%
X157200000Y-79400000D03*
%TO.P,U4,3,VDD3P3*%
X156700000Y-79400000D03*
%TO.P,U4,4,XTAL_32K_P*%
%TO.N,unconnected-(U4-XTAL_32K_P-Pad4)*%
X156200000Y-79400000D03*
%TO.P,U4,5,XTAL_32K_N*%
%TO.N,unconnected-(U4-XTAL_32K_N-Pad5)*%
X155700000Y-79400000D03*
%TO.P,U4,6,GPIO2*%
%TO.N,/esp32_wifi_section/IO2*%
X155200000Y-79400000D03*
%TO.P,U4,7,CHIP_EN*%
%TO.N,Net-(U4-CHIP_EN)*%
X154700000Y-79400000D03*
%TO.P,U4,8,GPIO3*%
%TO.N,ESP_STATUS_LED*%
X154200000Y-79400000D03*
D27*
%TO.P,U4,9,MTMS*%
%TO.N,unconnected-(U4-MTMS-Pad9)*%
X153500000Y-80100000D03*
%TO.P,U4,10,MTDI*%
%TO.N,unconnected-(U4-MTDI-Pad10)*%
X153500000Y-80600000D03*
%TO.P,U4,11,VDD3P3_RTC*%
%TO.N,+3.3V*%
X153500000Y-81100000D03*
%TO.P,U4,12,MTCK*%
%TO.N,unconnected-(U4-MTCK-Pad12)*%
X153500000Y-81600000D03*
%TO.P,U4,13,MTDO*%
%TO.N,unconnected-(U4-MTDO-Pad13)*%
X153500000Y-82100000D03*
%TO.P,U4,14,GPIO8*%
%TO.N,/esp32_wifi_section/IO8*%
X153500000Y-82600000D03*
%TO.P,U4,15,GPIO9*%
%TO.N,/esp32_wifi_section/IO9*%
X153500000Y-83100000D03*
%TO.P,U4,16,GPIO10*%
%TO.N,/esp32_wifi_section/IO10*%
X153500000Y-83600000D03*
D26*
%TO.P,U4,17,VDD3P3_CPU*%
%TO.N,+3.3V*%
X154200000Y-84300000D03*
%TO.P,U4,18,VDD_SPI*%
X154700000Y-84300000D03*
%TO.P,U4,19,SPIHD*%
%TO.N,unconnected-(U4-SPIHD-Pad19)*%
X155200000Y-84300000D03*
%TO.P,U4,20,SPIWP*%
%TO.N,unconnected-(U4-SPIWP-Pad20)*%
X155700000Y-84300000D03*
%TO.P,U4,21,SPICS0*%
%TO.N,unconnected-(U4-SPICS0-Pad21)*%
X156200000Y-84300000D03*
%TO.P,U4,22,SPICLK*%
%TO.N,unconnected-(U4-SPICLK-Pad22)*%
X156700000Y-84300000D03*
%TO.P,U4,23,SPID*%
%TO.N,unconnected-(U4-SPID-Pad23)*%
X157200000Y-84300000D03*
%TO.P,U4,24,SPIQ*%
%TO.N,unconnected-(U4-SPIQ-Pad24)*%
X157700000Y-84300000D03*
D27*
%TO.P,U4,25,GPIO18*%
%TO.N,/esp32_wifi_section/USB_D+*%
X158400000Y-83600000D03*
%TO.P,U4,26,GPIO19*%
%TO.N,/esp32_wifi_section/USB_D-*%
X158400000Y-83100000D03*
%TO.P,U4,27,U0RXD*%
%TO.N,/UART1_TX*%
X158400000Y-82600000D03*
%TO.P,U4,28,U0TXD*%
%TO.N,Net-(U4-U0TXD)*%
X158400000Y-82100000D03*
%TO.P,U4,29,XTAL_N*%
%TO.N,/esp32_wifi_section/XTAL_N*%
X158400000Y-81600000D03*
%TO.P,U4,30,XTAL_P*%
%TO.N,/esp32_wifi_section/XTAL_P*%
X158400000Y-81100000D03*
%TO.P,U4,31,VDDA*%
%TO.N,+3.3V*%
X158400000Y-80600000D03*
%TO.P,U4,32,VDDA*%
X158400000Y-80100000D03*
D28*
%TO.P,U4,33,GND*%
%TO.N,GND*%
X155950000Y-81150000D03*
X156650000Y-81850000D03*
D29*
X155950000Y-81850000D03*
D28*
X155250000Y-81850000D03*
X155950000Y-82550000D03*
%TD*%
D30*
%TO.P,D1,1,K*%
%TO.N,+5V*%
X112350000Y-76700000D03*
%TO.P,D1,2,A*%
%TO.N,Net-(D1-A)*%
X112350000Y-79500000D03*
%TD*%
D21*
%TO.P,C7,1*%
%TO.N,XIN*%
X136540000Y-84900000D03*
%TO.P,C7,2*%
%TO.N,GND*%
X137500000Y-84900000D03*
%TD*%
D31*
%TO.P,Y1,1,1*%
%TO.N,XIN*%
X136950000Y-83500000D03*
%TO.P,Y1,2,2*%
%TO.N,GND*%
X138700000Y-83500000D03*
%TO.P,Y1,3,3*%
%TO.N,Net-(C13-Pad1)*%
X138700000Y-82100000D03*
%TO.P,Y1,4,4*%
%TO.N,GND*%
X136950000Y-82100000D03*
%TD*%
D32*
%TO.P,USB2,1,VBUS*%
%TO.N,Net-(D5-A)*%
X170020000Y-82180000D03*
%TO.P,USB2,2,D-*%
%TO.N,/esp32_wifi_section/_USB_D+*%
X170020000Y-81530000D03*
%TO.P,USB2,3,D+*%
%TO.N,/esp32_wifi_section/_USB_D-*%
X170020000Y-80880000D03*
%TO.P,USB2,4,ID*%
%TO.N,unconnected-(USB2-ID-Pad4)*%
X170020000Y-80230000D03*
%TO.P,USB2,5,GND*%
%TO.N,GND*%
X170020000Y-79580000D03*
D33*
%TO.P,USB2,6*%
%TO.N,unconnected-(USB2-Pad6)*%
X172680000Y-83910000D03*
D34*
%TO.N,unconnected-(USB2-Pad6)_2*%
X170380000Y-83340000D03*
D35*
%TO.N,unconnected-(USB2-Pad6)_3*%
X172680000Y-81720000D03*
%TO.N,unconnected-(USB2-Pad6)_0*%
X172680000Y-80040000D03*
D34*
%TO.N,unconnected-(USB2-Pad6)_4*%
X170380000Y-78420000D03*
D33*
%TO.N,unconnected-(USB2-Pad6)_1*%
X172680000Y-77890000D03*
%TD*%
D18*
%TO.P,C4,1*%
%TO.N,+3.3V*%
X126380000Y-81250000D03*
%TO.P,C4,2*%
%TO.N,GND*%
X125420000Y-81250000D03*
%TD*%
D12*
%TO.P,R16,1*%
%TO.N,/UART1_RX*%
X148040000Y-80000000D03*
%TO.P,R16,2*%
%TO.N,Net-(U4-U0TXD)*%
X149060000Y-80000000D03*
%TD*%
D32*
%TO.P,USB1,1,VBUS*%
%TO.N,Net-(D1-A)*%
X110210000Y-79690000D03*
%TO.P,USB1,2,D-*%
%TO.N,/_RPI_USB_N*%
X110210000Y-80340000D03*
%TO.P,USB1,3,D+*%
%TO.N,/_RPI_USB_P*%
X110210000Y-80990000D03*
%TO.P,USB1,4,ID*%
%TO.N,unconnected-(USB1-ID-Pad4)*%
X110210000Y-81640000D03*
%TO.P,USB1,5,GND*%
%TO.N,GND*%
X110210000Y-82290000D03*
D33*
%TO.P,USB1,6*%
%TO.N,unconnected-(USB1-Pad6)*%
X107550000Y-77960000D03*
D34*
%TO.N,unconnected-(USB1-Pad6)_4*%
X109850000Y-78530000D03*
D35*
%TO.N,unconnected-(USB1-Pad6)_2*%
X107550000Y-80150000D03*
%TO.N,unconnected-(USB1-Pad6)_0*%
X107550000Y-81830000D03*
D34*
%TO.N,unconnected-(USB1-Pad6)_1*%
X109850000Y-83450000D03*
D33*
%TO.N,unconnected-(USB1-Pad6)_3*%
X107550000Y-83980000D03*
%TD*%
D14*
%TO.P,R17,1*%
%TO.N,/esp32_wifi_section/_USB_D+*%
X162740000Y-85460000D03*
%TO.P,R17,2*%
%TO.N,/esp32_wifi_section/USB_D+*%
X161720000Y-85460000D03*
%TD*%
D36*
%TO.P,C8,1*%
%TO.N,+5V*%
X139050000Y-77225000D03*
%TO.P,C8,2*%
%TO.N,GND*%
X139050000Y-78775000D03*
%TD*%
D22*
%TO.P,C5,1*%
%TO.N,+3.3V*%
X125950000Y-78080000D03*
%TO.P,C5,2*%
%TO.N,GND*%
X125950000Y-77120000D03*
%TD*%
D15*
%TO.P,L3,1*%
%TO.N,Net-(C26-Pad1)*%
X153655000Y-76400000D03*
%TO.P,L3,2*%
%TO.N,Net-(AE1-A)*%
X152685000Y-76400000D03*
%TD*%
D21*
%TO.P,C1,1*%
%TO.N,+3.3V*%
X136690000Y-78450000D03*
%TO.P,C1,2*%
%TO.N,GND*%
X137650000Y-78450000D03*
%TD*%
D37*
%TO.P,U2,1,IOVDD*%
%TO.N,+3.3V*%
X129050000Y-84337500D03*
%TO.P,U2,2,GPIO0*%
%TO.N,unconnected-(U2-GPIO0-Pad2)*%
X129450000Y-84337500D03*
%TO.P,U2,3,GPIO1*%
%TO.N,unconnected-(U2-GPIO1-Pad3)*%
X129850000Y-84337500D03*
%TO.P,U2,4,GPIO2*%
%TO.N,RPI_STATUS_LED*%
X130250000Y-84337500D03*
%TO.P,U2,5,GPIO3*%
%TO.N,unconnected-(U2-GPIO3-Pad5)*%
X130650000Y-84337500D03*
%TO.P,U2,6,GPIO4*%
%TO.N,/UART1_TX*%
X131050000Y-84337500D03*
%TO.P,U2,7,GPIO5*%
%TO.N,/UART1_RX*%
X131450000Y-84337500D03*
%TO.P,U2,8,GPIO6*%
%TO.N,unconnected-(U2-GPIO6-Pad8)*%
X131850000Y-84337500D03*
%TO.P,U2,9,GPIO7*%
%TO.N,unconnected-(U2-GPIO7-Pad9)*%
X132250000Y-84337500D03*
%TO.P,U2,10,IOVDD*%
%TO.N,+3.3V*%
X132650000Y-84337500D03*
%TO.P,U2,11,GPIO8*%
%TO.N,LED_OUT_3*%
X133050000Y-84337500D03*
%TO.P,U2,12,GPIO9*%
%TO.N,LED_OUT_4*%
X133450000Y-84337500D03*
%TO.P,U2,13,GPIO10*%
%TO.N,unconnected-(U2-GPIO10-Pad13)*%
X133850000Y-84337500D03*
%TO.P,U2,14,GPIO11*%
%TO.N,unconnected-(U2-GPIO11-Pad14)*%
X134250000Y-84337500D03*
D38*
%TO.P,U2,15,GPIO12*%
%TO.N,unconnected-(U2-GPIO12-Pad15)*%
X135087500Y-83500000D03*
%TO.P,U2,16,GPIO13*%
%TO.N,unconnected-(U2-GPIO13-Pad16)*%
X135087500Y-83100000D03*
%TO.P,U2,17,GPIO14*%
%TO.N,LED_OUT_1*%
X135087500Y-82700000D03*
%TO.P,U2,18,GPIO15*%
%TO.N,LED_OUT_2*%
X135087500Y-82300000D03*
%TO.P,U2,19,TESTEN*%
%TO.N,GND*%
X135087500Y-81900000D03*
%TO.P,U2,20,XIN*%
%TO.N,XIN*%
X135087500Y-81500000D03*
%TO.P,U2,21,XOUT*%
%TO.N,XOUT*%
X135087500Y-81100000D03*
%TO.P,U2,22,IOVDD*%
%TO.N,+3.3V*%
X135087500Y-80700000D03*
%TO.P,U2,23,DVDD*%
X135087500Y-80300000D03*
%TO.P,U2,24,SWCLK*%
%TO.N,SWCLK*%
X135087500Y-79900000D03*
%TO.P,U2,25,SWD*%
%TO.N,SWDIO*%
X135087500Y-79500000D03*
%TO.P,U2,26,RUN*%
%TO.N,Net-(U2-RUN)*%
X135087500Y-79100000D03*
%TO.P,U2,27,GPIO16*%
%TO.N,unconnected-(U2-GPIO16-Pad27)*%
X135087500Y-78700000D03*
%TO.P,U2,28,GPIO17*%
%TO.N,unconnected-(U2-GPIO17-Pad28)*%
X135087500Y-78300000D03*
D37*
%TO.P,U2,29,GPIO18*%
%TO.N,unconnected-(U2-GPIO18-Pad29)*%
X134250000Y-77462500D03*
%TO.P,U2,30,GPIO19*%
%TO.N,unconnected-(U2-GPIO19-Pad30)*%
X133850000Y-77462500D03*
%TO.P,U2,31,GPIO20*%
%TO.N,unconnected-(U2-GPIO20-Pad31)*%
X133450000Y-77462500D03*
%TO.P,U2,32,GPIO21*%
%TO.N,unconnected-(U2-GPIO21-Pad32)*%
X133050000Y-77462500D03*
%TO.P,U2,33,IOVDD*%
%TO.N,+3.3V*%
X132650000Y-77462500D03*
%TO.P,U2,34,GPIO22*%
%TO.N,BUTTON*%
X132250000Y-77462500D03*
%TO.P,U2,35,GPIO23*%
%TO.N,unconnected-(U2-GPIO23-Pad35)*%
X131850000Y-77462500D03*
%TO.P,U2,36,GPIO24*%
%TO.N,unconnected-(U2-GPIO24-Pad36)*%
X131450000Y-77462500D03*
%TO.P,U2,37,GPIO25*%
%TO.N,unconnected-(U2-GPIO25-Pad37)*%
X131050000Y-77462500D03*
%TO.P,U2,38,GPIO26_ADC0*%
%TO.N,MIC_ADC*%
X130650000Y-77462500D03*
%TO.P,U2,39,GPIO27_ADC1*%
%TO.N,unconnected-(U2-GPIO27_ADC1-Pad39)*%
X130250000Y-77462500D03*
%TO.P,U2,40,GPIO28_ADC2*%
%TO.N,unconnected-(U2-GPIO28_ADC2-Pad40)*%
X129850000Y-77462500D03*
%TO.P,U2,41,GPIO29_ADC3*%
%TO.N,unconnected-(U2-GPIO29_ADC3-Pad41)*%
X129450000Y-77462500D03*
%TO.P,U2,42,IOVDD*%
%TO.N,+3.3V*%
X129050000Y-77462500D03*
D38*
%TO.P,U2,43,ADC_AVDD*%
%TO.N,Net-(U2-ADC_AVDD)*%
X128212500Y-78300000D03*
%TO.P,U2,44,VREG_IN*%
%TO.N,+3.3V*%
X128212500Y-78700000D03*
%TO.P,U2,45,VREG_VOUT*%
X128212500Y-79100000D03*
%TO.P,U2,46,USB_DM*%
%TO.N,RPI_USB_N*%
X128212500Y-79500000D03*
%TO.P,U2,47,USB_DP*%
%TO.N,RPI_USB_P*%
X128212500Y-79900000D03*
%TO.P,U2,48,USB_VDD*%
%TO.N,+3.3V*%
X128212500Y-80300000D03*
%TO.P,U2,49,IOVDD*%
X128212500Y-80700000D03*
%TO.P,U2,50,DVDD*%
X128212500Y-81100000D03*
%TO.P,U2,51,QSPI_SD3*%
%TO.N,QSPI_SD3*%
X128212500Y-81500000D03*
%TO.P,U2,52,QSPI_SCLK*%
%TO.N,QSPI_CLK*%
X128212500Y-81900000D03*
%TO.P,U2,53,QSPI_SD0*%
%TO.N,QSPI_SP0*%
X128212500Y-82300000D03*
%TO.P,U2,54,QSPI_SD2*%
%TO.N,QSPI_SD2*%
X128212500Y-82700000D03*
%TO.P,U2,55,QSPI_SD1*%
%TO.N,QSPI_SP1*%
X128212500Y-83100000D03*
%TO.P,U2,56,QSPI_SS*%
%TO.N,QSPI_SS*%
X128212500Y-83500000D03*
D39*
%TO.P,U2,57,GND*%
%TO.N,GND*%
X131650000Y-80900000D03*
%TD*%
D15*
%TO.P,L1,1*%
%TO.N,/esp32_wifi_section/LNA_IN*%
X156655000Y-76400000D03*
%TO.P,L1,2*%
%TO.N,Net-(C26-Pad1)*%
X155685000Y-76400000D03*
%TD*%
D18*
%TO.P,C16,1*%
%TO.N,+3.3V*%
X153950000Y-85600000D03*
%TO.P,C16,2*%
%TO.N,GND*%
X152990000Y-85600000D03*
%TD*%
D40*
%TO.P,D3,1,K*%
%TO.N,Net-(D3-K)*%
X152000000Y-85285000D03*
%TO.P,D3,2,A*%
%TO.N,ESP_STATUS_LED*%
X152000000Y-84315000D03*
%TD*%
D18*
%TO.P,C10,1*%
%TO.N,Net-(U3--)*%
X119280000Y-82450000D03*
%TO.P,C10,2*%
%TO.N,GND*%
X118320000Y-82450000D03*
%TD*%
D21*
%TO.P,C18,1*%
%TO.N,+3.3V*%
X154920000Y-85600000D03*
%TO.P,C18,2*%
%TO.N,GND*%
X155880000Y-85600000D03*
%TD*%
D12*
%TO.P,R6,1*%
%TO.N,/_RPI_USB_N*%
X125390000Y-79150000D03*
%TO.P,R6,2*%
%TO.N,RPI_USB_N*%
X126410000Y-79150000D03*
%TD*%
%TO.P,R11,1*%
%TO.N,+3.3V*%
X150980000Y-82900000D03*
%TO.P,R11,2*%
%TO.N,/esp32_wifi_section/IO8*%
X152000000Y-82900000D03*
%TD*%
%TO.P,R12,1*%
%TO.N,+3.3V*%
X150900000Y-79170000D03*
%TO.P,R12,2*%
%TO.N,/esp32_wifi_section/IO2*%
X151920000Y-79170000D03*
%TD*%
D14*
%TO.P,R7,1*%
%TO.N,Net-(C13-Pad1)*%
X137610000Y-80650000D03*
%TO.P,R7,2*%
%TO.N,XOUT*%
X136590000Y-80650000D03*
%TD*%
D12*
%TO.P,R8,1*%
%TO.N,MIC_ADC*%
X118240000Y-76550000D03*
%TO.P,R8,2*%
%TO.N,Net-(U3-+)*%
X119260000Y-76550000D03*
%TD*%
D14*
%TO.P,R15,1*%
%TO.N,/esp32_wifi_section/_USB_D-*%
X162740000Y-84400000D03*
%TO.P,R15,2*%
%TO.N,/esp32_wifi_section/USB_D-*%
X161720000Y-84400000D03*
%TD*%
D20*
%TO.P,C26,1*%
%TO.N,Net-(C26-Pad1)*%
X154670000Y-76320000D03*
%TO.P,C26,2*%
%TO.N,GND*%
X154670000Y-77280000D03*
%TD*%
D12*
%TO.P,R18,1*%
%TO.N,GND*%
X167430000Y-78250000D03*
%TO.P,R18,2*%
%TO.N,Net-(D4-K)*%
X168450000Y-78250000D03*
%TD*%
D22*
%TO.P,C11,1*%
%TO.N,Net-(U2-ADC_AVDD)*%
X127050000Y-77380000D03*
%TO.P,C11,2*%
%TO.N,GND*%
X127050000Y-76420000D03*
%TD*%
D41*
%TO.P,R10,1*%
%TO.N,BUTTON*%
X122550000Y-83880000D03*
%TO.P,R10,2*%
%TO.N,QSPI_SS*%
X122550000Y-84900000D03*
%TD*%
D18*
%TO.P,C12,1*%
%TO.N,+3.3V*%
X132830000Y-85600000D03*
%TO.P,C12,2*%
%TO.N,GND*%
X131870000Y-85600000D03*
%TD*%
D42*
%TO.P,C23,1*%
%TO.N,+3.3V*%
X148050000Y-84575000D03*
%TO.P,C23,2*%
%TO.N,GND*%
X148050000Y-83025000D03*
%TD*%
D21*
%TO.P,C13,1*%
%TO.N,Net-(C13-Pad1)*%
X138620000Y-80650000D03*
%TO.P,C13,2*%
%TO.N,GND*%
X139580000Y-80650000D03*
%TD*%
%TO.P,C25,1*%
%TO.N,+3.3V*%
X161130000Y-77590000D03*
%TO.P,C25,2*%
%TO.N,GND*%
X162090000Y-77590000D03*
%TD*%
D43*
%TO.P,U3,1*%
%TO.N,MIC_ADC*%
X118812500Y-79150000D03*
%TO.P,U3,2,V-*%
%TO.N,GND*%
X118812500Y-80100000D03*
%TO.P,U3,3,+*%
%TO.N,Net-(U3-+)*%
X118812500Y-81050000D03*
%TO.P,U3,4,-*%
%TO.N,Net-(U3--)*%
X121087500Y-81050000D03*
%TO.P,U3,5,V+*%
%TO.N,+3.3V*%
X121087500Y-79150000D03*
%TD*%
D12*
%TO.P,R9,1*%
%TO.N,GND*%
X118290000Y-83500000D03*
%TO.P,R9,2*%
%TO.N,Net-(U3--)*%
X119310000Y-83500000D03*
%TD*%
D15*
%TO.P,L2,1*%
%TO.N,Net-(C19-Pad2)*%
X160945000Y-83180000D03*
%TO.P,L2,2*%
%TO.N,/esp32_wifi_section/XTAL_N*%
X159975000Y-83180000D03*
%TD*%
%TO.P,FB1,1*%
%TO.N,+3.3V*%
X132765000Y-76240000D03*
%TO.P,FB1,2*%
%TO.N,Net-(U2-ADC_AVDD)*%
X131795000Y-76240000D03*
%TD*%
D44*
%TO.P,U5,1,GND*%
%TO.N,GND*%
X145950000Y-77800000D03*
%TO.P,U5,2,VO*%
%TO.N,+3.3V*%
X143650000Y-77800000D03*
D45*
X143650000Y-84100000D03*
D44*
%TO.P,U5,3,VI*%
%TO.N,+5V*%
X141350000Y-77800000D03*
%TD*%
D20*
%TO.P,C14,1*%
%TO.N,+3.3V*%
X124950000Y-76496250D03*
%TO.P,C14,2*%
%TO.N,GND*%
X124950000Y-77456250D03*
%TD*%
D11*
%TO.P,SW4,1,1*%
%TO.N,Net-(U4-CHIP_EN)*%
X165100000Y-76600000D03*
%TO.P,SW4,2,2*%
%TO.N,GND*%
X165100000Y-80000000D03*
%TD*%
D46*
%TO.P,AE1,1,A*%
%TO.N,Net-(AE1-A)*%
X151600000Y-76800000D03*
%TO.P,AE1,2,Shield*%
%TO.N,unconnected-(AE1-Shield-Pad2)*%
X148500000Y-76800000D03*
%TD*%
D20*
%TO.P,C15,1*%
%TO.N,+3.3V*%
X122650000Y-81840000D03*
%TO.P,C15,2*%
%TO.N,GND*%
X122650000Y-82800000D03*
%TD*%
D11*
%TO.P,SW2,1,1*%
%TO.N,BUTTON*%
X115550000Y-81900000D03*
%TO.P,SW2,2,2*%
%TO.N,GND*%
X115550000Y-85300000D03*
%TD*%
D47*
%TO.N,GND*%
X149632784Y-82777216D03*
X111390000Y-82430000D03*
X126250000Y-76100000D03*
X123450006Y-78620000D03*
X118812514Y-79900000D03*
X139050000Y-78775006D03*
X154000000Y-77900000D03*
X139925000Y-80575000D03*
X125150357Y-83600357D03*
X162150000Y-78680000D03*
X162620000Y-77589988D03*
X168980000Y-79540000D03*
X137650028Y-79499986D03*
X112320000Y-82850000D03*
X153250000Y-84500000D03*
X157376074Y-77847103D03*
X134338783Y-81871800D03*
X167731499Y-79187500D03*
X156800000Y-77900002D03*
X170500000Y-84700000D03*
X115290010Y-85350000D03*
X115299986Y-80000000D03*
X146340000Y-78580000D03*
X126450000Y-85700000D03*
X163450000Y-79900000D03*
X158550000Y-84500000D03*
X125050004Y-81400000D03*
X122850000Y-82800000D03*
X129850000Y-76100000D03*
X158650000Y-79100000D03*
X155450000Y-77900000D03*
X154700000Y-77900000D03*
X149450000Y-84600000D03*
X111890000Y-82500000D03*
X168230000Y-79430000D03*
X149250000Y-81828200D03*
X161450000Y-76600000D03*
X124904185Y-77371800D03*
X156150002Y-77900002D03*
X131870001Y-85848000D03*
X146310000Y-77660000D03*
X146250000Y-81400000D03*
X146850000Y-82800000D03*
X164150000Y-78200000D03*
%TO.N,+3.3V*%
X157035947Y-78650000D03*
X132762216Y-78517784D03*
X143098270Y-81257298D03*
X143550000Y-81500000D03*
X124550026Y-76640900D03*
X153850000Y-84100000D03*
X121137500Y-79447498D03*
X122850000Y-81000000D03*
X143565791Y-79713000D03*
X134269417Y-80620000D03*
X144050000Y-79400000D03*
X143550000Y-78900000D03*
X152626167Y-82048200D03*
X129562468Y-83552735D03*
X129250468Y-78728200D03*
X132650002Y-83300000D03*
X127180000Y-81128200D03*
X124150000Y-81900000D03*
X166800000Y-77050000D03*
X144050422Y-81207600D03*
X159570000Y-80470000D03*
X150350000Y-79200000D03*
X142950000Y-79400000D03*
X160650000Y-77590000D03*
X143250000Y-82000000D03*
X146650000Y-84500000D03*
%TO.N,Net-(U2-ADC_AVDD)*%
X131350000Y-76300000D03*
X127935639Y-77172040D03*
D48*
%TO.N,+5V*%
X167950000Y-83800000D03*
D49*
X110850000Y-76800000D03*
D48*
X140625001Y-84150000D03*
D49*
X117550000Y-84700000D03*
D47*
%TO.N,Net-(U4-CHIP_EN)*%
X163310000Y-76600000D03*
X152490000Y-80090000D03*
%TO.N,ESP_STATUS_LED*%
X153647784Y-79537784D03*
X150300000Y-80671800D03*
%TO.N,SWCLK*%
X133820000Y-80250000D03*
%TO.N,SWDIO*%
X133602002Y-79716297D03*
%TO.N,Net-(U2-RUN)*%
X115549972Y-76600000D03*
X120350000Y-78400000D03*
X133749994Y-78836366D03*
X125150000Y-78302777D03*
%TO.N,Net-(U4-U0TXD)*%
X149650000Y-80100000D03*
X159486800Y-82028200D03*
%TO.N,/esp32_wifi_section/IO9*%
X165389786Y-83928200D03*
X152743000Y-83928200D03*
D50*
%TO.N,QSPI_SS*%
X123977442Y-85396800D03*
D47*
X127150000Y-83540900D03*
%TO.N,BUTTON*%
X132070000Y-78410000D03*
X123950000Y-80800010D03*
%TO.N,QSPI_SD3*%
X125204649Y-81976898D03*
X129050000Y-81500000D03*
%TO.N,/UART1_RX*%
X147450000Y-79992400D03*
X131476735Y-82867698D03*
%TO.N,/UART1_TX*%
X159160657Y-82600004D03*
X130780000Y-83040000D03*
%TO.N,MIC_ADC*%
X130649997Y-76864103D03*
X121950000Y-76200000D03*
%TO.N,LED_OUT_1*%
X134050000Y-83100000D03*
%TO.N,LED_OUT_3*%
X133550000Y-85800000D03*
%TO.N,LED_OUT_2*%
X133350000Y-82900000D03*
%TO.N,LED_OUT_4*%
X140257924Y-85816946D03*
%TO.N,/_RPI_USB_P*%
X122958491Y-80108491D03*
X113850000Y-81294850D03*
%TO.N,/_RPI_USB_N*%
X113858207Y-80697490D03*
X122541509Y-79691509D03*
%TD*%
D51*
%TO.N,GND*%
X115290000Y-85350000D02*
X115290010Y-85350000D01*
D52*
X111400000Y-82440000D02*
X111910000Y-82440000D01*
D51*
X126150000Y-83745000D02*
X125295000Y-83745000D01*
X139580000Y-80650000D02*
X139850000Y-80650000D01*
D52*
X111910000Y-82440000D02*
X111890000Y-82420000D01*
D51*
X153020000Y-85745000D02*
X153020000Y-85550000D01*
D53*
X157670000Y-77553177D02*
X157670000Y-77300000D01*
D54*
X162350000Y-80495000D02*
X160950000Y-81895000D01*
D51*
X151002110Y-85877100D02*
X150900000Y-85774990D01*
D53*
X156150002Y-77900002D02*
X156800000Y-77900002D01*
D51*
X159600000Y-78840000D02*
X158910000Y-78840000D01*
D52*
X167957500Y-79187500D02*
X167731499Y-79187500D01*
X169000000Y-79560000D02*
X168980000Y-79540000D01*
D51*
X127830000Y-85600000D02*
X126550000Y-85600000D01*
X150250000Y-84275000D02*
X149600000Y-83625000D01*
X137500000Y-84900000D02*
X138700000Y-83700000D01*
X139400000Y-78775000D02*
X139050006Y-78775000D01*
D52*
X168230000Y-79430000D02*
X168200000Y-79430000D01*
X111970000Y-82500000D02*
X112320000Y-82850000D01*
X111380000Y-82440000D02*
X111390000Y-82430000D01*
D51*
X165000000Y-80100000D02*
X165100000Y-80000000D01*
X126350000Y-77020000D02*
X125736250Y-77020000D01*
D53*
X157376074Y-77847103D02*
X157670000Y-77553177D01*
D51*
X156345000Y-85550000D02*
X156570000Y-85775000D01*
X129130000Y-76300000D02*
X129650000Y-76300000D01*
X162619988Y-77590000D02*
X162620000Y-77589988D01*
X139850000Y-80650000D02*
X139925000Y-80575000D01*
D54*
X136950000Y-82100000D02*
X137300000Y-82100000D01*
D52*
X111390000Y-82430000D02*
X111400000Y-82440000D01*
D54*
X162350000Y-80325000D02*
X162350000Y-80495000D01*
D51*
X122960000Y-78620000D02*
X124020000Y-78620000D01*
X138700000Y-83700000D02*
X138700000Y-83500000D01*
D52*
X169940000Y-79560000D02*
X169000000Y-79560000D01*
D53*
X157376074Y-77847103D02*
X156852899Y-77847103D01*
D51*
X150125000Y-81600000D02*
X149478200Y-81600000D01*
D52*
X168200000Y-79430000D02*
X167957500Y-79187500D01*
D51*
X161900000Y-76600000D02*
X161450000Y-76600000D01*
X125420000Y-81200000D02*
X125250004Y-81200000D01*
X137650000Y-79500000D02*
X137650014Y-79500000D01*
X150900000Y-85774990D02*
X150900000Y-85610000D01*
X129650000Y-76300000D02*
X129850000Y-76100000D01*
D53*
X155450000Y-77900000D02*
X156150000Y-77900000D01*
D51*
X122960000Y-78620000D02*
X123450006Y-78620000D01*
D54*
X160950000Y-81895000D02*
X160950000Y-82075000D01*
D51*
X118862500Y-79956250D02*
X118812514Y-79906264D01*
X126450000Y-85145000D02*
X126550000Y-85045000D01*
X118812514Y-79906264D02*
X118812514Y-79900000D01*
X153050000Y-85775000D02*
X153020000Y-85745000D01*
D52*
X168960000Y-79560000D02*
X168330000Y-79560000D01*
X111890000Y-82420000D02*
X111890000Y-82500000D01*
D51*
X149600000Y-82810000D02*
X149632784Y-82777216D01*
D53*
X154000000Y-77900000D02*
X154700000Y-77900000D01*
D51*
X124988635Y-77456250D02*
X124904185Y-77371800D01*
X161620000Y-78680000D02*
X162150000Y-78680000D01*
X149478200Y-81600000D02*
X149250000Y-81828200D01*
X149600000Y-83625000D02*
X149600000Y-82810000D01*
D52*
X111890000Y-82500000D02*
X111970000Y-82500000D01*
D51*
X158910000Y-78840000D02*
X158650000Y-79100000D01*
X127400000Y-76320000D02*
X127050000Y-76320000D01*
X155880000Y-85550000D02*
X156345000Y-85550000D01*
X137650014Y-79500000D02*
X137650028Y-79499986D01*
D54*
X137300000Y-82100000D02*
X138700000Y-83500000D01*
D51*
X135087500Y-81900000D02*
X134366983Y-81900000D01*
X125736250Y-77020000D02*
X125300000Y-77456250D01*
D53*
X154670000Y-77870000D02*
X154700000Y-77900000D01*
D51*
X152692900Y-85877100D02*
X151002110Y-85877100D01*
D52*
X168330000Y-79560000D02*
X168230000Y-79460000D01*
X168980000Y-79540000D02*
X168960000Y-79560000D01*
X168230000Y-79460000D02*
X168230000Y-79430000D01*
D51*
X115300000Y-80000000D02*
X115299986Y-80000000D01*
X125250004Y-81200000D02*
X125050004Y-81400000D01*
D53*
X154700000Y-77900000D02*
X155450000Y-77900000D01*
D51*
X153020000Y-85550000D02*
X152692900Y-85877100D01*
D53*
X156852899Y-77847103D02*
X156800000Y-77900002D01*
X156150000Y-77900000D02*
X156150002Y-77900002D01*
D51*
X125005714Y-83745000D02*
X125150357Y-83600357D01*
X139050006Y-78775000D02*
X139050000Y-78775006D01*
X125300000Y-77456250D02*
X124988635Y-77456250D01*
X126450000Y-85700000D02*
X126450000Y-85145000D01*
X124550000Y-83745000D02*
X125005714Y-83745000D01*
X125295000Y-83745000D02*
X125150357Y-83600357D01*
X126550000Y-85600000D02*
X126450000Y-85700000D01*
D53*
X154670000Y-77280000D02*
X154670000Y-77870000D01*
D51*
X150900000Y-85610000D02*
X150250000Y-84960000D01*
X165000000Y-81800000D02*
X165000000Y-80100000D01*
X127050000Y-76320000D02*
X126350000Y-77020000D01*
X134366983Y-81900000D02*
X134338783Y-81871800D01*
X162090000Y-77590000D02*
X162619988Y-77590000D01*
X150250000Y-84960000D02*
X150250000Y-84275000D01*
%TO.N,Net-(U3-+)*%
X119200000Y-78550000D02*
X118250000Y-77600000D01*
X120300000Y-76550000D02*
X119310000Y-76550000D01*
X119900000Y-78800000D02*
X119650000Y-78550000D01*
X119900000Y-80900000D02*
X119900000Y-78800000D01*
X119750000Y-81050000D02*
X119900000Y-80900000D01*
X118812500Y-81050000D02*
X119750000Y-81050000D01*
X119310000Y-76550000D02*
X119260000Y-76500000D01*
X119260000Y-76590000D02*
X118250000Y-77600000D01*
X119650000Y-78550000D02*
X119200000Y-78550000D01*
X119260000Y-76500000D02*
X119260000Y-76590000D01*
%TO.N,+3.3V*%
X121660000Y-82300000D02*
X122390000Y-82300000D01*
D54*
X159300000Y-80100000D02*
X159600000Y-79800000D01*
X132565900Y-83384102D02*
X132650002Y-83300000D01*
D51*
X157100000Y-78720000D02*
X157120000Y-78700000D01*
D54*
X132565900Y-85222150D02*
X132565900Y-83384102D01*
D51*
X152177967Y-81600000D02*
X152626167Y-82048200D01*
X124020000Y-76640000D02*
X124549126Y-76640000D01*
X156985947Y-78700000D02*
X157035947Y-78650000D01*
D54*
X132950000Y-85606250D02*
X132565900Y-85222150D01*
D55*
X146250000Y-84100000D02*
X146650000Y-84500000D01*
X143650000Y-84100000D02*
X146250000Y-84100000D01*
D51*
X126480000Y-81200000D02*
X126551800Y-81128200D01*
X129222268Y-78700000D02*
X129250468Y-78728200D01*
X127208200Y-81100000D02*
X127180000Y-81128200D01*
X129050000Y-78527732D02*
X129250468Y-78728200D01*
X156720000Y-78700000D02*
X156985947Y-78700000D01*
D54*
X153980000Y-85550000D02*
X154200000Y-85550000D01*
D51*
X127150000Y-78700000D02*
X126530000Y-78080000D01*
X132650000Y-78405568D02*
X132762216Y-78517784D01*
X128212500Y-78700000D02*
X127150000Y-78700000D01*
X128212500Y-78700000D02*
X128212500Y-79100000D01*
D54*
X159600000Y-80440000D02*
X159570000Y-80470000D01*
X154200000Y-85330000D02*
X153980000Y-85550000D01*
D51*
X129050000Y-84337500D02*
X129050000Y-83940536D01*
X150980000Y-82900000D02*
X151675000Y-82205000D01*
X157200000Y-79400000D02*
X157200000Y-78780000D01*
D54*
X136690000Y-78370000D02*
X137710000Y-77350000D01*
D51*
X126530000Y-78080000D02*
X125950000Y-78080000D01*
X128212500Y-81100000D02*
X127208200Y-81100000D01*
D54*
X154700000Y-84300000D02*
X154200000Y-84300000D01*
X154200000Y-84300000D02*
X154200000Y-85330000D01*
D51*
X129050000Y-83940536D02*
X129437801Y-83552735D01*
D55*
X146725000Y-84575000D02*
X146650000Y-84500000D01*
D51*
X134589417Y-80300000D02*
X134269417Y-80620000D01*
D54*
X154920000Y-85550000D02*
X154030000Y-85550000D01*
D51*
X126551800Y-81128200D02*
X127180000Y-81128200D01*
D55*
X148050000Y-84575000D02*
X146725000Y-84575000D01*
D51*
X151675000Y-81600000D02*
X152177967Y-81600000D01*
X128212500Y-81100000D02*
X128212500Y-80700000D01*
D56*
X166850000Y-77000000D02*
X166800000Y-77050000D01*
D54*
X154030000Y-85550000D02*
X153980000Y-85500000D01*
X135087500Y-80300000D02*
X135950000Y-80300000D01*
D51*
X129050000Y-77462500D02*
X129050000Y-78527732D01*
D54*
X158400000Y-80100000D02*
X159300000Y-80100000D01*
D51*
X161130000Y-77590000D02*
X160650000Y-77590000D01*
X135087500Y-80300000D02*
X134589417Y-80300000D01*
X157200000Y-78780000D02*
X157120000Y-78700000D01*
D54*
X136690000Y-78450000D02*
X136690000Y-78370000D01*
X151975000Y-81100000D02*
X151675000Y-81400000D01*
D51*
X132650000Y-77462500D02*
X132650000Y-78405568D01*
X122850000Y-81840000D02*
X122850000Y-81000000D01*
X132765000Y-76240000D02*
X132650000Y-76355000D01*
D54*
X136690000Y-79500000D02*
X136690000Y-78450000D01*
D51*
X156700000Y-78720000D02*
X156720000Y-78700000D01*
D54*
X124080000Y-76546250D02*
X125250000Y-76546250D01*
X158400000Y-80600000D02*
X158400000Y-80100000D01*
D51*
X132650000Y-76355000D02*
X132650000Y-77462500D01*
X156700000Y-78720000D02*
X157100000Y-78720000D01*
D54*
X132650000Y-84293750D02*
X132650000Y-83300002D01*
X135950000Y-80300000D02*
X136690000Y-79560000D01*
X136690000Y-79560000D02*
X136690000Y-79500000D01*
D51*
X124549126Y-76640000D02*
X124550026Y-76640900D01*
X151675000Y-82205000D02*
X151675000Y-81600000D01*
X150900000Y-80180000D02*
X150900000Y-79170000D01*
X129437801Y-83552735D02*
X129562468Y-83552735D01*
X128212500Y-80700000D02*
X128212500Y-80300000D01*
D56*
X167415000Y-77000000D02*
X166850000Y-77000000D01*
D51*
X150870000Y-79200000D02*
X150900000Y-79170000D01*
D54*
X132650000Y-83300002D02*
X132650002Y-83300000D01*
X159600000Y-79800000D02*
X159600000Y-80440000D01*
D51*
X122390000Y-82300000D02*
X122850000Y-81840000D01*
X124150000Y-81900000D02*
X124150000Y-82445000D01*
X121137500Y-79006250D02*
X121137500Y-79447498D01*
D54*
X153500000Y-81100000D02*
X151975000Y-81100000D01*
D51*
X150350000Y-79200000D02*
X150870000Y-79200000D01*
X157120000Y-78700000D02*
X156720000Y-78700000D01*
D54*
X125250000Y-76546250D02*
X125300000Y-76496250D01*
D51*
X128212500Y-78700000D02*
X129222268Y-78700000D01*
X156700000Y-79400000D02*
X156700000Y-78720000D01*
X135087500Y-80700000D02*
X135087500Y-80300000D01*
D54*
%TO.N,Net-(U2-ADC_AVDD)*%
X128170000Y-76300000D02*
X128170000Y-76937679D01*
X127400000Y-77280000D02*
X127827679Y-77280000D01*
X128212500Y-78300000D02*
X128212500Y-78092500D01*
D51*
X131410000Y-76240000D02*
X131350000Y-76300000D01*
D54*
X128212500Y-78092500D02*
X127400000Y-77280000D01*
X128170000Y-76937679D02*
X127935639Y-77172040D01*
X127827679Y-77280000D02*
X127935639Y-77172040D01*
D51*
X131795000Y-76240000D02*
X131410000Y-76240000D01*
D54*
%TO.N,XIN*%
X136950000Y-83500000D02*
X136950000Y-84490000D01*
X136950000Y-84490000D02*
X136540000Y-84900000D01*
X135950000Y-81600000D02*
X135850000Y-81500000D01*
X135950000Y-83400000D02*
X135950000Y-81600000D01*
X135850000Y-81500000D02*
X135087500Y-81500000D01*
X136950000Y-83500000D02*
X136050000Y-83500000D01*
X136050000Y-83500000D02*
X135950000Y-83400000D01*
%TO.N,/esp32_wifi_section/XTAL_P*%
X158400000Y-81100000D02*
X160175000Y-81100000D01*
X160590000Y-78900000D02*
X160590000Y-79965000D01*
X160175000Y-81100000D02*
X160950000Y-80325000D01*
X160590000Y-79965000D02*
X160950000Y-80325000D01*
D57*
%TO.N,+5V*%
X141300000Y-77850000D02*
X141350000Y-77800000D01*
X110950000Y-76700000D02*
X110850000Y-76800000D01*
D58*
X117400000Y-79450000D02*
X117400000Y-84550000D01*
D57*
X140625001Y-84150000D02*
X141050000Y-83725001D01*
D55*
X167950000Y-83800000D02*
X167950000Y-85107500D01*
X141450000Y-77900000D02*
X140775000Y-77225000D01*
D58*
X112350000Y-76700000D02*
X113350000Y-76700000D01*
X117400000Y-84550000D02*
X117550000Y-84700000D01*
D55*
X140775000Y-77225000D02*
X139050000Y-77225000D01*
D57*
X112350000Y-76700000D02*
X110950000Y-76700000D01*
D55*
X141450000Y-77900000D02*
X141350000Y-77800000D01*
D57*
X141300000Y-82845672D02*
X141300000Y-77850000D01*
D58*
X113350000Y-76700000D02*
X115050000Y-78400000D01*
X115050000Y-78400000D02*
X116350000Y-78400000D01*
X116350000Y-78400000D02*
X117400000Y-79450000D01*
D57*
X141050000Y-83095672D02*
X141300000Y-82845672D01*
X141050000Y-83725001D02*
X141050000Y-83095672D01*
D51*
%TO.N,Net-(U4-CHIP_EN)*%
X162860000Y-76600000D02*
X163310000Y-76600000D01*
X163310000Y-76600000D02*
X165100000Y-76600000D01*
X154700000Y-78820000D02*
X154550000Y-78670000D01*
X154700000Y-78820000D02*
X154700000Y-79400000D01*
X151920000Y-80180000D02*
X152400000Y-80180000D01*
X152400000Y-80180000D02*
X152490000Y-80090000D01*
X153910000Y-78670000D02*
X154550000Y-78670000D01*
X152490000Y-80090000D02*
X153910000Y-78670000D01*
D54*
%TO.N,MIC_RAW_OUT*%
X121250000Y-77650000D02*
X121660000Y-77650000D01*
X121660000Y-77650000D02*
X122670000Y-76640000D01*
D51*
%TO.N,Net-(C3-Pad2)*%
X120263750Y-77600000D02*
X120290000Y-77626250D01*
X119270000Y-77600000D02*
X120263750Y-77600000D01*
%TO.N,RPI_STATUS_LED*%
X130250000Y-85030000D02*
X130820000Y-85600000D01*
X130250000Y-84337500D02*
X130250000Y-85030000D01*
%TO.N,ESP_STATUS_LED*%
X150506800Y-83236800D02*
X150506800Y-82563200D01*
X152000000Y-84615000D02*
X152000000Y-84060000D01*
X150506800Y-82563200D02*
X150900000Y-82170000D01*
X153785568Y-79400000D02*
X153647784Y-79537784D01*
X150870000Y-83600000D02*
X150506800Y-83236800D01*
X150900000Y-81271800D02*
X150300000Y-80671800D01*
X152000000Y-84060000D02*
X151540000Y-83600000D01*
X150900000Y-82170000D02*
X150900000Y-81271800D01*
X151540000Y-83600000D02*
X150870000Y-83600000D01*
X154200000Y-79400000D02*
X153785568Y-79400000D01*
D54*
%TO.N,Net-(D2-K)*%
X128900000Y-85556250D02*
X128850000Y-85606250D01*
D51*
X129850000Y-85600000D02*
X128850000Y-85600000D01*
D54*
%TO.N,SWCLK*%
X133820000Y-80250000D02*
X133850000Y-80250000D01*
X134200000Y-79900000D02*
X135087500Y-79900000D01*
X133850000Y-80250000D02*
X134200000Y-79900000D01*
D51*
%TO.N,SWDIO*%
X133602002Y-79716297D02*
X133818299Y-79500000D01*
X133818299Y-79500000D02*
X135087500Y-79500000D01*
%TO.N,/esp32_wifi_section/XTAL_N*%
X159840000Y-81600000D02*
X160050000Y-81810000D01*
X160050000Y-81810000D02*
X160050000Y-83055000D01*
X158400000Y-81600000D02*
X159840000Y-81600000D01*
X160050000Y-83055000D02*
X159915000Y-83190000D01*
D54*
%TO.N,Net-(U2-RUN)*%
X136000000Y-77996250D02*
X136000000Y-78856250D01*
X136690000Y-77306250D02*
X136000000Y-77996250D01*
D51*
X134013628Y-79100000D02*
X133749994Y-78836366D01*
X124819127Y-77971904D02*
X122378096Y-77971904D01*
D54*
X136000000Y-78856250D02*
X135756250Y-79100000D01*
X135756250Y-79100000D02*
X135131250Y-79100000D01*
D51*
X135087500Y-79100000D02*
X134013628Y-79100000D01*
X125150000Y-78302777D02*
X124819127Y-77971904D01*
X121950000Y-78400000D02*
X120350000Y-78400000D01*
X122378096Y-77971904D02*
X121950000Y-78400000D01*
X115300000Y-76600000D02*
X115549972Y-76600000D01*
%TO.N,Net-(U4-U0TXD)*%
X149060000Y-80000000D02*
X149550000Y-80000000D01*
X159415000Y-82100000D02*
X159486800Y-82028200D01*
X158400000Y-82100000D02*
X159415000Y-82100000D01*
X149550000Y-80000000D02*
X149650000Y-80100000D01*
%TO.N,/esp32_wifi_section/IO2*%
X154710600Y-78390600D02*
X155200000Y-78880000D01*
X153794268Y-78390600D02*
X153014868Y-79170000D01*
X155200000Y-78880000D02*
X155200000Y-79400000D01*
X153014868Y-79170000D02*
X151920000Y-79170000D01*
X154710600Y-78390600D02*
X153794268Y-78390600D01*
D54*
%TO.N,/esp32_wifi_section/IO8*%
X153500000Y-82600000D02*
X152200000Y-82600000D01*
X152200000Y-82600000D02*
X152000000Y-82800000D01*
D51*
%TO.N,/esp32_wifi_section/IO9*%
X153095000Y-83100000D02*
X153500000Y-83100000D01*
X152891800Y-83800332D02*
X152891800Y-83303200D01*
X152891800Y-83303200D02*
X153095000Y-83100000D01*
X152763932Y-83928200D02*
X152891800Y-83800332D01*
X165000000Y-84317986D02*
X165389786Y-83928200D01*
X165000000Y-85200000D02*
X165000000Y-84317986D01*
X152743000Y-83928200D02*
X152763932Y-83928200D01*
D54*
%TO.N,XOUT*%
X136140000Y-81100000D02*
X136590000Y-80650000D01*
X135087500Y-81100000D02*
X136140000Y-81100000D01*
D51*
%TO.N,QSPI_SS*%
X122900000Y-84910000D02*
X124015000Y-84910000D01*
X124015000Y-84910000D02*
X124150000Y-85045000D01*
D54*
X124150000Y-85224242D02*
X123977442Y-85396800D01*
X128086950Y-83500000D02*
X127190900Y-83500000D01*
X124150000Y-85001250D02*
X124150000Y-85224242D01*
X127190900Y-83500000D02*
X127150000Y-83540900D01*
D51*
%TO.N,BUTTON*%
X122900000Y-83890000D02*
X121160000Y-83890000D01*
X119573800Y-85476200D02*
X117228487Y-85476200D01*
X123550000Y-81200010D02*
X123550000Y-83240000D01*
X132070000Y-78410000D02*
X132250000Y-78230000D01*
X121160000Y-83890000D02*
X119573800Y-85476200D01*
X117228487Y-85476200D02*
X116650000Y-84897713D01*
X116650000Y-83380276D02*
X115271724Y-82002000D01*
X115271724Y-82002000D02*
X115273724Y-82000000D01*
X116650000Y-84897713D02*
X116650000Y-83380276D01*
X132250000Y-78230000D02*
X132250000Y-77462500D01*
X123550000Y-83240000D02*
X122900000Y-83890000D01*
X115273724Y-82000000D02*
X115300000Y-82000000D01*
X123950000Y-80800010D02*
X123550000Y-81200010D01*
%TO.N,QSPI_SD3*%
X124950000Y-82231547D02*
X124950000Y-82445000D01*
X129050000Y-81500000D02*
X128212500Y-81500000D01*
X125204649Y-81976898D02*
X124950000Y-82231547D01*
%TO.N,QSPI_SP0*%
X126695000Y-82300000D02*
X126550000Y-82445000D01*
X128212500Y-82300000D02*
X126695000Y-82300000D01*
D54*
%TO.N,QSPI_SD2*%
X129000000Y-82856250D02*
X129000000Y-83550000D01*
X128293750Y-84256250D02*
X126263200Y-84256250D01*
X128212500Y-82656250D02*
X128800000Y-82656250D01*
X129000000Y-83550000D02*
X128293750Y-84256250D01*
X128800000Y-82656250D02*
X129000000Y-82856250D01*
X126263200Y-84256250D02*
X125750000Y-84769450D01*
X125750000Y-84769450D02*
X125750000Y-85001250D01*
D51*
%TO.N,QSPI_CLK*%
X127450000Y-81841800D02*
X125908200Y-81841800D01*
X125908200Y-81841800D02*
X125750000Y-82000000D01*
X128212500Y-81900000D02*
X127508200Y-81900000D01*
X127508200Y-81900000D02*
X127450000Y-81841800D01*
X125750000Y-82000000D02*
X125750000Y-82445000D01*
%TO.N,/UART1_RX*%
X147457600Y-80000000D02*
X147450000Y-79992400D01*
X131450000Y-84337500D02*
X131450000Y-82894433D01*
X131450000Y-82894433D02*
X131476735Y-82867698D01*
X148040000Y-80000000D02*
X147457600Y-80000000D01*
%TO.N,QSPI_SP1*%
X123946800Y-84123200D02*
X124163600Y-84340000D01*
X128212500Y-83100000D02*
X124213600Y-83100000D01*
X124163600Y-84340000D02*
X124860000Y-84340000D01*
X124213600Y-83100000D02*
X123946800Y-83366800D01*
X124860000Y-84340000D02*
X124950000Y-84430000D01*
X123946800Y-83366800D02*
X123946800Y-84123200D01*
X124950000Y-84430000D02*
X124950000Y-85045000D01*
%TO.N,/UART1_TX*%
X158400000Y-82600000D02*
X159160653Y-82600000D01*
X131050000Y-83310000D02*
X131050000Y-84337500D01*
X159160653Y-82600000D02*
X159160657Y-82600004D01*
X130780000Y-83040000D02*
X131050000Y-83310000D01*
%TO.N,Net-(U3--)*%
X119360000Y-83300000D02*
X119360000Y-82330000D01*
X120640000Y-82300000D02*
X120640000Y-81403750D01*
X119360000Y-82330000D02*
X119330000Y-82300000D01*
X119330000Y-82300000D02*
X120640000Y-82300000D01*
X120640000Y-81403750D02*
X121137500Y-80906250D01*
D54*
X121137500Y-80906250D02*
X120960000Y-81083750D01*
%TO.N,Net-(C13-Pad1)*%
X137610000Y-80650000D02*
X138620000Y-80650000D01*
X138700000Y-80730000D02*
X138620000Y-80650000D01*
X138700000Y-82100000D02*
X138700000Y-80730000D01*
D51*
%TO.N,Net-(C19-Pad2)*%
X161840000Y-83190000D02*
X160885000Y-83190000D01*
X161840000Y-83190000D02*
X161840000Y-82405000D01*
X161840000Y-82405000D02*
X162430000Y-81815000D01*
D59*
%TO.N,Net-(C26-Pad1)*%
X153695000Y-76360000D02*
X153655000Y-76400000D01*
X153791568Y-76320000D02*
X154613431Y-76320000D01*
X154806568Y-76400000D02*
X155685000Y-76400000D01*
X154710000Y-76360000D02*
G75*
G03*
X154613431Y-76319987I-96600J-96600D01*
G01*
X153791568Y-76320000D02*
G75*
G03*
X153695009Y-76360009I32J-136600D01*
G01*
X154710000Y-76360000D02*
G75*
G03*
X154806568Y-76400013I96600J96600D01*
G01*
D51*
%TO.N,MIC_ADC*%
X118862500Y-79006250D02*
X118156250Y-79006250D01*
X117750000Y-78600000D02*
X117750000Y-77000000D01*
X121600000Y-76550000D02*
X121950000Y-76200000D01*
D54*
X130650000Y-77462500D02*
X130650000Y-76864106D01*
D51*
X118240000Y-76510000D02*
X118240000Y-76500000D01*
X118240000Y-76500000D02*
X118367304Y-76500000D01*
X121260000Y-76550000D02*
X121600000Y-76550000D01*
X118156250Y-79006250D02*
X117750000Y-78600000D01*
X118367304Y-76500000D02*
X118917304Y-75950000D01*
X121700000Y-75950000D02*
X121950000Y-76200000D01*
X117750000Y-77000000D02*
X118240000Y-76510000D01*
X118917304Y-75950000D02*
X121700000Y-75950000D01*
D54*
X130650000Y-76864106D02*
X130649997Y-76864103D01*
D51*
%TO.N,LED_OUT_1*%
X135087500Y-82700000D02*
X134350000Y-82700000D01*
X134050000Y-83000000D02*
X134050000Y-83100000D01*
X134350000Y-82700000D02*
X134150000Y-82900000D01*
X134150000Y-82900000D02*
X134050000Y-83000000D01*
D52*
%TO.N,Net-(D1-A)*%
X111004000Y-79720000D02*
X111424000Y-79300000D01*
X112150000Y-79300000D02*
X112350000Y-79500000D01*
X110280000Y-79720000D02*
X111004000Y-79720000D01*
X111424000Y-79300000D02*
X112150000Y-79300000D01*
D51*
%TO.N,LED_OUT_3*%
X133050000Y-84337500D02*
X133050000Y-85020762D01*
X133550000Y-85520762D02*
X133550000Y-85800000D01*
X133050000Y-85020762D02*
X133550000Y-85520762D01*
%TO.N,LED_OUT_2*%
X133350000Y-82700000D02*
X133350000Y-82900000D01*
X133750000Y-82300000D02*
X133450000Y-82600000D01*
X133450000Y-82600000D02*
X133350000Y-82700000D01*
X135087500Y-82300000D02*
X133750000Y-82300000D01*
%TO.N,LED_OUT_4*%
X134350000Y-85800000D02*
X133450000Y-84900000D01*
X133450000Y-84900000D02*
X133450000Y-84337500D01*
X140240978Y-85800000D02*
X134350000Y-85800000D01*
X140257924Y-85816946D02*
X140240978Y-85800000D01*
D60*
%TO.N,/esp32_wifi_section/_USB_D+*%
X168829036Y-81374037D02*
X168984999Y-81530000D01*
X164610019Y-83369037D02*
X165920019Y-83369037D01*
X162740000Y-85460000D02*
X163100963Y-85099037D01*
X164209037Y-83770000D02*
X164209056Y-83770000D01*
X165920019Y-83369037D02*
X166669037Y-82620019D01*
X164209037Y-84136775D02*
X164209037Y-83770000D01*
X168984999Y-81530000D02*
X170020000Y-81530000D01*
X166669037Y-82620019D02*
X166669037Y-81820019D01*
X166669037Y-81820019D02*
X167115019Y-81374037D01*
X163100963Y-85099037D02*
X163246775Y-85099037D01*
X164209056Y-83770000D02*
X164610019Y-83369037D01*
X163246775Y-85099037D02*
X164209037Y-84136775D01*
X167115019Y-81374037D02*
X168829036Y-81374037D01*
%TO.N,/esp32_wifi_section/_USB_D-*%
X166330963Y-82479981D02*
X166330963Y-81679981D01*
X163106737Y-84760963D02*
X163870963Y-83996737D01*
X163870963Y-83629981D02*
X164469981Y-83030963D01*
X163870963Y-83996737D02*
X163870963Y-83629981D01*
X165779981Y-83030963D02*
X166330963Y-82479981D01*
X163100963Y-84760963D02*
X163106737Y-84760963D01*
X166330963Y-81679981D02*
X166974981Y-81035963D01*
X168829036Y-81035963D02*
X168984999Y-80880000D01*
X164469981Y-83030963D02*
X165779981Y-83030963D01*
X166974981Y-81035963D02*
X168829036Y-81035963D01*
X162740000Y-84400000D02*
X163100963Y-84760963D01*
X168984999Y-80880000D02*
X170020000Y-80880000D01*
%TO.N,/esp32_wifi_section/USB_D-*%
X160210019Y-84760963D02*
X160879036Y-84760963D01*
X160879036Y-84760963D02*
X161239999Y-84400000D01*
X161239999Y-84400000D02*
X161720000Y-84400000D01*
X159375611Y-83926555D02*
X160210019Y-84760963D01*
X158400000Y-83100000D02*
X159007501Y-83100000D01*
X159007501Y-83100000D02*
X159375611Y-83468110D01*
X159375611Y-83468110D02*
X159375611Y-83926555D01*
%TO.N,/esp32_wifi_section/USB_D+*%
X160879036Y-85099037D02*
X161239999Y-85460000D01*
X159037537Y-83630036D02*
X159037537Y-84066593D01*
X159037537Y-84066593D02*
X160069981Y-85099037D01*
X161239999Y-85460000D02*
X161720000Y-85460000D01*
X159007501Y-83600000D02*
X159037537Y-83630036D01*
X160069981Y-85099037D02*
X160879036Y-85099037D01*
X158400000Y-83600000D02*
X159007501Y-83600000D01*
D59*
%TO.N,Net-(AE1-A)*%
X151800000Y-76600000D02*
X151600000Y-76800000D01*
X152282842Y-76400000D02*
X152685000Y-76400000D01*
X151800000Y-76600000D02*
G75*
G02*
X152282842Y-76400018I482800J-482800D01*
G01*
D54*
%TO.N,Net-(D3-K)*%
X152000000Y-85440000D02*
X150850000Y-84290000D01*
X152000000Y-85585000D02*
X152000000Y-85440000D01*
D52*
%TO.N,Net-(D5-A)*%
X169940000Y-82160000D02*
X168037500Y-82160000D01*
X168037500Y-82160000D02*
X167890000Y-82307500D01*
D60*
%TO.N,RPI_USB_P*%
X127245964Y-79844037D02*
X127481273Y-79844037D01*
X127844037Y-79869037D02*
X127506273Y-79869037D01*
X126890001Y-80200000D02*
X127245964Y-79844037D01*
X128212500Y-79900000D02*
X127875000Y-79900000D01*
X126410000Y-80200000D02*
X126890001Y-80200000D01*
X127506273Y-79869037D02*
X127481273Y-79844037D01*
X127875000Y-79900000D02*
X127844037Y-79869037D01*
%TO.N,RPI_USB_N*%
X126890001Y-79150000D02*
X126410000Y-79150000D01*
X127245964Y-79505963D02*
X126890001Y-79150000D01*
X127875000Y-79500000D02*
X127844037Y-79530963D01*
X127844037Y-79530963D02*
X127635647Y-79530963D01*
X127635647Y-79530963D02*
X127610647Y-79505963D01*
X128212500Y-79500000D02*
X127875000Y-79500000D01*
X127610647Y-79505963D02*
X127245964Y-79505963D01*
%TO.N,/_RPI_USB_P*%
X111245001Y-80990000D02*
X110210000Y-80990000D01*
X112890254Y-81169310D02*
X112554981Y-80834037D01*
X111400964Y-80834037D02*
X111245001Y-80990000D01*
X123825626Y-79829037D02*
X123840626Y-79844037D01*
X113724460Y-81169310D02*
X112890254Y-81169310D01*
X123840626Y-79844037D02*
X124554036Y-79844037D01*
X122958491Y-80108491D02*
X122958491Y-79930564D01*
X124554036Y-79844037D02*
X124909999Y-80200000D01*
X113850000Y-81294850D02*
X113724460Y-81169310D01*
X123060018Y-79829037D02*
X123825626Y-79829037D01*
X122958491Y-79930564D02*
X123060018Y-79829037D01*
X124909999Y-80200000D02*
X125390000Y-80200000D01*
X112554981Y-80834037D02*
X111400964Y-80834037D01*
%TO.N,/_RPI_USB_N*%
X113030292Y-80831236D02*
X112695019Y-80495963D01*
X113724461Y-80831236D02*
X113030292Y-80831236D01*
X122719436Y-79691509D02*
X122919982Y-79490963D01*
X122919982Y-79490963D02*
X123955000Y-79490963D01*
X123955000Y-79490963D02*
X123970000Y-79505963D01*
X122541509Y-79691509D02*
X122719436Y-79691509D01*
X123970000Y-79505963D02*
X124554036Y-79505963D01*
X112695019Y-80495963D02*
X111400964Y-80495963D01*
X124909999Y-79150000D02*
X125390000Y-79150000D01*
X111245001Y-80340000D02*
X110210000Y-80340000D01*
X111400964Y-80495963D02*
X111245001Y-80340000D01*
X124554036Y-79505963D02*
X124909999Y-79150000D01*
X113858207Y-80697490D02*
X113724461Y-80831236D01*
D59*
%TO.N,/esp32_wifi_section/LNA_IN*%
X157700000Y-79225000D02*
X157700000Y-79400000D01*
X156685000Y-76370000D02*
X156655000Y-76400000D01*
X157670000Y-76340000D02*
X158270796Y-76340000D01*
D51*
X157712426Y-76340000D02*
X157627573Y-76340000D01*
D59*
X158800000Y-76869203D02*
X158800000Y-77300000D01*
D51*
X157640000Y-76370000D02*
X157610000Y-76400000D01*
D59*
X157823743Y-78926256D02*
X158340380Y-78409619D01*
X157670000Y-76340000D02*
X156757426Y-76340000D01*
X158644999Y-76495001D02*
G75*
G03*
X158270796Y-76340002I-374199J-374199D01*
G01*
X157823743Y-78926256D02*
G75*
G03*
X157700003Y-79225000I298757J-298744D01*
G01*
X156685000Y-76370000D02*
G75*
G02*
X156757426Y-76340011I72400J-72400D01*
G01*
D53*
X157712426Y-76340000D02*
G75*
G03*
X157639992Y-76369992I-26J-102400D01*
G01*
D51*
X157627573Y-76340000D02*
G75*
G02*
X157640045Y-76370045I27J-17600D01*
G01*
D59*
X158800000Y-76869203D02*
G75*
G03*
X158645001Y-76494999I-529200J3D01*
G01*
X158800000Y-77300000D02*
G75*
G02*
X158340372Y-78409611I-1569200J0D01*
G01*
D56*
%TO.N,Net-(D4-K)*%
X168450000Y-78250000D02*
X168450000Y-77065000D01*
X168450000Y-77065000D02*
X168385000Y-77000000D01*
%TD*%
%TA.AperFunction,Conductor*%
%TO.N,+3.3V*%
G36*
X144393039Y-76819685D02*
G01*
X144438794Y-76872489D01*
X144450000Y-76924000D01*
X144450000Y-82600000D01*
X145626000Y-82600000D01*
X145693039Y-82619685D01*
X145738794Y-82672489D01*
X145750000Y-82724000D01*
X145750000Y-85376000D01*
X145730315Y-85443039D01*
X145677511Y-85488794D01*
X145626000Y-85500000D01*
X141474000Y-85500000D01*
X141406961Y-85480315D01*
X141361206Y-85427511D01*
X141350000Y-85376000D01*
X141350000Y-84522848D01*
X141356958Y-84481894D01*
X141387009Y-84396011D01*
X141416367Y-84349289D01*
X141594113Y-84171544D01*
X141608509Y-84150000D01*
X141670775Y-84056812D01*
X141723580Y-83929329D01*
X141732389Y-83885042D01*
X141750500Y-83793996D01*
X141750500Y-83437190D01*
X141770185Y-83370151D01*
X141786814Y-83349513D01*
X141844113Y-83292215D01*
X141920774Y-83177484D01*
X141920775Y-83177483D01*
X141951707Y-83102806D01*
X141973580Y-83050001D01*
X141975298Y-83041362D01*
X141978934Y-83023083D01*
X141978934Y-83023081D01*
X142000500Y-82914665D01*
X142000500Y-82724000D01*
X142020185Y-82656961D01*
X142072989Y-82611206D01*
X142124500Y-82600000D01*
X142750000Y-82600000D01*
X142750000Y-76924000D01*
X142769685Y-76856961D01*
X142822489Y-76811206D01*
X142874000Y-76800000D01*
X144326000Y-76800000D01*
X144393039Y-76819685D01*
G37*
%TD.AperFunction*%
%TD*%
%TA.AperFunction,Conductor*%
%TO.N,GND*%
G36*
X155997457Y-79987810D02*
G01*
X156007348Y-79991906D01*
X156007350Y-79991908D01*
X156024432Y-79995306D01*
X156075677Y-80005500D01*
X156300000Y-80005500D01*
X156300000Y-80700000D01*
X155450000Y-80700000D01*
X155450000Y-79982705D01*
X155472012Y-79980338D01*
X155497457Y-79987810D01*
X155507348Y-79991906D01*
X155507350Y-79991908D01*
X155524432Y-79995306D01*
X155575677Y-80005500D01*
X155575680Y-80005500D01*
X155824322Y-80005500D01*
X155858485Y-79998704D01*
X155892650Y-79991908D01*
X155892653Y-79991905D01*
X155902543Y-79987810D01*
X155972012Y-79980338D01*
X155997457Y-79987810D01*
G37*
%TD.AperFunction*%
%TA.AperFunction,Conductor*%
G36*
X157543039Y-77619685D02*
G01*
X157588794Y-77672489D01*
X157600000Y-77724000D01*
X157600000Y-78126000D01*
X157580315Y-78193039D01*
X157527511Y-78238794D01*
X157476000Y-78250000D01*
X157217918Y-78250000D01*
X157179199Y-78240702D01*
X157178357Y-78243297D01*
X157169071Y-78240280D01*
X157035949Y-78219196D01*
X157035945Y-78219196D01*
X156902822Y-78240280D01*
X156893537Y-78243297D01*
X156892694Y-78240702D01*
X156853976Y-78250000D01*
X156300000Y-78250000D01*
X156300000Y-78670500D01*
X156280315Y-78737539D01*
X156227511Y-78783294D01*
X156176000Y-78794500D01*
X156075678Y-78794500D01*
X156007351Y-78808091D01*
X155997451Y-78812192D01*
X155927981Y-78819659D01*
X155902549Y-78812192D01*
X155892648Y-78808091D01*
X155824322Y-78794500D01*
X155824320Y-78794500D01*
X155575680Y-78794500D01*
X155574000Y-78794500D01*
X155506961Y-78774815D01*
X155461206Y-78722011D01*
X155450000Y-78670500D01*
X155450000Y-78200000D01*
X154962676Y-78200000D01*
X154895637Y-78180315D01*
X154887334Y-78173624D01*
X154886945Y-78174132D01*
X154880500Y-78169187D01*
X154880498Y-78169185D01*
X154880494Y-78169183D01*
X154880492Y-78169181D01*
X154817404Y-78132755D01*
X154747033Y-78113900D01*
X154747028Y-78113900D01*
X153830696Y-78113900D01*
X153757840Y-78113900D01*
X153757831Y-78113901D01*
X153756085Y-78114369D01*
X153754554Y-78114332D01*
X153749779Y-78114961D01*
X153749680Y-78114216D01*
X153686235Y-78112701D01*
X153628375Y-78073534D01*
X153600876Y-78009304D01*
X153600000Y-77994592D01*
X153600000Y-77724000D01*
X153619685Y-77656961D01*
X153672489Y-77611206D01*
X153724000Y-77600000D01*
X157476000Y-77600000D01*
X157543039Y-77619685D01*
G37*
%TD.AperFunction*%
%TD*%
%TA.AperFunction,Conductor*%
%TO.N,GND*%
G36*
X113116942Y-77320185D02*
G01*
X113137584Y-77336819D01*
X114565139Y-78764374D01*
X114565149Y-78764385D01*
X114569479Y-78768715D01*
X114569480Y-78768716D01*
X114681284Y-78880520D01*
X114681286Y-78880521D01*
X114681290Y-78880524D01*
X114763251Y-78927844D01*
X114763252Y-78927844D01*
X114818215Y-78959577D01*
X114970943Y-79000500D01*
X116049903Y-79000500D01*
X116116942Y-79020185D01*
X116137584Y-79036819D01*
X116763181Y-79662416D01*
X116796666Y-79723739D01*
X116799500Y-79750097D01*
X116799500Y-81278230D01*
X116779815Y-81345269D01*
X116727011Y-81391024D01*
X116657853Y-81400968D01*
X116594297Y-81371943D01*
X116572398Y-81347122D01*
X116568623Y-81341473D01*
X116546153Y-81307844D01*
X116544551Y-81305446D01*
X116478230Y-81261132D01*
X116478229Y-81261131D01*
X116419752Y-81249500D01*
X116419748Y-81249500D01*
X114680252Y-81249500D01*
X114680247Y-81249500D01*
X114621770Y-81261131D01*
X114621769Y-81261132D01*
X114555446Y-81305448D01*
X114507261Y-81377561D01*
X114476015Y-81403672D01*
X114481689Y-81408880D01*
X114499500Y-81472910D01*
X114499500Y-82369752D01*
X114511131Y-82428229D01*
X114511132Y-82428230D01*
X114555447Y-82494552D01*
X114621769Y-82538867D01*
X114621770Y-82538868D01*
X114680247Y-82550499D01*
X114680250Y-82550500D01*
X114680252Y-82550500D01*
X115377549Y-82550500D01*
X115444588Y-82570185D01*
X115465230Y-82586819D01*
X116336981Y-83458570D01*
X116370466Y-83519893D01*
X116373300Y-83546251D01*
X116373300Y-84934146D01*
X116392155Y-85004516D01*
X116392155Y-85004517D01*
X116428581Y-85067605D01*
X116428587Y-85067614D01*
X117058585Y-85697612D01*
X117058588Y-85697614D01*
X117058589Y-85697615D01*
X117058592Y-85697617D01*
X117058594Y-85697618D01*
X117121682Y-85734044D01*
X117192053Y-85752899D01*
X117192059Y-85752900D01*
X119610228Y-85752900D01*
X119610233Y-85752899D01*
X119680603Y-85734044D01*
X119680604Y-85734044D01*
X119738176Y-85700803D01*
X119743698Y-85697615D01*
X121238294Y-84203019D01*
X121299617Y-84169534D01*
X121325975Y-84166700D01*
X121990869Y-84166700D01*
X122057908Y-84186385D01*
X122078550Y-84203019D01*
X122177267Y-84301736D01*
X122174443Y-84304559D01*
X122205183Y-84343042D01*
X122212352Y-84412542D01*
X122180808Y-84474886D01*
X122177101Y-84478098D01*
X122177267Y-84478264D01*
X122085935Y-84569595D01*
X122035931Y-84676828D01*
X122029500Y-84725683D01*
X122029500Y-85074316D01*
X122035931Y-85123171D01*
X122070203Y-85196666D01*
X122085935Y-85230404D01*
X122169596Y-85314065D01*
X122276827Y-85364068D01*
X122325683Y-85370500D01*
X122325684Y-85370500D01*
X122774317Y-85370500D01*
X122790601Y-85368356D01*
X122823173Y-85364068D01*
X122930404Y-85314065D01*
X123014065Y-85230404D01*
X123014065Y-85230403D01*
X123021450Y-85223019D01*
X123082773Y-85189534D01*
X123109131Y-85186700D01*
X123358899Y-85186700D01*
X123425938Y-85206385D01*
X123471693Y-85259189D01*
X123481637Y-85328347D01*
X123471795Y-85396800D01*
X123492276Y-85539256D01*
X123551871Y-85669748D01*
X123552065Y-85670173D01*
X123646314Y-85778943D01*
X123747832Y-85844185D01*
X123793587Y-85896988D01*
X123803531Y-85966147D01*
X123774506Y-86029702D01*
X123715728Y-86067477D01*
X123680793Y-86072500D01*
X106501500Y-86072500D01*
X106434461Y-86052815D01*
X106388706Y-86000011D01*
X106377500Y-85948500D01*
X106377500Y-85481264D01*
X106397185Y-85414225D01*
X106449989Y-85368470D01*
X106519147Y-85358526D01*
X106525673Y-85359643D01*
X106565416Y-85367549D01*
X106580251Y-85370500D01*
X106580252Y-85370500D01*
X108519750Y-85370500D01*
X108519751Y-85370499D01*
X108534568Y-85367552D01*
X108578229Y-85358868D01*
X108578229Y-85358867D01*
X108578231Y-85358867D01*
X108644552Y-85314552D01*
X108688867Y-85248231D01*
X108688867Y-85248229D01*
X108688868Y-85248229D01*
X108700499Y-85189752D01*
X108700500Y-85189750D01*
X108700500Y-84514500D01*
X108720185Y-84447461D01*
X108772989Y-84401706D01*
X108824500Y-84390500D01*
X110919750Y-84390500D01*
X110919751Y-84390499D01*
X110934568Y-84387552D01*
X110978229Y-84378868D01*
X110978229Y-84378867D01*
X110978231Y-84378867D01*
X111044552Y-84334552D01*
X111088867Y-84268231D01*
X111088867Y-84268229D01*
X111088868Y-84268229D01*
X111099082Y-84216878D01*
X111100500Y-84209748D01*
X111100500Y-82690252D01*
X111100500Y-82690249D01*
X111100499Y-82690247D01*
X111088868Y-82631770D01*
X111088867Y-82631769D01*
X111044552Y-82565447D01*
X110978230Y-82521132D01*
X110978229Y-82521131D01*
X110919752Y-82509500D01*
X110919748Y-82509500D01*
X108824500Y-82509500D01*
X108757461Y-82489815D01*
X108711706Y-82437011D01*
X108700500Y-82385500D01*
X108700500Y-81220249D01*
X108700499Y-81220247D01*
X108688868Y-81161770D01*
X108688867Y-81161769D01*
X108644552Y-81095447D01*
X108641043Y-81093103D01*
X108596237Y-81039492D01*
X108587528Y-80970167D01*
X108617682Y-80907139D01*
X108641043Y-80886897D01*
X108644552Y-80884552D01*
X108650653Y-80875421D01*
X108688867Y-80818231D01*
X108688867Y-80818229D01*
X108688868Y-80818229D01*
X108700499Y-80759752D01*
X108700500Y-80759750D01*
X108700500Y-79594500D01*
X108720185Y-79527461D01*
X108772989Y-79481706D01*
X108824500Y-79470500D01*
X109195500Y-79470500D01*
X109262539Y-79490185D01*
X109308294Y-79542989D01*
X109319500Y-79594500D01*
X109319500Y-79934747D01*
X109330651Y-79990810D01*
X109330651Y-80039190D01*
X109319528Y-80095109D01*
X109319500Y-80095252D01*
X109319500Y-80584748D01*
X109320601Y-80590281D01*
X109330651Y-80640810D01*
X109330651Y-80689190D01*
X109320920Y-80738111D01*
X109319500Y-80745252D01*
X109319500Y-81234748D01*
X109321009Y-81242335D01*
X109330651Y-81290810D01*
X109330651Y-81339190D01*
X109319500Y-81395252D01*
X109319500Y-81884752D01*
X109331131Y-81943229D01*
X109331132Y-81943230D01*
X109375447Y-82009552D01*
X109441769Y-82053867D01*
X109441770Y-82053868D01*
X109500247Y-82065499D01*
X109500250Y-82065500D01*
X109500252Y-82065500D01*
X110919750Y-82065500D01*
X110919751Y-82065499D01*
X110934568Y-82062552D01*
X110978229Y-82053868D01*
X110978229Y-82053867D01*
X110978231Y-82053867D01*
X111044552Y-82009552D01*
X111088867Y-81943231D01*
X111088867Y-81943229D01*
X111088868Y-81943229D01*
X111100499Y-81884752D01*
X111100500Y-81884750D01*
X111100500Y-81420037D01*
X111120185Y-81352998D01*
X111172989Y-81307243D01*
X111224500Y-81296037D01*
X111285289Y-81296037D01*
X111285292Y-81296037D01*
X111363127Y-81275181D01*
X111432912Y-81234891D01*
X111491410Y-81176393D01*
X111552733Y-81142908D01*
X111579091Y-81140074D01*
X112376854Y-81140074D01*
X112443893Y-81159759D01*
X112464535Y-81176393D01*
X112645363Y-81357221D01*
X112702343Y-81414201D01*
X112772128Y-81454491D01*
X112849963Y-81475347D01*
X113388431Y-81475347D01*
X113455470Y-81495032D01*
X113498916Y-81543053D01*
X113501471Y-81548069D01*
X113501476Y-81548075D01*
X113596774Y-81643373D01*
X113596778Y-81643376D01*
X113596780Y-81643378D01*
X113716874Y-81704569D01*
X113716876Y-81704569D01*
X113716878Y-81704570D01*
X113849998Y-81725654D01*
X113850000Y-81725654D01*
X113850002Y-81725654D01*
X113983121Y-81704570D01*
X113983121Y-81704569D01*
X113983126Y-81704569D01*
X114103220Y-81643378D01*
X114198528Y-81548070D01*
X114259719Y-81427976D01*
X114259719Y-81427973D01*
X114264149Y-81419280D01*
X114267033Y-81420749D01*
X114297009Y-81376914D01*
X114304511Y-81373743D01*
X114284578Y-81341473D01*
X114282540Y-81304609D01*
X114280804Y-81304609D01*
X114280804Y-81294847D01*
X114259720Y-81161728D01*
X114259719Y-81161726D01*
X114259719Y-81161724D01*
X114208150Y-81060515D01*
X114195255Y-80991849D01*
X114208148Y-80947934D01*
X114267926Y-80830616D01*
X114267927Y-80830611D01*
X114289011Y-80697492D01*
X114289011Y-80697487D01*
X114267927Y-80564368D01*
X114267926Y-80564366D01*
X114267926Y-80564364D01*
X114206735Y-80444270D01*
X114206733Y-80444268D01*
X114206730Y-80444264D01*
X114111432Y-80348966D01*
X114111428Y-80348963D01*
X114111427Y-80348962D01*
X113991333Y-80287771D01*
X113991331Y-80287770D01*
X113991328Y-80287769D01*
X113858209Y-80266686D01*
X113858205Y-80266686D01*
X113725085Y-80287769D01*
X113725081Y-80287770D01*
X113725081Y-80287771D01*
X113655406Y-80323272D01*
X113604985Y-80348963D01*
X113509676Y-80444273D01*
X113502941Y-80457493D01*
X113454968Y-80508289D01*
X113392456Y-80525199D01*
X113208419Y-80525199D01*
X113141380Y-80505514D01*
X113120738Y-80488880D01*
X112948526Y-80316668D01*
X112915041Y-80255345D01*
X112920025Y-80185653D01*
X112961897Y-80129720D01*
X112962419Y-80129331D01*
X112972150Y-80122150D01*
X113052793Y-80012882D01*
X113080973Y-79932348D01*
X113097646Y-79884701D01*
X113097646Y-79884699D01*
X113100500Y-79854269D01*
X113100500Y-79145730D01*
X113097646Y-79115300D01*
X113097646Y-79115298D01*
X113063710Y-79018316D01*
X113052793Y-78987118D01*
X112972150Y-78877850D01*
X112862882Y-78797207D01*
X112862880Y-78797206D01*
X112734700Y-78752353D01*
X112704270Y-78749500D01*
X112704266Y-78749500D01*
X111995734Y-78749500D01*
X111995730Y-78749500D01*
X111965300Y-78752353D01*
X111965298Y-78752353D01*
X111837119Y-78797206D01*
X111837113Y-78797209D01*
X111799093Y-78825270D01*
X111733464Y-78849241D01*
X111725460Y-78849500D01*
X111364691Y-78849500D01*
X111277756Y-78872794D01*
X111277753Y-78872795D01*
X111256590Y-78878465D01*
X111186741Y-78876800D01*
X111128879Y-78837636D01*
X111101377Y-78773407D01*
X111100500Y-78758689D01*
X111100500Y-77770249D01*
X111100499Y-77770247D01*
X111088868Y-77711770D01*
X111088867Y-77711769D01*
X111043413Y-77643743D01*
X111022535Y-77577066D01*
X111041019Y-77509686D01*
X111092998Y-77462995D01*
X111099065Y-77460398D01*
X111100222Y-77459790D01*
X111100225Y-77459790D01*
X111142449Y-77437628D01*
X111152606Y-77432871D01*
X111181811Y-77420775D01*
X111187191Y-77417900D01*
X111187888Y-77419205D01*
X111247548Y-77400520D01*
X111249770Y-77400500D01*
X111809496Y-77400500D01*
X111850451Y-77407459D01*
X111965298Y-77447645D01*
X111965300Y-77447646D01*
X111995730Y-77450500D01*
X111995734Y-77450500D01*
X112704270Y-77450500D01*
X112734699Y-77447646D01*
X112734701Y-77447646D01*
X112811492Y-77420775D01*
X112862882Y-77402793D01*
X112879521Y-77390513D01*
X112968655Y-77324730D01*
X113034284Y-77300759D01*
X113042288Y-77300500D01*
X113049903Y-77300500D01*
X113116942Y-77320185D01*
G37*
%TD.AperFunction*%
%TA.AperFunction,Conductor*%
G36*
X128668834Y-84392953D02*
G01*
X128724767Y-84434825D01*
X128749184Y-84500289D01*
X128749500Y-84509135D01*
X128749500Y-84749678D01*
X128764032Y-84822735D01*
X128764033Y-84822739D01*
X128806710Y-84886610D01*
X128827587Y-84953288D01*
X128809102Y-85020668D01*
X128757123Y-85067357D01*
X128703607Y-85079500D01*
X128675683Y-85079500D01*
X128626828Y-85085931D01*
X128519595Y-85135935D01*
X128435935Y-85219595D01*
X128385931Y-85326828D01*
X128379500Y-85375683D01*
X128379500Y-85824316D01*
X128385931Y-85873171D01*
X128385932Y-85873173D01*
X128396620Y-85896094D01*
X128396621Y-85896095D01*
X128407113Y-85965173D01*
X128378593Y-86028957D01*
X128320117Y-86067196D01*
X128284239Y-86072500D01*
X124274091Y-86072500D01*
X124207052Y-86052815D01*
X124161297Y-86000011D01*
X124151353Y-85930853D01*
X124180378Y-85867297D01*
X124207049Y-85844185D01*
X124308570Y-85778943D01*
X124402819Y-85670173D01*
X124402822Y-85670165D01*
X124407611Y-85662715D01*
X124409694Y-85664054D01*
X124444793Y-85622800D01*
X124481111Y-85598532D01*
X124547785Y-85577656D01*
X124615166Y-85596140D01*
X124618890Y-85598534D01*
X124671769Y-85633867D01*
X124671770Y-85633868D01*
X124730247Y-85645499D01*
X124730250Y-85645500D01*
X124730252Y-85645500D01*
X125169750Y-85645500D01*
X125169751Y-85645499D01*
X125184568Y-85642552D01*
X125228229Y-85633868D01*
X125228231Y-85633867D01*
X125281108Y-85598535D01*
X125347785Y-85577656D01*
X125415165Y-85596140D01*
X125418892Y-85598535D01*
X125471768Y-85633867D01*
X125471770Y-85633868D01*
X125530247Y-85645499D01*
X125530250Y-85645500D01*
X125530252Y-85645500D01*
X125969750Y-85645500D01*
X125969751Y-85645499D01*
X125984568Y-85642552D01*
X126028229Y-85633868D01*
X126028229Y-85633867D01*
X126028231Y-85633867D01*
X126094552Y-85589552D01*
X126138867Y-85523231D01*
X126138867Y-85523229D01*
X126138868Y-85523229D01*
X126147552Y-85479568D01*
X126150500Y-85464748D01*
X126150500Y-84829585D01*
X126170185Y-84762546D01*
X126186819Y-84741904D01*
X126346754Y-84581969D01*
X126408077Y-84548484D01*
X126434435Y-84545650D01*
X128331848Y-84545650D01*
X128331850Y-84545650D01*
X128405454Y-84525928D01*
X128471446Y-84487827D01*
X128537819Y-84421454D01*
X128599142Y-84387969D01*
X128668834Y-84392953D01*
G37*
%TD.AperFunction*%
%TA.AperFunction,Conductor*%
G36*
X132097461Y-84958977D02*
G01*
X132102256Y-84960963D01*
X132102260Y-84960966D01*
X132102264Y-84960966D01*
X132102267Y-84960968D01*
X132176691Y-84975772D01*
X132238602Y-85008157D01*
X132273176Y-85068872D01*
X132276500Y-85097389D01*
X132276500Y-85184050D01*
X132276500Y-85260250D01*
X132296222Y-85333854D01*
X132332564Y-85396800D01*
X132332887Y-85397358D01*
X132349500Y-85459359D01*
X132349500Y-85809894D01*
X132355668Y-85856753D01*
X132356028Y-85859487D01*
X132373099Y-85896095D01*
X132383591Y-85965171D01*
X132355072Y-86028956D01*
X132296596Y-86067196D01*
X132260717Y-86072500D01*
X131406843Y-86072500D01*
X131339804Y-86052815D01*
X131294049Y-86000011D01*
X131284105Y-85930853D01*
X131295443Y-85894039D01*
X131305644Y-85873172D01*
X131305643Y-85873172D01*
X131305645Y-85873170D01*
X131315500Y-85805528D01*
X131315500Y-85394472D01*
X131305645Y-85326830D01*
X131254636Y-85222489D01*
X131254634Y-85222487D01*
X131254634Y-85222486D01*
X131205398Y-85173250D01*
X131171913Y-85111927D01*
X131176897Y-85042235D01*
X131218769Y-84986302D01*
X131284233Y-84961885D01*
X131317271Y-84963952D01*
X131375324Y-84975500D01*
X131375326Y-84975500D01*
X131524676Y-84975500D01*
X131524677Y-84975499D01*
X131549029Y-84970655D01*
X131597732Y-84960968D01*
X131597733Y-84960967D01*
X131597740Y-84960966D01*
X131597745Y-84960962D01*
X131602539Y-84958977D01*
X131672008Y-84951504D01*
X131697461Y-84958977D01*
X131702256Y-84960963D01*
X131702260Y-84960966D01*
X131702264Y-84960966D01*
X131702267Y-84960968D01*
X131775321Y-84975499D01*
X131775324Y-84975500D01*
X131775326Y-84975500D01*
X131924676Y-84975500D01*
X131924677Y-84975499D01*
X131949029Y-84970655D01*
X131997732Y-84960968D01*
X131997733Y-84960967D01*
X131997740Y-84960966D01*
X131997745Y-84960962D01*
X132002539Y-84958977D01*
X132072008Y-84951504D01*
X132097461Y-84958977D01*
G37*
%TD.AperFunction*%
%TA.AperFunction,Conductor*%
G36*
X147093039Y-75847185D02*
G01*
X147138794Y-75899989D01*
X147150000Y-75951500D01*
X147150000Y-78950000D01*
X149813606Y-78950000D01*
X149880645Y-78969685D01*
X149926400Y-79022489D01*
X149936344Y-79091647D01*
X149936079Y-79093397D01*
X149919196Y-79199996D01*
X149919196Y-79200002D01*
X149940279Y-79333121D01*
X149940280Y-79333124D01*
X149940281Y-79333126D01*
X150001472Y-79453220D01*
X150001473Y-79453221D01*
X150001476Y-79453225D01*
X150096774Y-79548523D01*
X150096778Y-79548526D01*
X150096780Y-79548528D01*
X150216874Y-79609719D01*
X150216876Y-79609719D01*
X150216878Y-79609720D01*
X150349998Y-79630804D01*
X150350000Y-79630804D01*
X150350001Y-79630804D01*
X150366771Y-79628147D01*
X150418313Y-79619984D01*
X150487606Y-79628938D01*
X150541058Y-79673934D01*
X150561698Y-79740685D01*
X150542974Y-79807999D01*
X150525393Y-79830137D01*
X150485935Y-79869595D01*
X150435931Y-79976828D01*
X150429500Y-80025683D01*
X150429500Y-80116996D01*
X150409815Y-80184035D01*
X150357011Y-80229790D01*
X150305500Y-80240996D01*
X150299997Y-80240996D01*
X150220826Y-80253535D01*
X150151533Y-80244580D01*
X150098081Y-80199584D01*
X150077442Y-80132832D01*
X150078954Y-80111675D01*
X150080804Y-80100000D01*
X150067006Y-80012880D01*
X150059720Y-79966878D01*
X150059719Y-79966876D01*
X150059719Y-79966874D01*
X149998528Y-79846780D01*
X149998526Y-79846778D01*
X149998523Y-79846774D01*
X149903225Y-79751476D01*
X149903221Y-79751473D01*
X149903220Y-79751472D01*
X149783126Y-79690281D01*
X149783124Y-79690280D01*
X149783121Y-79690279D01*
X149650002Y-79669196D01*
X149649996Y-79669196D01*
X149599421Y-79677206D01*
X149530128Y-79668251D01*
X149478452Y-79625861D01*
X149474064Y-79619595D01*
X149390404Y-79535935D01*
X149378543Y-79530404D01*
X149283173Y-79485932D01*
X149283171Y-79485931D01*
X149283172Y-79485931D01*
X149234317Y-79479500D01*
X149234316Y-79479500D01*
X148885684Y-79479500D01*
X148885683Y-79479500D01*
X148836828Y-79485931D01*
X148729595Y-79535935D01*
X148638264Y-79627267D01*
X148635440Y-79624443D01*
X148596958Y-79655183D01*
X148527458Y-79662352D01*
X148465114Y-79630808D01*
X148461901Y-79627101D01*
X148461736Y-79627267D01*
X148370404Y-79535935D01*
X148358543Y-79530404D01*
X148263173Y-79485932D01*
X148263171Y-79485931D01*
X148263172Y-79485931D01*
X148214317Y-79479500D01*
X148214316Y-79479500D01*
X147865684Y-79479500D01*
X147865683Y-79479500D01*
X147816828Y-79485931D01*
X147709593Y-79535936D01*
X147709592Y-79535936D01*
X147696622Y-79548907D01*
X147635298Y-79582391D01*
X147589545Y-79583697D01*
X147450002Y-79561596D01*
X147449998Y-79561596D01*
X147316878Y-79582679D01*
X147316874Y-79582680D01*
X147316874Y-79582681D01*
X147244426Y-79619595D01*
X147196778Y-79643873D01*
X147196774Y-79643876D01*
X147101476Y-79739174D01*
X147101473Y-79739178D01*
X147095209Y-79751472D01*
X147054535Y-79831300D01*
X147040279Y-79859278D01*
X147019196Y-79992397D01*
X147019196Y-79992402D01*
X147040279Y-80125521D01*
X147040280Y-80125524D01*
X147040281Y-80125526D01*
X147101472Y-80245620D01*
X147101473Y-80245621D01*
X147101476Y-80245625D01*
X147196774Y-80340923D01*
X147196778Y-80340926D01*
X147196780Y-80340928D01*
X147316874Y-80402119D01*
X147316876Y-80402119D01*
X147316878Y-80402120D01*
X147449998Y-80423204D01*
X147450000Y-80423204D01*
X147450001Y-80423204D01*
X147479195Y-80418580D01*
X147576425Y-80403180D01*
X147645717Y-80412134D01*
X147683503Y-80437972D01*
X147709596Y-80464065D01*
X147816827Y-80514068D01*
X147865683Y-80520500D01*
X147865684Y-80520500D01*
X148214317Y-80520500D01*
X148231711Y-80518210D01*
X148263173Y-80514068D01*
X148370404Y-80464065D01*
X148454065Y-80380404D01*
X148454065Y-80380403D01*
X148461736Y-80372733D01*
X148464564Y-80375561D01*
X148502977Y-80344843D01*
X148572474Y-80337635D01*
X148634835Y-80369143D01*
X148638093Y-80372903D01*
X148638264Y-80372733D01*
X148645935Y-80380404D01*
X148729596Y-80464065D01*
X148836827Y-80514068D01*
X148885683Y-80520500D01*
X148885684Y-80520500D01*
X149234317Y-80520500D01*
X149251300Y-80518264D01*
X149283173Y-80514068D01*
X149354845Y-80480646D01*
X149423919Y-80470155D01*
X149463536Y-80482542D01*
X149516874Y-80509719D01*
X149516876Y-80509719D01*
X149516878Y-80509720D01*
X149649998Y-80530804D01*
X149650000Y-80530804D01*
X149650001Y-80530804D01*
X149672641Y-80527218D01*
X149729173Y-80518264D01*
X149798465Y-80527218D01*
X149851917Y-80572214D01*
X149872557Y-80638965D01*
X149871044Y-80660130D01*
X149869225Y-80671622D01*
X149869196Y-80671802D01*
X149890279Y-80804921D01*
X149890280Y-80804924D01*
X149890281Y-80804926D01*
X149951472Y-80925020D01*
X149951473Y-80925021D01*
X149951476Y-80925025D01*
X150046774Y-81020323D01*
X150046778Y-81020326D01*
X150046780Y-81020328D01*
X150166874Y-81081519D01*
X150166876Y-81081519D01*
X150166878Y-81081520D01*
X150307128Y-81103733D01*
X150370263Y-81133662D01*
X150375412Y-81138525D01*
X150586981Y-81350094D01*
X150620466Y-81411417D01*
X150623300Y-81437775D01*
X150623300Y-82004024D01*
X150603615Y-82071063D01*
X150586981Y-82091705D01*
X150285387Y-82393298D01*
X150285381Y-82393307D01*
X150248955Y-82456395D01*
X150248955Y-82456396D01*
X150230100Y-82526766D01*
X150230100Y-83273233D01*
X150248955Y-83343603D01*
X150248955Y-83343604D01*
X150285381Y-83406692D01*
X150285387Y-83406701D01*
X150538757Y-83660070D01*
X150572242Y-83721393D01*
X150567258Y-83791084D01*
X150525387Y-83847018D01*
X150503484Y-83860132D01*
X150469595Y-83875935D01*
X150385935Y-83959595D01*
X150335931Y-84066828D01*
X150329500Y-84115683D01*
X150329500Y-84464316D01*
X150335931Y-84513171D01*
X150344563Y-84531683D01*
X150385935Y-84620404D01*
X150469596Y-84704065D01*
X150576827Y-84754068D01*
X150625683Y-84760500D01*
X150625684Y-84760500D01*
X150859865Y-84760500D01*
X150926904Y-84780185D01*
X150947546Y-84796819D01*
X151443181Y-85292454D01*
X151476666Y-85353777D01*
X151479500Y-85380135D01*
X151479500Y-85465528D01*
X151485049Y-85503615D01*
X151489355Y-85533171D01*
X151540365Y-85637513D01*
X151622486Y-85719634D01*
X151622487Y-85719634D01*
X151622489Y-85719636D01*
X151726830Y-85770645D01*
X151744108Y-85773162D01*
X151807607Y-85802304D01*
X151813912Y-85808185D01*
X151822304Y-85816577D01*
X151848489Y-85831695D01*
X151864802Y-85841114D01*
X151913016Y-85891682D01*
X151926238Y-85960289D01*
X151900269Y-86025153D01*
X151843355Y-86065681D01*
X151802800Y-86072500D01*
X140793438Y-86072500D01*
X140726399Y-86052815D01*
X140680644Y-86000011D01*
X140670700Y-85930853D01*
X140670965Y-85929103D01*
X140688728Y-85816949D01*
X140688728Y-85816943D01*
X140667644Y-85683824D01*
X140667643Y-85683822D01*
X140667643Y-85683820D01*
X140606452Y-85563726D01*
X140606450Y-85563724D01*
X140606447Y-85563720D01*
X140511149Y-85468422D01*
X140511145Y-85468419D01*
X140511144Y-85468418D01*
X140391050Y-85407227D01*
X140391048Y-85407226D01*
X140391045Y-85407225D01*
X140257926Y-85386142D01*
X140257922Y-85386142D01*
X140124802Y-85407225D01*
X140004702Y-85468419D01*
X140004698Y-85468422D01*
X139986140Y-85486981D01*
X139924817Y-85520466D01*
X139898459Y-85523300D01*
X137007602Y-85523300D01*
X136940563Y-85503615D01*
X136894808Y-85450811D01*
X136884864Y-85381653D01*
X136913889Y-85318097D01*
X136919921Y-85311619D01*
X136939086Y-85292454D01*
X136963224Y-85268316D01*
X137013972Y-85159487D01*
X137020500Y-85109901D01*
X137020499Y-84880136D01*
X137040183Y-84813097D01*
X137056812Y-84792460D01*
X137181578Y-84667696D01*
X137219678Y-84601704D01*
X137233666Y-84549500D01*
X137239400Y-84528100D01*
X137239400Y-84324500D01*
X137259085Y-84257461D01*
X137311889Y-84211706D01*
X137363400Y-84200500D01*
X137544750Y-84200500D01*
X137544751Y-84200499D01*
X137559568Y-84197552D01*
X137603229Y-84188868D01*
X137603229Y-84188867D01*
X137603231Y-84188867D01*
X137669552Y-84144552D01*
X137713867Y-84078231D01*
X137713867Y-84078229D01*
X137713868Y-84078229D01*
X137725499Y-84019752D01*
X137725500Y-84019750D01*
X137725500Y-82980249D01*
X137725499Y-82980247D01*
X137713868Y-82921770D01*
X137713867Y-82921769D01*
X137669552Y-82855447D01*
X137603230Y-82811132D01*
X137603229Y-82811131D01*
X137544752Y-82799500D01*
X137544748Y-82799500D01*
X136363400Y-82799500D01*
X136296361Y-82779815D01*
X136250606Y-82727011D01*
X136239400Y-82675500D01*
X136239400Y-81561902D01*
X136239400Y-81561900D01*
X136221069Y-81493487D01*
X136222732Y-81423638D01*
X136261895Y-81365776D01*
X136278839Y-81354011D01*
X136317696Y-81331577D01*
X136442454Y-81206819D01*
X136503777Y-81173334D01*
X136530135Y-81170500D01*
X136764317Y-81170500D01*
X136787354Y-81167467D01*
X136813173Y-81164068D01*
X136920404Y-81114065D01*
X137004065Y-81030404D01*
X137004065Y-81030403D01*
X137011736Y-81022733D01*
X137014564Y-81025561D01*
X137052977Y-80994843D01*
X137122474Y-80987635D01*
X137184835Y-81019143D01*
X137188093Y-81022903D01*
X137188264Y-81022733D01*
X137195935Y-81030404D01*
X137279596Y-81114065D01*
X137386827Y-81164068D01*
X137435683Y-81170500D01*
X137435684Y-81170500D01*
X137784317Y-81170500D01*
X137807354Y-81167467D01*
X137833173Y-81164068D01*
X137940404Y-81114065D01*
X138024065Y-81030404D01*
X138024066Y-81030400D01*
X138028782Y-81025685D01*
X138090105Y-80992200D01*
X138159797Y-80997184D01*
X138204145Y-81025685D01*
X138281684Y-81103224D01*
X138339005Y-81129953D01*
X138391444Y-81176125D01*
X138410600Y-81242335D01*
X138410600Y-81275500D01*
X138390915Y-81342539D01*
X138338111Y-81388294D01*
X138286600Y-81399500D01*
X138105247Y-81399500D01*
X138046770Y-81411131D01*
X138046769Y-81411132D01*
X137980447Y-81455447D01*
X137936132Y-81521769D01*
X137936131Y-81521770D01*
X137924500Y-81580247D01*
X137924500Y-82619752D01*
X137936131Y-82678229D01*
X137936132Y-82678230D01*
X137980447Y-82744552D01*
X138046769Y-82788867D01*
X138046770Y-82788868D01*
X138105247Y-82800499D01*
X138105250Y-82800500D01*
X138105252Y-82800500D01*
X139294750Y-82800500D01*
X139294751Y-82800499D01*
X139309568Y-82797552D01*
X139353229Y-82788868D01*
X139353229Y-82788867D01*
X139353231Y-82788867D01*
X139419552Y-82744552D01*
X139463867Y-82678231D01*
X139463867Y-82678229D01*
X139463868Y-82678229D01*
X139473698Y-82628805D01*
X139475500Y-82619748D01*
X139475500Y-81580252D01*
X139475500Y-81580249D01*
X139475499Y-81580247D01*
X139463868Y-81521770D01*
X139463867Y-81521769D01*
X139419552Y-81455447D01*
X139353230Y-81411132D01*
X139353229Y-81411131D01*
X139294752Y-81399500D01*
X139294748Y-81399500D01*
X139113400Y-81399500D01*
X139046361Y-81379815D01*
X139000606Y-81327011D01*
X138989400Y-81275500D01*
X138989400Y-81123502D01*
X139009085Y-81056463D01*
X139025719Y-81035821D01*
X139031821Y-81029719D01*
X139043224Y-81018316D01*
X139093972Y-80909487D01*
X139100500Y-80859901D01*
X139100499Y-80440100D01*
X139093972Y-80390513D01*
X139043224Y-80281684D01*
X138958316Y-80196776D01*
X138849487Y-80146028D01*
X138849485Y-80146027D01*
X138849486Y-80146027D01*
X138799902Y-80139500D01*
X138440105Y-80139500D01*
X138424386Y-80141569D01*
X138390513Y-80146028D01*
X138390511Y-80146029D01*
X138390509Y-80146029D01*
X138281685Y-80196775D01*
X138204145Y-80274315D01*
X138142821Y-80307799D01*
X138073130Y-80302815D01*
X138028783Y-80274314D01*
X137940404Y-80185935D01*
X137917308Y-80175165D01*
X137833173Y-80135932D01*
X137833171Y-80135931D01*
X137833172Y-80135931D01*
X137784317Y-80129500D01*
X137784316Y-80129500D01*
X137435684Y-80129500D01*
X137435683Y-80129500D01*
X137386828Y-80135931D01*
X137279595Y-80185935D01*
X137188264Y-80277267D01*
X137185440Y-80274443D01*
X137146958Y-80305183D01*
X137077458Y-80312352D01*
X137015114Y-80280808D01*
X137011901Y-80277101D01*
X137011736Y-80277267D01*
X136921238Y-80186769D01*
X136887753Y-80125446D01*
X136892737Y-80055754D01*
X136934609Y-79999821D01*
X136956514Y-79986706D01*
X136977699Y-79976827D01*
X137028316Y-79953224D01*
X137113224Y-79868316D01*
X137163972Y-79759487D01*
X137170500Y-79709901D01*
X137170499Y-79290100D01*
X137163972Y-79240513D01*
X137113224Y-79131684D01*
X137044221Y-79062681D01*
X137010736Y-79001358D01*
X137015720Y-78931666D01*
X137044221Y-78887319D01*
X137078425Y-78853115D01*
X137113224Y-78818316D01*
X137163972Y-78709487D01*
X137170500Y-78659901D01*
X137170499Y-78350134D01*
X137190183Y-78283096D01*
X137206813Y-78262459D01*
X137562455Y-77906819D01*
X137623778Y-77873334D01*
X137650136Y-77870500D01*
X137884317Y-77870500D01*
X137900601Y-77868356D01*
X137933173Y-77864068D01*
X138040404Y-77814065D01*
X138124065Y-77730404D01*
X138174068Y-77623173D01*
X138174068Y-77623171D01*
X138178077Y-77614575D01*
X138180541Y-77615724D01*
X138210279Y-77569226D01*
X138273770Y-77540061D01*
X138342951Y-77549852D01*
X138395855Y-77595491D01*
X138402171Y-77606462D01*
X138451472Y-77703220D01*
X138451474Y-77703222D01*
X138451476Y-77703225D01*
X138546774Y-77798523D01*
X138546778Y-77798526D01*
X138546780Y-77798528D01*
X138666874Y-77859719D01*
X138666876Y-77859719D01*
X138666878Y-77859720D01*
X138766507Y-77875500D01*
X138766512Y-77875500D01*
X139333493Y-77875500D01*
X139433121Y-77859720D01*
X139433121Y-77859719D01*
X139433126Y-77859719D01*
X139553220Y-77798528D01*
X139553221Y-77798526D01*
X139561915Y-77794097D01*
X139562631Y-77795502D01*
X139618128Y-77775702D01*
X139625205Y-77775500D01*
X140275500Y-77775500D01*
X140342539Y-77795185D01*
X140388294Y-77847989D01*
X140399500Y-77899500D01*
X140399500Y-78462727D01*
X140414313Y-78575235D01*
X140414313Y-78575236D01*
X140472300Y-78715230D01*
X140472302Y-78715233D01*
X140569497Y-78841900D01*
X140568051Y-78843008D01*
X140596663Y-78895392D01*
X140599500Y-78921764D01*
X140599500Y-82504152D01*
X140579815Y-82571191D01*
X140563181Y-82591833D01*
X140505888Y-82649125D01*
X140505887Y-82649126D01*
X140429222Y-82763864D01*
X140376421Y-82891339D01*
X140376418Y-82891351D01*
X140349587Y-83026242D01*
X140349536Y-83026497D01*
X140349500Y-83026673D01*
X140349500Y-83310650D01*
X140329815Y-83377689D01*
X140279297Y-83422372D01*
X140275480Y-83424209D01*
X140122738Y-83520184D01*
X139995185Y-83647737D01*
X139899212Y-83800476D01*
X139839632Y-83970745D01*
X139839631Y-83970750D01*
X139819436Y-84149996D01*
X139819436Y-84150003D01*
X139839631Y-84329249D01*
X139839632Y-84329254D01*
X139899212Y-84499523D01*
X139951017Y-84581969D01*
X139995185Y-84652262D01*
X140122739Y-84779816D01*
X140191052Y-84822740D01*
X140272682Y-84874032D01*
X140275479Y-84875789D01*
X140360674Y-84905600D01*
X140445746Y-84935368D01*
X140445751Y-84935369D01*
X140624997Y-84955565D01*
X140625001Y-84955565D01*
X140625005Y-84955565D01*
X140804250Y-84935369D01*
X140804252Y-84935368D01*
X140804256Y-84935368D01*
X140804259Y-84935366D01*
X140804263Y-84935366D01*
X140979545Y-84874032D01*
X141049324Y-84870470D01*
X141109951Y-84905198D01*
X141142179Y-84967192D01*
X141144500Y-84991073D01*
X141144500Y-85376007D01*
X141149197Y-85419686D01*
X141160397Y-85471174D01*
X141162342Y-85479133D01*
X141162863Y-85481264D01*
X141162890Y-85481372D01*
X141162891Y-85481375D01*
X141205899Y-85562083D01*
X141205901Y-85562086D01*
X141251660Y-85614895D01*
X141259403Y-85622797D01*
X141269246Y-85632843D01*
X141269247Y-85632844D01*
X141269249Y-85632845D01*
X141349059Y-85677488D01*
X141349063Y-85677490D01*
X141416102Y-85697175D01*
X141474000Y-85705500D01*
X141474004Y-85705500D01*
X145625991Y-85705500D01*
X145626000Y-85705500D01*
X145669684Y-85700803D01*
X145698875Y-85694452D01*
X145721174Y-85689602D01*
X145721190Y-85689598D01*
X145721195Y-85689597D01*
X145731373Y-85687110D01*
X145812085Y-85644100D01*
X145864889Y-85598345D01*
X145882843Y-85580754D01*
X145927490Y-85500937D01*
X145947175Y-85433898D01*
X145955500Y-85376000D01*
X145955500Y-84883387D01*
X145975185Y-84816348D01*
X146027989Y-84770593D01*
X146097147Y-84760649D01*
X146160703Y-84789674D01*
X146167181Y-84795706D01*
X146209489Y-84838014D01*
X146209490Y-84838015D01*
X146386985Y-85015510D01*
X146501160Y-85081428D01*
X146501161Y-85081428D01*
X146512515Y-85087984D01*
X146652525Y-85125500D01*
X146652526Y-85125500D01*
X146797474Y-85125500D01*
X147474795Y-85125500D01*
X147541834Y-85145185D01*
X147546555Y-85148412D01*
X147546777Y-85148525D01*
X147546780Y-85148528D01*
X147666874Y-85209719D01*
X147666876Y-85209719D01*
X147666878Y-85209720D01*
X147766507Y-85225500D01*
X147766512Y-85225500D01*
X148333493Y-85225500D01*
X148433121Y-85209720D01*
X148433121Y-85209719D01*
X148433126Y-85209719D01*
X148553220Y-85148528D01*
X148648528Y-85053220D01*
X148709719Y-84933126D01*
X148709820Y-84932489D01*
X148725500Y-84833493D01*
X148725500Y-84316506D01*
X148709720Y-84216878D01*
X148709719Y-84216876D01*
X148709719Y-84216874D01*
X148648528Y-84096780D01*
X148648526Y-84096778D01*
X148648523Y-84096774D01*
X148553225Y-84001476D01*
X148553221Y-84001473D01*
X148553220Y-84001472D01*
X148433126Y-83940281D01*
X148433124Y-83940280D01*
X148433121Y-83940279D01*
X148333493Y-83924500D01*
X148333488Y-83924500D01*
X147766512Y-83924500D01*
X147766507Y-83924500D01*
X147666878Y-83940279D01*
X147666874Y-83940280D01*
X147666874Y-83940281D01*
X147546780Y-84001472D01*
X147546778Y-84001473D01*
X147538085Y-84005903D01*
X147537368Y-84004497D01*
X147481872Y-84024298D01*
X147474795Y-84024500D01*
X147004387Y-84024500D01*
X146937348Y-84004815D01*
X146916706Y-83988181D01*
X146588016Y-83659491D01*
X146588015Y-83659490D01*
X146462485Y-83587016D01*
X146462486Y-83587016D01*
X146447372Y-83582966D01*
X146432259Y-83578917D01*
X146432256Y-83578916D01*
X146374872Y-83563540D01*
X146322475Y-83549500D01*
X146322474Y-83549500D01*
X146079500Y-83549500D01*
X146012461Y-83529815D01*
X145966706Y-83477011D01*
X145955500Y-83425500D01*
X145955500Y-82724008D01*
X145955499Y-82723992D01*
X145953940Y-82709490D01*
X145950803Y-82680316D01*
X145945929Y-82657912D01*
X145939602Y-82628825D01*
X145938747Y-82625326D01*
X145937110Y-82618627D01*
X145894100Y-82537915D01*
X145848345Y-82485111D01*
X145848339Y-82485104D01*
X145830757Y-82467160D01*
X145830756Y-82467159D01*
X145830754Y-82467157D01*
X145830752Y-82467156D01*
X145830750Y-82467154D01*
X145750940Y-82422511D01*
X145750935Y-82422509D01*
X145683903Y-82402826D01*
X145683899Y-82402825D01*
X145683898Y-82402825D01*
X145626000Y-82394500D01*
X145625996Y-82394500D01*
X144779500Y-82394500D01*
X144712461Y-82374815D01*
X144666706Y-82322011D01*
X144655500Y-82270500D01*
X144655500Y-76924008D01*
X144655499Y-76923992D01*
X144655472Y-76923737D01*
X144650803Y-76880316D01*
X144644180Y-76849873D01*
X144639602Y-76828825D01*
X144638335Y-76823641D01*
X144637110Y-76818627D01*
X144594100Y-76737915D01*
X144548345Y-76685111D01*
X144548339Y-76685104D01*
X144530757Y-76667160D01*
X144530756Y-76667159D01*
X144530754Y-76667157D01*
X144530752Y-76667156D01*
X144530750Y-76667154D01*
X144450940Y-76622511D01*
X144450935Y-76622509D01*
X144383903Y-76602826D01*
X144383899Y-76602825D01*
X144383898Y-76602825D01*
X144326000Y-76594500D01*
X142874000Y-76594500D01*
X142873992Y-76594500D01*
X142830313Y-76599197D01*
X142778825Y-76610397D01*
X142768627Y-76612890D01*
X142768624Y-76612891D01*
X142687916Y-76655899D01*
X142687913Y-76655901D01*
X142635104Y-76701660D01*
X142617160Y-76719242D01*
X142617154Y-76719249D01*
X142572511Y-76799059D01*
X142572509Y-76799064D01*
X142552826Y-76866096D01*
X142552825Y-76866101D01*
X142552825Y-76866102D01*
X142544502Y-76923992D01*
X142544500Y-76924003D01*
X142544500Y-77098769D01*
X142524815Y-77165808D01*
X142472011Y-77211563D01*
X142402853Y-77221507D01*
X142339297Y-77192482D01*
X142301523Y-77133704D01*
X142297561Y-77114955D01*
X142295430Y-77098769D01*
X142285687Y-77024764D01*
X142227698Y-76884767D01*
X142135451Y-76764549D01*
X142015233Y-76672302D01*
X142015229Y-76672300D01*
X141937329Y-76640033D01*
X141875236Y-76614313D01*
X141849183Y-76610883D01*
X141762727Y-76599500D01*
X141762720Y-76599500D01*
X140937280Y-76599500D01*
X140937272Y-76599500D01*
X140824764Y-76614313D01*
X140824763Y-76614313D01*
X140702248Y-76665061D01*
X140654795Y-76674500D01*
X139625205Y-76674500D01*
X139558166Y-76654815D01*
X139553444Y-76651587D01*
X139553221Y-76651473D01*
X139553220Y-76651472D01*
X139433126Y-76590281D01*
X139433124Y-76590280D01*
X139433121Y-76590279D01*
X139333493Y-76574500D01*
X139333488Y-76574500D01*
X138766512Y-76574500D01*
X138766507Y-76574500D01*
X138666878Y-76590279D01*
X138666874Y-76590280D01*
X138666874Y-76590281D01*
X138613432Y-76617511D01*
X138546778Y-76651473D01*
X138546774Y-76651476D01*
X138451476Y-76746774D01*
X138451473Y-76746778D01*
X138451472Y-76746780D01*
X138424835Y-76799059D01*
X138390279Y-76866878D01*
X138374086Y-76969115D01*
X138344156Y-77032250D01*
X138284844Y-77069180D01*
X138214982Y-77068182D01*
X138156749Y-77029571D01*
X138139234Y-77002127D01*
X138124065Y-76969596D01*
X138040404Y-76885935D01*
X137933173Y-76835932D01*
X137933171Y-76835931D01*
X137933172Y-76835931D01*
X137884317Y-76829500D01*
X137884316Y-76829500D01*
X137535684Y-76829500D01*
X137535683Y-76829500D01*
X137486828Y-76835931D01*
X137379595Y-76885935D01*
X137288264Y-76977267D01*
X137285440Y-76974443D01*
X137246958Y-77005183D01*
X137177458Y-77012352D01*
X137115114Y-76980808D01*
X137111901Y-76977101D01*
X137111736Y-76977267D01*
X137020404Y-76885935D01*
X137006677Y-76879534D01*
X136913173Y-76835932D01*
X136913171Y-76835931D01*
X136913172Y-76835931D01*
X136864317Y-76829500D01*
X136864316Y-76829500D01*
X136515684Y-76829500D01*
X136515683Y-76829500D01*
X136466828Y-76835931D01*
X136359595Y-76885935D01*
X136275935Y-76969595D01*
X136225931Y-77076828D01*
X136219500Y-77125683D01*
X136219500Y-77316115D01*
X136199815Y-77383154D01*
X136183181Y-77403796D01*
X135768425Y-77818551D01*
X135768419Y-77818560D01*
X135730324Y-77884540D01*
X135730323Y-77884541D01*
X135726315Y-77899500D01*
X135720909Y-77919678D01*
X135719467Y-77925059D01*
X135683102Y-77984719D01*
X135620255Y-78015248D01*
X135575501Y-78014582D01*
X135499678Y-77999500D01*
X135499674Y-77999500D01*
X134675326Y-77999500D01*
X134674500Y-77999500D01*
X134607461Y-77979815D01*
X134561706Y-77927011D01*
X134550500Y-77875500D01*
X134550500Y-77050323D01*
X134550499Y-77050321D01*
X134535967Y-76977264D01*
X134535966Y-76977260D01*
X134529741Y-76967944D01*
X134480601Y-76894399D01*
X134397740Y-76839034D01*
X134397739Y-76839033D01*
X134397735Y-76839032D01*
X134324677Y-76824500D01*
X134324674Y-76824500D01*
X134175326Y-76824500D01*
X134175324Y-76824500D01*
X134102259Y-76839033D01*
X134097452Y-76841025D01*
X134027983Y-76848494D01*
X134002548Y-76841025D01*
X133997740Y-76839033D01*
X133924676Y-76824500D01*
X133924674Y-76824500D01*
X133775326Y-76824500D01*
X133775324Y-76824500D01*
X133702259Y-76839033D01*
X133697452Y-76841025D01*
X133627983Y-76848494D01*
X133602548Y-76841025D01*
X133597740Y-76839033D01*
X133524676Y-76824500D01*
X133524674Y-76824500D01*
X133375326Y-76824500D01*
X133375321Y-76824500D01*
X133298545Y-76839772D01*
X133228954Y-76833545D01*
X133173776Y-76790682D01*
X133150532Y-76724792D01*
X133166600Y-76656795D01*
X133186675Y-76630472D01*
X133191743Y-76625404D01*
X133199636Y-76617511D01*
X133250645Y-76513170D01*
X133260500Y-76445528D01*
X133260500Y-76034472D01*
X133251016Y-75969377D01*
X133260829Y-75900201D01*
X133306485Y-75847311D01*
X133373487Y-75827500D01*
X147026000Y-75827500D01*
X147093039Y-75847185D01*
G37*
%TD.AperFunction*%
%TA.AperFunction,Conductor*%
G36*
X153367104Y-83955185D02*
G01*
X153412859Y-84007989D01*
X153422803Y-84077147D01*
X153422538Y-84078898D01*
X153419196Y-84099998D01*
X153419196Y-84100002D01*
X153440279Y-84233121D01*
X153440280Y-84233124D01*
X153440281Y-84233126D01*
X153501472Y-84353220D01*
X153501473Y-84353221D01*
X153501476Y-84353225D01*
X153596774Y-84448523D01*
X153596778Y-84448526D01*
X153596780Y-84448528D01*
X153716874Y-84509719D01*
X153759899Y-84516533D01*
X153823031Y-84546461D01*
X153859963Y-84605771D01*
X153864500Y-84639006D01*
X153864500Y-84694320D01*
X153864500Y-84694322D01*
X153864499Y-84694322D01*
X153878090Y-84762646D01*
X153878091Y-84762648D01*
X153878092Y-84762650D01*
X153889562Y-84779816D01*
X153889702Y-84780025D01*
X153910580Y-84846703D01*
X153910600Y-84848916D01*
X153910600Y-84965500D01*
X153890915Y-85032539D01*
X153838111Y-85078294D01*
X153786606Y-85089500D01*
X153770106Y-85089500D01*
X153757317Y-85091183D01*
X153720513Y-85096028D01*
X153720511Y-85096028D01*
X153720510Y-85096029D01*
X153720509Y-85096029D01*
X153611683Y-85146776D01*
X153526776Y-85231683D01*
X153476027Y-85340514D01*
X153469500Y-85390098D01*
X153469500Y-85809894D01*
X153475668Y-85856753D01*
X153476028Y-85859487D01*
X153493099Y-85896095D01*
X153503591Y-85965171D01*
X153475072Y-86028956D01*
X153416596Y-86067196D01*
X153380717Y-86072500D01*
X152197200Y-86072500D01*
X152130161Y-86052815D01*
X152084406Y-86000011D01*
X152074462Y-85930853D01*
X152103487Y-85867297D01*
X152135198Y-85841114D01*
X152151511Y-85831695D01*
X152177696Y-85816577D01*
X152186084Y-85808188D01*
X152247405Y-85774702D01*
X152255893Y-85773162D01*
X152259735Y-85772602D01*
X152273170Y-85770645D01*
X152377511Y-85719636D01*
X152459636Y-85637511D01*
X152510645Y-85533170D01*
X152520500Y-85465528D01*
X152520500Y-85104472D01*
X152510645Y-85036830D01*
X152459636Y-84932489D01*
X152459634Y-84932487D01*
X152459634Y-84932486D01*
X152414829Y-84887681D01*
X152381344Y-84826358D01*
X152386328Y-84756666D01*
X152414829Y-84712319D01*
X152459634Y-84667513D01*
X152459636Y-84667511D01*
X152510645Y-84563170D01*
X152520500Y-84495528D01*
X152520500Y-84468949D01*
X152540185Y-84401910D01*
X152592989Y-84356155D01*
X152662147Y-84346211D01*
X152663898Y-84346476D01*
X152742998Y-84359004D01*
X152743000Y-84359004D01*
X152743002Y-84359004D01*
X152876121Y-84337920D01*
X152876121Y-84337919D01*
X152876126Y-84337919D01*
X152996220Y-84276728D01*
X153091528Y-84181420D01*
X153152719Y-84061326D01*
X153152719Y-84061324D01*
X153152720Y-84061323D01*
X153152720Y-84061322D01*
X153156081Y-84040103D01*
X153186010Y-83976968D01*
X153245321Y-83940036D01*
X153278554Y-83935500D01*
X153300065Y-83935500D01*
X153367104Y-83955185D01*
G37*
%TD.AperFunction*%
%TA.AperFunction,Conductor*%
G36*
X158674539Y-83955185D02*
G01*
X158720294Y-84007989D01*
X158731500Y-84059500D01*
X158731500Y-84106884D01*
X158752356Y-84184719D01*
X158792646Y-84254504D01*
X159825090Y-85286948D01*
X159882070Y-85343928D01*
X159951855Y-85384218D01*
X160029690Y-85405074D01*
X160700909Y-85405074D01*
X160767948Y-85424759D01*
X160788590Y-85441393D01*
X160995108Y-85647911D01*
X161052088Y-85704891D01*
X161121873Y-85745181D01*
X161199708Y-85766037D01*
X161199711Y-85766037D01*
X161207768Y-85767098D01*
X161207325Y-85770460D01*
X161259300Y-85785722D01*
X161299456Y-85831695D01*
X161299712Y-85831517D01*
X161301376Y-85833894D01*
X161304644Y-85837635D01*
X161305935Y-85840404D01*
X161326350Y-85860819D01*
X161359835Y-85922142D01*
X161354851Y-85991834D01*
X161312979Y-86047767D01*
X161247515Y-86072184D01*
X161238669Y-86072500D01*
X155489283Y-86072500D01*
X155422244Y-86052815D01*
X155376489Y-86000011D01*
X155366545Y-85930853D01*
X155376901Y-85896095D01*
X155393972Y-85859487D01*
X155400500Y-85809901D01*
X155400499Y-85390100D01*
X155393972Y-85340513D01*
X155343224Y-85231684D01*
X155258316Y-85146776D01*
X155258315Y-85146775D01*
X155247821Y-85141882D01*
X155195381Y-85095710D01*
X155176229Y-85028517D01*
X155196444Y-84961636D01*
X155249610Y-84916301D01*
X155300225Y-84905500D01*
X155324322Y-84905500D01*
X155358485Y-84898704D01*
X155392650Y-84891908D01*
X155392653Y-84891905D01*
X155402543Y-84887810D01*
X155472012Y-84880338D01*
X155497457Y-84887810D01*
X155507348Y-84891906D01*
X155507350Y-84891908D01*
X155524432Y-84895306D01*
X155575677Y-84905500D01*
X155575680Y-84905500D01*
X155824322Y-84905500D01*
X155858485Y-84898704D01*
X155892650Y-84891908D01*
X155892653Y-84891905D01*
X155902543Y-84887810D01*
X155972012Y-84880338D01*
X155997457Y-84887810D01*
X156007348Y-84891906D01*
X156007350Y-84891908D01*
X156024432Y-84895306D01*
X156075677Y-84905500D01*
X156075680Y-84905500D01*
X156324322Y-84905500D01*
X156358485Y-84898704D01*
X156392650Y-84891908D01*
X156392653Y-84891905D01*
X156402543Y-84887810D01*
X156472012Y-84880338D01*
X156497457Y-84887810D01*
X156507348Y-84891906D01*
X156507350Y-84891908D01*
X156524432Y-84895306D01*
X156575677Y-84905500D01*
X156575680Y-84905500D01*
X156824322Y-84905500D01*
X156858485Y-84898704D01*
X156892650Y-84891908D01*
X156892653Y-84891905D01*
X156902543Y-84887810D01*
X156972012Y-84880338D01*
X156997457Y-84887810D01*
X157007348Y-84891906D01*
X157007350Y-84891908D01*
X157024432Y-84895306D01*
X157075677Y-84905500D01*
X157075680Y-84905500D01*
X157324322Y-84905500D01*
X157358485Y-84898704D01*
X157392650Y-84891908D01*
X157392653Y-84891905D01*
X157402543Y-84887810D01*
X157472012Y-84880338D01*
X157497457Y-84887810D01*
X157507348Y-84891906D01*
X157507350Y-84891908D01*
X157524432Y-84895306D01*
X157575677Y-84905500D01*
X157575680Y-84905500D01*
X157824322Y-84905500D01*
X157892650Y-84891908D01*
X157900579Y-84886610D01*
X157970135Y-84840135D01*
X158021908Y-84762650D01*
X158029261Y-84725684D01*
X158035500Y-84694322D01*
X158035500Y-84059500D01*
X158055185Y-83992461D01*
X158107989Y-83946706D01*
X158159500Y-83935500D01*
X158607500Y-83935500D01*
X158674539Y-83955185D01*
G37*
%TD.AperFunction*%
%TA.AperFunction,Conductor*%
G36*
X169072539Y-82630185D02*
G01*
X169118294Y-82682989D01*
X169129500Y-82734500D01*
X169129500Y-84099752D01*
X169141131Y-84158229D01*
X169141132Y-84158230D01*
X169185447Y-84224552D01*
X169251769Y-84268867D01*
X169251770Y-84268868D01*
X169310247Y-84280499D01*
X169310250Y-84280500D01*
X171405500Y-84280500D01*
X171472539Y-84300185D01*
X171518294Y-84352989D01*
X171529500Y-84404500D01*
X171529500Y-85119752D01*
X171541131Y-85178229D01*
X171541132Y-85178230D01*
X171585447Y-85244552D01*
X171651769Y-85288867D01*
X171651770Y-85288868D01*
X171710247Y-85300499D01*
X171710250Y-85300500D01*
X171710252Y-85300500D01*
X173649750Y-85300500D01*
X173674308Y-85295615D01*
X173743900Y-85301842D01*
X173799077Y-85344705D01*
X173822322Y-85410594D01*
X173822500Y-85417232D01*
X173822500Y-85948500D01*
X173802815Y-86015539D01*
X173750011Y-86061294D01*
X173698500Y-86072500D01*
X168443349Y-86072500D01*
X168376310Y-86052815D01*
X168330555Y-86000011D01*
X168320611Y-85930853D01*
X168349636Y-85867297D01*
X168402394Y-85831459D01*
X168424888Y-85823587D01*
X168462882Y-85810293D01*
X168572150Y-85729650D01*
X168652793Y-85620382D01*
X168681180Y-85539256D01*
X168697646Y-85492201D01*
X168697646Y-85492199D01*
X168700500Y-85461769D01*
X168700500Y-84753230D01*
X168697646Y-84722800D01*
X168697646Y-84722798D01*
X168658576Y-84611146D01*
X168652793Y-84594618D01*
X168572150Y-84485350D01*
X168572148Y-84485349D01*
X168572148Y-84485348D01*
X168572120Y-84485320D01*
X168572099Y-84485281D01*
X168566632Y-84477874D01*
X168567645Y-84477125D01*
X168538635Y-84423997D01*
X168543619Y-84354305D01*
X168572120Y-84309958D01*
X168579816Y-84302262D01*
X168675789Y-84149522D01*
X168735368Y-83979255D01*
X168735626Y-83976968D01*
X168755565Y-83800003D01*
X168755565Y-83799996D01*
X168735369Y-83620750D01*
X168735368Y-83620745D01*
X168726059Y-83594141D01*
X168675789Y-83450478D01*
X168675311Y-83449718D01*
X168611058Y-83347460D01*
X168579816Y-83297738D01*
X168466663Y-83184585D01*
X168433178Y-83123262D01*
X168438162Y-83053570D01*
X168480034Y-82997637D01*
X168480450Y-82997326D01*
X168572150Y-82929650D01*
X168652793Y-82820382D01*
X168672112Y-82765172D01*
X168697176Y-82693545D01*
X168737898Y-82636769D01*
X168802851Y-82611022D01*
X168814217Y-82610500D01*
X169005500Y-82610500D01*
X169072539Y-82630185D01*
G37*
%TD.AperFunction*%
%TA.AperFunction,Conductor*%
G36*
X120146876Y-81146950D02*
G01*
X120202810Y-81188821D01*
X120226247Y-81245254D01*
X120234426Y-81301391D01*
X120234427Y-81301393D01*
X120281389Y-81397457D01*
X120285803Y-81406485D01*
X120326980Y-81447661D01*
X120360466Y-81508984D01*
X120363300Y-81535343D01*
X120363300Y-81864795D01*
X120343615Y-81931834D01*
X120290811Y-81977589D01*
X120274004Y-81983840D01*
X120266827Y-81985932D01*
X120216175Y-82009552D01*
X120211607Y-82011682D01*
X120159202Y-82023300D01*
X119695293Y-82023300D01*
X119628254Y-82003615D01*
X119624170Y-82000875D01*
X119618317Y-81996776D01*
X119544972Y-81962575D01*
X119509487Y-81946028D01*
X119509485Y-81946027D01*
X119509486Y-81946027D01*
X119459902Y-81939500D01*
X119100105Y-81939500D01*
X119084386Y-81941569D01*
X119050513Y-81946028D01*
X119050511Y-81946029D01*
X119050509Y-81946029D01*
X118941683Y-81996776D01*
X118856776Y-82081683D01*
X118806027Y-82190514D01*
X118799500Y-82240098D01*
X118799500Y-82659894D01*
X118799854Y-82662584D01*
X118806028Y-82709487D01*
X118806029Y-82709489D01*
X118806029Y-82709490D01*
X118856776Y-82818316D01*
X118939314Y-82900854D01*
X118972799Y-82962177D01*
X118967815Y-83031869D01*
X118939315Y-83076215D01*
X118895935Y-83119595D01*
X118845931Y-83226828D01*
X118839500Y-83275683D01*
X118839500Y-83724316D01*
X118845931Y-83773171D01*
X118872130Y-83829355D01*
X118895935Y-83880404D01*
X118979596Y-83964065D01*
X119086827Y-84014068D01*
X119135683Y-84020500D01*
X119135684Y-84020500D01*
X119484317Y-84020500D01*
X119500601Y-84018356D01*
X119533173Y-84014068D01*
X119640404Y-83964065D01*
X119724065Y-83880404D01*
X119774068Y-83773173D01*
X119780500Y-83724316D01*
X119780500Y-83275684D01*
X119774068Y-83226827D01*
X119724065Y-83119596D01*
X119673019Y-83068550D01*
X119639534Y-83007227D01*
X119636700Y-82980869D01*
X119636700Y-82936202D01*
X119656385Y-82869163D01*
X119673019Y-82848521D01*
X119683905Y-82837635D01*
X119703224Y-82818316D01*
X119753972Y-82709487D01*
X119756344Y-82691472D01*
X119757260Y-82684515D01*
X119785527Y-82620618D01*
X119843851Y-82582147D01*
X119880199Y-82576700D01*
X119895500Y-82576700D01*
X119962539Y-82596385D01*
X120008294Y-82649189D01*
X120019500Y-82700700D01*
X120019500Y-82724316D01*
X120025931Y-82773171D01*
X120061068Y-82848521D01*
X120075935Y-82880404D01*
X120159596Y-82964065D01*
X120266827Y-83014068D01*
X120315683Y-83020500D01*
X120315684Y-83020500D01*
X120664317Y-83020500D01*
X120680601Y-83018356D01*
X120713173Y-83014068D01*
X120820404Y-82964065D01*
X120904065Y-82880404D01*
X120904065Y-82880403D01*
X120911736Y-82872733D01*
X120914564Y-82875561D01*
X120952977Y-82844843D01*
X121022474Y-82837635D01*
X121084835Y-82869143D01*
X121088093Y-82872903D01*
X121088264Y-82872733D01*
X121095935Y-82880404D01*
X121179596Y-82964065D01*
X121286827Y-83014068D01*
X121335683Y-83020500D01*
X121335684Y-83020500D01*
X121684317Y-83020500D01*
X121700601Y-83018356D01*
X121733173Y-83014068D01*
X121840404Y-82964065D01*
X121924065Y-82880404D01*
X121974068Y-82773173D01*
X121980500Y-82724316D01*
X121980500Y-82700700D01*
X122000185Y-82633661D01*
X122052989Y-82587906D01*
X122104500Y-82576700D01*
X122426428Y-82576700D01*
X122426433Y-82576699D01*
X122496803Y-82557844D01*
X122496804Y-82557844D01*
X122544852Y-82530102D01*
X122559898Y-82521415D01*
X122724495Y-82356816D01*
X122785816Y-82323333D01*
X122812175Y-82320499D01*
X122859895Y-82320499D01*
X122859900Y-82320499D01*
X122909487Y-82313972D01*
X123018316Y-82263224D01*
X123061619Y-82219921D01*
X123122942Y-82186436D01*
X123192634Y-82191420D01*
X123248567Y-82233292D01*
X123272984Y-82298756D01*
X123273300Y-82307602D01*
X123273300Y-83074025D01*
X123253615Y-83141064D01*
X123236981Y-83161706D01*
X122993400Y-83405286D01*
X122932077Y-83438771D01*
X122862385Y-83433787D01*
X122853315Y-83429987D01*
X122823173Y-83415932D01*
X122823172Y-83415931D01*
X122774317Y-83409500D01*
X122774316Y-83409500D01*
X122325684Y-83409500D01*
X122325683Y-83409500D01*
X122276828Y-83415931D01*
X122169595Y-83465935D01*
X122085934Y-83549596D01*
X122079712Y-83558483D01*
X122076698Y-83556372D01*
X122043447Y-83594141D01*
X121977233Y-83613300D01*
X121123566Y-83613300D01*
X121053196Y-83632155D01*
X121053195Y-83632155D01*
X120990107Y-83668581D01*
X120990098Y-83668587D01*
X119495506Y-85163181D01*
X119434183Y-85196666D01*
X119407825Y-85199500D01*
X118289395Y-85199500D01*
X118222356Y-85179815D01*
X118176601Y-85127011D01*
X118166657Y-85057853D01*
X118173453Y-85031529D01*
X118183697Y-85004517D01*
X118235140Y-84868872D01*
X118255645Y-84700000D01*
X118235140Y-84531128D01*
X118223444Y-84500289D01*
X118198775Y-84435241D01*
X118174818Y-84372070D01*
X118174273Y-84371281D01*
X118135567Y-84315205D01*
X118078183Y-84232071D01*
X118061034Y-84216878D01*
X118042273Y-84200257D01*
X118005146Y-84141068D01*
X118000500Y-84107442D01*
X118000500Y-81642369D01*
X118020185Y-81575330D01*
X118072989Y-81529575D01*
X118142147Y-81519631D01*
X118178958Y-81530967D01*
X118198607Y-81540573D01*
X118232673Y-81545536D01*
X118266739Y-81550500D01*
X118266740Y-81550500D01*
X119358261Y-81550500D01*
X119388500Y-81546094D01*
X119426393Y-81540573D01*
X119531483Y-81489198D01*
X119614198Y-81406483D01*
X119619205Y-81396241D01*
X119666332Y-81344658D01*
X119730606Y-81326700D01*
X119786428Y-81326700D01*
X119786433Y-81326699D01*
X119856803Y-81307844D01*
X119856804Y-81307844D01*
X119895932Y-81285252D01*
X119919898Y-81271415D01*
X120015863Y-81175449D01*
X120077184Y-81141966D01*
X120146876Y-81146950D01*
G37*
%TD.AperFunction*%
%TA.AperFunction,Conductor*%
G36*
X126667056Y-83396385D02*
G01*
X126712811Y-83449189D01*
X126722755Y-83518347D01*
X126722491Y-83520096D01*
X126719196Y-83540901D01*
X126719196Y-83540902D01*
X126740279Y-83674021D01*
X126740280Y-83674024D01*
X126740281Y-83674026D01*
X126797618Y-83786556D01*
X126810514Y-83855225D01*
X126784238Y-83919965D01*
X126727131Y-83960222D01*
X126687133Y-83966850D01*
X126225098Y-83966850D01*
X126178802Y-83979255D01*
X126151495Y-83986571D01*
X126085501Y-84024674D01*
X125701996Y-84408181D01*
X125640673Y-84441666D01*
X125614315Y-84444500D01*
X125530247Y-84444500D01*
X125471770Y-84456131D01*
X125471769Y-84456132D01*
X125419591Y-84490997D01*
X125352913Y-84511875D01*
X125285533Y-84493390D01*
X125238843Y-84441412D01*
X125229756Y-84401364D01*
X125227760Y-84401627D01*
X125226700Y-84393579D01*
X125226700Y-84393572D01*
X125222607Y-84378295D01*
X125207844Y-84323197D01*
X125171415Y-84260102D01*
X125171414Y-84260101D01*
X125171412Y-84260098D01*
X125029901Y-84118587D01*
X125029892Y-84118581D01*
X124966804Y-84082155D01*
X124896433Y-84063300D01*
X124896428Y-84063300D01*
X124347500Y-84063300D01*
X124280461Y-84043615D01*
X124234706Y-83990811D01*
X124223500Y-83939300D01*
X124223500Y-83532775D01*
X124243185Y-83465736D01*
X124259819Y-83445094D01*
X124291894Y-83413019D01*
X124353217Y-83379534D01*
X124379575Y-83376700D01*
X126600017Y-83376700D01*
X126667056Y-83396385D01*
G37*
%TD.AperFunction*%
%TA.AperFunction,Conductor*%
G36*
X164059400Y-75847185D02*
G01*
X164105155Y-75899989D01*
X164115099Y-75969147D01*
X164095463Y-76020391D01*
X164061132Y-76071769D01*
X164061131Y-76071770D01*
X164049500Y-76130247D01*
X164049500Y-76199300D01*
X164029815Y-76266339D01*
X163977011Y-76312094D01*
X163925500Y-76323300D01*
X163686410Y-76323300D01*
X163619371Y-76303615D01*
X163598728Y-76286980D01*
X163563224Y-76251475D01*
X163563221Y-76251473D01*
X163563220Y-76251472D01*
X163443126Y-76190281D01*
X163443124Y-76190280D01*
X163443121Y-76190279D01*
X163310002Y-76169196D01*
X163309999Y-76169196D01*
X163294508Y-76171649D01*
X163225215Y-76162692D01*
X163203989Y-76150749D01*
X163198317Y-76146777D01*
X163198316Y-76146776D01*
X163089487Y-76096028D01*
X163089485Y-76096027D01*
X163089486Y-76096027D01*
X163039902Y-76089500D01*
X162680105Y-76089500D01*
X162664386Y-76091569D01*
X162630513Y-76096028D01*
X162630511Y-76096029D01*
X162630509Y-76096029D01*
X162521683Y-76146776D01*
X162436776Y-76231683D01*
X162386027Y-76340514D01*
X162379500Y-76390098D01*
X162379500Y-76809894D01*
X162379501Y-76809900D01*
X162386028Y-76859487D01*
X162386029Y-76859489D01*
X162386029Y-76859490D01*
X162415988Y-76923737D01*
X162436776Y-76968316D01*
X162521684Y-77053224D01*
X162630513Y-77103972D01*
X162680099Y-77110500D01*
X163039900Y-77110499D01*
X163089487Y-77103972D01*
X163198316Y-77053224D01*
X163198322Y-77053217D01*
X163203985Y-77049253D01*
X163270189Y-77026922D01*
X163294511Y-77028350D01*
X163310000Y-77030804D01*
X163310002Y-77030804D01*
X163443121Y-77009720D01*
X163443121Y-77009719D01*
X163443126Y-77009719D01*
X163563220Y-76948528D01*
X163598728Y-76913020D01*
X163660050Y-76879534D01*
X163686410Y-76876700D01*
X163925500Y-76876700D01*
X163992539Y-76896385D01*
X164038294Y-76949189D01*
X164049500Y-77000700D01*
X164049500Y-77069752D01*
X164061131Y-77128229D01*
X164061132Y-77128230D01*
X164105447Y-77194552D01*
X164171769Y-77238867D01*
X164171770Y-77238868D01*
X164230247Y-77250499D01*
X164230250Y-77250500D01*
X164230252Y-77250500D01*
X165969750Y-77250500D01*
X165969751Y-77250499D01*
X165984568Y-77247552D01*
X166028229Y-77238868D01*
X166028229Y-77238867D01*
X166028231Y-77238867D01*
X166094552Y-77194552D01*
X166138867Y-77128231D01*
X166138867Y-77128229D01*
X166143542Y-77116946D01*
X166145009Y-77117553D01*
X166170904Y-77068041D01*
X166231617Y-77033462D01*
X166301387Y-77037196D01*
X166358062Y-77078058D01*
X166382616Y-77134737D01*
X166390279Y-77183121D01*
X166390280Y-77183124D01*
X166390281Y-77183126D01*
X166451472Y-77303220D01*
X166451473Y-77303221D01*
X166451476Y-77303225D01*
X166546774Y-77398523D01*
X166546778Y-77398526D01*
X166546780Y-77398528D01*
X166666874Y-77459719D01*
X166666876Y-77459719D01*
X166666878Y-77459720D01*
X166799998Y-77480804D01*
X166800000Y-77480804D01*
X166800002Y-77480804D01*
X166933122Y-77459720D01*
X166933123Y-77459719D01*
X166933126Y-77459719D01*
X166941604Y-77455398D01*
X167010272Y-77442502D01*
X167051789Y-77458126D01*
X167053258Y-77455123D01*
X167062488Y-77459635D01*
X167062489Y-77459636D01*
X167166830Y-77510645D01*
X167234472Y-77520500D01*
X167234478Y-77520500D01*
X167595522Y-77520500D01*
X167595528Y-77520500D01*
X167663170Y-77510645D01*
X167767511Y-77459636D01*
X167789512Y-77437635D01*
X167812319Y-77414829D01*
X167873642Y-77381344D01*
X167943334Y-77386328D01*
X167987681Y-77414829D01*
X168032486Y-77459634D01*
X168032487Y-77459634D01*
X168032489Y-77459636D01*
X168116461Y-77500687D01*
X168168042Y-77547814D01*
X168186000Y-77612087D01*
X168186000Y-77675973D01*
X168166315Y-77743012D01*
X168126897Y-77777447D01*
X168128483Y-77779712D01*
X168119596Y-77785934D01*
X168035935Y-77869595D01*
X167985931Y-77976828D01*
X167979500Y-78025683D01*
X167979500Y-78474316D01*
X167985931Y-78523171D01*
X168006881Y-78568099D01*
X168035935Y-78630404D01*
X168119596Y-78714065D01*
X168226827Y-78764068D01*
X168275683Y-78770500D01*
X168275684Y-78770500D01*
X168624317Y-78770500D01*
X168640601Y-78768356D01*
X168673173Y-78764068D01*
X168780404Y-78714065D01*
X168864065Y-78630404D01*
X168893119Y-78568097D01*
X168939290Y-78515660D01*
X169006484Y-78496508D01*
X169073365Y-78516724D01*
X169118699Y-78569889D01*
X169129500Y-78620504D01*
X169129500Y-79179752D01*
X169141131Y-79238229D01*
X169141132Y-79238230D01*
X169185447Y-79304552D01*
X169251769Y-79348867D01*
X169251770Y-79348868D01*
X169310247Y-79360499D01*
X169310250Y-79360500D01*
X171405500Y-79360500D01*
X171472539Y-79380185D01*
X171518294Y-79432989D01*
X171529500Y-79484500D01*
X171529500Y-80649752D01*
X171541131Y-80708229D01*
X171541132Y-80708230D01*
X171585448Y-80774553D01*
X171588959Y-80776899D01*
X171633764Y-80830512D01*
X171642470Y-80899837D01*
X171612314Y-80962864D01*
X171588959Y-80983101D01*
X171585448Y-80985446D01*
X171541132Y-81051769D01*
X171541131Y-81051770D01*
X171529500Y-81110247D01*
X171529500Y-82275500D01*
X171509815Y-82342539D01*
X171457011Y-82388294D01*
X171405500Y-82399500D01*
X171034500Y-82399500D01*
X170967461Y-82379815D01*
X170921706Y-82327011D01*
X170910500Y-82275500D01*
X170910500Y-81935249D01*
X170899349Y-81879192D01*
X170899349Y-81830808D01*
X170910500Y-81774750D01*
X170910500Y-81285249D01*
X170899349Y-81229192D01*
X170899349Y-81180808D01*
X170910500Y-81124750D01*
X170910500Y-80635249D01*
X170899349Y-80579192D01*
X170899349Y-80530808D01*
X170910500Y-80474750D01*
X170910500Y-79985249D01*
X170910499Y-79985247D01*
X170898868Y-79926770D01*
X170898867Y-79926769D01*
X170854552Y-79860447D01*
X170788230Y-79816132D01*
X170788229Y-79816131D01*
X170729752Y-79804500D01*
X170729748Y-79804500D01*
X169310252Y-79804500D01*
X169310247Y-79804500D01*
X169251770Y-79816131D01*
X169251769Y-79816132D01*
X169185447Y-79860447D01*
X169141132Y-79926769D01*
X169141131Y-79926770D01*
X169129500Y-79985247D01*
X169129500Y-80449963D01*
X169109815Y-80517002D01*
X169057011Y-80562757D01*
X169005500Y-80573963D01*
X168944708Y-80573963D01*
X168887097Y-80589400D01*
X168866872Y-80594819D01*
X168797089Y-80635108D01*
X168797086Y-80635110D01*
X168738590Y-80693607D01*
X168677267Y-80727092D01*
X168650909Y-80729926D01*
X167015272Y-80729926D01*
X166934690Y-80729926D01*
X166880557Y-80744431D01*
X166856854Y-80750782D01*
X166787071Y-80791071D01*
X166787068Y-80791073D01*
X166086073Y-81492068D01*
X166086071Y-81492071D01*
X166045782Y-81561854D01*
X166045782Y-81561855D01*
X166024926Y-81639690D01*
X166024926Y-81639692D01*
X166024926Y-82301854D01*
X166005241Y-82368893D01*
X165988607Y-82389535D01*
X165689535Y-82688607D01*
X165628212Y-82722092D01*
X165601854Y-82724926D01*
X164510272Y-82724926D01*
X164429690Y-82724926D01*
X164371313Y-82740568D01*
X164351854Y-82745782D01*
X164282071Y-82786071D01*
X164282068Y-82786073D01*
X163626073Y-83442068D01*
X163626071Y-83442071D01*
X163585782Y-83511854D01*
X163583628Y-83519893D01*
X163564926Y-83589690D01*
X163564926Y-83589692D01*
X163564926Y-83818610D01*
X163545241Y-83885649D01*
X163528611Y-83906286D01*
X163444087Y-83990811D01*
X163362363Y-84072535D01*
X163301040Y-84106019D01*
X163231348Y-84101035D01*
X163175415Y-84059163D01*
X163162301Y-84037259D01*
X163154065Y-84019596D01*
X163070404Y-83935935D01*
X162963173Y-83885932D01*
X162963171Y-83885931D01*
X162963172Y-83885931D01*
X162914317Y-83879500D01*
X162914316Y-83879500D01*
X162565684Y-83879500D01*
X162565683Y-83879500D01*
X162516828Y-83885931D01*
X162409595Y-83935935D01*
X162318264Y-84027267D01*
X162315440Y-84024443D01*
X162276958Y-84055183D01*
X162207458Y-84062352D01*
X162145114Y-84030808D01*
X162141901Y-84027101D01*
X162141736Y-84027267D01*
X162050404Y-83935935D01*
X162048733Y-83935156D01*
X162046562Y-83933244D01*
X162041517Y-83929712D01*
X162041910Y-83929149D01*
X161996293Y-83888985D01*
X161977139Y-83821792D01*
X161997353Y-83754911D01*
X162050517Y-83709575D01*
X162084947Y-83699834D01*
X162129487Y-83693972D01*
X162238316Y-83643224D01*
X162323224Y-83558316D01*
X162373972Y-83449487D01*
X162380500Y-83399901D01*
X162380499Y-82980100D01*
X162373972Y-82930513D01*
X162323224Y-82821684D01*
X162303721Y-82802181D01*
X162270236Y-82740858D01*
X162275220Y-82671166D01*
X162317092Y-82615233D01*
X162382556Y-82590816D01*
X162391402Y-82590500D01*
X162949750Y-82590500D01*
X162949751Y-82590499D01*
X162968254Y-82586819D01*
X163008229Y-82578868D01*
X163008229Y-82578867D01*
X163008231Y-82578867D01*
X163074552Y-82534552D01*
X163118867Y-82468231D01*
X163118867Y-82468229D01*
X163118868Y-82468229D01*
X163129875Y-82412890D01*
X163130500Y-82409748D01*
X163130500Y-81220252D01*
X163130500Y-81220249D01*
X163130499Y-81220247D01*
X163118868Y-81161770D01*
X163118867Y-81161769D01*
X163074552Y-81095447D01*
X163008230Y-81051132D01*
X163008229Y-81051131D01*
X162949752Y-81039500D01*
X162949748Y-81039500D01*
X161910252Y-81039500D01*
X161910247Y-81039500D01*
X161851770Y-81051131D01*
X161851769Y-81051132D01*
X161785447Y-81095447D01*
X161741132Y-81161769D01*
X161741131Y-81161770D01*
X161729500Y-81220247D01*
X161729500Y-82072824D01*
X161709815Y-82139863D01*
X161693181Y-82160505D01*
X161618587Y-82235098D01*
X161618583Y-82235104D01*
X161595154Y-82275684D01*
X161582156Y-82298197D01*
X161573549Y-82330322D01*
X161573212Y-82331578D01*
X161563300Y-82368567D01*
X161563300Y-82683798D01*
X161543615Y-82750837D01*
X161526981Y-82771479D01*
X161525485Y-82772975D01*
X161464162Y-82806460D01*
X161394470Y-82801476D01*
X161350123Y-82772975D01*
X161297513Y-82720365D01*
X161193171Y-82669355D01*
X161183506Y-82667947D01*
X161125528Y-82659500D01*
X160764472Y-82659500D01*
X160713740Y-82666891D01*
X160696828Y-82669355D01*
X160592486Y-82720365D01*
X160547679Y-82765172D01*
X160486356Y-82798656D01*
X160416664Y-82793671D01*
X160372315Y-82765168D01*
X160363014Y-82755867D01*
X160329532Y-82694542D01*
X160326700Y-82668190D01*
X160326700Y-81773572D01*
X160323904Y-81763139D01*
X160323904Y-81763138D01*
X160307844Y-81703197D01*
X160292667Y-81676911D01*
X160271418Y-81640107D01*
X160271415Y-81640102D01*
X160248709Y-81617396D01*
X160213235Y-81581922D01*
X160179752Y-81520602D01*
X160184736Y-81450910D01*
X160226607Y-81394976D01*
X160268824Y-81374468D01*
X160286704Y-81369678D01*
X160352696Y-81331577D01*
X160807455Y-80876819D01*
X160868778Y-80843334D01*
X160895136Y-80840500D01*
X161549750Y-80840500D01*
X161549751Y-80840499D01*
X161564568Y-80837552D01*
X161608229Y-80828868D01*
X161608229Y-80828867D01*
X161608231Y-80828867D01*
X161674552Y-80784552D01*
X161718867Y-80718231D01*
X161718867Y-80718229D01*
X161718868Y-80718229D01*
X161729080Y-80666888D01*
X161730500Y-80659748D01*
X161730500Y-79470252D01*
X161730500Y-79470249D01*
X161730499Y-79470247D01*
X161718868Y-79411770D01*
X161718867Y-79411769D01*
X161674552Y-79345447D01*
X161608230Y-79301132D01*
X161608229Y-79301131D01*
X161549752Y-79289500D01*
X161549748Y-79289500D01*
X161101402Y-79289500D01*
X161034363Y-79269815D01*
X160988608Y-79217011D01*
X160978664Y-79147853D01*
X161007689Y-79084297D01*
X161013721Y-79077819D01*
X161035719Y-79055821D01*
X161073224Y-79018316D01*
X161123972Y-78909487D01*
X161130500Y-78859901D01*
X161130499Y-78440100D01*
X161123972Y-78390513D01*
X161073224Y-78281684D01*
X161073221Y-78281681D01*
X161070994Y-78276905D01*
X161060502Y-78207827D01*
X161089021Y-78144043D01*
X161147497Y-78105803D01*
X161183373Y-78100499D01*
X161309900Y-78100499D01*
X161359487Y-78093972D01*
X161468316Y-78043224D01*
X161553224Y-77958316D01*
X161603972Y-77849487D01*
X161610500Y-77799901D01*
X161610499Y-77380100D01*
X161603972Y-77330513D01*
X161553224Y-77221684D01*
X161468316Y-77136776D01*
X161359487Y-77086028D01*
X161359485Y-77086027D01*
X161359486Y-77086027D01*
X161309902Y-77079500D01*
X160950105Y-77079500D01*
X160934386Y-77081569D01*
X160900513Y-77086028D01*
X160900511Y-77086029D01*
X160900509Y-77086029D01*
X160791683Y-77136776D01*
X160782798Y-77142998D01*
X160780738Y-77140056D01*
X160736275Y-77164319D01*
X160690556Y-77165619D01*
X160678791Y-77163755D01*
X160650000Y-77159196D01*
X160649999Y-77159196D01*
X160649998Y-77159196D01*
X160516876Y-77180279D01*
X160430294Y-77224395D01*
X160361625Y-77237291D01*
X160296884Y-77211014D01*
X160256628Y-77153907D01*
X160250000Y-77113910D01*
X160250000Y-75951500D01*
X160269685Y-75884461D01*
X160322489Y-75838706D01*
X160374000Y-75827500D01*
X163992361Y-75827500D01*
X164059400Y-75847185D01*
G37*
%TD.AperFunction*%
%TA.AperFunction,Conductor*%
G36*
X131297461Y-78083977D02*
G01*
X131302256Y-78085963D01*
X131302260Y-78085966D01*
X131302264Y-78085966D01*
X131302267Y-78085968D01*
X131375321Y-78100499D01*
X131375324Y-78100500D01*
X131375326Y-78100500D01*
X131524671Y-78100500D01*
X131524674Y-78100500D01*
X131524818Y-78100471D01*
X131524897Y-78100478D01*
X131530739Y-78099903D01*
X131530847Y-78101009D01*
X131594410Y-78106687D01*
X131649594Y-78149540D01*
X131672850Y-78215426D01*
X131661896Y-78267143D01*
X131663295Y-78267598D01*
X131660280Y-78276875D01*
X131639196Y-78409997D01*
X131639196Y-78410002D01*
X131660279Y-78543121D01*
X131660280Y-78543124D01*
X131660281Y-78543126D01*
X131720344Y-78661006D01*
X131721473Y-78663221D01*
X131721476Y-78663225D01*
X131816774Y-78758523D01*
X131816778Y-78758526D01*
X131816780Y-78758528D01*
X131936874Y-78819719D01*
X131936876Y-78819719D01*
X131936878Y-78819720D01*
X132069998Y-78840804D01*
X132070000Y-78840804D01*
X132070002Y-78840804D01*
X132203122Y-78819720D01*
X132203123Y-78819719D01*
X132203126Y-78819719D01*
X132294616Y-78773102D01*
X132363281Y-78760206D01*
X132428022Y-78786482D01*
X132438589Y-78795906D01*
X132508990Y-78866307D01*
X132508994Y-78866310D01*
X132508996Y-78866312D01*
X132629090Y-78927503D01*
X132629092Y-78927503D01*
X132629094Y-78927504D01*
X132762214Y-78948588D01*
X132762216Y-78948588D01*
X132762218Y-78948588D01*
X132895337Y-78927504D01*
X132895337Y-78927503D01*
X132895342Y-78927503D01*
X133015436Y-78866312D01*
X133109669Y-78772078D01*
X133170990Y-78738595D01*
X133240682Y-78743579D01*
X133296616Y-78785450D01*
X133319822Y-78840363D01*
X133340273Y-78969487D01*
X133340274Y-78969490D01*
X133340275Y-78969492D01*
X133401466Y-79089586D01*
X133401467Y-79089587D01*
X133401470Y-79089591D01*
X133447284Y-79135405D01*
X133480769Y-79196728D01*
X133475785Y-79266420D01*
X133433913Y-79322353D01*
X133415899Y-79333570D01*
X133348783Y-79367768D01*
X133348776Y-79367773D01*
X133253478Y-79463071D01*
X133253475Y-79463075D01*
X133192281Y-79583175D01*
X133171198Y-79716294D01*
X133171198Y-79716299D01*
X133192281Y-79849418D01*
X133192282Y-79849421D01*
X133192283Y-79849423D01*
X133253474Y-79969517D01*
X133253475Y-79969518D01*
X133253478Y-79969522D01*
X133348776Y-80064820D01*
X133348779Y-80064822D01*
X133348782Y-80064825D01*
X133348784Y-80064826D01*
X133349844Y-80065596D01*
X133350828Y-80066872D01*
X133355682Y-80071726D01*
X133355055Y-80072352D01*
X133392514Y-80120922D01*
X133399440Y-80185317D01*
X133389196Y-80249996D01*
X133389196Y-80250002D01*
X133410279Y-80383121D01*
X133410280Y-80383124D01*
X133410281Y-80383126D01*
X133471472Y-80503220D01*
X133471473Y-80503221D01*
X133471476Y-80503225D01*
X133566774Y-80598523D01*
X133566778Y-80598526D01*
X133566780Y-80598528D01*
X133686874Y-80659719D01*
X133686876Y-80659719D01*
X133686878Y-80659720D01*
X133762025Y-80671622D01*
X133825160Y-80701551D01*
X133853681Y-80745239D01*
X133855268Y-80744431D01*
X133859697Y-80753124D01*
X133859698Y-80753126D01*
X133920889Y-80873220D01*
X133920891Y-80873222D01*
X133920893Y-80873225D01*
X134016191Y-80968523D01*
X134016195Y-80968526D01*
X134016197Y-80968528D01*
X134136291Y-81029719D01*
X134136293Y-81029719D01*
X134136295Y-81029720D01*
X134269415Y-81050804D01*
X134269417Y-81050804D01*
X134269419Y-81050804D01*
X134306102Y-81044994D01*
X134375396Y-81053949D01*
X134428848Y-81098945D01*
X134449487Y-81165696D01*
X134449500Y-81167467D01*
X134449500Y-81174674D01*
X134449500Y-81174676D01*
X134449499Y-81174676D01*
X134464033Y-81247740D01*
X134466025Y-81252548D01*
X134473494Y-81322017D01*
X134466025Y-81347452D01*
X134464033Y-81352259D01*
X134449500Y-81425323D01*
X134449500Y-81574678D01*
X134464032Y-81647735D01*
X134464033Y-81647739D01*
X134481914Y-81674500D01*
X134519399Y-81730601D01*
X134602260Y-81785966D01*
X134612415Y-81792751D01*
X134611303Y-81794414D01*
X134653701Y-81828582D01*
X134675765Y-81894876D01*
X134658485Y-81962575D01*
X134607347Y-82010185D01*
X134551844Y-82023300D01*
X133713566Y-82023300D01*
X133643196Y-82042155D01*
X133643195Y-82042155D01*
X133580107Y-82078581D01*
X133580098Y-82078587D01*
X133351085Y-82307602D01*
X133280102Y-82378585D01*
X133236178Y-82422509D01*
X133131941Y-82526745D01*
X133100560Y-82549545D01*
X133096780Y-82551471D01*
X133096779Y-82551472D01*
X133001476Y-82646774D01*
X133001473Y-82646778D01*
X133001472Y-82646780D01*
X132940281Y-82766874D01*
X132940280Y-82766875D01*
X132940280Y-82766877D01*
X132936711Y-82789408D01*
X132906780Y-82852542D01*
X132847468Y-82889472D01*
X132793259Y-82888696D01*
X132792767Y-82891807D01*
X132650004Y-82869196D01*
X132650000Y-82869196D01*
X132516880Y-82890279D01*
X132396780Y-82951473D01*
X132396776Y-82951476D01*
X132301478Y-83046774D01*
X132301475Y-83046778D01*
X132301474Y-83046780D01*
X132252719Y-83142468D01*
X132240281Y-83166878D01*
X132219198Y-83299997D01*
X132219198Y-83300002D01*
X132240281Y-83433123D01*
X132249123Y-83450476D01*
X132257598Y-83467109D01*
X132262985Y-83477680D01*
X132276500Y-83533975D01*
X132276500Y-83577610D01*
X132256815Y-83644649D01*
X132204011Y-83690404D01*
X132176693Y-83699227D01*
X132102259Y-83714033D01*
X132097452Y-83716025D01*
X132027983Y-83723494D01*
X132002548Y-83716025D01*
X131997740Y-83714033D01*
X131924676Y-83699500D01*
X131924674Y-83699500D01*
X131850700Y-83699500D01*
X131783661Y-83679815D01*
X131737906Y-83627011D01*
X131726700Y-83575500D01*
X131726700Y-83270844D01*
X131746385Y-83203805D01*
X131763019Y-83183163D01*
X131825258Y-83120923D01*
X131825263Y-83120918D01*
X131886454Y-83000824D01*
X131886959Y-82997637D01*
X131907539Y-82867700D01*
X131907539Y-82867695D01*
X131886455Y-82734576D01*
X131886454Y-82734574D01*
X131886454Y-82734572D01*
X131825263Y-82614478D01*
X131825261Y-82614476D01*
X131825258Y-82614472D01*
X131729960Y-82519174D01*
X131729956Y-82519171D01*
X131729955Y-82519170D01*
X131609861Y-82457979D01*
X131609859Y-82457978D01*
X131609856Y-82457977D01*
X131476737Y-82436894D01*
X131476733Y-82436894D01*
X131343613Y-82457977D01*
X131343609Y-82457978D01*
X131343609Y-82457979D01*
X131282800Y-82488963D01*
X131223513Y-82519171D01*
X131223509Y-82519174D01*
X131128206Y-82614477D01*
X131123965Y-82620315D01*
X131068634Y-82662979D01*
X130999020Y-82668957D01*
X130967355Y-82657912D01*
X130913123Y-82630279D01*
X130780002Y-82609196D01*
X130779998Y-82609196D01*
X130646878Y-82630279D01*
X130646874Y-82630280D01*
X130646874Y-82630281D01*
X130588742Y-82659901D01*
X130526778Y-82691473D01*
X130526774Y-82691476D01*
X130431476Y-82786774D01*
X130431473Y-82786778D01*
X130431472Y-82786780D01*
X130373784Y-82900000D01*
X130370279Y-82906878D01*
X130349196Y-83039997D01*
X130349196Y-83040002D01*
X130370279Y-83173121D01*
X130370280Y-83173124D01*
X130370281Y-83173126D01*
X130431181Y-83292648D01*
X130431473Y-83293221D01*
X130431476Y-83293225D01*
X130526774Y-83388523D01*
X130526778Y-83388526D01*
X130526780Y-83388528D01*
X130646874Y-83449719D01*
X130667758Y-83453026D01*
X130730893Y-83482955D01*
X130767824Y-83542266D01*
X130766828Y-83612129D01*
X130728218Y-83670362D01*
X130664255Y-83698477D01*
X130648361Y-83699500D01*
X130575324Y-83699500D01*
X130502259Y-83714033D01*
X130497452Y-83716025D01*
X130427983Y-83723494D01*
X130402548Y-83716025D01*
X130397740Y-83714033D01*
X130324676Y-83699500D01*
X130324674Y-83699500D01*
X130175326Y-83699500D01*
X130175325Y-83699500D01*
X130137842Y-83706955D01*
X130068250Y-83700726D01*
X130013074Y-83657862D01*
X129989831Y-83591971D01*
X129991179Y-83565948D01*
X129993272Y-83552735D01*
X129979710Y-83467109D01*
X129972188Y-83419613D01*
X129972187Y-83419611D01*
X129972187Y-83419609D01*
X129910996Y-83299515D01*
X129910994Y-83299513D01*
X129910991Y-83299509D01*
X129815693Y-83204211D01*
X129815689Y-83204208D01*
X129815688Y-83204207D01*
X129695594Y-83143016D01*
X129695592Y-83143015D01*
X129695589Y-83143014D01*
X129562470Y-83121931D01*
X129562468Y-83121931D01*
X129540648Y-83125387D01*
X129432797Y-83142468D01*
X129363503Y-83133512D01*
X129310052Y-83088515D01*
X129289413Y-83021763D01*
X129289400Y-83019994D01*
X129289400Y-82818152D01*
X129289400Y-82818150D01*
X129269678Y-82744546D01*
X129264991Y-82736428D01*
X129264991Y-82736427D01*
X129231580Y-82678557D01*
X129231576Y-82678552D01*
X128977698Y-82424675D01*
X128977696Y-82424673D01*
X128957288Y-82412890D01*
X128912499Y-82387030D01*
X128864284Y-82336463D01*
X128850500Y-82279644D01*
X128850500Y-82225323D01*
X128850499Y-82225321D01*
X128835968Y-82152267D01*
X128835966Y-82152264D01*
X128835966Y-82152260D01*
X128835963Y-82152256D01*
X128833977Y-82147461D01*
X128826504Y-82077992D01*
X128833977Y-82052539D01*
X128835962Y-82047745D01*
X128835966Y-82047740D01*
X128837077Y-82042155D01*
X128841794Y-82018444D01*
X128874178Y-81956533D01*
X128934894Y-81921959D01*
X128982809Y-81920162D01*
X129049998Y-81930804D01*
X129050000Y-81930804D01*
X129050002Y-81930804D01*
X129183121Y-81909720D01*
X129183121Y-81909719D01*
X129183126Y-81909719D01*
X129303220Y-81848528D01*
X129398528Y-81753220D01*
X129459719Y-81633126D01*
X129461737Y-81620385D01*
X129480804Y-81500002D01*
X129480804Y-81499997D01*
X129459720Y-81366878D01*
X129459719Y-81366876D01*
X129459719Y-81366874D01*
X129398528Y-81246780D01*
X129398526Y-81246778D01*
X129398523Y-81246774D01*
X129303225Y-81151476D01*
X129303221Y-81151473D01*
X129303220Y-81151472D01*
X129183126Y-81090281D01*
X129183124Y-81090280D01*
X129183121Y-81090279D01*
X129050002Y-81069196D01*
X129050000Y-81069196D01*
X129001645Y-81076854D01*
X128982808Y-81079838D01*
X128913514Y-81070882D01*
X128860063Y-81025885D01*
X128841794Y-80981555D01*
X128835968Y-80952267D01*
X128835966Y-80952264D01*
X128835966Y-80952260D01*
X128835963Y-80952256D01*
X128833977Y-80947461D01*
X128826504Y-80877992D01*
X128833977Y-80852539D01*
X128835962Y-80847745D01*
X128835966Y-80847740D01*
X128836843Y-80843334D01*
X128850499Y-80774678D01*
X128850500Y-80774676D01*
X128850500Y-80625323D01*
X128850499Y-80625321D01*
X128835968Y-80552267D01*
X128835966Y-80552264D01*
X128835966Y-80552260D01*
X128835963Y-80552256D01*
X128833977Y-80547461D01*
X128826504Y-80477992D01*
X128833977Y-80452539D01*
X128835962Y-80447745D01*
X128835966Y-80447740D01*
X128836533Y-80444893D01*
X128847350Y-80390509D01*
X128850500Y-80374674D01*
X128850500Y-80225326D01*
X128850500Y-80225323D01*
X128850499Y-80225321D01*
X128835968Y-80152267D01*
X128835966Y-80152264D01*
X128835966Y-80152260D01*
X128835963Y-80152256D01*
X128833977Y-80147461D01*
X128826504Y-80077992D01*
X128833977Y-80052539D01*
X128835962Y-80047745D01*
X128835966Y-80047740D01*
X128836948Y-80042806D01*
X128849460Y-79979901D01*
X128850500Y-79974674D01*
X128850500Y-79825326D01*
X128850500Y-79825323D01*
X128850499Y-79825321D01*
X128835968Y-79752267D01*
X128835966Y-79752264D01*
X128835966Y-79752260D01*
X128835963Y-79752256D01*
X128833977Y-79747461D01*
X128826504Y-79677992D01*
X128833977Y-79652539D01*
X128835962Y-79647745D01*
X128835966Y-79647740D01*
X128836133Y-79646903D01*
X128849372Y-79580346D01*
X128850500Y-79574674D01*
X128850500Y-79425326D01*
X128850500Y-79425323D01*
X128850499Y-79425321D01*
X128835968Y-79352267D01*
X128835966Y-79352264D01*
X128835966Y-79352260D01*
X128835963Y-79352256D01*
X128833977Y-79347461D01*
X128826504Y-79277992D01*
X128833977Y-79252539D01*
X128835962Y-79247745D01*
X128835966Y-79247740D01*
X128836296Y-79246085D01*
X128849737Y-79178511D01*
X128882121Y-79116600D01*
X128942837Y-79082026D01*
X129012607Y-79085765D01*
X129027635Y-79092211D01*
X129117342Y-79137919D01*
X129117344Y-79137919D01*
X129117346Y-79137920D01*
X129250466Y-79159004D01*
X129250468Y-79159004D01*
X129250470Y-79159004D01*
X129383589Y-79137920D01*
X129383589Y-79137919D01*
X129383594Y-79137919D01*
X129503688Y-79076728D01*
X129598996Y-78981420D01*
X129660187Y-78861326D01*
X129660413Y-78859900D01*
X129681272Y-78728202D01*
X129681272Y-78728197D01*
X129660188Y-78595078D01*
X129660187Y-78595076D01*
X129660187Y-78595074D01*
X129598996Y-78474980D01*
X129598994Y-78474978D01*
X129598991Y-78474974D01*
X129503693Y-78379676D01*
X129503690Y-78379674D01*
X129503688Y-78379672D01*
X129415982Y-78334984D01*
X129365188Y-78287010D01*
X129348393Y-78219189D01*
X129370931Y-78153054D01*
X129425646Y-78109603D01*
X129472279Y-78100500D01*
X129524676Y-78100500D01*
X129524677Y-78100499D01*
X129557502Y-78093970D01*
X129597732Y-78085968D01*
X129597733Y-78085967D01*
X129597740Y-78085966D01*
X129597745Y-78085962D01*
X129602539Y-78083977D01*
X129672008Y-78076504D01*
X129697461Y-78083977D01*
X129702256Y-78085963D01*
X129702260Y-78085966D01*
X129702264Y-78085966D01*
X129702267Y-78085968D01*
X129775321Y-78100499D01*
X129775324Y-78100500D01*
X129775326Y-78100500D01*
X129924676Y-78100500D01*
X129924677Y-78100499D01*
X129957502Y-78093970D01*
X129997732Y-78085968D01*
X129997733Y-78085967D01*
X129997740Y-78085966D01*
X129997745Y-78085962D01*
X130002539Y-78083977D01*
X130072008Y-78076504D01*
X130097461Y-78083977D01*
X130102256Y-78085963D01*
X130102260Y-78085966D01*
X130102264Y-78085966D01*
X130102267Y-78085968D01*
X130175321Y-78100499D01*
X130175324Y-78100500D01*
X130175326Y-78100500D01*
X130324676Y-78100500D01*
X130324677Y-78100499D01*
X130357502Y-78093970D01*
X130397732Y-78085968D01*
X130397733Y-78085967D01*
X130397740Y-78085966D01*
X130397745Y-78085962D01*
X130402539Y-78083977D01*
X130472008Y-78076504D01*
X130497461Y-78083977D01*
X130502256Y-78085963D01*
X130502260Y-78085966D01*
X130502264Y-78085966D01*
X130502267Y-78085968D01*
X130575321Y-78100499D01*
X130575324Y-78100500D01*
X130575326Y-78100500D01*
X130724676Y-78100500D01*
X130724677Y-78100499D01*
X130757502Y-78093970D01*
X130797732Y-78085968D01*
X130797733Y-78085967D01*
X130797740Y-78085966D01*
X130797745Y-78085962D01*
X130802539Y-78083977D01*
X130872008Y-78076504D01*
X130897461Y-78083977D01*
X130902256Y-78085963D01*
X130902260Y-78085966D01*
X130902264Y-78085966D01*
X130902267Y-78085968D01*
X130975321Y-78100499D01*
X130975324Y-78100500D01*
X130975326Y-78100500D01*
X131124676Y-78100500D01*
X131124677Y-78100499D01*
X131157502Y-78093970D01*
X131197732Y-78085968D01*
X131197733Y-78085967D01*
X131197740Y-78085966D01*
X131197745Y-78085962D01*
X131202539Y-78083977D01*
X131272008Y-78076504D01*
X131297461Y-78083977D01*
G37*
%TD.AperFunction*%
%TA.AperFunction,Conductor*%
G36*
X157497457Y-79987810D02*
G01*
X157507348Y-79991906D01*
X157507350Y-79991908D01*
X157524432Y-79995306D01*
X157575677Y-80005500D01*
X157575680Y-80005500D01*
X157670500Y-80005500D01*
X157737539Y-80025185D01*
X157783294Y-80077989D01*
X157794500Y-80129500D01*
X157794500Y-80224320D01*
X157794500Y-80224322D01*
X157794499Y-80224322D01*
X157808091Y-80292648D01*
X157812192Y-80302549D01*
X157819659Y-80372019D01*
X157812192Y-80397451D01*
X157808091Y-80407351D01*
X157794500Y-80475677D01*
X157794500Y-80475680D01*
X157794500Y-80724320D01*
X157794500Y-80724322D01*
X157794499Y-80724322D01*
X157808091Y-80792648D01*
X157812192Y-80802549D01*
X157819659Y-80872019D01*
X157812192Y-80897451D01*
X157808091Y-80907351D01*
X157794500Y-80975677D01*
X157794500Y-80975680D01*
X157794500Y-81224320D01*
X157794500Y-81224322D01*
X157794499Y-81224322D01*
X157808091Y-81292648D01*
X157812192Y-81302549D01*
X157819659Y-81372019D01*
X157812192Y-81397451D01*
X157808091Y-81407351D01*
X157794500Y-81475677D01*
X157794500Y-81475680D01*
X157794500Y-81724320D01*
X157794500Y-81724322D01*
X157794499Y-81724322D01*
X157808091Y-81792648D01*
X157812192Y-81802549D01*
X157819659Y-81872019D01*
X157812192Y-81897451D01*
X157808091Y-81907351D01*
X157794500Y-81975677D01*
X157794500Y-81975680D01*
X157794500Y-82224320D01*
X157794500Y-82224322D01*
X157794499Y-82224322D01*
X157808091Y-82292648D01*
X157812192Y-82302549D01*
X157819659Y-82372019D01*
X157812192Y-82397451D01*
X157808091Y-82407351D01*
X157794500Y-82475677D01*
X157794500Y-82475680D01*
X157794500Y-82724320D01*
X157794500Y-82724322D01*
X157794499Y-82724322D01*
X157808091Y-82792648D01*
X157812192Y-82802549D01*
X157819659Y-82872019D01*
X157812192Y-82897451D01*
X157808091Y-82907351D01*
X157794500Y-82975677D01*
X157794500Y-82975680D01*
X157794500Y-83224320D01*
X157794500Y-83224322D01*
X157794499Y-83224322D01*
X157808091Y-83292648D01*
X157812192Y-83302549D01*
X157819659Y-83372019D01*
X157812192Y-83397451D01*
X157808091Y-83407351D01*
X157794500Y-83475677D01*
X157794500Y-83570500D01*
X157774815Y-83637539D01*
X157722011Y-83683294D01*
X157670500Y-83694500D01*
X157575678Y-83694500D01*
X157507351Y-83708091D01*
X157497451Y-83712192D01*
X157427981Y-83719659D01*
X157402549Y-83712192D01*
X157392648Y-83708091D01*
X157324322Y-83694500D01*
X157324320Y-83694500D01*
X157075680Y-83694500D01*
X157075678Y-83694500D01*
X157007351Y-83708091D01*
X156997451Y-83712192D01*
X156927981Y-83719659D01*
X156902549Y-83712192D01*
X156892648Y-83708091D01*
X156824322Y-83694500D01*
X156824320Y-83694500D01*
X156575680Y-83694500D01*
X156575678Y-83694500D01*
X156507351Y-83708091D01*
X156497451Y-83712192D01*
X156427981Y-83719659D01*
X156402549Y-83712192D01*
X156392648Y-83708091D01*
X156324322Y-83694500D01*
X156324320Y-83694500D01*
X156075680Y-83694500D01*
X156075678Y-83694500D01*
X156007351Y-83708091D01*
X155997451Y-83712192D01*
X155927981Y-83719659D01*
X155902549Y-83712192D01*
X155892648Y-83708091D01*
X155824322Y-83694500D01*
X155824320Y-83694500D01*
X155575680Y-83694500D01*
X155575678Y-83694500D01*
X155507351Y-83708091D01*
X155497451Y-83712192D01*
X155427981Y-83719659D01*
X155402549Y-83712192D01*
X155392648Y-83708091D01*
X155324322Y-83694500D01*
X155324320Y-83694500D01*
X155075680Y-83694500D01*
X155075678Y-83694500D01*
X155007351Y-83708091D01*
X154997451Y-83712192D01*
X154927981Y-83719659D01*
X154902549Y-83712192D01*
X154892648Y-83708091D01*
X154824322Y-83694500D01*
X154824320Y-83694500D01*
X154575680Y-83694500D01*
X154575678Y-83694500D01*
X154507351Y-83708091D01*
X154497451Y-83712192D01*
X154427981Y-83719659D01*
X154402549Y-83712192D01*
X154392648Y-83708091D01*
X154324322Y-83694500D01*
X154324320Y-83694500D01*
X154229500Y-83694500D01*
X154162461Y-83674815D01*
X154116706Y-83622011D01*
X154105500Y-83570500D01*
X154105500Y-83475677D01*
X154094347Y-83419613D01*
X154091908Y-83407350D01*
X154091906Y-83407348D01*
X154087810Y-83397457D01*
X154080338Y-83327988D01*
X154087810Y-83302543D01*
X154091905Y-83292653D01*
X154091908Y-83292650D01*
X154100841Y-83247740D01*
X154105500Y-83224322D01*
X154105500Y-82975677D01*
X154094776Y-82921769D01*
X154091908Y-82907350D01*
X154091906Y-82907348D01*
X154087810Y-82897457D01*
X154080338Y-82827988D01*
X154087810Y-82802543D01*
X154091905Y-82792653D01*
X154091908Y-82792650D01*
X154101477Y-82744544D01*
X154105500Y-82724322D01*
X154105500Y-82475677D01*
X154093010Y-82412890D01*
X154091908Y-82407350D01*
X154091906Y-82407348D01*
X154087810Y-82397457D01*
X154080338Y-82327988D01*
X154087810Y-82302543D01*
X154091905Y-82292653D01*
X154091908Y-82292650D01*
X154098704Y-82258485D01*
X154105500Y-82224322D01*
X154105500Y-81975677D01*
X154094814Y-81921959D01*
X154091908Y-81907350D01*
X154091906Y-81907348D01*
X154087810Y-81897457D01*
X154080338Y-81827988D01*
X154087810Y-81802543D01*
X154091905Y-81792653D01*
X154091908Y-81792650D01*
X154105500Y-81724320D01*
X154105500Y-81475680D01*
X154105500Y-81475677D01*
X154092717Y-81411417D01*
X154091908Y-81407350D01*
X154091906Y-81407348D01*
X154087810Y-81397457D01*
X154080338Y-81327988D01*
X154087810Y-81302543D01*
X154091905Y-81292653D01*
X154091908Y-81292650D01*
X154101917Y-81242335D01*
X154105500Y-81224322D01*
X154105500Y-80975677D01*
X154091908Y-80907351D01*
X154087810Y-80897457D01*
X154080338Y-80827988D01*
X154087810Y-80802543D01*
X154091905Y-80792653D01*
X154091908Y-80792650D01*
X154102480Y-80739501D01*
X154105500Y-80724322D01*
X154105500Y-80475677D01*
X154094142Y-80418580D01*
X154091908Y-80407350D01*
X154091906Y-80407348D01*
X154087810Y-80397457D01*
X154080338Y-80327988D01*
X154087810Y-80302543D01*
X154091905Y-80292653D01*
X154091908Y-80292650D01*
X154100179Y-80251072D01*
X154105500Y-80224322D01*
X154105500Y-80129500D01*
X154125185Y-80062461D01*
X154177989Y-80016706D01*
X154229500Y-80005500D01*
X154324322Y-80005500D01*
X154358485Y-79998704D01*
X154392650Y-79991908D01*
X154392653Y-79991905D01*
X154402543Y-79987810D01*
X154472012Y-79980338D01*
X154497457Y-79987810D01*
X154507348Y-79991906D01*
X154507350Y-79991908D01*
X154524432Y-79995306D01*
X154575677Y-80005500D01*
X154575680Y-80005500D01*
X154824322Y-80005500D01*
X154858485Y-79998704D01*
X154892650Y-79991908D01*
X154892653Y-79991905D01*
X154902543Y-79987810D01*
X154972012Y-79980338D01*
X154997457Y-79987810D01*
X155007348Y-79991906D01*
X155007350Y-79991908D01*
X155024432Y-79995306D01*
X155075677Y-80005500D01*
X155075680Y-80005500D01*
X155324322Y-80005500D01*
X155358485Y-79998704D01*
X155392650Y-79991908D01*
X155392653Y-79991905D01*
X155402543Y-79987810D01*
X155450000Y-79982705D01*
X155450000Y-80700000D01*
X156300000Y-80700000D01*
X156300000Y-80005500D01*
X156324322Y-80005500D01*
X156358485Y-79998704D01*
X156392650Y-79991908D01*
X156392653Y-79991905D01*
X156402543Y-79987810D01*
X156472012Y-79980338D01*
X156497457Y-79987810D01*
X156507348Y-79991906D01*
X156507350Y-79991908D01*
X156524432Y-79995306D01*
X156575677Y-80005500D01*
X156575680Y-80005500D01*
X156824322Y-80005500D01*
X156858485Y-79998704D01*
X156892650Y-79991908D01*
X156892653Y-79991905D01*
X156902543Y-79987810D01*
X156972012Y-79980338D01*
X156997457Y-79987810D01*
X157007348Y-79991906D01*
X157007350Y-79991908D01*
X157024432Y-79995306D01*
X157075677Y-80005500D01*
X157075680Y-80005500D01*
X157324322Y-80005500D01*
X157358485Y-79998704D01*
X157392650Y-79991908D01*
X157392653Y-79991905D01*
X157402543Y-79987810D01*
X157472012Y-79980338D01*
X157497457Y-79987810D01*
G37*
%TD.AperFunction*%
%TA.AperFunction,Conductor*%
G36*
X124671749Y-78268289D02*
G01*
X124717504Y-78321093D01*
X124727183Y-78353207D01*
X124740279Y-78435898D01*
X124740280Y-78435901D01*
X124740281Y-78435903D01*
X124801472Y-78555997D01*
X124801473Y-78555998D01*
X124801476Y-78556002D01*
X124891134Y-78645660D01*
X124924619Y-78706983D01*
X124919635Y-78776675D01*
X124877763Y-78832608D01*
X124835549Y-78853115D01*
X124791875Y-78864818D01*
X124791872Y-78864819D01*
X124722089Y-78905108D01*
X124722086Y-78905110D01*
X124463590Y-79163607D01*
X124402267Y-79197092D01*
X124375909Y-79199926D01*
X124067597Y-79199926D01*
X124035504Y-79195701D01*
X124013119Y-79189703D01*
X123995291Y-79184926D01*
X122960273Y-79184926D01*
X122879691Y-79184926D01*
X122823435Y-79200000D01*
X122801855Y-79205782D01*
X122732070Y-79246072D01*
X122725922Y-79250790D01*
X122660752Y-79275981D01*
X122631043Y-79274885D01*
X122568499Y-79264979D01*
X122541509Y-79260705D01*
X122541508Y-79260705D01*
X122541507Y-79260705D01*
X122408387Y-79281788D01*
X122408383Y-79281789D01*
X122408383Y-79281790D01*
X122393997Y-79289120D01*
X122288287Y-79342982D01*
X122288283Y-79342985D01*
X122192985Y-79438283D01*
X122192981Y-79438288D01*
X122173670Y-79476188D01*
X122126145Y-79526504D01*
X122130823Y-79564484D01*
X122120906Y-79627101D01*
X122110900Y-79690281D01*
X122110705Y-79691511D01*
X122131788Y-79824630D01*
X122131789Y-79824633D01*
X122131790Y-79824635D01*
X122192981Y-79944729D01*
X122192982Y-79944730D01*
X122192985Y-79944734D01*
X122288283Y-80040032D01*
X122288287Y-80040035D01*
X122288289Y-80040037D01*
X122408383Y-80101228D01*
X122440594Y-80106329D01*
X122503728Y-80136258D01*
X122540660Y-80195570D01*
X122543669Y-80209404D01*
X122548770Y-80241614D01*
X122558906Y-80261506D01*
X122609963Y-80361711D01*
X122609965Y-80361713D01*
X122609967Y-80361716D01*
X122676785Y-80428534D01*
X122710270Y-80489857D01*
X122705286Y-80559549D01*
X122663414Y-80615482D01*
X122645404Y-80626696D01*
X122596780Y-80651472D01*
X122596779Y-80651473D01*
X122596774Y-80651476D01*
X122501476Y-80746774D01*
X122501473Y-80746778D01*
X122501472Y-80746780D01*
X122458815Y-80830500D01*
X122440279Y-80866878D01*
X122419196Y-80999997D01*
X122419196Y-81000002D01*
X122440279Y-81133121D01*
X122440280Y-81133124D01*
X122440281Y-81133126D01*
X122469182Y-81189848D01*
X122482078Y-81258516D01*
X122455802Y-81323256D01*
X122398695Y-81363513D01*
X122393398Y-81365187D01*
X122390512Y-81366028D01*
X122281683Y-81416776D01*
X122196776Y-81501683D01*
X122146027Y-81610514D01*
X122141127Y-81647739D01*
X122139500Y-81660099D01*
X122139500Y-81833231D01*
X122139501Y-81899299D01*
X122119817Y-81966339D01*
X122067013Y-82012094D01*
X122015501Y-82023300D01*
X121840798Y-82023300D01*
X121788393Y-82011682D01*
X121785183Y-82010185D01*
X121733173Y-81985932D01*
X121733171Y-81985931D01*
X121733172Y-81985931D01*
X121684317Y-81979500D01*
X121684316Y-81979500D01*
X121335684Y-81979500D01*
X121335683Y-81979500D01*
X121286828Y-81985931D01*
X121179595Y-82035935D01*
X121128381Y-82087150D01*
X121067058Y-82120635D01*
X120997366Y-82115651D01*
X120941433Y-82073779D01*
X120917016Y-82008315D01*
X120916700Y-81999469D01*
X120916700Y-81674500D01*
X120936385Y-81607461D01*
X120989189Y-81561706D01*
X121040700Y-81550500D01*
X121633261Y-81550500D01*
X121663500Y-81546094D01*
X121701393Y-81540573D01*
X121806483Y-81489198D01*
X121889198Y-81406483D01*
X121940573Y-81301393D01*
X121950500Y-81233260D01*
X121950500Y-80866740D01*
X121950038Y-80863572D01*
X121940573Y-80798608D01*
X121940573Y-80798607D01*
X121889198Y-80693517D01*
X121889196Y-80693515D01*
X121889196Y-80693514D01*
X121806485Y-80610803D01*
X121701391Y-80559426D01*
X121633261Y-80549500D01*
X121633260Y-80549500D01*
X120541740Y-80549500D01*
X120541739Y-80549500D01*
X120473608Y-80559426D01*
X120359286Y-80615315D01*
X120358092Y-80612874D01*
X120306737Y-80630712D01*
X120238819Y-80614315D01*
X120190547Y-80563801D01*
X120176700Y-80506859D01*
X120176700Y-79693140D01*
X120196385Y-79626101D01*
X120249189Y-79580346D01*
X120318347Y-79570402D01*
X120358412Y-79586471D01*
X120359286Y-79584685D01*
X120368516Y-79589197D01*
X120368517Y-79589198D01*
X120473607Y-79640573D01*
X120496277Y-79643876D01*
X120541739Y-79650500D01*
X120541740Y-79650500D01*
X120689305Y-79650500D01*
X120756344Y-79670185D01*
X120781730Y-79694158D01*
X120782072Y-79693817D01*
X120788971Y-79700716D01*
X120788972Y-79700718D01*
X120884280Y-79796026D01*
X121004374Y-79857217D01*
X121004376Y-79857217D01*
X121004378Y-79857218D01*
X121137498Y-79878302D01*
X121137500Y-79878302D01*
X121137502Y-79878302D01*
X121270621Y-79857218D01*
X121270621Y-79857217D01*
X121270626Y-79857217D01*
X121390720Y-79796026D01*
X121486028Y-79700718D01*
X121486029Y-79700715D01*
X121492928Y-79693817D01*
X121494041Y-79694930D01*
X121540714Y-79658946D01*
X121585695Y-79650500D01*
X121633261Y-79650500D01*
X121657948Y-79646903D01*
X121701393Y-79640573D01*
X121806483Y-79589198D01*
X121889198Y-79506483D01*
X121896949Y-79490627D01*
X121944072Y-79439047D01*
X121944935Y-79438817D01*
X121940482Y-79402012D01*
X121940571Y-79401395D01*
X121940573Y-79401393D01*
X121950500Y-79333260D01*
X121950500Y-78966740D01*
X121941520Y-78905110D01*
X121940573Y-78898607D01*
X121916093Y-78848532D01*
X121904333Y-78779659D01*
X121931677Y-78715361D01*
X121989441Y-78676054D01*
X121995402Y-78674296D01*
X122036735Y-78663221D01*
X122056803Y-78657844D01*
X122056804Y-78657844D01*
X122093895Y-78636428D01*
X122119898Y-78621415D01*
X122456390Y-78284923D01*
X122517713Y-78251438D01*
X122544071Y-78248604D01*
X124604710Y-78248604D01*
X124671749Y-78268289D01*
G37*
%TD.AperFunction*%
%TA.AperFunction,Conductor*%
G36*
X124442948Y-80169759D02*
G01*
X124463590Y-80186393D01*
X124665108Y-80387911D01*
X124722088Y-80444891D01*
X124791873Y-80485181D01*
X124869708Y-80506037D01*
X124869711Y-80506037D01*
X124877768Y-80507098D01*
X124877325Y-80510460D01*
X124929300Y-80525722D01*
X124969456Y-80571695D01*
X124969712Y-80571517D01*
X124971376Y-80573894D01*
X124974643Y-80577634D01*
X124975935Y-80580404D01*
X125059596Y-80664065D01*
X125166827Y-80714068D01*
X125215683Y-80720500D01*
X125215684Y-80720500D01*
X125564317Y-80720500D01*
X125581566Y-80718229D01*
X125613173Y-80714068D01*
X125720404Y-80664065D01*
X125804065Y-80580404D01*
X125804065Y-80580403D01*
X125811736Y-80572733D01*
X125814564Y-80575561D01*
X125852977Y-80544843D01*
X125922474Y-80537635D01*
X125984835Y-80569143D01*
X125988093Y-80572903D01*
X125988264Y-80572733D01*
X126039314Y-80623783D01*
X126072799Y-80685106D01*
X126067815Y-80754798D01*
X126039315Y-80799145D01*
X125956775Y-80881685D01*
X125906027Y-80990514D01*
X125899500Y-81040097D01*
X125899500Y-81462520D01*
X125879815Y-81529559D01*
X125827011Y-81575314D01*
X125807597Y-81582294D01*
X125801397Y-81583955D01*
X125738305Y-81620383D01*
X125738302Y-81620385D01*
X125681772Y-81676914D01*
X125620448Y-81710398D01*
X125550757Y-81705412D01*
X125506410Y-81676911D01*
X125457873Y-81628373D01*
X125457870Y-81628371D01*
X125457869Y-81628370D01*
X125337775Y-81567179D01*
X125337773Y-81567178D01*
X125337770Y-81567177D01*
X125204651Y-81546094D01*
X125204647Y-81546094D01*
X125071527Y-81567177D01*
X124951427Y-81628371D01*
X124951423Y-81628374D01*
X124856125Y-81723672D01*
X124856121Y-81723677D01*
X124828760Y-81777376D01*
X124780785Y-81828171D01*
X124736091Y-81842649D01*
X124736223Y-81843312D01*
X124730580Y-81844434D01*
X124730436Y-81844481D01*
X124730256Y-81844498D01*
X124701831Y-81850152D01*
X124632239Y-81843923D01*
X124577063Y-81801058D01*
X124560503Y-81768415D01*
X124559719Y-81766877D01*
X124559719Y-81766874D01*
X124498528Y-81646780D01*
X124498526Y-81646778D01*
X124498523Y-81646774D01*
X124403225Y-81551476D01*
X124403221Y-81551473D01*
X124403220Y-81551472D01*
X124283126Y-81490281D01*
X124283124Y-81490280D01*
X124283121Y-81490279D01*
X124150002Y-81469196D01*
X124149998Y-81469196D01*
X124016877Y-81490279D01*
X124013363Y-81492070D01*
X124006991Y-81495316D01*
X123938323Y-81508211D01*
X123873583Y-81481933D01*
X123833327Y-81424826D01*
X123826700Y-81384830D01*
X123826700Y-81365985D01*
X123846385Y-81298946D01*
X123863019Y-81278304D01*
X123874588Y-81266735D01*
X123935911Y-81233250D01*
X123942872Y-81231943D01*
X124083121Y-81209730D01*
X124083121Y-81209729D01*
X124083126Y-81209729D01*
X124203220Y-81148538D01*
X124298528Y-81053230D01*
X124359719Y-80933136D01*
X124361004Y-80925021D01*
X124380804Y-80800012D01*
X124380804Y-80800007D01*
X124359720Y-80666888D01*
X124359719Y-80666886D01*
X124359719Y-80666884D01*
X124298528Y-80546790D01*
X124298526Y-80546788D01*
X124298523Y-80546784D01*
X124203225Y-80451486D01*
X124203221Y-80451483D01*
X124203220Y-80451482D01*
X124083126Y-80390291D01*
X124083123Y-80390290D01*
X124074430Y-80385861D01*
X124075717Y-80383333D01*
X124030724Y-80352567D01*
X124003526Y-80288208D01*
X124015441Y-80219361D01*
X124062686Y-80167886D01*
X124126718Y-80150074D01*
X124375909Y-80150074D01*
X124442948Y-80169759D01*
G37*
%TD.AperFunction*%
%TA.AperFunction,Conductor*%
G36*
X118178958Y-79630967D02*
G01*
X118198607Y-79640573D01*
X118221277Y-79643876D01*
X118266739Y-79650500D01*
X118266740Y-79650500D01*
X119358261Y-79650500D01*
X119377258Y-79647732D01*
X119426393Y-79640573D01*
X119444840Y-79631554D01*
X119513710Y-79619795D01*
X119578008Y-79647137D01*
X119617316Y-79704901D01*
X119623300Y-79742955D01*
X119623300Y-80457044D01*
X119603615Y-80524083D01*
X119550811Y-80569838D01*
X119481653Y-80579782D01*
X119444841Y-80568445D01*
X119426393Y-80559426D01*
X119358261Y-80549500D01*
X119358260Y-80549500D01*
X118266740Y-80549500D01*
X118266739Y-80549500D01*
X118198607Y-80559426D01*
X118198605Y-80559427D01*
X118178957Y-80569032D01*
X118110084Y-80580789D01*
X118045787Y-80553444D01*
X118006482Y-80495679D01*
X118000500Y-80457630D01*
X118000500Y-79742369D01*
X118020185Y-79675330D01*
X118072989Y-79629575D01*
X118142147Y-79619631D01*
X118178958Y-79630967D01*
G37*
%TD.AperFunction*%
%TA.AperFunction,Conductor*%
G36*
X160182961Y-78969685D02*
G01*
X160218766Y-79010674D01*
X160220550Y-79009425D01*
X160226776Y-79018316D01*
X160264281Y-79055821D01*
X160297766Y-79117144D01*
X160300600Y-79143502D01*
X160300600Y-79432855D01*
X160280915Y-79499894D01*
X160228111Y-79545649D01*
X160158953Y-79555593D01*
X160095397Y-79526568D01*
X160064219Y-79485261D01*
X160053225Y-79461685D01*
X159968316Y-79376776D01*
X159859487Y-79326028D01*
X159859485Y-79326027D01*
X159859486Y-79326027D01*
X159809901Y-79319500D01*
X159390105Y-79319500D01*
X159374386Y-79321569D01*
X159340513Y-79326028D01*
X159340511Y-79326029D01*
X159340509Y-79326029D01*
X159231683Y-79376776D01*
X159146776Y-79461683D01*
X159096027Y-79570514D01*
X159089500Y-79620098D01*
X159089500Y-79686600D01*
X159069815Y-79753639D01*
X159017011Y-79799394D01*
X158965500Y-79810600D01*
X158948916Y-79810600D01*
X158881877Y-79790915D01*
X158880061Y-79789725D01*
X158862650Y-79778092D01*
X158862648Y-79778091D01*
X158862646Y-79778090D01*
X158794322Y-79764500D01*
X158794320Y-79764500D01*
X158159500Y-79764500D01*
X158092461Y-79744815D01*
X158046706Y-79692011D01*
X158035500Y-79640500D01*
X158035500Y-79602373D01*
X158048672Y-79553227D01*
X158046449Y-79552307D01*
X158049556Y-79544800D01*
X158049561Y-79544793D01*
X158075125Y-79449386D01*
X158075125Y-79256742D01*
X158094810Y-79189703D01*
X158111444Y-79169061D01*
X158294186Y-78986319D01*
X158355509Y-78952834D01*
X158381867Y-78950000D01*
X160115922Y-78950000D01*
X160182961Y-78969685D01*
G37*
%TD.AperFunction*%
%TA.AperFunction,Conductor*%
G36*
X130988428Y-75847185D02*
G01*
X131034183Y-75899989D01*
X131044127Y-75969147D01*
X131015102Y-76032703D01*
X131009070Y-76039181D01*
X131001476Y-76046774D01*
X131001473Y-76046778D01*
X131001472Y-76046780D01*
X130948304Y-76151129D01*
X130940279Y-76166878D01*
X130919196Y-76299997D01*
X130921080Y-76311893D01*
X130912124Y-76381186D01*
X130867127Y-76434638D01*
X130800376Y-76455277D01*
X130779209Y-76453763D01*
X130650000Y-76433299D01*
X130649995Y-76433299D01*
X130516875Y-76454382D01*
X130396775Y-76515576D01*
X130396771Y-76515579D01*
X130301473Y-76610877D01*
X130301470Y-76610882D01*
X130301469Y-76610883D01*
X130294048Y-76625448D01*
X130240276Y-76730979D01*
X130237261Y-76740261D01*
X130235478Y-76739681D01*
X130210682Y-76791982D01*
X130151369Y-76828910D01*
X130142334Y-76831062D01*
X130102259Y-76839033D01*
X130097452Y-76841025D01*
X130027983Y-76848494D01*
X130002548Y-76841025D01*
X129997740Y-76839033D01*
X129924676Y-76824500D01*
X129924674Y-76824500D01*
X129775326Y-76824500D01*
X129775324Y-76824500D01*
X129702259Y-76839033D01*
X129697452Y-76841025D01*
X129627983Y-76848494D01*
X129602548Y-76841025D01*
X129597740Y-76839033D01*
X129524676Y-76824500D01*
X129524674Y-76824500D01*
X129375326Y-76824500D01*
X129375324Y-76824500D01*
X129302259Y-76839033D01*
X129297452Y-76841025D01*
X129227983Y-76848494D01*
X129202548Y-76841025D01*
X129197740Y-76839033D01*
X129124676Y-76824500D01*
X129124674Y-76824500D01*
X128975326Y-76824500D01*
X128975323Y-76824500D01*
X128902264Y-76839032D01*
X128902260Y-76839033D01*
X128819399Y-76894399D01*
X128764033Y-76977260D01*
X128764032Y-76977264D01*
X128749500Y-77050321D01*
X128749500Y-77875500D01*
X128729815Y-77942539D01*
X128677011Y-77988294D01*
X128625500Y-77999500D01*
X128564569Y-77999500D01*
X128497530Y-77979815D01*
X128457182Y-77937500D01*
X128444080Y-77914807D01*
X128444076Y-77914802D01*
X128207031Y-77677757D01*
X128173546Y-77616434D01*
X128178530Y-77546742D01*
X128207030Y-77502396D01*
X128284167Y-77425260D01*
X128345358Y-77305166D01*
X128345666Y-77303225D01*
X128364192Y-77186253D01*
X128394121Y-77123118D01*
X128398989Y-77117964D01*
X128400007Y-77116946D01*
X128401578Y-77115375D01*
X128439678Y-77049383D01*
X128441741Y-77041683D01*
X128453583Y-76997488D01*
X128453583Y-76997486D01*
X128459400Y-76975779D01*
X128459400Y-76852026D01*
X128479085Y-76784987D01*
X128501457Y-76761709D01*
X128500644Y-76760896D01*
X128523627Y-76737913D01*
X128593224Y-76668316D01*
X128643972Y-76559487D01*
X128650500Y-76509901D01*
X128650499Y-76090100D01*
X128643972Y-76040513D01*
X128626900Y-76003903D01*
X128616409Y-75934829D01*
X128644928Y-75871044D01*
X128703404Y-75832804D01*
X128739283Y-75827500D01*
X130921389Y-75827500D01*
X130988428Y-75847185D01*
G37*
%TD.AperFunction*%
%TA.AperFunction,Conductor*%
G36*
X127667756Y-75847185D02*
G01*
X127713511Y-75899989D01*
X127723455Y-75969147D01*
X127713099Y-76003902D01*
X127712379Y-76005448D01*
X127696027Y-76040514D01*
X127689500Y-76090098D01*
X127689500Y-76509894D01*
X127690772Y-76519560D01*
X127696028Y-76559487D01*
X127696029Y-76559489D01*
X127696029Y-76559490D01*
X127742289Y-76658694D01*
X127752781Y-76727772D01*
X127724261Y-76791556D01*
X127686210Y-76821580D01*
X127682421Y-76823510D01*
X127682413Y-76823516D01*
X127587108Y-76918821D01*
X127583537Y-76923737D01*
X127528206Y-76966401D01*
X127458592Y-76972377D01*
X127428944Y-76959652D01*
X127428148Y-76961361D01*
X127418316Y-76956776D01*
X127309487Y-76906028D01*
X127309485Y-76906027D01*
X127309486Y-76906027D01*
X127259901Y-76899500D01*
X126840105Y-76899500D01*
X126824386Y-76901569D01*
X126790513Y-76906028D01*
X126790511Y-76906029D01*
X126790509Y-76906029D01*
X126681683Y-76956776D01*
X126596776Y-77041683D01*
X126546027Y-77150514D01*
X126539500Y-77200097D01*
X126539500Y-77559902D01*
X126540044Y-77564031D01*
X126529270Y-77633065D01*
X126482883Y-77685315D01*
X126415612Y-77704192D01*
X126348814Y-77683703D01*
X126329422Y-77667882D01*
X126318316Y-77656776D01*
X126279172Y-77638523D01*
X126209487Y-77606028D01*
X126209485Y-77606027D01*
X126209486Y-77606027D01*
X126159901Y-77599500D01*
X125740105Y-77599500D01*
X125727701Y-77601133D01*
X125690513Y-77606028D01*
X125690511Y-77606029D01*
X125690509Y-77606029D01*
X125581683Y-77656776D01*
X125496776Y-77741683D01*
X125452990Y-77835583D01*
X125406817Y-77888022D01*
X125339624Y-77907174D01*
X125292531Y-77895671D01*
X125292402Y-77896072D01*
X125287053Y-77894333D01*
X125284319Y-77893666D01*
X125283123Y-77893056D01*
X125142870Y-77870843D01*
X125079735Y-77840914D01*
X125074604Y-77836068D01*
X124989025Y-77750489D01*
X124989024Y-77750488D01*
X124989019Y-77750485D01*
X124925931Y-77714059D01*
X124855560Y-77695204D01*
X124855555Y-77695204D01*
X122414524Y-77695204D01*
X122341668Y-77695204D01*
X122341664Y-77695204D01*
X122338077Y-77695676D01*
X122335052Y-77695204D01*
X122333541Y-77695204D01*
X122333541Y-77694968D01*
X122269042Y-77684906D01*
X122216789Y-77638523D01*
X122197908Y-77571253D01*
X122218393Y-77504454D01*
X122234215Y-77485057D01*
X122542455Y-77176819D01*
X122603778Y-77143334D01*
X122630136Y-77140500D01*
X122989750Y-77140500D01*
X122989751Y-77140499D01*
X123012698Y-77135935D01*
X123048229Y-77128868D01*
X123048229Y-77128867D01*
X123048231Y-77128867D01*
X123114552Y-77084552D01*
X123114551Y-77084552D01*
X123124707Y-77077767D01*
X123125810Y-77079418D01*
X123173642Y-77053301D01*
X123243334Y-77058285D01*
X123274798Y-77078506D01*
X123275293Y-77077767D01*
X123351769Y-77128867D01*
X123351770Y-77128868D01*
X123410247Y-77140499D01*
X123410250Y-77140500D01*
X123410252Y-77140500D01*
X124049750Y-77140500D01*
X124049751Y-77140499D01*
X124072698Y-77135935D01*
X124108229Y-77128868D01*
X124108229Y-77128867D01*
X124108231Y-77128867D01*
X124174552Y-77084552D01*
X124191802Y-77058736D01*
X124245414Y-77013931D01*
X124314739Y-77005224D01*
X124351195Y-77017140D01*
X124416900Y-77050619D01*
X124416902Y-77050619D01*
X124416904Y-77050620D01*
X124550024Y-77071704D01*
X124550026Y-77071704D01*
X124550028Y-77071704D01*
X124683149Y-77050620D01*
X124683150Y-77050619D01*
X124683152Y-77050619D01*
X124778337Y-77002120D01*
X124801606Y-76990264D01*
X124857900Y-76976749D01*
X125159895Y-76976749D01*
X125159900Y-76976749D01*
X125209487Y-76970222D01*
X125318316Y-76919474D01*
X125403224Y-76834566D01*
X125422178Y-76793918D01*
X125446875Y-76758646D01*
X125531578Y-76673946D01*
X125569678Y-76607954D01*
X125589400Y-76534349D01*
X125589400Y-76458150D01*
X125569678Y-76384545D01*
X125531578Y-76318554D01*
X125477696Y-76264672D01*
X125477693Y-76264670D01*
X125471247Y-76259724D01*
X125472030Y-76258703D01*
X125429539Y-76214138D01*
X125427392Y-76209763D01*
X125403224Y-76157934D01*
X125318316Y-76073026D01*
X125298705Y-76063881D01*
X125246267Y-76017710D01*
X125227115Y-75950516D01*
X125247331Y-75883635D01*
X125300496Y-75838301D01*
X125351111Y-75827500D01*
X127600717Y-75827500D01*
X127667756Y-75847185D01*
G37*
%TD.AperFunction*%
%TD*%
M02*
