%TF.GenerationSoftware,KiCad,Pcbnew,8.0.1*%
%TF.CreationDate,2024-08-20T12:32:33+02:00*%
%TF.ProjectId,ESP32_PICO_LED,45535033-325f-4504-9943-4f5f4c45442e,rev?*%
%TF.SameCoordinates,Original*%
%TF.FileFunction,Legend,Top*%
%TF.FilePolarity,Positive*%
%FSLAX46Y46*%
G04 Gerber Fmt 4.6, Leading zero omitted, Abs format (unit mm)*
G04 Created by KiCad (PCBNEW 8.0.1) date 2024-08-20 12:32:33*
%MOMM*%
%LPD*%
G01*
G04 APERTURE LIST*
%ADD10C,0.090000*%
%ADD11C,0.120000*%
%ADD12C,0.100000*%
%ADD13C,0.250000*%
%ADD14C,0.127000*%
%ADD15C,0.200000*%
%ADD16C,0.300000*%
G04 APERTURE END LIST*
D10*
X113722224Y-82905075D02*
X113746034Y-82833647D01*
X113746034Y-82833647D02*
X113769843Y-82809837D01*
X113769843Y-82809837D02*
X113817462Y-82786028D01*
X113817462Y-82786028D02*
X113888891Y-82786028D01*
X113888891Y-82786028D02*
X113936510Y-82809837D01*
X113936510Y-82809837D02*
X113960320Y-82833647D01*
X113960320Y-82833647D02*
X113984129Y-82881266D01*
X113984129Y-82881266D02*
X113984129Y-83071742D01*
X113984129Y-83071742D02*
X113484129Y-83071742D01*
X113484129Y-83071742D02*
X113484129Y-82905075D01*
X113484129Y-82905075D02*
X113507939Y-82857456D01*
X113507939Y-82857456D02*
X113531748Y-82833647D01*
X113531748Y-82833647D02*
X113579367Y-82809837D01*
X113579367Y-82809837D02*
X113626986Y-82809837D01*
X113626986Y-82809837D02*
X113674605Y-82833647D01*
X113674605Y-82833647D02*
X113698415Y-82857456D01*
X113698415Y-82857456D02*
X113722224Y-82905075D01*
X113722224Y-82905075D02*
X113722224Y-83071742D01*
X113484129Y-82643170D02*
X113484129Y-82357456D01*
X113984129Y-82500313D02*
X113484129Y-82500313D01*
X113984129Y-82190790D02*
X113484129Y-82190790D01*
X113484129Y-82190790D02*
X113984129Y-81905076D01*
X113984129Y-81905076D02*
X113484129Y-81905076D01*
X166463971Y-80684129D02*
X166297305Y-80446034D01*
X166178257Y-80684129D02*
X166178257Y-80184129D01*
X166178257Y-80184129D02*
X166368733Y-80184129D01*
X166368733Y-80184129D02*
X166416352Y-80207939D01*
X166416352Y-80207939D02*
X166440162Y-80231748D01*
X166440162Y-80231748D02*
X166463971Y-80279367D01*
X166463971Y-80279367D02*
X166463971Y-80350796D01*
X166463971Y-80350796D02*
X166440162Y-80398415D01*
X166440162Y-80398415D02*
X166416352Y-80422224D01*
X166416352Y-80422224D02*
X166368733Y-80446034D01*
X166368733Y-80446034D02*
X166178257Y-80446034D01*
X166654448Y-80660320D02*
X166725876Y-80684129D01*
X166725876Y-80684129D02*
X166844924Y-80684129D01*
X166844924Y-80684129D02*
X166892543Y-80660320D01*
X166892543Y-80660320D02*
X166916352Y-80636510D01*
X166916352Y-80636510D02*
X166940162Y-80588891D01*
X166940162Y-80588891D02*
X166940162Y-80541272D01*
X166940162Y-80541272D02*
X166916352Y-80493653D01*
X166916352Y-80493653D02*
X166892543Y-80469843D01*
X166892543Y-80469843D02*
X166844924Y-80446034D01*
X166844924Y-80446034D02*
X166749686Y-80422224D01*
X166749686Y-80422224D02*
X166702067Y-80398415D01*
X166702067Y-80398415D02*
X166678257Y-80374605D01*
X166678257Y-80374605D02*
X166654448Y-80326986D01*
X166654448Y-80326986D02*
X166654448Y-80279367D01*
X166654448Y-80279367D02*
X166678257Y-80231748D01*
X166678257Y-80231748D02*
X166702067Y-80207939D01*
X166702067Y-80207939D02*
X166749686Y-80184129D01*
X166749686Y-80184129D02*
X166868733Y-80184129D01*
X166868733Y-80184129D02*
X166940162Y-80207939D01*
X167083019Y-80184129D02*
X167368733Y-80184129D01*
X167225876Y-80684129D02*
X167225876Y-80184129D01*
X166294924Y-81322224D02*
X166366352Y-81346034D01*
X166366352Y-81346034D02*
X166390162Y-81369843D01*
X166390162Y-81369843D02*
X166413971Y-81417462D01*
X166413971Y-81417462D02*
X166413971Y-81488891D01*
X166413971Y-81488891D02*
X166390162Y-81536510D01*
X166390162Y-81536510D02*
X166366352Y-81560320D01*
X166366352Y-81560320D02*
X166318733Y-81584129D01*
X166318733Y-81584129D02*
X166128257Y-81584129D01*
X166128257Y-81584129D02*
X166128257Y-81084129D01*
X166128257Y-81084129D02*
X166294924Y-81084129D01*
X166294924Y-81084129D02*
X166342543Y-81107939D01*
X166342543Y-81107939D02*
X166366352Y-81131748D01*
X166366352Y-81131748D02*
X166390162Y-81179367D01*
X166390162Y-81179367D02*
X166390162Y-81226986D01*
X166390162Y-81226986D02*
X166366352Y-81274605D01*
X166366352Y-81274605D02*
X166342543Y-81298415D01*
X166342543Y-81298415D02*
X166294924Y-81322224D01*
X166294924Y-81322224D02*
X166128257Y-81322224D01*
X166723495Y-81084129D02*
X166818733Y-81084129D01*
X166818733Y-81084129D02*
X166866352Y-81107939D01*
X166866352Y-81107939D02*
X166913971Y-81155558D01*
X166913971Y-81155558D02*
X166937781Y-81250796D01*
X166937781Y-81250796D02*
X166937781Y-81417462D01*
X166937781Y-81417462D02*
X166913971Y-81512700D01*
X166913971Y-81512700D02*
X166866352Y-81560320D01*
X166866352Y-81560320D02*
X166818733Y-81584129D01*
X166818733Y-81584129D02*
X166723495Y-81584129D01*
X166723495Y-81584129D02*
X166675876Y-81560320D01*
X166675876Y-81560320D02*
X166628257Y-81512700D01*
X166628257Y-81512700D02*
X166604448Y-81417462D01*
X166604448Y-81417462D02*
X166604448Y-81250796D01*
X166604448Y-81250796D02*
X166628257Y-81155558D01*
X166628257Y-81155558D02*
X166675876Y-81107939D01*
X166675876Y-81107939D02*
X166723495Y-81084129D01*
X167247305Y-81084129D02*
X167342543Y-81084129D01*
X167342543Y-81084129D02*
X167390162Y-81107939D01*
X167390162Y-81107939D02*
X167437781Y-81155558D01*
X167437781Y-81155558D02*
X167461591Y-81250796D01*
X167461591Y-81250796D02*
X167461591Y-81417462D01*
X167461591Y-81417462D02*
X167437781Y-81512700D01*
X167437781Y-81512700D02*
X167390162Y-81560320D01*
X167390162Y-81560320D02*
X167342543Y-81584129D01*
X167342543Y-81584129D02*
X167247305Y-81584129D01*
X167247305Y-81584129D02*
X167199686Y-81560320D01*
X167199686Y-81560320D02*
X167152067Y-81512700D01*
X167152067Y-81512700D02*
X167128258Y-81417462D01*
X167128258Y-81417462D02*
X167128258Y-81250796D01*
X167128258Y-81250796D02*
X167152067Y-81155558D01*
X167152067Y-81155558D02*
X167199686Y-81107939D01*
X167199686Y-81107939D02*
X167247305Y-81084129D01*
X167604449Y-81084129D02*
X167890163Y-81084129D01*
X167747306Y-81584129D02*
X167747306Y-81084129D01*
X167328257Y-76384129D02*
X167328257Y-75884129D01*
X167328257Y-75884129D02*
X167518733Y-75884129D01*
X167518733Y-75884129D02*
X167566352Y-75907939D01*
X167566352Y-75907939D02*
X167590162Y-75931748D01*
X167590162Y-75931748D02*
X167613971Y-75979367D01*
X167613971Y-75979367D02*
X167613971Y-76050796D01*
X167613971Y-76050796D02*
X167590162Y-76098415D01*
X167590162Y-76098415D02*
X167566352Y-76122224D01*
X167566352Y-76122224D02*
X167518733Y-76146034D01*
X167518733Y-76146034D02*
X167328257Y-76146034D01*
X167780638Y-75884129D02*
X167899686Y-76384129D01*
X167899686Y-76384129D02*
X167994924Y-76026986D01*
X167994924Y-76026986D02*
X168090162Y-76384129D01*
X168090162Y-76384129D02*
X168209210Y-75884129D01*
X168685400Y-76384129D02*
X168518734Y-76146034D01*
X168399686Y-76384129D02*
X168399686Y-75884129D01*
X168399686Y-75884129D02*
X168590162Y-75884129D01*
X168590162Y-75884129D02*
X168637781Y-75907939D01*
X168637781Y-75907939D02*
X168661591Y-75931748D01*
X168661591Y-75931748D02*
X168685400Y-75979367D01*
X168685400Y-75979367D02*
X168685400Y-76050796D01*
X168685400Y-76050796D02*
X168661591Y-76098415D01*
X168661591Y-76098415D02*
X168637781Y-76122224D01*
X168637781Y-76122224D02*
X168590162Y-76146034D01*
X168590162Y-76146034D02*
X168399686Y-76146034D01*
X113984129Y-79686028D02*
X113746034Y-79852694D01*
X113984129Y-79971742D02*
X113484129Y-79971742D01*
X113484129Y-79971742D02*
X113484129Y-79781266D01*
X113484129Y-79781266D02*
X113507939Y-79733647D01*
X113507939Y-79733647D02*
X113531748Y-79709837D01*
X113531748Y-79709837D02*
X113579367Y-79686028D01*
X113579367Y-79686028D02*
X113650796Y-79686028D01*
X113650796Y-79686028D02*
X113698415Y-79709837D01*
X113698415Y-79709837D02*
X113722224Y-79733647D01*
X113722224Y-79733647D02*
X113746034Y-79781266D01*
X113746034Y-79781266D02*
X113746034Y-79971742D01*
X113484129Y-79471742D02*
X113888891Y-79471742D01*
X113888891Y-79471742D02*
X113936510Y-79447932D01*
X113936510Y-79447932D02*
X113960320Y-79424123D01*
X113960320Y-79424123D02*
X113984129Y-79376504D01*
X113984129Y-79376504D02*
X113984129Y-79281266D01*
X113984129Y-79281266D02*
X113960320Y-79233647D01*
X113960320Y-79233647D02*
X113936510Y-79209837D01*
X113936510Y-79209837D02*
X113888891Y-79186028D01*
X113888891Y-79186028D02*
X113484129Y-79186028D01*
X113984129Y-78947932D02*
X113484129Y-78947932D01*
X113484129Y-78947932D02*
X113984129Y-78662218D01*
X113984129Y-78662218D02*
X113484129Y-78662218D01*
X163638534Y-81178094D02*
X163876629Y-81178094D01*
X163376629Y-81344760D02*
X163638534Y-81178094D01*
X163638534Y-81178094D02*
X163376629Y-81011427D01*
X163424248Y-80868570D02*
X163400439Y-80844761D01*
X163400439Y-80844761D02*
X163376629Y-80797142D01*
X163376629Y-80797142D02*
X163376629Y-80678094D01*
X163376629Y-80678094D02*
X163400439Y-80630475D01*
X163400439Y-80630475D02*
X163424248Y-80606666D01*
X163424248Y-80606666D02*
X163471867Y-80582856D01*
X163471867Y-80582856D02*
X163519486Y-80582856D01*
X163519486Y-80582856D02*
X163590915Y-80606666D01*
X163590915Y-80606666D02*
X163876629Y-80892380D01*
X163876629Y-80892380D02*
X163876629Y-80582856D01*
X115752820Y-79066665D02*
X115776629Y-78995237D01*
X115776629Y-78995237D02*
X115776629Y-78876189D01*
X115776629Y-78876189D02*
X115752820Y-78828570D01*
X115752820Y-78828570D02*
X115729010Y-78804761D01*
X115729010Y-78804761D02*
X115681391Y-78780951D01*
X115681391Y-78780951D02*
X115633772Y-78780951D01*
X115633772Y-78780951D02*
X115586153Y-78804761D01*
X115586153Y-78804761D02*
X115562343Y-78828570D01*
X115562343Y-78828570D02*
X115538534Y-78876189D01*
X115538534Y-78876189D02*
X115514724Y-78971427D01*
X115514724Y-78971427D02*
X115490915Y-79019046D01*
X115490915Y-79019046D02*
X115467105Y-79042856D01*
X115467105Y-79042856D02*
X115419486Y-79066665D01*
X115419486Y-79066665D02*
X115371867Y-79066665D01*
X115371867Y-79066665D02*
X115324248Y-79042856D01*
X115324248Y-79042856D02*
X115300439Y-79019046D01*
X115300439Y-79019046D02*
X115276629Y-78971427D01*
X115276629Y-78971427D02*
X115276629Y-78852380D01*
X115276629Y-78852380D02*
X115300439Y-78780951D01*
X115276629Y-78614285D02*
X115776629Y-78495237D01*
X115776629Y-78495237D02*
X115419486Y-78399999D01*
X115419486Y-78399999D02*
X115776629Y-78304761D01*
X115776629Y-78304761D02*
X115276629Y-78185714D01*
X115776629Y-77733332D02*
X115776629Y-78019046D01*
X115776629Y-77876189D02*
X115276629Y-77876189D01*
X115276629Y-77876189D02*
X115348058Y-77923808D01*
X115348058Y-77923808D02*
X115395677Y-77971427D01*
X115395677Y-77971427D02*
X115419486Y-78019046D01*
X124456666Y-80856629D02*
X124290000Y-80618534D01*
X124170952Y-80856629D02*
X124170952Y-80356629D01*
X124170952Y-80356629D02*
X124361428Y-80356629D01*
X124361428Y-80356629D02*
X124409047Y-80380439D01*
X124409047Y-80380439D02*
X124432857Y-80404248D01*
X124432857Y-80404248D02*
X124456666Y-80451867D01*
X124456666Y-80451867D02*
X124456666Y-80523296D01*
X124456666Y-80523296D02*
X124432857Y-80570915D01*
X124432857Y-80570915D02*
X124409047Y-80594724D01*
X124409047Y-80594724D02*
X124361428Y-80618534D01*
X124361428Y-80618534D02*
X124170952Y-80618534D01*
X124647143Y-80404248D02*
X124670952Y-80380439D01*
X124670952Y-80380439D02*
X124718571Y-80356629D01*
X124718571Y-80356629D02*
X124837619Y-80356629D01*
X124837619Y-80356629D02*
X124885238Y-80380439D01*
X124885238Y-80380439D02*
X124909047Y-80404248D01*
X124909047Y-80404248D02*
X124932857Y-80451867D01*
X124932857Y-80451867D02*
X124932857Y-80499486D01*
X124932857Y-80499486D02*
X124909047Y-80570915D01*
X124909047Y-80570915D02*
X124623333Y-80856629D01*
X124623333Y-80856629D02*
X124932857Y-80856629D01*
X136466666Y-76726629D02*
X136300000Y-76488534D01*
X136180952Y-76726629D02*
X136180952Y-76226629D01*
X136180952Y-76226629D02*
X136371428Y-76226629D01*
X136371428Y-76226629D02*
X136419047Y-76250439D01*
X136419047Y-76250439D02*
X136442857Y-76274248D01*
X136442857Y-76274248D02*
X136466666Y-76321867D01*
X136466666Y-76321867D02*
X136466666Y-76393296D01*
X136466666Y-76393296D02*
X136442857Y-76440915D01*
X136442857Y-76440915D02*
X136419047Y-76464724D01*
X136419047Y-76464724D02*
X136371428Y-76488534D01*
X136371428Y-76488534D02*
X136180952Y-76488534D01*
X136633333Y-76226629D02*
X136942857Y-76226629D01*
X136942857Y-76226629D02*
X136776190Y-76417105D01*
X136776190Y-76417105D02*
X136847619Y-76417105D01*
X136847619Y-76417105D02*
X136895238Y-76440915D01*
X136895238Y-76440915D02*
X136919047Y-76464724D01*
X136919047Y-76464724D02*
X136942857Y-76512343D01*
X136942857Y-76512343D02*
X136942857Y-76631391D01*
X136942857Y-76631391D02*
X136919047Y-76679010D01*
X136919047Y-76679010D02*
X136895238Y-76702820D01*
X136895238Y-76702820D02*
X136847619Y-76726629D01*
X136847619Y-76726629D02*
X136704762Y-76726629D01*
X136704762Y-76726629D02*
X136657143Y-76702820D01*
X136657143Y-76702820D02*
X136633333Y-76679010D01*
X148028571Y-81879010D02*
X148004762Y-81902820D01*
X148004762Y-81902820D02*
X147933333Y-81926629D01*
X147933333Y-81926629D02*
X147885714Y-81926629D01*
X147885714Y-81926629D02*
X147814286Y-81902820D01*
X147814286Y-81902820D02*
X147766667Y-81855200D01*
X147766667Y-81855200D02*
X147742857Y-81807581D01*
X147742857Y-81807581D02*
X147719048Y-81712343D01*
X147719048Y-81712343D02*
X147719048Y-81640915D01*
X147719048Y-81640915D02*
X147742857Y-81545677D01*
X147742857Y-81545677D02*
X147766667Y-81498058D01*
X147766667Y-81498058D02*
X147814286Y-81450439D01*
X147814286Y-81450439D02*
X147885714Y-81426629D01*
X147885714Y-81426629D02*
X147933333Y-81426629D01*
X147933333Y-81426629D02*
X148004762Y-81450439D01*
X148004762Y-81450439D02*
X148028571Y-81474248D01*
X148504762Y-81926629D02*
X148219048Y-81926629D01*
X148361905Y-81926629D02*
X148361905Y-81426629D01*
X148361905Y-81426629D02*
X148314286Y-81498058D01*
X148314286Y-81498058D02*
X148266667Y-81545677D01*
X148266667Y-81545677D02*
X148219048Y-81569486D01*
X148671428Y-81426629D02*
X149004761Y-81426629D01*
X149004761Y-81426629D02*
X148790476Y-81926629D01*
X169330952Y-85826629D02*
X169330952Y-85326629D01*
X169330952Y-85326629D02*
X169450000Y-85326629D01*
X169450000Y-85326629D02*
X169521428Y-85350439D01*
X169521428Y-85350439D02*
X169569047Y-85398058D01*
X169569047Y-85398058D02*
X169592857Y-85445677D01*
X169592857Y-85445677D02*
X169616666Y-85540915D01*
X169616666Y-85540915D02*
X169616666Y-85612343D01*
X169616666Y-85612343D02*
X169592857Y-85707581D01*
X169592857Y-85707581D02*
X169569047Y-85755200D01*
X169569047Y-85755200D02*
X169521428Y-85802820D01*
X169521428Y-85802820D02*
X169450000Y-85826629D01*
X169450000Y-85826629D02*
X169330952Y-85826629D01*
X170069047Y-85326629D02*
X169830952Y-85326629D01*
X169830952Y-85326629D02*
X169807143Y-85564724D01*
X169807143Y-85564724D02*
X169830952Y-85540915D01*
X169830952Y-85540915D02*
X169878571Y-85517105D01*
X169878571Y-85517105D02*
X169997619Y-85517105D01*
X169997619Y-85517105D02*
X170045238Y-85540915D01*
X170045238Y-85540915D02*
X170069047Y-85564724D01*
X170069047Y-85564724D02*
X170092857Y-85612343D01*
X170092857Y-85612343D02*
X170092857Y-85731391D01*
X170092857Y-85731391D02*
X170069047Y-85779010D01*
X170069047Y-85779010D02*
X170045238Y-85802820D01*
X170045238Y-85802820D02*
X169997619Y-85826629D01*
X169997619Y-85826629D02*
X169878571Y-85826629D01*
X169878571Y-85826629D02*
X169830952Y-85802820D01*
X169830952Y-85802820D02*
X169807143Y-85779010D01*
X160288571Y-84279010D02*
X160264762Y-84302820D01*
X160264762Y-84302820D02*
X160193333Y-84326629D01*
X160193333Y-84326629D02*
X160145714Y-84326629D01*
X160145714Y-84326629D02*
X160074286Y-84302820D01*
X160074286Y-84302820D02*
X160026667Y-84255200D01*
X160026667Y-84255200D02*
X160002857Y-84207581D01*
X160002857Y-84207581D02*
X159979048Y-84112343D01*
X159979048Y-84112343D02*
X159979048Y-84040915D01*
X159979048Y-84040915D02*
X160002857Y-83945677D01*
X160002857Y-83945677D02*
X160026667Y-83898058D01*
X160026667Y-83898058D02*
X160074286Y-83850439D01*
X160074286Y-83850439D02*
X160145714Y-83826629D01*
X160145714Y-83826629D02*
X160193333Y-83826629D01*
X160193333Y-83826629D02*
X160264762Y-83850439D01*
X160264762Y-83850439D02*
X160288571Y-83874248D01*
X160764762Y-84326629D02*
X160479048Y-84326629D01*
X160621905Y-84326629D02*
X160621905Y-83826629D01*
X160621905Y-83826629D02*
X160574286Y-83898058D01*
X160574286Y-83898058D02*
X160526667Y-83945677D01*
X160526667Y-83945677D02*
X160479048Y-83969486D01*
X161002857Y-84326629D02*
X161098095Y-84326629D01*
X161098095Y-84326629D02*
X161145714Y-84302820D01*
X161145714Y-84302820D02*
X161169523Y-84279010D01*
X161169523Y-84279010D02*
X161217142Y-84207581D01*
X161217142Y-84207581D02*
X161240952Y-84112343D01*
X161240952Y-84112343D02*
X161240952Y-83921867D01*
X161240952Y-83921867D02*
X161217142Y-83874248D01*
X161217142Y-83874248D02*
X161193333Y-83850439D01*
X161193333Y-83850439D02*
X161145714Y-83826629D01*
X161145714Y-83826629D02*
X161050476Y-83826629D01*
X161050476Y-83826629D02*
X161002857Y-83850439D01*
X161002857Y-83850439D02*
X160979047Y-83874248D01*
X160979047Y-83874248D02*
X160955238Y-83921867D01*
X160955238Y-83921867D02*
X160955238Y-84040915D01*
X160955238Y-84040915D02*
X160979047Y-84088534D01*
X160979047Y-84088534D02*
X161002857Y-84112343D01*
X161002857Y-84112343D02*
X161050476Y-84136153D01*
X161050476Y-84136153D02*
X161145714Y-84136153D01*
X161145714Y-84136153D02*
X161193333Y-84112343D01*
X161193333Y-84112343D02*
X161217142Y-84088534D01*
X161217142Y-84088534D02*
X161240952Y-84040915D01*
X120916666Y-83726629D02*
X120750000Y-83488534D01*
X120630952Y-83726629D02*
X120630952Y-83226629D01*
X120630952Y-83226629D02*
X120821428Y-83226629D01*
X120821428Y-83226629D02*
X120869047Y-83250439D01*
X120869047Y-83250439D02*
X120892857Y-83274248D01*
X120892857Y-83274248D02*
X120916666Y-83321867D01*
X120916666Y-83321867D02*
X120916666Y-83393296D01*
X120916666Y-83393296D02*
X120892857Y-83440915D01*
X120892857Y-83440915D02*
X120869047Y-83464724D01*
X120869047Y-83464724D02*
X120821428Y-83488534D01*
X120821428Y-83488534D02*
X120630952Y-83488534D01*
X121345238Y-83393296D02*
X121345238Y-83726629D01*
X121226190Y-83202820D02*
X121107143Y-83559962D01*
X121107143Y-83559962D02*
X121416666Y-83559962D01*
X149906629Y-85121428D02*
X149668534Y-85288094D01*
X149906629Y-85407142D02*
X149406629Y-85407142D01*
X149406629Y-85407142D02*
X149406629Y-85216666D01*
X149406629Y-85216666D02*
X149430439Y-85169047D01*
X149430439Y-85169047D02*
X149454248Y-85145237D01*
X149454248Y-85145237D02*
X149501867Y-85121428D01*
X149501867Y-85121428D02*
X149573296Y-85121428D01*
X149573296Y-85121428D02*
X149620915Y-85145237D01*
X149620915Y-85145237D02*
X149644724Y-85169047D01*
X149644724Y-85169047D02*
X149668534Y-85216666D01*
X149668534Y-85216666D02*
X149668534Y-85407142D01*
X149906629Y-84645237D02*
X149906629Y-84930951D01*
X149906629Y-84788094D02*
X149406629Y-84788094D01*
X149406629Y-84788094D02*
X149478058Y-84835713D01*
X149478058Y-84835713D02*
X149525677Y-84883332D01*
X149525677Y-84883332D02*
X149549486Y-84930951D01*
X149406629Y-84478571D02*
X149406629Y-84169047D01*
X149406629Y-84169047D02*
X149597105Y-84335714D01*
X149597105Y-84335714D02*
X149597105Y-84264285D01*
X149597105Y-84264285D02*
X149620915Y-84216666D01*
X149620915Y-84216666D02*
X149644724Y-84192857D01*
X149644724Y-84192857D02*
X149692343Y-84169047D01*
X149692343Y-84169047D02*
X149811391Y-84169047D01*
X149811391Y-84169047D02*
X149859010Y-84192857D01*
X149859010Y-84192857D02*
X149882820Y-84216666D01*
X149882820Y-84216666D02*
X149906629Y-84264285D01*
X149906629Y-84264285D02*
X149906629Y-84407142D01*
X149906629Y-84407142D02*
X149882820Y-84454761D01*
X149882820Y-84454761D02*
X149859010Y-84478571D01*
X117726629Y-78233333D02*
X117488534Y-78399999D01*
X117726629Y-78519047D02*
X117226629Y-78519047D01*
X117226629Y-78519047D02*
X117226629Y-78328571D01*
X117226629Y-78328571D02*
X117250439Y-78280952D01*
X117250439Y-78280952D02*
X117274248Y-78257142D01*
X117274248Y-78257142D02*
X117321867Y-78233333D01*
X117321867Y-78233333D02*
X117393296Y-78233333D01*
X117393296Y-78233333D02*
X117440915Y-78257142D01*
X117440915Y-78257142D02*
X117464724Y-78280952D01*
X117464724Y-78280952D02*
X117488534Y-78328571D01*
X117488534Y-78328571D02*
X117488534Y-78519047D01*
X117226629Y-77780952D02*
X117226629Y-78019047D01*
X117226629Y-78019047D02*
X117464724Y-78042856D01*
X117464724Y-78042856D02*
X117440915Y-78019047D01*
X117440915Y-78019047D02*
X117417105Y-77971428D01*
X117417105Y-77971428D02*
X117417105Y-77852380D01*
X117417105Y-77852380D02*
X117440915Y-77804761D01*
X117440915Y-77804761D02*
X117464724Y-77780952D01*
X117464724Y-77780952D02*
X117512343Y-77757142D01*
X117512343Y-77757142D02*
X117631391Y-77757142D01*
X117631391Y-77757142D02*
X117679010Y-77780952D01*
X117679010Y-77780952D02*
X117702820Y-77804761D01*
X117702820Y-77804761D02*
X117726629Y-77852380D01*
X117726629Y-77852380D02*
X117726629Y-77971428D01*
X117726629Y-77971428D02*
X117702820Y-78019047D01*
X117702820Y-78019047D02*
X117679010Y-78042856D01*
X150476629Y-80391428D02*
X150238534Y-80558094D01*
X150476629Y-80677142D02*
X149976629Y-80677142D01*
X149976629Y-80677142D02*
X149976629Y-80486666D01*
X149976629Y-80486666D02*
X150000439Y-80439047D01*
X150000439Y-80439047D02*
X150024248Y-80415237D01*
X150024248Y-80415237D02*
X150071867Y-80391428D01*
X150071867Y-80391428D02*
X150143296Y-80391428D01*
X150143296Y-80391428D02*
X150190915Y-80415237D01*
X150190915Y-80415237D02*
X150214724Y-80439047D01*
X150214724Y-80439047D02*
X150238534Y-80486666D01*
X150238534Y-80486666D02*
X150238534Y-80677142D01*
X150476629Y-79915237D02*
X150476629Y-80200951D01*
X150476629Y-80058094D02*
X149976629Y-80058094D01*
X149976629Y-80058094D02*
X150048058Y-80105713D01*
X150048058Y-80105713D02*
X150095677Y-80153332D01*
X150095677Y-80153332D02*
X150119486Y-80200951D01*
X150143296Y-79486666D02*
X150476629Y-79486666D01*
X149952820Y-79605714D02*
X150309962Y-79724761D01*
X150309962Y-79724761D02*
X150309962Y-79415238D01*
X158628571Y-76379010D02*
X158604762Y-76402820D01*
X158604762Y-76402820D02*
X158533333Y-76426629D01*
X158533333Y-76426629D02*
X158485714Y-76426629D01*
X158485714Y-76426629D02*
X158414286Y-76402820D01*
X158414286Y-76402820D02*
X158366667Y-76355200D01*
X158366667Y-76355200D02*
X158342857Y-76307581D01*
X158342857Y-76307581D02*
X158319048Y-76212343D01*
X158319048Y-76212343D02*
X158319048Y-76140915D01*
X158319048Y-76140915D02*
X158342857Y-76045677D01*
X158342857Y-76045677D02*
X158366667Y-75998058D01*
X158366667Y-75998058D02*
X158414286Y-75950439D01*
X158414286Y-75950439D02*
X158485714Y-75926629D01*
X158485714Y-75926629D02*
X158533333Y-75926629D01*
X158533333Y-75926629D02*
X158604762Y-75950439D01*
X158604762Y-75950439D02*
X158628571Y-75974248D01*
X158819048Y-75974248D02*
X158842857Y-75950439D01*
X158842857Y-75950439D02*
X158890476Y-75926629D01*
X158890476Y-75926629D02*
X159009524Y-75926629D01*
X159009524Y-75926629D02*
X159057143Y-75950439D01*
X159057143Y-75950439D02*
X159080952Y-75974248D01*
X159080952Y-75974248D02*
X159104762Y-76021867D01*
X159104762Y-76021867D02*
X159104762Y-76069486D01*
X159104762Y-76069486D02*
X159080952Y-76140915D01*
X159080952Y-76140915D02*
X158795238Y-76426629D01*
X158795238Y-76426629D02*
X159104762Y-76426629D01*
X159414285Y-75926629D02*
X159461904Y-75926629D01*
X159461904Y-75926629D02*
X159509523Y-75950439D01*
X159509523Y-75950439D02*
X159533333Y-75974248D01*
X159533333Y-75974248D02*
X159557142Y-76021867D01*
X159557142Y-76021867D02*
X159580952Y-76117105D01*
X159580952Y-76117105D02*
X159580952Y-76236153D01*
X159580952Y-76236153D02*
X159557142Y-76331391D01*
X159557142Y-76331391D02*
X159533333Y-76379010D01*
X159533333Y-76379010D02*
X159509523Y-76402820D01*
X159509523Y-76402820D02*
X159461904Y-76426629D01*
X159461904Y-76426629D02*
X159414285Y-76426629D01*
X159414285Y-76426629D02*
X159366666Y-76402820D01*
X159366666Y-76402820D02*
X159342857Y-76379010D01*
X159342857Y-76379010D02*
X159319047Y-76331391D01*
X159319047Y-76331391D02*
X159295238Y-76236153D01*
X159295238Y-76236153D02*
X159295238Y-76117105D01*
X159295238Y-76117105D02*
X159319047Y-76021867D01*
X159319047Y-76021867D02*
X159342857Y-75974248D01*
X159342857Y-75974248D02*
X159366666Y-75950439D01*
X159366666Y-75950439D02*
X159414285Y-75926629D01*
X130316666Y-76429010D02*
X130292857Y-76452820D01*
X130292857Y-76452820D02*
X130221428Y-76476629D01*
X130221428Y-76476629D02*
X130173809Y-76476629D01*
X130173809Y-76476629D02*
X130102381Y-76452820D01*
X130102381Y-76452820D02*
X130054762Y-76405200D01*
X130054762Y-76405200D02*
X130030952Y-76357581D01*
X130030952Y-76357581D02*
X130007143Y-76262343D01*
X130007143Y-76262343D02*
X130007143Y-76190915D01*
X130007143Y-76190915D02*
X130030952Y-76095677D01*
X130030952Y-76095677D02*
X130054762Y-76048058D01*
X130054762Y-76048058D02*
X130102381Y-76000439D01*
X130102381Y-76000439D02*
X130173809Y-75976629D01*
X130173809Y-75976629D02*
X130221428Y-75976629D01*
X130221428Y-75976629D02*
X130292857Y-76000439D01*
X130292857Y-76000439D02*
X130316666Y-76024248D01*
X130745238Y-75976629D02*
X130650000Y-75976629D01*
X130650000Y-75976629D02*
X130602381Y-76000439D01*
X130602381Y-76000439D02*
X130578571Y-76024248D01*
X130578571Y-76024248D02*
X130530952Y-76095677D01*
X130530952Y-76095677D02*
X130507143Y-76190915D01*
X130507143Y-76190915D02*
X130507143Y-76381391D01*
X130507143Y-76381391D02*
X130530952Y-76429010D01*
X130530952Y-76429010D02*
X130554762Y-76452820D01*
X130554762Y-76452820D02*
X130602381Y-76476629D01*
X130602381Y-76476629D02*
X130697619Y-76476629D01*
X130697619Y-76476629D02*
X130745238Y-76452820D01*
X130745238Y-76452820D02*
X130769047Y-76429010D01*
X130769047Y-76429010D02*
X130792857Y-76381391D01*
X130792857Y-76381391D02*
X130792857Y-76262343D01*
X130792857Y-76262343D02*
X130769047Y-76214724D01*
X130769047Y-76214724D02*
X130745238Y-76190915D01*
X130745238Y-76190915D02*
X130697619Y-76167105D01*
X130697619Y-76167105D02*
X130602381Y-76167105D01*
X130602381Y-76167105D02*
X130554762Y-76190915D01*
X130554762Y-76190915D02*
X130530952Y-76214724D01*
X130530952Y-76214724D02*
X130507143Y-76262343D01*
X159128571Y-78079010D02*
X159104762Y-78102820D01*
X159104762Y-78102820D02*
X159033333Y-78126629D01*
X159033333Y-78126629D02*
X158985714Y-78126629D01*
X158985714Y-78126629D02*
X158914286Y-78102820D01*
X158914286Y-78102820D02*
X158866667Y-78055200D01*
X158866667Y-78055200D02*
X158842857Y-78007581D01*
X158842857Y-78007581D02*
X158819048Y-77912343D01*
X158819048Y-77912343D02*
X158819048Y-77840915D01*
X158819048Y-77840915D02*
X158842857Y-77745677D01*
X158842857Y-77745677D02*
X158866667Y-77698058D01*
X158866667Y-77698058D02*
X158914286Y-77650439D01*
X158914286Y-77650439D02*
X158985714Y-77626629D01*
X158985714Y-77626629D02*
X159033333Y-77626629D01*
X159033333Y-77626629D02*
X159104762Y-77650439D01*
X159104762Y-77650439D02*
X159128571Y-77674248D01*
X159319048Y-77674248D02*
X159342857Y-77650439D01*
X159342857Y-77650439D02*
X159390476Y-77626629D01*
X159390476Y-77626629D02*
X159509524Y-77626629D01*
X159509524Y-77626629D02*
X159557143Y-77650439D01*
X159557143Y-77650439D02*
X159580952Y-77674248D01*
X159580952Y-77674248D02*
X159604762Y-77721867D01*
X159604762Y-77721867D02*
X159604762Y-77769486D01*
X159604762Y-77769486D02*
X159580952Y-77840915D01*
X159580952Y-77840915D02*
X159295238Y-78126629D01*
X159295238Y-78126629D02*
X159604762Y-78126629D01*
X160080952Y-78126629D02*
X159795238Y-78126629D01*
X159938095Y-78126629D02*
X159938095Y-77626629D01*
X159938095Y-77626629D02*
X159890476Y-77698058D01*
X159890476Y-77698058D02*
X159842857Y-77745677D01*
X159842857Y-77745677D02*
X159795238Y-77769486D01*
X160228571Y-76479010D02*
X160204762Y-76502820D01*
X160204762Y-76502820D02*
X160133333Y-76526629D01*
X160133333Y-76526629D02*
X160085714Y-76526629D01*
X160085714Y-76526629D02*
X160014286Y-76502820D01*
X160014286Y-76502820D02*
X159966667Y-76455200D01*
X159966667Y-76455200D02*
X159942857Y-76407581D01*
X159942857Y-76407581D02*
X159919048Y-76312343D01*
X159919048Y-76312343D02*
X159919048Y-76240915D01*
X159919048Y-76240915D02*
X159942857Y-76145677D01*
X159942857Y-76145677D02*
X159966667Y-76098058D01*
X159966667Y-76098058D02*
X160014286Y-76050439D01*
X160014286Y-76050439D02*
X160085714Y-76026629D01*
X160085714Y-76026629D02*
X160133333Y-76026629D01*
X160133333Y-76026629D02*
X160204762Y-76050439D01*
X160204762Y-76050439D02*
X160228571Y-76074248D01*
X160419048Y-76074248D02*
X160442857Y-76050439D01*
X160442857Y-76050439D02*
X160490476Y-76026629D01*
X160490476Y-76026629D02*
X160609524Y-76026629D01*
X160609524Y-76026629D02*
X160657143Y-76050439D01*
X160657143Y-76050439D02*
X160680952Y-76074248D01*
X160680952Y-76074248D02*
X160704762Y-76121867D01*
X160704762Y-76121867D02*
X160704762Y-76169486D01*
X160704762Y-76169486D02*
X160680952Y-76240915D01*
X160680952Y-76240915D02*
X160395238Y-76526629D01*
X160395238Y-76526629D02*
X160704762Y-76526629D01*
X160895238Y-76074248D02*
X160919047Y-76050439D01*
X160919047Y-76050439D02*
X160966666Y-76026629D01*
X160966666Y-76026629D02*
X161085714Y-76026629D01*
X161085714Y-76026629D02*
X161133333Y-76050439D01*
X161133333Y-76050439D02*
X161157142Y-76074248D01*
X161157142Y-76074248D02*
X161180952Y-76121867D01*
X161180952Y-76121867D02*
X161180952Y-76169486D01*
X161180952Y-76169486D02*
X161157142Y-76240915D01*
X161157142Y-76240915D02*
X160871428Y-76526629D01*
X160871428Y-76526629D02*
X161180952Y-76526629D01*
X165252820Y-83766665D02*
X165276629Y-83695237D01*
X165276629Y-83695237D02*
X165276629Y-83576189D01*
X165276629Y-83576189D02*
X165252820Y-83528570D01*
X165252820Y-83528570D02*
X165229010Y-83504761D01*
X165229010Y-83504761D02*
X165181391Y-83480951D01*
X165181391Y-83480951D02*
X165133772Y-83480951D01*
X165133772Y-83480951D02*
X165086153Y-83504761D01*
X165086153Y-83504761D02*
X165062343Y-83528570D01*
X165062343Y-83528570D02*
X165038534Y-83576189D01*
X165038534Y-83576189D02*
X165014724Y-83671427D01*
X165014724Y-83671427D02*
X164990915Y-83719046D01*
X164990915Y-83719046D02*
X164967105Y-83742856D01*
X164967105Y-83742856D02*
X164919486Y-83766665D01*
X164919486Y-83766665D02*
X164871867Y-83766665D01*
X164871867Y-83766665D02*
X164824248Y-83742856D01*
X164824248Y-83742856D02*
X164800439Y-83719046D01*
X164800439Y-83719046D02*
X164776629Y-83671427D01*
X164776629Y-83671427D02*
X164776629Y-83552380D01*
X164776629Y-83552380D02*
X164800439Y-83480951D01*
X164776629Y-83314285D02*
X165276629Y-83195237D01*
X165276629Y-83195237D02*
X164919486Y-83099999D01*
X164919486Y-83099999D02*
X165276629Y-83004761D01*
X165276629Y-83004761D02*
X164776629Y-82885714D01*
X164776629Y-82742856D02*
X164776629Y-82433332D01*
X164776629Y-82433332D02*
X164967105Y-82599999D01*
X164967105Y-82599999D02*
X164967105Y-82528570D01*
X164967105Y-82528570D02*
X164990915Y-82480951D01*
X164990915Y-82480951D02*
X165014724Y-82457142D01*
X165014724Y-82457142D02*
X165062343Y-82433332D01*
X165062343Y-82433332D02*
X165181391Y-82433332D01*
X165181391Y-82433332D02*
X165229010Y-82457142D01*
X165229010Y-82457142D02*
X165252820Y-82480951D01*
X165252820Y-82480951D02*
X165276629Y-82528570D01*
X165276629Y-82528570D02*
X165276629Y-82671427D01*
X165276629Y-82671427D02*
X165252820Y-82719046D01*
X165252820Y-82719046D02*
X165229010Y-82742856D01*
X136179010Y-79583333D02*
X136202820Y-79607142D01*
X136202820Y-79607142D02*
X136226629Y-79678571D01*
X136226629Y-79678571D02*
X136226629Y-79726190D01*
X136226629Y-79726190D02*
X136202820Y-79797618D01*
X136202820Y-79797618D02*
X136155200Y-79845237D01*
X136155200Y-79845237D02*
X136107581Y-79869047D01*
X136107581Y-79869047D02*
X136012343Y-79892856D01*
X136012343Y-79892856D02*
X135940915Y-79892856D01*
X135940915Y-79892856D02*
X135845677Y-79869047D01*
X135845677Y-79869047D02*
X135798058Y-79845237D01*
X135798058Y-79845237D02*
X135750439Y-79797618D01*
X135750439Y-79797618D02*
X135726629Y-79726190D01*
X135726629Y-79726190D02*
X135726629Y-79678571D01*
X135726629Y-79678571D02*
X135750439Y-79607142D01*
X135750439Y-79607142D02*
X135774248Y-79583333D01*
X136226629Y-79345237D02*
X136226629Y-79249999D01*
X136226629Y-79249999D02*
X136202820Y-79202380D01*
X136202820Y-79202380D02*
X136179010Y-79178571D01*
X136179010Y-79178571D02*
X136107581Y-79130952D01*
X136107581Y-79130952D02*
X136012343Y-79107142D01*
X136012343Y-79107142D02*
X135821867Y-79107142D01*
X135821867Y-79107142D02*
X135774248Y-79130952D01*
X135774248Y-79130952D02*
X135750439Y-79154761D01*
X135750439Y-79154761D02*
X135726629Y-79202380D01*
X135726629Y-79202380D02*
X135726629Y-79297618D01*
X135726629Y-79297618D02*
X135750439Y-79345237D01*
X135750439Y-79345237D02*
X135774248Y-79369047D01*
X135774248Y-79369047D02*
X135821867Y-79392856D01*
X135821867Y-79392856D02*
X135940915Y-79392856D01*
X135940915Y-79392856D02*
X135988534Y-79369047D01*
X135988534Y-79369047D02*
X136012343Y-79345237D01*
X136012343Y-79345237D02*
X136036153Y-79297618D01*
X136036153Y-79297618D02*
X136036153Y-79202380D01*
X136036153Y-79202380D02*
X136012343Y-79154761D01*
X136012343Y-79154761D02*
X135988534Y-79130952D01*
X135988534Y-79130952D02*
X135940915Y-79107142D01*
X125069047Y-85526629D02*
X125069047Y-85931391D01*
X125069047Y-85931391D02*
X125092857Y-85979010D01*
X125092857Y-85979010D02*
X125116666Y-86002820D01*
X125116666Y-86002820D02*
X125164285Y-86026629D01*
X125164285Y-86026629D02*
X125259523Y-86026629D01*
X125259523Y-86026629D02*
X125307142Y-86002820D01*
X125307142Y-86002820D02*
X125330952Y-85979010D01*
X125330952Y-85979010D02*
X125354761Y-85931391D01*
X125354761Y-85931391D02*
X125354761Y-85526629D01*
X125854762Y-86026629D02*
X125569048Y-86026629D01*
X125711905Y-86026629D02*
X125711905Y-85526629D01*
X125711905Y-85526629D02*
X125664286Y-85598058D01*
X125664286Y-85598058D02*
X125616667Y-85645677D01*
X125616667Y-85645677D02*
X125569048Y-85669486D01*
X121826190Y-79926629D02*
X121826190Y-79426629D01*
X121826190Y-79426629D02*
X121992857Y-79783772D01*
X121992857Y-79783772D02*
X122159523Y-79426629D01*
X122159523Y-79426629D02*
X122159523Y-79926629D01*
X122397619Y-79926629D02*
X122397619Y-79426629D01*
X122921428Y-79879010D02*
X122897619Y-79902820D01*
X122897619Y-79902820D02*
X122826190Y-79926629D01*
X122826190Y-79926629D02*
X122778571Y-79926629D01*
X122778571Y-79926629D02*
X122707143Y-79902820D01*
X122707143Y-79902820D02*
X122659524Y-79855200D01*
X122659524Y-79855200D02*
X122635714Y-79807581D01*
X122635714Y-79807581D02*
X122611905Y-79712343D01*
X122611905Y-79712343D02*
X122611905Y-79640915D01*
X122611905Y-79640915D02*
X122635714Y-79545677D01*
X122635714Y-79545677D02*
X122659524Y-79498058D01*
X122659524Y-79498058D02*
X122707143Y-79450439D01*
X122707143Y-79450439D02*
X122778571Y-79426629D01*
X122778571Y-79426629D02*
X122826190Y-79426629D01*
X122826190Y-79426629D02*
X122897619Y-79450439D01*
X122897619Y-79450439D02*
X122921428Y-79474248D01*
X123397619Y-79926629D02*
X123111905Y-79926629D01*
X123254762Y-79926629D02*
X123254762Y-79426629D01*
X123254762Y-79426629D02*
X123207143Y-79498058D01*
X123207143Y-79498058D02*
X123159524Y-79545677D01*
X123159524Y-79545677D02*
X123111905Y-79569486D01*
X162418571Y-78849010D02*
X162394762Y-78872820D01*
X162394762Y-78872820D02*
X162323333Y-78896629D01*
X162323333Y-78896629D02*
X162275714Y-78896629D01*
X162275714Y-78896629D02*
X162204286Y-78872820D01*
X162204286Y-78872820D02*
X162156667Y-78825200D01*
X162156667Y-78825200D02*
X162132857Y-78777581D01*
X162132857Y-78777581D02*
X162109048Y-78682343D01*
X162109048Y-78682343D02*
X162109048Y-78610915D01*
X162109048Y-78610915D02*
X162132857Y-78515677D01*
X162132857Y-78515677D02*
X162156667Y-78468058D01*
X162156667Y-78468058D02*
X162204286Y-78420439D01*
X162204286Y-78420439D02*
X162275714Y-78396629D01*
X162275714Y-78396629D02*
X162323333Y-78396629D01*
X162323333Y-78396629D02*
X162394762Y-78420439D01*
X162394762Y-78420439D02*
X162418571Y-78444248D01*
X162609048Y-78444248D02*
X162632857Y-78420439D01*
X162632857Y-78420439D02*
X162680476Y-78396629D01*
X162680476Y-78396629D02*
X162799524Y-78396629D01*
X162799524Y-78396629D02*
X162847143Y-78420439D01*
X162847143Y-78420439D02*
X162870952Y-78444248D01*
X162870952Y-78444248D02*
X162894762Y-78491867D01*
X162894762Y-78491867D02*
X162894762Y-78539486D01*
X162894762Y-78539486D02*
X162870952Y-78610915D01*
X162870952Y-78610915D02*
X162585238Y-78896629D01*
X162585238Y-78896629D02*
X162894762Y-78896629D01*
X163323333Y-78563296D02*
X163323333Y-78896629D01*
X163204285Y-78372820D02*
X163085238Y-78729962D01*
X163085238Y-78729962D02*
X163394761Y-78729962D01*
X152469047Y-78126629D02*
X152469047Y-78531391D01*
X152469047Y-78531391D02*
X152492857Y-78579010D01*
X152492857Y-78579010D02*
X152516666Y-78602820D01*
X152516666Y-78602820D02*
X152564285Y-78626629D01*
X152564285Y-78626629D02*
X152659523Y-78626629D01*
X152659523Y-78626629D02*
X152707142Y-78602820D01*
X152707142Y-78602820D02*
X152730952Y-78579010D01*
X152730952Y-78579010D02*
X152754761Y-78531391D01*
X152754761Y-78531391D02*
X152754761Y-78126629D01*
X153207143Y-78293296D02*
X153207143Y-78626629D01*
X153088095Y-78102820D02*
X152969048Y-78459962D01*
X152969048Y-78459962D02*
X153278571Y-78459962D01*
X111980952Y-78326629D02*
X111980952Y-77826629D01*
X111980952Y-77826629D02*
X112100000Y-77826629D01*
X112100000Y-77826629D02*
X112171428Y-77850439D01*
X112171428Y-77850439D02*
X112219047Y-77898058D01*
X112219047Y-77898058D02*
X112242857Y-77945677D01*
X112242857Y-77945677D02*
X112266666Y-78040915D01*
X112266666Y-78040915D02*
X112266666Y-78112343D01*
X112266666Y-78112343D02*
X112242857Y-78207581D01*
X112242857Y-78207581D02*
X112219047Y-78255200D01*
X112219047Y-78255200D02*
X112171428Y-78302820D01*
X112171428Y-78302820D02*
X112100000Y-78326629D01*
X112100000Y-78326629D02*
X111980952Y-78326629D01*
X112742857Y-78326629D02*
X112457143Y-78326629D01*
X112600000Y-78326629D02*
X112600000Y-77826629D01*
X112600000Y-77826629D02*
X112552381Y-77898058D01*
X112552381Y-77898058D02*
X112504762Y-77945677D01*
X112504762Y-77945677D02*
X112457143Y-77969486D01*
X138466666Y-85179010D02*
X138442857Y-85202820D01*
X138442857Y-85202820D02*
X138371428Y-85226629D01*
X138371428Y-85226629D02*
X138323809Y-85226629D01*
X138323809Y-85226629D02*
X138252381Y-85202820D01*
X138252381Y-85202820D02*
X138204762Y-85155200D01*
X138204762Y-85155200D02*
X138180952Y-85107581D01*
X138180952Y-85107581D02*
X138157143Y-85012343D01*
X138157143Y-85012343D02*
X138157143Y-84940915D01*
X138157143Y-84940915D02*
X138180952Y-84845677D01*
X138180952Y-84845677D02*
X138204762Y-84798058D01*
X138204762Y-84798058D02*
X138252381Y-84750439D01*
X138252381Y-84750439D02*
X138323809Y-84726629D01*
X138323809Y-84726629D02*
X138371428Y-84726629D01*
X138371428Y-84726629D02*
X138442857Y-84750439D01*
X138442857Y-84750439D02*
X138466666Y-84774248D01*
X138633333Y-84726629D02*
X138966666Y-84726629D01*
X138966666Y-84726629D02*
X138752381Y-85226629D01*
X139761905Y-83488534D02*
X139761905Y-83726629D01*
X139595239Y-83226629D02*
X139761905Y-83488534D01*
X139761905Y-83488534D02*
X139928572Y-83226629D01*
X140357143Y-83726629D02*
X140071429Y-83726629D01*
X140214286Y-83726629D02*
X140214286Y-83226629D01*
X140214286Y-83226629D02*
X140166667Y-83298058D01*
X140166667Y-83298058D02*
X140119048Y-83345677D01*
X140119048Y-83345677D02*
X140071429Y-83369486D01*
X170280952Y-75976629D02*
X170280952Y-76381391D01*
X170280952Y-76381391D02*
X170304762Y-76429010D01*
X170304762Y-76429010D02*
X170328571Y-76452820D01*
X170328571Y-76452820D02*
X170376190Y-76476629D01*
X170376190Y-76476629D02*
X170471428Y-76476629D01*
X170471428Y-76476629D02*
X170519047Y-76452820D01*
X170519047Y-76452820D02*
X170542857Y-76429010D01*
X170542857Y-76429010D02*
X170566666Y-76381391D01*
X170566666Y-76381391D02*
X170566666Y-75976629D01*
X170780953Y-76452820D02*
X170852381Y-76476629D01*
X170852381Y-76476629D02*
X170971429Y-76476629D01*
X170971429Y-76476629D02*
X171019048Y-76452820D01*
X171019048Y-76452820D02*
X171042857Y-76429010D01*
X171042857Y-76429010D02*
X171066667Y-76381391D01*
X171066667Y-76381391D02*
X171066667Y-76333772D01*
X171066667Y-76333772D02*
X171042857Y-76286153D01*
X171042857Y-76286153D02*
X171019048Y-76262343D01*
X171019048Y-76262343D02*
X170971429Y-76238534D01*
X170971429Y-76238534D02*
X170876191Y-76214724D01*
X170876191Y-76214724D02*
X170828572Y-76190915D01*
X170828572Y-76190915D02*
X170804762Y-76167105D01*
X170804762Y-76167105D02*
X170780953Y-76119486D01*
X170780953Y-76119486D02*
X170780953Y-76071867D01*
X170780953Y-76071867D02*
X170804762Y-76024248D01*
X170804762Y-76024248D02*
X170828572Y-76000439D01*
X170828572Y-76000439D02*
X170876191Y-75976629D01*
X170876191Y-75976629D02*
X170995238Y-75976629D01*
X170995238Y-75976629D02*
X171066667Y-76000439D01*
X171447619Y-76214724D02*
X171519047Y-76238534D01*
X171519047Y-76238534D02*
X171542857Y-76262343D01*
X171542857Y-76262343D02*
X171566666Y-76309962D01*
X171566666Y-76309962D02*
X171566666Y-76381391D01*
X171566666Y-76381391D02*
X171542857Y-76429010D01*
X171542857Y-76429010D02*
X171519047Y-76452820D01*
X171519047Y-76452820D02*
X171471428Y-76476629D01*
X171471428Y-76476629D02*
X171280952Y-76476629D01*
X171280952Y-76476629D02*
X171280952Y-75976629D01*
X171280952Y-75976629D02*
X171447619Y-75976629D01*
X171447619Y-75976629D02*
X171495238Y-76000439D01*
X171495238Y-76000439D02*
X171519047Y-76024248D01*
X171519047Y-76024248D02*
X171542857Y-76071867D01*
X171542857Y-76071867D02*
X171542857Y-76119486D01*
X171542857Y-76119486D02*
X171519047Y-76167105D01*
X171519047Y-76167105D02*
X171495238Y-76190915D01*
X171495238Y-76190915D02*
X171447619Y-76214724D01*
X171447619Y-76214724D02*
X171280952Y-76214724D01*
X171757143Y-76024248D02*
X171780952Y-76000439D01*
X171780952Y-76000439D02*
X171828571Y-75976629D01*
X171828571Y-75976629D02*
X171947619Y-75976629D01*
X171947619Y-75976629D02*
X171995238Y-76000439D01*
X171995238Y-76000439D02*
X172019047Y-76024248D01*
X172019047Y-76024248D02*
X172042857Y-76071867D01*
X172042857Y-76071867D02*
X172042857Y-76119486D01*
X172042857Y-76119486D02*
X172019047Y-76190915D01*
X172019047Y-76190915D02*
X171733333Y-76476629D01*
X171733333Y-76476629D02*
X172042857Y-76476629D01*
X124366666Y-81679010D02*
X124342857Y-81702820D01*
X124342857Y-81702820D02*
X124271428Y-81726629D01*
X124271428Y-81726629D02*
X124223809Y-81726629D01*
X124223809Y-81726629D02*
X124152381Y-81702820D01*
X124152381Y-81702820D02*
X124104762Y-81655200D01*
X124104762Y-81655200D02*
X124080952Y-81607581D01*
X124080952Y-81607581D02*
X124057143Y-81512343D01*
X124057143Y-81512343D02*
X124057143Y-81440915D01*
X124057143Y-81440915D02*
X124080952Y-81345677D01*
X124080952Y-81345677D02*
X124104762Y-81298058D01*
X124104762Y-81298058D02*
X124152381Y-81250439D01*
X124152381Y-81250439D02*
X124223809Y-81226629D01*
X124223809Y-81226629D02*
X124271428Y-81226629D01*
X124271428Y-81226629D02*
X124342857Y-81250439D01*
X124342857Y-81250439D02*
X124366666Y-81274248D01*
X124795238Y-81393296D02*
X124795238Y-81726629D01*
X124676190Y-81202820D02*
X124557143Y-81559962D01*
X124557143Y-81559962D02*
X124866666Y-81559962D01*
X148228571Y-79326629D02*
X148061905Y-79088534D01*
X147942857Y-79326629D02*
X147942857Y-78826629D01*
X147942857Y-78826629D02*
X148133333Y-78826629D01*
X148133333Y-78826629D02*
X148180952Y-78850439D01*
X148180952Y-78850439D02*
X148204762Y-78874248D01*
X148204762Y-78874248D02*
X148228571Y-78921867D01*
X148228571Y-78921867D02*
X148228571Y-78993296D01*
X148228571Y-78993296D02*
X148204762Y-79040915D01*
X148204762Y-79040915D02*
X148180952Y-79064724D01*
X148180952Y-79064724D02*
X148133333Y-79088534D01*
X148133333Y-79088534D02*
X147942857Y-79088534D01*
X148704762Y-79326629D02*
X148419048Y-79326629D01*
X148561905Y-79326629D02*
X148561905Y-78826629D01*
X148561905Y-78826629D02*
X148514286Y-78898058D01*
X148514286Y-78898058D02*
X148466667Y-78945677D01*
X148466667Y-78945677D02*
X148419048Y-78969486D01*
X149133333Y-78826629D02*
X149038095Y-78826629D01*
X149038095Y-78826629D02*
X148990476Y-78850439D01*
X148990476Y-78850439D02*
X148966666Y-78874248D01*
X148966666Y-78874248D02*
X148919047Y-78945677D01*
X148919047Y-78945677D02*
X148895238Y-79040915D01*
X148895238Y-79040915D02*
X148895238Y-79231391D01*
X148895238Y-79231391D02*
X148919047Y-79279010D01*
X148919047Y-79279010D02*
X148942857Y-79302820D01*
X148942857Y-79302820D02*
X148990476Y-79326629D01*
X148990476Y-79326629D02*
X149085714Y-79326629D01*
X149085714Y-79326629D02*
X149133333Y-79302820D01*
X149133333Y-79302820D02*
X149157142Y-79279010D01*
X149157142Y-79279010D02*
X149180952Y-79231391D01*
X149180952Y-79231391D02*
X149180952Y-79112343D01*
X149180952Y-79112343D02*
X149157142Y-79064724D01*
X149157142Y-79064724D02*
X149133333Y-79040915D01*
X149133333Y-79040915D02*
X149085714Y-79017105D01*
X149085714Y-79017105D02*
X148990476Y-79017105D01*
X148990476Y-79017105D02*
X148942857Y-79040915D01*
X148942857Y-79040915D02*
X148919047Y-79064724D01*
X148919047Y-79064724D02*
X148895238Y-79112343D01*
X107330952Y-75876629D02*
X107330952Y-76281391D01*
X107330952Y-76281391D02*
X107354762Y-76329010D01*
X107354762Y-76329010D02*
X107378571Y-76352820D01*
X107378571Y-76352820D02*
X107426190Y-76376629D01*
X107426190Y-76376629D02*
X107521428Y-76376629D01*
X107521428Y-76376629D02*
X107569047Y-76352820D01*
X107569047Y-76352820D02*
X107592857Y-76329010D01*
X107592857Y-76329010D02*
X107616666Y-76281391D01*
X107616666Y-76281391D02*
X107616666Y-75876629D01*
X107830953Y-76352820D02*
X107902381Y-76376629D01*
X107902381Y-76376629D02*
X108021429Y-76376629D01*
X108021429Y-76376629D02*
X108069048Y-76352820D01*
X108069048Y-76352820D02*
X108092857Y-76329010D01*
X108092857Y-76329010D02*
X108116667Y-76281391D01*
X108116667Y-76281391D02*
X108116667Y-76233772D01*
X108116667Y-76233772D02*
X108092857Y-76186153D01*
X108092857Y-76186153D02*
X108069048Y-76162343D01*
X108069048Y-76162343D02*
X108021429Y-76138534D01*
X108021429Y-76138534D02*
X107926191Y-76114724D01*
X107926191Y-76114724D02*
X107878572Y-76090915D01*
X107878572Y-76090915D02*
X107854762Y-76067105D01*
X107854762Y-76067105D02*
X107830953Y-76019486D01*
X107830953Y-76019486D02*
X107830953Y-75971867D01*
X107830953Y-75971867D02*
X107854762Y-75924248D01*
X107854762Y-75924248D02*
X107878572Y-75900439D01*
X107878572Y-75900439D02*
X107926191Y-75876629D01*
X107926191Y-75876629D02*
X108045238Y-75876629D01*
X108045238Y-75876629D02*
X108116667Y-75900439D01*
X108497619Y-76114724D02*
X108569047Y-76138534D01*
X108569047Y-76138534D02*
X108592857Y-76162343D01*
X108592857Y-76162343D02*
X108616666Y-76209962D01*
X108616666Y-76209962D02*
X108616666Y-76281391D01*
X108616666Y-76281391D02*
X108592857Y-76329010D01*
X108592857Y-76329010D02*
X108569047Y-76352820D01*
X108569047Y-76352820D02*
X108521428Y-76376629D01*
X108521428Y-76376629D02*
X108330952Y-76376629D01*
X108330952Y-76376629D02*
X108330952Y-75876629D01*
X108330952Y-75876629D02*
X108497619Y-75876629D01*
X108497619Y-75876629D02*
X108545238Y-75900439D01*
X108545238Y-75900439D02*
X108569047Y-75924248D01*
X108569047Y-75924248D02*
X108592857Y-75971867D01*
X108592857Y-75971867D02*
X108592857Y-76019486D01*
X108592857Y-76019486D02*
X108569047Y-76067105D01*
X108569047Y-76067105D02*
X108545238Y-76090915D01*
X108545238Y-76090915D02*
X108497619Y-76114724D01*
X108497619Y-76114724D02*
X108330952Y-76114724D01*
X109092857Y-76376629D02*
X108807143Y-76376629D01*
X108950000Y-76376629D02*
X108950000Y-75876629D01*
X108950000Y-75876629D02*
X108902381Y-75948058D01*
X108902381Y-75948058D02*
X108854762Y-75995677D01*
X108854762Y-75995677D02*
X108807143Y-76019486D01*
X160228571Y-86026629D02*
X160061905Y-85788534D01*
X159942857Y-86026629D02*
X159942857Y-85526629D01*
X159942857Y-85526629D02*
X160133333Y-85526629D01*
X160133333Y-85526629D02*
X160180952Y-85550439D01*
X160180952Y-85550439D02*
X160204762Y-85574248D01*
X160204762Y-85574248D02*
X160228571Y-85621867D01*
X160228571Y-85621867D02*
X160228571Y-85693296D01*
X160228571Y-85693296D02*
X160204762Y-85740915D01*
X160204762Y-85740915D02*
X160180952Y-85764724D01*
X160180952Y-85764724D02*
X160133333Y-85788534D01*
X160133333Y-85788534D02*
X159942857Y-85788534D01*
X160704762Y-86026629D02*
X160419048Y-86026629D01*
X160561905Y-86026629D02*
X160561905Y-85526629D01*
X160561905Y-85526629D02*
X160514286Y-85598058D01*
X160514286Y-85598058D02*
X160466667Y-85645677D01*
X160466667Y-85645677D02*
X160419048Y-85669486D01*
X160871428Y-85526629D02*
X161204761Y-85526629D01*
X161204761Y-85526629D02*
X160990476Y-86026629D01*
X138966666Y-76379010D02*
X138942857Y-76402820D01*
X138942857Y-76402820D02*
X138871428Y-76426629D01*
X138871428Y-76426629D02*
X138823809Y-76426629D01*
X138823809Y-76426629D02*
X138752381Y-76402820D01*
X138752381Y-76402820D02*
X138704762Y-76355200D01*
X138704762Y-76355200D02*
X138680952Y-76307581D01*
X138680952Y-76307581D02*
X138657143Y-76212343D01*
X138657143Y-76212343D02*
X138657143Y-76140915D01*
X138657143Y-76140915D02*
X138680952Y-76045677D01*
X138680952Y-76045677D02*
X138704762Y-75998058D01*
X138704762Y-75998058D02*
X138752381Y-75950439D01*
X138752381Y-75950439D02*
X138823809Y-75926629D01*
X138823809Y-75926629D02*
X138871428Y-75926629D01*
X138871428Y-75926629D02*
X138942857Y-75950439D01*
X138942857Y-75950439D02*
X138966666Y-75974248D01*
X139252381Y-76140915D02*
X139204762Y-76117105D01*
X139204762Y-76117105D02*
X139180952Y-76093296D01*
X139180952Y-76093296D02*
X139157143Y-76045677D01*
X139157143Y-76045677D02*
X139157143Y-76021867D01*
X139157143Y-76021867D02*
X139180952Y-75974248D01*
X139180952Y-75974248D02*
X139204762Y-75950439D01*
X139204762Y-75950439D02*
X139252381Y-75926629D01*
X139252381Y-75926629D02*
X139347619Y-75926629D01*
X139347619Y-75926629D02*
X139395238Y-75950439D01*
X139395238Y-75950439D02*
X139419047Y-75974248D01*
X139419047Y-75974248D02*
X139442857Y-76021867D01*
X139442857Y-76021867D02*
X139442857Y-76045677D01*
X139442857Y-76045677D02*
X139419047Y-76093296D01*
X139419047Y-76093296D02*
X139395238Y-76117105D01*
X139395238Y-76117105D02*
X139347619Y-76140915D01*
X139347619Y-76140915D02*
X139252381Y-76140915D01*
X139252381Y-76140915D02*
X139204762Y-76164724D01*
X139204762Y-76164724D02*
X139180952Y-76188534D01*
X139180952Y-76188534D02*
X139157143Y-76236153D01*
X139157143Y-76236153D02*
X139157143Y-76331391D01*
X139157143Y-76331391D02*
X139180952Y-76379010D01*
X139180952Y-76379010D02*
X139204762Y-76402820D01*
X139204762Y-76402820D02*
X139252381Y-76426629D01*
X139252381Y-76426629D02*
X139347619Y-76426629D01*
X139347619Y-76426629D02*
X139395238Y-76402820D01*
X139395238Y-76402820D02*
X139419047Y-76379010D01*
X139419047Y-76379010D02*
X139442857Y-76331391D01*
X139442857Y-76331391D02*
X139442857Y-76236153D01*
X139442857Y-76236153D02*
X139419047Y-76188534D01*
X139419047Y-76188534D02*
X139395238Y-76164724D01*
X139395238Y-76164724D02*
X139347619Y-76140915D01*
X126816666Y-78479010D02*
X126792857Y-78502820D01*
X126792857Y-78502820D02*
X126721428Y-78526629D01*
X126721428Y-78526629D02*
X126673809Y-78526629D01*
X126673809Y-78526629D02*
X126602381Y-78502820D01*
X126602381Y-78502820D02*
X126554762Y-78455200D01*
X126554762Y-78455200D02*
X126530952Y-78407581D01*
X126530952Y-78407581D02*
X126507143Y-78312343D01*
X126507143Y-78312343D02*
X126507143Y-78240915D01*
X126507143Y-78240915D02*
X126530952Y-78145677D01*
X126530952Y-78145677D02*
X126554762Y-78098058D01*
X126554762Y-78098058D02*
X126602381Y-78050439D01*
X126602381Y-78050439D02*
X126673809Y-78026629D01*
X126673809Y-78026629D02*
X126721428Y-78026629D01*
X126721428Y-78026629D02*
X126792857Y-78050439D01*
X126792857Y-78050439D02*
X126816666Y-78074248D01*
X127269047Y-78026629D02*
X127030952Y-78026629D01*
X127030952Y-78026629D02*
X127007143Y-78264724D01*
X127007143Y-78264724D02*
X127030952Y-78240915D01*
X127030952Y-78240915D02*
X127078571Y-78217105D01*
X127078571Y-78217105D02*
X127197619Y-78217105D01*
X127197619Y-78217105D02*
X127245238Y-78240915D01*
X127245238Y-78240915D02*
X127269047Y-78264724D01*
X127269047Y-78264724D02*
X127292857Y-78312343D01*
X127292857Y-78312343D02*
X127292857Y-78431391D01*
X127292857Y-78431391D02*
X127269047Y-78479010D01*
X127269047Y-78479010D02*
X127245238Y-78502820D01*
X127245238Y-78502820D02*
X127197619Y-78526629D01*
X127197619Y-78526629D02*
X127078571Y-78526629D01*
X127078571Y-78526629D02*
X127030952Y-78502820D01*
X127030952Y-78502820D02*
X127007143Y-78479010D01*
X153166666Y-77626629D02*
X152928571Y-77626629D01*
X152928571Y-77626629D02*
X152928571Y-77126629D01*
X153285714Y-77126629D02*
X153595238Y-77126629D01*
X153595238Y-77126629D02*
X153428571Y-77317105D01*
X153428571Y-77317105D02*
X153500000Y-77317105D01*
X153500000Y-77317105D02*
X153547619Y-77340915D01*
X153547619Y-77340915D02*
X153571428Y-77364724D01*
X153571428Y-77364724D02*
X153595238Y-77412343D01*
X153595238Y-77412343D02*
X153595238Y-77531391D01*
X153595238Y-77531391D02*
X153571428Y-77579010D01*
X153571428Y-77579010D02*
X153547619Y-77602820D01*
X153547619Y-77602820D02*
X153500000Y-77626629D01*
X153500000Y-77626629D02*
X153357143Y-77626629D01*
X153357143Y-77626629D02*
X153309524Y-77602820D01*
X153309524Y-77602820D02*
X153285714Y-77579010D01*
X136129010Y-78283333D02*
X136152820Y-78307142D01*
X136152820Y-78307142D02*
X136176629Y-78378571D01*
X136176629Y-78378571D02*
X136176629Y-78426190D01*
X136176629Y-78426190D02*
X136152820Y-78497618D01*
X136152820Y-78497618D02*
X136105200Y-78545237D01*
X136105200Y-78545237D02*
X136057581Y-78569047D01*
X136057581Y-78569047D02*
X135962343Y-78592856D01*
X135962343Y-78592856D02*
X135890915Y-78592856D01*
X135890915Y-78592856D02*
X135795677Y-78569047D01*
X135795677Y-78569047D02*
X135748058Y-78545237D01*
X135748058Y-78545237D02*
X135700439Y-78497618D01*
X135700439Y-78497618D02*
X135676629Y-78426190D01*
X135676629Y-78426190D02*
X135676629Y-78378571D01*
X135676629Y-78378571D02*
X135700439Y-78307142D01*
X135700439Y-78307142D02*
X135724248Y-78283333D01*
X136176629Y-77807142D02*
X136176629Y-78092856D01*
X136176629Y-77949999D02*
X135676629Y-77949999D01*
X135676629Y-77949999D02*
X135748058Y-77997618D01*
X135748058Y-77997618D02*
X135795677Y-78045237D01*
X135795677Y-78045237D02*
X135819486Y-78092856D01*
X134969047Y-84826629D02*
X134969047Y-85231391D01*
X134969047Y-85231391D02*
X134992857Y-85279010D01*
X134992857Y-85279010D02*
X135016666Y-85302820D01*
X135016666Y-85302820D02*
X135064285Y-85326629D01*
X135064285Y-85326629D02*
X135159523Y-85326629D01*
X135159523Y-85326629D02*
X135207142Y-85302820D01*
X135207142Y-85302820D02*
X135230952Y-85279010D01*
X135230952Y-85279010D02*
X135254761Y-85231391D01*
X135254761Y-85231391D02*
X135254761Y-84826629D01*
X135469048Y-84874248D02*
X135492857Y-84850439D01*
X135492857Y-84850439D02*
X135540476Y-84826629D01*
X135540476Y-84826629D02*
X135659524Y-84826629D01*
X135659524Y-84826629D02*
X135707143Y-84850439D01*
X135707143Y-84850439D02*
X135730952Y-84874248D01*
X135730952Y-84874248D02*
X135754762Y-84921867D01*
X135754762Y-84921867D02*
X135754762Y-84969486D01*
X135754762Y-84969486D02*
X135730952Y-85040915D01*
X135730952Y-85040915D02*
X135445238Y-85326629D01*
X135445238Y-85326629D02*
X135754762Y-85326629D01*
X156166666Y-77626629D02*
X155928571Y-77626629D01*
X155928571Y-77626629D02*
X155928571Y-77126629D01*
X156595238Y-77626629D02*
X156309524Y-77626629D01*
X156452381Y-77626629D02*
X156452381Y-77126629D01*
X156452381Y-77126629D02*
X156404762Y-77198058D01*
X156404762Y-77198058D02*
X156357143Y-77245677D01*
X156357143Y-77245677D02*
X156309524Y-77269486D01*
X156898571Y-85879010D02*
X156874762Y-85902820D01*
X156874762Y-85902820D02*
X156803333Y-85926629D01*
X156803333Y-85926629D02*
X156755714Y-85926629D01*
X156755714Y-85926629D02*
X156684286Y-85902820D01*
X156684286Y-85902820D02*
X156636667Y-85855200D01*
X156636667Y-85855200D02*
X156612857Y-85807581D01*
X156612857Y-85807581D02*
X156589048Y-85712343D01*
X156589048Y-85712343D02*
X156589048Y-85640915D01*
X156589048Y-85640915D02*
X156612857Y-85545677D01*
X156612857Y-85545677D02*
X156636667Y-85498058D01*
X156636667Y-85498058D02*
X156684286Y-85450439D01*
X156684286Y-85450439D02*
X156755714Y-85426629D01*
X156755714Y-85426629D02*
X156803333Y-85426629D01*
X156803333Y-85426629D02*
X156874762Y-85450439D01*
X156874762Y-85450439D02*
X156898571Y-85474248D01*
X157374762Y-85926629D02*
X157089048Y-85926629D01*
X157231905Y-85926629D02*
X157231905Y-85426629D01*
X157231905Y-85426629D02*
X157184286Y-85498058D01*
X157184286Y-85498058D02*
X157136667Y-85545677D01*
X157136667Y-85545677D02*
X157089048Y-85569486D01*
X157803333Y-85426629D02*
X157708095Y-85426629D01*
X157708095Y-85426629D02*
X157660476Y-85450439D01*
X157660476Y-85450439D02*
X157636666Y-85474248D01*
X157636666Y-85474248D02*
X157589047Y-85545677D01*
X157589047Y-85545677D02*
X157565238Y-85640915D01*
X157565238Y-85640915D02*
X157565238Y-85831391D01*
X157565238Y-85831391D02*
X157589047Y-85879010D01*
X157589047Y-85879010D02*
X157612857Y-85902820D01*
X157612857Y-85902820D02*
X157660476Y-85926629D01*
X157660476Y-85926629D02*
X157755714Y-85926629D01*
X157755714Y-85926629D02*
X157803333Y-85902820D01*
X157803333Y-85902820D02*
X157827142Y-85879010D01*
X157827142Y-85879010D02*
X157850952Y-85831391D01*
X157850952Y-85831391D02*
X157850952Y-85712343D01*
X157850952Y-85712343D02*
X157827142Y-85664724D01*
X157827142Y-85664724D02*
X157803333Y-85640915D01*
X157803333Y-85640915D02*
X157755714Y-85617105D01*
X157755714Y-85617105D02*
X157660476Y-85617105D01*
X157660476Y-85617105D02*
X157612857Y-85640915D01*
X157612857Y-85640915D02*
X157589047Y-85664724D01*
X157589047Y-85664724D02*
X157565238Y-85712343D01*
X151980952Y-83826629D02*
X151980952Y-83326629D01*
X151980952Y-83326629D02*
X152100000Y-83326629D01*
X152100000Y-83326629D02*
X152171428Y-83350439D01*
X152171428Y-83350439D02*
X152219047Y-83398058D01*
X152219047Y-83398058D02*
X152242857Y-83445677D01*
X152242857Y-83445677D02*
X152266666Y-83540915D01*
X152266666Y-83540915D02*
X152266666Y-83612343D01*
X152266666Y-83612343D02*
X152242857Y-83707581D01*
X152242857Y-83707581D02*
X152219047Y-83755200D01*
X152219047Y-83755200D02*
X152171428Y-83802820D01*
X152171428Y-83802820D02*
X152100000Y-83826629D01*
X152100000Y-83826629D02*
X151980952Y-83826629D01*
X152433333Y-83326629D02*
X152742857Y-83326629D01*
X152742857Y-83326629D02*
X152576190Y-83517105D01*
X152576190Y-83517105D02*
X152647619Y-83517105D01*
X152647619Y-83517105D02*
X152695238Y-83540915D01*
X152695238Y-83540915D02*
X152719047Y-83564724D01*
X152719047Y-83564724D02*
X152742857Y-83612343D01*
X152742857Y-83612343D02*
X152742857Y-83731391D01*
X152742857Y-83731391D02*
X152719047Y-83779010D01*
X152719047Y-83779010D02*
X152695238Y-83802820D01*
X152695238Y-83802820D02*
X152647619Y-83826629D01*
X152647619Y-83826629D02*
X152504762Y-83826629D01*
X152504762Y-83826629D02*
X152457143Y-83802820D01*
X152457143Y-83802820D02*
X152433333Y-83779010D01*
X117679010Y-82671428D02*
X117702820Y-82695237D01*
X117702820Y-82695237D02*
X117726629Y-82766666D01*
X117726629Y-82766666D02*
X117726629Y-82814285D01*
X117726629Y-82814285D02*
X117702820Y-82885713D01*
X117702820Y-82885713D02*
X117655200Y-82933332D01*
X117655200Y-82933332D02*
X117607581Y-82957142D01*
X117607581Y-82957142D02*
X117512343Y-82980951D01*
X117512343Y-82980951D02*
X117440915Y-82980951D01*
X117440915Y-82980951D02*
X117345677Y-82957142D01*
X117345677Y-82957142D02*
X117298058Y-82933332D01*
X117298058Y-82933332D02*
X117250439Y-82885713D01*
X117250439Y-82885713D02*
X117226629Y-82814285D01*
X117226629Y-82814285D02*
X117226629Y-82766666D01*
X117226629Y-82766666D02*
X117250439Y-82695237D01*
X117250439Y-82695237D02*
X117274248Y-82671428D01*
X117726629Y-82195237D02*
X117726629Y-82480951D01*
X117726629Y-82338094D02*
X117226629Y-82338094D01*
X117226629Y-82338094D02*
X117298058Y-82385713D01*
X117298058Y-82385713D02*
X117345677Y-82433332D01*
X117345677Y-82433332D02*
X117369486Y-82480951D01*
X117226629Y-81885714D02*
X117226629Y-81838095D01*
X117226629Y-81838095D02*
X117250439Y-81790476D01*
X117250439Y-81790476D02*
X117274248Y-81766666D01*
X117274248Y-81766666D02*
X117321867Y-81742857D01*
X117321867Y-81742857D02*
X117417105Y-81719047D01*
X117417105Y-81719047D02*
X117536153Y-81719047D01*
X117536153Y-81719047D02*
X117631391Y-81742857D01*
X117631391Y-81742857D02*
X117679010Y-81766666D01*
X117679010Y-81766666D02*
X117702820Y-81790476D01*
X117702820Y-81790476D02*
X117726629Y-81838095D01*
X117726629Y-81838095D02*
X117726629Y-81885714D01*
X117726629Y-81885714D02*
X117702820Y-81933333D01*
X117702820Y-81933333D02*
X117679010Y-81957142D01*
X117679010Y-81957142D02*
X117631391Y-81980952D01*
X117631391Y-81980952D02*
X117536153Y-82004761D01*
X117536153Y-82004761D02*
X117417105Y-82004761D01*
X117417105Y-82004761D02*
X117321867Y-81980952D01*
X117321867Y-81980952D02*
X117274248Y-81957142D01*
X117274248Y-81957142D02*
X117250439Y-81933333D01*
X117250439Y-81933333D02*
X117226629Y-81885714D01*
X158628571Y-85979010D02*
X158604762Y-86002820D01*
X158604762Y-86002820D02*
X158533333Y-86026629D01*
X158533333Y-86026629D02*
X158485714Y-86026629D01*
X158485714Y-86026629D02*
X158414286Y-86002820D01*
X158414286Y-86002820D02*
X158366667Y-85955200D01*
X158366667Y-85955200D02*
X158342857Y-85907581D01*
X158342857Y-85907581D02*
X158319048Y-85812343D01*
X158319048Y-85812343D02*
X158319048Y-85740915D01*
X158319048Y-85740915D02*
X158342857Y-85645677D01*
X158342857Y-85645677D02*
X158366667Y-85598058D01*
X158366667Y-85598058D02*
X158414286Y-85550439D01*
X158414286Y-85550439D02*
X158485714Y-85526629D01*
X158485714Y-85526629D02*
X158533333Y-85526629D01*
X158533333Y-85526629D02*
X158604762Y-85550439D01*
X158604762Y-85550439D02*
X158628571Y-85574248D01*
X159104762Y-86026629D02*
X158819048Y-86026629D01*
X158961905Y-86026629D02*
X158961905Y-85526629D01*
X158961905Y-85526629D02*
X158914286Y-85598058D01*
X158914286Y-85598058D02*
X158866667Y-85645677D01*
X158866667Y-85645677D02*
X158819048Y-85669486D01*
X159390476Y-85740915D02*
X159342857Y-85717105D01*
X159342857Y-85717105D02*
X159319047Y-85693296D01*
X159319047Y-85693296D02*
X159295238Y-85645677D01*
X159295238Y-85645677D02*
X159295238Y-85621867D01*
X159295238Y-85621867D02*
X159319047Y-85574248D01*
X159319047Y-85574248D02*
X159342857Y-85550439D01*
X159342857Y-85550439D02*
X159390476Y-85526629D01*
X159390476Y-85526629D02*
X159485714Y-85526629D01*
X159485714Y-85526629D02*
X159533333Y-85550439D01*
X159533333Y-85550439D02*
X159557142Y-85574248D01*
X159557142Y-85574248D02*
X159580952Y-85621867D01*
X159580952Y-85621867D02*
X159580952Y-85645677D01*
X159580952Y-85645677D02*
X159557142Y-85693296D01*
X159557142Y-85693296D02*
X159533333Y-85717105D01*
X159533333Y-85717105D02*
X159485714Y-85740915D01*
X159485714Y-85740915D02*
X159390476Y-85740915D01*
X159390476Y-85740915D02*
X159342857Y-85764724D01*
X159342857Y-85764724D02*
X159319047Y-85788534D01*
X159319047Y-85788534D02*
X159295238Y-85836153D01*
X159295238Y-85836153D02*
X159295238Y-85931391D01*
X159295238Y-85931391D02*
X159319047Y-85979010D01*
X159319047Y-85979010D02*
X159342857Y-86002820D01*
X159342857Y-86002820D02*
X159390476Y-86026629D01*
X159390476Y-86026629D02*
X159485714Y-86026629D01*
X159485714Y-86026629D02*
X159533333Y-86002820D01*
X159533333Y-86002820D02*
X159557142Y-85979010D01*
X159557142Y-85979010D02*
X159580952Y-85931391D01*
X159580952Y-85931391D02*
X159580952Y-85836153D01*
X159580952Y-85836153D02*
X159557142Y-85788534D01*
X159557142Y-85788534D02*
X159533333Y-85764724D01*
X159533333Y-85764724D02*
X159485714Y-85740915D01*
X124406666Y-80016629D02*
X124240000Y-79778534D01*
X124120952Y-80016629D02*
X124120952Y-79516629D01*
X124120952Y-79516629D02*
X124311428Y-79516629D01*
X124311428Y-79516629D02*
X124359047Y-79540439D01*
X124359047Y-79540439D02*
X124382857Y-79564248D01*
X124382857Y-79564248D02*
X124406666Y-79611867D01*
X124406666Y-79611867D02*
X124406666Y-79683296D01*
X124406666Y-79683296D02*
X124382857Y-79730915D01*
X124382857Y-79730915D02*
X124359047Y-79754724D01*
X124359047Y-79754724D02*
X124311428Y-79778534D01*
X124311428Y-79778534D02*
X124120952Y-79778534D01*
X124835238Y-79516629D02*
X124740000Y-79516629D01*
X124740000Y-79516629D02*
X124692381Y-79540439D01*
X124692381Y-79540439D02*
X124668571Y-79564248D01*
X124668571Y-79564248D02*
X124620952Y-79635677D01*
X124620952Y-79635677D02*
X124597143Y-79730915D01*
X124597143Y-79730915D02*
X124597143Y-79921391D01*
X124597143Y-79921391D02*
X124620952Y-79969010D01*
X124620952Y-79969010D02*
X124644762Y-79992820D01*
X124644762Y-79992820D02*
X124692381Y-80016629D01*
X124692381Y-80016629D02*
X124787619Y-80016629D01*
X124787619Y-80016629D02*
X124835238Y-79992820D01*
X124835238Y-79992820D02*
X124859047Y-79969010D01*
X124859047Y-79969010D02*
X124882857Y-79921391D01*
X124882857Y-79921391D02*
X124882857Y-79802343D01*
X124882857Y-79802343D02*
X124859047Y-79754724D01*
X124859047Y-79754724D02*
X124835238Y-79730915D01*
X124835238Y-79730915D02*
X124787619Y-79707105D01*
X124787619Y-79707105D02*
X124692381Y-79707105D01*
X124692381Y-79707105D02*
X124644762Y-79730915D01*
X124644762Y-79730915D02*
X124620952Y-79754724D01*
X124620952Y-79754724D02*
X124597143Y-79802343D01*
X149428571Y-83126629D02*
X149261905Y-82888534D01*
X149142857Y-83126629D02*
X149142857Y-82626629D01*
X149142857Y-82626629D02*
X149333333Y-82626629D01*
X149333333Y-82626629D02*
X149380952Y-82650439D01*
X149380952Y-82650439D02*
X149404762Y-82674248D01*
X149404762Y-82674248D02*
X149428571Y-82721867D01*
X149428571Y-82721867D02*
X149428571Y-82793296D01*
X149428571Y-82793296D02*
X149404762Y-82840915D01*
X149404762Y-82840915D02*
X149380952Y-82864724D01*
X149380952Y-82864724D02*
X149333333Y-82888534D01*
X149333333Y-82888534D02*
X149142857Y-82888534D01*
X149904762Y-83126629D02*
X149619048Y-83126629D01*
X149761905Y-83126629D02*
X149761905Y-82626629D01*
X149761905Y-82626629D02*
X149714286Y-82698058D01*
X149714286Y-82698058D02*
X149666667Y-82745677D01*
X149666667Y-82745677D02*
X149619048Y-82769486D01*
X150380952Y-83126629D02*
X150095238Y-83126629D01*
X150238095Y-83126629D02*
X150238095Y-82626629D01*
X150238095Y-82626629D02*
X150190476Y-82698058D01*
X150190476Y-82698058D02*
X150142857Y-82745677D01*
X150142857Y-82745677D02*
X150095238Y-82769486D01*
X150228571Y-78526629D02*
X150061905Y-78288534D01*
X149942857Y-78526629D02*
X149942857Y-78026629D01*
X149942857Y-78026629D02*
X150133333Y-78026629D01*
X150133333Y-78026629D02*
X150180952Y-78050439D01*
X150180952Y-78050439D02*
X150204762Y-78074248D01*
X150204762Y-78074248D02*
X150228571Y-78121867D01*
X150228571Y-78121867D02*
X150228571Y-78193296D01*
X150228571Y-78193296D02*
X150204762Y-78240915D01*
X150204762Y-78240915D02*
X150180952Y-78264724D01*
X150180952Y-78264724D02*
X150133333Y-78288534D01*
X150133333Y-78288534D02*
X149942857Y-78288534D01*
X150704762Y-78526629D02*
X150419048Y-78526629D01*
X150561905Y-78526629D02*
X150561905Y-78026629D01*
X150561905Y-78026629D02*
X150514286Y-78098058D01*
X150514286Y-78098058D02*
X150466667Y-78145677D01*
X150466667Y-78145677D02*
X150419048Y-78169486D01*
X150895238Y-78074248D02*
X150919047Y-78050439D01*
X150919047Y-78050439D02*
X150966666Y-78026629D01*
X150966666Y-78026629D02*
X151085714Y-78026629D01*
X151085714Y-78026629D02*
X151133333Y-78050439D01*
X151133333Y-78050439D02*
X151157142Y-78074248D01*
X151157142Y-78074248D02*
X151180952Y-78121867D01*
X151180952Y-78121867D02*
X151180952Y-78169486D01*
X151180952Y-78169486D02*
X151157142Y-78240915D01*
X151157142Y-78240915D02*
X150871428Y-78526629D01*
X150871428Y-78526629D02*
X151180952Y-78526629D01*
X137866666Y-81526629D02*
X137700000Y-81288534D01*
X137580952Y-81526629D02*
X137580952Y-81026629D01*
X137580952Y-81026629D02*
X137771428Y-81026629D01*
X137771428Y-81026629D02*
X137819047Y-81050439D01*
X137819047Y-81050439D02*
X137842857Y-81074248D01*
X137842857Y-81074248D02*
X137866666Y-81121867D01*
X137866666Y-81121867D02*
X137866666Y-81193296D01*
X137866666Y-81193296D02*
X137842857Y-81240915D01*
X137842857Y-81240915D02*
X137819047Y-81264724D01*
X137819047Y-81264724D02*
X137771428Y-81288534D01*
X137771428Y-81288534D02*
X137580952Y-81288534D01*
X138033333Y-81026629D02*
X138366666Y-81026629D01*
X138366666Y-81026629D02*
X138152381Y-81526629D01*
X117726629Y-76633333D02*
X117488534Y-76799999D01*
X117726629Y-76919047D02*
X117226629Y-76919047D01*
X117226629Y-76919047D02*
X117226629Y-76728571D01*
X117226629Y-76728571D02*
X117250439Y-76680952D01*
X117250439Y-76680952D02*
X117274248Y-76657142D01*
X117274248Y-76657142D02*
X117321867Y-76633333D01*
X117321867Y-76633333D02*
X117393296Y-76633333D01*
X117393296Y-76633333D02*
X117440915Y-76657142D01*
X117440915Y-76657142D02*
X117464724Y-76680952D01*
X117464724Y-76680952D02*
X117488534Y-76728571D01*
X117488534Y-76728571D02*
X117488534Y-76919047D01*
X117440915Y-76347618D02*
X117417105Y-76395237D01*
X117417105Y-76395237D02*
X117393296Y-76419047D01*
X117393296Y-76419047D02*
X117345677Y-76442856D01*
X117345677Y-76442856D02*
X117321867Y-76442856D01*
X117321867Y-76442856D02*
X117274248Y-76419047D01*
X117274248Y-76419047D02*
X117250439Y-76395237D01*
X117250439Y-76395237D02*
X117226629Y-76347618D01*
X117226629Y-76347618D02*
X117226629Y-76252380D01*
X117226629Y-76252380D02*
X117250439Y-76204761D01*
X117250439Y-76204761D02*
X117274248Y-76180952D01*
X117274248Y-76180952D02*
X117321867Y-76157142D01*
X117321867Y-76157142D02*
X117345677Y-76157142D01*
X117345677Y-76157142D02*
X117393296Y-76180952D01*
X117393296Y-76180952D02*
X117417105Y-76204761D01*
X117417105Y-76204761D02*
X117440915Y-76252380D01*
X117440915Y-76252380D02*
X117440915Y-76347618D01*
X117440915Y-76347618D02*
X117464724Y-76395237D01*
X117464724Y-76395237D02*
X117488534Y-76419047D01*
X117488534Y-76419047D02*
X117536153Y-76442856D01*
X117536153Y-76442856D02*
X117631391Y-76442856D01*
X117631391Y-76442856D02*
X117679010Y-76419047D01*
X117679010Y-76419047D02*
X117702820Y-76395237D01*
X117702820Y-76395237D02*
X117726629Y-76347618D01*
X117726629Y-76347618D02*
X117726629Y-76252380D01*
X117726629Y-76252380D02*
X117702820Y-76204761D01*
X117702820Y-76204761D02*
X117679010Y-76180952D01*
X117679010Y-76180952D02*
X117631391Y-76157142D01*
X117631391Y-76157142D02*
X117536153Y-76157142D01*
X117536153Y-76157142D02*
X117488534Y-76180952D01*
X117488534Y-76180952D02*
X117464724Y-76204761D01*
X117464724Y-76204761D02*
X117440915Y-76252380D01*
X160228571Y-85086629D02*
X160061905Y-84848534D01*
X159942857Y-85086629D02*
X159942857Y-84586629D01*
X159942857Y-84586629D02*
X160133333Y-84586629D01*
X160133333Y-84586629D02*
X160180952Y-84610439D01*
X160180952Y-84610439D02*
X160204762Y-84634248D01*
X160204762Y-84634248D02*
X160228571Y-84681867D01*
X160228571Y-84681867D02*
X160228571Y-84753296D01*
X160228571Y-84753296D02*
X160204762Y-84800915D01*
X160204762Y-84800915D02*
X160180952Y-84824724D01*
X160180952Y-84824724D02*
X160133333Y-84848534D01*
X160133333Y-84848534D02*
X159942857Y-84848534D01*
X160704762Y-85086629D02*
X160419048Y-85086629D01*
X160561905Y-85086629D02*
X160561905Y-84586629D01*
X160561905Y-84586629D02*
X160514286Y-84658058D01*
X160514286Y-84658058D02*
X160466667Y-84705677D01*
X160466667Y-84705677D02*
X160419048Y-84729486D01*
X161157142Y-84586629D02*
X160919047Y-84586629D01*
X160919047Y-84586629D02*
X160895238Y-84824724D01*
X160895238Y-84824724D02*
X160919047Y-84800915D01*
X160919047Y-84800915D02*
X160966666Y-84777105D01*
X160966666Y-84777105D02*
X161085714Y-84777105D01*
X161085714Y-84777105D02*
X161133333Y-84800915D01*
X161133333Y-84800915D02*
X161157142Y-84824724D01*
X161157142Y-84824724D02*
X161180952Y-84872343D01*
X161180952Y-84872343D02*
X161180952Y-84991391D01*
X161180952Y-84991391D02*
X161157142Y-85039010D01*
X161157142Y-85039010D02*
X161133333Y-85062820D01*
X161133333Y-85062820D02*
X161085714Y-85086629D01*
X161085714Y-85086629D02*
X160966666Y-85086629D01*
X160966666Y-85086629D02*
X160919047Y-85062820D01*
X160919047Y-85062820D02*
X160895238Y-85039010D01*
X154228571Y-78379010D02*
X154204762Y-78402820D01*
X154204762Y-78402820D02*
X154133333Y-78426629D01*
X154133333Y-78426629D02*
X154085714Y-78426629D01*
X154085714Y-78426629D02*
X154014286Y-78402820D01*
X154014286Y-78402820D02*
X153966667Y-78355200D01*
X153966667Y-78355200D02*
X153942857Y-78307581D01*
X153942857Y-78307581D02*
X153919048Y-78212343D01*
X153919048Y-78212343D02*
X153919048Y-78140915D01*
X153919048Y-78140915D02*
X153942857Y-78045677D01*
X153942857Y-78045677D02*
X153966667Y-77998058D01*
X153966667Y-77998058D02*
X154014286Y-77950439D01*
X154014286Y-77950439D02*
X154085714Y-77926629D01*
X154085714Y-77926629D02*
X154133333Y-77926629D01*
X154133333Y-77926629D02*
X154204762Y-77950439D01*
X154204762Y-77950439D02*
X154228571Y-77974248D01*
X154419048Y-77974248D02*
X154442857Y-77950439D01*
X154442857Y-77950439D02*
X154490476Y-77926629D01*
X154490476Y-77926629D02*
X154609524Y-77926629D01*
X154609524Y-77926629D02*
X154657143Y-77950439D01*
X154657143Y-77950439D02*
X154680952Y-77974248D01*
X154680952Y-77974248D02*
X154704762Y-78021867D01*
X154704762Y-78021867D02*
X154704762Y-78069486D01*
X154704762Y-78069486D02*
X154680952Y-78140915D01*
X154680952Y-78140915D02*
X154395238Y-78426629D01*
X154395238Y-78426629D02*
X154704762Y-78426629D01*
X155133333Y-77926629D02*
X155038095Y-77926629D01*
X155038095Y-77926629D02*
X154990476Y-77950439D01*
X154990476Y-77950439D02*
X154966666Y-77974248D01*
X154966666Y-77974248D02*
X154919047Y-78045677D01*
X154919047Y-78045677D02*
X154895238Y-78140915D01*
X154895238Y-78140915D02*
X154895238Y-78331391D01*
X154895238Y-78331391D02*
X154919047Y-78379010D01*
X154919047Y-78379010D02*
X154942857Y-78402820D01*
X154942857Y-78402820D02*
X154990476Y-78426629D01*
X154990476Y-78426629D02*
X155085714Y-78426629D01*
X155085714Y-78426629D02*
X155133333Y-78402820D01*
X155133333Y-78402820D02*
X155157142Y-78379010D01*
X155157142Y-78379010D02*
X155180952Y-78331391D01*
X155180952Y-78331391D02*
X155180952Y-78212343D01*
X155180952Y-78212343D02*
X155157142Y-78164724D01*
X155157142Y-78164724D02*
X155133333Y-78140915D01*
X155133333Y-78140915D02*
X155085714Y-78117105D01*
X155085714Y-78117105D02*
X154990476Y-78117105D01*
X154990476Y-78117105D02*
X154942857Y-78140915D01*
X154942857Y-78140915D02*
X154919047Y-78164724D01*
X154919047Y-78164724D02*
X154895238Y-78212343D01*
X167678571Y-79476629D02*
X167511905Y-79238534D01*
X167392857Y-79476629D02*
X167392857Y-78976629D01*
X167392857Y-78976629D02*
X167583333Y-78976629D01*
X167583333Y-78976629D02*
X167630952Y-79000439D01*
X167630952Y-79000439D02*
X167654762Y-79024248D01*
X167654762Y-79024248D02*
X167678571Y-79071867D01*
X167678571Y-79071867D02*
X167678571Y-79143296D01*
X167678571Y-79143296D02*
X167654762Y-79190915D01*
X167654762Y-79190915D02*
X167630952Y-79214724D01*
X167630952Y-79214724D02*
X167583333Y-79238534D01*
X167583333Y-79238534D02*
X167392857Y-79238534D01*
X168154762Y-79476629D02*
X167869048Y-79476629D01*
X168011905Y-79476629D02*
X168011905Y-78976629D01*
X168011905Y-78976629D02*
X167964286Y-79048058D01*
X167964286Y-79048058D02*
X167916667Y-79095677D01*
X167916667Y-79095677D02*
X167869048Y-79119486D01*
X168440476Y-79190915D02*
X168392857Y-79167105D01*
X168392857Y-79167105D02*
X168369047Y-79143296D01*
X168369047Y-79143296D02*
X168345238Y-79095677D01*
X168345238Y-79095677D02*
X168345238Y-79071867D01*
X168345238Y-79071867D02*
X168369047Y-79024248D01*
X168369047Y-79024248D02*
X168392857Y-79000439D01*
X168392857Y-79000439D02*
X168440476Y-78976629D01*
X168440476Y-78976629D02*
X168535714Y-78976629D01*
X168535714Y-78976629D02*
X168583333Y-79000439D01*
X168583333Y-79000439D02*
X168607142Y-79024248D01*
X168607142Y-79024248D02*
X168630952Y-79071867D01*
X168630952Y-79071867D02*
X168630952Y-79095677D01*
X168630952Y-79095677D02*
X168607142Y-79143296D01*
X168607142Y-79143296D02*
X168583333Y-79167105D01*
X168583333Y-79167105D02*
X168535714Y-79190915D01*
X168535714Y-79190915D02*
X168440476Y-79190915D01*
X168440476Y-79190915D02*
X168392857Y-79214724D01*
X168392857Y-79214724D02*
X168369047Y-79238534D01*
X168369047Y-79238534D02*
X168345238Y-79286153D01*
X168345238Y-79286153D02*
X168345238Y-79381391D01*
X168345238Y-79381391D02*
X168369047Y-79429010D01*
X168369047Y-79429010D02*
X168392857Y-79452820D01*
X168392857Y-79452820D02*
X168440476Y-79476629D01*
X168440476Y-79476629D02*
X168535714Y-79476629D01*
X168535714Y-79476629D02*
X168583333Y-79452820D01*
X168583333Y-79452820D02*
X168607142Y-79429010D01*
X168607142Y-79429010D02*
X168630952Y-79381391D01*
X168630952Y-79381391D02*
X168630952Y-79286153D01*
X168630952Y-79286153D02*
X168607142Y-79238534D01*
X168607142Y-79238534D02*
X168583333Y-79214724D01*
X168583333Y-79214724D02*
X168535714Y-79190915D01*
X125728571Y-76429010D02*
X125704762Y-76452820D01*
X125704762Y-76452820D02*
X125633333Y-76476629D01*
X125633333Y-76476629D02*
X125585714Y-76476629D01*
X125585714Y-76476629D02*
X125514286Y-76452820D01*
X125514286Y-76452820D02*
X125466667Y-76405200D01*
X125466667Y-76405200D02*
X125442857Y-76357581D01*
X125442857Y-76357581D02*
X125419048Y-76262343D01*
X125419048Y-76262343D02*
X125419048Y-76190915D01*
X125419048Y-76190915D02*
X125442857Y-76095677D01*
X125442857Y-76095677D02*
X125466667Y-76048058D01*
X125466667Y-76048058D02*
X125514286Y-76000439D01*
X125514286Y-76000439D02*
X125585714Y-75976629D01*
X125585714Y-75976629D02*
X125633333Y-75976629D01*
X125633333Y-75976629D02*
X125704762Y-76000439D01*
X125704762Y-76000439D02*
X125728571Y-76024248D01*
X126204762Y-76476629D02*
X125919048Y-76476629D01*
X126061905Y-76476629D02*
X126061905Y-75976629D01*
X126061905Y-75976629D02*
X126014286Y-76048058D01*
X126014286Y-76048058D02*
X125966667Y-76095677D01*
X125966667Y-76095677D02*
X125919048Y-76119486D01*
X126680952Y-76476629D02*
X126395238Y-76476629D01*
X126538095Y-76476629D02*
X126538095Y-75976629D01*
X126538095Y-75976629D02*
X126490476Y-76048058D01*
X126490476Y-76048058D02*
X126442857Y-76095677D01*
X126442857Y-76095677D02*
X126395238Y-76119486D01*
X120828571Y-84726629D02*
X120661905Y-84488534D01*
X120542857Y-84726629D02*
X120542857Y-84226629D01*
X120542857Y-84226629D02*
X120733333Y-84226629D01*
X120733333Y-84226629D02*
X120780952Y-84250439D01*
X120780952Y-84250439D02*
X120804762Y-84274248D01*
X120804762Y-84274248D02*
X120828571Y-84321867D01*
X120828571Y-84321867D02*
X120828571Y-84393296D01*
X120828571Y-84393296D02*
X120804762Y-84440915D01*
X120804762Y-84440915D02*
X120780952Y-84464724D01*
X120780952Y-84464724D02*
X120733333Y-84488534D01*
X120733333Y-84488534D02*
X120542857Y-84488534D01*
X121304762Y-84726629D02*
X121019048Y-84726629D01*
X121161905Y-84726629D02*
X121161905Y-84226629D01*
X121161905Y-84226629D02*
X121114286Y-84298058D01*
X121114286Y-84298058D02*
X121066667Y-84345677D01*
X121066667Y-84345677D02*
X121019048Y-84369486D01*
X121614285Y-84226629D02*
X121661904Y-84226629D01*
X121661904Y-84226629D02*
X121709523Y-84250439D01*
X121709523Y-84250439D02*
X121733333Y-84274248D01*
X121733333Y-84274248D02*
X121757142Y-84321867D01*
X121757142Y-84321867D02*
X121780952Y-84417105D01*
X121780952Y-84417105D02*
X121780952Y-84536153D01*
X121780952Y-84536153D02*
X121757142Y-84631391D01*
X121757142Y-84631391D02*
X121733333Y-84679010D01*
X121733333Y-84679010D02*
X121709523Y-84702820D01*
X121709523Y-84702820D02*
X121661904Y-84726629D01*
X121661904Y-84726629D02*
X121614285Y-84726629D01*
X121614285Y-84726629D02*
X121566666Y-84702820D01*
X121566666Y-84702820D02*
X121542857Y-84679010D01*
X121542857Y-84679010D02*
X121519047Y-84631391D01*
X121519047Y-84631391D02*
X121495238Y-84536153D01*
X121495238Y-84536153D02*
X121495238Y-84417105D01*
X121495238Y-84417105D02*
X121519047Y-84321867D01*
X121519047Y-84321867D02*
X121542857Y-84274248D01*
X121542857Y-84274248D02*
X121566666Y-84250439D01*
X121566666Y-84250439D02*
X121614285Y-84226629D01*
X133728571Y-85929010D02*
X133704762Y-85952820D01*
X133704762Y-85952820D02*
X133633333Y-85976629D01*
X133633333Y-85976629D02*
X133585714Y-85976629D01*
X133585714Y-85976629D02*
X133514286Y-85952820D01*
X133514286Y-85952820D02*
X133466667Y-85905200D01*
X133466667Y-85905200D02*
X133442857Y-85857581D01*
X133442857Y-85857581D02*
X133419048Y-85762343D01*
X133419048Y-85762343D02*
X133419048Y-85690915D01*
X133419048Y-85690915D02*
X133442857Y-85595677D01*
X133442857Y-85595677D02*
X133466667Y-85548058D01*
X133466667Y-85548058D02*
X133514286Y-85500439D01*
X133514286Y-85500439D02*
X133585714Y-85476629D01*
X133585714Y-85476629D02*
X133633333Y-85476629D01*
X133633333Y-85476629D02*
X133704762Y-85500439D01*
X133704762Y-85500439D02*
X133728571Y-85524248D01*
X134204762Y-85976629D02*
X133919048Y-85976629D01*
X134061905Y-85976629D02*
X134061905Y-85476629D01*
X134061905Y-85476629D02*
X134014286Y-85548058D01*
X134014286Y-85548058D02*
X133966667Y-85595677D01*
X133966667Y-85595677D02*
X133919048Y-85619486D01*
X134395238Y-85524248D02*
X134419047Y-85500439D01*
X134419047Y-85500439D02*
X134466666Y-85476629D01*
X134466666Y-85476629D02*
X134585714Y-85476629D01*
X134585714Y-85476629D02*
X134633333Y-85500439D01*
X134633333Y-85500439D02*
X134657142Y-85524248D01*
X134657142Y-85524248D02*
X134680952Y-85571867D01*
X134680952Y-85571867D02*
X134680952Y-85619486D01*
X134680952Y-85619486D02*
X134657142Y-85690915D01*
X134657142Y-85690915D02*
X134371428Y-85976629D01*
X134371428Y-85976629D02*
X134680952Y-85976629D01*
X146799010Y-84121428D02*
X146822820Y-84145237D01*
X146822820Y-84145237D02*
X146846629Y-84216666D01*
X146846629Y-84216666D02*
X146846629Y-84264285D01*
X146846629Y-84264285D02*
X146822820Y-84335713D01*
X146822820Y-84335713D02*
X146775200Y-84383332D01*
X146775200Y-84383332D02*
X146727581Y-84407142D01*
X146727581Y-84407142D02*
X146632343Y-84430951D01*
X146632343Y-84430951D02*
X146560915Y-84430951D01*
X146560915Y-84430951D02*
X146465677Y-84407142D01*
X146465677Y-84407142D02*
X146418058Y-84383332D01*
X146418058Y-84383332D02*
X146370439Y-84335713D01*
X146370439Y-84335713D02*
X146346629Y-84264285D01*
X146346629Y-84264285D02*
X146346629Y-84216666D01*
X146346629Y-84216666D02*
X146370439Y-84145237D01*
X146370439Y-84145237D02*
X146394248Y-84121428D01*
X146394248Y-83930951D02*
X146370439Y-83907142D01*
X146370439Y-83907142D02*
X146346629Y-83859523D01*
X146346629Y-83859523D02*
X146346629Y-83740475D01*
X146346629Y-83740475D02*
X146370439Y-83692856D01*
X146370439Y-83692856D02*
X146394248Y-83669047D01*
X146394248Y-83669047D02*
X146441867Y-83645237D01*
X146441867Y-83645237D02*
X146489486Y-83645237D01*
X146489486Y-83645237D02*
X146560915Y-83669047D01*
X146560915Y-83669047D02*
X146846629Y-83954761D01*
X146846629Y-83954761D02*
X146846629Y-83645237D01*
X146346629Y-83478571D02*
X146346629Y-83169047D01*
X146346629Y-83169047D02*
X146537105Y-83335714D01*
X146537105Y-83335714D02*
X146537105Y-83264285D01*
X146537105Y-83264285D02*
X146560915Y-83216666D01*
X146560915Y-83216666D02*
X146584724Y-83192857D01*
X146584724Y-83192857D02*
X146632343Y-83169047D01*
X146632343Y-83169047D02*
X146751391Y-83169047D01*
X146751391Y-83169047D02*
X146799010Y-83192857D01*
X146799010Y-83192857D02*
X146822820Y-83216666D01*
X146822820Y-83216666D02*
X146846629Y-83264285D01*
X146846629Y-83264285D02*
X146846629Y-83407142D01*
X146846629Y-83407142D02*
X146822820Y-83454761D01*
X146822820Y-83454761D02*
X146799010Y-83478571D01*
X138728571Y-79979010D02*
X138704762Y-80002820D01*
X138704762Y-80002820D02*
X138633333Y-80026629D01*
X138633333Y-80026629D02*
X138585714Y-80026629D01*
X138585714Y-80026629D02*
X138514286Y-80002820D01*
X138514286Y-80002820D02*
X138466667Y-79955200D01*
X138466667Y-79955200D02*
X138442857Y-79907581D01*
X138442857Y-79907581D02*
X138419048Y-79812343D01*
X138419048Y-79812343D02*
X138419048Y-79740915D01*
X138419048Y-79740915D02*
X138442857Y-79645677D01*
X138442857Y-79645677D02*
X138466667Y-79598058D01*
X138466667Y-79598058D02*
X138514286Y-79550439D01*
X138514286Y-79550439D02*
X138585714Y-79526629D01*
X138585714Y-79526629D02*
X138633333Y-79526629D01*
X138633333Y-79526629D02*
X138704762Y-79550439D01*
X138704762Y-79550439D02*
X138728571Y-79574248D01*
X139204762Y-80026629D02*
X138919048Y-80026629D01*
X139061905Y-80026629D02*
X139061905Y-79526629D01*
X139061905Y-79526629D02*
X139014286Y-79598058D01*
X139014286Y-79598058D02*
X138966667Y-79645677D01*
X138966667Y-79645677D02*
X138919048Y-79669486D01*
X139371428Y-79526629D02*
X139680952Y-79526629D01*
X139680952Y-79526629D02*
X139514285Y-79717105D01*
X139514285Y-79717105D02*
X139585714Y-79717105D01*
X139585714Y-79717105D02*
X139633333Y-79740915D01*
X139633333Y-79740915D02*
X139657142Y-79764724D01*
X139657142Y-79764724D02*
X139680952Y-79812343D01*
X139680952Y-79812343D02*
X139680952Y-79931391D01*
X139680952Y-79931391D02*
X139657142Y-79979010D01*
X139657142Y-79979010D02*
X139633333Y-80002820D01*
X139633333Y-80002820D02*
X139585714Y-80026629D01*
X139585714Y-80026629D02*
X139442857Y-80026629D01*
X139442857Y-80026629D02*
X139395238Y-80002820D01*
X139395238Y-80002820D02*
X139371428Y-79979010D01*
X159428571Y-77279010D02*
X159404762Y-77302820D01*
X159404762Y-77302820D02*
X159333333Y-77326629D01*
X159333333Y-77326629D02*
X159285714Y-77326629D01*
X159285714Y-77326629D02*
X159214286Y-77302820D01*
X159214286Y-77302820D02*
X159166667Y-77255200D01*
X159166667Y-77255200D02*
X159142857Y-77207581D01*
X159142857Y-77207581D02*
X159119048Y-77112343D01*
X159119048Y-77112343D02*
X159119048Y-77040915D01*
X159119048Y-77040915D02*
X159142857Y-76945677D01*
X159142857Y-76945677D02*
X159166667Y-76898058D01*
X159166667Y-76898058D02*
X159214286Y-76850439D01*
X159214286Y-76850439D02*
X159285714Y-76826629D01*
X159285714Y-76826629D02*
X159333333Y-76826629D01*
X159333333Y-76826629D02*
X159404762Y-76850439D01*
X159404762Y-76850439D02*
X159428571Y-76874248D01*
X159619048Y-76874248D02*
X159642857Y-76850439D01*
X159642857Y-76850439D02*
X159690476Y-76826629D01*
X159690476Y-76826629D02*
X159809524Y-76826629D01*
X159809524Y-76826629D02*
X159857143Y-76850439D01*
X159857143Y-76850439D02*
X159880952Y-76874248D01*
X159880952Y-76874248D02*
X159904762Y-76921867D01*
X159904762Y-76921867D02*
X159904762Y-76969486D01*
X159904762Y-76969486D02*
X159880952Y-77040915D01*
X159880952Y-77040915D02*
X159595238Y-77326629D01*
X159595238Y-77326629D02*
X159904762Y-77326629D01*
X160357142Y-76826629D02*
X160119047Y-76826629D01*
X160119047Y-76826629D02*
X160095238Y-77064724D01*
X160095238Y-77064724D02*
X160119047Y-77040915D01*
X160119047Y-77040915D02*
X160166666Y-77017105D01*
X160166666Y-77017105D02*
X160285714Y-77017105D01*
X160285714Y-77017105D02*
X160333333Y-77040915D01*
X160333333Y-77040915D02*
X160357142Y-77064724D01*
X160357142Y-77064724D02*
X160380952Y-77112343D01*
X160380952Y-77112343D02*
X160380952Y-77231391D01*
X160380952Y-77231391D02*
X160357142Y-77279010D01*
X160357142Y-77279010D02*
X160333333Y-77302820D01*
X160333333Y-77302820D02*
X160285714Y-77326629D01*
X160285714Y-77326629D02*
X160166666Y-77326629D01*
X160166666Y-77326629D02*
X160119047Y-77302820D01*
X160119047Y-77302820D02*
X160095238Y-77279010D01*
X116919047Y-80570379D02*
X116919047Y-80975141D01*
X116919047Y-80975141D02*
X116942857Y-81022760D01*
X116942857Y-81022760D02*
X116966666Y-81046570D01*
X116966666Y-81046570D02*
X117014285Y-81070379D01*
X117014285Y-81070379D02*
X117109523Y-81070379D01*
X117109523Y-81070379D02*
X117157142Y-81046570D01*
X117157142Y-81046570D02*
X117180952Y-81022760D01*
X117180952Y-81022760D02*
X117204761Y-80975141D01*
X117204761Y-80975141D02*
X117204761Y-80570379D01*
X117395238Y-80570379D02*
X117704762Y-80570379D01*
X117704762Y-80570379D02*
X117538095Y-80760855D01*
X117538095Y-80760855D02*
X117609524Y-80760855D01*
X117609524Y-80760855D02*
X117657143Y-80784665D01*
X117657143Y-80784665D02*
X117680952Y-80808474D01*
X117680952Y-80808474D02*
X117704762Y-80856093D01*
X117704762Y-80856093D02*
X117704762Y-80975141D01*
X117704762Y-80975141D02*
X117680952Y-81022760D01*
X117680952Y-81022760D02*
X117657143Y-81046570D01*
X117657143Y-81046570D02*
X117609524Y-81070379D01*
X117609524Y-81070379D02*
X117466667Y-81070379D01*
X117466667Y-81070379D02*
X117419048Y-81046570D01*
X117419048Y-81046570D02*
X117395238Y-81022760D01*
X118816666Y-84726629D02*
X118650000Y-84488534D01*
X118530952Y-84726629D02*
X118530952Y-84226629D01*
X118530952Y-84226629D02*
X118721428Y-84226629D01*
X118721428Y-84226629D02*
X118769047Y-84250439D01*
X118769047Y-84250439D02*
X118792857Y-84274248D01*
X118792857Y-84274248D02*
X118816666Y-84321867D01*
X118816666Y-84321867D02*
X118816666Y-84393296D01*
X118816666Y-84393296D02*
X118792857Y-84440915D01*
X118792857Y-84440915D02*
X118769047Y-84464724D01*
X118769047Y-84464724D02*
X118721428Y-84488534D01*
X118721428Y-84488534D02*
X118530952Y-84488534D01*
X119054762Y-84726629D02*
X119150000Y-84726629D01*
X119150000Y-84726629D02*
X119197619Y-84702820D01*
X119197619Y-84702820D02*
X119221428Y-84679010D01*
X119221428Y-84679010D02*
X119269047Y-84607581D01*
X119269047Y-84607581D02*
X119292857Y-84512343D01*
X119292857Y-84512343D02*
X119292857Y-84321867D01*
X119292857Y-84321867D02*
X119269047Y-84274248D01*
X119269047Y-84274248D02*
X119245238Y-84250439D01*
X119245238Y-84250439D02*
X119197619Y-84226629D01*
X119197619Y-84226629D02*
X119102381Y-84226629D01*
X119102381Y-84226629D02*
X119054762Y-84250439D01*
X119054762Y-84250439D02*
X119030952Y-84274248D01*
X119030952Y-84274248D02*
X119007143Y-84321867D01*
X119007143Y-84321867D02*
X119007143Y-84440915D01*
X119007143Y-84440915D02*
X119030952Y-84488534D01*
X119030952Y-84488534D02*
X119054762Y-84512343D01*
X119054762Y-84512343D02*
X119102381Y-84536153D01*
X119102381Y-84536153D02*
X119197619Y-84536153D01*
X119197619Y-84536153D02*
X119245238Y-84512343D01*
X119245238Y-84512343D02*
X119269047Y-84488534D01*
X119269047Y-84488534D02*
X119292857Y-84440915D01*
X159226666Y-84316629D02*
X158988571Y-84316629D01*
X158988571Y-84316629D02*
X158988571Y-83816629D01*
X159369524Y-83864248D02*
X159393333Y-83840439D01*
X159393333Y-83840439D02*
X159440952Y-83816629D01*
X159440952Y-83816629D02*
X159560000Y-83816629D01*
X159560000Y-83816629D02*
X159607619Y-83840439D01*
X159607619Y-83840439D02*
X159631428Y-83864248D01*
X159631428Y-83864248D02*
X159655238Y-83911867D01*
X159655238Y-83911867D02*
X159655238Y-83959486D01*
X159655238Y-83959486D02*
X159631428Y-84030915D01*
X159631428Y-84030915D02*
X159345714Y-84316629D01*
X159345714Y-84316629D02*
X159655238Y-84316629D01*
X133533334Y-76264724D02*
X133366667Y-76264724D01*
X133366667Y-76526629D02*
X133366667Y-76026629D01*
X133366667Y-76026629D02*
X133604762Y-76026629D01*
X133961905Y-76264724D02*
X134033333Y-76288534D01*
X134033333Y-76288534D02*
X134057143Y-76312343D01*
X134057143Y-76312343D02*
X134080952Y-76359962D01*
X134080952Y-76359962D02*
X134080952Y-76431391D01*
X134080952Y-76431391D02*
X134057143Y-76479010D01*
X134057143Y-76479010D02*
X134033333Y-76502820D01*
X134033333Y-76502820D02*
X133985714Y-76526629D01*
X133985714Y-76526629D02*
X133795238Y-76526629D01*
X133795238Y-76526629D02*
X133795238Y-76026629D01*
X133795238Y-76026629D02*
X133961905Y-76026629D01*
X133961905Y-76026629D02*
X134009524Y-76050439D01*
X134009524Y-76050439D02*
X134033333Y-76074248D01*
X134033333Y-76074248D02*
X134057143Y-76121867D01*
X134057143Y-76121867D02*
X134057143Y-76169486D01*
X134057143Y-76169486D02*
X134033333Y-76217105D01*
X134033333Y-76217105D02*
X134009524Y-76240915D01*
X134009524Y-76240915D02*
X133961905Y-76264724D01*
X133961905Y-76264724D02*
X133795238Y-76264724D01*
X134557143Y-76526629D02*
X134271429Y-76526629D01*
X134414286Y-76526629D02*
X134414286Y-76026629D01*
X134414286Y-76026629D02*
X134366667Y-76098058D01*
X134366667Y-76098058D02*
X134319048Y-76145677D01*
X134319048Y-76145677D02*
X134271429Y-76169486D01*
X145869047Y-76026629D02*
X145869047Y-76431391D01*
X145869047Y-76431391D02*
X145892857Y-76479010D01*
X145892857Y-76479010D02*
X145916666Y-76502820D01*
X145916666Y-76502820D02*
X145964285Y-76526629D01*
X145964285Y-76526629D02*
X146059523Y-76526629D01*
X146059523Y-76526629D02*
X146107142Y-76502820D01*
X146107142Y-76502820D02*
X146130952Y-76479010D01*
X146130952Y-76479010D02*
X146154761Y-76431391D01*
X146154761Y-76431391D02*
X146154761Y-76026629D01*
X146630952Y-76026629D02*
X146392857Y-76026629D01*
X146392857Y-76026629D02*
X146369048Y-76264724D01*
X146369048Y-76264724D02*
X146392857Y-76240915D01*
X146392857Y-76240915D02*
X146440476Y-76217105D01*
X146440476Y-76217105D02*
X146559524Y-76217105D01*
X146559524Y-76217105D02*
X146607143Y-76240915D01*
X146607143Y-76240915D02*
X146630952Y-76264724D01*
X146630952Y-76264724D02*
X146654762Y-76312343D01*
X146654762Y-76312343D02*
X146654762Y-76431391D01*
X146654762Y-76431391D02*
X146630952Y-76479010D01*
X146630952Y-76479010D02*
X146607143Y-76502820D01*
X146607143Y-76502820D02*
X146559524Y-76526629D01*
X146559524Y-76526629D02*
X146440476Y-76526629D01*
X146440476Y-76526629D02*
X146392857Y-76502820D01*
X146392857Y-76502820D02*
X146369048Y-76479010D01*
X125029010Y-78771428D02*
X125052820Y-78795237D01*
X125052820Y-78795237D02*
X125076629Y-78866666D01*
X125076629Y-78866666D02*
X125076629Y-78914285D01*
X125076629Y-78914285D02*
X125052820Y-78985713D01*
X125052820Y-78985713D02*
X125005200Y-79033332D01*
X125005200Y-79033332D02*
X124957581Y-79057142D01*
X124957581Y-79057142D02*
X124862343Y-79080951D01*
X124862343Y-79080951D02*
X124790915Y-79080951D01*
X124790915Y-79080951D02*
X124695677Y-79057142D01*
X124695677Y-79057142D02*
X124648058Y-79033332D01*
X124648058Y-79033332D02*
X124600439Y-78985713D01*
X124600439Y-78985713D02*
X124576629Y-78914285D01*
X124576629Y-78914285D02*
X124576629Y-78866666D01*
X124576629Y-78866666D02*
X124600439Y-78795237D01*
X124600439Y-78795237D02*
X124624248Y-78771428D01*
X125076629Y-78295237D02*
X125076629Y-78580951D01*
X125076629Y-78438094D02*
X124576629Y-78438094D01*
X124576629Y-78438094D02*
X124648058Y-78485713D01*
X124648058Y-78485713D02*
X124695677Y-78533332D01*
X124695677Y-78533332D02*
X124719486Y-78580951D01*
X124743296Y-77866666D02*
X125076629Y-77866666D01*
X124552820Y-77985714D02*
X124909962Y-78104761D01*
X124909962Y-78104761D02*
X124909962Y-77795238D01*
X165552820Y-78966665D02*
X165576629Y-78895237D01*
X165576629Y-78895237D02*
X165576629Y-78776189D01*
X165576629Y-78776189D02*
X165552820Y-78728570D01*
X165552820Y-78728570D02*
X165529010Y-78704761D01*
X165529010Y-78704761D02*
X165481391Y-78680951D01*
X165481391Y-78680951D02*
X165433772Y-78680951D01*
X165433772Y-78680951D02*
X165386153Y-78704761D01*
X165386153Y-78704761D02*
X165362343Y-78728570D01*
X165362343Y-78728570D02*
X165338534Y-78776189D01*
X165338534Y-78776189D02*
X165314724Y-78871427D01*
X165314724Y-78871427D02*
X165290915Y-78919046D01*
X165290915Y-78919046D02*
X165267105Y-78942856D01*
X165267105Y-78942856D02*
X165219486Y-78966665D01*
X165219486Y-78966665D02*
X165171867Y-78966665D01*
X165171867Y-78966665D02*
X165124248Y-78942856D01*
X165124248Y-78942856D02*
X165100439Y-78919046D01*
X165100439Y-78919046D02*
X165076629Y-78871427D01*
X165076629Y-78871427D02*
X165076629Y-78752380D01*
X165076629Y-78752380D02*
X165100439Y-78680951D01*
X165076629Y-78514285D02*
X165576629Y-78395237D01*
X165576629Y-78395237D02*
X165219486Y-78299999D01*
X165219486Y-78299999D02*
X165576629Y-78204761D01*
X165576629Y-78204761D02*
X165076629Y-78085714D01*
X165243296Y-77680951D02*
X165576629Y-77680951D01*
X165052820Y-77799999D02*
X165409962Y-77919046D01*
X165409962Y-77919046D02*
X165409962Y-77609523D01*
X149466667Y-76783772D02*
X149704762Y-76783772D01*
X149419048Y-76926629D02*
X149585714Y-76426629D01*
X149585714Y-76426629D02*
X149752381Y-76926629D01*
X149919047Y-76664724D02*
X150085714Y-76664724D01*
X150157142Y-76926629D02*
X149919047Y-76926629D01*
X149919047Y-76926629D02*
X149919047Y-76426629D01*
X149919047Y-76426629D02*
X150157142Y-76426629D01*
X150633333Y-76926629D02*
X150347619Y-76926629D01*
X150490476Y-76926629D02*
X150490476Y-76426629D01*
X150490476Y-76426629D02*
X150442857Y-76498058D01*
X150442857Y-76498058D02*
X150395238Y-76545677D01*
X150395238Y-76545677D02*
X150347619Y-76569486D01*
X122328571Y-81279010D02*
X122304762Y-81302820D01*
X122304762Y-81302820D02*
X122233333Y-81326629D01*
X122233333Y-81326629D02*
X122185714Y-81326629D01*
X122185714Y-81326629D02*
X122114286Y-81302820D01*
X122114286Y-81302820D02*
X122066667Y-81255200D01*
X122066667Y-81255200D02*
X122042857Y-81207581D01*
X122042857Y-81207581D02*
X122019048Y-81112343D01*
X122019048Y-81112343D02*
X122019048Y-81040915D01*
X122019048Y-81040915D02*
X122042857Y-80945677D01*
X122042857Y-80945677D02*
X122066667Y-80898058D01*
X122066667Y-80898058D02*
X122114286Y-80850439D01*
X122114286Y-80850439D02*
X122185714Y-80826629D01*
X122185714Y-80826629D02*
X122233333Y-80826629D01*
X122233333Y-80826629D02*
X122304762Y-80850439D01*
X122304762Y-80850439D02*
X122328571Y-80874248D01*
X122804762Y-81326629D02*
X122519048Y-81326629D01*
X122661905Y-81326629D02*
X122661905Y-80826629D01*
X122661905Y-80826629D02*
X122614286Y-80898058D01*
X122614286Y-80898058D02*
X122566667Y-80945677D01*
X122566667Y-80945677D02*
X122519048Y-80969486D01*
X123257142Y-80826629D02*
X123019047Y-80826629D01*
X123019047Y-80826629D02*
X122995238Y-81064724D01*
X122995238Y-81064724D02*
X123019047Y-81040915D01*
X123019047Y-81040915D02*
X123066666Y-81017105D01*
X123066666Y-81017105D02*
X123185714Y-81017105D01*
X123185714Y-81017105D02*
X123233333Y-81040915D01*
X123233333Y-81040915D02*
X123257142Y-81064724D01*
X123257142Y-81064724D02*
X123280952Y-81112343D01*
X123280952Y-81112343D02*
X123280952Y-81231391D01*
X123280952Y-81231391D02*
X123257142Y-81279010D01*
X123257142Y-81279010D02*
X123233333Y-81302820D01*
X123233333Y-81302820D02*
X123185714Y-81326629D01*
X123185714Y-81326629D02*
X123066666Y-81326629D01*
X123066666Y-81326629D02*
X123019047Y-81302820D01*
X123019047Y-81302820D02*
X122995238Y-81279010D01*
X115752820Y-84366665D02*
X115776629Y-84295237D01*
X115776629Y-84295237D02*
X115776629Y-84176189D01*
X115776629Y-84176189D02*
X115752820Y-84128570D01*
X115752820Y-84128570D02*
X115729010Y-84104761D01*
X115729010Y-84104761D02*
X115681391Y-84080951D01*
X115681391Y-84080951D02*
X115633772Y-84080951D01*
X115633772Y-84080951D02*
X115586153Y-84104761D01*
X115586153Y-84104761D02*
X115562343Y-84128570D01*
X115562343Y-84128570D02*
X115538534Y-84176189D01*
X115538534Y-84176189D02*
X115514724Y-84271427D01*
X115514724Y-84271427D02*
X115490915Y-84319046D01*
X115490915Y-84319046D02*
X115467105Y-84342856D01*
X115467105Y-84342856D02*
X115419486Y-84366665D01*
X115419486Y-84366665D02*
X115371867Y-84366665D01*
X115371867Y-84366665D02*
X115324248Y-84342856D01*
X115324248Y-84342856D02*
X115300439Y-84319046D01*
X115300439Y-84319046D02*
X115276629Y-84271427D01*
X115276629Y-84271427D02*
X115276629Y-84152380D01*
X115276629Y-84152380D02*
X115300439Y-84080951D01*
X115276629Y-83914285D02*
X115776629Y-83795237D01*
X115776629Y-83795237D02*
X115419486Y-83699999D01*
X115419486Y-83699999D02*
X115776629Y-83604761D01*
X115776629Y-83604761D02*
X115276629Y-83485714D01*
X115324248Y-83319046D02*
X115300439Y-83295237D01*
X115300439Y-83295237D02*
X115276629Y-83247618D01*
X115276629Y-83247618D02*
X115276629Y-83128570D01*
X115276629Y-83128570D02*
X115300439Y-83080951D01*
X115300439Y-83080951D02*
X115324248Y-83057142D01*
X115324248Y-83057142D02*
X115371867Y-83033332D01*
X115371867Y-83033332D02*
X115419486Y-83033332D01*
X115419486Y-83033332D02*
X115490915Y-83057142D01*
X115490915Y-83057142D02*
X115776629Y-83342856D01*
X115776629Y-83342856D02*
X115776629Y-83033332D01*
D11*
%TO.C,Y2*%
X160330000Y-79290000D02*
X160330000Y-82590000D01*
X163130000Y-79290000D02*
X160330000Y-79290000D01*
%TO.C,SW1*%
X114150000Y-76650000D02*
X114150000Y-79950000D01*
X114150000Y-79950000D02*
X114450000Y-79950000D01*
X114450000Y-76650000D02*
X114150000Y-76650000D01*
X116650000Y-76650000D02*
X116950000Y-76650000D01*
X116950000Y-76650000D02*
X116950000Y-79950000D01*
X116950000Y-79950000D02*
X116650000Y-79950000D01*
%TO.C,R2*%
X125746359Y-79820000D02*
X126053641Y-79820000D01*
X125746359Y-80580000D02*
X126053641Y-80580000D01*
D12*
%TO.C,D2*%
X129295000Y-85600000D02*
G75*
G02*
X129195000Y-85600000I-50000J0D01*
G01*
X129195000Y-85600000D02*
G75*
G02*
X129295000Y-85600000I50000J0D01*
G01*
D11*
%TO.C,R3*%
X137353641Y-76970000D02*
X137046359Y-76970000D01*
X137353641Y-77730000D02*
X137046359Y-77730000D01*
D12*
%TO.C,D4*%
X169040000Y-77000000D02*
G75*
G02*
X168940000Y-77000000I-50000J0D01*
G01*
X168940000Y-77000000D02*
G75*
G02*
X169040000Y-77000000I50000J0D01*
G01*
D11*
%TO.C,C17*%
X151040580Y-81090000D02*
X150759420Y-81090000D01*
X151040580Y-82110000D02*
X150759420Y-82110000D01*
%TO.C,D5*%
X166950000Y-85917500D02*
X166950000Y-82057500D01*
X166950000Y-85917500D02*
X168950000Y-85917500D01*
X168950000Y-85917500D02*
X168950000Y-82057500D01*
%TO.C,C3*%
X120877836Y-77290000D02*
X120662164Y-77290000D01*
X120877836Y-78010000D02*
X120662164Y-78010000D01*
%TO.C,C19*%
X162487836Y-82830000D02*
X162272164Y-82830000D01*
X162487836Y-83550000D02*
X162272164Y-83550000D01*
%TO.C,R4*%
X120846359Y-82120000D02*
X121153641Y-82120000D01*
X120846359Y-82880000D02*
X121153641Y-82880000D01*
%TO.C,R13*%
X150470000Y-84953641D02*
X150470000Y-84646359D01*
X151230000Y-84953641D02*
X151230000Y-84646359D01*
%TO.C,R5*%
X118606359Y-77220000D02*
X118913641Y-77220000D01*
X118606359Y-77980000D02*
X118913641Y-77980000D01*
%TO.C,R14*%
X151256359Y-79870000D02*
X151563641Y-79870000D01*
X151256359Y-80630000D02*
X151563641Y-80630000D01*
%TO.C,C20*%
X157310000Y-76712164D02*
X157310000Y-76927836D01*
X158030000Y-76712164D02*
X158030000Y-76927836D01*
%TO.C,R1*%
X128186359Y-85220000D02*
X128493641Y-85220000D01*
X128186359Y-85980000D02*
X128493641Y-85980000D01*
%TO.C,C6*%
X128542164Y-75940000D02*
X128757836Y-75940000D01*
X128542164Y-76660000D02*
X128757836Y-76660000D01*
%TO.C,C21*%
X159240000Y-79427836D02*
X159240000Y-79212164D01*
X159960000Y-79427836D02*
X159960000Y-79212164D01*
%TO.C,C22*%
X162487836Y-76240000D02*
X162272164Y-76240000D01*
X162487836Y-76960000D02*
X162272164Y-76960000D01*
%TO.C,SW3*%
X163650000Y-81850000D02*
X163650000Y-85150000D01*
X163650000Y-85150000D02*
X163950000Y-85150000D01*
X163950000Y-81850000D02*
X163650000Y-81850000D01*
X166150000Y-81850000D02*
X166450000Y-81850000D01*
X166450000Y-81850000D02*
X166450000Y-85150000D01*
X166450000Y-85150000D02*
X166150000Y-85150000D01*
%TO.C,C9*%
X137062164Y-79140000D02*
X137277836Y-79140000D01*
X137062164Y-79860000D02*
X137277836Y-79860000D01*
D13*
%TO.C,U1*%
X123350000Y-82145000D02*
X123350000Y-85345000D01*
X123350000Y-82145000D02*
X123750000Y-82145000D01*
X123350000Y-85345000D02*
X123750000Y-85345000D01*
X127350000Y-82145000D02*
X126950000Y-82145000D01*
X127350000Y-85345000D02*
X126950000Y-85345000D01*
X127350000Y-85345000D02*
X127350000Y-82145000D01*
X124200000Y-85745000D02*
G75*
G02*
X124100000Y-85745000I-50000J0D01*
G01*
X124100000Y-85745000D02*
G75*
G02*
X124200000Y-85745000I50000J0D01*
G01*
D11*
%TO.C,C2*%
X120672164Y-76240000D02*
X120887836Y-76240000D01*
X120672164Y-76960000D02*
X120887836Y-76960000D01*
D13*
%TO.C,MIC1*%
X122200000Y-76030000D02*
X122200000Y-76180000D01*
X122200000Y-76030000D02*
X124200000Y-76030000D01*
X122200000Y-77080000D02*
X122200000Y-78020000D01*
X122200000Y-78920000D02*
X122200000Y-79070000D01*
X122200000Y-79070000D02*
X124200000Y-79070000D01*
X124200000Y-76030000D02*
X124200000Y-76180000D01*
X124200000Y-77080000D02*
X124200000Y-78020000D01*
X124200000Y-78920000D02*
X124200000Y-79070000D01*
X122040000Y-76630000D02*
G75*
G02*
X121960000Y-76630000I-40000J0D01*
G01*
X121960000Y-76630000D02*
G75*
G02*
X122040000Y-76630000I40000J0D01*
G01*
D11*
%TO.C,C24*%
X161237836Y-78290000D02*
X161022164Y-78290000D01*
X161237836Y-79010000D02*
X161022164Y-79010000D01*
D14*
%TO.C,U4*%
X153450000Y-79350000D02*
X153450000Y-79645000D01*
X153450000Y-79350000D02*
X153745000Y-79350000D01*
X153450000Y-84350000D02*
X153450000Y-84055000D01*
X153450000Y-84350000D02*
X153745000Y-84350000D01*
X158450000Y-79350000D02*
X158155000Y-79350000D01*
X158450000Y-79350000D02*
X158450000Y-79645000D01*
X158450000Y-84350000D02*
X158155000Y-84350000D01*
X158450000Y-84350000D02*
X158450000Y-84055000D01*
D15*
X157800000Y-78390000D02*
G75*
G02*
X157600000Y-78390000I-100000J0D01*
G01*
X157600000Y-78390000D02*
G75*
G02*
X157800000Y-78390000I100000J0D01*
G01*
D11*
%TO.C,D1*%
X111350000Y-75890000D02*
X111350000Y-79750000D01*
X113350000Y-75890000D02*
X111350000Y-75890000D01*
X113350000Y-75890000D02*
X113350000Y-79750000D01*
%TO.C,C7*%
X136912164Y-84540000D02*
X137127836Y-84540000D01*
X136912164Y-85260000D02*
X137127836Y-85260000D01*
%TO.C,Y1*%
X136175000Y-81400000D02*
X136175000Y-84200000D01*
X136175000Y-84200000D02*
X139475000Y-84200000D01*
%TO.C,USB2*%
X169630000Y-76940000D02*
X169630000Y-77450000D01*
X169630000Y-84820000D02*
X169630000Y-84310000D01*
X171540000Y-76940000D02*
X169630000Y-76940000D01*
X171540000Y-84820000D02*
X169630000Y-84820000D01*
X173820000Y-76940000D02*
X174050000Y-76940000D01*
X174070000Y-84810000D02*
X175310000Y-84820000D01*
X174080000Y-84820000D02*
X173820000Y-84820000D01*
X175310000Y-84820000D02*
X175340000Y-76940000D01*
X175340000Y-76940000D02*
X174080000Y-76930000D01*
%TO.C,C4*%
X126007836Y-80890000D02*
X125792164Y-80890000D01*
X126007836Y-81610000D02*
X125792164Y-81610000D01*
%TO.C,R16*%
X148396359Y-79620000D02*
X148703641Y-79620000D01*
X148396359Y-80380000D02*
X148703641Y-80380000D01*
%TO.C,USB1*%
X104890000Y-84930000D02*
X106150000Y-84940000D01*
X104920000Y-77050000D02*
X104890000Y-84930000D01*
X106150000Y-77050000D02*
X106410000Y-77050000D01*
X106160000Y-77060000D02*
X104920000Y-77050000D01*
X106410000Y-84930000D02*
X106180000Y-84930000D01*
X108690000Y-77050000D02*
X110600000Y-77050000D01*
X108690000Y-84930000D02*
X110600000Y-84930000D01*
X110600000Y-77050000D02*
X110600000Y-77560000D01*
X110600000Y-84930000D02*
X110600000Y-84420000D01*
%TO.C,R17*%
X162383641Y-85080000D02*
X162076359Y-85080000D01*
X162383641Y-85840000D02*
X162076359Y-85840000D01*
%TO.C,C8*%
X138540000Y-77859420D02*
X138540000Y-78140580D01*
X139560000Y-77859420D02*
X139560000Y-78140580D01*
%TO.C,C5*%
X125590000Y-77707836D02*
X125590000Y-77492164D01*
X126310000Y-77707836D02*
X126310000Y-77492164D01*
%TO.C,C1*%
X137062164Y-78090000D02*
X137277836Y-78090000D01*
X137062164Y-78810000D02*
X137277836Y-78810000D01*
%TO.C,U2*%
X128040000Y-77290000D02*
X128690000Y-77290000D01*
X128040000Y-77940000D02*
X128040000Y-77290000D01*
X128040000Y-83860000D02*
X128040000Y-84210000D01*
X128690000Y-84510000D02*
X128280000Y-84510000D01*
X135260000Y-77290000D02*
X134610000Y-77290000D01*
X135260000Y-77940000D02*
X135260000Y-77290000D01*
X135260000Y-83860000D02*
X135260000Y-84510000D01*
X135260000Y-84510000D02*
X134610000Y-84510000D01*
X128040000Y-84510000D02*
X127710000Y-84750000D01*
X127710000Y-84270000D01*
X128040000Y-84510000D01*
G36*
X128040000Y-84510000D02*
G01*
X127710000Y-84750000D01*
X127710000Y-84270000D01*
X128040000Y-84510000D01*
G37*
%TO.C,C16*%
X153577836Y-85240000D02*
X153362164Y-85240000D01*
X153577836Y-85960000D02*
X153362164Y-85960000D01*
D12*
%TO.C,D3*%
X152050000Y-85890000D02*
G75*
G02*
X151950000Y-85890000I-50000J0D01*
G01*
X151950000Y-85890000D02*
G75*
G02*
X152050000Y-85890000I50000J0D01*
G01*
D11*
%TO.C,C10*%
X118907836Y-82090000D02*
X118692164Y-82090000D01*
X118907836Y-82810000D02*
X118692164Y-82810000D01*
%TO.C,C18*%
X155292164Y-85240000D02*
X155507836Y-85240000D01*
X155292164Y-85960000D02*
X155507836Y-85960000D01*
%TO.C,R6*%
X125746359Y-78770000D02*
X126053641Y-78770000D01*
X125746359Y-79530000D02*
X126053641Y-79530000D01*
%TO.C,R11*%
X151336359Y-82520000D02*
X151643641Y-82520000D01*
X151336359Y-83280000D02*
X151643641Y-83280000D01*
%TO.C,R12*%
X151256359Y-78790000D02*
X151563641Y-78790000D01*
X151256359Y-79550000D02*
X151563641Y-79550000D01*
%TO.C,R7*%
X137253641Y-80270000D02*
X136946359Y-80270000D01*
X137253641Y-81030000D02*
X136946359Y-81030000D01*
%TO.C,R8*%
X118596359Y-76170000D02*
X118903641Y-76170000D01*
X118596359Y-76930000D02*
X118903641Y-76930000D01*
%TO.C,R15*%
X162383641Y-84020000D02*
X162076359Y-84020000D01*
X162383641Y-84780000D02*
X162076359Y-84780000D01*
%TO.C,C26*%
X154310000Y-76692164D02*
X154310000Y-76907836D01*
X155030000Y-76692164D02*
X155030000Y-76907836D01*
%TO.C,R18*%
X167786359Y-77870000D02*
X168093641Y-77870000D01*
X167786359Y-78630000D02*
X168093641Y-78630000D01*
%TO.C,C11*%
X126690000Y-77007836D02*
X126690000Y-76792164D01*
X127410000Y-77007836D02*
X127410000Y-76792164D01*
%TO.C,R10*%
X122170000Y-84236359D02*
X122170000Y-84543641D01*
X122930000Y-84236359D02*
X122930000Y-84543641D01*
%TO.C,C12*%
X132457836Y-85240000D02*
X132242164Y-85240000D01*
X132457836Y-85960000D02*
X132242164Y-85960000D01*
%TO.C,C23*%
X147540000Y-83940580D02*
X147540000Y-83659420D01*
X148560000Y-83940580D02*
X148560000Y-83659420D01*
%TO.C,C13*%
X138992164Y-80290000D02*
X139207836Y-80290000D01*
X138992164Y-81010000D02*
X139207836Y-81010000D01*
%TO.C,C25*%
X161502164Y-77230000D02*
X161717836Y-77230000D01*
X161502164Y-77950000D02*
X161717836Y-77950000D01*
%TO.C,U3*%
X119950000Y-78540000D02*
X119150000Y-78540000D01*
X119950000Y-78540000D02*
X120750000Y-78540000D01*
X119950000Y-81660000D02*
X119150000Y-81660000D01*
X119950000Y-81660000D02*
X120750000Y-81660000D01*
X118650000Y-78590000D02*
X118410000Y-78260000D01*
X118890000Y-78260000D01*
X118650000Y-78590000D01*
G36*
X118650000Y-78590000D02*
G01*
X118410000Y-78260000D01*
X118890000Y-78260000D01*
X118650000Y-78590000D01*
G37*
%TO.C,R9*%
X118646359Y-83120000D02*
X118953641Y-83120000D01*
X118646359Y-83880000D02*
X118953641Y-83880000D01*
%TO.C,U5*%
X140240000Y-79100000D02*
X140240000Y-82860000D01*
X140240000Y-82860000D02*
X141500000Y-82860000D01*
X147060000Y-79100000D02*
X147060000Y-82860000D01*
X147060000Y-82860000D02*
X145800000Y-82860000D01*
X147290000Y-78060000D02*
X146960000Y-77820000D01*
X147290000Y-77580000D01*
X147290000Y-78060000D01*
G36*
X147290000Y-78060000D02*
G01*
X146960000Y-77820000D01*
X147290000Y-77580000D01*
X147290000Y-78060000D01*
G37*
%TO.C,C14*%
X124590000Y-76868414D02*
X124590000Y-77084086D01*
X125310000Y-76868414D02*
X125310000Y-77084086D01*
%TO.C,SW4*%
X163700000Y-76650000D02*
X163700000Y-79950000D01*
X163700000Y-79950000D02*
X164000000Y-79950000D01*
X164000000Y-76650000D02*
X163700000Y-76650000D01*
X166200000Y-76650000D02*
X166500000Y-76650000D01*
X166500000Y-76650000D02*
X166500000Y-79950000D01*
X166500000Y-79950000D02*
X166200000Y-79950000D01*
D16*
%TO.C,AE1*%
X151630000Y-77850000D02*
G75*
G02*
X151570000Y-77850000I-30000J0D01*
G01*
X151570000Y-77850000D02*
G75*
G02*
X151630000Y-77850000I30000J0D01*
G01*
D11*
%TO.C,C15*%
X122290000Y-82212164D02*
X122290000Y-82427836D01*
X123010000Y-82212164D02*
X123010000Y-82427836D01*
%TO.C,SW2*%
X114150000Y-81950000D02*
X114150000Y-85250000D01*
X114150000Y-85250000D02*
X114450000Y-85250000D01*
X114450000Y-81950000D02*
X114150000Y-81950000D01*
X116650000Y-81950000D02*
X116950000Y-81950000D01*
X116950000Y-81950000D02*
X116950000Y-85250000D01*
X116950000Y-85250000D02*
X116650000Y-85250000D01*
%TD*%
M02*
