%FSLAX45Y45*%
G04 Gerber Fmt 4.5, Leading zero omitted, Abs format (unit mm)*
G04 Created by KiCad (PCBNEW (6.0.6)) date 2022-07-13 04:46:22*
%MOMM*%
%LPD*%
G01*
G04 APERTURE LIST*
%TA.AperFunction,Profile*%
%ADD10C,0.100000*%
%TD*%
%TA.AperFunction,Profile*%
%ADD11C,0.200000*%
%TD*%
%ADD12C,0.200000*%
%ADD13C,0.030000*%
%ADD14C,0.040000*%
%ADD15C,0.099000*%
%ADD16C,0.102000*%
%ADD17C,0.120000*%
%ADD18C,0.130000*%
%ADD19C,0.134000*%
%ADD20C,0.150000*%
%ADD21C,0.320000*%
G04 APERTURE END LIST*
D10*
X10200000Y1000000D02*
G75*
G03*
X10000000Y800000I0J-200000D01*
G01*
X15700000Y800000D02*
X15700000Y300000D01*
D11*
X10000000Y300000D02*
G75*
G03*
X15700000Y300000I2850000J-13016695D01*
G01*
D10*
X15700000Y800000D02*
G75*
G03*
X15500000Y1000000I-200000J0D01*
G01*
X10000000Y300000D02*
X10000000Y800000D01*
X10200000Y1000000D02*
X15500000Y1000000D01*
D12*
D13*
X821900Y-15905700D02*
X851900Y-15935700D01*
X851900Y-15905700D02*
X821900Y-15935700D01*
X923500Y-9708100D02*
X953500Y-9738100D01*
X953500Y-9708100D02*
X923500Y-9738100D01*
X1447970Y-9531550D02*
X1477970Y-9561550D01*
X1477970Y-9531550D02*
X1447970Y-9561550D01*
X1520400Y-11536900D02*
X1550400Y-11566900D01*
X1550400Y-11536900D02*
X1520400Y-11566900D01*
X1583900Y-14229300D02*
X1613900Y-14259300D01*
X1613900Y-14229300D02*
X1583900Y-14259300D01*
X2231600Y-17340800D02*
X2261600Y-17370800D01*
X2261600Y-17340800D02*
X2231600Y-17370800D01*
X2286600Y-17202900D02*
X2316600Y-17232900D01*
X2316600Y-17202900D02*
X2286600Y-17232900D01*
X2345900Y-8336500D02*
X2375900Y-8366500D01*
X2375900Y-8336500D02*
X2345900Y-8366500D01*
X3438100Y-14407100D02*
X3468100Y-14437100D01*
X3468100Y-14407100D02*
X3438100Y-14437100D01*
X3501600Y-11270200D02*
X3531600Y-11300200D01*
X3531600Y-11270200D02*
X3501600Y-11300200D01*
X3755600Y-19804600D02*
X3785600Y-19834600D01*
X3785600Y-19804600D02*
X3755600Y-19834600D01*
X3793700Y-5936200D02*
X3823700Y-5966200D01*
X3823700Y-5936200D02*
X3793700Y-5966200D01*
X3793700Y-16274000D02*
X3823700Y-16304000D01*
X3823700Y-16274000D02*
X3793700Y-16304000D01*
X4047700Y-9327100D02*
X4077700Y-9357100D01*
X4077700Y-9327100D02*
X4047700Y-9357100D01*
X4123900Y-4005800D02*
X4153900Y-4035800D01*
X4153900Y-4005800D02*
X4123900Y-4035800D01*
X4187400Y-21823900D02*
X4217400Y-21853900D01*
X4217400Y-21823900D02*
X4187400Y-21853900D01*
X4444670Y-20534980D02*
X4474670Y-20564980D01*
X4474670Y-20534980D02*
X4444670Y-20564980D01*
X5372060Y-6534930D02*
X5402060Y-6564930D01*
X5402060Y-6534930D02*
X5372060Y-6564930D01*
X5381200Y-12845000D02*
X5411200Y-12875000D01*
X5411200Y-12845000D02*
X5381200Y-12875000D01*
X5393900Y-18915600D02*
X5423900Y-18945600D01*
X5423900Y-18915600D02*
X5393900Y-18945600D01*
X5660600Y-6710900D02*
X5690600Y-6740900D01*
X5690600Y-6710900D02*
X5660600Y-6740900D01*
X6067000Y-3675600D02*
X6097000Y-3705600D01*
X6097000Y-3675600D02*
X6067000Y-3705600D01*
X6143200Y-22077900D02*
X6173200Y-22107900D01*
X6173200Y-22077900D02*
X6143200Y-22107900D01*
X6422600Y-9111200D02*
X6452600Y-9141200D01*
X6452600Y-9111200D02*
X6422600Y-9141200D01*
X6473400Y-16642300D02*
X6503400Y-16672300D01*
X6503400Y-16642300D02*
X6473400Y-16672300D01*
X6542360Y-9828940D02*
X6572360Y-9858940D01*
X6572360Y-9828940D02*
X6542360Y-9858940D01*
X6778200Y-14572200D02*
X6808200Y-14602200D01*
X6808200Y-14572200D02*
X6778200Y-14602200D01*
X6829000Y-11181300D02*
X6859000Y-11211300D01*
X6859000Y-11181300D02*
X6829000Y-11211300D01*
X6842030Y-17263690D02*
X6872030Y-17293690D01*
X6872030Y-17263690D02*
X6842030Y-17293690D01*
X6879800Y-20350700D02*
X6909800Y-20380700D01*
X6909800Y-20350700D02*
X6879800Y-20380700D01*
X6892500Y-5212300D02*
X6922500Y-5242300D01*
X6922500Y-5212300D02*
X6892500Y-5242300D01*
X7741040Y-14289790D02*
X7771040Y-14319790D01*
X7771040Y-14289790D02*
X7741040Y-14319790D01*
X8416500Y-17378900D02*
X8446500Y-17408900D01*
X8446500Y-17378900D02*
X8416500Y-17408900D01*
X8429200Y-2227800D02*
X8459200Y-2257800D01*
X8459200Y-2227800D02*
X8429200Y-2257800D01*
X8429200Y-8298400D02*
X8459200Y-8328400D01*
X8459200Y-8298400D02*
X8429200Y-8328400D01*
X8429200Y-23449500D02*
X8459200Y-23479500D01*
X8459200Y-23449500D02*
X8429200Y-23479500D01*
X8643190Y-17263690D02*
X8673190Y-17293690D01*
X8673190Y-17263690D02*
X8643190Y-17293690D01*
X8848300Y-14013400D02*
X8878300Y-14043400D01*
X8878300Y-14013400D02*
X8848300Y-14043400D01*
X8899100Y-11740100D02*
X8929100Y-11770100D01*
X8929100Y-11740100D02*
X8899100Y-11770100D01*
X9191200Y-19474400D02*
X9221200Y-19504400D01*
X9221200Y-19474400D02*
X9191200Y-19504400D01*
X9239390Y-24781670D02*
X9269390Y-24811670D01*
X9269390Y-24781670D02*
X9239390Y-24811670D01*
X9242000Y-6291800D02*
X9272000Y-6321800D01*
X9272000Y-6291800D02*
X9242000Y-6321800D01*
X9377310Y-563830D02*
X9407310Y-593830D01*
X9407310Y-563830D02*
X9377310Y-593830D01*
X9584900Y-3866100D02*
X9614900Y-3896100D01*
X9614900Y-3866100D02*
X9584900Y-3896100D01*
X9623000Y-21900100D02*
X9653000Y-21930100D01*
X9653000Y-21900100D02*
X9623000Y-21930100D01*
X9699200Y-24986200D02*
X9729200Y-25016200D01*
X9729200Y-24986200D02*
X9699200Y-25016200D01*
X9775400Y-716500D02*
X9805400Y-746500D01*
X9805400Y-716500D02*
X9775400Y-746500D01*
X9838730Y-3881140D02*
X9868730Y-3911140D01*
X9868730Y-3881140D02*
X9838730Y-3911140D01*
X9927800Y-15867600D02*
X9957800Y-15897600D01*
X9957800Y-15867600D02*
X9927800Y-15897600D01*
X9940500Y-9809700D02*
X9970500Y-9839700D01*
X9970500Y-9809700D02*
X9940500Y-9839700D01*
X10154370Y-9828940D02*
X10184370Y-9858940D01*
X10184370Y-9828940D02*
X10154370Y-9858940D01*
X10682700Y-6418580D02*
X10712700Y-6448580D01*
X10712700Y-6418580D02*
X10682700Y-6448580D01*
X10737740Y-921470D02*
X10767740Y-951470D01*
X10767740Y-921470D02*
X10737740Y-951470D01*
X11337500Y-6698200D02*
X11367500Y-6728200D01*
X11367500Y-6698200D02*
X11337500Y-6728200D01*
X11439100Y-19068000D02*
X11469100Y-19098000D01*
X11469100Y-19068000D02*
X11439100Y-19098000D01*
X11451800Y-12425900D02*
X11481800Y-12455900D01*
X11481800Y-12425900D02*
X11451800Y-12455900D01*
X11477200Y-3281900D02*
X11507200Y-3311900D01*
X11507200Y-3281900D02*
X11477200Y-3311900D01*
X11540700Y-22446200D02*
X11570700Y-22476200D01*
X11570700Y-22446200D02*
X11540700Y-22476200D01*
X11629600Y-24376600D02*
X11659600Y-24406600D01*
X11659600Y-24376600D02*
X11629600Y-24406600D01*
X11883600Y-8768300D02*
X11913600Y-8798300D01*
X11913600Y-8768300D02*
X11883600Y-8798300D01*
X11934400Y-16972500D02*
X11964400Y-17002500D01*
X11964400Y-16972500D02*
X11934400Y-17002500D01*
X11936420Y-921470D02*
X11966420Y-951470D01*
X11966420Y-921470D02*
X11936420Y-951470D01*
X11997900Y-14102300D02*
X12027900Y-14132300D01*
X12027900Y-14102300D02*
X11997900Y-14132300D01*
X12236090Y-20237590D02*
X12266090Y-20267590D01*
X12266090Y-20237590D02*
X12236090Y-20267590D01*
X12696400Y-11321000D02*
X12726400Y-11351000D01*
X12726400Y-11321000D02*
X12696400Y-11351000D01*
X12798350Y-14289790D02*
X12828350Y-14319790D01*
X12828350Y-14289790D02*
X12798350Y-14319790D01*
X12975800Y-5250400D02*
X13005800Y-5280400D01*
X13005800Y-5250400D02*
X12975800Y-5280400D01*
X12975800Y-20414200D02*
X13005800Y-20444200D01*
X13005800Y-20414200D02*
X12975800Y-20444200D01*
X13022020Y-20254200D02*
X13052020Y-20284200D01*
X13052020Y-20254200D02*
X13022020Y-20284200D01*
X13135100Y-921470D02*
X13165100Y-951470D01*
X13165100Y-921470D02*
X13135100Y-951470D01*
X13458960Y-241340D02*
X13488960Y-271340D01*
X13488960Y-241340D02*
X13458960Y-271340D01*
X13471100Y-14356300D02*
X13501100Y-14386300D01*
X13501100Y-14356300D02*
X13471100Y-14386300D01*
X13534070Y-14223700D02*
X13564070Y-14253700D01*
X13564070Y-14223700D02*
X13534070Y-14253700D01*
X14093400Y-17048700D02*
X14123400Y-17078700D01*
X14123400Y-17048700D02*
X14093400Y-17078700D01*
X14144200Y-8717500D02*
X14174200Y-8747500D01*
X14174200Y-8717500D02*
X14144200Y-8747500D01*
X14233100Y-11892500D02*
X14263100Y-11922500D01*
X14263100Y-11892500D02*
X14233100Y-11922500D01*
X14333780Y-921470D02*
X14363780Y-951470D01*
X14363780Y-921470D02*
X14333780Y-951470D01*
X14461700Y-22471600D02*
X14491700Y-22501600D01*
X14491700Y-22471600D02*
X14461700Y-22501600D01*
X14499800Y-13314900D02*
X14529800Y-13344900D01*
X14529800Y-13314900D02*
X14499800Y-13344900D01*
X14499800Y-24427400D02*
X14529800Y-24457400D01*
X14529800Y-24427400D02*
X14499800Y-24457400D01*
X14512500Y-3269200D02*
X14542500Y-3299200D01*
X14542500Y-3269200D02*
X14512500Y-3299200D01*
X14614100Y-19118800D02*
X14644100Y-19148800D01*
X14644100Y-19118800D02*
X14614100Y-19148800D01*
X14690300Y-6660100D02*
X14720300Y-6690100D01*
X14720300Y-6660100D02*
X14690300Y-6690100D01*
X14904640Y634830D02*
X14934640Y604830D01*
X14934640Y634830D02*
X14904640Y604830D01*
X14904640Y326680D02*
X14934640Y296680D01*
X14934640Y326680D02*
X14904640Y296680D01*
X14914110Y-322660D02*
X14944110Y-352660D01*
X14944110Y-322660D02*
X14914110Y-352660D01*
X15281500Y326680D02*
X15311500Y296680D01*
X15311500Y326680D02*
X15281500Y296680D01*
X15532460Y261190D02*
X15562460Y231190D01*
X15562460Y261190D02*
X15532460Y231190D01*
X15532460Y-6557650D02*
X15562460Y-6587650D01*
X15562460Y-6557650D02*
X15532460Y-6587650D01*
X15805350Y-9828940D02*
X15835350Y-9858940D01*
X15835350Y-9828940D02*
X15805350Y-9858940D01*
X15832130Y-11018500D02*
X15862130Y-11048500D01*
X15862130Y-11018500D02*
X15832130Y-11048500D01*
X15998400Y-9797000D02*
X16028400Y-9827000D01*
X16028400Y-9797000D02*
X15998400Y-9827000D01*
X15998400Y-15867600D02*
X16028400Y-15897600D01*
X16028400Y-15867600D02*
X15998400Y-15897600D01*
X16113930Y-24698440D02*
X16143930Y-24728440D01*
X16143930Y-24698440D02*
X16113930Y-24728440D01*
X16138100Y-551400D02*
X16168100Y-581400D01*
X16168100Y-551400D02*
X16138100Y-581400D01*
X16315900Y-24973500D02*
X16345900Y-25003500D01*
X16345900Y-24973500D02*
X16315900Y-25003500D01*
X16403470Y-3881140D02*
X16433470Y-3911140D01*
X16433470Y-3881140D02*
X16403470Y-3911140D01*
X16544500Y-21963600D02*
X16574500Y-21993600D01*
X16574500Y-21963600D02*
X16544500Y-21993600D01*
X16595300Y-3802600D02*
X16625300Y-3832600D01*
X16625300Y-3802600D02*
X16595300Y-3832600D01*
X16731140Y-17263690D02*
X16761140Y-17293690D01*
X16761140Y-17263690D02*
X16731140Y-17293690D01*
X16785800Y-6342600D02*
X16815800Y-6372600D01*
X16815800Y-6342600D02*
X16785800Y-6372600D01*
X16823900Y-19423600D02*
X16853900Y-19453600D01*
X16853900Y-19423600D02*
X16823900Y-19453600D01*
X17128700Y-11778200D02*
X17158700Y-11808200D01*
X17158700Y-11778200D02*
X17128700Y-11808200D01*
X17192200Y-13962600D02*
X17222200Y-13992600D01*
X17222200Y-13962600D02*
X17192200Y-13992600D01*
X17471600Y-1986500D02*
X17501600Y-2016500D01*
X17501600Y-1986500D02*
X17471600Y-2016500D01*
X17509700Y-8285700D02*
X17539700Y-8315700D01*
X17539700Y-8285700D02*
X17509700Y-8315700D01*
X17509700Y-17378900D02*
X17539700Y-17408900D01*
X17539700Y-17378900D02*
X17509700Y-17408900D01*
X17522400Y-23449500D02*
X17552400Y-23479500D01*
X17552400Y-23449500D02*
X17522400Y-23479500D01*
X17929820Y-20534980D02*
X17959820Y-20564980D01*
X17959820Y-20534980D02*
X17929820Y-20564980D01*
X18146170Y-1716630D02*
X18176170Y-1746630D01*
X18176170Y-1716630D02*
X18146170Y-1746630D01*
X18229490Y-1799410D02*
X18259490Y-1829410D01*
X18259490Y-1799410D02*
X18229490Y-1829410D01*
X18529160Y-14587180D02*
X18559160Y-14617180D01*
X18559160Y-14587180D02*
X18529160Y-14617180D01*
X18529160Y-16966300D02*
X18559160Y-16996300D01*
X18559160Y-16966300D02*
X18529160Y-16996300D01*
X19033700Y-20363400D02*
X19063700Y-20393400D01*
X19063700Y-20363400D02*
X19033700Y-20393400D01*
X19128500Y-1502020D02*
X19158500Y-1532020D01*
X19158500Y-1502020D02*
X19128500Y-1532020D01*
X19198800Y-11295600D02*
X19228800Y-11325600D01*
X19228800Y-11295600D02*
X19198800Y-11325600D01*
X19262300Y-14508700D02*
X19292300Y-14538700D01*
X19292300Y-14508700D02*
X19262300Y-14538700D01*
X19275000Y-5453600D02*
X19305000Y-5483600D01*
X19305000Y-5453600D02*
X19275000Y-5483600D01*
X19529000Y-2463690D02*
X19559000Y-2493690D01*
X19559000Y-2463690D02*
X19529000Y-2493690D01*
X19554400Y-16705800D02*
X19584400Y-16735800D01*
X19584400Y-16705800D02*
X19554400Y-16735800D01*
X19605200Y-9060400D02*
X19635200Y-9090400D01*
X19635200Y-9060400D02*
X19605200Y-9090400D01*
X19680000Y-1780340D02*
X19710000Y-1810340D01*
X19710000Y-1780340D02*
X19680000Y-1810340D01*
X19910000Y-22166800D02*
X19940000Y-22196800D01*
X19940000Y-22166800D02*
X19910000Y-22196800D01*
X19960800Y-3751800D02*
X19990800Y-3781800D01*
X19990800Y-3751800D02*
X19960800Y-3781800D01*
X20313470Y-6557650D02*
X20343470Y-6587650D01*
X20343470Y-6557650D02*
X20313470Y-6587650D01*
X20519600Y-6774400D02*
X20549600Y-6804400D01*
X20549600Y-6774400D02*
X20519600Y-6804400D01*
X20557700Y-12845000D02*
X20587700Y-12875000D01*
X20587700Y-12845000D02*
X20557700Y-12875000D01*
X20557700Y-18902900D02*
X20587700Y-18932900D01*
X20587700Y-18902900D02*
X20557700Y-18932900D01*
X21903900Y-21722300D02*
X21933900Y-21752300D01*
X21933900Y-21722300D02*
X21903900Y-21752300D01*
X21916600Y-3993100D02*
X21946600Y-4023100D01*
X21946600Y-3993100D02*
X21916600Y-4023100D01*
X22030900Y-9390600D02*
X22060900Y-9420600D01*
X22060900Y-9390600D02*
X22030900Y-9420600D01*
X22221400Y-5999700D02*
X22251400Y-6029700D01*
X22251400Y-5999700D02*
X22221400Y-6029700D01*
X22246800Y-16248600D02*
X22276800Y-16278600D01*
X22276800Y-16248600D02*
X22246800Y-16278600D01*
X22284900Y-19766500D02*
X22314900Y-19796500D01*
X22314900Y-19766500D02*
X22284900Y-19796500D01*
X22589700Y-11448000D02*
X22619700Y-11478000D01*
X22619700Y-11448000D02*
X22589700Y-11478000D01*
X22653200Y-14343600D02*
X22683200Y-14373600D01*
X22683200Y-14343600D02*
X22653200Y-14373600D01*
X23323880Y-11315890D02*
X23353880Y-11345890D01*
X23353880Y-11315890D02*
X23323880Y-11345890D01*
X23323880Y-17215600D02*
X23353880Y-17245600D01*
X23353880Y-17215600D02*
X23323880Y-17245600D01*
X23580300Y-8298400D02*
X23610300Y-8328400D01*
X23610300Y-8298400D02*
X23580300Y-8328400D01*
X23808900Y-17366200D02*
X23838900Y-17396200D01*
X23838900Y-17366200D02*
X23808900Y-17396200D01*
X24418500Y-14280100D02*
X24448500Y-14310100D01*
X24448500Y-14280100D02*
X24418500Y-14310100D01*
X24507400Y-11486100D02*
X24537400Y-11516100D01*
X24537400Y-11486100D02*
X24507400Y-11516100D01*
X25129700Y-16108900D02*
X25159700Y-16138900D01*
X25159700Y-16108900D02*
X25129700Y-16138900D01*
X25167800Y-9606500D02*
X25197800Y-9636500D01*
X25197800Y-9606500D02*
X25167800Y-9636500D01*
D14*
X14255000Y-1425000D02*
G75*
G03*
X14255000Y-1425000I-20000J0D01*
G01*
X14514000Y-1221000D02*
G75*
G03*
X14514000Y-1221000I-20000J0D01*
G01*
D15*
X10265000Y936500D02*
X10265000Y837500D01*
X10215500Y887000D02*
X10314500Y887000D01*
X10715000Y936500D02*
X10715000Y837500D01*
X10665500Y887000D02*
X10764500Y887000D01*
X11213000Y934500D02*
X11213000Y835500D01*
X11163500Y885000D02*
X11262500Y885000D01*
X11663000Y934500D02*
X11663000Y835500D01*
X11613500Y885000D02*
X11712500Y885000D01*
D16*
X10135063Y-753063D02*
X10135063Y-680937D01*
X10062937Y-680937D01*
X10062937Y-753063D01*
X10135063Y-753063D01*
X11151063Y-753063D02*
X11151063Y-680937D01*
X11078937Y-680937D01*
X11078937Y-753063D01*
X11151063Y-753063D01*
X11659063Y-2531063D02*
X11659063Y-2458937D01*
X11586937Y-2458937D01*
X11586937Y-2531063D01*
X11659063Y-2531063D01*
X12167063Y-753063D02*
X12167063Y-680937D01*
X12094937Y-680937D01*
X12094937Y-753063D01*
X12167063Y-753063D01*
X12167063Y-2531063D02*
X12167063Y-2458937D01*
X12094937Y-2458937D01*
X12094937Y-2531063D01*
X12167063Y-2531063D01*
X12421063Y-753063D02*
X12421063Y-680937D01*
X12348937Y-680937D01*
X12348937Y-753063D01*
X12421063Y-753063D01*
X12421063Y-2531063D02*
X12421063Y-2458937D01*
X12348937Y-2458937D01*
X12348937Y-2531063D01*
X12421063Y-2531063D01*
X12675063Y-2531063D02*
X12675063Y-2458937D01*
X12602937Y-2458937D01*
X12602937Y-2531063D01*
X12675063Y-2531063D01*
X12929063Y-2531063D02*
X12929063Y-2458937D01*
X12856937Y-2458937D01*
X12856937Y-2531063D01*
X12929063Y-2531063D01*
X13437063Y-753063D02*
X13437063Y-680937D01*
X13364937Y-680937D01*
X13364937Y-753063D01*
X13437063Y-753063D01*
X13691063Y-757063D02*
X13691063Y-684937D01*
X13618937Y-684937D01*
X13618937Y-757063D01*
X13691063Y-757063D01*
D17*
X12357000Y434000D02*
X12417000Y494000D01*
X12357000Y554000D01*
X12297000Y494000D01*
X12357000Y434000D01*
X12607000Y434000D02*
X12667000Y494000D01*
X12607000Y554000D01*
X12547000Y494000D01*
X12607000Y434000D01*
X12857000Y434000D02*
X12917000Y494000D01*
X12857000Y554000D01*
X12797000Y494000D01*
X12857000Y434000D01*
X13611000Y436000D02*
X13671000Y496000D01*
X13611000Y556000D01*
X13551000Y496000D01*
X13611000Y436000D01*
X13861000Y436000D02*
X13921000Y496000D01*
X13861000Y556000D01*
X13801000Y496000D01*
X13861000Y436000D01*
X14111000Y436000D02*
X14171000Y496000D01*
X14111000Y556000D01*
X14051000Y496000D01*
X14111000Y436000D01*
D18*
X10074500Y703000D02*
X10204500Y573000D01*
X10204500Y703000D02*
X10074500Y573000D01*
X10204500Y638000D02*
G75*
G03*
X10204500Y638000I-65000J0D01*
G01*
X10775500Y703000D02*
X10905500Y573000D01*
X10905500Y703000D02*
X10775500Y573000D01*
X10905500Y638000D02*
G75*
G03*
X10905500Y638000I-65000J0D01*
G01*
X11022500Y701000D02*
X11152500Y571000D01*
X11152500Y701000D02*
X11022500Y571000D01*
X11152500Y636000D02*
G75*
G03*
X11152500Y636000I-65000J0D01*
G01*
X11723500Y701000D02*
X11853500Y571000D01*
X11853500Y701000D02*
X11723500Y571000D01*
X11853500Y636000D02*
G75*
G03*
X11853500Y636000I-65000J0D01*
G01*
D19*
X14627000Y921250D02*
X14761000Y787250D01*
X14761000Y921250D02*
X14627000Y787250D01*
X14694000Y921250D02*
X14694000Y787250D01*
X14627000Y854250D02*
X14761000Y854250D01*
X14627000Y541250D02*
X14761000Y407250D01*
X14761000Y541250D02*
X14627000Y407250D01*
X14694000Y541250D02*
X14694000Y407250D01*
X14627000Y474250D02*
X14761000Y474250D01*
X15491000Y921250D02*
X15625000Y787250D01*
X15625000Y921250D02*
X15491000Y787250D01*
X15558000Y921250D02*
X15558000Y787250D01*
X15491000Y854250D02*
X15625000Y854250D01*
X15491000Y541250D02*
X15625000Y407250D01*
X15625000Y541250D02*
X15491000Y407250D01*
X15558000Y541250D02*
X15558000Y407250D01*
X15491000Y474250D02*
X15625000Y474250D01*
D20*
X12032000Y499000D02*
X12182000Y349000D01*
X12182000Y499000D02*
X12032000Y349000D01*
X12160033Y370966D02*
X12160033Y477033D01*
X12053966Y477033D01*
X12053966Y370966D01*
X12160033Y370966D01*
D12*
X12182000Y-1000D02*
X12182000Y849000D01*
X12032000Y-1000D02*
X12032000Y849000D01*
X12182000Y849000D02*
G75*
G03*
X12032000Y849000I-75000J0D01*
G01*
X12032000Y-1000D02*
G75*
G03*
X12182000Y-1000I75000J0D01*
G01*
D20*
X13032000Y499000D02*
X13182000Y349000D01*
X13182000Y499000D02*
X13032000Y349000D01*
X13160033Y370966D02*
X13160033Y477033D01*
X13053966Y477033D01*
X13053966Y370966D01*
X13160033Y370966D01*
D12*
X13182000Y-1000D02*
X13182000Y849000D01*
X13032000Y-1000D02*
X13032000Y849000D01*
X13182000Y849000D02*
G75*
G03*
X13032000Y849000I-75000J0D01*
G01*
X13032000Y-1000D02*
G75*
G03*
X13182000Y-1000I75000J0D01*
G01*
D20*
X13286000Y501000D02*
X13436000Y351000D01*
X13436000Y501000D02*
X13286000Y351000D01*
X13414033Y372966D02*
X13414033Y479033D01*
X13307966Y479033D01*
X13307966Y372966D01*
X13414033Y372966D01*
D12*
X13436000Y1000D02*
X13436000Y851000D01*
X13286000Y1000D02*
X13286000Y851000D01*
X13436000Y851000D02*
G75*
G03*
X13286000Y851000I-75000J0D01*
G01*
X13286000Y1000D02*
G75*
G03*
X13436000Y1000I75000J0D01*
G01*
D20*
X14286000Y501000D02*
X14436000Y351000D01*
X14436000Y501000D02*
X14286000Y351000D01*
X14414033Y372966D02*
X14414033Y479033D01*
X14307966Y479033D01*
X14307966Y372966D01*
X14414033Y372966D01*
D12*
X14436000Y1000D02*
X14436000Y851000D01*
X14286000Y1000D02*
X14286000Y851000D01*
X14436000Y851000D02*
G75*
G03*
X14286000Y851000I-75000J0D01*
G01*
X14286000Y1000D02*
G75*
G03*
X14436000Y1000I75000J0D01*
G01*
D21*
X7090000Y-7340000D02*
X7410000Y-7660000D01*
X7410000Y-7340000D02*
X7090000Y-7660000D01*
X7250000Y-7660000D02*
X7410000Y-7500000D01*
X7250000Y-7340000D01*
X7090000Y-7500000D01*
X7250000Y-7660000D01*
X7132000Y-17340000D02*
X7452000Y-17660000D01*
X7452000Y-17340000D02*
X7132000Y-17660000D01*
X7292000Y-17660000D02*
X7452000Y-17500000D01*
X7292000Y-17340000D01*
X7132000Y-17500000D01*
X7292000Y-17660000D01*
D12*
X-227427Y-26362217D02*
X-227427Y-26162217D01*
X-179808Y-26162217D01*
X-151236Y-26171741D01*
X-132189Y-26190789D01*
X-122665Y-26209836D01*
X-113141Y-26247931D01*
X-113141Y-26276503D01*
X-122665Y-26314598D01*
X-132189Y-26333646D01*
X-151236Y-26352693D01*
X-179808Y-26362217D01*
X-227427Y-26362217D01*
X-27427Y-26362217D02*
X-27427Y-26228884D01*
X-27427Y-26266979D02*
X-17903Y-26247931D01*
X-8379Y-26238408D01*
X10668Y-26228884D01*
X29716Y-26228884D01*
X96382Y-26362217D02*
X96382Y-26228884D01*
X96382Y-26162217D02*
X86859Y-26171741D01*
X96382Y-26181265D01*
X105906Y-26171741D01*
X96382Y-26162217D01*
X96382Y-26181265D01*
X220192Y-26362217D02*
X201144Y-26352693D01*
X191621Y-26333646D01*
X191621Y-26162217D01*
X324954Y-26362217D02*
X305906Y-26352693D01*
X296383Y-26333646D01*
X296383Y-26162217D01*
X553525Y-26362217D02*
X553525Y-26162217D01*
X620192Y-26305074D01*
X686859Y-26162217D01*
X686859Y-26362217D01*
X867811Y-26362217D02*
X867811Y-26257455D01*
X858287Y-26238408D01*
X839240Y-26228884D01*
X801144Y-26228884D01*
X782097Y-26238408D01*
X867811Y-26352693D02*
X848763Y-26362217D01*
X801144Y-26362217D01*
X782097Y-26352693D01*
X772573Y-26333646D01*
X772573Y-26314598D01*
X782097Y-26295551D01*
X801144Y-26286027D01*
X848763Y-26286027D01*
X867811Y-26276503D01*
X963049Y-26228884D02*
X963049Y-26428884D01*
X963049Y-26238408D02*
X982097Y-26228884D01*
X1020192Y-26228884D01*
X1039240Y-26238408D01*
X1048764Y-26247931D01*
X1058287Y-26266979D01*
X1058287Y-26324122D01*
X1048764Y-26343170D01*
X1039240Y-26352693D01*
X1020192Y-26362217D01*
X982097Y-26362217D01*
X963049Y-26352693D01*
X1144002Y-26343170D02*
X1153525Y-26352693D01*
X1144002Y-26362217D01*
X1134478Y-26352693D01*
X1144002Y-26343170D01*
X1144002Y-26362217D01*
X1144002Y-26238408D02*
X1153525Y-26247931D01*
X1144002Y-26257455D01*
X1134478Y-26247931D01*
X1144002Y-26238408D01*
X1144002Y-26257455D01*
D13*
X-515046Y-26676741D02*
X-485046Y-26706741D01*
X-485046Y-26676741D02*
X-515046Y-26706741D01*
D12*
X-189332Y-26582217D02*
X-170284Y-26582217D01*
X-151236Y-26591741D01*
X-141713Y-26601265D01*
X-132189Y-26620312D01*
X-122665Y-26658408D01*
X-122665Y-26706027D01*
X-132189Y-26744122D01*
X-141713Y-26763170D01*
X-151236Y-26772693D01*
X-170284Y-26782217D01*
X-189332Y-26782217D01*
X-208379Y-26772693D01*
X-217903Y-26763170D01*
X-227427Y-26744122D01*
X-236951Y-26706027D01*
X-236951Y-26658408D01*
X-227427Y-26620312D01*
X-217903Y-26601265D01*
X-208379Y-26591741D01*
X-189332Y-26582217D01*
X-36951Y-26763170D02*
X-27427Y-26772693D01*
X-36951Y-26782217D01*
X-46474Y-26772693D01*
X-36951Y-26763170D01*
X-36951Y-26782217D01*
X39240Y-26582217D02*
X163049Y-26582217D01*
X96382Y-26658408D01*
X124954Y-26658408D01*
X144002Y-26667931D01*
X153525Y-26677455D01*
X163049Y-26696503D01*
X163049Y-26744122D01*
X153525Y-26763170D01*
X144002Y-26772693D01*
X124954Y-26782217D01*
X67811Y-26782217D01*
X48763Y-26772693D01*
X39240Y-26763170D01*
X286859Y-26582217D02*
X305906Y-26582217D01*
X324954Y-26591741D01*
X334478Y-26601265D01*
X344002Y-26620312D01*
X353525Y-26658408D01*
X353525Y-26706027D01*
X344002Y-26744122D01*
X334478Y-26763170D01*
X324954Y-26772693D01*
X305906Y-26782217D01*
X286859Y-26782217D01*
X267811Y-26772693D01*
X258287Y-26763170D01*
X248763Y-26744122D01*
X239240Y-26706027D01*
X239240Y-26658408D01*
X248763Y-26620312D01*
X258287Y-26601265D01*
X267811Y-26591741D01*
X286859Y-26582217D01*
X477335Y-26582217D02*
X496382Y-26582217D01*
X515430Y-26591741D01*
X524954Y-26601265D01*
X534478Y-26620312D01*
X544002Y-26658408D01*
X544002Y-26706027D01*
X534478Y-26744122D01*
X524954Y-26763170D01*
X515430Y-26772693D01*
X496382Y-26782217D01*
X477335Y-26782217D01*
X458287Y-26772693D01*
X448763Y-26763170D01*
X439240Y-26744122D01*
X429716Y-26706027D01*
X429716Y-26658408D01*
X439240Y-26620312D01*
X448763Y-26601265D01*
X458287Y-26591741D01*
X477335Y-26582217D01*
X629716Y-26782217D02*
X629716Y-26648884D01*
X629716Y-26667931D02*
X639240Y-26658408D01*
X658287Y-26648884D01*
X686859Y-26648884D01*
X705906Y-26658408D01*
X715430Y-26677455D01*
X715430Y-26782217D01*
X715430Y-26677455D02*
X724954Y-26658408D01*
X744002Y-26648884D01*
X772573Y-26648884D01*
X791621Y-26658408D01*
X801144Y-26677455D01*
X801144Y-26782217D01*
X896382Y-26782217D02*
X896382Y-26648884D01*
X896382Y-26667931D02*
X905906Y-26658408D01*
X924954Y-26648884D01*
X953525Y-26648884D01*
X972573Y-26658408D01*
X982097Y-26677455D01*
X982097Y-26782217D01*
X982097Y-26677455D02*
X991621Y-26658408D01*
X1010668Y-26648884D01*
X1039240Y-26648884D01*
X1058287Y-26658408D01*
X1067811Y-26677455D01*
X1067811Y-26782217D01*
X1458287Y-26572693D02*
X1286859Y-26829836D01*
X1715430Y-26582217D02*
X1734478Y-26582217D01*
X1753525Y-26591741D01*
X1763049Y-26601265D01*
X1772573Y-26620312D01*
X1782097Y-26658408D01*
X1782097Y-26706027D01*
X1772573Y-26744122D01*
X1763049Y-26763170D01*
X1753525Y-26772693D01*
X1734478Y-26782217D01*
X1715430Y-26782217D01*
X1696382Y-26772693D01*
X1686859Y-26763170D01*
X1677335Y-26744122D01*
X1667811Y-26706027D01*
X1667811Y-26658408D01*
X1677335Y-26620312D01*
X1686859Y-26601265D01*
X1696382Y-26591741D01*
X1715430Y-26582217D01*
X1867811Y-26763170D02*
X1877335Y-26772693D01*
X1867811Y-26782217D01*
X1858287Y-26772693D01*
X1867811Y-26763170D01*
X1867811Y-26782217D01*
X2001144Y-26582217D02*
X2020192Y-26582217D01*
X2039240Y-26591741D01*
X2048763Y-26601265D01*
X2058287Y-26620312D01*
X2067811Y-26658408D01*
X2067811Y-26706027D01*
X2058287Y-26744122D01*
X2048763Y-26763170D01*
X2039240Y-26772693D01*
X2020192Y-26782217D01*
X2001144Y-26782217D01*
X1982097Y-26772693D01*
X1972573Y-26763170D01*
X1963049Y-26744122D01*
X1953525Y-26706027D01*
X1953525Y-26658408D01*
X1963049Y-26620312D01*
X1972573Y-26601265D01*
X1982097Y-26591741D01*
X2001144Y-26582217D01*
X2258287Y-26782217D02*
X2144002Y-26782217D01*
X2201144Y-26782217D02*
X2201144Y-26582217D01*
X2182097Y-26610789D01*
X2163049Y-26629836D01*
X2144002Y-26639360D01*
X2448764Y-26782217D02*
X2334478Y-26782217D01*
X2391621Y-26782217D02*
X2391621Y-26582217D01*
X2372573Y-26610789D01*
X2353525Y-26629836D01*
X2334478Y-26639360D01*
X2563049Y-26667931D02*
X2544002Y-26658408D01*
X2534478Y-26648884D01*
X2524954Y-26629836D01*
X2524954Y-26620312D01*
X2534478Y-26601265D01*
X2544002Y-26591741D01*
X2563049Y-26582217D01*
X2601144Y-26582217D01*
X2620192Y-26591741D01*
X2629716Y-26601265D01*
X2639240Y-26620312D01*
X2639240Y-26629836D01*
X2629716Y-26648884D01*
X2620192Y-26658408D01*
X2601144Y-26667931D01*
X2563049Y-26667931D01*
X2544002Y-26677455D01*
X2534478Y-26686979D01*
X2524954Y-26706027D01*
X2524954Y-26744122D01*
X2534478Y-26763170D01*
X2544002Y-26772693D01*
X2563049Y-26782217D01*
X2601144Y-26782217D01*
X2620192Y-26772693D01*
X2629716Y-26763170D01*
X2639240Y-26744122D01*
X2639240Y-26706027D01*
X2629716Y-26686979D01*
X2620192Y-26677455D01*
X2601144Y-26667931D01*
X2715430Y-26582217D02*
X2715430Y-26620312D01*
X2791621Y-26582217D02*
X2791621Y-26620312D01*
X3086859Y-26858408D02*
X3077335Y-26848884D01*
X3058287Y-26820312D01*
X3048763Y-26801265D01*
X3039240Y-26772693D01*
X3029716Y-26725074D01*
X3029716Y-26686979D01*
X3039240Y-26639360D01*
X3048763Y-26610789D01*
X3058287Y-26591741D01*
X3077335Y-26563170D01*
X3086859Y-26553646D01*
X3267811Y-26782217D02*
X3153525Y-26782217D01*
X3210668Y-26782217D02*
X3210668Y-26582217D01*
X3191621Y-26610789D01*
X3172573Y-26629836D01*
X3153525Y-26639360D01*
X3439240Y-26648884D02*
X3439240Y-26782217D01*
X3391621Y-26572693D02*
X3344002Y-26715551D01*
X3467811Y-26715551D01*
X3629716Y-26648884D02*
X3629716Y-26782217D01*
X3582097Y-26572693D02*
X3534478Y-26715551D01*
X3658287Y-26715551D01*
X3886859Y-26782217D02*
X3886859Y-26582217D01*
X3972573Y-26782217D02*
X3972573Y-26677455D01*
X3963049Y-26658408D01*
X3944002Y-26648884D01*
X3915430Y-26648884D01*
X3896382Y-26658408D01*
X3886859Y-26667931D01*
X4096382Y-26782217D02*
X4077335Y-26772693D01*
X4067811Y-26763170D01*
X4058287Y-26744122D01*
X4058287Y-26686979D01*
X4067811Y-26667931D01*
X4077335Y-26658408D01*
X4096382Y-26648884D01*
X4124954Y-26648884D01*
X4144002Y-26658408D01*
X4153525Y-26667931D01*
X4163049Y-26686979D01*
X4163049Y-26744122D01*
X4153525Y-26763170D01*
X4144002Y-26772693D01*
X4124954Y-26782217D01*
X4096382Y-26782217D01*
X4277335Y-26782217D02*
X4258287Y-26772693D01*
X4248764Y-26753646D01*
X4248764Y-26582217D01*
X4429716Y-26772693D02*
X4410668Y-26782217D01*
X4372573Y-26782217D01*
X4353525Y-26772693D01*
X4344002Y-26753646D01*
X4344002Y-26677455D01*
X4353525Y-26658408D01*
X4372573Y-26648884D01*
X4410668Y-26648884D01*
X4429716Y-26658408D01*
X4439240Y-26677455D01*
X4439240Y-26696503D01*
X4344002Y-26715551D01*
X4515430Y-26772693D02*
X4534478Y-26782217D01*
X4572573Y-26782217D01*
X4591621Y-26772693D01*
X4601144Y-26753646D01*
X4601144Y-26744122D01*
X4591621Y-26725074D01*
X4572573Y-26715551D01*
X4544002Y-26715551D01*
X4524954Y-26706027D01*
X4515430Y-26686979D01*
X4515430Y-26677455D01*
X4524954Y-26658408D01*
X4544002Y-26648884D01*
X4572573Y-26648884D01*
X4591621Y-26658408D01*
X4667811Y-26858408D02*
X4677335Y-26848884D01*
X4696383Y-26820312D01*
X4705906Y-26801265D01*
X4715430Y-26772693D01*
X4724954Y-26725074D01*
X4724954Y-26686979D01*
X4715430Y-26639360D01*
X4705906Y-26610789D01*
X4696383Y-26591741D01*
X4677335Y-26563170D01*
X4667811Y-26553646D01*
D14*
X-485046Y-26955741D02*
G75*
G03*
X-485046Y-26955741I-20000J0D01*
G01*
D12*
X-189332Y-26846217D02*
X-170284Y-26846217D01*
X-151236Y-26855741D01*
X-141713Y-26865265D01*
X-132189Y-26884312D01*
X-122665Y-26922408D01*
X-122665Y-26970027D01*
X-132189Y-27008122D01*
X-141713Y-27027170D01*
X-151236Y-27036693D01*
X-170284Y-27046217D01*
X-189332Y-27046217D01*
X-208379Y-27036693D01*
X-217903Y-27027170D01*
X-227427Y-27008122D01*
X-236951Y-26970027D01*
X-236951Y-26922408D01*
X-227427Y-26884312D01*
X-217903Y-26865265D01*
X-208379Y-26855741D01*
X-189332Y-26846217D01*
X-36951Y-27027170D02*
X-27427Y-27036693D01*
X-36951Y-27046217D01*
X-46474Y-27036693D01*
X-36951Y-27027170D01*
X-36951Y-27046217D01*
X144002Y-26912884D02*
X144002Y-27046217D01*
X96382Y-26836693D02*
X48763Y-26979551D01*
X172573Y-26979551D01*
X286859Y-26846217D02*
X305906Y-26846217D01*
X324954Y-26855741D01*
X334478Y-26865265D01*
X344002Y-26884312D01*
X353525Y-26922408D01*
X353525Y-26970027D01*
X344002Y-27008122D01*
X334478Y-27027170D01*
X324954Y-27036693D01*
X305906Y-27046217D01*
X286859Y-27046217D01*
X267811Y-27036693D01*
X258287Y-27027170D01*
X248763Y-27008122D01*
X239240Y-26970027D01*
X239240Y-26922408D01*
X248763Y-26884312D01*
X258287Y-26865265D01*
X267811Y-26855741D01*
X286859Y-26846217D01*
X477335Y-26846217D02*
X496382Y-26846217D01*
X515430Y-26855741D01*
X524954Y-26865265D01*
X534478Y-26884312D01*
X544002Y-26922408D01*
X544002Y-26970027D01*
X534478Y-27008122D01*
X524954Y-27027170D01*
X515430Y-27036693D01*
X496382Y-27046217D01*
X477335Y-27046217D01*
X458287Y-27036693D01*
X448763Y-27027170D01*
X439240Y-27008122D01*
X429716Y-26970027D01*
X429716Y-26922408D01*
X439240Y-26884312D01*
X448763Y-26865265D01*
X458287Y-26855741D01*
X477335Y-26846217D01*
X629716Y-27046217D02*
X629716Y-26912884D01*
X629716Y-26931931D02*
X639240Y-26922408D01*
X658287Y-26912884D01*
X686859Y-26912884D01*
X705906Y-26922408D01*
X715430Y-26941455D01*
X715430Y-27046217D01*
X715430Y-26941455D02*
X724954Y-26922408D01*
X744002Y-26912884D01*
X772573Y-26912884D01*
X791621Y-26922408D01*
X801144Y-26941455D01*
X801144Y-27046217D01*
X896382Y-27046217D02*
X896382Y-26912884D01*
X896382Y-26931931D02*
X905906Y-26922408D01*
X924954Y-26912884D01*
X953525Y-26912884D01*
X972573Y-26922408D01*
X982097Y-26941455D01*
X982097Y-27046217D01*
X982097Y-26941455D02*
X991621Y-26922408D01*
X1010668Y-26912884D01*
X1039240Y-26912884D01*
X1058287Y-26922408D01*
X1067811Y-26941455D01*
X1067811Y-27046217D01*
X1458287Y-26836693D02*
X1286859Y-27093836D01*
X1715430Y-26846217D02*
X1734478Y-26846217D01*
X1753525Y-26855741D01*
X1763049Y-26865265D01*
X1772573Y-26884312D01*
X1782097Y-26922408D01*
X1782097Y-26970027D01*
X1772573Y-27008122D01*
X1763049Y-27027170D01*
X1753525Y-27036693D01*
X1734478Y-27046217D01*
X1715430Y-27046217D01*
X1696382Y-27036693D01*
X1686859Y-27027170D01*
X1677335Y-27008122D01*
X1667811Y-26970027D01*
X1667811Y-26922408D01*
X1677335Y-26884312D01*
X1686859Y-26865265D01*
X1696382Y-26855741D01*
X1715430Y-26846217D01*
X1867811Y-27027170D02*
X1877335Y-27036693D01*
X1867811Y-27046217D01*
X1858287Y-27036693D01*
X1867811Y-27027170D01*
X1867811Y-27046217D01*
X2001144Y-26846217D02*
X2020192Y-26846217D01*
X2039240Y-26855741D01*
X2048763Y-26865265D01*
X2058287Y-26884312D01*
X2067811Y-26922408D01*
X2067811Y-26970027D01*
X2058287Y-27008122D01*
X2048763Y-27027170D01*
X2039240Y-27036693D01*
X2020192Y-27046217D01*
X2001144Y-27046217D01*
X1982097Y-27036693D01*
X1972573Y-27027170D01*
X1963049Y-27008122D01*
X1953525Y-26970027D01*
X1953525Y-26922408D01*
X1963049Y-26884312D01*
X1972573Y-26865265D01*
X1982097Y-26855741D01*
X2001144Y-26846217D01*
X2258287Y-27046217D02*
X2144002Y-27046217D01*
X2201144Y-27046217D02*
X2201144Y-26846217D01*
X2182097Y-26874789D01*
X2163049Y-26893836D01*
X2144002Y-26903360D01*
X2439240Y-26846217D02*
X2344002Y-26846217D01*
X2334478Y-26941455D01*
X2344002Y-26931931D01*
X2363049Y-26922408D01*
X2410668Y-26922408D01*
X2429716Y-26931931D01*
X2439240Y-26941455D01*
X2448764Y-26960503D01*
X2448764Y-27008122D01*
X2439240Y-27027170D01*
X2429716Y-27036693D01*
X2410668Y-27046217D01*
X2363049Y-27046217D01*
X2344002Y-27036693D01*
X2334478Y-27027170D01*
X2515430Y-26846217D02*
X2648764Y-26846217D01*
X2563049Y-27046217D01*
X2715430Y-26846217D02*
X2715430Y-26884312D01*
X2791621Y-26846217D02*
X2791621Y-26884312D01*
X3086859Y-27122408D02*
X3077335Y-27112884D01*
X3058287Y-27084312D01*
X3048763Y-27065265D01*
X3039240Y-27036693D01*
X3029716Y-26989074D01*
X3029716Y-26950979D01*
X3039240Y-26903360D01*
X3048763Y-26874789D01*
X3058287Y-26855741D01*
X3077335Y-26827170D01*
X3086859Y-26817646D01*
X3153525Y-26865265D02*
X3163049Y-26855741D01*
X3182097Y-26846217D01*
X3229716Y-26846217D01*
X3248763Y-26855741D01*
X3258287Y-26865265D01*
X3267811Y-26884312D01*
X3267811Y-26903360D01*
X3258287Y-26931931D01*
X3144002Y-27046217D01*
X3267811Y-27046217D01*
X3505906Y-27046217D02*
X3505906Y-26846217D01*
X3591621Y-27046217D02*
X3591621Y-26941455D01*
X3582097Y-26922408D01*
X3563049Y-26912884D01*
X3534478Y-26912884D01*
X3515430Y-26922408D01*
X3505906Y-26931931D01*
X3715430Y-27046217D02*
X3696382Y-27036693D01*
X3686859Y-27027170D01*
X3677335Y-27008122D01*
X3677335Y-26950979D01*
X3686859Y-26931931D01*
X3696382Y-26922408D01*
X3715430Y-26912884D01*
X3744002Y-26912884D01*
X3763049Y-26922408D01*
X3772573Y-26931931D01*
X3782097Y-26950979D01*
X3782097Y-27008122D01*
X3772573Y-27027170D01*
X3763049Y-27036693D01*
X3744002Y-27046217D01*
X3715430Y-27046217D01*
X3896382Y-27046217D02*
X3877335Y-27036693D01*
X3867811Y-27017646D01*
X3867811Y-26846217D01*
X4048763Y-27036693D02*
X4029716Y-27046217D01*
X3991621Y-27046217D01*
X3972573Y-27036693D01*
X3963049Y-27017646D01*
X3963049Y-26941455D01*
X3972573Y-26922408D01*
X3991621Y-26912884D01*
X4029716Y-26912884D01*
X4048763Y-26922408D01*
X4058287Y-26941455D01*
X4058287Y-26960503D01*
X3963049Y-26979551D01*
X4134478Y-27036693D02*
X4153525Y-27046217D01*
X4191621Y-27046217D01*
X4210668Y-27036693D01*
X4220192Y-27017646D01*
X4220192Y-27008122D01*
X4210668Y-26989074D01*
X4191621Y-26979551D01*
X4163049Y-26979551D01*
X4144002Y-26970027D01*
X4134478Y-26950979D01*
X4134478Y-26941455D01*
X4144002Y-26922408D01*
X4163049Y-26912884D01*
X4191621Y-26912884D01*
X4210668Y-26922408D01*
X4286859Y-27122408D02*
X4296383Y-27112884D01*
X4315430Y-27084312D01*
X4324954Y-27065265D01*
X4334478Y-27036693D01*
X4344002Y-26989074D01*
X4344002Y-26950979D01*
X4334478Y-26903360D01*
X4324954Y-26874789D01*
X4315430Y-26855741D01*
X4296383Y-26827170D01*
X4286859Y-26817646D01*
D15*
X-534546Y-27170241D02*
X-534546Y-27269241D01*
X-584046Y-27219741D02*
X-485046Y-27219741D01*
D12*
X-189332Y-27110217D02*
X-170284Y-27110217D01*
X-151236Y-27119741D01*
X-141713Y-27129265D01*
X-132189Y-27148312D01*
X-122665Y-27186408D01*
X-122665Y-27234027D01*
X-132189Y-27272122D01*
X-141713Y-27291170D01*
X-151236Y-27300693D01*
X-170284Y-27310217D01*
X-189332Y-27310217D01*
X-208379Y-27300693D01*
X-217903Y-27291170D01*
X-227427Y-27272122D01*
X-236951Y-27234027D01*
X-236951Y-27186408D01*
X-227427Y-27148312D01*
X-217903Y-27129265D01*
X-208379Y-27119741D01*
X-189332Y-27110217D01*
X-36951Y-27291170D02*
X-27427Y-27300693D01*
X-36951Y-27310217D01*
X-46474Y-27300693D01*
X-36951Y-27291170D01*
X-36951Y-27310217D01*
X67811Y-27310217D02*
X105906Y-27310217D01*
X124954Y-27300693D01*
X134478Y-27291170D01*
X153525Y-27262598D01*
X163049Y-27224503D01*
X163049Y-27148312D01*
X153525Y-27129265D01*
X144002Y-27119741D01*
X124954Y-27110217D01*
X86859Y-27110217D01*
X67811Y-27119741D01*
X58287Y-27129265D01*
X48763Y-27148312D01*
X48763Y-27195931D01*
X58287Y-27214979D01*
X67811Y-27224503D01*
X86859Y-27234027D01*
X124954Y-27234027D01*
X144002Y-27224503D01*
X153525Y-27214979D01*
X163049Y-27195931D01*
X258287Y-27310217D02*
X296383Y-27310217D01*
X315430Y-27300693D01*
X324954Y-27291170D01*
X344002Y-27262598D01*
X353525Y-27224503D01*
X353525Y-27148312D01*
X344002Y-27129265D01*
X334478Y-27119741D01*
X315430Y-27110217D01*
X277335Y-27110217D01*
X258287Y-27119741D01*
X248763Y-27129265D01*
X239240Y-27148312D01*
X239240Y-27195931D01*
X248763Y-27214979D01*
X258287Y-27224503D01*
X277335Y-27234027D01*
X315430Y-27234027D01*
X334478Y-27224503D01*
X344002Y-27214979D01*
X353525Y-27195931D01*
X477335Y-27110217D02*
X496382Y-27110217D01*
X515430Y-27119741D01*
X524954Y-27129265D01*
X534478Y-27148312D01*
X544002Y-27186408D01*
X544002Y-27234027D01*
X534478Y-27272122D01*
X524954Y-27291170D01*
X515430Y-27300693D01*
X496382Y-27310217D01*
X477335Y-27310217D01*
X458287Y-27300693D01*
X448763Y-27291170D01*
X439240Y-27272122D01*
X429716Y-27234027D01*
X429716Y-27186408D01*
X439240Y-27148312D01*
X448763Y-27129265D01*
X458287Y-27119741D01*
X477335Y-27110217D01*
X629716Y-27310217D02*
X629716Y-27176884D01*
X629716Y-27195931D02*
X639240Y-27186408D01*
X658287Y-27176884D01*
X686859Y-27176884D01*
X705906Y-27186408D01*
X715430Y-27205455D01*
X715430Y-27310217D01*
X715430Y-27205455D02*
X724954Y-27186408D01*
X744002Y-27176884D01*
X772573Y-27176884D01*
X791621Y-27186408D01*
X801144Y-27205455D01*
X801144Y-27310217D01*
X896382Y-27310217D02*
X896382Y-27176884D01*
X896382Y-27195931D02*
X905906Y-27186408D01*
X924954Y-27176884D01*
X953525Y-27176884D01*
X972573Y-27186408D01*
X982097Y-27205455D01*
X982097Y-27310217D01*
X982097Y-27205455D02*
X991621Y-27186408D01*
X1010668Y-27176884D01*
X1039240Y-27176884D01*
X1058287Y-27186408D01*
X1067811Y-27205455D01*
X1067811Y-27310217D01*
X1458287Y-27100693D02*
X1286859Y-27357836D01*
X1715430Y-27110217D02*
X1734478Y-27110217D01*
X1753525Y-27119741D01*
X1763049Y-27129265D01*
X1772573Y-27148312D01*
X1782097Y-27186408D01*
X1782097Y-27234027D01*
X1772573Y-27272122D01*
X1763049Y-27291170D01*
X1753525Y-27300693D01*
X1734478Y-27310217D01*
X1715430Y-27310217D01*
X1696382Y-27300693D01*
X1686859Y-27291170D01*
X1677335Y-27272122D01*
X1667811Y-27234027D01*
X1667811Y-27186408D01*
X1677335Y-27148312D01*
X1686859Y-27129265D01*
X1696382Y-27119741D01*
X1715430Y-27110217D01*
X1867811Y-27291170D02*
X1877335Y-27300693D01*
X1867811Y-27310217D01*
X1858287Y-27300693D01*
X1867811Y-27291170D01*
X1867811Y-27310217D01*
X2001144Y-27110217D02*
X2020192Y-27110217D01*
X2039240Y-27119741D01*
X2048763Y-27129265D01*
X2058287Y-27148312D01*
X2067811Y-27186408D01*
X2067811Y-27234027D01*
X2058287Y-27272122D01*
X2048763Y-27291170D01*
X2039240Y-27300693D01*
X2020192Y-27310217D01*
X2001144Y-27310217D01*
X1982097Y-27300693D01*
X1972573Y-27291170D01*
X1963049Y-27272122D01*
X1953525Y-27234027D01*
X1953525Y-27186408D01*
X1963049Y-27148312D01*
X1972573Y-27129265D01*
X1982097Y-27119741D01*
X2001144Y-27110217D01*
X2134478Y-27110217D02*
X2258287Y-27110217D01*
X2191621Y-27186408D01*
X2220192Y-27186408D01*
X2239240Y-27195931D01*
X2248764Y-27205455D01*
X2258287Y-27224503D01*
X2258287Y-27272122D01*
X2248764Y-27291170D01*
X2239240Y-27300693D01*
X2220192Y-27310217D01*
X2163049Y-27310217D01*
X2144002Y-27300693D01*
X2134478Y-27291170D01*
X2353525Y-27310217D02*
X2391621Y-27310217D01*
X2410668Y-27300693D01*
X2420192Y-27291170D01*
X2439240Y-27262598D01*
X2448764Y-27224503D01*
X2448764Y-27148312D01*
X2439240Y-27129265D01*
X2429716Y-27119741D01*
X2410668Y-27110217D01*
X2372573Y-27110217D01*
X2353525Y-27119741D01*
X2344002Y-27129265D01*
X2334478Y-27148312D01*
X2334478Y-27195931D01*
X2344002Y-27214979D01*
X2353525Y-27224503D01*
X2372573Y-27234027D01*
X2410668Y-27234027D01*
X2429716Y-27224503D01*
X2439240Y-27214979D01*
X2448764Y-27195931D01*
X2572573Y-27110217D02*
X2591621Y-27110217D01*
X2610668Y-27119741D01*
X2620192Y-27129265D01*
X2629716Y-27148312D01*
X2639240Y-27186408D01*
X2639240Y-27234027D01*
X2629716Y-27272122D01*
X2620192Y-27291170D01*
X2610668Y-27300693D01*
X2591621Y-27310217D01*
X2572573Y-27310217D01*
X2553525Y-27300693D01*
X2544002Y-27291170D01*
X2534478Y-27272122D01*
X2524954Y-27234027D01*
X2524954Y-27186408D01*
X2534478Y-27148312D01*
X2544002Y-27129265D01*
X2553525Y-27119741D01*
X2572573Y-27110217D01*
X2715430Y-27110217D02*
X2715430Y-27148312D01*
X2791621Y-27110217D02*
X2791621Y-27148312D01*
X3086859Y-27386408D02*
X3077335Y-27376884D01*
X3058287Y-27348312D01*
X3048763Y-27329265D01*
X3039240Y-27300693D01*
X3029716Y-27253074D01*
X3029716Y-27214979D01*
X3039240Y-27167360D01*
X3048763Y-27138789D01*
X3058287Y-27119741D01*
X3077335Y-27091170D01*
X3086859Y-27081646D01*
X3248763Y-27176884D02*
X3248763Y-27310217D01*
X3201144Y-27100693D02*
X3153525Y-27243551D01*
X3277335Y-27243551D01*
X3505906Y-27310217D02*
X3505906Y-27110217D01*
X3591621Y-27310217D02*
X3591621Y-27205455D01*
X3582097Y-27186408D01*
X3563049Y-27176884D01*
X3534478Y-27176884D01*
X3515430Y-27186408D01*
X3505906Y-27195931D01*
X3715430Y-27310217D02*
X3696382Y-27300693D01*
X3686859Y-27291170D01*
X3677335Y-27272122D01*
X3677335Y-27214979D01*
X3686859Y-27195931D01*
X3696382Y-27186408D01*
X3715430Y-27176884D01*
X3744002Y-27176884D01*
X3763049Y-27186408D01*
X3772573Y-27195931D01*
X3782097Y-27214979D01*
X3782097Y-27272122D01*
X3772573Y-27291170D01*
X3763049Y-27300693D01*
X3744002Y-27310217D01*
X3715430Y-27310217D01*
X3896382Y-27310217D02*
X3877335Y-27300693D01*
X3867811Y-27281646D01*
X3867811Y-27110217D01*
X4048763Y-27300693D02*
X4029716Y-27310217D01*
X3991621Y-27310217D01*
X3972573Y-27300693D01*
X3963049Y-27281646D01*
X3963049Y-27205455D01*
X3972573Y-27186408D01*
X3991621Y-27176884D01*
X4029716Y-27176884D01*
X4048763Y-27186408D01*
X4058287Y-27205455D01*
X4058287Y-27224503D01*
X3963049Y-27243551D01*
X4134478Y-27300693D02*
X4153525Y-27310217D01*
X4191621Y-27310217D01*
X4210668Y-27300693D01*
X4220192Y-27281646D01*
X4220192Y-27272122D01*
X4210668Y-27253074D01*
X4191621Y-27243551D01*
X4163049Y-27243551D01*
X4144002Y-27234027D01*
X4134478Y-27214979D01*
X4134478Y-27205455D01*
X4144002Y-27186408D01*
X4163049Y-27176884D01*
X4191621Y-27176884D01*
X4210668Y-27186408D01*
X4286859Y-27386408D02*
X4296383Y-27376884D01*
X4315430Y-27348312D01*
X4324954Y-27329265D01*
X4334478Y-27300693D01*
X4344002Y-27253074D01*
X4344002Y-27214979D01*
X4334478Y-27167360D01*
X4324954Y-27138789D01*
X4315430Y-27119741D01*
X4296383Y-27091170D01*
X4286859Y-27081646D01*
D16*
X-499983Y-27519804D02*
X-499983Y-27447678D01*
X-572109Y-27447678D01*
X-572109Y-27519804D01*
X-499983Y-27519804D01*
D12*
X-122665Y-27574217D02*
X-236951Y-27574217D01*
X-179808Y-27574217D02*
X-179808Y-27374217D01*
X-198855Y-27402789D01*
X-217903Y-27421836D01*
X-236951Y-27431360D01*
X-36951Y-27555170D02*
X-27427Y-27564693D01*
X-36951Y-27574217D01*
X-46474Y-27564693D01*
X-36951Y-27555170D01*
X-36951Y-27574217D01*
X96382Y-27374217D02*
X115430Y-27374217D01*
X134478Y-27383741D01*
X144002Y-27393265D01*
X153525Y-27412312D01*
X163049Y-27450408D01*
X163049Y-27498027D01*
X153525Y-27536122D01*
X144002Y-27555170D01*
X134478Y-27564693D01*
X115430Y-27574217D01*
X96382Y-27574217D01*
X77335Y-27564693D01*
X67811Y-27555170D01*
X58287Y-27536122D01*
X48763Y-27498027D01*
X48763Y-27450408D01*
X58287Y-27412312D01*
X67811Y-27393265D01*
X77335Y-27383741D01*
X96382Y-27374217D01*
X239240Y-27393265D02*
X248763Y-27383741D01*
X267811Y-27374217D01*
X315430Y-27374217D01*
X334478Y-27383741D01*
X344002Y-27393265D01*
X353525Y-27412312D01*
X353525Y-27431360D01*
X344002Y-27459931D01*
X229716Y-27574217D01*
X353525Y-27574217D01*
X477335Y-27374217D02*
X496382Y-27374217D01*
X515430Y-27383741D01*
X524954Y-27393265D01*
X534478Y-27412312D01*
X544002Y-27450408D01*
X544002Y-27498027D01*
X534478Y-27536122D01*
X524954Y-27555170D01*
X515430Y-27564693D01*
X496382Y-27574217D01*
X477335Y-27574217D01*
X458287Y-27564693D01*
X448763Y-27555170D01*
X439240Y-27536122D01*
X429716Y-27498027D01*
X429716Y-27450408D01*
X439240Y-27412312D01*
X448763Y-27393265D01*
X458287Y-27383741D01*
X477335Y-27374217D01*
X629716Y-27574217D02*
X629716Y-27440884D01*
X629716Y-27459931D02*
X639240Y-27450408D01*
X658287Y-27440884D01*
X686859Y-27440884D01*
X705906Y-27450408D01*
X715430Y-27469455D01*
X715430Y-27574217D01*
X715430Y-27469455D02*
X724954Y-27450408D01*
X744002Y-27440884D01*
X772573Y-27440884D01*
X791621Y-27450408D01*
X801144Y-27469455D01*
X801144Y-27574217D01*
X896382Y-27574217D02*
X896382Y-27440884D01*
X896382Y-27459931D02*
X905906Y-27450408D01*
X924954Y-27440884D01*
X953525Y-27440884D01*
X972573Y-27450408D01*
X982097Y-27469455D01*
X982097Y-27574217D01*
X982097Y-27469455D02*
X991621Y-27450408D01*
X1010668Y-27440884D01*
X1039240Y-27440884D01*
X1058287Y-27450408D01*
X1067811Y-27469455D01*
X1067811Y-27574217D01*
X1458287Y-27364693D02*
X1286859Y-27621836D01*
X1715430Y-27374217D02*
X1734478Y-27374217D01*
X1753525Y-27383741D01*
X1763049Y-27393265D01*
X1772573Y-27412312D01*
X1782097Y-27450408D01*
X1782097Y-27498027D01*
X1772573Y-27536122D01*
X1763049Y-27555170D01*
X1753525Y-27564693D01*
X1734478Y-27574217D01*
X1715430Y-27574217D01*
X1696382Y-27564693D01*
X1686859Y-27555170D01*
X1677335Y-27536122D01*
X1667811Y-27498027D01*
X1667811Y-27450408D01*
X1677335Y-27412312D01*
X1686859Y-27393265D01*
X1696382Y-27383741D01*
X1715430Y-27374217D01*
X1867811Y-27555170D02*
X1877335Y-27564693D01*
X1867811Y-27574217D01*
X1858287Y-27564693D01*
X1867811Y-27555170D01*
X1867811Y-27574217D01*
X2001144Y-27374217D02*
X2020192Y-27374217D01*
X2039240Y-27383741D01*
X2048763Y-27393265D01*
X2058287Y-27412312D01*
X2067811Y-27450408D01*
X2067811Y-27498027D01*
X2058287Y-27536122D01*
X2048763Y-27555170D01*
X2039240Y-27564693D01*
X2020192Y-27574217D01*
X2001144Y-27574217D01*
X1982097Y-27564693D01*
X1972573Y-27555170D01*
X1963049Y-27536122D01*
X1953525Y-27498027D01*
X1953525Y-27450408D01*
X1963049Y-27412312D01*
X1972573Y-27393265D01*
X1982097Y-27383741D01*
X2001144Y-27374217D01*
X2239240Y-27440884D02*
X2239240Y-27574217D01*
X2191621Y-27364693D02*
X2144002Y-27507551D01*
X2267811Y-27507551D01*
X2382097Y-27374217D02*
X2401144Y-27374217D01*
X2420192Y-27383741D01*
X2429716Y-27393265D01*
X2439240Y-27412312D01*
X2448764Y-27450408D01*
X2448764Y-27498027D01*
X2439240Y-27536122D01*
X2429716Y-27555170D01*
X2420192Y-27564693D01*
X2401144Y-27574217D01*
X2382097Y-27574217D01*
X2363049Y-27564693D01*
X2353525Y-27555170D01*
X2344002Y-27536122D01*
X2334478Y-27498027D01*
X2334478Y-27450408D01*
X2344002Y-27412312D01*
X2353525Y-27393265D01*
X2363049Y-27383741D01*
X2382097Y-27374217D01*
X2524954Y-27393265D02*
X2534478Y-27383741D01*
X2553525Y-27374217D01*
X2601144Y-27374217D01*
X2620192Y-27383741D01*
X2629716Y-27393265D01*
X2639240Y-27412312D01*
X2639240Y-27431360D01*
X2629716Y-27459931D01*
X2515430Y-27574217D01*
X2639240Y-27574217D01*
X2715430Y-27374217D02*
X2715430Y-27412312D01*
X2791621Y-27374217D02*
X2791621Y-27412312D01*
X3086859Y-27650408D02*
X3077335Y-27640884D01*
X3058287Y-27612312D01*
X3048763Y-27593265D01*
X3039240Y-27564693D01*
X3029716Y-27517074D01*
X3029716Y-27478979D01*
X3039240Y-27431360D01*
X3048763Y-27402789D01*
X3058287Y-27383741D01*
X3077335Y-27355170D01*
X3086859Y-27345646D01*
X3267811Y-27574217D02*
X3153525Y-27574217D01*
X3210668Y-27574217D02*
X3210668Y-27374217D01*
X3191621Y-27402789D01*
X3172573Y-27421836D01*
X3153525Y-27431360D01*
X3458287Y-27574217D02*
X3344002Y-27574217D01*
X3401144Y-27574217D02*
X3401144Y-27374217D01*
X3382097Y-27402789D01*
X3363049Y-27421836D01*
X3344002Y-27431360D01*
X3696382Y-27574217D02*
X3696382Y-27374217D01*
X3782097Y-27574217D02*
X3782097Y-27469455D01*
X3772573Y-27450408D01*
X3753525Y-27440884D01*
X3724954Y-27440884D01*
X3705906Y-27450408D01*
X3696382Y-27459931D01*
X3905906Y-27574217D02*
X3886859Y-27564693D01*
X3877335Y-27555170D01*
X3867811Y-27536122D01*
X3867811Y-27478979D01*
X3877335Y-27459931D01*
X3886859Y-27450408D01*
X3905906Y-27440884D01*
X3934478Y-27440884D01*
X3953525Y-27450408D01*
X3963049Y-27459931D01*
X3972573Y-27478979D01*
X3972573Y-27536122D01*
X3963049Y-27555170D01*
X3953525Y-27564693D01*
X3934478Y-27574217D01*
X3905906Y-27574217D01*
X4086859Y-27574217D02*
X4067811Y-27564693D01*
X4058287Y-27545646D01*
X4058287Y-27374217D01*
X4239240Y-27564693D02*
X4220192Y-27574217D01*
X4182097Y-27574217D01*
X4163049Y-27564693D01*
X4153525Y-27545646D01*
X4153525Y-27469455D01*
X4163049Y-27450408D01*
X4182097Y-27440884D01*
X4220192Y-27440884D01*
X4239240Y-27450408D01*
X4248764Y-27469455D01*
X4248764Y-27488503D01*
X4153525Y-27507551D01*
X4324954Y-27564693D02*
X4344002Y-27574217D01*
X4382097Y-27574217D01*
X4401144Y-27564693D01*
X4410668Y-27545646D01*
X4410668Y-27536122D01*
X4401144Y-27517074D01*
X4382097Y-27507551D01*
X4353525Y-27507551D01*
X4334478Y-27498027D01*
X4324954Y-27478979D01*
X4324954Y-27469455D01*
X4334478Y-27450408D01*
X4353525Y-27440884D01*
X4382097Y-27440884D01*
X4401144Y-27450408D01*
X4477335Y-27650408D02*
X4486859Y-27640884D01*
X4505906Y-27612312D01*
X4515430Y-27593265D01*
X4524954Y-27564693D01*
X4534478Y-27517074D01*
X4534478Y-27478979D01*
X4524954Y-27431360D01*
X4515430Y-27402789D01*
X4505906Y-27383741D01*
X4486859Y-27355170D01*
X4477335Y-27345646D01*
D17*
X-545046Y-27807741D02*
X-485046Y-27747741D01*
X-545046Y-27687741D01*
X-605046Y-27747741D01*
X-545046Y-27807741D01*
D12*
X-122665Y-27838217D02*
X-236951Y-27838217D01*
X-179808Y-27838217D02*
X-179808Y-27638217D01*
X-198855Y-27666789D01*
X-217903Y-27685836D01*
X-236951Y-27695360D01*
X-36951Y-27819170D02*
X-27427Y-27828693D01*
X-36951Y-27838217D01*
X-46474Y-27828693D01*
X-36951Y-27819170D01*
X-36951Y-27838217D01*
X48763Y-27657265D02*
X58287Y-27647741D01*
X77335Y-27638217D01*
X124954Y-27638217D01*
X144002Y-27647741D01*
X153525Y-27657265D01*
X163049Y-27676312D01*
X163049Y-27695360D01*
X153525Y-27723931D01*
X39240Y-27838217D01*
X163049Y-27838217D01*
X286859Y-27638217D02*
X305906Y-27638217D01*
X324954Y-27647741D01*
X334478Y-27657265D01*
X344002Y-27676312D01*
X353525Y-27714408D01*
X353525Y-27762027D01*
X344002Y-27800122D01*
X334478Y-27819170D01*
X324954Y-27828693D01*
X305906Y-27838217D01*
X286859Y-27838217D01*
X267811Y-27828693D01*
X258287Y-27819170D01*
X248763Y-27800122D01*
X239240Y-27762027D01*
X239240Y-27714408D01*
X248763Y-27676312D01*
X258287Y-27657265D01*
X267811Y-27647741D01*
X286859Y-27638217D01*
X477335Y-27638217D02*
X496382Y-27638217D01*
X515430Y-27647741D01*
X524954Y-27657265D01*
X534478Y-27676312D01*
X544002Y-27714408D01*
X544002Y-27762027D01*
X534478Y-27800122D01*
X524954Y-27819170D01*
X515430Y-27828693D01*
X496382Y-27838217D01*
X477335Y-27838217D01*
X458287Y-27828693D01*
X448763Y-27819170D01*
X439240Y-27800122D01*
X429716Y-27762027D01*
X429716Y-27714408D01*
X439240Y-27676312D01*
X448763Y-27657265D01*
X458287Y-27647741D01*
X477335Y-27638217D01*
X629716Y-27838217D02*
X629716Y-27704884D01*
X629716Y-27723931D02*
X639240Y-27714408D01*
X658287Y-27704884D01*
X686859Y-27704884D01*
X705906Y-27714408D01*
X715430Y-27733455D01*
X715430Y-27838217D01*
X715430Y-27733455D02*
X724954Y-27714408D01*
X744002Y-27704884D01*
X772573Y-27704884D01*
X791621Y-27714408D01*
X801144Y-27733455D01*
X801144Y-27838217D01*
X896382Y-27838217D02*
X896382Y-27704884D01*
X896382Y-27723931D02*
X905906Y-27714408D01*
X924954Y-27704884D01*
X953525Y-27704884D01*
X972573Y-27714408D01*
X982097Y-27733455D01*
X982097Y-27838217D01*
X982097Y-27733455D02*
X991621Y-27714408D01*
X1010668Y-27704884D01*
X1039240Y-27704884D01*
X1058287Y-27714408D01*
X1067811Y-27733455D01*
X1067811Y-27838217D01*
X1458287Y-27628693D02*
X1286859Y-27885836D01*
X1715430Y-27638217D02*
X1734478Y-27638217D01*
X1753525Y-27647741D01*
X1763049Y-27657265D01*
X1772573Y-27676312D01*
X1782097Y-27714408D01*
X1782097Y-27762027D01*
X1772573Y-27800122D01*
X1763049Y-27819170D01*
X1753525Y-27828693D01*
X1734478Y-27838217D01*
X1715430Y-27838217D01*
X1696382Y-27828693D01*
X1686859Y-27819170D01*
X1677335Y-27800122D01*
X1667811Y-27762027D01*
X1667811Y-27714408D01*
X1677335Y-27676312D01*
X1686859Y-27657265D01*
X1696382Y-27647741D01*
X1715430Y-27638217D01*
X1867811Y-27819170D02*
X1877335Y-27828693D01*
X1867811Y-27838217D01*
X1858287Y-27828693D01*
X1867811Y-27819170D01*
X1867811Y-27838217D01*
X2001144Y-27638217D02*
X2020192Y-27638217D01*
X2039240Y-27647741D01*
X2048763Y-27657265D01*
X2058287Y-27676312D01*
X2067811Y-27714408D01*
X2067811Y-27762027D01*
X2058287Y-27800122D01*
X2048763Y-27819170D01*
X2039240Y-27828693D01*
X2020192Y-27838217D01*
X2001144Y-27838217D01*
X1982097Y-27828693D01*
X1972573Y-27819170D01*
X1963049Y-27800122D01*
X1953525Y-27762027D01*
X1953525Y-27714408D01*
X1963049Y-27676312D01*
X1972573Y-27657265D01*
X1982097Y-27647741D01*
X2001144Y-27638217D01*
X2239240Y-27704884D02*
X2239240Y-27838217D01*
X2191621Y-27628693D02*
X2144002Y-27771551D01*
X2267811Y-27771551D01*
X2324954Y-27638217D02*
X2458287Y-27638217D01*
X2372573Y-27838217D01*
X2524954Y-27657265D02*
X2534478Y-27647741D01*
X2553525Y-27638217D01*
X2601144Y-27638217D01*
X2620192Y-27647741D01*
X2629716Y-27657265D01*
X2639240Y-27676312D01*
X2639240Y-27695360D01*
X2629716Y-27723931D01*
X2515430Y-27838217D01*
X2639240Y-27838217D01*
X2715430Y-27638217D02*
X2715430Y-27676312D01*
X2791621Y-27638217D02*
X2791621Y-27676312D01*
X3086859Y-27914408D02*
X3077335Y-27904884D01*
X3058287Y-27876312D01*
X3048763Y-27857265D01*
X3039240Y-27828693D01*
X3029716Y-27781074D01*
X3029716Y-27742979D01*
X3039240Y-27695360D01*
X3048763Y-27666789D01*
X3058287Y-27647741D01*
X3077335Y-27619170D01*
X3086859Y-27609646D01*
X3248763Y-27638217D02*
X3210668Y-27638217D01*
X3191621Y-27647741D01*
X3182097Y-27657265D01*
X3163049Y-27685836D01*
X3153525Y-27723931D01*
X3153525Y-27800122D01*
X3163049Y-27819170D01*
X3172573Y-27828693D01*
X3191621Y-27838217D01*
X3229716Y-27838217D01*
X3248763Y-27828693D01*
X3258287Y-27819170D01*
X3267811Y-27800122D01*
X3267811Y-27752503D01*
X3258287Y-27733455D01*
X3248763Y-27723931D01*
X3229716Y-27714408D01*
X3191621Y-27714408D01*
X3172573Y-27723931D01*
X3163049Y-27733455D01*
X3153525Y-27752503D01*
X3505906Y-27838217D02*
X3505906Y-27638217D01*
X3591621Y-27838217D02*
X3591621Y-27733455D01*
X3582097Y-27714408D01*
X3563049Y-27704884D01*
X3534478Y-27704884D01*
X3515430Y-27714408D01*
X3505906Y-27723931D01*
X3715430Y-27838217D02*
X3696382Y-27828693D01*
X3686859Y-27819170D01*
X3677335Y-27800122D01*
X3677335Y-27742979D01*
X3686859Y-27723931D01*
X3696382Y-27714408D01*
X3715430Y-27704884D01*
X3744002Y-27704884D01*
X3763049Y-27714408D01*
X3772573Y-27723931D01*
X3782097Y-27742979D01*
X3782097Y-27800122D01*
X3772573Y-27819170D01*
X3763049Y-27828693D01*
X3744002Y-27838217D01*
X3715430Y-27838217D01*
X3896382Y-27838217D02*
X3877335Y-27828693D01*
X3867811Y-27809646D01*
X3867811Y-27638217D01*
X4048763Y-27828693D02*
X4029716Y-27838217D01*
X3991621Y-27838217D01*
X3972573Y-27828693D01*
X3963049Y-27809646D01*
X3963049Y-27733455D01*
X3972573Y-27714408D01*
X3991621Y-27704884D01*
X4029716Y-27704884D01*
X4048763Y-27714408D01*
X4058287Y-27733455D01*
X4058287Y-27752503D01*
X3963049Y-27771551D01*
X4134478Y-27828693D02*
X4153525Y-27838217D01*
X4191621Y-27838217D01*
X4210668Y-27828693D01*
X4220192Y-27809646D01*
X4220192Y-27800122D01*
X4210668Y-27781074D01*
X4191621Y-27771551D01*
X4163049Y-27771551D01*
X4144002Y-27762027D01*
X4134478Y-27742979D01*
X4134478Y-27733455D01*
X4144002Y-27714408D01*
X4163049Y-27704884D01*
X4191621Y-27704884D01*
X4210668Y-27714408D01*
X4286859Y-27914408D02*
X4296383Y-27904884D01*
X4315430Y-27876312D01*
X4324954Y-27857265D01*
X4334478Y-27828693D01*
X4344002Y-27781074D01*
X4344002Y-27742979D01*
X4334478Y-27695360D01*
X4324954Y-27666789D01*
X4315430Y-27647741D01*
X4296383Y-27619170D01*
X4286859Y-27609646D01*
D18*
X-615046Y-27946741D02*
X-485046Y-28076741D01*
X-485046Y-27946741D02*
X-615046Y-28076741D01*
X-485046Y-28011741D02*
G75*
G03*
X-485046Y-28011741I-65000J0D01*
G01*
D12*
X-122665Y-28102217D02*
X-236951Y-28102217D01*
X-179808Y-28102217D02*
X-179808Y-27902217D01*
X-198855Y-27930789D01*
X-217903Y-27949836D01*
X-236951Y-27959360D01*
X-36951Y-28083170D02*
X-27427Y-28092693D01*
X-36951Y-28102217D01*
X-46474Y-28092693D01*
X-36951Y-28083170D01*
X-36951Y-28102217D01*
X39240Y-27902217D02*
X163049Y-27902217D01*
X96382Y-27978408D01*
X124954Y-27978408D01*
X144002Y-27987931D01*
X153525Y-27997455D01*
X163049Y-28016503D01*
X163049Y-28064122D01*
X153525Y-28083170D01*
X144002Y-28092693D01*
X124954Y-28102217D01*
X67811Y-28102217D01*
X48763Y-28092693D01*
X39240Y-28083170D01*
X286859Y-27902217D02*
X305906Y-27902217D01*
X324954Y-27911741D01*
X334478Y-27921265D01*
X344002Y-27940312D01*
X353525Y-27978408D01*
X353525Y-28026027D01*
X344002Y-28064122D01*
X334478Y-28083170D01*
X324954Y-28092693D01*
X305906Y-28102217D01*
X286859Y-28102217D01*
X267811Y-28092693D01*
X258287Y-28083170D01*
X248763Y-28064122D01*
X239240Y-28026027D01*
X239240Y-27978408D01*
X248763Y-27940312D01*
X258287Y-27921265D01*
X267811Y-27911741D01*
X286859Y-27902217D01*
X477335Y-27902217D02*
X496382Y-27902217D01*
X515430Y-27911741D01*
X524954Y-27921265D01*
X534478Y-27940312D01*
X544002Y-27978408D01*
X544002Y-28026027D01*
X534478Y-28064122D01*
X524954Y-28083170D01*
X515430Y-28092693D01*
X496382Y-28102217D01*
X477335Y-28102217D01*
X458287Y-28092693D01*
X448763Y-28083170D01*
X439240Y-28064122D01*
X429716Y-28026027D01*
X429716Y-27978408D01*
X439240Y-27940312D01*
X448763Y-27921265D01*
X458287Y-27911741D01*
X477335Y-27902217D01*
X629716Y-28102217D02*
X629716Y-27968884D01*
X629716Y-27987931D02*
X639240Y-27978408D01*
X658287Y-27968884D01*
X686859Y-27968884D01*
X705906Y-27978408D01*
X715430Y-27997455D01*
X715430Y-28102217D01*
X715430Y-27997455D02*
X724954Y-27978408D01*
X744002Y-27968884D01*
X772573Y-27968884D01*
X791621Y-27978408D01*
X801144Y-27997455D01*
X801144Y-28102217D01*
X896382Y-28102217D02*
X896382Y-27968884D01*
X896382Y-27987931D02*
X905906Y-27978408D01*
X924954Y-27968884D01*
X953525Y-27968884D01*
X972573Y-27978408D01*
X982097Y-27997455D01*
X982097Y-28102217D01*
X982097Y-27997455D02*
X991621Y-27978408D01*
X1010668Y-27968884D01*
X1039240Y-27968884D01*
X1058287Y-27978408D01*
X1067811Y-27997455D01*
X1067811Y-28102217D01*
X1458287Y-27892693D02*
X1286859Y-28149836D01*
X1715430Y-27902217D02*
X1734478Y-27902217D01*
X1753525Y-27911741D01*
X1763049Y-27921265D01*
X1772573Y-27940312D01*
X1782097Y-27978408D01*
X1782097Y-28026027D01*
X1772573Y-28064122D01*
X1763049Y-28083170D01*
X1753525Y-28092693D01*
X1734478Y-28102217D01*
X1715430Y-28102217D01*
X1696382Y-28092693D01*
X1686859Y-28083170D01*
X1677335Y-28064122D01*
X1667811Y-28026027D01*
X1667811Y-27978408D01*
X1677335Y-27940312D01*
X1686859Y-27921265D01*
X1696382Y-27911741D01*
X1715430Y-27902217D01*
X1867811Y-28083170D02*
X1877335Y-28092693D01*
X1867811Y-28102217D01*
X1858287Y-28092693D01*
X1867811Y-28083170D01*
X1867811Y-28102217D01*
X2001144Y-27902217D02*
X2020192Y-27902217D01*
X2039240Y-27911741D01*
X2048763Y-27921265D01*
X2058287Y-27940312D01*
X2067811Y-27978408D01*
X2067811Y-28026027D01*
X2058287Y-28064122D01*
X2048763Y-28083170D01*
X2039240Y-28092693D01*
X2020192Y-28102217D01*
X2001144Y-28102217D01*
X1982097Y-28092693D01*
X1972573Y-28083170D01*
X1963049Y-28064122D01*
X1953525Y-28026027D01*
X1953525Y-27978408D01*
X1963049Y-27940312D01*
X1972573Y-27921265D01*
X1982097Y-27911741D01*
X2001144Y-27902217D01*
X2248764Y-27902217D02*
X2153525Y-27902217D01*
X2144002Y-27997455D01*
X2153525Y-27987931D01*
X2172573Y-27978408D01*
X2220192Y-27978408D01*
X2239240Y-27987931D01*
X2248764Y-27997455D01*
X2258287Y-28016503D01*
X2258287Y-28064122D01*
X2248764Y-28083170D01*
X2239240Y-28092693D01*
X2220192Y-28102217D01*
X2172573Y-28102217D01*
X2153525Y-28092693D01*
X2144002Y-28083170D01*
X2448764Y-28102217D02*
X2334478Y-28102217D01*
X2391621Y-28102217D02*
X2391621Y-27902217D01*
X2372573Y-27930789D01*
X2353525Y-27949836D01*
X2334478Y-27959360D01*
X2524954Y-27921265D02*
X2534478Y-27911741D01*
X2553525Y-27902217D01*
X2601144Y-27902217D01*
X2620192Y-27911741D01*
X2629716Y-27921265D01*
X2639240Y-27940312D01*
X2639240Y-27959360D01*
X2629716Y-27987931D01*
X2515430Y-28102217D01*
X2639240Y-28102217D01*
X2715430Y-27902217D02*
X2715430Y-27940312D01*
X2791621Y-27902217D02*
X2791621Y-27940312D01*
X3086859Y-28178408D02*
X3077335Y-28168884D01*
X3058287Y-28140312D01*
X3048763Y-28121265D01*
X3039240Y-28092693D01*
X3029716Y-28045074D01*
X3029716Y-28006979D01*
X3039240Y-27959360D01*
X3048763Y-27930789D01*
X3058287Y-27911741D01*
X3077335Y-27883170D01*
X3086859Y-27873646D01*
X3248763Y-27968884D02*
X3248763Y-28102217D01*
X3201144Y-27892693D02*
X3153525Y-28035551D01*
X3277335Y-28035551D01*
X3505906Y-28102217D02*
X3505906Y-27902217D01*
X3591621Y-28102217D02*
X3591621Y-27997455D01*
X3582097Y-27978408D01*
X3563049Y-27968884D01*
X3534478Y-27968884D01*
X3515430Y-27978408D01*
X3505906Y-27987931D01*
X3715430Y-28102217D02*
X3696382Y-28092693D01*
X3686859Y-28083170D01*
X3677335Y-28064122D01*
X3677335Y-28006979D01*
X3686859Y-27987931D01*
X3696382Y-27978408D01*
X3715430Y-27968884D01*
X3744002Y-27968884D01*
X3763049Y-27978408D01*
X3772573Y-27987931D01*
X3782097Y-28006979D01*
X3782097Y-28064122D01*
X3772573Y-28083170D01*
X3763049Y-28092693D01*
X3744002Y-28102217D01*
X3715430Y-28102217D01*
X3896382Y-28102217D02*
X3877335Y-28092693D01*
X3867811Y-28073646D01*
X3867811Y-27902217D01*
X4048763Y-28092693D02*
X4029716Y-28102217D01*
X3991621Y-28102217D01*
X3972573Y-28092693D01*
X3963049Y-28073646D01*
X3963049Y-27997455D01*
X3972573Y-27978408D01*
X3991621Y-27968884D01*
X4029716Y-27968884D01*
X4048763Y-27978408D01*
X4058287Y-27997455D01*
X4058287Y-28016503D01*
X3963049Y-28035551D01*
X4134478Y-28092693D02*
X4153525Y-28102217D01*
X4191621Y-28102217D01*
X4210668Y-28092693D01*
X4220192Y-28073646D01*
X4220192Y-28064122D01*
X4210668Y-28045074D01*
X4191621Y-28035551D01*
X4163049Y-28035551D01*
X4144002Y-28026027D01*
X4134478Y-28006979D01*
X4134478Y-27997455D01*
X4144002Y-27978408D01*
X4163049Y-27968884D01*
X4191621Y-27968884D01*
X4210668Y-27978408D01*
X4286859Y-28178408D02*
X4296383Y-28168884D01*
X4315430Y-28140312D01*
X4324954Y-28121265D01*
X4334478Y-28092693D01*
X4344002Y-28045074D01*
X4344002Y-28006979D01*
X4334478Y-27959360D01*
X4324954Y-27930789D01*
X4315430Y-27911741D01*
X4296383Y-27883170D01*
X4286859Y-27873646D01*
D19*
X-619046Y-28208741D02*
X-485046Y-28342741D01*
X-485046Y-28208741D02*
X-619046Y-28342741D01*
X-552046Y-28208741D02*
X-552046Y-28342741D01*
X-619046Y-28275741D02*
X-485046Y-28275741D01*
D12*
X-122665Y-28366217D02*
X-236951Y-28366217D01*
X-179808Y-28366217D02*
X-179808Y-28166217D01*
X-198855Y-28194789D01*
X-217903Y-28213836D01*
X-236951Y-28223360D01*
X-36951Y-28347170D02*
X-27427Y-28356693D01*
X-36951Y-28366217D01*
X-46474Y-28356693D01*
X-36951Y-28347170D01*
X-36951Y-28366217D01*
X39240Y-28166217D02*
X163049Y-28166217D01*
X96382Y-28242408D01*
X124954Y-28242408D01*
X144002Y-28251931D01*
X153525Y-28261455D01*
X163049Y-28280503D01*
X163049Y-28328122D01*
X153525Y-28347170D01*
X144002Y-28356693D01*
X124954Y-28366217D01*
X67811Y-28366217D01*
X48763Y-28356693D01*
X39240Y-28347170D01*
X334478Y-28232884D02*
X334478Y-28366217D01*
X286859Y-28156693D02*
X239240Y-28299551D01*
X363049Y-28299551D01*
X477335Y-28166217D02*
X496382Y-28166217D01*
X515430Y-28175741D01*
X524954Y-28185265D01*
X534478Y-28204312D01*
X544002Y-28242408D01*
X544002Y-28290027D01*
X534478Y-28328122D01*
X524954Y-28347170D01*
X515430Y-28356693D01*
X496382Y-28366217D01*
X477335Y-28366217D01*
X458287Y-28356693D01*
X448763Y-28347170D01*
X439240Y-28328122D01*
X429716Y-28290027D01*
X429716Y-28242408D01*
X439240Y-28204312D01*
X448763Y-28185265D01*
X458287Y-28175741D01*
X477335Y-28166217D01*
X629716Y-28366217D02*
X629716Y-28232884D01*
X629716Y-28251931D02*
X639240Y-28242408D01*
X658287Y-28232884D01*
X686859Y-28232884D01*
X705906Y-28242408D01*
X715430Y-28261455D01*
X715430Y-28366217D01*
X715430Y-28261455D02*
X724954Y-28242408D01*
X744002Y-28232884D01*
X772573Y-28232884D01*
X791621Y-28242408D01*
X801144Y-28261455D01*
X801144Y-28366217D01*
X896382Y-28366217D02*
X896382Y-28232884D01*
X896382Y-28251931D02*
X905906Y-28242408D01*
X924954Y-28232884D01*
X953525Y-28232884D01*
X972573Y-28242408D01*
X982097Y-28261455D01*
X982097Y-28366217D01*
X982097Y-28261455D02*
X991621Y-28242408D01*
X1010668Y-28232884D01*
X1039240Y-28232884D01*
X1058287Y-28242408D01*
X1067811Y-28261455D01*
X1067811Y-28366217D01*
X1458287Y-28156693D02*
X1286859Y-28413836D01*
X1715430Y-28166217D02*
X1734478Y-28166217D01*
X1753525Y-28175741D01*
X1763049Y-28185265D01*
X1772573Y-28204312D01*
X1782097Y-28242408D01*
X1782097Y-28290027D01*
X1772573Y-28328122D01*
X1763049Y-28347170D01*
X1753525Y-28356693D01*
X1734478Y-28366217D01*
X1715430Y-28366217D01*
X1696382Y-28356693D01*
X1686859Y-28347170D01*
X1677335Y-28328122D01*
X1667811Y-28290027D01*
X1667811Y-28242408D01*
X1677335Y-28204312D01*
X1686859Y-28185265D01*
X1696382Y-28175741D01*
X1715430Y-28166217D01*
X1867811Y-28347170D02*
X1877335Y-28356693D01*
X1867811Y-28366217D01*
X1858287Y-28356693D01*
X1867811Y-28347170D01*
X1867811Y-28366217D01*
X2001144Y-28166217D02*
X2020192Y-28166217D01*
X2039240Y-28175741D01*
X2048763Y-28185265D01*
X2058287Y-28204312D01*
X2067811Y-28242408D01*
X2067811Y-28290027D01*
X2058287Y-28328122D01*
X2048763Y-28347170D01*
X2039240Y-28356693D01*
X2020192Y-28366217D01*
X2001144Y-28366217D01*
X1982097Y-28356693D01*
X1972573Y-28347170D01*
X1963049Y-28328122D01*
X1953525Y-28290027D01*
X1953525Y-28242408D01*
X1963049Y-28204312D01*
X1972573Y-28185265D01*
X1982097Y-28175741D01*
X2001144Y-28166217D01*
X2248764Y-28166217D02*
X2153525Y-28166217D01*
X2144002Y-28261455D01*
X2153525Y-28251931D01*
X2172573Y-28242408D01*
X2220192Y-28242408D01*
X2239240Y-28251931D01*
X2248764Y-28261455D01*
X2258287Y-28280503D01*
X2258287Y-28328122D01*
X2248764Y-28347170D01*
X2239240Y-28356693D01*
X2220192Y-28366217D01*
X2172573Y-28366217D01*
X2153525Y-28356693D01*
X2144002Y-28347170D01*
X2334478Y-28185265D02*
X2344002Y-28175741D01*
X2363049Y-28166217D01*
X2410668Y-28166217D01*
X2429716Y-28175741D01*
X2439240Y-28185265D01*
X2448764Y-28204312D01*
X2448764Y-28223360D01*
X2439240Y-28251931D01*
X2324954Y-28366217D01*
X2448764Y-28366217D01*
X2563049Y-28251931D02*
X2544002Y-28242408D01*
X2534478Y-28232884D01*
X2524954Y-28213836D01*
X2524954Y-28204312D01*
X2534478Y-28185265D01*
X2544002Y-28175741D01*
X2563049Y-28166217D01*
X2601144Y-28166217D01*
X2620192Y-28175741D01*
X2629716Y-28185265D01*
X2639240Y-28204312D01*
X2639240Y-28213836D01*
X2629716Y-28232884D01*
X2620192Y-28242408D01*
X2601144Y-28251931D01*
X2563049Y-28251931D01*
X2544002Y-28261455D01*
X2534478Y-28270979D01*
X2524954Y-28290027D01*
X2524954Y-28328122D01*
X2534478Y-28347170D01*
X2544002Y-28356693D01*
X2563049Y-28366217D01*
X2601144Y-28366217D01*
X2620192Y-28356693D01*
X2629716Y-28347170D01*
X2639240Y-28328122D01*
X2639240Y-28290027D01*
X2629716Y-28270979D01*
X2620192Y-28261455D01*
X2601144Y-28251931D01*
X2715430Y-28166217D02*
X2715430Y-28204312D01*
X2791621Y-28166217D02*
X2791621Y-28204312D01*
X3086859Y-28442408D02*
X3077335Y-28432884D01*
X3058287Y-28404312D01*
X3048763Y-28385265D01*
X3039240Y-28356693D01*
X3029716Y-28309074D01*
X3029716Y-28270979D01*
X3039240Y-28223360D01*
X3048763Y-28194789D01*
X3058287Y-28175741D01*
X3077335Y-28147170D01*
X3086859Y-28137646D01*
X3248763Y-28232884D02*
X3248763Y-28366217D01*
X3201144Y-28156693D02*
X3153525Y-28299551D01*
X3277335Y-28299551D01*
X3505906Y-28366217D02*
X3505906Y-28166217D01*
X3591621Y-28366217D02*
X3591621Y-28261455D01*
X3582097Y-28242408D01*
X3563049Y-28232884D01*
X3534478Y-28232884D01*
X3515430Y-28242408D01*
X3505906Y-28251931D01*
X3715430Y-28366217D02*
X3696382Y-28356693D01*
X3686859Y-28347170D01*
X3677335Y-28328122D01*
X3677335Y-28270979D01*
X3686859Y-28251931D01*
X3696382Y-28242408D01*
X3715430Y-28232884D01*
X3744002Y-28232884D01*
X3763049Y-28242408D01*
X3772573Y-28251931D01*
X3782097Y-28270979D01*
X3782097Y-28328122D01*
X3772573Y-28347170D01*
X3763049Y-28356693D01*
X3744002Y-28366217D01*
X3715430Y-28366217D01*
X3896382Y-28366217D02*
X3877335Y-28356693D01*
X3867811Y-28337646D01*
X3867811Y-28166217D01*
X4048763Y-28356693D02*
X4029716Y-28366217D01*
X3991621Y-28366217D01*
X3972573Y-28356693D01*
X3963049Y-28337646D01*
X3963049Y-28261455D01*
X3972573Y-28242408D01*
X3991621Y-28232884D01*
X4029716Y-28232884D01*
X4048763Y-28242408D01*
X4058287Y-28261455D01*
X4058287Y-28280503D01*
X3963049Y-28299551D01*
X4134478Y-28356693D02*
X4153525Y-28366217D01*
X4191621Y-28366217D01*
X4210668Y-28356693D01*
X4220192Y-28337646D01*
X4220192Y-28328122D01*
X4210668Y-28309074D01*
X4191621Y-28299551D01*
X4163049Y-28299551D01*
X4144002Y-28290027D01*
X4134478Y-28270979D01*
X4134478Y-28261455D01*
X4144002Y-28242408D01*
X4163049Y-28232884D01*
X4191621Y-28232884D01*
X4210668Y-28242408D01*
X4286859Y-28442408D02*
X4296383Y-28432884D01*
X4315430Y-28404312D01*
X4324954Y-28385265D01*
X4334478Y-28356693D01*
X4344002Y-28309074D01*
X4344002Y-28270979D01*
X4334478Y-28223360D01*
X4324954Y-28194789D01*
X4315430Y-28175741D01*
X4296383Y-28147170D01*
X4286859Y-28137646D01*
D20*
X-635046Y-28464741D02*
X-485046Y-28614741D01*
X-485046Y-28464741D02*
X-635046Y-28614741D01*
X-507012Y-28592775D02*
X-507012Y-28486708D01*
X-613080Y-28486708D01*
X-613080Y-28592775D01*
X-507012Y-28592775D01*
D12*
X-122665Y-28630217D02*
X-236951Y-28630217D01*
X-179808Y-28630217D02*
X-179808Y-28430217D01*
X-198855Y-28458789D01*
X-217903Y-28477836D01*
X-236951Y-28487360D01*
X-36951Y-28611170D02*
X-27427Y-28620693D01*
X-36951Y-28630217D01*
X-46474Y-28620693D01*
X-36951Y-28611170D01*
X-36951Y-28630217D01*
X153525Y-28430217D02*
X58287Y-28430217D01*
X48763Y-28525455D01*
X58287Y-28515931D01*
X77335Y-28506408D01*
X124954Y-28506408D01*
X144002Y-28515931D01*
X153525Y-28525455D01*
X163049Y-28544503D01*
X163049Y-28592122D01*
X153525Y-28611170D01*
X144002Y-28620693D01*
X124954Y-28630217D01*
X77335Y-28630217D01*
X58287Y-28620693D01*
X48763Y-28611170D01*
X286859Y-28430217D02*
X305906Y-28430217D01*
X324954Y-28439741D01*
X334478Y-28449265D01*
X344002Y-28468312D01*
X353525Y-28506408D01*
X353525Y-28554027D01*
X344002Y-28592122D01*
X334478Y-28611170D01*
X324954Y-28620693D01*
X305906Y-28630217D01*
X286859Y-28630217D01*
X267811Y-28620693D01*
X258287Y-28611170D01*
X248763Y-28592122D01*
X239240Y-28554027D01*
X239240Y-28506408D01*
X248763Y-28468312D01*
X258287Y-28449265D01*
X267811Y-28439741D01*
X286859Y-28430217D01*
X477335Y-28430217D02*
X496382Y-28430217D01*
X515430Y-28439741D01*
X524954Y-28449265D01*
X534478Y-28468312D01*
X544002Y-28506408D01*
X544002Y-28554027D01*
X534478Y-28592122D01*
X524954Y-28611170D01*
X515430Y-28620693D01*
X496382Y-28630217D01*
X477335Y-28630217D01*
X458287Y-28620693D01*
X448763Y-28611170D01*
X439240Y-28592122D01*
X429716Y-28554027D01*
X429716Y-28506408D01*
X439240Y-28468312D01*
X448763Y-28449265D01*
X458287Y-28439741D01*
X477335Y-28430217D01*
X629716Y-28630217D02*
X629716Y-28496884D01*
X629716Y-28515931D02*
X639240Y-28506408D01*
X658287Y-28496884D01*
X686859Y-28496884D01*
X705906Y-28506408D01*
X715430Y-28525455D01*
X715430Y-28630217D01*
X715430Y-28525455D02*
X724954Y-28506408D01*
X744002Y-28496884D01*
X772573Y-28496884D01*
X791621Y-28506408D01*
X801144Y-28525455D01*
X801144Y-28630217D01*
X896382Y-28630217D02*
X896382Y-28496884D01*
X896382Y-28515931D02*
X905906Y-28506408D01*
X924954Y-28496884D01*
X953525Y-28496884D01*
X972573Y-28506408D01*
X982097Y-28525455D01*
X982097Y-28630217D01*
X982097Y-28525455D02*
X991621Y-28506408D01*
X1010668Y-28496884D01*
X1039240Y-28496884D01*
X1058287Y-28506408D01*
X1067811Y-28525455D01*
X1067811Y-28630217D01*
X1458287Y-28420693D02*
X1286859Y-28677836D01*
X1715430Y-28430217D02*
X1734478Y-28430217D01*
X1753525Y-28439741D01*
X1763049Y-28449265D01*
X1772573Y-28468312D01*
X1782097Y-28506408D01*
X1782097Y-28554027D01*
X1772573Y-28592122D01*
X1763049Y-28611170D01*
X1753525Y-28620693D01*
X1734478Y-28630217D01*
X1715430Y-28630217D01*
X1696382Y-28620693D01*
X1686859Y-28611170D01*
X1677335Y-28592122D01*
X1667811Y-28554027D01*
X1667811Y-28506408D01*
X1677335Y-28468312D01*
X1686859Y-28449265D01*
X1696382Y-28439741D01*
X1715430Y-28430217D01*
X1867811Y-28611170D02*
X1877335Y-28620693D01*
X1867811Y-28630217D01*
X1858287Y-28620693D01*
X1867811Y-28611170D01*
X1867811Y-28630217D01*
X2001144Y-28430217D02*
X2020192Y-28430217D01*
X2039240Y-28439741D01*
X2048763Y-28449265D01*
X2058287Y-28468312D01*
X2067811Y-28506408D01*
X2067811Y-28554027D01*
X2058287Y-28592122D01*
X2048763Y-28611170D01*
X2039240Y-28620693D01*
X2020192Y-28630217D01*
X2001144Y-28630217D01*
X1982097Y-28620693D01*
X1972573Y-28611170D01*
X1963049Y-28592122D01*
X1953525Y-28554027D01*
X1953525Y-28506408D01*
X1963049Y-28468312D01*
X1972573Y-28449265D01*
X1982097Y-28439741D01*
X2001144Y-28430217D01*
X2248764Y-28430217D02*
X2153525Y-28430217D01*
X2144002Y-28525455D01*
X2153525Y-28515931D01*
X2172573Y-28506408D01*
X2220192Y-28506408D01*
X2239240Y-28515931D01*
X2248764Y-28525455D01*
X2258287Y-28544503D01*
X2258287Y-28592122D01*
X2248764Y-28611170D01*
X2239240Y-28620693D01*
X2220192Y-28630217D01*
X2172573Y-28630217D01*
X2153525Y-28620693D01*
X2144002Y-28611170D01*
X2353525Y-28630217D02*
X2391621Y-28630217D01*
X2410668Y-28620693D01*
X2420192Y-28611170D01*
X2439240Y-28582598D01*
X2448764Y-28544503D01*
X2448764Y-28468312D01*
X2439240Y-28449265D01*
X2429716Y-28439741D01*
X2410668Y-28430217D01*
X2372573Y-28430217D01*
X2353525Y-28439741D01*
X2344002Y-28449265D01*
X2334478Y-28468312D01*
X2334478Y-28515931D01*
X2344002Y-28534979D01*
X2353525Y-28544503D01*
X2372573Y-28554027D01*
X2410668Y-28554027D01*
X2429716Y-28544503D01*
X2439240Y-28534979D01*
X2448764Y-28515931D01*
X2639240Y-28630217D02*
X2524954Y-28630217D01*
X2582097Y-28630217D02*
X2582097Y-28430217D01*
X2563049Y-28458789D01*
X2544002Y-28477836D01*
X2524954Y-28487360D01*
X2715430Y-28430217D02*
X2715430Y-28468312D01*
X2791621Y-28430217D02*
X2791621Y-28468312D01*
X3086859Y-28706408D02*
X3077335Y-28696884D01*
X3058287Y-28668312D01*
X3048763Y-28649265D01*
X3039240Y-28620693D01*
X3029716Y-28573074D01*
X3029716Y-28534979D01*
X3039240Y-28487360D01*
X3048763Y-28458789D01*
X3058287Y-28439741D01*
X3077335Y-28411170D01*
X3086859Y-28401646D01*
X3201144Y-28430217D02*
X3220192Y-28430217D01*
X3239240Y-28439741D01*
X3248763Y-28449265D01*
X3258287Y-28468312D01*
X3267811Y-28506408D01*
X3267811Y-28554027D01*
X3258287Y-28592122D01*
X3248763Y-28611170D01*
X3239240Y-28620693D01*
X3220192Y-28630217D01*
X3201144Y-28630217D01*
X3182097Y-28620693D01*
X3172573Y-28611170D01*
X3163049Y-28592122D01*
X3153525Y-28554027D01*
X3153525Y-28506408D01*
X3163049Y-28468312D01*
X3172573Y-28449265D01*
X3182097Y-28439741D01*
X3201144Y-28430217D01*
X3505906Y-28630217D02*
X3505906Y-28430217D01*
X3591621Y-28630217D02*
X3591621Y-28525455D01*
X3582097Y-28506408D01*
X3563049Y-28496884D01*
X3534478Y-28496884D01*
X3515430Y-28506408D01*
X3505906Y-28515931D01*
X3715430Y-28630217D02*
X3696382Y-28620693D01*
X3686859Y-28611170D01*
X3677335Y-28592122D01*
X3677335Y-28534979D01*
X3686859Y-28515931D01*
X3696382Y-28506408D01*
X3715430Y-28496884D01*
X3744002Y-28496884D01*
X3763049Y-28506408D01*
X3772573Y-28515931D01*
X3782097Y-28534979D01*
X3782097Y-28592122D01*
X3772573Y-28611170D01*
X3763049Y-28620693D01*
X3744002Y-28630217D01*
X3715430Y-28630217D01*
X3896382Y-28630217D02*
X3877335Y-28620693D01*
X3867811Y-28601646D01*
X3867811Y-28430217D01*
X4048763Y-28620693D02*
X4029716Y-28630217D01*
X3991621Y-28630217D01*
X3972573Y-28620693D01*
X3963049Y-28601646D01*
X3963049Y-28525455D01*
X3972573Y-28506408D01*
X3991621Y-28496884D01*
X4029716Y-28496884D01*
X4048763Y-28506408D01*
X4058287Y-28525455D01*
X4058287Y-28544503D01*
X3963049Y-28563551D01*
X4134478Y-28620693D02*
X4153525Y-28630217D01*
X4191621Y-28630217D01*
X4210668Y-28620693D01*
X4220192Y-28601646D01*
X4220192Y-28592122D01*
X4210668Y-28573074D01*
X4191621Y-28563551D01*
X4163049Y-28563551D01*
X4144002Y-28554027D01*
X4134478Y-28534979D01*
X4134478Y-28525455D01*
X4144002Y-28506408D01*
X4163049Y-28496884D01*
X4191621Y-28496884D01*
X4210668Y-28506408D01*
X4458287Y-28554027D02*
X4610668Y-28554027D01*
X4534478Y-28630217D02*
X4534478Y-28477836D01*
X4944002Y-28496884D02*
X4944002Y-28630217D01*
X4896383Y-28420693D02*
X4848764Y-28563551D01*
X4972573Y-28563551D01*
X5191621Y-28620693D02*
X5210668Y-28630217D01*
X5248764Y-28630217D01*
X5267811Y-28620693D01*
X5277335Y-28601646D01*
X5277335Y-28592122D01*
X5267811Y-28573074D01*
X5248764Y-28563551D01*
X5220192Y-28563551D01*
X5201144Y-28554027D01*
X5191621Y-28534979D01*
X5191621Y-28525455D01*
X5201144Y-28506408D01*
X5220192Y-28496884D01*
X5248764Y-28496884D01*
X5267811Y-28506408D01*
X5391621Y-28630217D02*
X5372573Y-28620693D01*
X5363049Y-28601646D01*
X5363049Y-28430217D01*
X5496383Y-28630217D02*
X5477335Y-28620693D01*
X5467811Y-28611170D01*
X5458287Y-28592122D01*
X5458287Y-28534979D01*
X5467811Y-28515931D01*
X5477335Y-28506408D01*
X5496383Y-28496884D01*
X5524954Y-28496884D01*
X5544002Y-28506408D01*
X5553525Y-28515931D01*
X5563049Y-28534979D01*
X5563049Y-28592122D01*
X5553525Y-28611170D01*
X5544002Y-28620693D01*
X5524954Y-28630217D01*
X5496383Y-28630217D01*
X5620192Y-28496884D02*
X5696382Y-28496884D01*
X5648763Y-28430217D02*
X5648763Y-28601646D01*
X5658287Y-28620693D01*
X5677335Y-28630217D01*
X5696382Y-28630217D01*
X5753525Y-28620693D02*
X5772573Y-28630217D01*
X5810668Y-28630217D01*
X5829716Y-28620693D01*
X5839240Y-28601646D01*
X5839240Y-28592122D01*
X5829716Y-28573074D01*
X5810668Y-28563551D01*
X5782097Y-28563551D01*
X5763049Y-28554027D01*
X5753525Y-28534979D01*
X5753525Y-28525455D01*
X5763049Y-28506408D01*
X5782097Y-28496884D01*
X5810668Y-28496884D01*
X5829716Y-28506408D01*
X5905906Y-28706408D02*
X5915430Y-28696884D01*
X5934478Y-28668312D01*
X5944002Y-28649265D01*
X5953525Y-28620693D01*
X5963049Y-28573074D01*
X5963049Y-28534979D01*
X5953525Y-28487360D01*
X5944002Y-28458789D01*
X5934478Y-28439741D01*
X5915430Y-28411170D01*
X5905906Y-28401646D01*
X-685046Y-28709741D02*
X-485046Y-28909741D01*
X-485046Y-28709741D02*
X-685046Y-28909741D01*
X-585046Y-28909741D02*
X-485046Y-28809741D01*
X-585046Y-28709741D01*
X-685046Y-28809741D01*
X-585046Y-28909741D01*
X-246474Y-28700217D02*
X-122665Y-28700217D01*
X-189332Y-28776408D01*
X-160760Y-28776408D01*
X-141713Y-28785931D01*
X-132189Y-28795455D01*
X-122665Y-28814503D01*
X-122665Y-28862122D01*
X-132189Y-28881170D01*
X-141713Y-28890693D01*
X-160760Y-28900217D01*
X-217903Y-28900217D01*
X-236951Y-28890693D01*
X-246474Y-28881170D01*
X-36951Y-28881170D02*
X-27427Y-28890693D01*
X-36951Y-28900217D01*
X-46474Y-28890693D01*
X-36951Y-28881170D01*
X-36951Y-28900217D01*
X48763Y-28719265D02*
X58287Y-28709741D01*
X77335Y-28700217D01*
X124954Y-28700217D01*
X144002Y-28709741D01*
X153525Y-28719265D01*
X163049Y-28738312D01*
X163049Y-28757360D01*
X153525Y-28785931D01*
X39240Y-28900217D01*
X163049Y-28900217D01*
X286859Y-28700217D02*
X305906Y-28700217D01*
X324954Y-28709741D01*
X334478Y-28719265D01*
X344002Y-28738312D01*
X353525Y-28776408D01*
X353525Y-28824027D01*
X344002Y-28862122D01*
X334478Y-28881170D01*
X324954Y-28890693D01*
X305906Y-28900217D01*
X286859Y-28900217D01*
X267811Y-28890693D01*
X258287Y-28881170D01*
X248763Y-28862122D01*
X239240Y-28824027D01*
X239240Y-28776408D01*
X248763Y-28738312D01*
X258287Y-28719265D01*
X267811Y-28709741D01*
X286859Y-28700217D01*
X477335Y-28700217D02*
X496382Y-28700217D01*
X515430Y-28709741D01*
X524954Y-28719265D01*
X534478Y-28738312D01*
X544002Y-28776408D01*
X544002Y-28824027D01*
X534478Y-28862122D01*
X524954Y-28881170D01*
X515430Y-28890693D01*
X496382Y-28900217D01*
X477335Y-28900217D01*
X458287Y-28890693D01*
X448763Y-28881170D01*
X439240Y-28862122D01*
X429716Y-28824027D01*
X429716Y-28776408D01*
X439240Y-28738312D01*
X448763Y-28719265D01*
X458287Y-28709741D01*
X477335Y-28700217D01*
X629716Y-28900217D02*
X629716Y-28766884D01*
X629716Y-28785931D02*
X639240Y-28776408D01*
X658287Y-28766884D01*
X686859Y-28766884D01*
X705906Y-28776408D01*
X715430Y-28795455D01*
X715430Y-28900217D01*
X715430Y-28795455D02*
X724954Y-28776408D01*
X744002Y-28766884D01*
X772573Y-28766884D01*
X791621Y-28776408D01*
X801144Y-28795455D01*
X801144Y-28900217D01*
X896382Y-28900217D02*
X896382Y-28766884D01*
X896382Y-28785931D02*
X905906Y-28776408D01*
X924954Y-28766884D01*
X953525Y-28766884D01*
X972573Y-28776408D01*
X982097Y-28795455D01*
X982097Y-28900217D01*
X982097Y-28795455D02*
X991621Y-28776408D01*
X1010668Y-28766884D01*
X1039240Y-28766884D01*
X1058287Y-28776408D01*
X1067811Y-28795455D01*
X1067811Y-28900217D01*
X1458287Y-28690693D02*
X1286859Y-28947836D01*
X1715430Y-28700217D02*
X1734478Y-28700217D01*
X1753525Y-28709741D01*
X1763049Y-28719265D01*
X1772573Y-28738312D01*
X1782097Y-28776408D01*
X1782097Y-28824027D01*
X1772573Y-28862122D01*
X1763049Y-28881170D01*
X1753525Y-28890693D01*
X1734478Y-28900217D01*
X1715430Y-28900217D01*
X1696382Y-28890693D01*
X1686859Y-28881170D01*
X1677335Y-28862122D01*
X1667811Y-28824027D01*
X1667811Y-28776408D01*
X1677335Y-28738312D01*
X1686859Y-28719265D01*
X1696382Y-28709741D01*
X1715430Y-28700217D01*
X1867811Y-28881170D02*
X1877335Y-28890693D01*
X1867811Y-28900217D01*
X1858287Y-28890693D01*
X1867811Y-28881170D01*
X1867811Y-28900217D01*
X2067811Y-28900217D02*
X1953525Y-28900217D01*
X2010668Y-28900217D02*
X2010668Y-28700217D01*
X1991621Y-28728789D01*
X1972573Y-28747836D01*
X1953525Y-28757360D01*
X2144002Y-28719265D02*
X2153525Y-28709741D01*
X2172573Y-28700217D01*
X2220192Y-28700217D01*
X2239240Y-28709741D01*
X2248764Y-28719265D01*
X2258287Y-28738312D01*
X2258287Y-28757360D01*
X2248764Y-28785931D01*
X2134478Y-28900217D01*
X2258287Y-28900217D01*
X2429716Y-28700217D02*
X2391621Y-28700217D01*
X2372573Y-28709741D01*
X2363049Y-28719265D01*
X2344002Y-28747836D01*
X2334478Y-28785931D01*
X2334478Y-28862122D01*
X2344002Y-28881170D01*
X2353525Y-28890693D01*
X2372573Y-28900217D01*
X2410668Y-28900217D01*
X2429716Y-28890693D01*
X2439240Y-28881170D01*
X2448764Y-28862122D01*
X2448764Y-28814503D01*
X2439240Y-28795455D01*
X2429716Y-28785931D01*
X2410668Y-28776408D01*
X2372573Y-28776408D01*
X2353525Y-28785931D01*
X2344002Y-28795455D01*
X2334478Y-28814503D01*
X2572573Y-28700217D02*
X2591621Y-28700217D01*
X2610668Y-28709741D01*
X2620192Y-28719265D01*
X2629716Y-28738312D01*
X2639240Y-28776408D01*
X2639240Y-28824027D01*
X2629716Y-28862122D01*
X2620192Y-28881170D01*
X2610668Y-28890693D01*
X2591621Y-28900217D01*
X2572573Y-28900217D01*
X2553525Y-28890693D01*
X2544002Y-28881170D01*
X2534478Y-28862122D01*
X2524954Y-28824027D01*
X2524954Y-28776408D01*
X2534478Y-28738312D01*
X2544002Y-28719265D01*
X2553525Y-28709741D01*
X2572573Y-28700217D01*
X2715430Y-28700217D02*
X2715430Y-28738312D01*
X2791621Y-28700217D02*
X2791621Y-28738312D01*
X3086859Y-28976408D02*
X3077335Y-28966884D01*
X3058287Y-28938312D01*
X3048763Y-28919265D01*
X3039240Y-28890693D01*
X3029716Y-28843074D01*
X3029716Y-28804979D01*
X3039240Y-28757360D01*
X3048763Y-28728789D01*
X3058287Y-28709741D01*
X3077335Y-28681170D01*
X3086859Y-28671646D01*
X3153525Y-28719265D02*
X3163049Y-28709741D01*
X3182097Y-28700217D01*
X3229716Y-28700217D01*
X3248763Y-28709741D01*
X3258287Y-28719265D01*
X3267811Y-28738312D01*
X3267811Y-28757360D01*
X3258287Y-28785931D01*
X3144002Y-28900217D01*
X3267811Y-28900217D01*
X3505906Y-28900217D02*
X3505906Y-28700217D01*
X3591621Y-28900217D02*
X3591621Y-28795455D01*
X3582097Y-28776408D01*
X3563049Y-28766884D01*
X3534478Y-28766884D01*
X3515430Y-28776408D01*
X3505906Y-28785931D01*
X3715430Y-28900217D02*
X3696382Y-28890693D01*
X3686859Y-28881170D01*
X3677335Y-28862122D01*
X3677335Y-28804979D01*
X3686859Y-28785931D01*
X3696382Y-28776408D01*
X3715430Y-28766884D01*
X3744002Y-28766884D01*
X3763049Y-28776408D01*
X3772573Y-28785931D01*
X3782097Y-28804979D01*
X3782097Y-28862122D01*
X3772573Y-28881170D01*
X3763049Y-28890693D01*
X3744002Y-28900217D01*
X3715430Y-28900217D01*
X3896382Y-28900217D02*
X3877335Y-28890693D01*
X3867811Y-28871646D01*
X3867811Y-28700217D01*
X4048763Y-28890693D02*
X4029716Y-28900217D01*
X3991621Y-28900217D01*
X3972573Y-28890693D01*
X3963049Y-28871646D01*
X3963049Y-28795455D01*
X3972573Y-28776408D01*
X3991621Y-28766884D01*
X4029716Y-28766884D01*
X4048763Y-28776408D01*
X4058287Y-28795455D01*
X4058287Y-28814503D01*
X3963049Y-28833551D01*
X4134478Y-28890693D02*
X4153525Y-28900217D01*
X4191621Y-28900217D01*
X4210668Y-28890693D01*
X4220192Y-28871646D01*
X4220192Y-28862122D01*
X4210668Y-28843074D01*
X4191621Y-28833551D01*
X4163049Y-28833551D01*
X4144002Y-28824027D01*
X4134478Y-28804979D01*
X4134478Y-28795455D01*
X4144002Y-28776408D01*
X4163049Y-28766884D01*
X4191621Y-28766884D01*
X4210668Y-28776408D01*
X4286859Y-28976408D02*
X4296383Y-28966884D01*
X4315430Y-28938312D01*
X4324954Y-28919265D01*
X4334478Y-28890693D01*
X4344002Y-28843074D01*
X4344002Y-28804979D01*
X4334478Y-28757360D01*
X4324954Y-28728789D01*
X4315430Y-28709741D01*
X4296383Y-28681170D01*
X4286859Y-28671646D01*
M02*
