M48
; DRILL file {KiCad (6.0.6)} date Wed Jul 13 04:46:21 2022
; FORMAT={-:-/ absolute / metric / decimal}
; #@! TF.CreationDate,2022-07-13T04:46:21-05:00
; #@! TF.GenerationSoftware,Kicad,Pcbnew,(6.0.6)
; #@! TF.FileFunction,Plated,1,2,PTH
FMAT,2
METRIC
; #@! TA.AperFunction,Plated,PTH,ViaDrill
T1C0.300
; #@! TA.AperFunction,Plated,PTH,ViaDrill
T2C0.400
; #@! TA.AperFunction,Plated,PTH,ComponentDrill
T3C0.990
; #@! TA.AperFunction,Plated,PTH,ComponentDrill
T4C1.020
; #@! TA.AperFunction,Plated,PTH,ComponentDrill
T5C1.200
; #@! TA.AperFunction,Plated,PTH,ComponentDrill
T6C1.300
; #@! TA.AperFunction,Plated,PTH,ComponentDrill
T7C1.340
; #@! TA.AperFunction,Plated,PTH,ComponentDrill
T8C1.500
; #@! TA.AperFunction,Plated,PTH,ComponentDrill
T9C3.200
%
G90
G05
T1
X8.369Y-159.207
X9.385Y-97.231
X14.63Y-95.465
X15.354Y-115.519
X15.989Y-142.443
X22.466Y-173.558
X23.016Y-172.179
X23.609Y-83.515
X34.531Y-144.221
X35.166Y-112.852
X37.706Y-198.196
X38.087Y-59.512
X38.087Y-162.89
X40.627Y-93.421
X41.389Y-40.208
X42.024Y-218.389
X44.597Y-205.5
X53.871Y-65.499
X53.962Y-128.6
X54.089Y-189.306
X56.756Y-67.259
X60.82Y-36.906
X61.582Y-220.929
X64.376Y-91.262
X64.884Y-166.573
X65.574Y-98.439
X67.932Y-145.872
X68.44Y-111.963
X68.57Y-172.787
X68.948Y-203.657
X69.075Y-52.273
X77.56Y-143.048
X84.315Y-173.939
X84.442Y-22.428
X84.442Y-83.134
X84.442Y-234.645
X86.582Y-172.787
X88.633Y-140.284
X89.141Y-117.551
X92.062Y-194.894
X92.544Y-247.967
X92.57Y-63.068
X93.923Y-5.788
X95.999Y-38.811
X96.38Y-219.151
X97.142Y-250.012
X97.904Y-7.315
X98.537Y-38.961
X99.428Y-158.826
X99.555Y-98.247
X101.694Y-98.439
X106.977Y-64.336
X107.527Y-9.365
X113.525Y-67.132
X114.541Y-190.83
X114.668Y-124.409
X114.922Y-32.969
X115.557Y-224.612
X116.446Y-243.916
X118.986Y-87.833
X119.494Y-169.875
X119.514Y-9.365
X120.129Y-141.173
X122.511Y-202.526
X127.114Y-113.36
X128.133Y-143.048
X129.908Y-52.654
X129.908Y-204.292
X130.37Y-202.692
X131.501Y-9.365
X134.74Y-2.563
X134.861Y-143.713
X135.491Y-142.387
X141.084Y-170.637
X141.592Y-87.325
X142.481Y-119.075
X143.488Y-9.365
X144.767Y-224.866
X145.148Y-133.299
X145.148Y-244.424
X145.275Y-32.842
X146.291Y-191.338
X147.053Y-66.751
X149.196Y6.198
X149.196Y3.117
X149.291Y-3.377
X152.965Y3.117
X155.475Y2.462
X155.475Y-65.727
X158.203Y-98.439
X158.471Y-110.335
X160.134Y-98.12
X160.134Y-158.826
X161.289Y-247.134
X161.531Y-5.664
X163.309Y-249.885
X164.185Y-38.961
X165.595Y-219.786
X166.103Y-38.176
X167.461Y-172.787
X168.008Y-63.576
X168.389Y-194.386
X171.437Y-117.932
X172.072Y-139.776
X174.866Y-20.015
X175.247Y-83.007
X175.247Y-173.939
X175.374Y-234.645
X179.448Y-205.5
X181.612Y-17.316
X182.445Y-18.144
X185.442Y-146.022
X185.442Y-169.813
X190.487Y-203.784
X191.435Y-15.17
X192.138Y-113.106
X192.773Y-145.237
X192.9Y-54.686
X195.44Y-24.787
X195.694Y-167.208
X196.202Y-90.754
X196.95Y-17.953
X199.25Y-221.818
X199.758Y-37.668
X203.285Y-65.727
X205.346Y-67.894
X205.727Y-128.6
X205.727Y-189.179
X219.189Y-217.373
X219.316Y-40.081
X220.459Y-94.056
X222.364Y-60.147
X222.618Y-162.636
X222.999Y-197.815
X226.047Y-114.63
X226.682Y-143.586
X233.389Y-113.309
X233.389Y-172.306
X235.953Y-83.134
X238.239Y-173.812
X244.335Y-142.951
X245.224Y-115.011
X251.447Y-161.239
X251.828Y-96.215
T2
X142.35Y-14.25
X144.94Y-12.21
T3
X102.65Y8.87
X107.15Y8.87
X112.13Y8.85
X116.63Y8.85
T4
X100.99Y-7.17
X111.15Y-7.17
X116.23Y-24.95
X121.31Y-7.17
X121.31Y-24.95
X123.85Y-7.17
X123.85Y-24.95
X126.39Y-24.95
X128.93Y-24.95
X134.01Y-7.17
X136.55Y-7.21
T5
X123.57Y4.94
X126.07Y4.94
X128.57Y4.94
X136.11Y4.96
X138.61Y4.96
X141.11Y4.96
T6
X101.395Y6.38
X108.405Y6.38
X110.875Y6.36
X117.885Y6.36
T7
X146.94Y8.543
X146.94Y4.742
X155.58Y8.543
X155.58Y4.742
T9
X72.5Y-75.0
X72.92Y-175.0
T8
X121.07Y-0.01G85X121.07Y8.49
G05
X131.07Y-0.01G85X131.07Y8.49
G05
X133.61Y0.01G85X133.61Y8.51
G05
X143.61Y0.01G85X143.61Y8.51
G05
T0
M30
