%TF.GenerationSoftware,KiCad,Pcbnew,(6.0.6)*%
%TF.CreationDate,2022-07-04T16:04:11-05:00*%
%TF.ProjectId,CircleBoard,43697263-6c65-4426-9f61-72642e6b6963,rev?*%
%TF.SameCoordinates,Original*%
%TF.FileFunction,Soldermask,Top*%
%TF.FilePolarity,Negative*%
%FSLAX46Y46*%
G04 Gerber Fmt 4.6, Leading zero omitted, Abs format (unit mm)*
G04 Created by KiCad (PCBNEW (6.0.6)) date 2022-07-04 16:04:11*
%MOMM*%
%LPD*%
G01*
G04 APERTURE LIST*
G04 Aperture macros list*
%AMRoundRect*
0 Rectangle with rounded corners*
0 $1 Rounding radius*
0 $2 $3 $4 $5 $6 $7 $8 $9 X,Y pos of 4 corners*
0 Add a 4 corners polygon primitive as box body*
4,1,4,$2,$3,$4,$5,$6,$7,$8,$9,$2,$3,0*
0 Add four circle primitives for the rounded corners*
1,1,$1+$1,$2,$3*
1,1,$1+$1,$4,$5*
1,1,$1+$1,$6,$7*
1,1,$1+$1,$8,$9*
0 Add four rect primitives between the rounded corners*
20,1,$1+$1,$2,$3,$4,$5,0*
20,1,$1+$1,$4,$5,$6,$7,0*
20,1,$1+$1,$6,$7,$8,$9,0*
20,1,$1+$1,$8,$9,$2,$3,0*%
%AMHorizOval*
0 Thick line with rounded ends*
0 $1 width*
0 $2 $3 position (X,Y) of the first rounded end (center of the circle)*
0 $4 $5 position (X,Y) of the second rounded end (center of the circle)*
0 Add line between two ends*
20,1,$1,$2,$3,$4,$5,0*
0 Add two circle primitives to create the rounded ends*
1,1,$1,$2,$3*
1,1,$1,$4,$5*%
G04 Aperture macros list end*
%ADD10C,5.500000*%
%ADD11R,1.500000X1.000000*%
%ADD12R,1.200000X1.400000*%
%ADD13R,1.840000X1.200000*%
%ADD14RoundRect,0.250000X0.262500X0.450000X-0.262500X0.450000X-0.262500X-0.450000X0.262500X-0.450000X0*%
%ADD15C,1.524000*%
%ADD16R,0.700000X1.200000*%
%ADD17R,0.760000X1.200000*%
%ADD18R,0.800000X1.200000*%
%ADD19C,2.010000*%
%ADD20R,1.700000X3.500000*%
%ADD21O,1.700000X1.700000*%
%ADD22R,3.500000X1.700000*%
%ADD23RoundRect,0.250000X-0.262500X-0.450000X0.262500X-0.450000X0.262500X0.450000X-0.262500X0.450000X0*%
%ADD24C,0.910000*%
%ADD25HorizOval,0.910000X-0.070711X0.070711X0.070711X-0.070711X0*%
%ADD26R,1.020000X1.470000*%
G04 APERTURE END LIST*
D10*
X72920000Y-175000000D03*
X72500000Y-75000000D03*
D11*
X91784000Y-247320000D03*
X91784000Y-250520000D03*
X96684000Y-250520000D03*
X96684000Y-247320000D03*
X156554000Y-247320000D03*
X156554000Y-250520000D03*
X161454000Y-250520000D03*
X161454000Y-247320000D03*
X138266000Y-240208000D03*
X138266000Y-243408000D03*
X143166000Y-243408000D03*
X143166000Y-240208000D03*
X110326000Y-240970000D03*
X110326000Y-244170000D03*
X115226000Y-244170000D03*
X115226000Y-240970000D03*
X78322000Y-231826000D03*
X78322000Y-235026000D03*
X83222000Y-235026000D03*
X83222000Y-231826000D03*
X110072000Y-221666000D03*
X110072000Y-224866000D03*
X114972000Y-224866000D03*
X114972000Y-221666000D03*
X138520000Y-222428000D03*
X138520000Y-225628000D03*
X143420000Y-225628000D03*
X143420000Y-222428000D03*
X169254000Y-231572000D03*
X169254000Y-234772000D03*
X174154000Y-234772000D03*
X174154000Y-231572000D03*
X211164000Y-216332000D03*
X211164000Y-219532000D03*
X216064000Y-219532000D03*
X216064000Y-216332000D03*
X193130000Y-218872000D03*
X193130000Y-222072000D03*
X198030000Y-222072000D03*
X198030000Y-218872000D03*
X159856000Y-216586000D03*
X159856000Y-219786000D03*
X164756000Y-219786000D03*
X164756000Y-216586000D03*
X88990000Y-216332000D03*
X88990000Y-219532000D03*
X93890000Y-219532000D03*
X93890000Y-216332000D03*
X55462000Y-218110000D03*
X55462000Y-221310000D03*
X60362000Y-221310000D03*
X60362000Y-218110000D03*
X35650000Y-214554000D03*
X35650000Y-217754000D03*
X40550000Y-217754000D03*
X40550000Y-214554000D03*
X31332000Y-195758000D03*
X31332000Y-198958000D03*
X36232000Y-198958000D03*
X36232000Y-195758000D03*
X63336000Y-200330000D03*
X63336000Y-203530000D03*
X68236000Y-203530000D03*
X68236000Y-200330000D03*
X123788000Y-201346000D03*
X123788000Y-204546000D03*
X128688000Y-204546000D03*
X128688000Y-201346000D03*
X184494000Y-201346000D03*
X184494000Y-204546000D03*
X189394000Y-204546000D03*
X189394000Y-201346000D03*
X199734000Y-186106000D03*
X199734000Y-189306000D03*
X204634000Y-189306000D03*
X204634000Y-186106000D03*
X162396000Y-191440000D03*
X162396000Y-194640000D03*
X167296000Y-194640000D03*
X167296000Y-191440000D03*
X140552000Y-188646000D03*
X140552000Y-191846000D03*
X145452000Y-191846000D03*
X145452000Y-188646000D03*
X108040000Y-187630000D03*
X108040000Y-190830000D03*
X112940000Y-190830000D03*
X112940000Y-187630000D03*
X85942000Y-192202000D03*
X85942000Y-195402000D03*
X90842000Y-195402000D03*
X90842000Y-192202000D03*
X48096000Y-185852000D03*
X48096000Y-189052000D03*
X52996000Y-189052000D03*
X52996000Y-185852000D03*
X17870000Y-170612000D03*
X17870000Y-173812000D03*
X22770000Y-173812000D03*
X22770000Y-170612000D03*
X78322000Y-170866000D03*
X78322000Y-174066000D03*
X83222000Y-174066000D03*
X83222000Y-170866000D03*
X169254000Y-170612000D03*
X169254000Y-173812000D03*
X174154000Y-173812000D03*
X174154000Y-170612000D03*
X229960000Y-170866000D03*
X229960000Y-174066000D03*
X234860000Y-174066000D03*
X234860000Y-170866000D03*
X244946000Y-160706000D03*
X244946000Y-163906000D03*
X249846000Y-163906000D03*
X249846000Y-160706000D03*
X214974000Y-160960000D03*
X214974000Y-164160000D03*
X219874000Y-164160000D03*
X219874000Y-160960000D03*
X189574000Y-164262000D03*
X189574000Y-167462000D03*
X194474000Y-167462000D03*
X194474000Y-164262000D03*
X135218000Y-167564000D03*
X135218000Y-170764000D03*
X140118000Y-170764000D03*
X140118000Y-167564000D03*
X113374000Y-167056000D03*
X113374000Y-170256000D03*
X118274000Y-170256000D03*
X118274000Y-167056000D03*
X59018000Y-163500000D03*
X59018000Y-166700000D03*
X63918000Y-166700000D03*
X63918000Y-163500000D03*
X33364000Y-161976000D03*
X33364000Y-165176000D03*
X38264000Y-165176000D03*
X38264000Y-161976000D03*
X2376000Y-155880000D03*
X2376000Y-159080000D03*
X7276000Y-159080000D03*
X7276000Y-155880000D03*
X93562000Y-155626000D03*
X93562000Y-158826000D03*
X98462000Y-158826000D03*
X98462000Y-155626000D03*
X154268000Y-155626000D03*
X154268000Y-158826000D03*
X159168000Y-158826000D03*
X159168000Y-155626000D03*
X238596000Y-140132000D03*
X238596000Y-143332000D03*
X243496000Y-143332000D03*
X243496000Y-140132000D03*
X220308000Y-141402000D03*
X220308000Y-144602000D03*
X225208000Y-144602000D03*
X225208000Y-141402000D03*
X186780000Y-142164000D03*
X186780000Y-145364000D03*
X191680000Y-145364000D03*
X191680000Y-142164000D03*
X165952000Y-136830000D03*
X165952000Y-140030000D03*
X170852000Y-140030000D03*
X170852000Y-136830000D03*
X127852000Y-141402000D03*
X127852000Y-144602000D03*
X132752000Y-144602000D03*
X132752000Y-141402000D03*
X113374000Y-137084000D03*
X113374000Y-140284000D03*
X118274000Y-140284000D03*
X118274000Y-137084000D03*
X82640000Y-137338000D03*
X82640000Y-140538000D03*
X87540000Y-140538000D03*
X87540000Y-137338000D03*
X61812000Y-143180000D03*
X61812000Y-146380000D03*
X66712000Y-146380000D03*
X66712000Y-143180000D03*
X26760000Y-140386000D03*
X26760000Y-143586000D03*
X31660000Y-143586000D03*
X31660000Y-140386000D03*
X9996000Y-139370000D03*
X9996000Y-142570000D03*
X14896000Y-142570000D03*
X14896000Y-139370000D03*
X48096000Y-125146000D03*
X48096000Y-128346000D03*
X52996000Y-128346000D03*
X52996000Y-125146000D03*
X108802000Y-122352000D03*
X108802000Y-125552000D03*
X113702000Y-125552000D03*
X113702000Y-122352000D03*
X139028000Y-130480000D03*
X139028000Y-133680000D03*
X143928000Y-133680000D03*
X143928000Y-130480000D03*
X199734000Y-125400000D03*
X199734000Y-128600000D03*
X204634000Y-128600000D03*
X204634000Y-125400000D03*
X239104000Y-112192000D03*
X239104000Y-115392000D03*
X244004000Y-115392000D03*
X244004000Y-112192000D03*
X219800000Y-112192000D03*
X219800000Y-115392000D03*
X224700000Y-115392000D03*
X224700000Y-112192000D03*
X186018000Y-109906000D03*
X186018000Y-113106000D03*
X190918000Y-113106000D03*
X190918000Y-109906000D03*
X165444000Y-115240000D03*
X165444000Y-118440000D03*
X170344000Y-118440000D03*
X170344000Y-115240000D03*
X135726000Y-114732000D03*
X135726000Y-117932000D03*
X140626000Y-117932000D03*
X140626000Y-114732000D03*
X119978000Y-110668000D03*
X119978000Y-113868000D03*
X124878000Y-113868000D03*
X124878000Y-110668000D03*
X83148000Y-114478000D03*
X83148000Y-117678000D03*
X88048000Y-117678000D03*
X88048000Y-114478000D03*
X62320000Y-109144000D03*
X62320000Y-112344000D03*
X67220000Y-112344000D03*
X67220000Y-109144000D03*
X28538000Y-111176000D03*
X28538000Y-114376000D03*
X33438000Y-114376000D03*
X33438000Y-111176000D03*
X9234000Y-112954000D03*
X9234000Y-116154000D03*
X14134000Y-116154000D03*
X14134000Y-112954000D03*
X2630000Y-93904000D03*
X2630000Y-97104000D03*
X7530000Y-97104000D03*
X7530000Y-93904000D03*
X93562000Y-94920000D03*
X93562000Y-98120000D03*
X98462000Y-98120000D03*
X98462000Y-94920000D03*
X154268000Y-94920000D03*
X154268000Y-98120000D03*
X159168000Y-98120000D03*
X159168000Y-94920000D03*
X245454000Y-92380000D03*
X245454000Y-95580000D03*
X250354000Y-95580000D03*
X250354000Y-92380000D03*
X214466000Y-90856000D03*
X214466000Y-94056000D03*
X219366000Y-94056000D03*
X219366000Y-90856000D03*
X190082000Y-88316000D03*
X190082000Y-91516000D03*
X194982000Y-91516000D03*
X194982000Y-88316000D03*
X135726000Y-84506000D03*
X135726000Y-87706000D03*
X140626000Y-87706000D03*
X140626000Y-84506000D03*
X112866000Y-84760000D03*
X112866000Y-87960000D03*
X117766000Y-87960000D03*
X117766000Y-84760000D03*
X58256000Y-88316000D03*
X58256000Y-91516000D03*
X63156000Y-91516000D03*
X63156000Y-88316000D03*
X34126000Y-90602000D03*
X34126000Y-93802000D03*
X39026000Y-93802000D03*
X39026000Y-90602000D03*
X17870000Y-79934000D03*
X17870000Y-83134000D03*
X22770000Y-83134000D03*
X22770000Y-79934000D03*
X78322000Y-79680000D03*
X78322000Y-82880000D03*
X83222000Y-82880000D03*
X83222000Y-79680000D03*
X169254000Y-79934000D03*
X169254000Y-83134000D03*
X174154000Y-83134000D03*
X174154000Y-79934000D03*
X229960000Y-80188000D03*
X229960000Y-83388000D03*
X234860000Y-83388000D03*
X234860000Y-80188000D03*
X216244000Y-57328000D03*
X216244000Y-60528000D03*
X221144000Y-60528000D03*
X221144000Y-57328000D03*
X198718000Y-64948000D03*
X198718000Y-68148000D03*
X203618000Y-68148000D03*
X203618000Y-64948000D03*
X161888000Y-60630000D03*
X161888000Y-63830000D03*
X166788000Y-63830000D03*
X166788000Y-60630000D03*
X141314000Y-63424000D03*
X141314000Y-66624000D03*
X146214000Y-66624000D03*
X146214000Y-63424000D03*
X107278000Y-64186000D03*
X107278000Y-67386000D03*
X112178000Y-67386000D03*
X112178000Y-64186000D03*
X86450000Y-60122000D03*
X86450000Y-63322000D03*
X91350000Y-63322000D03*
X91350000Y-60122000D03*
X47080000Y-64948000D03*
X47080000Y-68148000D03*
X51980000Y-68148000D03*
X51980000Y-64948000D03*
X32094000Y-56566000D03*
X32094000Y-59766000D03*
X36994000Y-59766000D03*
X36994000Y-56566000D03*
X63336000Y-48692000D03*
X63336000Y-51892000D03*
X68236000Y-51892000D03*
X68236000Y-48692000D03*
X123788000Y-49454000D03*
X123788000Y-52654000D03*
X128688000Y-52654000D03*
X128688000Y-49454000D03*
X184494000Y-49454000D03*
X184494000Y-52654000D03*
X189394000Y-52654000D03*
X189394000Y-49454000D03*
X213450000Y-37008000D03*
X213450000Y-40208000D03*
X218350000Y-40208000D03*
X218350000Y-37008000D03*
X193638000Y-33198000D03*
X193638000Y-36398000D03*
X198538000Y-36398000D03*
X198538000Y-33198000D03*
X159856000Y-35484000D03*
X159856000Y-38684000D03*
X164756000Y-38684000D03*
X164756000Y-35484000D03*
X109310000Y-30658000D03*
X109310000Y-33858000D03*
X114210000Y-33858000D03*
X114210000Y-30658000D03*
X88736000Y-35738000D03*
X88736000Y-38938000D03*
X93636000Y-38938000D03*
X93636000Y-35738000D03*
X54700000Y-33960000D03*
X54700000Y-37160000D03*
X59600000Y-37160000D03*
X59600000Y-33960000D03*
X34634000Y-38532000D03*
X34634000Y-41732000D03*
X39534000Y-41732000D03*
X39534000Y-38532000D03*
X78322000Y-19482000D03*
X78322000Y-22682000D03*
X83222000Y-22682000D03*
X83222000Y-19482000D03*
X139028000Y-28372000D03*
X139028000Y-31572000D03*
X143928000Y-31572000D03*
X143928000Y-28372000D03*
X169254000Y-19228000D03*
X169254000Y-22428000D03*
X174154000Y-22428000D03*
X174154000Y-19228000D03*
X91276000Y-5004000D03*
X91276000Y-8204000D03*
X96176000Y-8204000D03*
X96176000Y-5004000D03*
D12*
X104885000Y8960000D03*
D13*
X104885000Y7360000D03*
X108935000Y7360000D03*
D12*
X108935000Y8960000D03*
D14*
X148802500Y1910000D03*
X146977500Y1910000D03*
D15*
X131540000Y5585900D03*
X134080000Y5585900D03*
X136620000Y5585900D03*
D16*
X146690000Y4850000D03*
D17*
X144670000Y4850000D03*
D18*
X143440000Y4850000D03*
D16*
X145690000Y4850000D03*
D17*
X147710000Y4850000D03*
D18*
X148940000Y4850000D03*
D19*
X150510000Y4930000D03*
X150510000Y8730000D03*
X141870000Y8730000D03*
X141870000Y4930000D03*
D15*
X120050000Y5515900D03*
X122590000Y5515900D03*
X125130000Y5515900D03*
D20*
X110170000Y-23550000D03*
X112710000Y-23550000D03*
X115250000Y-23550000D03*
X117790000Y-23550000D03*
X120330000Y-23550000D03*
X122870000Y-23550000D03*
D21*
X125410000Y-22650000D03*
D20*
X125410000Y-23550000D03*
X127950000Y-23550000D03*
X130490000Y-23550000D03*
D21*
X130490000Y-22650000D03*
D20*
X133030000Y-23550000D03*
D21*
X133030000Y-22650000D03*
D20*
X135570000Y-23550000D03*
D21*
X135570000Y-22650000D03*
D20*
X138110000Y-23550000D03*
D21*
X138110000Y-22650000D03*
D20*
X140650000Y-23550000D03*
X143190000Y-23550000D03*
X145730000Y-23550000D03*
X148270000Y-23550000D03*
X150810000Y-23550000D03*
X153350000Y-23550000D03*
X155890000Y-23550000D03*
X158430000Y-23550000D03*
X158430000Y-3970000D03*
X155890000Y-3970000D03*
X153350000Y-3970000D03*
X150810000Y-3970000D03*
X148270000Y-3970000D03*
D21*
X145730000Y-4910000D03*
D20*
X145730000Y-3970000D03*
X143190000Y-3970000D03*
D21*
X143190000Y-4870000D03*
D20*
X140650000Y-3970000D03*
X138110000Y-3970000D03*
X135570000Y-3970000D03*
D21*
X133030000Y-4870000D03*
D20*
X133030000Y-3970000D03*
X130490000Y-3970000D03*
D21*
X130490000Y-4870000D03*
D20*
X127950000Y-3970000D03*
X125410000Y-3970000D03*
X122870000Y-3970000D03*
D21*
X120330000Y-4870000D03*
D20*
X120330000Y-3970000D03*
X117790000Y-3970000D03*
X115250000Y-3970000D03*
X112710000Y-3970000D03*
D21*
X110170000Y-4870000D03*
D20*
X110170000Y-3970000D03*
D22*
X159100000Y-16300000D03*
X159100000Y-13760000D03*
X159100000Y-11220000D03*
D23*
X143517500Y1900000D03*
X145342500Y1900000D03*
D24*
X167740000Y-11390000D03*
X167740000Y-9740000D03*
X167740000Y-8090000D03*
X165400000Y-8090000D03*
X165400000Y-9740000D03*
D25*
X165500000Y-11290000D03*
D26*
X165790000Y-14280000D03*
X167390000Y-14280000D03*
D12*
X111495000Y8890000D03*
D13*
X111495000Y7290000D03*
X115545000Y7290000D03*
D12*
X115545000Y8890000D03*
M02*
