M48
; DRILL file {KiCad (6.0.6)} date Mon Jul  4 16:04:16 2022
; FORMAT={-:-/ absolute / metric / decimal}
; #@! TF.CreationDate,2022-07-04T16:04:16-05:00
; #@! TF.GenerationSoftware,Kicad,Pcbnew,(6.0.6)
; #@! TF.FileFunction,Plated,1,2,PTH
FMAT,2
METRIC
; #@! TA.AperFunction,Plated,PTH,ViaDrill
T1C0.300
; #@! TA.AperFunction,Plated,PTH,ViaDrill
T2C0.400
; #@! TA.AperFunction,Plated,PTH,ComponentDrill
T3C0.700
; #@! TA.AperFunction,Plated,PTH,ComponentDrill
T4C0.762
; #@! TA.AperFunction,Plated,PTH,ComponentDrill
T5C1.020
; #@! TA.AperFunction,Plated,PTH,ComponentDrill
T6C1.340
; #@! TA.AperFunction,Plated,PTH,ComponentDrill
T7C3.200
%
G90
G05
T1
X7.226Y-159.08
X7.48Y-97.104
X7.776Y-157.731
X9.015Y-95.504
X14.084Y-116.154
X14.846Y-142.57
X22.72Y-83.134
X22.72Y-173.812
X23.27Y-172.552
X24.447Y-79.894
X31.61Y-143.586
X33.388Y-114.376
X36.182Y-198.958
X36.944Y-59.766
X38.214Y-165.176
X38.976Y-93.802
X39.484Y-41.732
X40.5Y-217.754
X51.93Y-68.148
X52.946Y-128.346
X52.946Y-189.052
X53.011Y-126.355
X59.55Y-37.16
X60.125Y-90.273
X60.312Y-221.31
X60.797Y-38.007
X63.106Y-91.516
X63.868Y-166.7
X65.729Y-173.283
X65.946Y-167.319
X66.662Y-146.38
X67.17Y-112.344
X68.186Y-51.892
X68.186Y-203.53
X68.718Y-50.463
X68.718Y-83.826
X69.261Y-202.32
X83.172Y-22.682
X83.172Y-82.88
X83.172Y-174.066
X83.172Y-235.026
X83.664Y-172.679
X84.566Y-19.848
X84.566Y-79.766
X87.49Y-140.538
X87.998Y-117.678
X90.792Y-195.402
X91.3Y-63.322
X92.012Y-36.115
X92.632Y-96.332
X92.632Y-161.355
X93.076Y-9.278
X93.586Y-38.938
X93.84Y-219.532
X95.622Y-125.572
X95.878Y-218.167
X96.126Y-8.204
X96.634Y-250.52
X97.021Y-3.164
X98.412Y-98.12
X98.412Y-158.826
X98.611Y-96.332
X98.611Y-157.604
X98.77Y-247.83
X107.579Y-3.314
X112.128Y-67.386
X112.89Y-190.83
X113.652Y-125.552
X114.16Y-33.858
X114.922Y-224.866
X115.176Y-244.17
X116.288Y-167.319
X116.322Y-86.388
X116.547Y-6.754
X116.547Y-33.133
X117.716Y-87.96
X118.224Y-140.284
X118.224Y-170.256
X122.034Y-52.835
X122.034Y-204.319
X124.828Y-113.868
X128.504Y-6.754
X128.638Y-52.654
X128.638Y-204.546
X129.38Y-202.946
X129.718Y-51.054
X132.702Y-144.602
X137.128Y-29.866
X137.721Y-86.877
X140.068Y-170.764
X140.461Y-6.754
X140.576Y-87.706
X140.576Y-117.932
X143.116Y-243.408
X143.37Y-225.628
X143.45Y-158.373
X143.665Y3.371
X143.878Y-31.572
X143.878Y-133.68
X143.91Y6.286
X144.811Y-128.522
X145.402Y-191.846
X146.164Y-66.624
X148.552Y3.268
X148.953Y6.347
X149.429Y-170.301
X149.629Y-1.095
X150.878Y-9.178
X152.221Y-95.753
X152.418Y-250.812
X152.786Y-6.754
X159.118Y-98.12
X159.118Y-158.826
X161.386Y-173.283
X161.399Y-95.753
X161.404Y-250.52
X163.443Y-35.304
X163.913Y-8.701
X163.928Y-11.088
X164.375Y-143.464
X164.375Y-218.186
X164.706Y-38.684
X164.706Y-219.786
X166.738Y-63.83
X167.187Y-83.826
X167.246Y-194.64
X167.365Y-15.874
X167.553Y-12.695
X170.294Y-118.44
X170.354Y-9.278
X170.802Y-140.03
X173.343Y-54.007
X173.343Y-206.084
X174.104Y-22.428
X174.104Y-83.134
X174.104Y-173.812
X174.104Y-234.772
X174.871Y-172.552
X176.366Y-80.844
X188.29Y-128.554
X189.344Y-52.654
X189.344Y-204.546
X190.868Y-113.106
X191.63Y-145.364
X193.503Y-88.557
X193.537Y-166.395
X194.424Y-167.462
X194.932Y-91.516
X197.98Y-222.072
X198.488Y-36.398
X203.568Y-68.148
X204.584Y-128.6
X204.584Y-189.306
X216.014Y-219.532
X218.3Y-40.208
X219.316Y-94.056
X219.824Y-164.16
X221.094Y-60.528
X224.65Y-115.392
X225.158Y-144.602
X225.345Y-143.367
X227.151Y-83.826
X227.151Y-173.283
X233.129Y-95.753
X234.81Y-83.388
X234.81Y-174.066
X243.446Y-143.332
X243.954Y-115.392
X249.796Y-163.906
X250.304Y-95.58
T2
X122.92Y2.88
T3
X104.885Y8.96
X108.935Y8.96
X111.495Y8.89
X115.545Y8.89
T4
X120.05Y5.516
X122.59Y5.516
X125.13Y5.516
X131.54Y5.586
X134.08Y5.586
X136.62Y5.586
T5
X110.17Y-4.87
X120.33Y-4.87
X125.41Y-22.65
X130.49Y-4.87
X130.49Y-22.65
X133.03Y-4.87
X133.03Y-22.65
X135.57Y-22.65
X138.11Y-22.65
X143.19Y-4.87
X145.73Y-4.91
T6
X141.87Y8.73
X141.87Y4.93
X150.51Y8.73
X150.51Y4.93
T7
X72.5Y-75.0
X72.92Y-175.0
T0
M30
