%TF.GenerationSoftware,KiCad,Pcbnew,(6.0.6)*%
%TF.CreationDate,2022-06-29T14:14:22-05:00*%
%TF.ProjectId,FireflyV0,46697265-666c-4795-9630-2e6b69636164,rev?*%
%TF.SameCoordinates,Original*%
%TF.FileFunction,Paste,Top*%
%TF.FilePolarity,Positive*%
%FSLAX46Y46*%
G04 Gerber Fmt 4.6, Leading zero omitted, Abs format (unit mm)*
G04 Created by KiCad (PCBNEW (6.0.6)) date 2022-06-29 14:14:22*
%MOMM*%
%LPD*%
G01*
G04 APERTURE LIST*
G04 Aperture macros list*
%AMRoundRect*
0 Rectangle with rounded corners*
0 $1 Rounding radius*
0 $2 $3 $4 $5 $6 $7 $8 $9 X,Y pos of 4 corners*
0 Add a 4 corners polygon primitive as box body*
4,1,4,$2,$3,$4,$5,$6,$7,$8,$9,$2,$3,0*
0 Add four circle primitives for the rounded corners*
1,1,$1+$1,$2,$3*
1,1,$1+$1,$4,$5*
1,1,$1+$1,$6,$7*
1,1,$1+$1,$8,$9*
0 Add four rect primitives between the rounded corners*
20,1,$1+$1,$2,$3,$4,$5,0*
20,1,$1+$1,$4,$5,$6,$7,0*
20,1,$1+$1,$6,$7,$8,$9,0*
20,1,$1+$1,$8,$9,$2,$3,0*%
%AMHorizOval*
0 Thick line with rounded ends*
0 $1 width*
0 $2 $3 position (X,Y) of the first rounded end (center of the circle)*
0 $4 $5 position (X,Y) of the second rounded end (center of the circle)*
0 Add line between two ends*
20,1,$1,$2,$3,$4,$5,0*
0 Add two circle primitives to create the rounded ends*
1,1,$1,$2,$3*
1,1,$1,$4,$5*%
G04 Aperture macros list end*
%ADD10R,1.840000X1.200000*%
%ADD11RoundRect,0.250000X-0.450000X0.262500X-0.450000X-0.262500X0.450000X-0.262500X0.450000X0.262500X0*%
%ADD12R,0.410000X0.280000*%
%ADD13R,0.280000X0.410000*%
%ADD14R,1.470000X1.020000*%
%ADD15RoundRect,0.500000X-1.500000X-0.500000X1.500000X-0.500000X1.500000X0.500000X-1.500000X0.500000X0*%
%ADD16R,0.700000X1.200000*%
%ADD17R,0.760000X1.200000*%
%ADD18R,0.800000X1.200000*%
%ADD19C,0.910000*%
%ADD20HorizOval,0.910000X-0.070711X0.070711X0.070711X-0.070711X0*%
%ADD21R,1.020000X1.470000*%
%ADD22RoundRect,0.500000X0.500000X-1.500000X0.500000X1.500000X-0.500000X1.500000X-0.500000X-1.500000X0*%
G04 APERTURE END LIST*
D10*
X63265000Y-53350000D03*
X59215000Y-53350000D03*
X55785000Y-53350000D03*
X51735000Y-53350000D03*
D11*
X20140000Y-45410000D03*
X20140000Y-47235000D03*
X18120000Y-45385000D03*
X18120000Y-47210000D03*
X70330000Y-45625000D03*
X70330000Y-47450000D03*
X68420000Y-45600000D03*
X68420000Y-47425000D03*
D12*
X60585000Y-42850000D03*
X60585000Y-43350000D03*
X60585000Y-43850000D03*
X60585000Y-44350000D03*
D13*
X61130000Y-44415000D03*
X61630000Y-44415000D03*
D12*
X62175000Y-44350000D03*
X62175000Y-43850000D03*
X62175000Y-43350000D03*
X62175000Y-42850000D03*
D13*
X61630000Y-42785000D03*
X61130000Y-42785000D03*
D14*
X64550000Y-42700000D03*
X64550000Y-44300000D03*
D15*
X16300000Y-19450000D03*
X16300000Y-22450000D03*
X16300000Y-25450000D03*
X16300000Y-28450000D03*
D16*
X19133821Y-50002500D03*
D17*
X21153821Y-50002500D03*
D18*
X22383821Y-50002500D03*
D16*
X20133821Y-50002500D03*
D17*
X18113821Y-50002500D03*
D18*
X16883821Y-50002500D03*
D16*
X71030000Y-50170000D03*
D17*
X73050000Y-50170000D03*
D18*
X74280000Y-50170000D03*
D16*
X72030000Y-50170000D03*
D17*
X70010000Y-50170000D03*
D18*
X68780000Y-50170000D03*
D19*
X42820000Y-41870000D03*
X42820000Y-40220000D03*
X42820000Y-38570000D03*
X40480000Y-38570000D03*
X40480000Y-40220000D03*
D20*
X40580000Y-41770000D03*
D21*
X41040000Y-44660000D03*
X42640000Y-44660000D03*
D15*
X16210000Y-31210000D03*
X16210000Y-34210000D03*
X16210000Y-37210000D03*
X16210000Y-40210000D03*
D22*
X15400000Y-15560000D03*
X18400000Y-15560000D03*
X21400000Y-15560000D03*
X24400000Y-15560000D03*
D15*
X74820000Y-38310000D03*
X74820000Y-41310000D03*
X74820000Y-44310000D03*
X74820000Y-47310000D03*
M02*
