%TF.GenerationSoftware,KiCad,Pcbnew,(6.0.6)*%
%TF.CreationDate,2022-06-29T14:14:22-05:00*%
%TF.ProjectId,FireflyV0,46697265-666c-4795-9630-2e6b69636164,rev?*%
%TF.SameCoordinates,Original*%
%TF.FileFunction,Copper,L1,Top*%
%TF.FilePolarity,Positive*%
%FSLAX46Y46*%
G04 Gerber Fmt 4.6, Leading zero omitted, Abs format (unit mm)*
G04 Created by KiCad (PCBNEW (6.0.6)) date 2022-06-29 14:14:22*
%MOMM*%
%LPD*%
G01*
G04 APERTURE LIST*
G04 Aperture macros list*
%AMRoundRect*
0 Rectangle with rounded corners*
0 $1 Rounding radius*
0 $2 $3 $4 $5 $6 $7 $8 $9 X,Y pos of 4 corners*
0 Add a 4 corners polygon primitive as box body*
4,1,4,$2,$3,$4,$5,$6,$7,$8,$9,$2,$3,0*
0 Add four circle primitives for the rounded corners*
1,1,$1+$1,$2,$3*
1,1,$1+$1,$4,$5*
1,1,$1+$1,$6,$7*
1,1,$1+$1,$8,$9*
0 Add four rect primitives between the rounded corners*
20,1,$1+$1,$2,$3,$4,$5,0*
20,1,$1+$1,$4,$5,$6,$7,0*
20,1,$1+$1,$6,$7,$8,$9,0*
20,1,$1+$1,$8,$9,$2,$3,0*%
%AMHorizOval*
0 Thick line with rounded ends*
0 $1 width*
0 $2 $3 position (X,Y) of the first rounded end (center of the circle)*
0 $4 $5 position (X,Y) of the second rounded end (center of the circle)*
0 Add line between two ends*
20,1,$1,$2,$3,$4,$5,0*
0 Add two circle primitives to create the rounded ends*
1,1,$1,$2,$3*
1,1,$1,$4,$5*%
G04 Aperture macros list end*
%TA.AperFunction,ComponentPad*%
%ADD10O,1.700000X1.700000*%
%TD*%
%TA.AperFunction,SMDPad,CuDef*%
%ADD11R,1.700000X3.500000*%
%TD*%
%TA.AperFunction,SMDPad,CuDef*%
%ADD12R,3.500000X1.700000*%
%TD*%
%TA.AperFunction,ComponentPad*%
%ADD13R,1.200000X1.400000*%
%TD*%
%TA.AperFunction,SMDPad,CuDef*%
%ADD14R,1.840000X1.200000*%
%TD*%
%TA.AperFunction,SMDPad,CuDef*%
%ADD15RoundRect,0.250000X-0.450000X0.262500X-0.450000X-0.262500X0.450000X-0.262500X0.450000X0.262500X0*%
%TD*%
%TA.AperFunction,SMDPad,CuDef*%
%ADD16R,0.410000X0.280000*%
%TD*%
%TA.AperFunction,SMDPad,CuDef*%
%ADD17R,0.280000X0.410000*%
%TD*%
%TA.AperFunction,SMDPad,CuDef*%
%ADD18R,1.470000X1.020000*%
%TD*%
%TA.AperFunction,SMDPad,CuDef*%
%ADD19RoundRect,0.500000X-1.500000X-0.500000X1.500000X-0.500000X1.500000X0.500000X-1.500000X0.500000X0*%
%TD*%
%TA.AperFunction,SMDPad,CuDef*%
%ADD20R,0.700000X1.200000*%
%TD*%
%TA.AperFunction,SMDPad,CuDef*%
%ADD21R,0.760000X1.200000*%
%TD*%
%TA.AperFunction,SMDPad,CuDef*%
%ADD22R,0.800000X1.200000*%
%TD*%
%TA.AperFunction,ComponentPad*%
%ADD23C,2.010000*%
%TD*%
%TA.AperFunction,ComponentPad*%
%ADD24C,1.524000*%
%TD*%
%TA.AperFunction,SMDPad,CuDef*%
%ADD25C,0.910000*%
%TD*%
%TA.AperFunction,SMDPad,CuDef*%
%ADD26HorizOval,0.910000X-0.070711X0.070711X0.070711X-0.070711X0*%
%TD*%
%TA.AperFunction,SMDPad,CuDef*%
%ADD27R,1.020000X1.470000*%
%TD*%
%TA.AperFunction,SMDPad,CuDef*%
%ADD28RoundRect,0.500000X0.500000X-1.500000X0.500000X1.500000X-0.500000X1.500000X-0.500000X-1.500000X0*%
%TD*%
%TA.AperFunction,ViaPad*%
%ADD29C,0.800000*%
%TD*%
%TA.AperFunction,Conductor*%
%ADD30C,0.250000*%
%TD*%
%TA.AperFunction,Conductor*%
%ADD31C,1.000000*%
%TD*%
G04 APERTURE END LIST*
D10*
X60710000Y-16060000D03*
X55630000Y-16060000D03*
X53090000Y-16060000D03*
D11*
X75950000Y-15160000D03*
X73410000Y-15160000D03*
X70870000Y-15160000D03*
X68330000Y-15160000D03*
X65790000Y-15160000D03*
X63250000Y-15160000D03*
X60710000Y-15160000D03*
X58170000Y-15160000D03*
X55630000Y-15160000D03*
X53090000Y-15160000D03*
X50550000Y-15160000D03*
D10*
X50550000Y-16060000D03*
D11*
X48010000Y-15160000D03*
D10*
X48010000Y-16060000D03*
D11*
X45470000Y-15160000D03*
X42930000Y-15160000D03*
X40390000Y-15160000D03*
X37850000Y-15160000D03*
X35310000Y-15160000D03*
X32770000Y-15160000D03*
X30230000Y-15160000D03*
X27690000Y-15160000D03*
X27690000Y-34740000D03*
X30230000Y-34740000D03*
X32770000Y-34740000D03*
X35310000Y-34740000D03*
X37850000Y-34740000D03*
X40390000Y-34740000D03*
D10*
X40390000Y-33800000D03*
X42930000Y-33840000D03*
D11*
X42930000Y-34740000D03*
X45470000Y-34740000D03*
X48010000Y-34740000D03*
X50550000Y-34740000D03*
D10*
X53090000Y-33840000D03*
D11*
X53090000Y-34740000D03*
D10*
X55630000Y-33840000D03*
D11*
X55630000Y-34740000D03*
X58170000Y-34740000D03*
X60710000Y-34740000D03*
X63250000Y-34740000D03*
D10*
X65790000Y-33840000D03*
D11*
X65790000Y-34740000D03*
X68330000Y-34740000D03*
X70870000Y-34740000D03*
X73410000Y-34740000D03*
D10*
X75950000Y-33840000D03*
D11*
X75950000Y-34740000D03*
D12*
X27020000Y-22410000D03*
X27020000Y-24950000D03*
X27020000Y-27490000D03*
D13*
X63265000Y-54950000D03*
D14*
X63265000Y-53350000D03*
X59215000Y-53350000D03*
D13*
X59215000Y-54950000D03*
X55785000Y-54950000D03*
D14*
X55785000Y-53350000D03*
X51735000Y-53350000D03*
D13*
X51735000Y-54950000D03*
D15*
X20140000Y-45410000D03*
X20140000Y-47235000D03*
X18120000Y-45385000D03*
X18120000Y-47210000D03*
X70330000Y-45625000D03*
X70330000Y-47450000D03*
X68420000Y-45600000D03*
X68420000Y-47425000D03*
D16*
X60585000Y-42850000D03*
X60585000Y-43350000D03*
X60585000Y-43850000D03*
X60585000Y-44350000D03*
D17*
X61130000Y-44415000D03*
X61630000Y-44415000D03*
D16*
X62175000Y-44350000D03*
X62175000Y-43850000D03*
X62175000Y-43350000D03*
X62175000Y-42850000D03*
D17*
X61630000Y-42785000D03*
X61130000Y-42785000D03*
D18*
X64550000Y-42700000D03*
X64550000Y-44300000D03*
D19*
X16300000Y-19450000D03*
X16300000Y-22450000D03*
X16300000Y-25450000D03*
X16300000Y-28450000D03*
D20*
X19133821Y-50002500D03*
D21*
X21153821Y-50002500D03*
D22*
X22383821Y-50002500D03*
D20*
X20133821Y-50002500D03*
D21*
X18113821Y-50002500D03*
D22*
X16883821Y-50002500D03*
D23*
X15313821Y-50082500D03*
X15313821Y-53882500D03*
X23953821Y-53882500D03*
X23953821Y-50082500D03*
D20*
X71030000Y-50170000D03*
D21*
X73050000Y-50170000D03*
D22*
X74280000Y-50170000D03*
D20*
X72030000Y-50170000D03*
D21*
X70010000Y-50170000D03*
D22*
X68780000Y-50170000D03*
D23*
X67210000Y-50250000D03*
X67210000Y-54050000D03*
X75850000Y-54050000D03*
X75850000Y-50250000D03*
D24*
X46070000Y-48460000D03*
X43530000Y-48460000D03*
X40990000Y-48460000D03*
X34030000Y-48520000D03*
X31490000Y-48520000D03*
X28950000Y-48520000D03*
D25*
X42820000Y-41870000D03*
X42820000Y-40220000D03*
X42820000Y-38570000D03*
X40480000Y-38570000D03*
X40480000Y-40220000D03*
D26*
X40580000Y-41770000D03*
D27*
X41040000Y-44660000D03*
X42640000Y-44660000D03*
D19*
X16210000Y-31210000D03*
X16210000Y-34210000D03*
X16210000Y-37210000D03*
X16210000Y-40210000D03*
D28*
X15400000Y-15560000D03*
X18400000Y-15560000D03*
X21400000Y-15560000D03*
X24400000Y-15560000D03*
D19*
X74820000Y-38310000D03*
X74820000Y-41310000D03*
X74820000Y-44310000D03*
X74820000Y-47310000D03*
D29*
X24480000Y-15630000D03*
X45470000Y-34800000D03*
X16300000Y-28410000D03*
X58190000Y-34690000D03*
X69000000Y-41000000D03*
X69010000Y-31000500D03*
X60050000Y-41740000D03*
X71000000Y-41000000D03*
X71010000Y-31010000D03*
X51900000Y-50770000D03*
X59650000Y-50790000D03*
X59020000Y-41730000D03*
X61050000Y-41750000D03*
D30*
X64550000Y-44970000D02*
X64550000Y-44300000D01*
X62850000Y-46670000D02*
X64550000Y-44970000D01*
X64500000Y-44350000D02*
X64550000Y-44300000D01*
X62175000Y-44350000D02*
X64500000Y-44350000D01*
X63900000Y-43350000D02*
X64550000Y-42700000D01*
X62175000Y-43350000D02*
X63900000Y-43350000D01*
X64845000Y-44300000D02*
X64550000Y-44300000D01*
X65790000Y-43355000D02*
X64845000Y-44300000D01*
X65790000Y-33840000D02*
X65790000Y-43355000D01*
X58170000Y-35450000D02*
X64550000Y-41830000D01*
X58170000Y-33840000D02*
X58170000Y-35450000D01*
X64550000Y-41830000D02*
X64550000Y-42700000D01*
X71030000Y-49735000D02*
X71030000Y-50170000D01*
X68720000Y-47425000D02*
X71030000Y-49735000D01*
X68420000Y-47425000D02*
X68720000Y-47425000D01*
X72030000Y-49180000D02*
X72030000Y-50170000D01*
X71970000Y-49120000D02*
X72030000Y-49180000D01*
X71970000Y-49090000D02*
X71970000Y-49120000D01*
X70330000Y-47450000D02*
X71970000Y-49090000D01*
D31*
X70305000Y-45600000D02*
X70330000Y-45625000D01*
X68420000Y-45600000D02*
X70305000Y-45600000D01*
X15340000Y-45410000D02*
X15313821Y-45436179D01*
X15313821Y-45436179D02*
X15313821Y-50082500D01*
X20140000Y-45410000D02*
X15340000Y-45410000D01*
X15313821Y-41106179D02*
X15313821Y-45436179D01*
D30*
X19133821Y-50002500D02*
X19133821Y-48223821D01*
X19133821Y-48223821D02*
X18120000Y-47210000D01*
X20133821Y-47241179D02*
X20140000Y-47235000D01*
X20133821Y-50002500D02*
X20133821Y-47241179D01*
D31*
X23953821Y-50082500D02*
X22463821Y-50082500D01*
X74360000Y-50250000D02*
X74280000Y-50170000D01*
X15313821Y-50082500D02*
X16803821Y-50082500D01*
X42820000Y-41870000D02*
X42820000Y-38570000D01*
X42640000Y-44660000D02*
X42640000Y-42050000D01*
X63265000Y-54950000D02*
X51735000Y-54950000D01*
X67900000Y-40544365D02*
X67900000Y-42790000D01*
X16803821Y-50082500D02*
X16883821Y-50002500D01*
X74820000Y-49220000D02*
X75850000Y-50250000D01*
X75850000Y-50250000D02*
X74360000Y-50250000D01*
X42640000Y-42050000D02*
X42820000Y-41870000D01*
X32770000Y-33840000D02*
X32990000Y-34060000D01*
X70870000Y-37574365D02*
X67900000Y-40544365D01*
X66310000Y-54950000D02*
X63265000Y-54950000D01*
X67210000Y-50250000D02*
X68700000Y-50250000D01*
X16210000Y-40210000D02*
X15313821Y-41106179D01*
X70870000Y-33840000D02*
X70870000Y-37574365D01*
X74800000Y-47330000D02*
X74820000Y-47310000D01*
X67900000Y-42790000D02*
X72440000Y-47330000D01*
X45470000Y-34800000D02*
X45470000Y-35920000D01*
X74820000Y-47310000D02*
X74820000Y-49220000D01*
X72440000Y-47330000D02*
X74800000Y-47330000D01*
X22463821Y-50082500D02*
X22383821Y-50002500D01*
X32640000Y-40210000D02*
X16210000Y-40210000D01*
X68700000Y-50250000D02*
X68780000Y-50170000D01*
X32990000Y-34060000D02*
X32990000Y-39860000D01*
X45470000Y-35920000D02*
X42820000Y-38570000D01*
X45470000Y-33840000D02*
X45470000Y-34800000D01*
X32990000Y-39860000D02*
X32640000Y-40210000D01*
X67210000Y-54050000D02*
X66310000Y-54950000D01*
D30*
X58170000Y-36150000D02*
X58170000Y-33840000D01*
X24320000Y-37210000D02*
X27690000Y-33840000D01*
X16210000Y-37210000D02*
X24320000Y-37210000D01*
X38150000Y-31000000D02*
X35310000Y-33840000D01*
X72310000Y-44310000D02*
X69000000Y-41000000D01*
X74820000Y-44310000D02*
X72310000Y-44310000D01*
X69000000Y-31000000D02*
X38150000Y-31000000D01*
X40480000Y-40220000D02*
X39700000Y-39440000D01*
X39700000Y-39440000D02*
X39700000Y-34490000D01*
X39700000Y-34490000D02*
X40390000Y-33800000D01*
X42930000Y-36120000D02*
X42930000Y-33840000D01*
X40480000Y-38570000D02*
X42930000Y-36120000D01*
D31*
X15400000Y-18550000D02*
X16300000Y-19450000D01*
X15400000Y-15560000D02*
X15400000Y-18550000D01*
D30*
X40990000Y-48460000D02*
X40990000Y-44710000D01*
X28950000Y-48520000D02*
X30900000Y-50470000D01*
X40990000Y-44710000D02*
X41040000Y-44660000D01*
X30376174Y-47093826D02*
X39623826Y-47093826D01*
X50177500Y-50470000D02*
X53977500Y-46670000D01*
X40580000Y-44200000D02*
X41040000Y-44660000D01*
X30900000Y-50470000D02*
X50177500Y-50470000D01*
X40580000Y-41770000D02*
X40580000Y-44200000D01*
X28950000Y-48520000D02*
X30376174Y-47093826D01*
X53977500Y-46670000D02*
X62850000Y-46670000D01*
X39623826Y-47093826D02*
X40990000Y-48460000D01*
X31490000Y-48520000D02*
X32990000Y-50020000D01*
X32990000Y-50020000D02*
X47780000Y-50020000D01*
X47780000Y-50020000D02*
X55630000Y-42170000D01*
X55630000Y-42170000D02*
X55630000Y-33840000D01*
X43530000Y-48460000D02*
X53090000Y-38900000D01*
X53090000Y-38900000D02*
X53090000Y-33840000D01*
X60050000Y-43310000D02*
X60050000Y-41740000D01*
X60090000Y-43350000D02*
X60050000Y-43310000D01*
X60585000Y-43350000D02*
X60090000Y-43350000D01*
X23920000Y-20890000D02*
X38146396Y-20890000D01*
X16300000Y-25450000D02*
X19360000Y-25450000D01*
X38146396Y-20890000D02*
X42930000Y-16106396D01*
X42930000Y-16106396D02*
X42930000Y-16060000D01*
X19360000Y-25450000D02*
X23920000Y-20890000D01*
X40390000Y-18010000D02*
X40390000Y-16060000D01*
X37960000Y-20440000D02*
X40390000Y-18010000D01*
X21370000Y-22450000D02*
X23380000Y-20440000D01*
X16300000Y-22450000D02*
X21370000Y-22450000D01*
X23380000Y-20440000D02*
X37960000Y-20440000D01*
X23558274Y-17885000D02*
X36025000Y-17885000D01*
X36025000Y-17885000D02*
X37850000Y-16060000D01*
X21400000Y-15726726D02*
X23558274Y-17885000D01*
X21400000Y-15560000D02*
X21400000Y-15726726D01*
X18400000Y-15560000D02*
X18400000Y-14760000D01*
X34580000Y-13070000D02*
X35310000Y-13800000D01*
X20090000Y-13070000D02*
X34580000Y-13070000D01*
X18400000Y-14760000D02*
X20090000Y-13070000D01*
X35310000Y-13800000D02*
X35310000Y-16060000D01*
X28400000Y-32010000D02*
X30230000Y-33840000D01*
X16210000Y-34210000D02*
X20000000Y-34210000D01*
X20000000Y-34210000D02*
X22200000Y-32010000D01*
X22200000Y-32010000D02*
X28400000Y-32010000D01*
X70275000Y-31725000D02*
X39965000Y-31725000D01*
X71310000Y-41310000D02*
X71000000Y-41000000D01*
X71000000Y-31000000D02*
X70275000Y-31725000D01*
X74820000Y-41310000D02*
X71310000Y-41310000D01*
X39965000Y-31725000D02*
X37850000Y-33840000D01*
X55785000Y-53350000D02*
X54480000Y-53350000D01*
X54480000Y-53350000D02*
X51900000Y-50770000D01*
X59650000Y-50790000D02*
X62210000Y-53350000D01*
X62210000Y-53350000D02*
X63265000Y-53350000D01*
X61130000Y-44840000D02*
X61140000Y-44850000D01*
X61140000Y-44850000D02*
X60080000Y-44850000D01*
X60080000Y-44850000D02*
X59020000Y-43790000D01*
X59020000Y-43790000D02*
X59020000Y-41730000D01*
X61130000Y-44415000D02*
X61130000Y-44840000D01*
X61130000Y-42785000D02*
X61130000Y-41830000D01*
X61130000Y-41830000D02*
X61050000Y-41750000D01*
%TA.AperFunction,Conductor*%
G36*
X77202204Y-13080102D02*
G01*
X77248790Y-13133677D01*
X77260267Y-13185949D01*
X77277330Y-21249500D01*
X77301092Y-32478505D01*
X77281234Y-32546668D01*
X77227677Y-32593275D01*
X77157424Y-32603527D01*
X77099527Y-32579598D01*
X77053648Y-32545214D01*
X77038054Y-32536676D01*
X76917606Y-32491522D01*
X76902351Y-32487895D01*
X76851486Y-32482369D01*
X76844672Y-32482000D01*
X76222115Y-32482000D01*
X76206876Y-32486475D01*
X76205671Y-32487865D01*
X76204000Y-32495548D01*
X76204000Y-35112000D01*
X76183998Y-35180121D01*
X76130342Y-35226614D01*
X76078000Y-35238000D01*
X75822000Y-35238000D01*
X75753879Y-35217998D01*
X75707386Y-35164342D01*
X75696000Y-35112000D01*
X75696000Y-32500116D01*
X75691525Y-32484877D01*
X75690135Y-32483672D01*
X75682452Y-32482001D01*
X75055331Y-32482001D01*
X75048510Y-32482371D01*
X74997648Y-32487895D01*
X74982396Y-32491521D01*
X74861946Y-32536676D01*
X74846351Y-32545214D01*
X74744276Y-32621715D01*
X74731715Y-32634276D01*
X74655214Y-32736351D01*
X74646676Y-32751946D01*
X74622925Y-32815301D01*
X74580283Y-32872065D01*
X74513722Y-32896765D01*
X74444373Y-32881557D01*
X74415848Y-32860166D01*
X74411443Y-32855761D01*
X74404552Y-32845448D01*
X74338231Y-32801133D01*
X74326062Y-32798712D01*
X74326061Y-32798712D01*
X74285816Y-32790707D01*
X74279748Y-32789500D01*
X72540252Y-32789500D01*
X72534184Y-32790707D01*
X72493939Y-32798712D01*
X72493938Y-32798712D01*
X72481769Y-32801133D01*
X72415448Y-32845448D01*
X72408557Y-32855761D01*
X72381159Y-32896765D01*
X72371133Y-32911769D01*
X72359500Y-32970252D01*
X72359500Y-36509748D01*
X72360707Y-36515816D01*
X72368712Y-36556058D01*
X72371133Y-36568231D01*
X72415448Y-36634552D01*
X72481769Y-36678867D01*
X72493938Y-36681288D01*
X72493939Y-36681288D01*
X72534184Y-36689293D01*
X72540252Y-36690500D01*
X72765511Y-36690500D01*
X72833632Y-36710502D01*
X72880125Y-36764158D01*
X72890229Y-36834432D01*
X72860735Y-36899012D01*
X72835604Y-36921204D01*
X72682221Y-37023885D01*
X72672734Y-37031678D01*
X72541678Y-37162734D01*
X72533885Y-37172221D01*
X72430778Y-37326241D01*
X72424978Y-37337057D01*
X72353752Y-37508167D01*
X72350162Y-37519909D01*
X72313233Y-37703055D01*
X72312077Y-37712267D01*
X72312000Y-37715319D01*
X72312000Y-38037885D01*
X72316475Y-38053124D01*
X72317865Y-38054329D01*
X72325548Y-38056000D01*
X74948000Y-38056000D01*
X75016121Y-38076002D01*
X75062614Y-38129658D01*
X75074000Y-38182000D01*
X75074000Y-39799885D01*
X75078475Y-39815124D01*
X75079865Y-39816329D01*
X75087548Y-39818000D01*
X76414681Y-39818000D01*
X76417733Y-39817923D01*
X76426945Y-39816767D01*
X76610091Y-39779838D01*
X76621833Y-39776248D01*
X76792943Y-39705022D01*
X76803759Y-39699222D01*
X76957779Y-39596115D01*
X76967266Y-39588322D01*
X77100948Y-39454640D01*
X77163260Y-39420614D01*
X77234075Y-39425679D01*
X77290911Y-39468226D01*
X77315722Y-39534746D01*
X77316043Y-39543468D01*
X77349733Y-55463892D01*
X77329875Y-55532055D01*
X77276318Y-55578662D01*
X77223894Y-55590159D01*
X72425545Y-55596195D01*
X66951924Y-55603081D01*
X66883778Y-55583165D01*
X66837217Y-55529567D01*
X66827025Y-55459306D01*
X66856437Y-55394688D01*
X66862670Y-55387986D01*
X66963329Y-55287327D01*
X67025641Y-55253301D01*
X67057371Y-55250519D01*
X67091668Y-55251866D01*
X67273361Y-55259005D01*
X67382992Y-55243109D01*
X67486910Y-55228042D01*
X67486915Y-55228041D01*
X67492624Y-55227213D01*
X67498088Y-55225358D01*
X67498093Y-55225357D01*
X67696953Y-55157853D01*
X67702421Y-55155997D01*
X67895728Y-55047740D01*
X68066069Y-54906069D01*
X68207740Y-54735728D01*
X68315997Y-54542421D01*
X68336308Y-54482586D01*
X68385357Y-54338093D01*
X68385358Y-54338088D01*
X68387213Y-54332624D01*
X68393883Y-54286628D01*
X68418472Y-54117035D01*
X68419005Y-54113361D01*
X68420664Y-54050000D01*
X68417752Y-54018309D01*
X74639751Y-54018309D01*
X74654241Y-54239390D01*
X74655662Y-54244986D01*
X74655663Y-54244991D01*
X74707357Y-54448533D01*
X74708778Y-54454128D01*
X74801534Y-54655332D01*
X74804865Y-54660045D01*
X74804866Y-54660047D01*
X74922554Y-54826570D01*
X74929404Y-54836263D01*
X75088104Y-54990863D01*
X75092900Y-54994068D01*
X75092903Y-54994070D01*
X75154437Y-55035185D01*
X75272321Y-55113952D01*
X75277624Y-55116230D01*
X75277627Y-55116232D01*
X75470577Y-55199130D01*
X75475884Y-55201410D01*
X75555913Y-55219519D01*
X75686340Y-55249032D01*
X75686346Y-55249033D01*
X75691977Y-55250307D01*
X75697748Y-55250534D01*
X75697750Y-55250534D01*
X75766085Y-55253219D01*
X75913361Y-55259005D01*
X76022992Y-55243109D01*
X76126910Y-55228042D01*
X76126915Y-55228041D01*
X76132624Y-55227213D01*
X76138088Y-55225358D01*
X76138093Y-55225357D01*
X76336953Y-55157853D01*
X76342421Y-55155997D01*
X76535728Y-55047740D01*
X76706069Y-54906069D01*
X76847740Y-54735728D01*
X76955997Y-54542421D01*
X76976308Y-54482586D01*
X77025357Y-54338093D01*
X77025358Y-54338088D01*
X77027213Y-54332624D01*
X77033883Y-54286628D01*
X77058472Y-54117035D01*
X77059005Y-54113361D01*
X77060664Y-54050000D01*
X77040391Y-53829374D01*
X76980252Y-53616137D01*
X76882261Y-53417430D01*
X76749699Y-53239908D01*
X76587006Y-53089516D01*
X76567220Y-53077032D01*
X76404510Y-52974369D01*
X76404509Y-52974369D01*
X76399630Y-52971290D01*
X76193847Y-52889191D01*
X76188187Y-52888065D01*
X76188183Y-52888064D01*
X75982216Y-52847095D01*
X75982214Y-52847095D01*
X75976549Y-52845968D01*
X75970774Y-52845892D01*
X75970770Y-52845892D01*
X75859557Y-52844437D01*
X75755012Y-52843068D01*
X75749315Y-52844047D01*
X75749314Y-52844047D01*
X75542354Y-52879609D01*
X75536657Y-52880588D01*
X75328796Y-52957272D01*
X75323835Y-52960224D01*
X75323834Y-52960224D01*
X75300059Y-52974369D01*
X75138390Y-53070552D01*
X74971815Y-53216634D01*
X74834652Y-53390625D01*
X74831963Y-53395736D01*
X74831961Y-53395739D01*
X74822310Y-53414083D01*
X74731492Y-53586699D01*
X74665792Y-53798289D01*
X74639751Y-54018309D01*
X68417752Y-54018309D01*
X68400391Y-53829374D01*
X68340252Y-53616137D01*
X68242261Y-53417430D01*
X68109699Y-53239908D01*
X67947006Y-53089516D01*
X67927220Y-53077032D01*
X67764510Y-52974369D01*
X67764509Y-52974369D01*
X67759630Y-52971290D01*
X67553847Y-52889191D01*
X67548187Y-52888065D01*
X67548183Y-52888064D01*
X67342216Y-52847095D01*
X67342214Y-52847095D01*
X67336549Y-52845968D01*
X67330774Y-52845892D01*
X67330770Y-52845892D01*
X67219557Y-52844437D01*
X67115012Y-52843068D01*
X67109315Y-52844047D01*
X67109314Y-52844047D01*
X66902354Y-52879609D01*
X66896657Y-52880588D01*
X66688796Y-52957272D01*
X66683835Y-52960224D01*
X66683834Y-52960224D01*
X66660059Y-52974369D01*
X66498390Y-53070552D01*
X66331815Y-53216634D01*
X66194652Y-53390625D01*
X66191963Y-53395736D01*
X66191961Y-53395739D01*
X66182310Y-53414083D01*
X66091492Y-53586699D01*
X66025792Y-53798289D01*
X65999751Y-54018309D01*
X66000129Y-54024075D01*
X66000129Y-54024076D01*
X66006105Y-54115260D01*
X65990601Y-54184543D01*
X65940101Y-54234445D01*
X65880375Y-54249500D01*
X64461750Y-54249500D01*
X64393629Y-54229498D01*
X64347136Y-54175842D01*
X64337032Y-54105568D01*
X64356984Y-54053499D01*
X64366973Y-54038549D01*
X64366974Y-54038547D01*
X64373867Y-54028231D01*
X64376982Y-54012574D01*
X64384293Y-53975816D01*
X64385500Y-53969748D01*
X64385500Y-52730252D01*
X64373867Y-52671769D01*
X64329552Y-52605448D01*
X64263231Y-52561133D01*
X64251062Y-52558712D01*
X64251061Y-52558712D01*
X64210816Y-52550707D01*
X64204748Y-52549500D01*
X62325252Y-52549500D01*
X62319184Y-52550707D01*
X62278939Y-52558712D01*
X62278938Y-52558712D01*
X62266769Y-52561133D01*
X62200448Y-52605448D01*
X62193557Y-52615761D01*
X62193555Y-52615763D01*
X62175724Y-52642448D01*
X62121246Y-52687975D01*
X62050803Y-52696821D01*
X61981865Y-52661539D01*
X60282709Y-50962383D01*
X60248683Y-50900071D01*
X60246882Y-50856842D01*
X60247772Y-50850086D01*
X60255682Y-50790000D01*
X60235044Y-50633238D01*
X60174536Y-50487159D01*
X60087671Y-50373954D01*
X60083305Y-50368264D01*
X60078282Y-50361718D01*
X59952841Y-50265464D01*
X59838999Y-50218309D01*
X65999751Y-50218309D01*
X66014241Y-50439390D01*
X66015662Y-50444986D01*
X66015663Y-50444991D01*
X66065552Y-50641426D01*
X66068778Y-50654128D01*
X66161534Y-50855332D01*
X66164865Y-50860045D01*
X66164866Y-50860047D01*
X66286070Y-51031545D01*
X66289404Y-51036263D01*
X66448104Y-51190863D01*
X66452900Y-51194068D01*
X66452903Y-51194070D01*
X66514437Y-51235185D01*
X66632321Y-51313952D01*
X66637624Y-51316230D01*
X66637627Y-51316232D01*
X66822552Y-51395682D01*
X66835884Y-51401410D01*
X66915913Y-51419519D01*
X67046340Y-51449032D01*
X67046346Y-51449033D01*
X67051977Y-51450307D01*
X67057748Y-51450534D01*
X67057750Y-51450534D01*
X67126085Y-51453219D01*
X67273361Y-51459005D01*
X67382992Y-51443109D01*
X67486910Y-51428042D01*
X67486915Y-51428041D01*
X67492624Y-51427213D01*
X67498088Y-51425358D01*
X67498093Y-51425357D01*
X67655619Y-51371884D01*
X67702421Y-51355997D01*
X67895728Y-51247740D01*
X68066069Y-51106069D01*
X68088256Y-51079392D01*
X68157670Y-50995931D01*
X68216608Y-50956347D01*
X68254544Y-50950500D01*
X68262833Y-50950500D01*
X68300443Y-50957981D01*
X68301769Y-50958867D01*
X68360252Y-50970500D01*
X69082354Y-50970500D01*
X69150475Y-50990502D01*
X69183180Y-51020935D01*
X69261715Y-51125724D01*
X69274276Y-51138285D01*
X69376351Y-51214786D01*
X69391946Y-51223324D01*
X69512394Y-51268478D01*
X69527649Y-51272105D01*
X69578514Y-51277631D01*
X69585328Y-51278000D01*
X69737885Y-51278000D01*
X69753124Y-51273525D01*
X69754329Y-51272135D01*
X69756000Y-51264452D01*
X69756000Y-50042000D01*
X69776002Y-49973879D01*
X69829658Y-49927386D01*
X69882000Y-49916000D01*
X70138000Y-49916000D01*
X70206121Y-49936002D01*
X70252614Y-49989658D01*
X70264000Y-50042000D01*
X70264000Y-51259884D01*
X70268475Y-51275123D01*
X70269865Y-51276328D01*
X70277548Y-51277999D01*
X70434669Y-51277999D01*
X70441490Y-51277629D01*
X70492352Y-51272105D01*
X70507604Y-51268479D01*
X70628054Y-51223324D01*
X70643649Y-51214786D01*
X70745724Y-51138285D01*
X70758285Y-51125724D01*
X70836820Y-51020935D01*
X70893679Y-50978420D01*
X70937646Y-50970500D01*
X71399748Y-50970500D01*
X71405816Y-50969293D01*
X71446061Y-50961288D01*
X71446062Y-50961288D01*
X71458231Y-50958867D01*
X71468547Y-50951974D01*
X71480017Y-50947223D01*
X71481555Y-50950937D01*
X71527751Y-50936472D01*
X71578289Y-50951312D01*
X71579983Y-50947223D01*
X71591453Y-50951974D01*
X71601769Y-50958867D01*
X71613938Y-50961288D01*
X71613939Y-50961288D01*
X71654184Y-50969293D01*
X71660252Y-50970500D01*
X72122354Y-50970500D01*
X72190475Y-50990502D01*
X72223180Y-51020935D01*
X72301715Y-51125724D01*
X72314276Y-51138285D01*
X72416351Y-51214786D01*
X72431946Y-51223324D01*
X72552394Y-51268478D01*
X72567649Y-51272105D01*
X72618514Y-51277631D01*
X72625328Y-51278000D01*
X72777885Y-51278000D01*
X72793124Y-51273525D01*
X72794329Y-51272135D01*
X72796000Y-51264452D01*
X72796000Y-49080116D01*
X72791525Y-49064877D01*
X72790135Y-49063672D01*
X72782452Y-49062001D01*
X72625331Y-49062001D01*
X72618510Y-49062371D01*
X72567648Y-49067895D01*
X72552397Y-49071521D01*
X72482458Y-49097740D01*
X72411651Y-49102923D01*
X72349282Y-49069002D01*
X72329797Y-49041224D01*
X72329554Y-49040316D01*
X72307945Y-49009456D01*
X72302039Y-49000185D01*
X72288707Y-48977094D01*
X72283194Y-48967545D01*
X72277264Y-48962569D01*
X72269624Y-48950576D01*
X72269554Y-48950316D01*
X72247940Y-48919448D01*
X72242036Y-48910179D01*
X72228707Y-48887092D01*
X72228704Y-48887088D01*
X72223194Y-48877545D01*
X72194324Y-48853320D01*
X72186221Y-48845894D01*
X71259418Y-47919091D01*
X71225392Y-47856779D01*
X71225439Y-47803791D01*
X71227519Y-47797869D01*
X71230500Y-47766334D01*
X71230500Y-47415347D01*
X71250502Y-47347226D01*
X71304158Y-47300733D01*
X71374432Y-47290629D01*
X71439012Y-47320123D01*
X71445595Y-47326252D01*
X71924418Y-47805075D01*
X71930271Y-47811340D01*
X71967831Y-47854396D01*
X72019473Y-47890690D01*
X72024758Y-47894616D01*
X72068476Y-47928895D01*
X72068480Y-47928897D01*
X72074457Y-47933584D01*
X72081380Y-47936710D01*
X72084328Y-47938495D01*
X72097288Y-47945887D01*
X72100334Y-47947520D01*
X72106547Y-47951887D01*
X72125781Y-47959386D01*
X72165366Y-47974820D01*
X72171445Y-47977375D01*
X72228984Y-48003355D01*
X72236455Y-48004740D01*
X72239723Y-48005764D01*
X72254164Y-48009877D01*
X72257437Y-48010717D01*
X72264513Y-48013476D01*
X72309183Y-48019356D01*
X72327106Y-48021716D01*
X72333623Y-48022748D01*
X72375035Y-48030423D01*
X72395692Y-48034252D01*
X72403272Y-48033815D01*
X72403273Y-48033815D01*
X72457145Y-48030709D01*
X72464397Y-48030500D01*
X72564964Y-48030500D01*
X72633085Y-48050502D01*
X72676378Y-48100683D01*
X72676873Y-48100383D01*
X72680808Y-48106880D01*
X72680810Y-48106884D01*
X72714795Y-48163000D01*
X72764703Y-48245408D01*
X72884592Y-48365297D01*
X73029617Y-48453127D01*
X73036864Y-48455398D01*
X73036866Y-48455399D01*
X73102106Y-48475844D01*
X73191406Y-48503829D01*
X73264007Y-48510500D01*
X73993500Y-48510500D01*
X74061621Y-48530502D01*
X74108114Y-48584158D01*
X74119500Y-48636500D01*
X74119500Y-49191359D01*
X74119208Y-49199930D01*
X74115653Y-49252071D01*
X74091064Y-49318673D01*
X74034370Y-49361409D01*
X73989945Y-49369500D01*
X73977646Y-49369500D01*
X73909525Y-49349498D01*
X73876820Y-49319065D01*
X73798285Y-49214276D01*
X73785724Y-49201715D01*
X73683649Y-49125214D01*
X73668054Y-49116676D01*
X73547606Y-49071522D01*
X73532351Y-49067895D01*
X73481486Y-49062369D01*
X73474672Y-49062000D01*
X73322115Y-49062000D01*
X73306876Y-49066475D01*
X73305671Y-49067865D01*
X73304000Y-49075548D01*
X73304000Y-51259884D01*
X73308475Y-51275123D01*
X73309865Y-51276328D01*
X73317548Y-51277999D01*
X73474669Y-51277999D01*
X73481490Y-51277629D01*
X73532352Y-51272105D01*
X73547604Y-51268479D01*
X73668054Y-51223324D01*
X73683649Y-51214786D01*
X73785724Y-51138285D01*
X73798285Y-51125724D01*
X73876820Y-51020935D01*
X73933679Y-50978420D01*
X73977646Y-50970500D01*
X74699748Y-50970500D01*
X74758231Y-50958867D01*
X74759557Y-50957981D01*
X74797167Y-50950500D01*
X74803550Y-50950500D01*
X74871671Y-50970502D01*
X74906445Y-51003777D01*
X74929404Y-51036263D01*
X75088104Y-51190863D01*
X75092900Y-51194068D01*
X75092903Y-51194070D01*
X75154437Y-51235185D01*
X75272321Y-51313952D01*
X75277624Y-51316230D01*
X75277627Y-51316232D01*
X75462552Y-51395682D01*
X75475884Y-51401410D01*
X75555913Y-51419519D01*
X75686340Y-51449032D01*
X75686346Y-51449033D01*
X75691977Y-51450307D01*
X75697748Y-51450534D01*
X75697750Y-51450534D01*
X75766085Y-51453219D01*
X75913361Y-51459005D01*
X76022992Y-51443109D01*
X76126910Y-51428042D01*
X76126915Y-51428041D01*
X76132624Y-51427213D01*
X76138088Y-51425358D01*
X76138093Y-51425357D01*
X76295619Y-51371884D01*
X76342421Y-51355997D01*
X76535728Y-51247740D01*
X76706069Y-51106069D01*
X76847740Y-50935728D01*
X76955997Y-50742421D01*
X76976938Y-50680731D01*
X77025357Y-50538093D01*
X77025358Y-50538088D01*
X77027213Y-50532624D01*
X77033806Y-50487159D01*
X77054893Y-50341718D01*
X77059005Y-50313361D01*
X77060664Y-50250000D01*
X77040391Y-50029374D01*
X76980252Y-49816137D01*
X76882261Y-49617430D01*
X76788426Y-49491769D01*
X76753152Y-49444532D01*
X76753151Y-49444531D01*
X76749699Y-49439908D01*
X76616940Y-49317187D01*
X76591247Y-49293436D01*
X76591245Y-49293434D01*
X76587006Y-49289516D01*
X76570937Y-49279377D01*
X76404510Y-49174369D01*
X76404509Y-49174369D01*
X76399630Y-49171290D01*
X76193847Y-49089191D01*
X76188187Y-49088065D01*
X76188183Y-49088064D01*
X75982216Y-49047095D01*
X75982214Y-49047095D01*
X75976549Y-49045968D01*
X75970774Y-49045892D01*
X75970770Y-49045892D01*
X75859557Y-49044437D01*
X75755012Y-49043068D01*
X75749317Y-49044047D01*
X75749312Y-49044047D01*
X75715808Y-49049804D01*
X75645284Y-49041627D01*
X75605376Y-49014719D01*
X75557405Y-48966748D01*
X75523379Y-48904436D01*
X75520500Y-48877653D01*
X75520500Y-48636499D01*
X75540502Y-48568378D01*
X75594158Y-48521885D01*
X75646500Y-48510499D01*
X76375992Y-48510499D01*
X76378850Y-48510236D01*
X76378859Y-48510236D01*
X76414243Y-48506985D01*
X76448594Y-48503829D01*
X76454979Y-48501828D01*
X76603134Y-48455399D01*
X76603136Y-48455398D01*
X76610383Y-48453127D01*
X76755408Y-48365297D01*
X76875297Y-48245408D01*
X76963127Y-48100383D01*
X76969830Y-48078996D01*
X76998134Y-47988675D01*
X77013829Y-47938594D01*
X77020500Y-47865993D01*
X77020499Y-46754008D01*
X77019211Y-46739981D01*
X77014440Y-46688060D01*
X77013829Y-46681406D01*
X76976632Y-46562711D01*
X76965399Y-46526866D01*
X76965398Y-46526864D01*
X76963127Y-46519617D01*
X76875297Y-46374592D01*
X76755408Y-46254703D01*
X76610383Y-46166873D01*
X76603136Y-46164602D01*
X76603134Y-46164601D01*
X76537894Y-46144156D01*
X76448594Y-46116171D01*
X76375993Y-46109500D01*
X76373095Y-46109500D01*
X74815963Y-46109501D01*
X73264008Y-46109501D01*
X73261150Y-46109764D01*
X73261141Y-46109764D01*
X73225757Y-46113015D01*
X73191406Y-46116171D01*
X73185028Y-46118170D01*
X73185027Y-46118170D01*
X73036866Y-46164601D01*
X73036864Y-46164602D01*
X73029617Y-46166873D01*
X72884592Y-46254703D01*
X72764703Y-46374592D01*
X72760766Y-46381093D01*
X72738768Y-46417416D01*
X72686371Y-46465323D01*
X72616391Y-46477296D01*
X72551047Y-46449535D01*
X72541897Y-46441240D01*
X68637405Y-42536748D01*
X68603379Y-42474436D01*
X68600500Y-42447653D01*
X68600500Y-41673071D01*
X68620502Y-41604950D01*
X68674158Y-41558457D01*
X68744432Y-41548353D01*
X68774718Y-41556662D01*
X68826986Y-41578312D01*
X68843238Y-41585044D01*
X69000000Y-41605682D01*
X69066843Y-41596882D01*
X69136990Y-41607821D01*
X69172383Y-41632709D01*
X72065889Y-44526215D01*
X72073316Y-44534319D01*
X72097545Y-44563194D01*
X72107094Y-44568707D01*
X72130185Y-44582039D01*
X72139456Y-44587945D01*
X72170316Y-44609554D01*
X72180966Y-44612408D01*
X72184134Y-44613885D01*
X72187410Y-44615077D01*
X72196955Y-44620588D01*
X72230699Y-44626538D01*
X72234058Y-44627130D01*
X72244785Y-44629508D01*
X72281193Y-44639264D01*
X72292178Y-44638303D01*
X72292180Y-44638303D01*
X72318728Y-44635980D01*
X72329710Y-44635500D01*
X72493501Y-44635500D01*
X72561622Y-44655502D01*
X72608115Y-44709158D01*
X72619501Y-44761500D01*
X72619501Y-44865992D01*
X72619764Y-44868850D01*
X72619764Y-44868859D01*
X72621544Y-44888231D01*
X72626171Y-44938594D01*
X72628170Y-44944972D01*
X72628170Y-44944973D01*
X72674314Y-45092216D01*
X72676873Y-45100383D01*
X72764703Y-45245408D01*
X72884592Y-45365297D01*
X73029617Y-45453127D01*
X73036864Y-45455398D01*
X73036866Y-45455399D01*
X73053383Y-45460575D01*
X73191406Y-45503829D01*
X73264007Y-45510500D01*
X73266905Y-45510500D01*
X74824037Y-45510499D01*
X76375992Y-45510499D01*
X76378850Y-45510236D01*
X76378859Y-45510236D01*
X76414243Y-45506985D01*
X76448594Y-45503829D01*
X76454979Y-45501828D01*
X76603134Y-45455399D01*
X76603136Y-45455398D01*
X76610383Y-45453127D01*
X76755408Y-45365297D01*
X76875297Y-45245408D01*
X76963127Y-45100383D01*
X76965687Y-45092216D01*
X76991673Y-45009293D01*
X77013829Y-44938594D01*
X77020500Y-44865993D01*
X77020499Y-43754008D01*
X77020234Y-43751116D01*
X77014809Y-43692078D01*
X77013829Y-43681406D01*
X77009356Y-43667133D01*
X76965399Y-43526866D01*
X76965398Y-43526864D01*
X76963127Y-43519617D01*
X76875297Y-43374592D01*
X76755408Y-43254703D01*
X76610383Y-43166873D01*
X76603136Y-43164602D01*
X76603134Y-43164601D01*
X76522395Y-43139299D01*
X76448594Y-43116171D01*
X76375993Y-43109500D01*
X76373095Y-43109500D01*
X74815963Y-43109501D01*
X73264008Y-43109501D01*
X73261150Y-43109764D01*
X73261141Y-43109764D01*
X73225757Y-43113015D01*
X73191406Y-43116171D01*
X73185028Y-43118170D01*
X73185027Y-43118170D01*
X73036866Y-43164601D01*
X73036864Y-43164602D01*
X73029617Y-43166873D01*
X72884592Y-43254703D01*
X72764703Y-43374592D01*
X72676873Y-43519617D01*
X72626171Y-43681406D01*
X72619500Y-43754007D01*
X72619500Y-43854984D01*
X72599498Y-43923105D01*
X72545842Y-43969598D01*
X72475568Y-43979702D01*
X72410988Y-43950208D01*
X72404405Y-43944079D01*
X69632709Y-41172383D01*
X69598683Y-41110071D01*
X69596882Y-41066842D01*
X69604604Y-41008188D01*
X69605682Y-41000000D01*
X70394318Y-41000000D01*
X70395396Y-41008188D01*
X70408878Y-41110591D01*
X70414956Y-41156762D01*
X70475464Y-41302841D01*
X70480491Y-41309392D01*
X70565830Y-41420608D01*
X70571718Y-41428282D01*
X70697159Y-41524536D01*
X70843238Y-41585044D01*
X71000000Y-41605682D01*
X71093464Y-41593377D01*
X71162360Y-41603983D01*
X71170316Y-41609554D01*
X71180962Y-41612407D01*
X71184125Y-41613882D01*
X71187410Y-41615078D01*
X71196955Y-41620588D01*
X71234076Y-41627134D01*
X71244783Y-41629508D01*
X71281193Y-41639263D01*
X71292168Y-41638303D01*
X71292170Y-41638303D01*
X71318731Y-41635979D01*
X71329712Y-41635500D01*
X72493501Y-41635500D01*
X72561622Y-41655502D01*
X72608115Y-41709158D01*
X72619501Y-41761500D01*
X72619501Y-41865992D01*
X72619764Y-41868850D01*
X72619764Y-41868859D01*
X72622494Y-41898574D01*
X72626171Y-41938594D01*
X72628170Y-41944972D01*
X72628170Y-41944973D01*
X72672975Y-42087943D01*
X72676873Y-42100383D01*
X72764703Y-42245408D01*
X72884592Y-42365297D01*
X73029617Y-42453127D01*
X73036864Y-42455398D01*
X73036866Y-42455399D01*
X73097614Y-42474436D01*
X73191406Y-42503829D01*
X73264007Y-42510500D01*
X73266905Y-42510500D01*
X74824037Y-42510499D01*
X76375992Y-42510499D01*
X76378850Y-42510236D01*
X76378859Y-42510236D01*
X76414243Y-42506985D01*
X76448594Y-42503829D01*
X76454979Y-42501828D01*
X76603134Y-42455399D01*
X76603136Y-42455398D01*
X76610383Y-42453127D01*
X76755408Y-42365297D01*
X76875297Y-42245408D01*
X76963127Y-42100383D01*
X76967026Y-42087943D01*
X76992070Y-42008026D01*
X77013829Y-41938594D01*
X77020500Y-41865993D01*
X77020499Y-40754008D01*
X77020234Y-40751116D01*
X77014440Y-40688060D01*
X77013829Y-40681406D01*
X77009299Y-40666951D01*
X76965399Y-40526866D01*
X76965398Y-40526864D01*
X76963127Y-40519617D01*
X76875297Y-40374592D01*
X76755408Y-40254703D01*
X76610383Y-40166873D01*
X76603136Y-40164602D01*
X76603134Y-40164601D01*
X76507509Y-40134634D01*
X76448594Y-40116171D01*
X76375993Y-40109500D01*
X76373095Y-40109500D01*
X74815963Y-40109501D01*
X73264008Y-40109501D01*
X73261150Y-40109764D01*
X73261141Y-40109764D01*
X73225757Y-40113015D01*
X73191406Y-40116171D01*
X73185028Y-40118170D01*
X73185027Y-40118170D01*
X73036866Y-40164601D01*
X73036864Y-40164602D01*
X73029617Y-40166873D01*
X72884592Y-40254703D01*
X72764703Y-40374592D01*
X72676873Y-40519617D01*
X72674602Y-40526864D01*
X72674601Y-40526866D01*
X72661472Y-40568761D01*
X72626171Y-40681406D01*
X72619500Y-40754007D01*
X72619500Y-40858500D01*
X72599498Y-40926621D01*
X72545842Y-40973114D01*
X72493500Y-40984500D01*
X71714140Y-40984500D01*
X71646019Y-40964498D01*
X71599526Y-40910842D01*
X71589218Y-40874945D01*
X71586122Y-40851427D01*
X71586122Y-40851426D01*
X71585044Y-40843238D01*
X71524536Y-40697159D01*
X71428282Y-40571718D01*
X71302841Y-40475464D01*
X71156762Y-40414956D01*
X71000000Y-40394318D01*
X70843238Y-40414956D01*
X70697159Y-40475464D01*
X70571718Y-40571718D01*
X70475464Y-40697159D01*
X70414956Y-40843238D01*
X70394318Y-41000000D01*
X69605682Y-41000000D01*
X69585044Y-40843238D01*
X69524536Y-40697159D01*
X69428282Y-40571718D01*
X69302841Y-40475464D01*
X69234319Y-40447081D01*
X69179039Y-40402534D01*
X69156618Y-40335171D01*
X69174176Y-40266379D01*
X69193443Y-40241578D01*
X70530340Y-38904681D01*
X72312000Y-38904681D01*
X72312077Y-38907733D01*
X72313233Y-38916945D01*
X72350162Y-39100091D01*
X72353752Y-39111833D01*
X72424978Y-39282943D01*
X72430778Y-39293759D01*
X72533885Y-39447779D01*
X72541678Y-39457266D01*
X72672734Y-39588322D01*
X72682221Y-39596115D01*
X72836241Y-39699222D01*
X72847057Y-39705022D01*
X73018167Y-39776248D01*
X73029909Y-39779838D01*
X73213055Y-39816767D01*
X73222267Y-39817923D01*
X73225319Y-39818000D01*
X74547885Y-39818000D01*
X74563124Y-39813525D01*
X74564329Y-39812135D01*
X74566000Y-39804452D01*
X74566000Y-38582115D01*
X74561525Y-38566876D01*
X74560135Y-38565671D01*
X74552452Y-38564000D01*
X72330115Y-38564000D01*
X72314876Y-38568475D01*
X72313671Y-38569865D01*
X72312000Y-38577548D01*
X72312000Y-38904681D01*
X70530340Y-38904681D01*
X71345067Y-38089954D01*
X71351333Y-38084100D01*
X71383545Y-38056000D01*
X71394396Y-38046534D01*
X71398761Y-38040323D01*
X71398764Y-38040320D01*
X71430705Y-37994872D01*
X71434638Y-37989577D01*
X71437839Y-37985495D01*
X71473583Y-37939908D01*
X71476711Y-37932981D01*
X71478486Y-37930050D01*
X71485903Y-37917047D01*
X71487519Y-37914033D01*
X71491887Y-37907818D01*
X71494646Y-37900742D01*
X71494648Y-37900738D01*
X71514819Y-37849001D01*
X71517375Y-37842920D01*
X71540231Y-37792300D01*
X71540231Y-37792299D01*
X71543355Y-37785381D01*
X71544739Y-37777915D01*
X71545757Y-37774666D01*
X71549877Y-37760201D01*
X71550717Y-37756928D01*
X71553476Y-37749852D01*
X71561716Y-37687259D01*
X71562748Y-37680742D01*
X71572868Y-37626140D01*
X71574252Y-37618673D01*
X71570709Y-37557221D01*
X71570500Y-37549969D01*
X71570500Y-36816500D01*
X71590502Y-36748379D01*
X71644158Y-36701886D01*
X71696500Y-36690500D01*
X71739748Y-36690500D01*
X71745816Y-36689293D01*
X71786061Y-36681288D01*
X71786062Y-36681288D01*
X71798231Y-36678867D01*
X71864552Y-36634552D01*
X71908867Y-36568231D01*
X71911289Y-36556058D01*
X71919293Y-36515816D01*
X71920500Y-36509748D01*
X71920500Y-32970252D01*
X71908867Y-32911769D01*
X71898842Y-32896765D01*
X71871443Y-32855761D01*
X71864552Y-32845448D01*
X71798231Y-32801133D01*
X71786062Y-32798712D01*
X71786061Y-32798712D01*
X71745816Y-32790707D01*
X71739748Y-32789500D01*
X70000252Y-32789500D01*
X69994184Y-32790707D01*
X69953939Y-32798712D01*
X69953938Y-32798712D01*
X69941769Y-32801133D01*
X69875448Y-32845448D01*
X69868557Y-32855761D01*
X69841159Y-32896765D01*
X69831133Y-32911769D01*
X69819500Y-32970252D01*
X69819500Y-36509748D01*
X69820707Y-36515816D01*
X69828712Y-36556058D01*
X69831133Y-36568231D01*
X69875448Y-36634552D01*
X69941769Y-36678867D01*
X69953938Y-36681288D01*
X69953939Y-36681288D01*
X69994184Y-36689293D01*
X70000252Y-36690500D01*
X70043500Y-36690500D01*
X70111621Y-36710502D01*
X70158114Y-36764158D01*
X70169500Y-36816500D01*
X70169500Y-37232018D01*
X70149498Y-37300139D01*
X70132595Y-37321113D01*
X67424925Y-40028783D01*
X67418660Y-40034636D01*
X67375604Y-40072196D01*
X67343292Y-40118172D01*
X67339317Y-40123828D01*
X67335384Y-40129123D01*
X67301105Y-40172841D01*
X67301103Y-40172845D01*
X67296416Y-40178822D01*
X67293290Y-40185745D01*
X67291505Y-40188693D01*
X67284113Y-40201653D01*
X67282480Y-40204699D01*
X67278113Y-40210912D01*
X67270786Y-40229705D01*
X67255180Y-40269731D01*
X67252625Y-40275810D01*
X67226645Y-40333349D01*
X67225260Y-40340820D01*
X67224236Y-40344088D01*
X67220123Y-40358529D01*
X67219283Y-40361802D01*
X67216524Y-40368878D01*
X67210644Y-40413548D01*
X67208284Y-40431471D01*
X67207252Y-40437988D01*
X67195748Y-40500057D01*
X67196185Y-40507637D01*
X67196185Y-40507638D01*
X67199291Y-40561509D01*
X67199500Y-40568761D01*
X67199500Y-42761359D01*
X67199208Y-42769929D01*
X67195322Y-42826930D01*
X67196627Y-42834406D01*
X67196627Y-42834409D01*
X67206178Y-42889132D01*
X67207141Y-42895658D01*
X67214724Y-42958320D01*
X67217409Y-42965427D01*
X67218218Y-42968720D01*
X67222177Y-42983191D01*
X67223166Y-42986467D01*
X67224473Y-42993954D01*
X67227528Y-43000913D01*
X67227528Y-43000914D01*
X67249847Y-43051760D01*
X67252339Y-43057866D01*
X67271951Y-43109766D01*
X67274655Y-43116923D01*
X67278954Y-43123178D01*
X67280535Y-43126203D01*
X67287825Y-43139299D01*
X67289566Y-43142243D01*
X67292621Y-43149202D01*
X67297246Y-43155230D01*
X67297247Y-43155231D01*
X67331042Y-43199273D01*
X67334919Y-43204609D01*
X67366381Y-43250386D01*
X67366386Y-43250392D01*
X67370688Y-43256651D01*
X67414612Y-43295786D01*
X67416657Y-43297608D01*
X67421933Y-43302589D01*
X68791249Y-44671905D01*
X68825275Y-44734217D01*
X68820210Y-44805032D01*
X68777663Y-44861868D01*
X68711143Y-44886679D01*
X68702154Y-44887000D01*
X67916166Y-44887000D01*
X67898248Y-44888694D01*
X67892278Y-44889258D01*
X67892277Y-44889258D01*
X67884631Y-44889981D01*
X67756816Y-44934866D01*
X67749246Y-44940458D01*
X67749243Y-44940459D01*
X67709656Y-44969699D01*
X67647850Y-45015350D01*
X67642258Y-45022921D01*
X67572959Y-45116743D01*
X67572958Y-45116746D01*
X67567366Y-45124316D01*
X67522481Y-45252131D01*
X67519500Y-45283666D01*
X67519500Y-45916334D01*
X67522481Y-45947869D01*
X67567366Y-46075684D01*
X67572958Y-46083254D01*
X67572959Y-46083257D01*
X67602108Y-46122721D01*
X67647850Y-46184650D01*
X67655421Y-46190242D01*
X67749243Y-46259541D01*
X67749246Y-46259542D01*
X67756816Y-46265134D01*
X67884631Y-46310019D01*
X67892277Y-46310742D01*
X67892278Y-46310742D01*
X67898248Y-46311306D01*
X67916166Y-46313000D01*
X68923834Y-46313000D01*
X68939182Y-46311549D01*
X68947723Y-46310742D01*
X68947725Y-46310742D01*
X68955369Y-46310019D01*
X68962617Y-46307474D01*
X68970112Y-46305829D01*
X68970205Y-46306254D01*
X69003955Y-46300500D01*
X69674853Y-46300500D01*
X69716600Y-46307617D01*
X69794631Y-46335019D01*
X69802277Y-46335742D01*
X69802278Y-46335742D01*
X69808248Y-46336306D01*
X69826166Y-46338000D01*
X70405153Y-46338000D01*
X70473274Y-46358002D01*
X70494248Y-46374905D01*
X70641248Y-46521905D01*
X70675274Y-46584217D01*
X70670209Y-46655032D01*
X70627662Y-46711868D01*
X70561142Y-46736679D01*
X70552153Y-46737000D01*
X69826166Y-46737000D01*
X69808248Y-46738694D01*
X69802278Y-46739258D01*
X69802277Y-46739258D01*
X69794631Y-46739981D01*
X69666816Y-46784866D01*
X69659246Y-46790458D01*
X69659243Y-46790459D01*
X69616829Y-46821787D01*
X69557850Y-46865350D01*
X69552258Y-46872921D01*
X69552255Y-46872924D01*
X69483894Y-46965477D01*
X69427333Y-47008388D01*
X69356551Y-47013908D01*
X69294022Y-46980284D01*
X69274102Y-46953497D01*
X69272634Y-46949316D01*
X69249996Y-46918666D01*
X69197742Y-46847921D01*
X69192150Y-46840350D01*
X69124670Y-46790508D01*
X69090757Y-46765459D01*
X69090754Y-46765458D01*
X69083184Y-46759866D01*
X68955369Y-46714981D01*
X68947723Y-46714258D01*
X68947722Y-46714258D01*
X68941752Y-46713694D01*
X68923834Y-46712000D01*
X67916166Y-46712000D01*
X67898248Y-46713694D01*
X67892278Y-46714258D01*
X67892277Y-46714258D01*
X67884631Y-46714981D01*
X67756816Y-46759866D01*
X67749246Y-46765458D01*
X67749243Y-46765459D01*
X67715330Y-46790508D01*
X67647850Y-46840350D01*
X67642258Y-46847921D01*
X67572959Y-46941743D01*
X67572958Y-46941746D01*
X67567366Y-46949316D01*
X67522481Y-47077131D01*
X67519500Y-47108666D01*
X67519500Y-47741334D01*
X67522481Y-47772869D01*
X67567366Y-47900684D01*
X67572958Y-47908254D01*
X67572959Y-47908257D01*
X67625955Y-47980007D01*
X67647850Y-48009650D01*
X67655421Y-48015242D01*
X67749243Y-48084541D01*
X67749246Y-48084542D01*
X67756816Y-48090134D01*
X67884631Y-48135019D01*
X67892277Y-48135742D01*
X67892278Y-48135742D01*
X67898248Y-48136306D01*
X67916166Y-48138000D01*
X68920483Y-48138000D01*
X68988604Y-48158002D01*
X69009579Y-48174905D01*
X69681579Y-48846906D01*
X69715604Y-48909218D01*
X69710539Y-48980034D01*
X69667992Y-49036869D01*
X69601472Y-49061680D01*
X69592483Y-49062001D01*
X69585331Y-49062001D01*
X69578510Y-49062371D01*
X69527648Y-49067895D01*
X69512396Y-49071521D01*
X69391946Y-49116676D01*
X69376351Y-49125214D01*
X69274276Y-49201715D01*
X69261715Y-49214276D01*
X69183180Y-49319065D01*
X69126321Y-49361580D01*
X69082354Y-49369500D01*
X68360252Y-49369500D01*
X68354184Y-49370707D01*
X68313939Y-49378712D01*
X68313938Y-49378712D01*
X68301769Y-49381133D01*
X68291454Y-49388025D01*
X68291450Y-49388027D01*
X68235969Y-49425099D01*
X68168217Y-49446314D01*
X68099750Y-49427531D01*
X68080438Y-49412859D01*
X67951247Y-49293436D01*
X67951245Y-49293434D01*
X67947006Y-49289516D01*
X67930937Y-49279377D01*
X67764510Y-49174369D01*
X67764509Y-49174369D01*
X67759630Y-49171290D01*
X67553847Y-49089191D01*
X67548187Y-49088065D01*
X67548183Y-49088064D01*
X67342216Y-49047095D01*
X67342214Y-49047095D01*
X67336549Y-49045968D01*
X67330774Y-49045892D01*
X67330770Y-49045892D01*
X67219557Y-49044437D01*
X67115012Y-49043068D01*
X67109315Y-49044047D01*
X67109314Y-49044047D01*
X66925988Y-49075548D01*
X66896657Y-49080588D01*
X66688796Y-49157272D01*
X66683835Y-49160224D01*
X66683834Y-49160224D01*
X66529454Y-49252071D01*
X66498390Y-49270552D01*
X66331815Y-49416634D01*
X66194652Y-49590625D01*
X66191963Y-49595736D01*
X66191961Y-49595739D01*
X66182310Y-49614083D01*
X66091492Y-49786699D01*
X66025792Y-49998289D01*
X65999751Y-50218309D01*
X59838999Y-50218309D01*
X59806762Y-50204956D01*
X59650000Y-50184318D01*
X59493238Y-50204956D01*
X59347159Y-50265464D01*
X59221718Y-50361718D01*
X59216695Y-50368264D01*
X59212329Y-50373954D01*
X59125464Y-50487159D01*
X59064956Y-50633238D01*
X59044318Y-50790000D01*
X59045538Y-50799264D01*
X59062841Y-50930694D01*
X59064956Y-50946762D01*
X59125464Y-51092841D01*
X59139014Y-51110500D01*
X59206372Y-51198282D01*
X59221718Y-51218282D01*
X59228264Y-51223305D01*
X59242085Y-51233910D01*
X59347159Y-51314536D01*
X59493238Y-51375044D01*
X59501426Y-51376122D01*
X59521555Y-51378772D01*
X59650000Y-51395682D01*
X59716843Y-51386882D01*
X59786990Y-51397821D01*
X59822383Y-51422709D01*
X61965889Y-53566215D01*
X61973316Y-53574319D01*
X61997545Y-53603194D01*
X62007094Y-53608707D01*
X62030185Y-53622039D01*
X62039456Y-53627945D01*
X62070316Y-53649554D01*
X62074735Y-53650738D01*
X62125036Y-53695028D01*
X62144500Y-53762305D01*
X62144500Y-53969748D01*
X62145707Y-53975816D01*
X62153019Y-54012574D01*
X62156133Y-54028231D01*
X62163026Y-54038547D01*
X62163027Y-54038549D01*
X62173016Y-54053499D01*
X62194230Y-54121252D01*
X62175447Y-54189719D01*
X62122629Y-54237161D01*
X62068250Y-54249500D01*
X60411750Y-54249500D01*
X60343629Y-54229498D01*
X60297136Y-54175842D01*
X60287032Y-54105568D01*
X60306984Y-54053499D01*
X60316973Y-54038549D01*
X60316974Y-54038547D01*
X60323867Y-54028231D01*
X60326982Y-54012574D01*
X60334293Y-53975816D01*
X60335500Y-53969748D01*
X60335500Y-52730252D01*
X60323867Y-52671769D01*
X60279552Y-52605448D01*
X60213231Y-52561133D01*
X60201062Y-52558712D01*
X60201061Y-52558712D01*
X60160816Y-52550707D01*
X60154748Y-52549500D01*
X58275252Y-52549500D01*
X58269184Y-52550707D01*
X58228939Y-52558712D01*
X58228938Y-52558712D01*
X58216769Y-52561133D01*
X58150448Y-52605448D01*
X58106133Y-52671769D01*
X58094500Y-52730252D01*
X58094500Y-53969748D01*
X58095707Y-53975816D01*
X58103019Y-54012574D01*
X58106133Y-54028231D01*
X58113026Y-54038547D01*
X58113027Y-54038549D01*
X58123016Y-54053499D01*
X58144230Y-54121252D01*
X58125447Y-54189719D01*
X58072629Y-54237161D01*
X58018250Y-54249500D01*
X56981750Y-54249500D01*
X56913629Y-54229498D01*
X56867136Y-54175842D01*
X56857032Y-54105568D01*
X56876984Y-54053499D01*
X56886973Y-54038549D01*
X56886974Y-54038547D01*
X56893867Y-54028231D01*
X56896982Y-54012574D01*
X56904293Y-53975816D01*
X56905500Y-53969748D01*
X56905500Y-52730252D01*
X56893867Y-52671769D01*
X56849552Y-52605448D01*
X56783231Y-52561133D01*
X56771062Y-52558712D01*
X56771061Y-52558712D01*
X56730816Y-52550707D01*
X56724748Y-52549500D01*
X54845252Y-52549500D01*
X54839184Y-52550707D01*
X54798939Y-52558712D01*
X54798938Y-52558712D01*
X54786769Y-52561133D01*
X54720448Y-52605448D01*
X54676133Y-52671769D01*
X54664500Y-52730252D01*
X54664500Y-52769984D01*
X54644498Y-52838105D01*
X54590842Y-52884598D01*
X54520568Y-52894702D01*
X54455988Y-52865208D01*
X54449405Y-52859079D01*
X52532709Y-50942383D01*
X52498683Y-50880071D01*
X52496882Y-50836842D01*
X52497990Y-50828431D01*
X52505682Y-50770000D01*
X52493930Y-50680731D01*
X52486122Y-50621426D01*
X52485044Y-50613238D01*
X52424536Y-50467159D01*
X52346242Y-50365124D01*
X52333305Y-50348264D01*
X52328282Y-50341718D01*
X52202841Y-50245464D01*
X52056762Y-50184956D01*
X51900000Y-50164318D01*
X51743238Y-50184956D01*
X51597159Y-50245464D01*
X51471718Y-50341718D01*
X51466695Y-50348264D01*
X51453758Y-50365124D01*
X51375464Y-50467159D01*
X51314956Y-50613238D01*
X51313878Y-50621426D01*
X51306070Y-50680731D01*
X51294318Y-50770000D01*
X51296087Y-50783437D01*
X51313349Y-50914552D01*
X51314956Y-50926762D01*
X51375464Y-51072841D01*
X51471718Y-51198282D01*
X51597159Y-51294536D01*
X51743238Y-51355044D01*
X51751426Y-51356122D01*
X51771555Y-51358772D01*
X51900000Y-51375682D01*
X51966843Y-51366882D01*
X52036990Y-51377821D01*
X52072383Y-51402709D01*
X54235889Y-53566215D01*
X54243316Y-53574319D01*
X54267545Y-53603194D01*
X54277094Y-53608707D01*
X54300185Y-53622039D01*
X54309456Y-53627945D01*
X54340316Y-53649554D01*
X54350966Y-53652408D01*
X54354134Y-53653885D01*
X54357410Y-53655077D01*
X54366955Y-53660588D01*
X54400699Y-53666538D01*
X54404058Y-53667130D01*
X54414785Y-53669508D01*
X54451193Y-53679264D01*
X54462178Y-53678303D01*
X54462180Y-53678303D01*
X54488728Y-53675980D01*
X54499710Y-53675500D01*
X54538500Y-53675500D01*
X54606621Y-53695502D01*
X54653114Y-53749158D01*
X54664500Y-53801500D01*
X54664500Y-53969748D01*
X54665707Y-53975816D01*
X54673019Y-54012574D01*
X54676133Y-54028231D01*
X54683026Y-54038547D01*
X54683027Y-54038549D01*
X54693016Y-54053499D01*
X54714230Y-54121252D01*
X54695447Y-54189719D01*
X54642629Y-54237161D01*
X54588250Y-54249500D01*
X52931750Y-54249500D01*
X52863629Y-54229498D01*
X52817136Y-54175842D01*
X52807032Y-54105568D01*
X52826984Y-54053499D01*
X52836973Y-54038549D01*
X52836974Y-54038547D01*
X52843867Y-54028231D01*
X52846982Y-54012574D01*
X52854293Y-53975816D01*
X52855500Y-53969748D01*
X52855500Y-52730252D01*
X52843867Y-52671769D01*
X52799552Y-52605448D01*
X52733231Y-52561133D01*
X52721062Y-52558712D01*
X52721061Y-52558712D01*
X52680816Y-52550707D01*
X52674748Y-52549500D01*
X50795252Y-52549500D01*
X50789184Y-52550707D01*
X50748939Y-52558712D01*
X50748938Y-52558712D01*
X50736769Y-52561133D01*
X50670448Y-52605448D01*
X50626133Y-52671769D01*
X50614500Y-52730252D01*
X50614500Y-53969748D01*
X50615707Y-53975816D01*
X50623019Y-54012574D01*
X50626133Y-54028231D01*
X50670448Y-54094552D01*
X50736769Y-54138867D01*
X50748938Y-54141288D01*
X50748939Y-54141288D01*
X50789184Y-54149293D01*
X50795252Y-54150500D01*
X50808500Y-54150500D01*
X50876621Y-54170502D01*
X50923114Y-54224158D01*
X50934500Y-54276500D01*
X50934500Y-55497390D01*
X50914498Y-55565511D01*
X50860842Y-55612004D01*
X50808659Y-55623390D01*
X13886218Y-55669841D01*
X13818072Y-55649925D01*
X13771511Y-55596327D01*
X13760059Y-55543782D01*
X13760130Y-55394688D01*
X13760857Y-53850809D01*
X14103572Y-53850809D01*
X14118062Y-54071890D01*
X14119483Y-54077486D01*
X14119484Y-54077491D01*
X14170027Y-54276500D01*
X14172599Y-54286628D01*
X14265355Y-54487832D01*
X14268686Y-54492545D01*
X14268687Y-54492547D01*
X14383733Y-54655332D01*
X14393225Y-54668763D01*
X14551925Y-54823363D01*
X14556721Y-54826568D01*
X14556724Y-54826570D01*
X14564176Y-54831549D01*
X14736142Y-54946452D01*
X14741445Y-54948730D01*
X14741448Y-54948732D01*
X14846975Y-54994070D01*
X14939705Y-55033910D01*
X14984513Y-55044049D01*
X15150161Y-55081532D01*
X15150167Y-55081533D01*
X15155798Y-55082807D01*
X15161569Y-55083034D01*
X15161571Y-55083034D01*
X15229906Y-55085719D01*
X15377182Y-55091505D01*
X15486814Y-55075609D01*
X15590731Y-55060542D01*
X15590736Y-55060541D01*
X15596445Y-55059713D01*
X15601909Y-55057858D01*
X15601914Y-55057857D01*
X15800774Y-54990353D01*
X15806242Y-54988497D01*
X15999549Y-54880240D01*
X16169890Y-54738569D01*
X16311561Y-54568228D01*
X16419818Y-54374921D01*
X16436115Y-54326910D01*
X16489178Y-54170593D01*
X16489179Y-54170588D01*
X16491034Y-54165124D01*
X16493155Y-54150500D01*
X16513153Y-54012574D01*
X16522826Y-53945861D01*
X16524485Y-53882500D01*
X16521573Y-53850809D01*
X22743572Y-53850809D01*
X22758062Y-54071890D01*
X22759483Y-54077486D01*
X22759484Y-54077491D01*
X22810027Y-54276500D01*
X22812599Y-54286628D01*
X22905355Y-54487832D01*
X22908686Y-54492545D01*
X22908687Y-54492547D01*
X23023733Y-54655332D01*
X23033225Y-54668763D01*
X23191925Y-54823363D01*
X23196721Y-54826568D01*
X23196724Y-54826570D01*
X23204176Y-54831549D01*
X23376142Y-54946452D01*
X23381445Y-54948730D01*
X23381448Y-54948732D01*
X23486975Y-54994070D01*
X23579705Y-55033910D01*
X23624513Y-55044049D01*
X23790161Y-55081532D01*
X23790167Y-55081533D01*
X23795798Y-55082807D01*
X23801569Y-55083034D01*
X23801571Y-55083034D01*
X23869906Y-55085719D01*
X24017182Y-55091505D01*
X24126814Y-55075609D01*
X24230731Y-55060542D01*
X24230736Y-55060541D01*
X24236445Y-55059713D01*
X24241909Y-55057858D01*
X24241914Y-55057857D01*
X24440774Y-54990353D01*
X24446242Y-54988497D01*
X24639549Y-54880240D01*
X24809890Y-54738569D01*
X24951561Y-54568228D01*
X25059818Y-54374921D01*
X25076115Y-54326910D01*
X25129178Y-54170593D01*
X25129179Y-54170588D01*
X25131034Y-54165124D01*
X25133155Y-54150500D01*
X25153153Y-54012574D01*
X25162826Y-53945861D01*
X25164485Y-53882500D01*
X25144212Y-53661874D01*
X25140738Y-53649554D01*
X25085642Y-53454201D01*
X25084073Y-53448637D01*
X24986082Y-53249930D01*
X24964602Y-53221164D01*
X24856973Y-53077032D01*
X24856972Y-53077031D01*
X24853520Y-53072408D01*
X24690827Y-52922016D01*
X24685944Y-52918935D01*
X24508331Y-52806869D01*
X24508330Y-52806869D01*
X24503451Y-52803790D01*
X24297668Y-52721691D01*
X24292008Y-52720565D01*
X24292004Y-52720564D01*
X24086037Y-52679595D01*
X24086035Y-52679595D01*
X24080370Y-52678468D01*
X24074595Y-52678392D01*
X24074591Y-52678392D01*
X23963378Y-52676937D01*
X23858833Y-52675568D01*
X23853136Y-52676547D01*
X23853135Y-52676547D01*
X23646175Y-52712109D01*
X23640478Y-52713088D01*
X23432617Y-52789772D01*
X23427656Y-52792724D01*
X23427655Y-52792724D01*
X23374793Y-52824174D01*
X23242211Y-52903052D01*
X23075636Y-53049134D01*
X22938473Y-53223125D01*
X22935784Y-53228236D01*
X22935782Y-53228239D01*
X22924370Y-53249930D01*
X22835313Y-53419199D01*
X22824445Y-53454201D01*
X22774163Y-53616137D01*
X22769613Y-53630789D01*
X22743572Y-53850809D01*
X16521573Y-53850809D01*
X16504212Y-53661874D01*
X16500738Y-53649554D01*
X16445642Y-53454201D01*
X16444073Y-53448637D01*
X16346082Y-53249930D01*
X16324602Y-53221164D01*
X16216973Y-53077032D01*
X16216972Y-53077031D01*
X16213520Y-53072408D01*
X16050827Y-52922016D01*
X16045944Y-52918935D01*
X15868331Y-52806869D01*
X15868330Y-52806869D01*
X15863451Y-52803790D01*
X15657668Y-52721691D01*
X15652008Y-52720565D01*
X15652004Y-52720564D01*
X15446037Y-52679595D01*
X15446035Y-52679595D01*
X15440370Y-52678468D01*
X15434595Y-52678392D01*
X15434591Y-52678392D01*
X15323378Y-52676937D01*
X15218833Y-52675568D01*
X15213136Y-52676547D01*
X15213135Y-52676547D01*
X15006175Y-52712109D01*
X15000478Y-52713088D01*
X14792617Y-52789772D01*
X14787656Y-52792724D01*
X14787655Y-52792724D01*
X14734793Y-52824174D01*
X14602211Y-52903052D01*
X14435636Y-53049134D01*
X14298473Y-53223125D01*
X14295784Y-53228236D01*
X14295782Y-53228239D01*
X14284370Y-53249930D01*
X14195313Y-53419199D01*
X14184445Y-53454201D01*
X14134163Y-53616137D01*
X14129613Y-53630789D01*
X14103572Y-53850809D01*
X13760857Y-53850809D01*
X13764154Y-46849077D01*
X13766974Y-40861418D01*
X13787008Y-40793306D01*
X13840686Y-40746839D01*
X13910964Y-40736768D01*
X13975531Y-40766291D01*
X14013887Y-40826036D01*
X14015690Y-40833361D01*
X14016171Y-40838594D01*
X14018170Y-40844974D01*
X14018171Y-40844977D01*
X14064187Y-40991812D01*
X14066873Y-41000383D01*
X14154703Y-41145408D01*
X14274592Y-41265297D01*
X14419617Y-41353127D01*
X14426864Y-41355398D01*
X14426866Y-41355399D01*
X14475230Y-41370555D01*
X14525001Y-41386153D01*
X14584022Y-41425609D01*
X14612342Y-41490713D01*
X14613321Y-41506386D01*
X14613321Y-45360050D01*
X14611211Y-45383010D01*
X14609569Y-45391871D01*
X14610006Y-45399451D01*
X14610006Y-45399452D01*
X14613112Y-45453323D01*
X14613321Y-45460575D01*
X14613321Y-49036219D01*
X14593319Y-49104340D01*
X14570401Y-49130948D01*
X14435636Y-49249134D01*
X14298473Y-49423125D01*
X14295784Y-49428236D01*
X14295782Y-49428239D01*
X14263951Y-49488740D01*
X14195313Y-49619199D01*
X14144892Y-49781583D01*
X14134163Y-49816137D01*
X14129613Y-49830789D01*
X14103572Y-50050809D01*
X14118062Y-50271890D01*
X14119483Y-50277486D01*
X14119484Y-50277491D01*
X14159137Y-50433623D01*
X14172599Y-50486628D01*
X14265355Y-50687832D01*
X14268686Y-50692545D01*
X14268687Y-50692547D01*
X14389891Y-50864045D01*
X14393225Y-50868763D01*
X14551925Y-51023363D01*
X14556721Y-51026568D01*
X14556724Y-51026570D01*
X14655223Y-51092384D01*
X14736142Y-51146452D01*
X14741445Y-51148730D01*
X14741448Y-51148732D01*
X14934398Y-51231630D01*
X14939705Y-51233910D01*
X14984513Y-51244049D01*
X15150161Y-51281532D01*
X15150167Y-51281533D01*
X15155798Y-51282807D01*
X15161569Y-51283034D01*
X15161571Y-51283034D01*
X15229906Y-51285719D01*
X15377182Y-51291505D01*
X15490165Y-51275123D01*
X15590731Y-51260542D01*
X15590736Y-51260541D01*
X15596445Y-51259713D01*
X15601909Y-51257858D01*
X15601914Y-51257857D01*
X15800774Y-51190353D01*
X15806242Y-51188497D01*
X15999549Y-51080240D01*
X16047577Y-51040296D01*
X16155019Y-50950937D01*
X16169890Y-50938569D01*
X16189865Y-50914552D01*
X16261491Y-50828431D01*
X16320429Y-50788847D01*
X16358365Y-50783000D01*
X16366654Y-50783000D01*
X16404264Y-50790481D01*
X16405590Y-50791367D01*
X16464073Y-50803000D01*
X17186175Y-50803000D01*
X17254296Y-50823002D01*
X17287001Y-50853435D01*
X17365536Y-50958224D01*
X17378097Y-50970785D01*
X17480172Y-51047286D01*
X17495767Y-51055824D01*
X17616215Y-51100978D01*
X17631470Y-51104605D01*
X17682335Y-51110131D01*
X17689149Y-51110500D01*
X17841706Y-51110500D01*
X17856945Y-51106025D01*
X17858150Y-51104635D01*
X17859821Y-51096952D01*
X17859821Y-48912616D01*
X17855346Y-48897377D01*
X17853956Y-48896172D01*
X17846273Y-48894501D01*
X17689152Y-48894501D01*
X17682331Y-48894871D01*
X17631469Y-48900395D01*
X17616217Y-48904021D01*
X17495767Y-48949176D01*
X17480172Y-48957714D01*
X17378097Y-49034215D01*
X17365536Y-49046776D01*
X17287001Y-49151565D01*
X17230142Y-49194080D01*
X17186175Y-49202000D01*
X16464073Y-49202000D01*
X16458005Y-49203207D01*
X16417760Y-49211212D01*
X16417759Y-49211212D01*
X16405590Y-49213633D01*
X16395275Y-49220525D01*
X16395271Y-49220527D01*
X16339790Y-49257599D01*
X16272038Y-49278814D01*
X16203571Y-49260031D01*
X16184259Y-49245359D01*
X16054792Y-49125681D01*
X16018347Y-49064752D01*
X16014321Y-49033156D01*
X16014321Y-47526334D01*
X17219500Y-47526334D01*
X17222481Y-47557869D01*
X17267366Y-47685684D01*
X17272958Y-47693254D01*
X17272959Y-47693257D01*
X17288709Y-47714580D01*
X17347850Y-47794650D01*
X17355421Y-47800242D01*
X17449243Y-47869541D01*
X17449246Y-47869542D01*
X17456816Y-47875134D01*
X17584631Y-47920019D01*
X17592277Y-47920742D01*
X17592278Y-47920742D01*
X17598248Y-47921306D01*
X17616166Y-47923000D01*
X18320483Y-47923000D01*
X18388604Y-47943002D01*
X18409579Y-47959905D01*
X18771417Y-48321744D01*
X18805442Y-48384056D01*
X18808321Y-48410839D01*
X18808321Y-48796036D01*
X18788319Y-48864157D01*
X18734663Y-48910650D01*
X18664389Y-48920754D01*
X18638090Y-48914018D01*
X18611424Y-48904021D01*
X18596172Y-48900395D01*
X18545307Y-48894869D01*
X18538493Y-48894500D01*
X18385936Y-48894500D01*
X18370697Y-48898975D01*
X18369492Y-48900365D01*
X18367821Y-48908048D01*
X18367821Y-51092384D01*
X18372296Y-51107623D01*
X18373686Y-51108828D01*
X18381369Y-51110499D01*
X18538490Y-51110499D01*
X18545311Y-51110129D01*
X18596173Y-51104605D01*
X18611425Y-51100979D01*
X18731875Y-51055824D01*
X18747470Y-51047286D01*
X18849545Y-50970785D01*
X18862106Y-50958224D01*
X18940641Y-50853435D01*
X18997500Y-50810920D01*
X19041467Y-50803000D01*
X19503569Y-50803000D01*
X19509637Y-50801793D01*
X19549882Y-50793788D01*
X19549883Y-50793788D01*
X19562052Y-50791367D01*
X19572368Y-50784474D01*
X19583838Y-50779723D01*
X19585376Y-50783437D01*
X19631572Y-50768972D01*
X19682110Y-50783812D01*
X19683804Y-50779723D01*
X19695274Y-50784474D01*
X19705590Y-50791367D01*
X19717759Y-50793788D01*
X19717760Y-50793788D01*
X19758005Y-50801793D01*
X19764073Y-50803000D01*
X20226175Y-50803000D01*
X20294296Y-50823002D01*
X20327001Y-50853435D01*
X20405536Y-50958224D01*
X20418097Y-50970785D01*
X20520172Y-51047286D01*
X20535767Y-51055824D01*
X20656215Y-51100978D01*
X20671470Y-51104605D01*
X20722335Y-51110131D01*
X20729149Y-51110500D01*
X20881706Y-51110500D01*
X20896945Y-51106025D01*
X20898150Y-51104635D01*
X20899821Y-51096952D01*
X20899821Y-51092384D01*
X21407821Y-51092384D01*
X21412296Y-51107623D01*
X21413686Y-51108828D01*
X21421369Y-51110499D01*
X21578490Y-51110499D01*
X21585311Y-51110129D01*
X21636173Y-51104605D01*
X21651425Y-51100979D01*
X21771875Y-51055824D01*
X21787470Y-51047286D01*
X21889545Y-50970785D01*
X21902106Y-50958224D01*
X21980641Y-50853435D01*
X22037500Y-50810920D01*
X22081467Y-50803000D01*
X22803569Y-50803000D01*
X22862052Y-50791367D01*
X22863378Y-50790481D01*
X22900988Y-50783000D01*
X22907371Y-50783000D01*
X22975492Y-50803002D01*
X23010266Y-50836277D01*
X23033225Y-50868763D01*
X23191925Y-51023363D01*
X23196721Y-51026568D01*
X23196724Y-51026570D01*
X23295223Y-51092384D01*
X23376142Y-51146452D01*
X23381445Y-51148730D01*
X23381448Y-51148732D01*
X23574398Y-51231630D01*
X23579705Y-51233910D01*
X23624513Y-51244049D01*
X23790161Y-51281532D01*
X23790167Y-51281533D01*
X23795798Y-51282807D01*
X23801569Y-51283034D01*
X23801571Y-51283034D01*
X23869906Y-51285719D01*
X24017182Y-51291505D01*
X24130165Y-51275123D01*
X24230731Y-51260542D01*
X24230736Y-51260541D01*
X24236445Y-51259713D01*
X24241909Y-51257858D01*
X24241914Y-51257857D01*
X24440774Y-51190353D01*
X24446242Y-51188497D01*
X24639549Y-51080240D01*
X24687577Y-51040296D01*
X24795019Y-50950937D01*
X24809890Y-50938569D01*
X24925749Y-50799264D01*
X24947870Y-50772666D01*
X24951561Y-50768228D01*
X25059818Y-50574921D01*
X25087019Y-50494789D01*
X25129178Y-50370593D01*
X25129179Y-50370588D01*
X25131034Y-50365124D01*
X25132257Y-50356695D01*
X25152321Y-50218309D01*
X25162826Y-50145861D01*
X25164485Y-50082500D01*
X25144212Y-49861874D01*
X25123011Y-49786699D01*
X25091903Y-49676400D01*
X25084073Y-49648637D01*
X24997428Y-49472937D01*
X24988637Y-49455111D01*
X24986082Y-49449930D01*
X24967801Y-49425448D01*
X24856973Y-49277032D01*
X24856972Y-49277031D01*
X24853520Y-49272408D01*
X24722793Y-49151565D01*
X24695068Y-49125936D01*
X24695066Y-49125934D01*
X24690827Y-49122016D01*
X24670951Y-49109475D01*
X24508331Y-49006869D01*
X24508330Y-49006869D01*
X24503451Y-49003790D01*
X24297668Y-48921691D01*
X24292008Y-48920565D01*
X24292004Y-48920564D01*
X24086037Y-48879595D01*
X24086035Y-48879595D01*
X24080370Y-48878468D01*
X24074595Y-48878392D01*
X24074591Y-48878392D01*
X23963378Y-48876937D01*
X23858833Y-48875568D01*
X23853136Y-48876547D01*
X23853135Y-48876547D01*
X23669809Y-48908048D01*
X23640478Y-48913088D01*
X23432617Y-48989772D01*
X23427656Y-48992724D01*
X23427655Y-48992724D01*
X23251140Y-49097740D01*
X23242211Y-49103052D01*
X23182663Y-49155274D01*
X23078940Y-49246236D01*
X23014536Y-49276113D01*
X22944203Y-49266427D01*
X22925860Y-49256269D01*
X22921962Y-49253664D01*
X22862052Y-49213633D01*
X22849883Y-49211212D01*
X22849882Y-49211212D01*
X22809637Y-49203207D01*
X22803569Y-49202000D01*
X22081467Y-49202000D01*
X22013346Y-49181998D01*
X21980641Y-49151565D01*
X21902106Y-49046776D01*
X21889545Y-49034215D01*
X21787470Y-48957714D01*
X21771875Y-48949176D01*
X21651427Y-48904022D01*
X21636172Y-48900395D01*
X21585307Y-48894869D01*
X21578493Y-48894500D01*
X21425936Y-48894500D01*
X21410697Y-48898975D01*
X21409492Y-48900365D01*
X21407821Y-48908048D01*
X21407821Y-51092384D01*
X20899821Y-51092384D01*
X20899821Y-48912616D01*
X20895346Y-48897377D01*
X20893956Y-48896172D01*
X20886273Y-48894501D01*
X20729152Y-48894501D01*
X20722331Y-48894871D01*
X20671469Y-48900395D01*
X20656221Y-48904020D01*
X20629552Y-48914018D01*
X20558744Y-48919201D01*
X20496375Y-48885281D01*
X20462246Y-48823026D01*
X20459321Y-48796036D01*
X20459321Y-48506496D01*
X27982937Y-48506496D01*
X27989202Y-48581106D01*
X27993694Y-48634590D01*
X27998732Y-48694590D01*
X28000431Y-48700515D01*
X28044264Y-48853378D01*
X28050760Y-48876034D01*
X28075324Y-48923831D01*
X28131510Y-49033156D01*
X28137040Y-49043917D01*
X28140865Y-49048743D01*
X28140867Y-49048746D01*
X28250456Y-49187014D01*
X28250460Y-49187019D01*
X28254285Y-49191844D01*
X28258978Y-49195838D01*
X28258979Y-49195839D01*
X28271151Y-49206198D01*
X28398030Y-49314180D01*
X28403408Y-49317186D01*
X28403410Y-49317187D01*
X28450062Y-49343260D01*
X28562800Y-49406267D01*
X28742317Y-49464595D01*
X28929745Y-49486945D01*
X28935880Y-49486473D01*
X28935882Y-49486473D01*
X29111803Y-49472937D01*
X29111807Y-49472936D01*
X29117945Y-49472464D01*
X29123877Y-49470808D01*
X29123881Y-49470807D01*
X29299748Y-49421703D01*
X29300482Y-49424332D01*
X29359505Y-49419355D01*
X29423385Y-49453711D01*
X30040515Y-50070842D01*
X30655895Y-50686222D01*
X30663315Y-50694318D01*
X30687545Y-50723194D01*
X30714747Y-50738899D01*
X30720184Y-50742038D01*
X30729452Y-50747942D01*
X30760316Y-50769553D01*
X30770962Y-50772406D01*
X30774130Y-50773883D01*
X30777407Y-50775076D01*
X30786955Y-50780588D01*
X30816508Y-50785799D01*
X30824069Y-50787132D01*
X30834803Y-50789512D01*
X30871193Y-50799263D01*
X30882169Y-50798303D01*
X30882172Y-50798303D01*
X30908731Y-50795979D01*
X30919712Y-50795500D01*
X50157790Y-50795500D01*
X50168772Y-50795980D01*
X50195320Y-50798303D01*
X50195322Y-50798303D01*
X50206307Y-50799264D01*
X50242715Y-50789508D01*
X50253442Y-50787130D01*
X50256801Y-50786538D01*
X50290545Y-50780588D01*
X50300090Y-50775077D01*
X50303366Y-50773885D01*
X50306534Y-50772408D01*
X50317184Y-50769554D01*
X50348047Y-50747943D01*
X50357315Y-50742039D01*
X50380406Y-50728707D01*
X50389955Y-50723194D01*
X50414185Y-50694317D01*
X50421611Y-50686215D01*
X54075421Y-47032405D01*
X54137733Y-46998379D01*
X54164516Y-46995500D01*
X62830290Y-46995500D01*
X62841272Y-46995980D01*
X62867820Y-46998303D01*
X62867822Y-46998303D01*
X62878807Y-46999264D01*
X62915215Y-46989508D01*
X62925942Y-46987130D01*
X62929301Y-46986538D01*
X62963045Y-46980588D01*
X62972590Y-46975077D01*
X62975866Y-46973885D01*
X62979034Y-46972408D01*
X62989684Y-46969554D01*
X63020544Y-46947945D01*
X63029815Y-46942039D01*
X63052906Y-46928707D01*
X63062455Y-46923194D01*
X63086685Y-46894317D01*
X63094111Y-46886215D01*
X64766215Y-45214111D01*
X64774319Y-45206684D01*
X64794749Y-45189541D01*
X64803194Y-45182455D01*
X64810258Y-45170220D01*
X64822039Y-45149815D01*
X64827945Y-45140544D01*
X64843230Y-45118715D01*
X64849554Y-45109684D01*
X64852409Y-45099031D01*
X64853883Y-45095869D01*
X64854779Y-45093408D01*
X64855657Y-45092216D01*
X64856208Y-45090885D01*
X64856823Y-45089566D01*
X64857113Y-45089064D01*
X64857307Y-45089155D01*
X64859568Y-45084812D01*
X64860588Y-45083045D01*
X64860588Y-45083044D01*
X64861866Y-45083782D01*
X64896872Y-45036236D01*
X64963193Y-45010897D01*
X64973181Y-45010500D01*
X65304748Y-45010500D01*
X65324154Y-45006640D01*
X65351061Y-45001288D01*
X65351062Y-45001288D01*
X65363231Y-44998867D01*
X65429552Y-44954552D01*
X65461061Y-44907396D01*
X65466974Y-44898547D01*
X65473867Y-44888231D01*
X65477716Y-44868884D01*
X65484293Y-44835816D01*
X65485500Y-44829748D01*
X65485500Y-44172016D01*
X65505502Y-44103895D01*
X65522405Y-44082921D01*
X66006215Y-43599111D01*
X66014319Y-43591684D01*
X66034749Y-43574541D01*
X66043194Y-43567455D01*
X66053147Y-43550216D01*
X66062039Y-43534815D01*
X66067945Y-43525544D01*
X66074757Y-43515816D01*
X66089554Y-43494684D01*
X66092408Y-43484034D01*
X66093885Y-43480866D01*
X66095077Y-43477590D01*
X66100588Y-43468045D01*
X66107130Y-43430942D01*
X66109509Y-43420210D01*
X66112111Y-43410500D01*
X66119264Y-43383807D01*
X66115979Y-43346257D01*
X66115500Y-43335276D01*
X66115500Y-36816500D01*
X66135502Y-36748379D01*
X66189158Y-36701886D01*
X66241500Y-36690500D01*
X66659748Y-36690500D01*
X66665816Y-36689293D01*
X66706061Y-36681288D01*
X66706062Y-36681288D01*
X66718231Y-36678867D01*
X66784552Y-36634552D01*
X66828867Y-36568231D01*
X66831289Y-36556058D01*
X66839293Y-36515816D01*
X66840500Y-36509748D01*
X67279500Y-36509748D01*
X67280707Y-36515816D01*
X67288712Y-36556058D01*
X67291133Y-36568231D01*
X67335448Y-36634552D01*
X67401769Y-36678867D01*
X67413938Y-36681288D01*
X67413939Y-36681288D01*
X67454184Y-36689293D01*
X67460252Y-36690500D01*
X69199748Y-36690500D01*
X69205816Y-36689293D01*
X69246061Y-36681288D01*
X69246062Y-36681288D01*
X69258231Y-36678867D01*
X69324552Y-36634552D01*
X69368867Y-36568231D01*
X69371289Y-36556058D01*
X69379293Y-36515816D01*
X69380500Y-36509748D01*
X69380500Y-32970252D01*
X69368867Y-32911769D01*
X69358842Y-32896765D01*
X69331443Y-32855761D01*
X69324552Y-32845448D01*
X69258231Y-32801133D01*
X69246062Y-32798712D01*
X69246061Y-32798712D01*
X69205816Y-32790707D01*
X69199748Y-32789500D01*
X67460252Y-32789500D01*
X67454184Y-32790707D01*
X67413939Y-32798712D01*
X67413938Y-32798712D01*
X67401769Y-32801133D01*
X67335448Y-32845448D01*
X67328557Y-32855761D01*
X67301159Y-32896765D01*
X67291133Y-32911769D01*
X67279500Y-32970252D01*
X67279500Y-36509748D01*
X66840500Y-36509748D01*
X66840500Y-33914373D01*
X66841494Y-33898581D01*
X66844728Y-33872978D01*
X66845171Y-33869474D01*
X66845583Y-33840000D01*
X66841101Y-33794288D01*
X66840500Y-33781994D01*
X66840500Y-32970252D01*
X66828867Y-32911769D01*
X66818842Y-32896765D01*
X66791443Y-32855761D01*
X66784552Y-32845448D01*
X66718231Y-32801133D01*
X66706062Y-32798712D01*
X66706061Y-32798712D01*
X66665816Y-32790707D01*
X66659748Y-32789500D01*
X65852089Y-32789500D01*
X65838919Y-32788810D01*
X65803498Y-32785087D01*
X65803496Y-32785087D01*
X65797369Y-32784443D01*
X65749382Y-32788810D01*
X65747503Y-32788981D01*
X65736084Y-32789500D01*
X64920252Y-32789500D01*
X64914184Y-32790707D01*
X64873939Y-32798712D01*
X64873938Y-32798712D01*
X64861769Y-32801133D01*
X64795448Y-32845448D01*
X64788557Y-32855761D01*
X64761159Y-32896765D01*
X64751133Y-32911769D01*
X64739500Y-32970252D01*
X64739500Y-33773817D01*
X64738715Y-33787862D01*
X64736137Y-33810842D01*
X64734520Y-33825262D01*
X64737318Y-33858581D01*
X64739058Y-33879302D01*
X64739500Y-33889846D01*
X64739500Y-36509748D01*
X64740707Y-36515816D01*
X64748712Y-36556058D01*
X64751133Y-36568231D01*
X64795448Y-36634552D01*
X64861769Y-36678867D01*
X64873938Y-36681288D01*
X64873939Y-36681288D01*
X64914184Y-36689293D01*
X64920252Y-36690500D01*
X65338500Y-36690500D01*
X65406621Y-36710502D01*
X65453114Y-36764158D01*
X65464500Y-36816500D01*
X65464500Y-41867745D01*
X65444498Y-41935866D01*
X65390842Y-41982359D01*
X65317013Y-41990965D01*
X65316979Y-41991314D01*
X65315373Y-41991156D01*
X65313923Y-41991325D01*
X65304748Y-41989500D01*
X65001500Y-41989500D01*
X64933379Y-41969498D01*
X64886886Y-41915842D01*
X64875500Y-41863500D01*
X64875500Y-41849711D01*
X64875980Y-41838729D01*
X64878303Y-41812176D01*
X64879264Y-41801194D01*
X64873973Y-41781446D01*
X64869511Y-41764792D01*
X64867133Y-41754065D01*
X64862504Y-41727815D01*
X64862502Y-41727810D01*
X64860588Y-41716955D01*
X64855075Y-41707407D01*
X64853883Y-41704131D01*
X64852409Y-41700969D01*
X64849554Y-41690316D01*
X64827945Y-41659456D01*
X64822039Y-41650185D01*
X64808707Y-41627094D01*
X64803194Y-41617545D01*
X64774317Y-41593315D01*
X64766215Y-41585889D01*
X60085921Y-36905595D01*
X60051895Y-36843283D01*
X60056960Y-36772468D01*
X60099507Y-36715632D01*
X60166027Y-36690821D01*
X60175016Y-36690500D01*
X61579748Y-36690500D01*
X61585816Y-36689293D01*
X61626061Y-36681288D01*
X61626062Y-36681288D01*
X61638231Y-36678867D01*
X61704552Y-36634552D01*
X61748867Y-36568231D01*
X61751289Y-36556058D01*
X61759293Y-36515816D01*
X61760500Y-36509748D01*
X62199500Y-36509748D01*
X62200707Y-36515816D01*
X62208712Y-36556058D01*
X62211133Y-36568231D01*
X62255448Y-36634552D01*
X62321769Y-36678867D01*
X62333938Y-36681288D01*
X62333939Y-36681288D01*
X62374184Y-36689293D01*
X62380252Y-36690500D01*
X64119748Y-36690500D01*
X64125816Y-36689293D01*
X64166061Y-36681288D01*
X64166062Y-36681288D01*
X64178231Y-36678867D01*
X64244552Y-36634552D01*
X64288867Y-36568231D01*
X64291289Y-36556058D01*
X64299293Y-36515816D01*
X64300500Y-36509748D01*
X64300500Y-32970252D01*
X64288867Y-32911769D01*
X64278842Y-32896765D01*
X64251443Y-32855761D01*
X64244552Y-32845448D01*
X64178231Y-32801133D01*
X64166062Y-32798712D01*
X64166061Y-32798712D01*
X64125816Y-32790707D01*
X64119748Y-32789500D01*
X62380252Y-32789500D01*
X62374184Y-32790707D01*
X62333939Y-32798712D01*
X62333938Y-32798712D01*
X62321769Y-32801133D01*
X62255448Y-32845448D01*
X62248557Y-32855761D01*
X62221159Y-32896765D01*
X62211133Y-32911769D01*
X62199500Y-32970252D01*
X62199500Y-36509748D01*
X61760500Y-36509748D01*
X61760500Y-32970252D01*
X61748867Y-32911769D01*
X61738842Y-32896765D01*
X61711443Y-32855761D01*
X61704552Y-32845448D01*
X61638231Y-32801133D01*
X61626062Y-32798712D01*
X61626061Y-32798712D01*
X61585816Y-32790707D01*
X61579748Y-32789500D01*
X59840252Y-32789500D01*
X59834184Y-32790707D01*
X59793939Y-32798712D01*
X59793938Y-32798712D01*
X59781769Y-32801133D01*
X59715448Y-32845448D01*
X59708557Y-32855761D01*
X59681159Y-32896765D01*
X59671133Y-32911769D01*
X59659500Y-32970252D01*
X59659500Y-36174984D01*
X59639498Y-36243105D01*
X59585842Y-36289598D01*
X59515568Y-36299702D01*
X59450988Y-36270208D01*
X59444405Y-36264079D01*
X59257405Y-36077079D01*
X59223379Y-36014767D01*
X59220500Y-35987984D01*
X59220500Y-32970252D01*
X59208867Y-32911769D01*
X59198842Y-32896765D01*
X59171443Y-32855761D01*
X59164552Y-32845448D01*
X59098231Y-32801133D01*
X59086062Y-32798712D01*
X59086061Y-32798712D01*
X59045816Y-32790707D01*
X59039748Y-32789500D01*
X57300252Y-32789500D01*
X57294184Y-32790707D01*
X57253939Y-32798712D01*
X57253938Y-32798712D01*
X57241769Y-32801133D01*
X57175448Y-32845448D01*
X57168557Y-32855761D01*
X57141159Y-32896765D01*
X57131133Y-32911769D01*
X57119500Y-32970252D01*
X57119500Y-36509748D01*
X57120707Y-36515816D01*
X57128712Y-36556058D01*
X57131133Y-36568231D01*
X57175448Y-36634552D01*
X57241769Y-36678867D01*
X57253938Y-36681288D01*
X57253939Y-36681288D01*
X57294184Y-36689293D01*
X57300252Y-36690500D01*
X58897984Y-36690500D01*
X58966105Y-36710502D01*
X58987079Y-36727405D01*
X64034079Y-41774405D01*
X64068105Y-41836717D01*
X64063040Y-41907532D01*
X64020493Y-41964368D01*
X63953973Y-41989179D01*
X63944984Y-41989500D01*
X63795252Y-41989500D01*
X63789184Y-41990707D01*
X63748939Y-41998712D01*
X63748938Y-41998712D01*
X63736769Y-42001133D01*
X63726453Y-42008026D01*
X63702342Y-42024137D01*
X63670448Y-42045448D01*
X63663557Y-42055761D01*
X63635724Y-42097416D01*
X63626133Y-42111769D01*
X63614500Y-42170252D01*
X63614500Y-42898500D01*
X63594498Y-42966621D01*
X63540842Y-43013114D01*
X63488500Y-43024500D01*
X62706500Y-43024500D01*
X62638379Y-43004498D01*
X62591886Y-42950842D01*
X62580500Y-42898500D01*
X62580500Y-42690252D01*
X62568867Y-42631769D01*
X62524552Y-42565448D01*
X62458231Y-42521133D01*
X62446062Y-42518712D01*
X62446061Y-42518712D01*
X62405816Y-42510707D01*
X62399748Y-42509500D01*
X62031381Y-42509500D01*
X61963260Y-42489498D01*
X61926616Y-42453502D01*
X61921445Y-42445763D01*
X61921443Y-42445761D01*
X61914552Y-42435448D01*
X61848231Y-42391133D01*
X61836062Y-42388712D01*
X61836061Y-42388712D01*
X61795816Y-42380707D01*
X61789748Y-42379500D01*
X61581500Y-42379500D01*
X61513379Y-42359498D01*
X61466886Y-42305842D01*
X61455500Y-42253500D01*
X61455500Y-42250744D01*
X61475502Y-42182623D01*
X61481537Y-42174040D01*
X61506458Y-42141562D01*
X61574536Y-42052841D01*
X61635044Y-41906762D01*
X61655682Y-41750000D01*
X61635044Y-41593238D01*
X61574536Y-41447159D01*
X61502383Y-41353127D01*
X61483305Y-41328264D01*
X61478282Y-41321718D01*
X61463573Y-41310431D01*
X61409883Y-41269234D01*
X61352841Y-41225464D01*
X61206762Y-41164956D01*
X61050000Y-41144318D01*
X60893238Y-41164956D01*
X60747159Y-41225464D01*
X60740608Y-41230491D01*
X60740603Y-41230494D01*
X60633019Y-41313046D01*
X60566799Y-41338647D01*
X60497250Y-41324382D01*
X60478948Y-41310850D01*
X60478282Y-41311718D01*
X60456770Y-41295211D01*
X60352841Y-41215464D01*
X60206762Y-41154956D01*
X60175073Y-41150784D01*
X60058188Y-41135396D01*
X60050000Y-41134318D01*
X60041812Y-41135396D01*
X59924928Y-41150784D01*
X59893238Y-41154956D01*
X59747159Y-41215464D01*
X59621718Y-41311718D01*
X59620731Y-41310431D01*
X59566783Y-41339890D01*
X59495968Y-41334825D01*
X59452007Y-41306572D01*
X59448282Y-41301718D01*
X59322841Y-41205464D01*
X59176762Y-41144956D01*
X59020000Y-41124318D01*
X58863238Y-41144956D01*
X58717159Y-41205464D01*
X58591718Y-41301718D01*
X58586695Y-41308264D01*
X58576181Y-41321966D01*
X58495464Y-41427159D01*
X58475448Y-41475482D01*
X58441079Y-41558457D01*
X58434956Y-41573238D01*
X58414318Y-41730000D01*
X58415396Y-41738188D01*
X58431894Y-41863500D01*
X58434956Y-41886762D01*
X58495464Y-42032841D01*
X58591718Y-42158282D01*
X58644532Y-42198807D01*
X58645204Y-42199323D01*
X58687071Y-42256661D01*
X58694500Y-42299286D01*
X58694500Y-43770290D01*
X58694020Y-43781272D01*
X58692400Y-43799792D01*
X58690736Y-43818807D01*
X58693590Y-43829456D01*
X58700491Y-43855210D01*
X58702870Y-43865942D01*
X58709412Y-43903045D01*
X58714923Y-43912590D01*
X58716115Y-43915866D01*
X58717592Y-43919034D01*
X58720446Y-43929684D01*
X58735807Y-43951621D01*
X58742055Y-43960544D01*
X58747961Y-43969815D01*
X58756440Y-43984500D01*
X58766806Y-44002455D01*
X58787470Y-44019794D01*
X58795681Y-44026684D01*
X58803785Y-44034111D01*
X59835895Y-45066222D01*
X59843315Y-45074318D01*
X59867545Y-45103194D01*
X59877088Y-45108704D01*
X59877092Y-45108707D01*
X59900179Y-45122036D01*
X59909449Y-45127941D01*
X59929171Y-45141750D01*
X59940316Y-45149554D01*
X59950964Y-45152407D01*
X59954135Y-45153886D01*
X59957411Y-45155078D01*
X59966955Y-45160588D01*
X60004076Y-45167134D01*
X60014783Y-45169508D01*
X60051193Y-45179263D01*
X60062168Y-45178303D01*
X60062170Y-45178303D01*
X60088731Y-45175979D01*
X60099712Y-45175500D01*
X61084640Y-45175500D01*
X61095622Y-45175980D01*
X61100550Y-45176411D01*
X61111193Y-45179263D01*
X61122168Y-45178303D01*
X61122169Y-45178303D01*
X61148731Y-45175979D01*
X61159712Y-45175500D01*
X61168475Y-45175500D01*
X61177113Y-45173977D01*
X61188002Y-45172544D01*
X61204588Y-45171093D01*
X61225545Y-45169259D01*
X61235540Y-45164598D01*
X61238914Y-45163694D01*
X61242188Y-45162502D01*
X61253045Y-45160588D01*
X61285689Y-45141741D01*
X61295424Y-45136674D01*
X61319588Y-45125406D01*
X61329579Y-45120747D01*
X61337374Y-45112952D01*
X61340236Y-45110948D01*
X61342908Y-45108706D01*
X61352455Y-45103194D01*
X61376685Y-45074317D01*
X61384111Y-45066215D01*
X61410747Y-45039579D01*
X61415405Y-45029591D01*
X61417409Y-45026729D01*
X61419155Y-45023705D01*
X61426240Y-45015261D01*
X61439127Y-44979855D01*
X61443333Y-44969699D01*
X61454601Y-44945535D01*
X61459259Y-44935546D01*
X61460219Y-44924566D01*
X61461500Y-44919786D01*
X61462109Y-44917853D01*
X61462548Y-44915875D01*
X61462925Y-44914468D01*
X61463125Y-44913918D01*
X61463332Y-44913974D01*
X61464806Y-44909300D01*
X61465499Y-44907396D01*
X61469694Y-44908923D01*
X61484807Y-44869812D01*
X61542139Y-44827935D01*
X61584782Y-44820500D01*
X61789748Y-44820500D01*
X61795816Y-44819293D01*
X61836061Y-44811288D01*
X61836062Y-44811288D01*
X61848231Y-44808867D01*
X61914552Y-44764552D01*
X61921443Y-44754239D01*
X61921445Y-44754237D01*
X61926616Y-44746498D01*
X61981093Y-44700970D01*
X62031381Y-44690500D01*
X62399748Y-44690500D01*
X62458231Y-44678867D01*
X62458609Y-44680768D01*
X62485096Y-44675500D01*
X63488500Y-44675500D01*
X63556621Y-44695502D01*
X63603114Y-44749158D01*
X63614500Y-44801500D01*
X63614500Y-44829748D01*
X63615707Y-44835816D01*
X63622285Y-44868884D01*
X63626133Y-44888231D01*
X63633026Y-44898547D01*
X63638939Y-44907396D01*
X63670448Y-44954552D01*
X63736769Y-44998867D01*
X63775847Y-45006640D01*
X63838756Y-45039548D01*
X63873888Y-45101243D01*
X63870088Y-45172138D01*
X63840360Y-45219314D01*
X62752079Y-46307595D01*
X62689767Y-46341621D01*
X62662984Y-46344500D01*
X53997211Y-46344500D01*
X53986229Y-46344020D01*
X53959679Y-46341697D01*
X53959678Y-46341697D01*
X53948694Y-46340736D01*
X53938043Y-46343590D01*
X53938042Y-46343590D01*
X53912292Y-46350489D01*
X53901565Y-46352867D01*
X53875315Y-46357496D01*
X53875310Y-46357498D01*
X53864455Y-46359412D01*
X53854907Y-46364925D01*
X53851631Y-46366117D01*
X53848469Y-46367591D01*
X53837816Y-46370446D01*
X53828785Y-46376770D01*
X53806956Y-46392055D01*
X53797685Y-46397961D01*
X53774594Y-46411293D01*
X53765045Y-46416806D01*
X53757959Y-46425251D01*
X53740815Y-46445682D01*
X53733389Y-46453785D01*
X50079579Y-50107595D01*
X50017267Y-50141621D01*
X49990484Y-50144500D01*
X48420016Y-50144500D01*
X48351895Y-50124498D01*
X48305402Y-50070842D01*
X48295298Y-50000568D01*
X48324792Y-49935988D01*
X48330921Y-49929405D01*
X51992074Y-46268253D01*
X55846222Y-42414105D01*
X55854326Y-42406678D01*
X55874749Y-42389541D01*
X55883194Y-42382455D01*
X55902039Y-42349815D01*
X55907943Y-42340547D01*
X55923231Y-42318713D01*
X55929553Y-42309684D01*
X55932406Y-42299038D01*
X55933883Y-42295870D01*
X55935076Y-42292593D01*
X55940588Y-42283045D01*
X55947132Y-42245931D01*
X55949512Y-42235196D01*
X55956410Y-42209454D01*
X55959263Y-42198807D01*
X55957848Y-42182623D01*
X55955979Y-42161269D01*
X55955500Y-42150288D01*
X55955500Y-36816500D01*
X55975502Y-36748379D01*
X56029158Y-36701886D01*
X56081500Y-36690500D01*
X56499748Y-36690500D01*
X56505816Y-36689293D01*
X56546061Y-36681288D01*
X56546062Y-36681288D01*
X56558231Y-36678867D01*
X56624552Y-36634552D01*
X56668867Y-36568231D01*
X56671289Y-36556058D01*
X56679293Y-36515816D01*
X56680500Y-36509748D01*
X56680500Y-33914373D01*
X56681494Y-33898581D01*
X56684728Y-33872978D01*
X56685171Y-33869474D01*
X56685583Y-33840000D01*
X56681101Y-33794288D01*
X56680500Y-33781994D01*
X56680500Y-32970252D01*
X56668867Y-32911769D01*
X56658842Y-32896765D01*
X56631443Y-32855761D01*
X56624552Y-32845448D01*
X56558231Y-32801133D01*
X56546062Y-32798712D01*
X56546061Y-32798712D01*
X56505816Y-32790707D01*
X56499748Y-32789500D01*
X55692089Y-32789500D01*
X55678919Y-32788810D01*
X55643498Y-32785087D01*
X55643496Y-32785087D01*
X55637369Y-32784443D01*
X55589382Y-32788810D01*
X55587503Y-32788981D01*
X55576084Y-32789500D01*
X54760252Y-32789500D01*
X54754184Y-32790707D01*
X54713939Y-32798712D01*
X54713938Y-32798712D01*
X54701769Y-32801133D01*
X54635448Y-32845448D01*
X54628557Y-32855761D01*
X54601159Y-32896765D01*
X54591133Y-32911769D01*
X54579500Y-32970252D01*
X54579500Y-33773817D01*
X54578715Y-33787862D01*
X54576137Y-33810842D01*
X54574520Y-33825262D01*
X54577318Y-33858581D01*
X54579058Y-33879302D01*
X54579500Y-33889846D01*
X54579500Y-36509748D01*
X54580707Y-36515816D01*
X54588712Y-36556058D01*
X54591133Y-36568231D01*
X54635448Y-36634552D01*
X54701769Y-36678867D01*
X54713938Y-36681288D01*
X54713939Y-36681288D01*
X54754184Y-36689293D01*
X54760252Y-36690500D01*
X55178500Y-36690500D01*
X55246621Y-36710502D01*
X55293114Y-36764158D01*
X55304500Y-36816500D01*
X55304500Y-41982983D01*
X55284498Y-42051104D01*
X55267595Y-42072078D01*
X47682079Y-49657595D01*
X47619767Y-49691621D01*
X47592984Y-49694500D01*
X34322521Y-49694500D01*
X34254400Y-49674498D01*
X34207907Y-49620842D01*
X34197803Y-49550568D01*
X34227297Y-49485988D01*
X34288637Y-49447142D01*
X34373804Y-49423363D01*
X34373808Y-49423362D01*
X34379748Y-49421703D01*
X34480704Y-49370707D01*
X34542728Y-49339377D01*
X34542730Y-49339376D01*
X34548229Y-49336598D01*
X34696970Y-49220388D01*
X34700996Y-49215724D01*
X34700999Y-49215721D01*
X34816278Y-49082169D01*
X34816279Y-49082167D01*
X34820307Y-49077501D01*
X34827479Y-49064877D01*
X34844897Y-49034215D01*
X34913542Y-48913378D01*
X34973123Y-48734272D01*
X34996780Y-48547005D01*
X34997157Y-48520000D01*
X34978738Y-48332145D01*
X34924181Y-48151445D01*
X34835566Y-47984783D01*
X34827441Y-47974820D01*
X34758819Y-47890683D01*
X34716266Y-47838508D01*
X34710475Y-47833717D01*
X34575577Y-47722120D01*
X34575574Y-47722118D01*
X34570827Y-47718191D01*
X34467126Y-47662120D01*
X34456107Y-47656162D01*
X34405698Y-47606167D01*
X34390321Y-47536856D01*
X34414857Y-47470234D01*
X34471517Y-47427453D01*
X34516036Y-47419326D01*
X39436810Y-47419326D01*
X39504931Y-47439328D01*
X39525905Y-47456231D01*
X40058349Y-47988675D01*
X40092375Y-48050987D01*
X40089356Y-48115866D01*
X40043978Y-48258917D01*
X40043292Y-48265036D01*
X40043291Y-48265039D01*
X40029941Y-48384056D01*
X40022937Y-48446496D01*
X40038732Y-48634590D01*
X40040431Y-48640515D01*
X40085026Y-48796036D01*
X40090760Y-48816034D01*
X40131276Y-48894869D01*
X40163574Y-48957714D01*
X40177040Y-48983917D01*
X40180865Y-48988743D01*
X40180867Y-48988746D01*
X40290456Y-49127014D01*
X40290460Y-49127019D01*
X40294285Y-49131844D01*
X40438030Y-49254180D01*
X40443408Y-49257186D01*
X40443410Y-49257187D01*
X40495743Y-49286435D01*
X40602800Y-49346267D01*
X40782317Y-49404595D01*
X40969745Y-49426945D01*
X40975880Y-49426473D01*
X40975882Y-49426473D01*
X41151803Y-49412937D01*
X41151807Y-49412936D01*
X41157945Y-49412464D01*
X41163877Y-49410808D01*
X41163881Y-49410807D01*
X41333804Y-49363363D01*
X41333808Y-49363362D01*
X41339748Y-49361703D01*
X41439847Y-49311140D01*
X41502728Y-49279377D01*
X41502730Y-49279376D01*
X41508229Y-49276598D01*
X41656970Y-49160388D01*
X41660996Y-49155724D01*
X41660999Y-49155721D01*
X41776278Y-49022169D01*
X41776279Y-49022167D01*
X41780307Y-49017501D01*
X41873542Y-48853378D01*
X41933123Y-48674272D01*
X41956780Y-48487005D01*
X41957157Y-48460000D01*
X41955833Y-48446496D01*
X42562937Y-48446496D01*
X42578732Y-48634590D01*
X42580431Y-48640515D01*
X42625026Y-48796036D01*
X42630760Y-48816034D01*
X42671276Y-48894869D01*
X42703574Y-48957714D01*
X42717040Y-48983917D01*
X42720865Y-48988743D01*
X42720867Y-48988746D01*
X42830456Y-49127014D01*
X42830460Y-49127019D01*
X42834285Y-49131844D01*
X42978030Y-49254180D01*
X42983408Y-49257186D01*
X42983410Y-49257187D01*
X43035743Y-49286435D01*
X43142800Y-49346267D01*
X43322317Y-49404595D01*
X43509745Y-49426945D01*
X43515880Y-49426473D01*
X43515882Y-49426473D01*
X43691803Y-49412937D01*
X43691807Y-49412936D01*
X43697945Y-49412464D01*
X43703877Y-49410808D01*
X43703881Y-49410807D01*
X43873804Y-49363363D01*
X43873808Y-49363362D01*
X43879748Y-49361703D01*
X43979847Y-49311140D01*
X44042728Y-49279377D01*
X44042730Y-49279376D01*
X44048229Y-49276598D01*
X44196970Y-49160388D01*
X44200996Y-49155724D01*
X44200999Y-49155721D01*
X44316278Y-49022169D01*
X44316279Y-49022167D01*
X44320307Y-49017501D01*
X44413542Y-48853378D01*
X44473123Y-48674272D01*
X44496780Y-48487005D01*
X44497157Y-48460000D01*
X44495833Y-48446496D01*
X45102937Y-48446496D01*
X45118732Y-48634590D01*
X45120431Y-48640515D01*
X45165026Y-48796036D01*
X45170760Y-48816034D01*
X45211276Y-48894869D01*
X45243574Y-48957714D01*
X45257040Y-48983917D01*
X45260865Y-48988743D01*
X45260867Y-48988746D01*
X45370456Y-49127014D01*
X45370460Y-49127019D01*
X45374285Y-49131844D01*
X45518030Y-49254180D01*
X45523408Y-49257186D01*
X45523410Y-49257187D01*
X45575743Y-49286435D01*
X45682800Y-49346267D01*
X45862317Y-49404595D01*
X46049745Y-49426945D01*
X46055880Y-49426473D01*
X46055882Y-49426473D01*
X46231803Y-49412937D01*
X46231807Y-49412936D01*
X46237945Y-49412464D01*
X46243877Y-49410808D01*
X46243881Y-49410807D01*
X46413804Y-49363363D01*
X46413808Y-49363362D01*
X46419748Y-49361703D01*
X46519847Y-49311140D01*
X46582728Y-49279377D01*
X46582730Y-49279376D01*
X46588229Y-49276598D01*
X46736970Y-49160388D01*
X46740996Y-49155724D01*
X46740999Y-49155721D01*
X46856278Y-49022169D01*
X46856279Y-49022167D01*
X46860307Y-49017501D01*
X46953542Y-48853378D01*
X47013123Y-48674272D01*
X47036780Y-48487005D01*
X47037157Y-48460000D01*
X47018738Y-48272145D01*
X46964181Y-48091445D01*
X46875566Y-47924783D01*
X46858007Y-47903253D01*
X46773992Y-47800242D01*
X46756266Y-47778508D01*
X46745114Y-47769282D01*
X46615577Y-47662120D01*
X46615574Y-47662118D01*
X46610827Y-47658191D01*
X46444788Y-47568414D01*
X46264474Y-47512597D01*
X46258356Y-47511954D01*
X46258351Y-47511953D01*
X46082881Y-47493511D01*
X46082879Y-47493511D01*
X46076752Y-47492867D01*
X45961125Y-47503390D01*
X45894914Y-47509415D01*
X45894913Y-47509415D01*
X45888773Y-47509974D01*
X45707697Y-47563268D01*
X45702232Y-47566125D01*
X45584186Y-47627838D01*
X45540420Y-47650718D01*
X45393316Y-47768993D01*
X45271986Y-47913588D01*
X45269016Y-47918991D01*
X45269015Y-47918992D01*
X45205650Y-48034252D01*
X45181052Y-48078996D01*
X45123978Y-48258917D01*
X45123292Y-48265036D01*
X45123291Y-48265039D01*
X45109941Y-48384056D01*
X45102937Y-48446496D01*
X44495833Y-48446496D01*
X44478738Y-48272145D01*
X44430833Y-48113477D01*
X44430292Y-48042485D01*
X44462360Y-47987966D01*
X53306215Y-39144111D01*
X53314319Y-39136684D01*
X53334749Y-39119541D01*
X53343194Y-39112455D01*
X53350332Y-39100091D01*
X53362039Y-39079815D01*
X53367945Y-39070544D01*
X53389554Y-39039684D01*
X53392408Y-39029034D01*
X53393885Y-39025866D01*
X53395077Y-39022590D01*
X53400588Y-39013045D01*
X53407130Y-38975942D01*
X53409509Y-38965210D01*
X53419264Y-38928807D01*
X53418227Y-38916945D01*
X53415979Y-38891257D01*
X53415500Y-38880276D01*
X53415500Y-36816500D01*
X53435502Y-36748379D01*
X53489158Y-36701886D01*
X53541500Y-36690500D01*
X53959748Y-36690500D01*
X53965816Y-36689293D01*
X54006061Y-36681288D01*
X54006062Y-36681288D01*
X54018231Y-36678867D01*
X54084552Y-36634552D01*
X54128867Y-36568231D01*
X54131289Y-36556058D01*
X54139293Y-36515816D01*
X54140500Y-36509748D01*
X54140500Y-33914373D01*
X54141494Y-33898581D01*
X54144728Y-33872978D01*
X54145171Y-33869474D01*
X54145583Y-33840000D01*
X54141101Y-33794288D01*
X54140500Y-33781994D01*
X54140500Y-32970252D01*
X54128867Y-32911769D01*
X54118842Y-32896765D01*
X54091443Y-32855761D01*
X54084552Y-32845448D01*
X54018231Y-32801133D01*
X54006062Y-32798712D01*
X54006061Y-32798712D01*
X53965816Y-32790707D01*
X53959748Y-32789500D01*
X53152089Y-32789500D01*
X53138919Y-32788810D01*
X53103498Y-32785087D01*
X53103496Y-32785087D01*
X53097369Y-32784443D01*
X53049382Y-32788810D01*
X53047503Y-32788981D01*
X53036084Y-32789500D01*
X52220252Y-32789500D01*
X52214184Y-32790707D01*
X52173939Y-32798712D01*
X52173938Y-32798712D01*
X52161769Y-32801133D01*
X52095448Y-32845448D01*
X52088557Y-32855761D01*
X52061159Y-32896765D01*
X52051133Y-32911769D01*
X52039500Y-32970252D01*
X52039500Y-33773817D01*
X52038715Y-33787862D01*
X52036137Y-33810842D01*
X52034520Y-33825262D01*
X52037318Y-33858581D01*
X52039058Y-33879302D01*
X52039500Y-33889846D01*
X52039500Y-36509748D01*
X52040707Y-36515816D01*
X52048712Y-36556058D01*
X52051133Y-36568231D01*
X52095448Y-36634552D01*
X52161769Y-36678867D01*
X52173938Y-36681288D01*
X52173939Y-36681288D01*
X52214184Y-36689293D01*
X52220252Y-36690500D01*
X52638500Y-36690500D01*
X52706621Y-36710502D01*
X52753114Y-36764158D01*
X52764500Y-36816500D01*
X52764500Y-38712984D01*
X52744498Y-38781105D01*
X52727595Y-38802079D01*
X44001657Y-47528017D01*
X43939345Y-47562043D01*
X43875304Y-47559287D01*
X43724474Y-47512597D01*
X43718356Y-47511954D01*
X43718351Y-47511953D01*
X43542881Y-47493511D01*
X43542879Y-47493511D01*
X43536752Y-47492867D01*
X43421125Y-47503390D01*
X43354914Y-47509415D01*
X43354913Y-47509415D01*
X43348773Y-47509974D01*
X43167697Y-47563268D01*
X43162232Y-47566125D01*
X43044186Y-47627838D01*
X43000420Y-47650718D01*
X42853316Y-47768993D01*
X42731986Y-47913588D01*
X42729016Y-47918991D01*
X42729015Y-47918992D01*
X42665650Y-48034252D01*
X42641052Y-48078996D01*
X42583978Y-48258917D01*
X42583292Y-48265036D01*
X42583291Y-48265039D01*
X42569941Y-48384056D01*
X42562937Y-48446496D01*
X41955833Y-48446496D01*
X41938738Y-48272145D01*
X41884181Y-48091445D01*
X41795566Y-47924783D01*
X41778007Y-47903253D01*
X41693992Y-47800242D01*
X41676266Y-47778508D01*
X41665114Y-47769282D01*
X41535577Y-47662120D01*
X41535574Y-47662118D01*
X41530827Y-47658191D01*
X41525406Y-47655260D01*
X41525402Y-47655257D01*
X41381572Y-47577489D01*
X41331163Y-47527494D01*
X41315500Y-47466653D01*
X41315500Y-45721500D01*
X41335502Y-45653379D01*
X41389158Y-45606886D01*
X41441500Y-45595500D01*
X41569748Y-45595500D01*
X41575816Y-45594293D01*
X41616061Y-45586288D01*
X41616062Y-45586288D01*
X41628231Y-45583867D01*
X41694552Y-45539552D01*
X41701443Y-45529239D01*
X41701446Y-45529236D01*
X41735236Y-45478667D01*
X41789713Y-45433140D01*
X41860156Y-45424293D01*
X41924200Y-45454934D01*
X41944764Y-45478667D01*
X41978554Y-45529236D01*
X41978557Y-45529239D01*
X41985448Y-45539552D01*
X42051769Y-45583867D01*
X42063938Y-45586288D01*
X42063939Y-45586288D01*
X42104184Y-45594293D01*
X42110252Y-45595500D01*
X43169748Y-45595500D01*
X43175816Y-45594293D01*
X43216061Y-45586288D01*
X43216062Y-45586288D01*
X43228231Y-45583867D01*
X43294552Y-45539552D01*
X43338867Y-45473231D01*
X43341385Y-45460575D01*
X43349293Y-45420816D01*
X43350500Y-45414748D01*
X43350500Y-43905252D01*
X43342921Y-43867150D01*
X43340500Y-43842568D01*
X43340500Y-42387562D01*
X43363413Y-42315111D01*
X43380705Y-42290507D01*
X43384638Y-42285212D01*
X43418896Y-42241521D01*
X43418897Y-42241519D01*
X43423583Y-42235543D01*
X43426708Y-42228621D01*
X43428481Y-42225694D01*
X43435906Y-42212675D01*
X43437517Y-42209671D01*
X43441887Y-42203453D01*
X43464820Y-42144633D01*
X43467375Y-42138555D01*
X43490228Y-42087943D01*
X43490229Y-42087941D01*
X43493355Y-42081017D01*
X43494740Y-42073545D01*
X43495767Y-42070267D01*
X43499863Y-42055886D01*
X43500715Y-42052570D01*
X43503476Y-42045487D01*
X43511717Y-41982889D01*
X43512748Y-41976377D01*
X43518569Y-41944973D01*
X43524252Y-41914308D01*
X43520709Y-41852861D01*
X43520500Y-41845609D01*
X43520500Y-38912346D01*
X43540502Y-38844225D01*
X43557405Y-38823251D01*
X45653252Y-36727405D01*
X45715564Y-36693379D01*
X45742347Y-36690500D01*
X46339748Y-36690500D01*
X46345816Y-36689293D01*
X46386061Y-36681288D01*
X46386062Y-36681288D01*
X46398231Y-36678867D01*
X46464552Y-36634552D01*
X46508867Y-36568231D01*
X46511289Y-36556058D01*
X46519293Y-36515816D01*
X46520500Y-36509748D01*
X46959500Y-36509748D01*
X46960707Y-36515816D01*
X46968712Y-36556058D01*
X46971133Y-36568231D01*
X47015448Y-36634552D01*
X47081769Y-36678867D01*
X47093938Y-36681288D01*
X47093939Y-36681288D01*
X47134184Y-36689293D01*
X47140252Y-36690500D01*
X48879748Y-36690500D01*
X48885816Y-36689293D01*
X48926061Y-36681288D01*
X48926062Y-36681288D01*
X48938231Y-36678867D01*
X49004552Y-36634552D01*
X49048867Y-36568231D01*
X49051289Y-36556058D01*
X49059293Y-36515816D01*
X49060500Y-36509748D01*
X49499500Y-36509748D01*
X49500707Y-36515816D01*
X49508712Y-36556058D01*
X49511133Y-36568231D01*
X49555448Y-36634552D01*
X49621769Y-36678867D01*
X49633938Y-36681288D01*
X49633939Y-36681288D01*
X49674184Y-36689293D01*
X49680252Y-36690500D01*
X51419748Y-36690500D01*
X51425816Y-36689293D01*
X51466061Y-36681288D01*
X51466062Y-36681288D01*
X51478231Y-36678867D01*
X51544552Y-36634552D01*
X51588867Y-36568231D01*
X51591289Y-36556058D01*
X51599293Y-36515816D01*
X51600500Y-36509748D01*
X51600500Y-32970252D01*
X51588867Y-32911769D01*
X51578842Y-32896765D01*
X51551443Y-32855761D01*
X51544552Y-32845448D01*
X51478231Y-32801133D01*
X51466062Y-32798712D01*
X51466061Y-32798712D01*
X51425816Y-32790707D01*
X51419748Y-32789500D01*
X49680252Y-32789500D01*
X49674184Y-32790707D01*
X49633939Y-32798712D01*
X49633938Y-32798712D01*
X49621769Y-32801133D01*
X49555448Y-32845448D01*
X49548557Y-32855761D01*
X49521159Y-32896765D01*
X49511133Y-32911769D01*
X49499500Y-32970252D01*
X49499500Y-36509748D01*
X49060500Y-36509748D01*
X49060500Y-32970252D01*
X49048867Y-32911769D01*
X49038842Y-32896765D01*
X49011443Y-32855761D01*
X49004552Y-32845448D01*
X48938231Y-32801133D01*
X48926062Y-32798712D01*
X48926061Y-32798712D01*
X48885816Y-32790707D01*
X48879748Y-32789500D01*
X47140252Y-32789500D01*
X47134184Y-32790707D01*
X47093939Y-32798712D01*
X47093938Y-32798712D01*
X47081769Y-32801133D01*
X47015448Y-32845448D01*
X47008557Y-32855761D01*
X46981159Y-32896765D01*
X46971133Y-32911769D01*
X46959500Y-32970252D01*
X46959500Y-36509748D01*
X46520500Y-36509748D01*
X46520500Y-32970252D01*
X46508867Y-32911769D01*
X46498842Y-32896765D01*
X46471443Y-32855761D01*
X46464552Y-32845448D01*
X46398231Y-32801133D01*
X46386062Y-32798712D01*
X46386061Y-32798712D01*
X46345816Y-32790707D01*
X46339748Y-32789500D01*
X44600252Y-32789500D01*
X44594184Y-32790707D01*
X44553939Y-32798712D01*
X44553938Y-32798712D01*
X44541769Y-32801133D01*
X44475448Y-32845448D01*
X44468557Y-32855761D01*
X44441159Y-32896765D01*
X44431133Y-32911769D01*
X44419500Y-32970252D01*
X44419500Y-35927654D01*
X44399498Y-35995775D01*
X44382595Y-36016749D01*
X44195595Y-36203749D01*
X44133283Y-36237775D01*
X44062468Y-36232710D01*
X44005632Y-36190163D01*
X43980821Y-36123643D01*
X43980500Y-36114654D01*
X43980500Y-33914373D01*
X43981494Y-33898581D01*
X43984728Y-33872978D01*
X43985171Y-33869474D01*
X43985583Y-33840000D01*
X43981101Y-33794288D01*
X43980500Y-33781994D01*
X43980500Y-32970252D01*
X43968867Y-32911769D01*
X43958842Y-32896765D01*
X43931443Y-32855761D01*
X43924552Y-32845448D01*
X43858231Y-32801133D01*
X43846062Y-32798712D01*
X43846061Y-32798712D01*
X43805816Y-32790707D01*
X43799748Y-32789500D01*
X42992089Y-32789500D01*
X42978919Y-32788810D01*
X42943498Y-32785087D01*
X42943496Y-32785087D01*
X42937369Y-32784443D01*
X42889382Y-32788810D01*
X42887503Y-32788981D01*
X42876084Y-32789500D01*
X42060252Y-32789500D01*
X42054184Y-32790707D01*
X42013939Y-32798712D01*
X42013938Y-32798712D01*
X42001769Y-32801133D01*
X41935448Y-32845448D01*
X41928557Y-32855761D01*
X41901159Y-32896765D01*
X41891133Y-32911769D01*
X41879500Y-32970252D01*
X41879500Y-33773817D01*
X41878715Y-33787862D01*
X41876137Y-33810842D01*
X41874520Y-33825262D01*
X41877318Y-33858581D01*
X41879058Y-33879302D01*
X41879500Y-33889846D01*
X41879500Y-36509748D01*
X41891133Y-36568231D01*
X41898030Y-36578552D01*
X41898935Y-36580738D01*
X41906524Y-36651328D01*
X41871621Y-36718052D01*
X40702803Y-37886871D01*
X40640491Y-37920896D01*
X40583015Y-37919981D01*
X40562759Y-37914893D01*
X40555160Y-37914853D01*
X40555158Y-37914853D01*
X40489821Y-37914511D01*
X40404105Y-37914062D01*
X40396724Y-37915834D01*
X40257212Y-37949328D01*
X40257209Y-37949329D01*
X40249833Y-37951100D01*
X40243088Y-37954581D01*
X40243086Y-37954582D01*
X40209289Y-37972026D01*
X40139582Y-37985495D01*
X40073659Y-37959139D01*
X40032449Y-37901326D01*
X40025500Y-37860060D01*
X40025500Y-36816500D01*
X40045502Y-36748379D01*
X40099158Y-36701886D01*
X40151500Y-36690500D01*
X41259748Y-36690500D01*
X41265816Y-36689293D01*
X41306061Y-36681288D01*
X41306062Y-36681288D01*
X41318231Y-36678867D01*
X41384552Y-36634552D01*
X41428867Y-36568231D01*
X41431289Y-36556058D01*
X41439293Y-36515816D01*
X41440500Y-36509748D01*
X41440500Y-33874373D01*
X41441494Y-33858581D01*
X41444728Y-33832978D01*
X41445171Y-33829474D01*
X41445390Y-33813806D01*
X41445534Y-33803522D01*
X41445534Y-33803518D01*
X41445583Y-33800000D01*
X41441101Y-33754288D01*
X41440500Y-33741994D01*
X41440500Y-32970252D01*
X41428867Y-32911769D01*
X41418842Y-32896765D01*
X41391443Y-32855761D01*
X41384552Y-32845448D01*
X41318231Y-32801133D01*
X41306062Y-32798712D01*
X41306061Y-32798712D01*
X41265816Y-32790707D01*
X41259748Y-32789500D01*
X40697300Y-32789500D01*
X40660041Y-32783865D01*
X40602254Y-32765977D01*
X40596129Y-32765333D01*
X40596128Y-32765333D01*
X40403498Y-32745087D01*
X40403496Y-32745087D01*
X40397369Y-32744443D01*
X40310529Y-32752346D01*
X40198342Y-32762555D01*
X40198339Y-32762556D01*
X40192203Y-32763114D01*
X40121697Y-32783865D01*
X40119968Y-32784374D01*
X40084393Y-32789500D01*
X39665016Y-32789500D01*
X39596895Y-32769498D01*
X39550402Y-32715842D01*
X39540298Y-32645568D01*
X39569792Y-32580988D01*
X39575921Y-32574405D01*
X40062921Y-32087405D01*
X40125233Y-32053379D01*
X40152016Y-32050500D01*
X70255290Y-32050500D01*
X70266272Y-32050980D01*
X70292820Y-32053303D01*
X70292822Y-32053303D01*
X70303807Y-32054264D01*
X70340215Y-32044508D01*
X70350942Y-32042130D01*
X70354301Y-32041538D01*
X70388045Y-32035588D01*
X70397590Y-32030077D01*
X70400866Y-32028885D01*
X70404034Y-32027408D01*
X70414684Y-32024554D01*
X70445544Y-32002945D01*
X70454815Y-31997039D01*
X70477906Y-31983707D01*
X70487455Y-31978194D01*
X70511685Y-31949317D01*
X70519111Y-31941215D01*
X70819944Y-31640382D01*
X70882256Y-31606356D01*
X70925483Y-31604555D01*
X71010000Y-31615682D01*
X71018188Y-31614604D01*
X71158574Y-31596122D01*
X71166762Y-31595044D01*
X71312841Y-31534536D01*
X71438282Y-31438282D01*
X71534536Y-31312841D01*
X71595044Y-31166762D01*
X71615682Y-31010000D01*
X71595044Y-30853238D01*
X71534536Y-30707159D01*
X71438282Y-30581718D01*
X71312841Y-30485464D01*
X71166762Y-30424956D01*
X71010000Y-30404318D01*
X70853238Y-30424956D01*
X70707159Y-30485464D01*
X70581718Y-30581718D01*
X70485464Y-30707159D01*
X70424956Y-30853238D01*
X70404318Y-31010000D01*
X70405396Y-31018188D01*
X70405396Y-31018189D01*
X70410791Y-31059169D01*
X70399851Y-31129318D01*
X70374964Y-31164710D01*
X70177079Y-31362595D01*
X70114767Y-31396621D01*
X70087984Y-31399500D01*
X69683278Y-31399500D01*
X69615157Y-31379498D01*
X69568664Y-31325842D01*
X69558560Y-31255568D01*
X69566869Y-31225282D01*
X69591884Y-31164891D01*
X69595044Y-31157262D01*
X69615682Y-31000500D01*
X69595044Y-30843738D01*
X69534536Y-30697659D01*
X69461944Y-30603055D01*
X69443305Y-30578764D01*
X69438282Y-30572218D01*
X69312841Y-30475964D01*
X69185053Y-30423032D01*
X69174391Y-30418616D01*
X69166762Y-30415456D01*
X69010000Y-30394818D01*
X68853238Y-30415456D01*
X68845609Y-30418616D01*
X68834947Y-30423032D01*
X68707159Y-30475964D01*
X68581718Y-30572218D01*
X68576692Y-30578768D01*
X68576689Y-30578771D01*
X68541060Y-30625204D01*
X68483722Y-30667071D01*
X68441098Y-30674500D01*
X38169711Y-30674500D01*
X38158729Y-30674020D01*
X38132179Y-30671697D01*
X38132178Y-30671697D01*
X38121194Y-30670736D01*
X38110543Y-30673590D01*
X38110542Y-30673590D01*
X38084792Y-30680489D01*
X38074065Y-30682867D01*
X38047815Y-30687496D01*
X38047810Y-30687498D01*
X38036955Y-30689412D01*
X38027407Y-30694925D01*
X38024131Y-30696117D01*
X38020969Y-30697591D01*
X38010316Y-30700446D01*
X38001285Y-30706770D01*
X37979456Y-30722055D01*
X37970185Y-30727961D01*
X37947094Y-30741293D01*
X37937545Y-30746806D01*
X37930459Y-30755251D01*
X37913315Y-30775682D01*
X37905889Y-30783785D01*
X35937079Y-32752595D01*
X35874767Y-32786621D01*
X35847984Y-32789500D01*
X34440252Y-32789500D01*
X34434184Y-32790707D01*
X34393939Y-32798712D01*
X34393938Y-32798712D01*
X34381769Y-32801133D01*
X34315448Y-32845448D01*
X34308557Y-32855761D01*
X34281159Y-32896765D01*
X34271133Y-32911769D01*
X34259500Y-32970252D01*
X34259500Y-36509748D01*
X34260707Y-36515816D01*
X34268712Y-36556058D01*
X34271133Y-36568231D01*
X34315448Y-36634552D01*
X34381769Y-36678867D01*
X34393938Y-36681288D01*
X34393939Y-36681288D01*
X34434184Y-36689293D01*
X34440252Y-36690500D01*
X36179748Y-36690500D01*
X36185816Y-36689293D01*
X36226061Y-36681288D01*
X36226062Y-36681288D01*
X36238231Y-36678867D01*
X36304552Y-36634552D01*
X36348867Y-36568231D01*
X36351289Y-36556058D01*
X36359293Y-36515816D01*
X36360500Y-36509748D01*
X36360500Y-33302016D01*
X36380502Y-33233895D01*
X36397405Y-33212921D01*
X36584405Y-33025921D01*
X36646717Y-32991895D01*
X36717532Y-32996960D01*
X36774368Y-33039507D01*
X36799179Y-33106027D01*
X36799500Y-33115016D01*
X36799500Y-36509748D01*
X36800707Y-36515816D01*
X36808712Y-36556058D01*
X36811133Y-36568231D01*
X36855448Y-36634552D01*
X36921769Y-36678867D01*
X36933938Y-36681288D01*
X36933939Y-36681288D01*
X36974184Y-36689293D01*
X36980252Y-36690500D01*
X38719748Y-36690500D01*
X38725816Y-36689293D01*
X38766061Y-36681288D01*
X38766062Y-36681288D01*
X38778231Y-36678867D01*
X38844552Y-36634552D01*
X38888867Y-36568231D01*
X38891289Y-36556058D01*
X38899293Y-36515816D01*
X38900500Y-36509748D01*
X38900500Y-33302016D01*
X38920502Y-33233895D01*
X38937405Y-33212921D01*
X39124405Y-33025921D01*
X39186717Y-32991895D01*
X39257532Y-32996960D01*
X39314368Y-33039507D01*
X39339179Y-33106027D01*
X39339500Y-33115016D01*
X39339500Y-33733817D01*
X39338715Y-33747862D01*
X39334520Y-33785262D01*
X39335036Y-33791405D01*
X39339058Y-33839302D01*
X39339500Y-33849846D01*
X39339500Y-36509748D01*
X39351133Y-36568231D01*
X39358029Y-36578551D01*
X39362777Y-36590015D01*
X39359338Y-36591439D01*
X39374500Y-36641424D01*
X39374500Y-39420290D01*
X39374020Y-39431272D01*
X39371746Y-39457266D01*
X39370736Y-39468807D01*
X39380491Y-39505210D01*
X39382870Y-39515942D01*
X39389412Y-39553045D01*
X39394923Y-39562590D01*
X39396115Y-39565866D01*
X39397592Y-39569034D01*
X39400446Y-39579684D01*
X39415858Y-39601694D01*
X39422055Y-39610544D01*
X39427961Y-39619815D01*
X39435356Y-39632623D01*
X39446806Y-39652455D01*
X39455251Y-39659541D01*
X39475682Y-39676685D01*
X39483785Y-39684111D01*
X39798242Y-39998568D01*
X39832268Y-40060880D01*
X39834069Y-40104109D01*
X39820713Y-40205553D01*
X39820713Y-40205558D01*
X39819722Y-40213085D01*
X39822463Y-40237911D01*
X39833421Y-40337165D01*
X39837132Y-40370783D01*
X39839741Y-40377914D01*
X39839742Y-40377916D01*
X39881707Y-40492590D01*
X39891656Y-40519776D01*
X39895892Y-40526079D01*
X39895892Y-40526080D01*
X39926560Y-40571718D01*
X39980146Y-40651463D01*
X39985765Y-40656576D01*
X39985766Y-40656577D01*
X40084963Y-40746839D01*
X40097493Y-40758240D01*
X40236922Y-40833944D01*
X40244264Y-40835870D01*
X40244266Y-40835871D01*
X40254646Y-40838594D01*
X40272966Y-40843400D01*
X40333781Y-40880033D01*
X40365137Y-40943730D01*
X40357078Y-41014268D01*
X40312163Y-41069251D01*
X40283674Y-41083827D01*
X40209333Y-41110591D01*
X40202775Y-41115048D01*
X40202773Y-41115049D01*
X40118411Y-41172383D01*
X40072354Y-41203684D01*
X40067115Y-41209626D01*
X40067112Y-41209629D01*
X40018034Y-41265297D01*
X39962828Y-41327915D01*
X39887640Y-41475482D01*
X39885911Y-41483218D01*
X39885910Y-41483220D01*
X39854777Y-41622501D01*
X39851511Y-41637110D01*
X39856713Y-41802647D01*
X39875117Y-41865993D01*
X39898063Y-41944973D01*
X39902919Y-41961689D01*
X39919177Y-41989179D01*
X39967911Y-42071583D01*
X39987226Y-42104243D01*
X40216365Y-42333382D01*
X40215254Y-42334493D01*
X40249690Y-42389078D01*
X40254500Y-42423561D01*
X40254500Y-44180290D01*
X40254020Y-44191272D01*
X40250736Y-44228807D01*
X40253590Y-44239456D01*
X40260491Y-44265210D01*
X40262870Y-44275942D01*
X40269412Y-44313045D01*
X40274923Y-44322590D01*
X40276115Y-44325866D01*
X40277592Y-44329034D01*
X40280446Y-44339684D01*
X40286770Y-44348715D01*
X40302055Y-44370544D01*
X40307962Y-44379816D01*
X40312620Y-44387884D01*
X40329500Y-44450883D01*
X40329500Y-45414748D01*
X40330707Y-45420816D01*
X40338616Y-45460575D01*
X40341133Y-45473231D01*
X40385448Y-45539552D01*
X40451769Y-45583867D01*
X40463938Y-45586288D01*
X40463939Y-45586288D01*
X40504184Y-45594293D01*
X40510252Y-45595500D01*
X40538500Y-45595500D01*
X40606621Y-45615502D01*
X40653114Y-45669158D01*
X40664500Y-45721500D01*
X40664500Y-47369984D01*
X40644498Y-47438105D01*
X40590842Y-47484598D01*
X40520568Y-47494702D01*
X40455988Y-47465208D01*
X40449405Y-47459079D01*
X39867937Y-46877611D01*
X39860510Y-46869507D01*
X39843367Y-46849077D01*
X39843368Y-46849077D01*
X39836281Y-46840632D01*
X39826107Y-46834758D01*
X39803641Y-46821787D01*
X39794370Y-46815881D01*
X39772541Y-46800596D01*
X39763510Y-46794272D01*
X39752860Y-46791418D01*
X39749692Y-46789941D01*
X39746416Y-46788749D01*
X39736871Y-46783238D01*
X39703127Y-46777288D01*
X39699768Y-46776696D01*
X39689041Y-46774318D01*
X39652633Y-46764562D01*
X39641648Y-46765523D01*
X39641646Y-46765523D01*
X39615098Y-46767846D01*
X39604116Y-46768326D01*
X30395884Y-46768326D01*
X30384902Y-46767846D01*
X30358354Y-46765523D01*
X30358352Y-46765523D01*
X30347367Y-46764562D01*
X30310959Y-46774318D01*
X30300232Y-46776696D01*
X30296873Y-46777288D01*
X30263129Y-46783238D01*
X30253584Y-46788749D01*
X30250308Y-46789941D01*
X30247140Y-46791418D01*
X30236490Y-46794272D01*
X30227459Y-46800596D01*
X30205630Y-46815881D01*
X30196359Y-46821787D01*
X30173893Y-46834758D01*
X30163719Y-46840632D01*
X30156633Y-46849077D01*
X30139489Y-46869508D01*
X30132063Y-46877611D01*
X29421657Y-47588017D01*
X29359345Y-47622043D01*
X29295304Y-47619287D01*
X29144474Y-47572597D01*
X29138356Y-47571954D01*
X29138351Y-47571953D01*
X28962881Y-47553511D01*
X28962879Y-47553511D01*
X28956752Y-47552867D01*
X28842571Y-47563258D01*
X28774914Y-47569415D01*
X28774913Y-47569415D01*
X28768773Y-47569974D01*
X28587697Y-47623268D01*
X28420420Y-47710718D01*
X28273316Y-47828993D01*
X28151986Y-47973588D01*
X28149016Y-47978991D01*
X28149015Y-47978992D01*
X28064019Y-48133599D01*
X28061052Y-48138996D01*
X28003978Y-48318917D01*
X28003292Y-48325036D01*
X28003291Y-48325039D01*
X27987759Y-48463505D01*
X27982937Y-48506496D01*
X20459321Y-48506496D01*
X20459321Y-48074000D01*
X20479323Y-48005879D01*
X20532979Y-47959386D01*
X20585321Y-47948000D01*
X20643834Y-47948000D01*
X20661752Y-47946306D01*
X20667722Y-47945742D01*
X20667723Y-47945742D01*
X20675369Y-47945019D01*
X20803184Y-47900134D01*
X20810754Y-47894542D01*
X20810757Y-47894541D01*
X20904579Y-47825242D01*
X20912150Y-47819650D01*
X20933885Y-47790224D01*
X20987041Y-47718257D01*
X20987042Y-47718254D01*
X20992634Y-47710684D01*
X21037519Y-47582869D01*
X21040500Y-47551334D01*
X21040500Y-46918666D01*
X21037519Y-46887131D01*
X20992634Y-46759316D01*
X20987042Y-46751746D01*
X20987041Y-46751743D01*
X20917742Y-46657921D01*
X20912150Y-46650350D01*
X20822614Y-46584217D01*
X20810757Y-46575459D01*
X20810754Y-46575458D01*
X20803184Y-46569866D01*
X20675369Y-46524981D01*
X20667723Y-46524258D01*
X20667722Y-46524258D01*
X20661752Y-46523694D01*
X20643834Y-46522000D01*
X19636166Y-46522000D01*
X19618248Y-46523694D01*
X19612278Y-46524258D01*
X19612277Y-46524258D01*
X19604631Y-46524981D01*
X19476816Y-46569866D01*
X19469246Y-46575458D01*
X19469243Y-46575459D01*
X19457386Y-46584217D01*
X19367850Y-46650350D01*
X19362258Y-46657921D01*
X19292959Y-46751743D01*
X19292958Y-46751746D01*
X19287366Y-46759316D01*
X19253806Y-46854884D01*
X19253273Y-46856401D01*
X19211830Y-46914046D01*
X19145801Y-46940135D01*
X19076148Y-46926384D01*
X19024988Y-46877160D01*
X19015507Y-46856401D01*
X18989142Y-46781325D01*
X18972634Y-46734316D01*
X18967042Y-46726746D01*
X18967041Y-46726743D01*
X18897742Y-46632921D01*
X18892150Y-46625350D01*
X18836461Y-46584217D01*
X18790757Y-46550459D01*
X18790754Y-46550458D01*
X18783184Y-46544866D01*
X18655369Y-46499981D01*
X18647723Y-46499258D01*
X18647722Y-46499258D01*
X18641752Y-46498694D01*
X18623834Y-46497000D01*
X17616166Y-46497000D01*
X17598248Y-46498694D01*
X17592278Y-46499258D01*
X17592277Y-46499258D01*
X17584631Y-46499981D01*
X17456816Y-46544866D01*
X17449246Y-46550458D01*
X17449243Y-46550459D01*
X17403539Y-46584217D01*
X17347850Y-46625350D01*
X17342258Y-46632921D01*
X17272959Y-46726743D01*
X17272958Y-46726746D01*
X17267366Y-46734316D01*
X17222481Y-46862131D01*
X17219500Y-46893666D01*
X17219500Y-47526334D01*
X16014321Y-47526334D01*
X16014321Y-46236500D01*
X16034323Y-46168379D01*
X16087979Y-46121886D01*
X16140321Y-46110500D01*
X19556045Y-46110500D01*
X19589795Y-46116254D01*
X19589888Y-46115829D01*
X19597383Y-46117474D01*
X19604631Y-46120019D01*
X19612275Y-46120742D01*
X19612277Y-46120742D01*
X19620818Y-46121549D01*
X19636166Y-46123000D01*
X20643834Y-46123000D01*
X20661752Y-46121306D01*
X20667722Y-46120742D01*
X20667723Y-46120742D01*
X20675369Y-46120019D01*
X20803184Y-46075134D01*
X20810754Y-46069542D01*
X20810757Y-46069541D01*
X20904579Y-46000242D01*
X20912150Y-45994650D01*
X20924665Y-45977706D01*
X20987041Y-45893257D01*
X20987042Y-45893254D01*
X20992634Y-45885684D01*
X21037519Y-45757869D01*
X21040500Y-45726334D01*
X21040500Y-45093666D01*
X21037519Y-45062131D01*
X20992634Y-44934316D01*
X20987042Y-44926746D01*
X20987041Y-44926743D01*
X20917742Y-44832921D01*
X20912150Y-44825350D01*
X20879860Y-44801500D01*
X20810757Y-44750459D01*
X20810754Y-44750458D01*
X20803184Y-44744866D01*
X20675369Y-44699981D01*
X20667723Y-44699258D01*
X20667722Y-44699258D01*
X20661752Y-44698694D01*
X20643834Y-44697000D01*
X19636166Y-44697000D01*
X19623144Y-44698231D01*
X19612277Y-44699258D01*
X19612275Y-44699258D01*
X19604631Y-44699981D01*
X19597383Y-44702526D01*
X19589888Y-44704171D01*
X19589795Y-44703746D01*
X19556045Y-44709500D01*
X18775147Y-44709500D01*
X18733399Y-44702383D01*
X18729376Y-44700970D01*
X18655369Y-44674981D01*
X18647723Y-44674258D01*
X18647722Y-44674258D01*
X18641752Y-44673694D01*
X18623834Y-44672000D01*
X17616166Y-44672000D01*
X17598248Y-44673694D01*
X17592278Y-44674258D01*
X17592277Y-44674258D01*
X17584631Y-44674981D01*
X17510625Y-44700970D01*
X17506601Y-44702383D01*
X17464853Y-44709500D01*
X16140321Y-44709500D01*
X16072200Y-44689498D01*
X16025707Y-44635842D01*
X16014321Y-44583500D01*
X16014321Y-41536500D01*
X16034323Y-41468379D01*
X16087979Y-41421886D01*
X16140321Y-41410500D01*
X17726809Y-41410499D01*
X17765992Y-41410499D01*
X17768850Y-41410236D01*
X17768859Y-41410236D01*
X17804243Y-41406985D01*
X17838594Y-41403829D01*
X17895001Y-41386152D01*
X17993134Y-41355399D01*
X17993136Y-41355398D01*
X18000383Y-41353127D01*
X18145408Y-41265297D01*
X18265297Y-41145408D01*
X18320358Y-41054491D01*
X18349191Y-41006883D01*
X18349193Y-41006880D01*
X18353127Y-41000383D01*
X18355399Y-40993134D01*
X18358524Y-40986212D01*
X18361227Y-40987433D01*
X18393085Y-40939790D01*
X18458192Y-40911477D01*
X18473851Y-40910500D01*
X32611359Y-40910500D01*
X32619929Y-40910792D01*
X32669354Y-40914162D01*
X32669358Y-40914162D01*
X32676930Y-40914678D01*
X32684406Y-40913373D01*
X32684409Y-40913373D01*
X32739132Y-40903822D01*
X32745658Y-40902859D01*
X32786096Y-40897965D01*
X32808320Y-40895276D01*
X32815427Y-40892591D01*
X32818720Y-40891782D01*
X32833191Y-40887823D01*
X32836467Y-40886834D01*
X32843954Y-40885527D01*
X32864070Y-40876697D01*
X32901760Y-40860153D01*
X32907866Y-40857661D01*
X32959818Y-40838030D01*
X32959820Y-40838029D01*
X32966923Y-40835345D01*
X32973178Y-40831046D01*
X32976203Y-40829465D01*
X32989299Y-40822175D01*
X32992243Y-40820434D01*
X32999202Y-40817379D01*
X33030575Y-40793306D01*
X33049273Y-40778958D01*
X33054609Y-40775081D01*
X33100386Y-40743619D01*
X33100392Y-40743614D01*
X33106651Y-40739312D01*
X33147608Y-40693344D01*
X33152588Y-40688069D01*
X33465074Y-40375583D01*
X33471340Y-40369729D01*
X33508669Y-40337165D01*
X33514396Y-40332169D01*
X33550690Y-40280527D01*
X33554616Y-40275242D01*
X33588895Y-40231524D01*
X33588897Y-40231520D01*
X33593584Y-40225543D01*
X33596710Y-40218620D01*
X33598495Y-40215672D01*
X33605887Y-40202712D01*
X33607520Y-40199666D01*
X33611887Y-40193453D01*
X33634820Y-40134633D01*
X33637376Y-40128554D01*
X33642064Y-40118172D01*
X33663355Y-40071016D01*
X33664740Y-40063545D01*
X33665764Y-40060277D01*
X33669877Y-40045836D01*
X33670717Y-40042563D01*
X33673476Y-40035487D01*
X33681716Y-39972894D01*
X33682748Y-39966377D01*
X33692868Y-39911775D01*
X33694252Y-39904308D01*
X33690709Y-39842856D01*
X33690500Y-39835604D01*
X33690500Y-36751381D01*
X33710502Y-36683260D01*
X33746498Y-36646616D01*
X33754237Y-36641445D01*
X33754239Y-36641443D01*
X33764552Y-36634552D01*
X33808867Y-36568231D01*
X33811289Y-36556058D01*
X33819293Y-36515816D01*
X33820500Y-36509748D01*
X33820500Y-32970252D01*
X33808867Y-32911769D01*
X33798842Y-32896765D01*
X33771443Y-32855761D01*
X33764552Y-32845448D01*
X33698231Y-32801133D01*
X33686062Y-32798712D01*
X33686061Y-32798712D01*
X33645816Y-32790707D01*
X33639748Y-32789500D01*
X31900252Y-32789500D01*
X31894184Y-32790707D01*
X31853939Y-32798712D01*
X31853938Y-32798712D01*
X31841769Y-32801133D01*
X31775448Y-32845448D01*
X31768557Y-32855761D01*
X31741159Y-32896765D01*
X31731133Y-32911769D01*
X31719500Y-32970252D01*
X31719500Y-36509748D01*
X31720707Y-36515816D01*
X31728712Y-36556058D01*
X31731133Y-36568231D01*
X31775448Y-36634552D01*
X31841769Y-36678867D01*
X31853938Y-36681288D01*
X31853939Y-36681288D01*
X31894184Y-36689293D01*
X31900252Y-36690500D01*
X32163500Y-36690500D01*
X32231621Y-36710502D01*
X32278114Y-36764158D01*
X32289500Y-36816500D01*
X32289500Y-39383500D01*
X32269498Y-39451621D01*
X32215842Y-39498114D01*
X32163500Y-39509500D01*
X18473851Y-39509500D01*
X18405730Y-39489498D01*
X18359237Y-39435842D01*
X18358031Y-39432697D01*
X18355399Y-39426868D01*
X18353127Y-39419617D01*
X18349193Y-39413120D01*
X18349191Y-39413117D01*
X18276905Y-39293759D01*
X18265297Y-39274592D01*
X18145408Y-39154703D01*
X18000383Y-39066873D01*
X17993136Y-39064602D01*
X17993134Y-39064601D01*
X17913623Y-39039684D01*
X17838594Y-39016171D01*
X17765993Y-39009500D01*
X17763095Y-39009500D01*
X16205963Y-39009501D01*
X14654008Y-39009501D01*
X14651150Y-39009764D01*
X14651141Y-39009764D01*
X14615757Y-39013015D01*
X14581406Y-39016171D01*
X14575028Y-39018170D01*
X14575027Y-39018170D01*
X14426866Y-39064601D01*
X14426864Y-39064602D01*
X14419617Y-39066873D01*
X14274592Y-39154703D01*
X14154703Y-39274592D01*
X14066873Y-39419617D01*
X14064602Y-39426864D01*
X14064601Y-39426866D01*
X14062774Y-39432697D01*
X14016171Y-39581406D01*
X14016101Y-39582164D01*
X13984149Y-39643060D01*
X13922409Y-39678113D01*
X13851519Y-39674222D01*
X13793986Y-39632623D01*
X13768076Y-39566523D01*
X13767589Y-39555394D01*
X13768295Y-38056000D01*
X13768383Y-37868455D01*
X13788417Y-37800343D01*
X13842095Y-37753876D01*
X13912373Y-37743805D01*
X13976940Y-37773328D01*
X14015296Y-37833073D01*
X14015883Y-37835457D01*
X14016171Y-37838594D01*
X14022898Y-37860060D01*
X14063487Y-37989577D01*
X14066873Y-38000383D01*
X14154703Y-38145408D01*
X14274592Y-38265297D01*
X14419617Y-38353127D01*
X14426864Y-38355398D01*
X14426866Y-38355399D01*
X14472574Y-38369723D01*
X14581406Y-38403829D01*
X14654007Y-38410500D01*
X14656905Y-38410500D01*
X16214037Y-38410499D01*
X17765992Y-38410499D01*
X17768850Y-38410236D01*
X17768859Y-38410236D01*
X17804243Y-38406985D01*
X17838594Y-38403829D01*
X17901345Y-38384164D01*
X17993134Y-38355399D01*
X17993136Y-38355398D01*
X18000383Y-38353127D01*
X18145408Y-38265297D01*
X18265297Y-38145408D01*
X18353127Y-38000383D01*
X18356514Y-37989577D01*
X18397102Y-37860060D01*
X18403829Y-37838594D01*
X18410500Y-37765993D01*
X18410500Y-37661500D01*
X18430502Y-37593379D01*
X18484158Y-37546886D01*
X18536500Y-37535500D01*
X24300290Y-37535500D01*
X24311272Y-37535980D01*
X24337820Y-37538303D01*
X24337822Y-37538303D01*
X24348807Y-37539264D01*
X24385215Y-37529508D01*
X24395942Y-37527130D01*
X24399301Y-37526538D01*
X24433045Y-37520588D01*
X24442590Y-37515077D01*
X24445866Y-37513885D01*
X24449034Y-37512408D01*
X24459684Y-37509554D01*
X24490544Y-37487945D01*
X24499815Y-37482039D01*
X24522906Y-37468707D01*
X24532455Y-37463194D01*
X24556685Y-37434317D01*
X24564111Y-37426215D01*
X26424405Y-35565921D01*
X26486717Y-35531895D01*
X26557532Y-35536960D01*
X26614368Y-35579507D01*
X26639179Y-35646027D01*
X26639500Y-35655016D01*
X26639500Y-36509748D01*
X26640707Y-36515816D01*
X26648712Y-36556058D01*
X26651133Y-36568231D01*
X26695448Y-36634552D01*
X26761769Y-36678867D01*
X26773938Y-36681288D01*
X26773939Y-36681288D01*
X26814184Y-36689293D01*
X26820252Y-36690500D01*
X28559748Y-36690500D01*
X28565816Y-36689293D01*
X28606061Y-36681288D01*
X28606062Y-36681288D01*
X28618231Y-36678867D01*
X28684552Y-36634552D01*
X28728867Y-36568231D01*
X28731289Y-36556058D01*
X28739293Y-36515816D01*
X28740500Y-36509748D01*
X28740500Y-33115016D01*
X28760502Y-33046895D01*
X28814158Y-33000402D01*
X28884432Y-32990298D01*
X28949012Y-33019792D01*
X28955595Y-33025921D01*
X29142595Y-33212921D01*
X29176621Y-33275233D01*
X29179500Y-33302016D01*
X29179500Y-36509748D01*
X29180707Y-36515816D01*
X29188712Y-36556058D01*
X29191133Y-36568231D01*
X29235448Y-36634552D01*
X29301769Y-36678867D01*
X29313938Y-36681288D01*
X29313939Y-36681288D01*
X29354184Y-36689293D01*
X29360252Y-36690500D01*
X31099748Y-36690500D01*
X31105816Y-36689293D01*
X31146061Y-36681288D01*
X31146062Y-36681288D01*
X31158231Y-36678867D01*
X31224552Y-36634552D01*
X31268867Y-36568231D01*
X31271289Y-36556058D01*
X31279293Y-36515816D01*
X31280500Y-36509748D01*
X31280500Y-32970252D01*
X31268867Y-32911769D01*
X31258842Y-32896765D01*
X31231443Y-32855761D01*
X31224552Y-32845448D01*
X31158231Y-32801133D01*
X31146062Y-32798712D01*
X31146061Y-32798712D01*
X31105816Y-32790707D01*
X31099748Y-32789500D01*
X29692016Y-32789500D01*
X29623895Y-32769498D01*
X29602921Y-32752595D01*
X28644111Y-31793785D01*
X28636684Y-31785681D01*
X28619541Y-31765251D01*
X28619542Y-31765251D01*
X28612455Y-31756806D01*
X28602906Y-31751293D01*
X28579815Y-31737961D01*
X28570544Y-31732055D01*
X28548715Y-31716770D01*
X28539684Y-31710446D01*
X28529034Y-31707592D01*
X28525866Y-31706115D01*
X28522590Y-31704923D01*
X28513045Y-31699412D01*
X28479301Y-31693462D01*
X28475942Y-31692870D01*
X28465215Y-31690492D01*
X28428807Y-31680736D01*
X28417822Y-31681697D01*
X28417820Y-31681697D01*
X28391272Y-31684020D01*
X28380290Y-31684500D01*
X22219710Y-31684500D01*
X22208728Y-31684020D01*
X22182180Y-31681697D01*
X22182178Y-31681697D01*
X22171193Y-31680736D01*
X22134785Y-31690492D01*
X22124058Y-31692870D01*
X22120699Y-31693462D01*
X22086955Y-31699412D01*
X22077410Y-31704923D01*
X22074134Y-31706115D01*
X22070966Y-31707592D01*
X22060316Y-31710446D01*
X22051285Y-31716770D01*
X22029456Y-31732055D01*
X22020185Y-31737961D01*
X21997094Y-31751293D01*
X21987545Y-31756806D01*
X21980459Y-31765251D01*
X21963315Y-31785682D01*
X21955889Y-31793785D01*
X19902079Y-33847595D01*
X19839767Y-33881621D01*
X19812984Y-33884500D01*
X18536499Y-33884500D01*
X18468378Y-33864498D01*
X18421885Y-33810842D01*
X18410499Y-33758500D01*
X18410499Y-33654008D01*
X18403829Y-33581406D01*
X18353127Y-33419617D01*
X18265297Y-33274592D01*
X18145408Y-33154703D01*
X18000383Y-33066873D01*
X17993136Y-33064602D01*
X17993134Y-33064601D01*
X17927894Y-33044156D01*
X17838594Y-33016171D01*
X17765993Y-33009500D01*
X17763095Y-33009500D01*
X16205963Y-33009501D01*
X14654008Y-33009501D01*
X14651150Y-33009764D01*
X14651141Y-33009764D01*
X14615757Y-33013015D01*
X14581406Y-33016171D01*
X14575028Y-33018170D01*
X14575027Y-33018170D01*
X14426866Y-33064601D01*
X14426864Y-33064602D01*
X14419617Y-33066873D01*
X14274592Y-33154703D01*
X14154703Y-33274592D01*
X14066873Y-33419617D01*
X14064602Y-33426864D01*
X14016654Y-33579865D01*
X13977196Y-33638887D01*
X13912093Y-33667206D01*
X13842013Y-33655833D01*
X13789207Y-33608377D01*
X13770420Y-33542126D01*
X13770475Y-33426866D01*
X13770911Y-32500630D01*
X13790945Y-32432518D01*
X13844623Y-32386051D01*
X13914901Y-32375980D01*
X13979468Y-32405503D01*
X13986006Y-32411594D01*
X14062734Y-32488322D01*
X14072221Y-32496115D01*
X14226241Y-32599222D01*
X14237057Y-32605022D01*
X14408167Y-32676248D01*
X14419909Y-32679838D01*
X14603055Y-32716767D01*
X14612267Y-32717923D01*
X14615319Y-32718000D01*
X15937885Y-32718000D01*
X15953124Y-32713525D01*
X15954329Y-32712135D01*
X15956000Y-32704452D01*
X15956000Y-32699885D01*
X16464000Y-32699885D01*
X16468475Y-32715124D01*
X16469865Y-32716329D01*
X16477548Y-32718000D01*
X17804681Y-32718000D01*
X17807733Y-32717923D01*
X17816945Y-32716767D01*
X18000091Y-32679838D01*
X18011833Y-32676248D01*
X18182943Y-32605022D01*
X18193759Y-32599222D01*
X18347779Y-32496115D01*
X18357266Y-32488322D01*
X18488322Y-32357266D01*
X18496115Y-32347779D01*
X18599222Y-32193759D01*
X18605022Y-32182943D01*
X18676248Y-32011833D01*
X18679838Y-32000091D01*
X18716767Y-31816945D01*
X18717923Y-31807733D01*
X18718000Y-31804681D01*
X18718000Y-31482115D01*
X18713525Y-31466876D01*
X18712135Y-31465671D01*
X18704452Y-31464000D01*
X16482115Y-31464000D01*
X16466876Y-31468475D01*
X16465671Y-31469865D01*
X16464000Y-31477548D01*
X16464000Y-32699885D01*
X15956000Y-32699885D01*
X15956000Y-31082000D01*
X15976002Y-31013879D01*
X16029658Y-30967386D01*
X16082000Y-30956000D01*
X18699885Y-30956000D01*
X18715124Y-30951525D01*
X18716329Y-30950135D01*
X18718000Y-30942452D01*
X18718000Y-30615319D01*
X18717923Y-30612267D01*
X18716767Y-30603055D01*
X18679838Y-30419909D01*
X18676248Y-30408167D01*
X18605022Y-30237057D01*
X18599222Y-30226241D01*
X18496115Y-30072221D01*
X18488322Y-30062734D01*
X18357266Y-29931678D01*
X18347779Y-29923885D01*
X18193759Y-29820778D01*
X18182951Y-29814983D01*
X18140274Y-29797218D01*
X18085071Y-29752573D01*
X18062768Y-29685171D01*
X18080445Y-29616410D01*
X18123424Y-29573117D01*
X18228907Y-29509234D01*
X18235408Y-29505297D01*
X18355297Y-29385408D01*
X18443127Y-29240383D01*
X18493829Y-29078594D01*
X18500500Y-29005993D01*
X18500499Y-28359748D01*
X25069500Y-28359748D01*
X25081133Y-28418231D01*
X25125448Y-28484552D01*
X25191769Y-28528867D01*
X25203938Y-28531288D01*
X25203939Y-28531288D01*
X25244184Y-28539293D01*
X25250252Y-28540500D01*
X28789748Y-28540500D01*
X28795816Y-28539293D01*
X28836061Y-28531288D01*
X28836062Y-28531288D01*
X28848231Y-28528867D01*
X28914552Y-28484552D01*
X28958867Y-28418231D01*
X28970500Y-28359748D01*
X28970500Y-26620252D01*
X28969293Y-26614184D01*
X28961288Y-26573939D01*
X28961288Y-26573938D01*
X28958867Y-26561769D01*
X28914552Y-26495448D01*
X28848231Y-26451133D01*
X28836062Y-26448712D01*
X28836061Y-26448712D01*
X28795816Y-26440707D01*
X28789748Y-26439500D01*
X25250252Y-26439500D01*
X25244184Y-26440707D01*
X25203939Y-26448712D01*
X25203938Y-26448712D01*
X25191769Y-26451133D01*
X25125448Y-26495448D01*
X25081133Y-26561769D01*
X25078712Y-26573938D01*
X25078712Y-26573939D01*
X25070707Y-26614184D01*
X25069500Y-26620252D01*
X25069500Y-28359748D01*
X18500499Y-28359748D01*
X18500499Y-27894008D01*
X18500234Y-27891116D01*
X18494440Y-27828060D01*
X18493829Y-27821406D01*
X18443127Y-27659617D01*
X18355297Y-27514592D01*
X18235408Y-27394703D01*
X18090383Y-27306873D01*
X18083136Y-27304602D01*
X18083134Y-27304601D01*
X18017894Y-27284156D01*
X17928594Y-27256171D01*
X17855993Y-27249500D01*
X17853095Y-27249500D01*
X16295963Y-27249501D01*
X14744008Y-27249501D01*
X14741150Y-27249764D01*
X14741141Y-27249764D01*
X14705757Y-27253015D01*
X14671406Y-27256171D01*
X14665028Y-27258170D01*
X14665027Y-27258170D01*
X14516866Y-27304601D01*
X14516864Y-27304602D01*
X14509617Y-27306873D01*
X14364592Y-27394703D01*
X14244703Y-27514592D01*
X14156873Y-27659617D01*
X14106171Y-27821406D01*
X14099500Y-27894007D01*
X14099501Y-29005992D01*
X14099764Y-29008850D01*
X14099764Y-29008859D01*
X14103015Y-29044243D01*
X14106171Y-29078594D01*
X14156873Y-29240383D01*
X14244703Y-29385408D01*
X14364592Y-29505297D01*
X14403255Y-29528712D01*
X14451160Y-29581107D01*
X14463134Y-29651087D01*
X14435374Y-29716431D01*
X14386404Y-29752811D01*
X14237057Y-29814978D01*
X14226241Y-29820778D01*
X14072221Y-29923885D01*
X14062734Y-29931678D01*
X13987222Y-30007190D01*
X13924910Y-30041216D01*
X13854095Y-30036151D01*
X13797259Y-29993604D01*
X13772448Y-29927084D01*
X13772127Y-29918036D01*
X13772290Y-29573117D01*
X13774492Y-24896891D01*
X13776493Y-20647822D01*
X13796527Y-20579710D01*
X13850205Y-20533243D01*
X13920483Y-20523172D01*
X13985050Y-20552695D01*
X14007198Y-20577789D01*
X14013888Y-20587782D01*
X14021678Y-20597266D01*
X14152734Y-20728322D01*
X14162221Y-20736115D01*
X14316241Y-20839222D01*
X14327057Y-20845022D01*
X14498167Y-20916248D01*
X14509909Y-20919838D01*
X14693055Y-20956767D01*
X14702267Y-20957923D01*
X14705319Y-20958000D01*
X16027885Y-20958000D01*
X16043124Y-20953525D01*
X16044329Y-20952135D01*
X16046000Y-20944452D01*
X16046000Y-20939885D01*
X16554000Y-20939885D01*
X16558475Y-20955124D01*
X16559865Y-20956329D01*
X16567548Y-20958000D01*
X17894681Y-20958000D01*
X17897733Y-20957923D01*
X17906945Y-20956767D01*
X18090091Y-20919838D01*
X18101833Y-20916248D01*
X18272943Y-20845022D01*
X18283759Y-20839222D01*
X18437779Y-20736115D01*
X18447266Y-20728322D01*
X18578322Y-20597266D01*
X18586115Y-20587779D01*
X18689222Y-20433759D01*
X18695022Y-20422943D01*
X18766248Y-20251833D01*
X18769838Y-20240091D01*
X18806767Y-20056945D01*
X18807923Y-20047733D01*
X18808000Y-20044681D01*
X18808000Y-19722115D01*
X18803525Y-19706876D01*
X18802135Y-19705671D01*
X18794452Y-19704000D01*
X16572115Y-19704000D01*
X16556876Y-19708475D01*
X16555671Y-19709865D01*
X16554000Y-19717548D01*
X16554000Y-20939885D01*
X16046000Y-20939885D01*
X16046000Y-19322000D01*
X16066002Y-19253879D01*
X16119658Y-19207386D01*
X16172000Y-19196000D01*
X18789885Y-19196000D01*
X18805124Y-19191525D01*
X18806329Y-19190135D01*
X18808000Y-19182452D01*
X18808000Y-18855319D01*
X18807923Y-18852267D01*
X18806767Y-18843055D01*
X18769838Y-18659909D01*
X18766248Y-18648167D01*
X18695022Y-18477057D01*
X18689222Y-18466241D01*
X18586115Y-18312221D01*
X18578322Y-18302734D01*
X18447266Y-18171678D01*
X18437779Y-18163885D01*
X18283759Y-18060778D01*
X18272951Y-18054983D01*
X18147650Y-18002825D01*
X18092447Y-17958180D01*
X18070144Y-17890778D01*
X18087821Y-17822017D01*
X18139868Y-17773729D01*
X18196071Y-17760500D01*
X18946960Y-17760499D01*
X18955992Y-17760499D01*
X18958850Y-17760236D01*
X18958859Y-17760236D01*
X18994243Y-17756985D01*
X19028594Y-17753829D01*
X19034979Y-17751828D01*
X19183134Y-17705399D01*
X19183136Y-17705398D01*
X19190383Y-17703127D01*
X19335408Y-17615297D01*
X19455297Y-17495408D01*
X19543127Y-17350383D01*
X19593829Y-17188594D01*
X19600500Y-17115993D01*
X19600499Y-14072017D01*
X19620501Y-14003896D01*
X19637404Y-13982922D01*
X20144349Y-13475977D01*
X20206661Y-13441951D01*
X20277476Y-13447016D01*
X20334312Y-13489563D01*
X20359123Y-13556083D01*
X20341220Y-13630343D01*
X20256873Y-13769617D01*
X20206171Y-13931406D01*
X20199500Y-14004007D01*
X20199501Y-17115992D01*
X20199764Y-17118850D01*
X20199764Y-17118859D01*
X20200042Y-17121886D01*
X20206171Y-17188594D01*
X20208170Y-17194972D01*
X20208170Y-17194973D01*
X20226804Y-17254432D01*
X20256873Y-17350383D01*
X20344703Y-17495408D01*
X20464592Y-17615297D01*
X20609617Y-17703127D01*
X20616864Y-17705398D01*
X20616866Y-17705399D01*
X20622824Y-17707266D01*
X20771406Y-17753829D01*
X20844007Y-17760500D01*
X20846905Y-17760500D01*
X21401442Y-17760499D01*
X21955992Y-17760499D01*
X21958850Y-17760236D01*
X21958859Y-17760236D01*
X21994243Y-17756985D01*
X22028594Y-17753829D01*
X22034979Y-17751828D01*
X22183134Y-17705399D01*
X22183136Y-17705398D01*
X22190383Y-17703127D01*
X22335408Y-17615297D01*
X22455297Y-17495408D01*
X22467505Y-17475250D01*
X22519902Y-17427345D01*
X22589882Y-17415372D01*
X22655225Y-17443133D01*
X22664374Y-17451427D01*
X23314175Y-18101228D01*
X23321601Y-18109331D01*
X23345819Y-18138194D01*
X23355362Y-18143704D01*
X23355366Y-18143707D01*
X23378453Y-18157036D01*
X23387722Y-18162940D01*
X23418590Y-18184554D01*
X23429238Y-18187407D01*
X23432409Y-18188886D01*
X23435685Y-18190078D01*
X23445229Y-18195588D01*
X23482350Y-18202134D01*
X23493057Y-18204508D01*
X23529467Y-18214263D01*
X23540442Y-18213303D01*
X23540444Y-18213303D01*
X23567005Y-18210979D01*
X23577986Y-18210500D01*
X36005290Y-18210500D01*
X36016272Y-18210980D01*
X36042820Y-18213303D01*
X36042822Y-18213303D01*
X36053807Y-18214264D01*
X36090215Y-18204508D01*
X36100942Y-18202130D01*
X36104301Y-18201538D01*
X36138045Y-18195588D01*
X36147590Y-18190077D01*
X36150866Y-18188885D01*
X36154034Y-18187408D01*
X36164684Y-18184554D01*
X36195550Y-18162941D01*
X36204815Y-18157039D01*
X36227906Y-18143707D01*
X36237455Y-18138194D01*
X36261685Y-18109317D01*
X36269111Y-18101215D01*
X37222921Y-17147405D01*
X37285233Y-17113379D01*
X37312016Y-17110500D01*
X38719748Y-17110500D01*
X38725816Y-17109293D01*
X38766061Y-17101288D01*
X38766062Y-17101288D01*
X38778231Y-17098867D01*
X38844552Y-17054552D01*
X38888867Y-16988231D01*
X38900500Y-16929748D01*
X38900500Y-13390252D01*
X38888867Y-13331769D01*
X38881974Y-13321453D01*
X38877223Y-13309983D01*
X38878526Y-13309443D01*
X38861348Y-13254578D01*
X38880132Y-13186111D01*
X38932951Y-13138669D01*
X38987110Y-13126331D01*
X39252762Y-13125871D01*
X39320917Y-13145755D01*
X39367503Y-13199330D01*
X39377728Y-13269587D01*
X39362355Y-13309808D01*
X39362777Y-13309983D01*
X39358026Y-13321453D01*
X39351133Y-13331769D01*
X39339500Y-13390252D01*
X39339500Y-16929748D01*
X39351133Y-16988231D01*
X39395448Y-17054552D01*
X39461769Y-17098867D01*
X39473938Y-17101288D01*
X39473939Y-17101288D01*
X39514184Y-17109293D01*
X39520252Y-17110500D01*
X39938500Y-17110500D01*
X40006621Y-17130502D01*
X40053114Y-17184158D01*
X40064500Y-17236500D01*
X40064500Y-17822984D01*
X40044498Y-17891105D01*
X40027595Y-17912079D01*
X37862079Y-20077595D01*
X37799767Y-20111621D01*
X37772984Y-20114500D01*
X23399713Y-20114500D01*
X23388732Y-20114021D01*
X23362170Y-20111697D01*
X23362168Y-20111697D01*
X23351193Y-20110737D01*
X23314783Y-20120492D01*
X23304076Y-20122866D01*
X23266955Y-20129412D01*
X23257411Y-20134922D01*
X23254135Y-20136114D01*
X23250964Y-20137593D01*
X23240316Y-20140446D01*
X23231287Y-20146768D01*
X23209449Y-20162059D01*
X23200179Y-20167964D01*
X23177092Y-20181293D01*
X23177088Y-20181296D01*
X23167545Y-20186806D01*
X23160460Y-20195250D01*
X23143320Y-20215676D01*
X23135894Y-20223779D01*
X22191729Y-21167945D01*
X21272079Y-22087595D01*
X21209767Y-22121620D01*
X21182984Y-22124500D01*
X18626499Y-22124500D01*
X18558378Y-22104498D01*
X18511885Y-22050842D01*
X18500499Y-21998500D01*
X18500499Y-21894008D01*
X18500234Y-21891116D01*
X18494440Y-21828060D01*
X18493829Y-21821406D01*
X18443127Y-21659617D01*
X18355297Y-21514592D01*
X18235408Y-21394703D01*
X18090383Y-21306873D01*
X18083136Y-21304602D01*
X18083134Y-21304601D01*
X18017894Y-21284156D01*
X17928594Y-21256171D01*
X17855993Y-21249500D01*
X17853095Y-21249500D01*
X16295963Y-21249501D01*
X14744008Y-21249501D01*
X14741150Y-21249764D01*
X14741141Y-21249764D01*
X14712398Y-21252405D01*
X14671406Y-21256171D01*
X14665028Y-21258170D01*
X14665027Y-21258170D01*
X14516866Y-21304601D01*
X14516864Y-21304602D01*
X14509617Y-21306873D01*
X14364592Y-21394703D01*
X14244703Y-21514592D01*
X14156873Y-21659617D01*
X14106171Y-21821406D01*
X14099500Y-21894007D01*
X14099501Y-23005992D01*
X14099764Y-23008850D01*
X14099764Y-23008859D01*
X14103015Y-23044243D01*
X14106171Y-23078594D01*
X14156873Y-23240383D01*
X14244703Y-23385408D01*
X14364592Y-23505297D01*
X14509617Y-23593127D01*
X14516864Y-23595398D01*
X14516866Y-23595399D01*
X14582106Y-23615844D01*
X14671406Y-23643829D01*
X14744007Y-23650500D01*
X14746905Y-23650500D01*
X16304037Y-23650499D01*
X17855992Y-23650499D01*
X17858850Y-23650236D01*
X17858859Y-23650236D01*
X17894243Y-23646985D01*
X17928594Y-23643829D01*
X17934979Y-23641828D01*
X18083134Y-23595399D01*
X18083136Y-23595398D01*
X18090383Y-23593127D01*
X18235408Y-23505297D01*
X18355297Y-23385408D01*
X18443127Y-23240383D01*
X18493829Y-23078594D01*
X18500500Y-23005993D01*
X18500500Y-22901500D01*
X18520502Y-22833379D01*
X18574158Y-22786886D01*
X18626500Y-22775500D01*
X21269984Y-22775500D01*
X21338105Y-22795502D01*
X21384598Y-22849158D01*
X21394702Y-22919432D01*
X21365208Y-22984012D01*
X21359079Y-22990595D01*
X19262079Y-25087595D01*
X19199767Y-25121621D01*
X19172984Y-25124500D01*
X18626499Y-25124500D01*
X18558378Y-25104498D01*
X18511885Y-25050842D01*
X18500499Y-24998500D01*
X18500499Y-24894008D01*
X18500234Y-24891116D01*
X18494440Y-24828060D01*
X18493829Y-24821406D01*
X18443127Y-24659617D01*
X18355297Y-24514592D01*
X18235408Y-24394703D01*
X18090383Y-24306873D01*
X18083136Y-24304602D01*
X18083134Y-24304601D01*
X18017894Y-24284156D01*
X17928594Y-24256171D01*
X17855993Y-24249500D01*
X17853095Y-24249500D01*
X16295963Y-24249501D01*
X14744008Y-24249501D01*
X14741150Y-24249764D01*
X14741141Y-24249764D01*
X14705757Y-24253015D01*
X14671406Y-24256171D01*
X14665028Y-24258170D01*
X14665027Y-24258170D01*
X14516866Y-24304601D01*
X14516864Y-24304602D01*
X14509617Y-24306873D01*
X14364592Y-24394703D01*
X14244703Y-24514592D01*
X14156873Y-24659617D01*
X14106171Y-24821406D01*
X14099500Y-24894007D01*
X14099501Y-26005992D01*
X14099764Y-26008850D01*
X14099764Y-26008859D01*
X14103015Y-26044243D01*
X14106171Y-26078594D01*
X14156873Y-26240383D01*
X14244703Y-26385408D01*
X14364592Y-26505297D01*
X14509617Y-26593127D01*
X14516864Y-26595398D01*
X14516866Y-26595399D01*
X14576809Y-26614184D01*
X14671406Y-26643829D01*
X14744007Y-26650500D01*
X14746905Y-26650500D01*
X16304037Y-26650499D01*
X17855992Y-26650499D01*
X17858850Y-26650236D01*
X17858859Y-26650236D01*
X17894243Y-26646985D01*
X17928594Y-26643829D01*
X17934979Y-26641828D01*
X18083134Y-26595399D01*
X18083136Y-26595398D01*
X18090383Y-26593127D01*
X18235408Y-26505297D01*
X18355297Y-26385408D01*
X18443127Y-26240383D01*
X18493829Y-26078594D01*
X18500500Y-26005993D01*
X18500500Y-25901500D01*
X18520502Y-25833379D01*
X18536233Y-25819748D01*
X25069500Y-25819748D01*
X25081133Y-25878231D01*
X25125448Y-25944552D01*
X25191769Y-25988867D01*
X25203938Y-25991288D01*
X25203939Y-25991288D01*
X25244184Y-25999293D01*
X25250252Y-26000500D01*
X28789748Y-26000500D01*
X28795816Y-25999293D01*
X28836061Y-25991288D01*
X28836062Y-25991288D01*
X28848231Y-25988867D01*
X28914552Y-25944552D01*
X28958867Y-25878231D01*
X28970500Y-25819748D01*
X28970500Y-24080252D01*
X28958867Y-24021769D01*
X28914552Y-23955448D01*
X28848231Y-23911133D01*
X28836062Y-23908712D01*
X28836061Y-23908712D01*
X28795816Y-23900707D01*
X28789748Y-23899500D01*
X25250252Y-23899500D01*
X25244184Y-23900707D01*
X25203939Y-23908712D01*
X25203938Y-23908712D01*
X25191769Y-23911133D01*
X25125448Y-23955448D01*
X25081133Y-24021769D01*
X25069500Y-24080252D01*
X25069500Y-25819748D01*
X18536233Y-25819748D01*
X18574158Y-25786886D01*
X18626500Y-25775500D01*
X19340290Y-25775500D01*
X19351272Y-25775980D01*
X19377820Y-25778303D01*
X19377822Y-25778303D01*
X19388807Y-25779264D01*
X19425215Y-25769508D01*
X19435942Y-25767130D01*
X19439301Y-25766538D01*
X19473045Y-25760588D01*
X19482590Y-25755077D01*
X19485866Y-25753885D01*
X19489034Y-25752408D01*
X19499684Y-25749554D01*
X19530544Y-25727945D01*
X19539815Y-25722039D01*
X19562906Y-25708707D01*
X19572455Y-25703194D01*
X19596685Y-25674317D01*
X19604111Y-25666215D01*
X24017921Y-21252405D01*
X24080233Y-21218379D01*
X24107016Y-21215500D01*
X25024628Y-21215500D01*
X25092749Y-21235502D01*
X25139242Y-21289158D01*
X25149346Y-21359432D01*
X25124157Y-21414585D01*
X25125448Y-21415448D01*
X25081133Y-21481769D01*
X25069500Y-21540252D01*
X25069500Y-23279748D01*
X25081133Y-23338231D01*
X25125448Y-23404552D01*
X25191769Y-23448867D01*
X25203938Y-23451288D01*
X25203939Y-23451288D01*
X25244184Y-23459293D01*
X25250252Y-23460500D01*
X28789748Y-23460500D01*
X28795816Y-23459293D01*
X28836061Y-23451288D01*
X28836062Y-23451288D01*
X28848231Y-23448867D01*
X28914552Y-23404552D01*
X28958867Y-23338231D01*
X28970500Y-23279748D01*
X28970500Y-21540252D01*
X28958867Y-21481769D01*
X28914552Y-21415448D01*
X28917083Y-21413757D01*
X28892251Y-21368283D01*
X28897316Y-21297468D01*
X28939863Y-21240632D01*
X29006383Y-21215821D01*
X29015372Y-21215500D01*
X38126686Y-21215500D01*
X38137668Y-21215980D01*
X38164216Y-21218303D01*
X38164218Y-21218303D01*
X38175203Y-21219264D01*
X38211611Y-21209508D01*
X38222338Y-21207130D01*
X38225697Y-21206538D01*
X38259441Y-21200588D01*
X38268986Y-21195077D01*
X38272262Y-21193885D01*
X38275430Y-21192408D01*
X38286080Y-21189554D01*
X38316940Y-21167945D01*
X38326211Y-21162039D01*
X38349302Y-21148707D01*
X38358851Y-21143194D01*
X38383081Y-21114317D01*
X38390507Y-21106215D01*
X42349317Y-17147405D01*
X42411629Y-17113379D01*
X42438412Y-17110500D01*
X43799748Y-17110500D01*
X43805816Y-17109293D01*
X43846061Y-17101288D01*
X43846062Y-17101288D01*
X43858231Y-17098867D01*
X43924552Y-17054552D01*
X43968867Y-16988231D01*
X43980500Y-16929748D01*
X43980500Y-13390252D01*
X43968867Y-13331769D01*
X43961972Y-13321450D01*
X43956686Y-13313538D01*
X43935472Y-13245785D01*
X43954256Y-13177318D01*
X44007073Y-13129875D01*
X44061234Y-13117537D01*
X44254727Y-13117202D01*
X44338652Y-13117056D01*
X44406807Y-13136940D01*
X44453393Y-13190515D01*
X44463618Y-13260771D01*
X44443634Y-13313059D01*
X44438028Y-13321449D01*
X44438028Y-13321450D01*
X44431133Y-13331769D01*
X44419500Y-13390252D01*
X44419500Y-16929748D01*
X44431133Y-16988231D01*
X44475448Y-17054552D01*
X44541769Y-17098867D01*
X44553938Y-17101288D01*
X44553939Y-17101288D01*
X44594184Y-17109293D01*
X44600252Y-17110500D01*
X46339748Y-17110500D01*
X46345816Y-17109293D01*
X46386061Y-17101288D01*
X46386062Y-17101288D01*
X46398231Y-17098867D01*
X46464552Y-17054552D01*
X46508867Y-16988231D01*
X46520500Y-16929748D01*
X46520500Y-13390252D01*
X46508867Y-13331769D01*
X46501972Y-13321450D01*
X46493748Y-13309141D01*
X46472534Y-13241388D01*
X46491317Y-13172921D01*
X46544135Y-13125479D01*
X46598296Y-13113140D01*
X46881596Y-13112649D01*
X46949751Y-13132533D01*
X46996337Y-13186108D01*
X47006562Y-13256364D01*
X46986580Y-13308650D01*
X46978028Y-13321450D01*
X46971133Y-13331769D01*
X46959500Y-13390252D01*
X46959500Y-15993817D01*
X46958715Y-16007862D01*
X46954520Y-16045262D01*
X46955036Y-16051405D01*
X46959058Y-16099302D01*
X46959500Y-16109846D01*
X46959500Y-16929748D01*
X46971133Y-16988231D01*
X47015448Y-17054552D01*
X47081769Y-17098867D01*
X47093938Y-17101288D01*
X47093939Y-17101288D01*
X47134184Y-17109293D01*
X47140252Y-17110500D01*
X47939723Y-17110500D01*
X47954642Y-17111386D01*
X47987894Y-17115351D01*
X47994029Y-17114879D01*
X47994031Y-17114879D01*
X48046117Y-17110871D01*
X48055784Y-17110500D01*
X48879748Y-17110500D01*
X48885816Y-17109293D01*
X48926061Y-17101288D01*
X48926062Y-17101288D01*
X48938231Y-17098867D01*
X49004552Y-17054552D01*
X49048867Y-16988231D01*
X49060500Y-16929748D01*
X49060500Y-16134373D01*
X49061494Y-16118581D01*
X49064728Y-16092978D01*
X49065171Y-16089474D01*
X49065583Y-16060000D01*
X49061101Y-16014288D01*
X49060500Y-16001994D01*
X49060500Y-13390252D01*
X49048867Y-13331769D01*
X49041972Y-13321450D01*
X49030810Y-13304744D01*
X49009596Y-13236991D01*
X49028379Y-13168525D01*
X49081197Y-13121082D01*
X49135358Y-13108743D01*
X49424541Y-13108242D01*
X49492696Y-13128126D01*
X49539282Y-13181701D01*
X49549507Y-13251958D01*
X49529524Y-13304244D01*
X49518027Y-13321450D01*
X49518026Y-13321453D01*
X49511133Y-13331769D01*
X49499500Y-13390252D01*
X49499500Y-15993817D01*
X49498715Y-16007862D01*
X49494520Y-16045262D01*
X49495036Y-16051405D01*
X49499058Y-16099302D01*
X49499500Y-16109846D01*
X49499500Y-16929748D01*
X49511133Y-16988231D01*
X49555448Y-17054552D01*
X49621769Y-17098867D01*
X49633938Y-17101288D01*
X49633939Y-17101288D01*
X49674184Y-17109293D01*
X49680252Y-17110500D01*
X50479723Y-17110500D01*
X50494642Y-17111386D01*
X50527894Y-17115351D01*
X50534029Y-17114879D01*
X50534031Y-17114879D01*
X50586117Y-17110871D01*
X50595784Y-17110500D01*
X51419748Y-17110500D01*
X51425816Y-17109293D01*
X51466061Y-17101288D01*
X51466062Y-17101288D01*
X51478231Y-17098867D01*
X51544552Y-17054552D01*
X51588867Y-16988231D01*
X51600500Y-16929748D01*
X51600500Y-16134373D01*
X51601494Y-16118581D01*
X51604728Y-16092978D01*
X51605171Y-16089474D01*
X51605583Y-16060000D01*
X51601101Y-16014288D01*
X51600500Y-16001994D01*
X51600500Y-13390252D01*
X51588867Y-13331769D01*
X51581972Y-13321450D01*
X51581971Y-13321447D01*
X51567873Y-13300347D01*
X51546658Y-13232594D01*
X51565441Y-13164128D01*
X51618259Y-13116685D01*
X51672420Y-13104346D01*
X51967486Y-13103835D01*
X52035641Y-13123719D01*
X52082227Y-13177294D01*
X52092452Y-13247551D01*
X52072469Y-13299838D01*
X52051133Y-13331769D01*
X52039500Y-13390252D01*
X52039500Y-15993817D01*
X52038715Y-16007862D01*
X52034520Y-16045262D01*
X52035036Y-16051405D01*
X52039058Y-16099302D01*
X52039500Y-16109846D01*
X52039500Y-16929748D01*
X52051133Y-16988231D01*
X52095448Y-17054552D01*
X52161769Y-17098867D01*
X52173938Y-17101288D01*
X52173939Y-17101288D01*
X52214184Y-17109293D01*
X52220252Y-17110500D01*
X53019723Y-17110500D01*
X53034642Y-17111386D01*
X53067894Y-17115351D01*
X53074029Y-17114879D01*
X53074031Y-17114879D01*
X53126117Y-17110871D01*
X53135784Y-17110500D01*
X53959748Y-17110500D01*
X53965816Y-17109293D01*
X54006061Y-17101288D01*
X54006062Y-17101288D01*
X54018231Y-17098867D01*
X54084552Y-17054552D01*
X54128867Y-16988231D01*
X54140500Y-16929748D01*
X54140500Y-16134373D01*
X54141494Y-16118581D01*
X54144728Y-16092978D01*
X54145171Y-16089474D01*
X54145583Y-16060000D01*
X54141101Y-16014288D01*
X54140500Y-16001994D01*
X54140500Y-13390252D01*
X54128867Y-13331769D01*
X54121974Y-13321453D01*
X54121974Y-13321452D01*
X54104935Y-13295953D01*
X54083719Y-13228200D01*
X54102501Y-13159733D01*
X54155317Y-13112289D01*
X54209480Y-13099949D01*
X54274850Y-13099836D01*
X54510431Y-13099427D01*
X54578586Y-13119311D01*
X54625172Y-13172886D01*
X54635397Y-13243142D01*
X54615414Y-13295429D01*
X54598027Y-13321450D01*
X54598026Y-13321453D01*
X54591133Y-13331769D01*
X54579500Y-13390252D01*
X54579500Y-15993817D01*
X54578715Y-16007862D01*
X54574520Y-16045262D01*
X54575036Y-16051405D01*
X54579058Y-16099302D01*
X54579500Y-16109846D01*
X54579500Y-16929748D01*
X54591133Y-16988231D01*
X54635448Y-17054552D01*
X54701769Y-17098867D01*
X54713938Y-17101288D01*
X54713939Y-17101288D01*
X54754184Y-17109293D01*
X54760252Y-17110500D01*
X55559723Y-17110500D01*
X55574642Y-17111386D01*
X55607894Y-17115351D01*
X55614029Y-17114879D01*
X55614031Y-17114879D01*
X55666117Y-17110871D01*
X55675784Y-17110500D01*
X56499748Y-17110500D01*
X56505816Y-17109293D01*
X56546061Y-17101288D01*
X56546062Y-17101288D01*
X56558231Y-17098867D01*
X56624552Y-17054552D01*
X56668867Y-16988231D01*
X56680500Y-16929748D01*
X56680500Y-16134373D01*
X56681494Y-16118581D01*
X56684728Y-16092978D01*
X56685171Y-16089474D01*
X56685583Y-16060000D01*
X56681101Y-16014288D01*
X56680500Y-16001994D01*
X56680500Y-13390252D01*
X56668867Y-13331769D01*
X56661972Y-13321450D01*
X56661972Y-13321449D01*
X56641997Y-13291555D01*
X56620781Y-13223803D01*
X56639563Y-13155336D01*
X56692380Y-13107892D01*
X56746543Y-13095552D01*
X56856628Y-13095361D01*
X57053376Y-13095020D01*
X57121531Y-13114904D01*
X57168117Y-13168479D01*
X57178342Y-13238735D01*
X57158359Y-13291023D01*
X57131133Y-13331769D01*
X57119500Y-13390252D01*
X57119500Y-16929748D01*
X57131133Y-16988231D01*
X57175448Y-17054552D01*
X57241769Y-17098867D01*
X57253938Y-17101288D01*
X57253939Y-17101288D01*
X57294184Y-17109293D01*
X57300252Y-17110500D01*
X59039748Y-17110500D01*
X59045816Y-17109293D01*
X59086061Y-17101288D01*
X59086062Y-17101288D01*
X59098231Y-17098867D01*
X59164552Y-17054552D01*
X59208867Y-16988231D01*
X59220500Y-16929748D01*
X59220500Y-13390252D01*
X59208867Y-13331769D01*
X59201972Y-13321450D01*
X59201972Y-13321449D01*
X59179059Y-13287158D01*
X59157843Y-13219406D01*
X59176625Y-13150939D01*
X59229442Y-13103495D01*
X59283605Y-13091155D01*
X59596321Y-13090613D01*
X59664476Y-13110497D01*
X59711062Y-13164072D01*
X59721287Y-13234328D01*
X59701303Y-13286616D01*
X59678028Y-13321449D01*
X59678028Y-13321450D01*
X59671133Y-13331769D01*
X59659500Y-13390252D01*
X59659500Y-15993817D01*
X59658715Y-16007862D01*
X59654520Y-16045262D01*
X59655036Y-16051405D01*
X59659058Y-16099302D01*
X59659500Y-16109846D01*
X59659500Y-16929748D01*
X59671133Y-16988231D01*
X59715448Y-17054552D01*
X59781769Y-17098867D01*
X59793938Y-17101288D01*
X59793939Y-17101288D01*
X59834184Y-17109293D01*
X59840252Y-17110500D01*
X60639723Y-17110500D01*
X60654642Y-17111386D01*
X60687894Y-17115351D01*
X60694029Y-17114879D01*
X60694031Y-17114879D01*
X60746117Y-17110871D01*
X60755784Y-17110500D01*
X61579748Y-17110500D01*
X61585816Y-17109293D01*
X61626061Y-17101288D01*
X61626062Y-17101288D01*
X61638231Y-17098867D01*
X61704552Y-17054552D01*
X61748867Y-16988231D01*
X61760500Y-16929748D01*
X61760500Y-16134373D01*
X61761494Y-16118581D01*
X61764728Y-16092978D01*
X61765171Y-16089474D01*
X61765583Y-16060000D01*
X61761101Y-16014288D01*
X61760500Y-16001994D01*
X61760500Y-13390252D01*
X61748867Y-13331769D01*
X61741972Y-13321450D01*
X61741972Y-13321449D01*
X61716121Y-13282761D01*
X61694905Y-13215009D01*
X61713687Y-13146541D01*
X61766504Y-13099098D01*
X61820667Y-13086758D01*
X62139266Y-13086206D01*
X62207421Y-13106090D01*
X62254007Y-13159665D01*
X62264232Y-13229922D01*
X62244248Y-13282209D01*
X62218028Y-13321449D01*
X62218028Y-13321450D01*
X62211133Y-13331769D01*
X62199500Y-13390252D01*
X62199500Y-16929748D01*
X62211133Y-16988231D01*
X62255448Y-17054552D01*
X62321769Y-17098867D01*
X62333938Y-17101288D01*
X62333939Y-17101288D01*
X62374184Y-17109293D01*
X62380252Y-17110500D01*
X64119748Y-17110500D01*
X64125816Y-17109293D01*
X64166061Y-17101288D01*
X64166062Y-17101288D01*
X64178231Y-17098867D01*
X64244552Y-17054552D01*
X64288867Y-16988231D01*
X64300500Y-16929748D01*
X64300500Y-13390252D01*
X64288867Y-13331769D01*
X64281972Y-13321450D01*
X64281972Y-13321449D01*
X64253183Y-13278364D01*
X64231967Y-13210611D01*
X64250749Y-13142144D01*
X64303566Y-13094701D01*
X64357729Y-13082361D01*
X64682210Y-13081799D01*
X64750365Y-13101683D01*
X64796951Y-13155258D01*
X64807176Y-13225515D01*
X64787193Y-13277801D01*
X64758027Y-13321450D01*
X64758026Y-13321453D01*
X64751133Y-13331769D01*
X64739500Y-13390252D01*
X64739500Y-16929748D01*
X64751133Y-16988231D01*
X64795448Y-17054552D01*
X64861769Y-17098867D01*
X64873938Y-17101288D01*
X64873939Y-17101288D01*
X64914184Y-17109293D01*
X64920252Y-17110500D01*
X66659748Y-17110500D01*
X66665816Y-17109293D01*
X66706061Y-17101288D01*
X66706062Y-17101288D01*
X66718231Y-17098867D01*
X66784552Y-17054552D01*
X66828867Y-16988231D01*
X66840500Y-16929748D01*
X66840500Y-13390252D01*
X66828867Y-13331769D01*
X66821972Y-13321450D01*
X66821972Y-13321449D01*
X66790245Y-13273967D01*
X66769029Y-13206214D01*
X66787811Y-13137747D01*
X66840628Y-13090303D01*
X66894790Y-13077964D01*
X66917928Y-13077924D01*
X67225155Y-13077391D01*
X67293310Y-13097275D01*
X67339896Y-13150850D01*
X67350121Y-13221106D01*
X67330138Y-13273393D01*
X67298027Y-13321450D01*
X67298026Y-13321453D01*
X67291133Y-13331769D01*
X67279500Y-13390252D01*
X67279500Y-16929748D01*
X67291133Y-16988231D01*
X67335448Y-17054552D01*
X67401769Y-17098867D01*
X67413938Y-17101288D01*
X67413939Y-17101288D01*
X67454184Y-17109293D01*
X67460252Y-17110500D01*
X69199748Y-17110500D01*
X69205816Y-17109293D01*
X69246061Y-17101288D01*
X69246062Y-17101288D01*
X69258231Y-17098867D01*
X69324552Y-17054552D01*
X69368867Y-16988231D01*
X69380500Y-16929748D01*
X69380500Y-13390252D01*
X69368867Y-13331769D01*
X69361972Y-13321450D01*
X69361972Y-13321449D01*
X69327307Y-13269570D01*
X69306091Y-13201817D01*
X69324873Y-13133350D01*
X69377690Y-13085906D01*
X69431853Y-13073567D01*
X69459874Y-13073518D01*
X69768101Y-13072984D01*
X69836255Y-13092868D01*
X69882841Y-13146443D01*
X69893066Y-13216699D01*
X69873083Y-13268986D01*
X69838027Y-13321450D01*
X69838026Y-13321453D01*
X69831133Y-13331769D01*
X69819500Y-13390252D01*
X69819500Y-16929748D01*
X69831133Y-16988231D01*
X69875448Y-17054552D01*
X69941769Y-17098867D01*
X69953938Y-17101288D01*
X69953939Y-17101288D01*
X69994184Y-17109293D01*
X70000252Y-17110500D01*
X71739748Y-17110500D01*
X71745816Y-17109293D01*
X71786061Y-17101288D01*
X71786062Y-17101288D01*
X71798231Y-17098867D01*
X71864552Y-17054552D01*
X71908867Y-16988231D01*
X71920500Y-16929748D01*
X71920500Y-13390252D01*
X71908867Y-13331769D01*
X71864552Y-13265448D01*
X71868303Y-13262942D01*
X71845921Y-13221953D01*
X71850986Y-13151138D01*
X71893533Y-13094302D01*
X71960053Y-13069491D01*
X71968820Y-13069170D01*
X72053467Y-13069023D01*
X72311333Y-13068577D01*
X72379488Y-13088461D01*
X72426074Y-13142036D01*
X72436299Y-13212293D01*
X72412907Y-13263750D01*
X72415448Y-13265448D01*
X72371133Y-13331769D01*
X72359500Y-13390252D01*
X72359500Y-16929748D01*
X72371133Y-16988231D01*
X72415448Y-17054552D01*
X72481769Y-17098867D01*
X72493938Y-17101288D01*
X72493939Y-17101288D01*
X72534184Y-17109293D01*
X72540252Y-17110500D01*
X74279748Y-17110500D01*
X74285816Y-17109293D01*
X74326061Y-17101288D01*
X74326062Y-17101288D01*
X74338231Y-17098867D01*
X74404552Y-17054552D01*
X74448867Y-16988231D01*
X74460500Y-16929748D01*
X74460500Y-13390252D01*
X74448867Y-13331769D01*
X74404552Y-13265448D01*
X74406842Y-13263918D01*
X74381527Y-13217559D01*
X74386592Y-13146744D01*
X74429139Y-13089908D01*
X74495659Y-13065097D01*
X74504430Y-13064776D01*
X74855743Y-13064167D01*
X74923898Y-13084051D01*
X74970484Y-13137626D01*
X74980709Y-13207882D01*
X74954752Y-13264983D01*
X74955448Y-13265448D01*
X74949189Y-13274814D01*
X74949188Y-13274816D01*
X74935415Y-13295429D01*
X74911133Y-13331769D01*
X74899500Y-13390252D01*
X74899500Y-16929748D01*
X74911133Y-16988231D01*
X74955448Y-17054552D01*
X75021769Y-17098867D01*
X75033938Y-17101288D01*
X75033939Y-17101288D01*
X75074184Y-17109293D01*
X75080252Y-17110500D01*
X76819748Y-17110500D01*
X76825816Y-17109293D01*
X76866061Y-17101288D01*
X76866062Y-17101288D01*
X76878231Y-17098867D01*
X76944552Y-17054552D01*
X76988867Y-16988231D01*
X77000500Y-16929748D01*
X77000500Y-13390252D01*
X76988867Y-13331769D01*
X76950263Y-13273994D01*
X76944552Y-13265448D01*
X76945380Y-13264895D01*
X76917132Y-13213164D01*
X76922197Y-13142349D01*
X76964744Y-13085513D01*
X77031264Y-13060702D01*
X77040029Y-13060381D01*
X77134050Y-13060218D01*
X77202204Y-13080102D01*
G37*
%TD.AperFunction*%
%TA.AperFunction,Conductor*%
G36*
X17662957Y-13183290D02*
G01*
X17709543Y-13236865D01*
X17719768Y-13307122D01*
X17690387Y-13371753D01*
X17632700Y-13409639D01*
X17609617Y-13416873D01*
X17464592Y-13504703D01*
X17344703Y-13624592D01*
X17256873Y-13769617D01*
X17206171Y-13931406D01*
X17199500Y-14004007D01*
X17199501Y-17115992D01*
X17199764Y-17118850D01*
X17199764Y-17118859D01*
X17200042Y-17121886D01*
X17206171Y-17188594D01*
X17208170Y-17194972D01*
X17208170Y-17194973D01*
X17226804Y-17254432D01*
X17256873Y-17350383D01*
X17344703Y-17495408D01*
X17464592Y-17615297D01*
X17471093Y-17619234D01*
X17603122Y-17699194D01*
X17603125Y-17699195D01*
X17609617Y-17703127D01*
X17609859Y-17703203D01*
X17661339Y-17747424D01*
X17681634Y-17815459D01*
X17661925Y-17883665D01*
X17608469Y-17930388D01*
X17555635Y-17942000D01*
X16747778Y-17942000D01*
X16679657Y-17921998D01*
X16633164Y-17868342D01*
X16623060Y-17798068D01*
X16652554Y-17733488D01*
X16658683Y-17726905D01*
X16678322Y-17707266D01*
X16686115Y-17697779D01*
X16789222Y-17543759D01*
X16795022Y-17532943D01*
X16866248Y-17361833D01*
X16869838Y-17350091D01*
X16906767Y-17166945D01*
X16907923Y-17157733D01*
X16908000Y-17154681D01*
X16908000Y-15832115D01*
X16903525Y-15816876D01*
X16902135Y-15815671D01*
X16894452Y-15814000D01*
X15272000Y-15814000D01*
X15203879Y-15793998D01*
X15157386Y-15740342D01*
X15146000Y-15688000D01*
X15146000Y-15432000D01*
X15166002Y-15363879D01*
X15219658Y-15317386D01*
X15272000Y-15306000D01*
X16889885Y-15306000D01*
X16905124Y-15301525D01*
X16906329Y-15300135D01*
X16908000Y-15292452D01*
X16908000Y-13965319D01*
X16907923Y-13962267D01*
X16906767Y-13953055D01*
X16869838Y-13769909D01*
X16866248Y-13758167D01*
X16795022Y-13587057D01*
X16789222Y-13576241D01*
X16686115Y-13422221D01*
X16678322Y-13412734D01*
X16645580Y-13379992D01*
X16611554Y-13317680D01*
X16616619Y-13246865D01*
X16659166Y-13190029D01*
X16725686Y-13165218D01*
X16734457Y-13164897D01*
X17594802Y-13163406D01*
X17662957Y-13183290D01*
G37*
%TD.AperFunction*%
M02*
