%TF.GenerationSoftware,KiCad,Pcbnew,(6.0.6)*%
%TF.CreationDate,2022-06-29T14:14:22-05:00*%
%TF.ProjectId,FireflyV0,46697265-666c-4795-9630-2e6b69636164,rev?*%
%TF.SameCoordinates,Original*%
%TF.FileFunction,Copper,L2,Bot*%
%TF.FilePolarity,Positive*%
%FSLAX46Y46*%
G04 Gerber Fmt 4.6, Leading zero omitted, Abs format (unit mm)*
G04 Created by KiCad (PCBNEW (6.0.6)) date 2022-06-29 14:14:22*
%MOMM*%
%LPD*%
G01*
G04 APERTURE LIST*
%TA.AperFunction,ComponentPad*%
%ADD10O,1.700000X1.700000*%
%TD*%
%TA.AperFunction,ComponentPad*%
%ADD11R,1.200000X1.400000*%
%TD*%
%TA.AperFunction,ComponentPad*%
%ADD12C,2.010000*%
%TD*%
%TA.AperFunction,ComponentPad*%
%ADD13C,1.524000*%
%TD*%
%TA.AperFunction,ViaPad*%
%ADD14C,0.800000*%
%TD*%
%TA.AperFunction,Conductor*%
%ADD15C,0.250000*%
%TD*%
G04 APERTURE END LIST*
D10*
X60710000Y-16060000D03*
X55630000Y-16060000D03*
X53090000Y-16060000D03*
X50550000Y-16060000D03*
X48010000Y-16060000D03*
X40390000Y-33800000D03*
X42930000Y-33840000D03*
X53090000Y-33840000D03*
X55630000Y-33840000D03*
X65790000Y-33840000D03*
X75950000Y-33840000D03*
D11*
X63265000Y-54950000D03*
X59215000Y-54950000D03*
X55785000Y-54950000D03*
X51735000Y-54950000D03*
D12*
X15313821Y-50082500D03*
X15313821Y-53882500D03*
X23953821Y-53882500D03*
X23953821Y-50082500D03*
X67210000Y-50250000D03*
X67210000Y-54050000D03*
X75850000Y-54050000D03*
X75850000Y-50250000D03*
D13*
X46070000Y-48460000D03*
X43530000Y-48460000D03*
X40990000Y-48460000D03*
X34030000Y-48520000D03*
X31490000Y-48520000D03*
X28950000Y-48520000D03*
D14*
X24480000Y-15630000D03*
X45470000Y-34800000D03*
X16300000Y-28410000D03*
X58190000Y-34690000D03*
X69000000Y-41000000D03*
X69010000Y-31000500D03*
X60050000Y-41740000D03*
X71000000Y-41000000D03*
X71010000Y-31010000D03*
X51900000Y-50770000D03*
X59650000Y-50790000D03*
X59020000Y-41730000D03*
X61050000Y-41750000D03*
D15*
X51915000Y-19965000D02*
X48010000Y-16060000D01*
X50550000Y-16060000D02*
X57465000Y-22975000D01*
X55867959Y-14397959D02*
X61050000Y-19580000D01*
X54752041Y-14397959D02*
X55867959Y-14397959D01*
X53090000Y-16060000D02*
X54752041Y-14397959D01*
X61050000Y-19580000D02*
X61050000Y-19564695D01*
X61050000Y-41750000D02*
X61050000Y-19580000D01*
X56690000Y-16060000D02*
X55630000Y-16060000D01*
X60050000Y-19420000D02*
X56690000Y-16060000D01*
X60050000Y-41740000D02*
X60050000Y-19420000D01*
X61775000Y-42065000D02*
X61775000Y-17125000D01*
X61775000Y-17125000D02*
X60710000Y-16060000D01*
X69000000Y-41000000D02*
X69000000Y-31000000D01*
X71000000Y-41000000D02*
X71000000Y-31000000D01*
X51915000Y-50755000D02*
X51915000Y-19965000D01*
X51900000Y-50770000D02*
X51915000Y-50755000D01*
X59650000Y-50790000D02*
X57465000Y-48605000D01*
X57465000Y-48605000D02*
X57465000Y-22975000D01*
X59020000Y-41730000D02*
X59020000Y-41735305D01*
X61365000Y-42475000D02*
X61775000Y-42065000D01*
X59020000Y-41735305D02*
X59759695Y-42475000D01*
X59759695Y-42475000D02*
X61365000Y-42475000D01*
%TA.AperFunction,Conductor*%
G36*
X77202204Y-13080102D02*
G01*
X77248790Y-13133677D01*
X77260267Y-13185949D01*
X77305814Y-34709798D01*
X77336760Y-49333441D01*
X77316902Y-49401604D01*
X77263345Y-49448211D01*
X77193092Y-49458463D01*
X77128449Y-49429107D01*
X77103327Y-49399542D01*
X77096204Y-49387918D01*
X77085747Y-49378457D01*
X77076969Y-49382241D01*
X76222022Y-50237188D01*
X76214408Y-50251132D01*
X76214539Y-50252965D01*
X76218790Y-50259580D01*
X77073926Y-51114716D01*
X77086306Y-51121476D01*
X77093956Y-51115749D01*
X77107192Y-51094150D01*
X77159840Y-51046519D01*
X77229881Y-51034912D01*
X77295079Y-51063015D01*
X77334733Y-51121905D01*
X77340625Y-51159717D01*
X77341074Y-51371884D01*
X77344829Y-53146609D01*
X77324971Y-53214772D01*
X77271414Y-53261379D01*
X77201161Y-53271631D01*
X77136518Y-53242275D01*
X77111396Y-53212710D01*
X77096204Y-53187918D01*
X77085747Y-53178457D01*
X77076969Y-53182241D01*
X76222022Y-54037188D01*
X76214408Y-54051132D01*
X76214539Y-54052965D01*
X76218790Y-54059580D01*
X77073926Y-54914716D01*
X77086306Y-54921476D01*
X77093958Y-54915748D01*
X77115207Y-54881073D01*
X77167854Y-54833441D01*
X77237896Y-54821835D01*
X77303093Y-54849939D01*
X77342747Y-54908829D01*
X77348639Y-54946639D01*
X77349243Y-55232175D01*
X77349733Y-55463893D01*
X77329875Y-55532055D01*
X77276318Y-55578662D01*
X77223893Y-55590159D01*
X76861458Y-55590615D01*
X76678191Y-55590845D01*
X76610046Y-55570928D01*
X76563485Y-55517331D01*
X76553293Y-55447070D01*
X76582705Y-55382452D01*
X76612198Y-55357412D01*
X76712083Y-55296203D01*
X76721543Y-55285747D01*
X76717759Y-55276969D01*
X75862812Y-54422022D01*
X75848868Y-54414408D01*
X75847035Y-54414539D01*
X75840420Y-54418790D01*
X74985284Y-55273926D01*
X74978524Y-55286306D01*
X74984252Y-55293957D01*
X75091194Y-55359491D01*
X75138826Y-55412139D01*
X75150433Y-55482180D01*
X75122330Y-55547378D01*
X75063440Y-55587032D01*
X75025519Y-55592924D01*
X68020417Y-55601737D01*
X67952271Y-55581821D01*
X67905710Y-55528223D01*
X67895518Y-55457962D01*
X67924930Y-55393344D01*
X67954424Y-55368304D01*
X68072082Y-55296204D01*
X68081543Y-55285747D01*
X68077759Y-55276969D01*
X67222812Y-54422022D01*
X67208868Y-54414408D01*
X67207035Y-54414539D01*
X67200420Y-54418790D01*
X66345284Y-55273926D01*
X66338524Y-55286306D01*
X66344251Y-55293956D01*
X66468897Y-55370339D01*
X66516528Y-55422987D01*
X66528135Y-55493028D01*
X66500032Y-55558226D01*
X66441142Y-55597880D01*
X66403222Y-55603772D01*
X65053183Y-55605470D01*
X64499158Y-55606167D01*
X64431013Y-55586251D01*
X64384452Y-55532653D01*
X64373000Y-55480167D01*
X64373000Y-55222115D01*
X64368525Y-55206876D01*
X64367135Y-55205671D01*
X64359452Y-55204000D01*
X62175116Y-55204000D01*
X62159877Y-55208475D01*
X62158672Y-55209865D01*
X62157001Y-55217548D01*
X62157001Y-55483272D01*
X62136999Y-55551393D01*
X62083343Y-55597886D01*
X62031159Y-55609272D01*
X60449158Y-55611262D01*
X60381013Y-55591346D01*
X60334452Y-55537748D01*
X60323000Y-55485262D01*
X60323000Y-55222115D01*
X60318525Y-55206876D01*
X60317135Y-55205671D01*
X60309452Y-55204000D01*
X58125116Y-55204000D01*
X58109877Y-55208475D01*
X58108672Y-55209865D01*
X58107001Y-55217548D01*
X58107001Y-55488367D01*
X58086999Y-55556488D01*
X58033343Y-55602981D01*
X57981159Y-55614367D01*
X57019158Y-55615577D01*
X56951013Y-55595661D01*
X56904452Y-55542063D01*
X56893000Y-55489577D01*
X56893000Y-55222115D01*
X56888525Y-55206876D01*
X56887135Y-55205671D01*
X56879452Y-55204000D01*
X54695116Y-55204000D01*
X54679877Y-55208475D01*
X54678672Y-55209865D01*
X54677001Y-55217548D01*
X54677001Y-55492682D01*
X54656999Y-55560803D01*
X54603343Y-55607296D01*
X54551159Y-55618682D01*
X52969158Y-55620672D01*
X52901013Y-55600756D01*
X52854452Y-55547158D01*
X52843000Y-55494672D01*
X52843000Y-55222115D01*
X52838525Y-55206876D01*
X52837135Y-55205671D01*
X52829452Y-55204000D01*
X50645116Y-55204000D01*
X50629877Y-55208475D01*
X50628672Y-55209865D01*
X50627001Y-55217548D01*
X50627001Y-55497777D01*
X50606999Y-55565898D01*
X50553343Y-55612391D01*
X50501160Y-55623777D01*
X13886218Y-55669841D01*
X13818072Y-55649925D01*
X13771511Y-55596327D01*
X13760059Y-55543782D01*
X13760062Y-55537748D01*
X13760259Y-55118806D01*
X14442345Y-55118806D01*
X14448072Y-55126456D01*
X14620590Y-55232175D01*
X14629384Y-55236656D01*
X14840260Y-55324004D01*
X14849645Y-55327053D01*
X15071591Y-55380338D01*
X15081338Y-55381881D01*
X15308891Y-55399790D01*
X15318751Y-55399790D01*
X15546304Y-55381881D01*
X15556051Y-55380338D01*
X15777997Y-55327053D01*
X15787382Y-55324004D01*
X15998258Y-55236656D01*
X16007052Y-55232175D01*
X16175904Y-55128703D01*
X16184858Y-55118806D01*
X23082345Y-55118806D01*
X23088072Y-55126456D01*
X23260590Y-55232175D01*
X23269384Y-55236656D01*
X23480260Y-55324004D01*
X23489645Y-55327053D01*
X23711591Y-55380338D01*
X23721338Y-55381881D01*
X23948891Y-55399790D01*
X23958751Y-55399790D01*
X24186304Y-55381881D01*
X24196051Y-55380338D01*
X24417997Y-55327053D01*
X24427382Y-55324004D01*
X24638258Y-55236656D01*
X24647052Y-55232175D01*
X24815904Y-55128703D01*
X24825364Y-55118247D01*
X24821580Y-55109469D01*
X23966633Y-54254522D01*
X23952689Y-54246908D01*
X23950856Y-54247039D01*
X23944241Y-54251290D01*
X23089105Y-55106426D01*
X23082345Y-55118806D01*
X16184858Y-55118806D01*
X16185364Y-55118247D01*
X16181580Y-55109469D01*
X15326633Y-54254522D01*
X15312689Y-54246908D01*
X15310856Y-54247039D01*
X15304241Y-54251290D01*
X14449105Y-55106426D01*
X14442345Y-55118806D01*
X13760259Y-55118806D01*
X13760461Y-54690050D01*
X13780495Y-54621940D01*
X13834173Y-54575473D01*
X13904451Y-54565402D01*
X13969018Y-54594925D01*
X13993894Y-54624276D01*
X14067618Y-54744583D01*
X14078074Y-54754043D01*
X14086852Y-54750259D01*
X14941799Y-53895312D01*
X14948177Y-53883632D01*
X15678229Y-53883632D01*
X15678360Y-53885465D01*
X15682611Y-53892080D01*
X16537747Y-54747216D01*
X16550127Y-54753976D01*
X16557777Y-54748249D01*
X16663496Y-54575731D01*
X16667977Y-54566937D01*
X16755325Y-54356061D01*
X16758374Y-54346676D01*
X16811659Y-54124730D01*
X16813202Y-54114983D01*
X16831111Y-53887430D01*
X22436531Y-53887430D01*
X22454440Y-54114983D01*
X22455983Y-54124730D01*
X22509268Y-54346676D01*
X22512317Y-54356061D01*
X22599665Y-54566937D01*
X22604146Y-54575731D01*
X22707618Y-54744583D01*
X22718074Y-54754043D01*
X22726852Y-54750259D01*
X23581799Y-53895312D01*
X23588177Y-53883632D01*
X24318229Y-53883632D01*
X24318360Y-53885465D01*
X24322611Y-53892080D01*
X25177747Y-54747216D01*
X25190127Y-54753976D01*
X25197777Y-54748249D01*
X25240896Y-54677885D01*
X50627000Y-54677885D01*
X50631475Y-54693124D01*
X50632865Y-54694329D01*
X50640548Y-54696000D01*
X51462885Y-54696000D01*
X51478124Y-54691525D01*
X51479329Y-54690135D01*
X51481000Y-54682452D01*
X51481000Y-54677885D01*
X51989000Y-54677885D01*
X51993475Y-54693124D01*
X51994865Y-54694329D01*
X52002548Y-54696000D01*
X52824884Y-54696000D01*
X52840123Y-54691525D01*
X52841328Y-54690135D01*
X52842999Y-54682452D01*
X52842999Y-54677885D01*
X54677000Y-54677885D01*
X54681475Y-54693124D01*
X54682865Y-54694329D01*
X54690548Y-54696000D01*
X55512885Y-54696000D01*
X55528124Y-54691525D01*
X55529329Y-54690135D01*
X55531000Y-54682452D01*
X55531000Y-54677885D01*
X56039000Y-54677885D01*
X56043475Y-54693124D01*
X56044865Y-54694329D01*
X56052548Y-54696000D01*
X56874884Y-54696000D01*
X56890123Y-54691525D01*
X56891328Y-54690135D01*
X56892999Y-54682452D01*
X56892999Y-54677885D01*
X58107000Y-54677885D01*
X58111475Y-54693124D01*
X58112865Y-54694329D01*
X58120548Y-54696000D01*
X58942885Y-54696000D01*
X58958124Y-54691525D01*
X58959329Y-54690135D01*
X58961000Y-54682452D01*
X58961000Y-54677885D01*
X59469000Y-54677885D01*
X59473475Y-54693124D01*
X59474865Y-54694329D01*
X59482548Y-54696000D01*
X60304884Y-54696000D01*
X60320123Y-54691525D01*
X60321328Y-54690135D01*
X60322999Y-54682452D01*
X60322999Y-54677885D01*
X62157000Y-54677885D01*
X62161475Y-54693124D01*
X62162865Y-54694329D01*
X62170548Y-54696000D01*
X62992885Y-54696000D01*
X63008124Y-54691525D01*
X63009329Y-54690135D01*
X63011000Y-54682452D01*
X63011000Y-54677885D01*
X63519000Y-54677885D01*
X63523475Y-54693124D01*
X63524865Y-54694329D01*
X63532548Y-54696000D01*
X64354884Y-54696000D01*
X64370123Y-54691525D01*
X64371328Y-54690135D01*
X64372999Y-54682452D01*
X64372999Y-54205331D01*
X64372629Y-54198510D01*
X64367105Y-54147648D01*
X64363479Y-54132396D01*
X64334438Y-54054930D01*
X65692710Y-54054930D01*
X65710619Y-54282483D01*
X65712162Y-54292230D01*
X65765447Y-54514176D01*
X65768496Y-54523561D01*
X65855844Y-54734437D01*
X65860325Y-54743231D01*
X65963797Y-54912083D01*
X65974253Y-54921543D01*
X65983031Y-54917759D01*
X66837978Y-54062812D01*
X66844356Y-54051132D01*
X67574408Y-54051132D01*
X67574539Y-54052965D01*
X67578790Y-54059580D01*
X68433926Y-54914716D01*
X68446306Y-54921476D01*
X68453956Y-54915749D01*
X68559675Y-54743231D01*
X68564156Y-54734437D01*
X68651504Y-54523561D01*
X68654553Y-54514176D01*
X68707838Y-54292230D01*
X68709381Y-54282483D01*
X68727290Y-54054930D01*
X74332710Y-54054930D01*
X74350619Y-54282483D01*
X74352162Y-54292230D01*
X74405447Y-54514176D01*
X74408496Y-54523561D01*
X74495844Y-54734437D01*
X74500325Y-54743231D01*
X74603797Y-54912083D01*
X74614253Y-54921543D01*
X74623031Y-54917759D01*
X75477978Y-54062812D01*
X75485592Y-54048868D01*
X75485461Y-54047035D01*
X75481210Y-54040420D01*
X74626074Y-53185284D01*
X74613694Y-53178524D01*
X74606044Y-53184251D01*
X74500325Y-53356769D01*
X74495844Y-53365563D01*
X74408496Y-53576439D01*
X74405447Y-53585824D01*
X74352162Y-53807770D01*
X74350619Y-53817517D01*
X74332710Y-54045070D01*
X74332710Y-54054930D01*
X68727290Y-54054930D01*
X68727290Y-54045070D01*
X68709381Y-53817517D01*
X68707838Y-53807770D01*
X68654553Y-53585824D01*
X68651504Y-53576439D01*
X68564156Y-53365563D01*
X68559675Y-53356769D01*
X68456203Y-53187917D01*
X68445747Y-53178457D01*
X68436969Y-53182241D01*
X67582022Y-54037188D01*
X67574408Y-54051132D01*
X66844356Y-54051132D01*
X66845592Y-54048868D01*
X66845461Y-54047035D01*
X66841210Y-54040420D01*
X65986074Y-53185284D01*
X65973694Y-53178524D01*
X65966044Y-53184251D01*
X65860325Y-53356769D01*
X65855844Y-53365563D01*
X65768496Y-53576439D01*
X65765447Y-53585824D01*
X65712162Y-53807770D01*
X65710619Y-53817517D01*
X65692710Y-54045070D01*
X65692710Y-54054930D01*
X64334438Y-54054930D01*
X64318324Y-54011946D01*
X64309786Y-53996351D01*
X64233285Y-53894276D01*
X64220724Y-53881715D01*
X64118649Y-53805214D01*
X64103054Y-53796676D01*
X63982606Y-53751522D01*
X63967351Y-53747895D01*
X63916486Y-53742369D01*
X63909672Y-53742000D01*
X63537115Y-53742000D01*
X63521876Y-53746475D01*
X63520671Y-53747865D01*
X63519000Y-53755548D01*
X63519000Y-54677885D01*
X63011000Y-54677885D01*
X63011000Y-53760116D01*
X63006525Y-53744877D01*
X63005135Y-53743672D01*
X62997452Y-53742001D01*
X62620331Y-53742001D01*
X62613510Y-53742371D01*
X62562648Y-53747895D01*
X62547396Y-53751521D01*
X62426946Y-53796676D01*
X62411351Y-53805214D01*
X62309276Y-53881715D01*
X62296715Y-53894276D01*
X62220214Y-53996351D01*
X62211676Y-54011946D01*
X62166522Y-54132394D01*
X62162895Y-54147649D01*
X62157369Y-54198514D01*
X62157000Y-54205328D01*
X62157000Y-54677885D01*
X60322999Y-54677885D01*
X60322999Y-54205331D01*
X60322629Y-54198510D01*
X60317105Y-54147648D01*
X60313479Y-54132396D01*
X60268324Y-54011946D01*
X60259786Y-53996351D01*
X60183285Y-53894276D01*
X60170724Y-53881715D01*
X60068649Y-53805214D01*
X60053054Y-53796676D01*
X59932606Y-53751522D01*
X59917351Y-53747895D01*
X59866486Y-53742369D01*
X59859672Y-53742000D01*
X59487115Y-53742000D01*
X59471876Y-53746475D01*
X59470671Y-53747865D01*
X59469000Y-53755548D01*
X59469000Y-54677885D01*
X58961000Y-54677885D01*
X58961000Y-53760116D01*
X58956525Y-53744877D01*
X58955135Y-53743672D01*
X58947452Y-53742001D01*
X58570331Y-53742001D01*
X58563510Y-53742371D01*
X58512648Y-53747895D01*
X58497396Y-53751521D01*
X58376946Y-53796676D01*
X58361351Y-53805214D01*
X58259276Y-53881715D01*
X58246715Y-53894276D01*
X58170214Y-53996351D01*
X58161676Y-54011946D01*
X58116522Y-54132394D01*
X58112895Y-54147649D01*
X58107369Y-54198514D01*
X58107000Y-54205328D01*
X58107000Y-54677885D01*
X56892999Y-54677885D01*
X56892999Y-54205331D01*
X56892629Y-54198510D01*
X56887105Y-54147648D01*
X56883479Y-54132396D01*
X56838324Y-54011946D01*
X56829786Y-53996351D01*
X56753285Y-53894276D01*
X56740724Y-53881715D01*
X56638649Y-53805214D01*
X56623054Y-53796676D01*
X56502606Y-53751522D01*
X56487351Y-53747895D01*
X56436486Y-53742369D01*
X56429672Y-53742000D01*
X56057115Y-53742000D01*
X56041876Y-53746475D01*
X56040671Y-53747865D01*
X56039000Y-53755548D01*
X56039000Y-54677885D01*
X55531000Y-54677885D01*
X55531000Y-53760116D01*
X55526525Y-53744877D01*
X55525135Y-53743672D01*
X55517452Y-53742001D01*
X55140331Y-53742001D01*
X55133510Y-53742371D01*
X55082648Y-53747895D01*
X55067396Y-53751521D01*
X54946946Y-53796676D01*
X54931351Y-53805214D01*
X54829276Y-53881715D01*
X54816715Y-53894276D01*
X54740214Y-53996351D01*
X54731676Y-54011946D01*
X54686522Y-54132394D01*
X54682895Y-54147649D01*
X54677369Y-54198514D01*
X54677000Y-54205328D01*
X54677000Y-54677885D01*
X52842999Y-54677885D01*
X52842999Y-54205331D01*
X52842629Y-54198510D01*
X52837105Y-54147648D01*
X52833479Y-54132396D01*
X52788324Y-54011946D01*
X52779786Y-53996351D01*
X52703285Y-53894276D01*
X52690724Y-53881715D01*
X52588649Y-53805214D01*
X52573054Y-53796676D01*
X52452606Y-53751522D01*
X52437351Y-53747895D01*
X52386486Y-53742369D01*
X52379672Y-53742000D01*
X52007115Y-53742000D01*
X51991876Y-53746475D01*
X51990671Y-53747865D01*
X51989000Y-53755548D01*
X51989000Y-54677885D01*
X51481000Y-54677885D01*
X51481000Y-53760116D01*
X51476525Y-53744877D01*
X51475135Y-53743672D01*
X51467452Y-53742001D01*
X51090331Y-53742001D01*
X51083510Y-53742371D01*
X51032648Y-53747895D01*
X51017396Y-53751521D01*
X50896946Y-53796676D01*
X50881351Y-53805214D01*
X50779276Y-53881715D01*
X50766715Y-53894276D01*
X50690214Y-53996351D01*
X50681676Y-54011946D01*
X50636522Y-54132394D01*
X50632895Y-54147649D01*
X50627369Y-54198514D01*
X50627000Y-54205328D01*
X50627000Y-54677885D01*
X25240896Y-54677885D01*
X25303496Y-54575731D01*
X25307977Y-54566937D01*
X25395325Y-54356061D01*
X25398374Y-54346676D01*
X25451659Y-54124730D01*
X25453202Y-54114983D01*
X25471111Y-53887430D01*
X25471111Y-53877570D01*
X25453202Y-53650017D01*
X25451659Y-53640270D01*
X25398374Y-53418324D01*
X25395325Y-53408939D01*
X25307977Y-53198063D01*
X25303496Y-53189269D01*
X25200024Y-53020417D01*
X25189568Y-53010957D01*
X25180790Y-53014741D01*
X24325843Y-53869688D01*
X24318229Y-53883632D01*
X23588177Y-53883632D01*
X23589413Y-53881368D01*
X23589282Y-53879535D01*
X23585031Y-53872920D01*
X22729895Y-53017784D01*
X22717515Y-53011024D01*
X22709865Y-53016751D01*
X22604146Y-53189269D01*
X22599665Y-53198063D01*
X22512317Y-53408939D01*
X22509268Y-53418324D01*
X22455983Y-53640270D01*
X22454440Y-53650017D01*
X22436531Y-53877570D01*
X22436531Y-53887430D01*
X16831111Y-53887430D01*
X16831111Y-53877570D01*
X16813202Y-53650017D01*
X16811659Y-53640270D01*
X16758374Y-53418324D01*
X16755325Y-53408939D01*
X16667977Y-53198063D01*
X16663496Y-53189269D01*
X16560024Y-53020417D01*
X16549568Y-53010957D01*
X16540790Y-53014741D01*
X15685843Y-53869688D01*
X15678229Y-53883632D01*
X14948177Y-53883632D01*
X14949413Y-53881368D01*
X14949282Y-53879535D01*
X14945031Y-53872920D01*
X14089895Y-53017784D01*
X14077515Y-53011024D01*
X14069864Y-53016752D01*
X13994656Y-53139481D01*
X13942009Y-53187113D01*
X13871967Y-53198720D01*
X13806769Y-53170617D01*
X13767115Y-53111727D01*
X13761223Y-53073588D01*
X13761424Y-52646753D01*
X14442278Y-52646753D01*
X14446062Y-52655531D01*
X15301009Y-53510478D01*
X15314953Y-53518092D01*
X15316786Y-53517961D01*
X15323401Y-53513710D01*
X16178537Y-52658574D01*
X16184992Y-52646753D01*
X23082278Y-52646753D01*
X23086062Y-52655531D01*
X23941009Y-53510478D01*
X23954953Y-53518092D01*
X23956786Y-53517961D01*
X23963401Y-53513710D01*
X24662858Y-52814253D01*
X66338457Y-52814253D01*
X66342241Y-52823031D01*
X67197188Y-53677978D01*
X67211132Y-53685592D01*
X67212965Y-53685461D01*
X67219580Y-53681210D01*
X68074716Y-52826074D01*
X68081171Y-52814253D01*
X74978457Y-52814253D01*
X74982241Y-52823031D01*
X75837188Y-53677978D01*
X75851132Y-53685592D01*
X75852965Y-53685461D01*
X75859580Y-53681210D01*
X76714716Y-52826074D01*
X76721476Y-52813694D01*
X76715749Y-52806044D01*
X76543231Y-52700325D01*
X76534437Y-52695844D01*
X76323561Y-52608496D01*
X76314176Y-52605447D01*
X76092230Y-52552162D01*
X76082483Y-52550619D01*
X75854930Y-52532710D01*
X75845070Y-52532710D01*
X75617517Y-52550619D01*
X75607770Y-52552162D01*
X75385824Y-52605447D01*
X75376439Y-52608496D01*
X75165563Y-52695844D01*
X75156769Y-52700325D01*
X74987917Y-52803797D01*
X74978457Y-52814253D01*
X68081171Y-52814253D01*
X68081476Y-52813694D01*
X68075749Y-52806044D01*
X67903231Y-52700325D01*
X67894437Y-52695844D01*
X67683561Y-52608496D01*
X67674176Y-52605447D01*
X67452230Y-52552162D01*
X67442483Y-52550619D01*
X67214930Y-52532710D01*
X67205070Y-52532710D01*
X66977517Y-52550619D01*
X66967770Y-52552162D01*
X66745824Y-52605447D01*
X66736439Y-52608496D01*
X66525563Y-52695844D01*
X66516769Y-52700325D01*
X66347917Y-52803797D01*
X66338457Y-52814253D01*
X24662858Y-52814253D01*
X24818537Y-52658574D01*
X24825297Y-52646194D01*
X24819570Y-52638544D01*
X24647052Y-52532825D01*
X24638258Y-52528344D01*
X24427382Y-52440996D01*
X24417997Y-52437947D01*
X24196051Y-52384662D01*
X24186304Y-52383119D01*
X23958751Y-52365210D01*
X23948891Y-52365210D01*
X23721338Y-52383119D01*
X23711591Y-52384662D01*
X23489645Y-52437947D01*
X23480260Y-52440996D01*
X23269384Y-52528344D01*
X23260590Y-52532825D01*
X23091738Y-52636297D01*
X23082278Y-52646753D01*
X16184992Y-52646753D01*
X16185297Y-52646194D01*
X16179570Y-52638544D01*
X16007052Y-52532825D01*
X15998258Y-52528344D01*
X15787382Y-52440996D01*
X15777997Y-52437947D01*
X15556051Y-52384662D01*
X15546304Y-52383119D01*
X15318751Y-52365210D01*
X15308891Y-52365210D01*
X15081338Y-52383119D01*
X15071591Y-52384662D01*
X14849645Y-52437947D01*
X14840260Y-52440996D01*
X14629384Y-52528344D01*
X14620590Y-52532825D01*
X14451738Y-52636297D01*
X14442278Y-52646753D01*
X13761424Y-52646753D01*
X13762049Y-51318806D01*
X14442345Y-51318806D01*
X14448072Y-51326456D01*
X14620590Y-51432175D01*
X14629384Y-51436656D01*
X14840260Y-51524004D01*
X14849645Y-51527053D01*
X15071591Y-51580338D01*
X15081338Y-51581881D01*
X15308891Y-51599790D01*
X15318751Y-51599790D01*
X15546304Y-51581881D01*
X15556051Y-51580338D01*
X15777997Y-51527053D01*
X15787382Y-51524004D01*
X15998258Y-51436656D01*
X16007052Y-51432175D01*
X16175904Y-51328703D01*
X16184858Y-51318806D01*
X23082345Y-51318806D01*
X23088072Y-51326456D01*
X23260590Y-51432175D01*
X23269384Y-51436656D01*
X23480260Y-51524004D01*
X23489645Y-51527053D01*
X23711591Y-51580338D01*
X23721338Y-51581881D01*
X23948891Y-51599790D01*
X23958751Y-51599790D01*
X24186304Y-51581881D01*
X24196051Y-51580338D01*
X24417997Y-51527053D01*
X24427382Y-51524004D01*
X24518393Y-51486306D01*
X66338524Y-51486306D01*
X66344251Y-51493956D01*
X66516769Y-51599675D01*
X66525563Y-51604156D01*
X66736439Y-51691504D01*
X66745824Y-51694553D01*
X66967770Y-51747838D01*
X66977517Y-51749381D01*
X67205070Y-51767290D01*
X67214930Y-51767290D01*
X67442483Y-51749381D01*
X67452230Y-51747838D01*
X67674176Y-51694553D01*
X67683561Y-51691504D01*
X67894437Y-51604156D01*
X67903231Y-51599675D01*
X68072083Y-51496203D01*
X68081037Y-51486306D01*
X74978524Y-51486306D01*
X74984251Y-51493956D01*
X75156769Y-51599675D01*
X75165563Y-51604156D01*
X75376439Y-51691504D01*
X75385824Y-51694553D01*
X75607770Y-51747838D01*
X75617517Y-51749381D01*
X75845070Y-51767290D01*
X75854930Y-51767290D01*
X76082483Y-51749381D01*
X76092230Y-51747838D01*
X76314176Y-51694553D01*
X76323561Y-51691504D01*
X76534437Y-51604156D01*
X76543231Y-51599675D01*
X76712083Y-51496203D01*
X76721543Y-51485747D01*
X76717759Y-51476969D01*
X75862812Y-50622022D01*
X75848868Y-50614408D01*
X75847035Y-50614539D01*
X75840420Y-50618790D01*
X74985284Y-51473926D01*
X74978524Y-51486306D01*
X68081037Y-51486306D01*
X68081543Y-51485747D01*
X68077759Y-51476969D01*
X67222812Y-50622022D01*
X67208868Y-50614408D01*
X67207035Y-50614539D01*
X67200420Y-50618790D01*
X66345284Y-51473926D01*
X66338524Y-51486306D01*
X24518393Y-51486306D01*
X24638258Y-51436656D01*
X24647052Y-51432175D01*
X24815904Y-51328703D01*
X24825364Y-51318247D01*
X24821580Y-51309469D01*
X23966633Y-50454522D01*
X23952689Y-50446908D01*
X23950856Y-50447039D01*
X23944241Y-50451290D01*
X23089105Y-51306426D01*
X23082345Y-51318806D01*
X16184858Y-51318806D01*
X16185364Y-51318247D01*
X16181580Y-51309469D01*
X15326633Y-50454522D01*
X15312689Y-50446908D01*
X15310856Y-50447039D01*
X15304241Y-50451290D01*
X14449105Y-51306426D01*
X14442345Y-51318806D01*
X13762049Y-51318806D01*
X13762250Y-50892970D01*
X13782284Y-50824858D01*
X13835962Y-50778391D01*
X13906240Y-50768320D01*
X13970807Y-50797843D01*
X13995683Y-50827195D01*
X14067617Y-50944582D01*
X14078074Y-50954043D01*
X14086852Y-50950259D01*
X14941799Y-50095312D01*
X14948177Y-50083632D01*
X15678229Y-50083632D01*
X15678360Y-50085465D01*
X15682611Y-50092080D01*
X16537747Y-50947216D01*
X16550127Y-50953976D01*
X16557777Y-50948249D01*
X16663496Y-50775731D01*
X16667977Y-50766937D01*
X16755325Y-50556061D01*
X16758374Y-50546676D01*
X16811659Y-50324730D01*
X16813202Y-50314983D01*
X16831111Y-50087430D01*
X22436531Y-50087430D01*
X22454440Y-50314983D01*
X22455983Y-50324730D01*
X22509268Y-50546676D01*
X22512317Y-50556061D01*
X22599665Y-50766937D01*
X22604146Y-50775731D01*
X22707618Y-50944583D01*
X22718074Y-50954043D01*
X22726852Y-50950259D01*
X23581799Y-50095312D01*
X23588177Y-50083632D01*
X24318229Y-50083632D01*
X24318360Y-50085465D01*
X24322611Y-50092080D01*
X25177747Y-50947216D01*
X25190127Y-50953976D01*
X25197777Y-50948249D01*
X25303496Y-50775731D01*
X25307977Y-50766937D01*
X25395325Y-50556061D01*
X25398374Y-50546676D01*
X25451659Y-50324730D01*
X25453202Y-50314983D01*
X25471111Y-50087430D01*
X25471111Y-50077570D01*
X25453202Y-49850017D01*
X25451659Y-49840270D01*
X25398374Y-49618324D01*
X25395325Y-49608939D01*
X25382831Y-49578777D01*
X33335777Y-49578777D01*
X33345074Y-49590793D01*
X33388069Y-49620898D01*
X33397555Y-49626376D01*
X33588993Y-49715645D01*
X33599285Y-49719391D01*
X33803309Y-49774059D01*
X33814104Y-49775962D01*
X34024525Y-49794372D01*
X34035475Y-49794372D01*
X34245896Y-49775962D01*
X34256691Y-49774059D01*
X34460715Y-49719391D01*
X34471007Y-49715645D01*
X34662445Y-49626376D01*
X34671931Y-49620898D01*
X34715764Y-49590207D01*
X34724139Y-49579729D01*
X34717071Y-49566281D01*
X34669567Y-49518777D01*
X45375777Y-49518777D01*
X45385074Y-49530793D01*
X45428069Y-49560898D01*
X45437555Y-49566376D01*
X45628993Y-49655645D01*
X45639285Y-49659391D01*
X45843309Y-49714059D01*
X45854104Y-49715962D01*
X46064525Y-49734372D01*
X46075475Y-49734372D01*
X46285896Y-49715962D01*
X46296691Y-49714059D01*
X46500715Y-49659391D01*
X46511007Y-49655645D01*
X46702445Y-49566376D01*
X46711931Y-49560898D01*
X46755764Y-49530207D01*
X46764139Y-49519729D01*
X46757071Y-49506281D01*
X46082812Y-48832022D01*
X46068868Y-48824408D01*
X46067035Y-48824539D01*
X46060420Y-48828790D01*
X45382207Y-49507003D01*
X45375777Y-49518777D01*
X34669567Y-49518777D01*
X34042812Y-48892022D01*
X34028868Y-48884408D01*
X34027035Y-48884539D01*
X34020420Y-48888790D01*
X33342207Y-49567003D01*
X33335777Y-49578777D01*
X25382831Y-49578777D01*
X25307977Y-49398063D01*
X25303496Y-49389269D01*
X25200024Y-49220417D01*
X25189568Y-49210957D01*
X25180790Y-49214741D01*
X24325843Y-50069688D01*
X24318229Y-50083632D01*
X23588177Y-50083632D01*
X23589413Y-50081368D01*
X23589282Y-50079535D01*
X23585031Y-50072920D01*
X22729895Y-49217784D01*
X22717515Y-49211024D01*
X22709865Y-49216751D01*
X22604146Y-49389269D01*
X22599665Y-49398063D01*
X22512317Y-49608939D01*
X22509268Y-49618324D01*
X22455983Y-49840270D01*
X22454440Y-49850017D01*
X22436531Y-50077570D01*
X22436531Y-50087430D01*
X16831111Y-50087430D01*
X16831111Y-50077570D01*
X16813202Y-49850017D01*
X16811659Y-49840270D01*
X16758374Y-49618324D01*
X16755325Y-49608939D01*
X16667977Y-49398063D01*
X16663496Y-49389269D01*
X16560024Y-49220417D01*
X16549568Y-49210957D01*
X16540790Y-49214741D01*
X15685843Y-50069688D01*
X15678229Y-50083632D01*
X14948177Y-50083632D01*
X14949413Y-50081368D01*
X14949282Y-50079535D01*
X14945031Y-50072920D01*
X14089895Y-49217784D01*
X14077515Y-49211024D01*
X14069864Y-49216752D01*
X13996447Y-49336558D01*
X13943800Y-49384190D01*
X13873758Y-49395797D01*
X13808560Y-49367694D01*
X13768906Y-49308804D01*
X13763014Y-49270665D01*
X13763214Y-48846753D01*
X14442278Y-48846753D01*
X14446062Y-48855531D01*
X15301009Y-49710478D01*
X15314953Y-49718092D01*
X15316786Y-49717961D01*
X15323401Y-49713710D01*
X16178537Y-48858574D01*
X16184992Y-48846753D01*
X23082278Y-48846753D01*
X23086062Y-48855531D01*
X23941009Y-49710478D01*
X23954953Y-49718092D01*
X23956786Y-49717961D01*
X23963401Y-49713710D01*
X24818537Y-48858574D01*
X24825297Y-48846194D01*
X24819570Y-48838544D01*
X24647052Y-48732825D01*
X24638258Y-48728344D01*
X24427382Y-48640996D01*
X24417997Y-48637947D01*
X24196051Y-48584662D01*
X24186304Y-48583119D01*
X23958751Y-48565210D01*
X23948891Y-48565210D01*
X23721338Y-48583119D01*
X23711591Y-48584662D01*
X23489645Y-48637947D01*
X23480260Y-48640996D01*
X23269384Y-48728344D01*
X23260590Y-48732825D01*
X23091738Y-48836297D01*
X23082278Y-48846753D01*
X16184992Y-48846753D01*
X16185297Y-48846194D01*
X16179570Y-48838544D01*
X16007052Y-48732825D01*
X15998258Y-48728344D01*
X15787382Y-48640996D01*
X15777997Y-48637947D01*
X15556051Y-48584662D01*
X15546304Y-48583119D01*
X15318751Y-48565210D01*
X15308891Y-48565210D01*
X15081338Y-48583119D01*
X15071591Y-48584662D01*
X14849645Y-48637947D01*
X14840260Y-48640996D01*
X14629384Y-48728344D01*
X14620590Y-48732825D01*
X14451738Y-48836297D01*
X14442278Y-48846753D01*
X13763214Y-48846753D01*
X13763374Y-48506496D01*
X27982937Y-48506496D01*
X27985147Y-48532812D01*
X27998069Y-48686691D01*
X27998732Y-48694590D01*
X28000431Y-48700515D01*
X28044264Y-48853378D01*
X28050760Y-48876034D01*
X28053576Y-48881513D01*
X28121508Y-49013694D01*
X28137040Y-49043917D01*
X28140865Y-49048743D01*
X28140867Y-49048746D01*
X28250456Y-49187014D01*
X28250460Y-49187019D01*
X28254285Y-49191844D01*
X28398030Y-49314180D01*
X28403408Y-49317186D01*
X28403410Y-49317187D01*
X28450062Y-49343260D01*
X28562800Y-49406267D01*
X28742317Y-49464595D01*
X28929745Y-49486945D01*
X28935880Y-49486473D01*
X28935882Y-49486473D01*
X29111803Y-49472937D01*
X29111807Y-49472936D01*
X29117945Y-49472464D01*
X29123877Y-49470808D01*
X29123881Y-49470807D01*
X29293804Y-49423363D01*
X29293808Y-49423362D01*
X29299748Y-49421703D01*
X29424037Y-49358921D01*
X29462728Y-49339377D01*
X29462730Y-49339376D01*
X29468229Y-49336598D01*
X29616970Y-49220388D01*
X29620996Y-49215724D01*
X29620999Y-49215721D01*
X29736278Y-49082169D01*
X29736279Y-49082167D01*
X29740307Y-49077501D01*
X29833542Y-48913378D01*
X29893123Y-48734272D01*
X29916780Y-48547005D01*
X29917157Y-48520000D01*
X29915833Y-48506496D01*
X30522937Y-48506496D01*
X30525147Y-48532812D01*
X30538069Y-48686691D01*
X30538732Y-48694590D01*
X30540431Y-48700515D01*
X30584264Y-48853378D01*
X30590760Y-48876034D01*
X30593576Y-48881513D01*
X30661508Y-49013694D01*
X30677040Y-49043917D01*
X30680865Y-49048743D01*
X30680867Y-49048746D01*
X30790456Y-49187014D01*
X30790460Y-49187019D01*
X30794285Y-49191844D01*
X30938030Y-49314180D01*
X30943408Y-49317186D01*
X30943410Y-49317187D01*
X30990062Y-49343260D01*
X31102800Y-49406267D01*
X31282317Y-49464595D01*
X31469745Y-49486945D01*
X31475880Y-49486473D01*
X31475882Y-49486473D01*
X31651803Y-49472937D01*
X31651807Y-49472936D01*
X31657945Y-49472464D01*
X31663877Y-49470808D01*
X31663881Y-49470807D01*
X31833804Y-49423363D01*
X31833808Y-49423362D01*
X31839748Y-49421703D01*
X31964037Y-49358921D01*
X32002728Y-49339377D01*
X32002730Y-49339376D01*
X32008229Y-49336598D01*
X32156970Y-49220388D01*
X32160996Y-49215724D01*
X32160999Y-49215721D01*
X32276278Y-49082169D01*
X32276279Y-49082167D01*
X32280307Y-49077501D01*
X32373542Y-48913378D01*
X32433123Y-48734272D01*
X32456780Y-48547005D01*
X32457081Y-48525475D01*
X32755628Y-48525475D01*
X32774038Y-48735896D01*
X32775941Y-48746691D01*
X32830609Y-48950715D01*
X32834355Y-48961007D01*
X32923623Y-49152441D01*
X32929103Y-49161932D01*
X32959794Y-49205765D01*
X32970271Y-49214140D01*
X32983718Y-49207072D01*
X33657978Y-48532812D01*
X33664356Y-48521132D01*
X34394408Y-48521132D01*
X34394539Y-48522965D01*
X34398790Y-48529580D01*
X35077003Y-49207793D01*
X35088777Y-49214223D01*
X35100793Y-49204926D01*
X35130897Y-49161932D01*
X35136377Y-49152441D01*
X35225645Y-48961007D01*
X35229391Y-48950715D01*
X35284059Y-48746691D01*
X35285962Y-48735896D01*
X35304372Y-48525475D01*
X35304372Y-48514525D01*
X35298420Y-48446496D01*
X40022937Y-48446496D01*
X40024925Y-48470174D01*
X40037744Y-48622820D01*
X40038732Y-48634590D01*
X40040431Y-48640515D01*
X40088599Y-48808496D01*
X40090760Y-48816034D01*
X40106944Y-48847525D01*
X40159977Y-48950715D01*
X40177040Y-48983917D01*
X40180865Y-48988743D01*
X40180867Y-48988746D01*
X40290456Y-49127014D01*
X40290460Y-49127019D01*
X40294285Y-49131844D01*
X40438030Y-49254180D01*
X40443408Y-49257186D01*
X40443410Y-49257187D01*
X40520415Y-49300224D01*
X40602800Y-49346267D01*
X40782317Y-49404595D01*
X40969745Y-49426945D01*
X40975880Y-49426473D01*
X40975882Y-49426473D01*
X41151803Y-49412937D01*
X41151807Y-49412936D01*
X41157945Y-49412464D01*
X41163877Y-49410808D01*
X41163881Y-49410807D01*
X41333804Y-49363363D01*
X41333808Y-49363362D01*
X41339748Y-49361703D01*
X41433829Y-49314180D01*
X41502728Y-49279377D01*
X41502730Y-49279376D01*
X41508229Y-49276598D01*
X41656970Y-49160388D01*
X41660996Y-49155724D01*
X41660999Y-49155721D01*
X41776278Y-49022169D01*
X41776279Y-49022167D01*
X41780307Y-49017501D01*
X41786816Y-49006044D01*
X41818247Y-48950715D01*
X41873542Y-48853378D01*
X41933123Y-48674272D01*
X41956780Y-48487005D01*
X41957157Y-48460000D01*
X41955833Y-48446496D01*
X42562937Y-48446496D01*
X42564925Y-48470174D01*
X42577744Y-48622820D01*
X42578732Y-48634590D01*
X42580431Y-48640515D01*
X42628599Y-48808496D01*
X42630760Y-48816034D01*
X42646944Y-48847525D01*
X42699977Y-48950715D01*
X42717040Y-48983917D01*
X42720865Y-48988743D01*
X42720867Y-48988746D01*
X42830456Y-49127014D01*
X42830460Y-49127019D01*
X42834285Y-49131844D01*
X42978030Y-49254180D01*
X42983408Y-49257186D01*
X42983410Y-49257187D01*
X43060415Y-49300224D01*
X43142800Y-49346267D01*
X43322317Y-49404595D01*
X43509745Y-49426945D01*
X43515880Y-49426473D01*
X43515882Y-49426473D01*
X43691803Y-49412937D01*
X43691807Y-49412936D01*
X43697945Y-49412464D01*
X43703877Y-49410808D01*
X43703881Y-49410807D01*
X43873804Y-49363363D01*
X43873808Y-49363362D01*
X43879748Y-49361703D01*
X43973829Y-49314180D01*
X44042728Y-49279377D01*
X44042730Y-49279376D01*
X44048229Y-49276598D01*
X44196970Y-49160388D01*
X44200996Y-49155724D01*
X44200999Y-49155721D01*
X44316278Y-49022169D01*
X44316279Y-49022167D01*
X44320307Y-49017501D01*
X44326816Y-49006044D01*
X44358247Y-48950715D01*
X44413542Y-48853378D01*
X44473123Y-48674272D01*
X44496780Y-48487005D01*
X44497081Y-48465475D01*
X44795628Y-48465475D01*
X44814038Y-48675896D01*
X44815941Y-48686691D01*
X44870609Y-48890715D01*
X44874355Y-48901007D01*
X44963623Y-49092441D01*
X44969103Y-49101932D01*
X44999794Y-49145765D01*
X45010271Y-49154140D01*
X45023718Y-49147072D01*
X45697978Y-48472812D01*
X45704356Y-48461132D01*
X46434408Y-48461132D01*
X46434539Y-48462965D01*
X46438790Y-48469580D01*
X47117003Y-49147793D01*
X47128777Y-49154223D01*
X47140793Y-49144926D01*
X47170897Y-49101932D01*
X47176377Y-49092441D01*
X47265645Y-48901007D01*
X47269391Y-48890715D01*
X47324059Y-48686691D01*
X47325962Y-48675896D01*
X47344372Y-48465475D01*
X47344372Y-48454525D01*
X47325962Y-48244104D01*
X47324059Y-48233309D01*
X47269391Y-48029285D01*
X47265645Y-48018993D01*
X47176377Y-47827559D01*
X47170897Y-47818068D01*
X47140206Y-47774235D01*
X47129729Y-47765860D01*
X47116282Y-47772928D01*
X46442022Y-48447188D01*
X46434408Y-48461132D01*
X45704356Y-48461132D01*
X45705592Y-48458868D01*
X45705461Y-48457035D01*
X45701210Y-48450420D01*
X45022997Y-47772207D01*
X45011223Y-47765777D01*
X44999207Y-47775074D01*
X44969103Y-47818068D01*
X44963623Y-47827559D01*
X44874355Y-48018993D01*
X44870609Y-48029285D01*
X44815941Y-48233309D01*
X44814038Y-48244104D01*
X44795628Y-48454525D01*
X44795628Y-48465475D01*
X44497081Y-48465475D01*
X44497157Y-48460000D01*
X44478738Y-48272145D01*
X44424181Y-48091445D01*
X44335566Y-47924783D01*
X44216266Y-47778508D01*
X44209521Y-47772928D01*
X44075577Y-47662120D01*
X44075574Y-47662118D01*
X44070827Y-47658191D01*
X43904788Y-47568414D01*
X43724474Y-47512597D01*
X43718356Y-47511954D01*
X43718351Y-47511953D01*
X43542881Y-47493511D01*
X43542879Y-47493511D01*
X43536752Y-47492867D01*
X43421125Y-47503390D01*
X43354914Y-47509415D01*
X43354913Y-47509415D01*
X43348773Y-47509974D01*
X43167697Y-47563268D01*
X43000420Y-47650718D01*
X42853316Y-47768993D01*
X42731986Y-47913588D01*
X42641052Y-48078996D01*
X42583978Y-48258917D01*
X42562937Y-48446496D01*
X41955833Y-48446496D01*
X41938738Y-48272145D01*
X41884181Y-48091445D01*
X41795566Y-47924783D01*
X41676266Y-47778508D01*
X41669521Y-47772928D01*
X41535577Y-47662120D01*
X41535574Y-47662118D01*
X41530827Y-47658191D01*
X41364788Y-47568414D01*
X41184474Y-47512597D01*
X41178356Y-47511954D01*
X41178351Y-47511953D01*
X41002881Y-47493511D01*
X41002879Y-47493511D01*
X40996752Y-47492867D01*
X40881125Y-47503390D01*
X40814914Y-47509415D01*
X40814913Y-47509415D01*
X40808773Y-47509974D01*
X40627697Y-47563268D01*
X40460420Y-47650718D01*
X40313316Y-47768993D01*
X40191986Y-47913588D01*
X40101052Y-48078996D01*
X40043978Y-48258917D01*
X40022937Y-48446496D01*
X35298420Y-48446496D01*
X35285962Y-48304104D01*
X35284059Y-48293309D01*
X35229391Y-48089285D01*
X35225645Y-48078993D01*
X35136377Y-47887559D01*
X35130897Y-47878068D01*
X35100206Y-47834235D01*
X35089729Y-47825860D01*
X35076282Y-47832928D01*
X34402022Y-48507188D01*
X34394408Y-48521132D01*
X33664356Y-48521132D01*
X33665592Y-48518868D01*
X33665461Y-48517035D01*
X33661210Y-48510420D01*
X32982997Y-47832207D01*
X32971223Y-47825777D01*
X32959207Y-47835074D01*
X32929103Y-47878068D01*
X32923623Y-47887559D01*
X32834355Y-48078993D01*
X32830609Y-48089285D01*
X32775941Y-48293309D01*
X32774038Y-48304104D01*
X32755628Y-48514525D01*
X32755628Y-48525475D01*
X32457081Y-48525475D01*
X32457157Y-48520000D01*
X32438738Y-48332145D01*
X32384181Y-48151445D01*
X32295566Y-47984783D01*
X32176266Y-47838508D01*
X32169521Y-47832928D01*
X32035577Y-47722120D01*
X32035574Y-47722118D01*
X32030827Y-47718191D01*
X31864788Y-47628414D01*
X31684474Y-47572597D01*
X31678356Y-47571954D01*
X31678351Y-47571953D01*
X31502881Y-47553511D01*
X31502879Y-47553511D01*
X31496752Y-47552867D01*
X31382461Y-47563268D01*
X31314914Y-47569415D01*
X31314913Y-47569415D01*
X31308773Y-47569974D01*
X31127697Y-47623268D01*
X30960420Y-47710718D01*
X30813316Y-47828993D01*
X30691986Y-47973588D01*
X30689016Y-47978991D01*
X30689015Y-47978992D01*
X30629099Y-48087978D01*
X30601052Y-48138996D01*
X30543978Y-48318917D01*
X30543292Y-48325036D01*
X30543291Y-48325039D01*
X30527820Y-48462965D01*
X30522937Y-48506496D01*
X29915833Y-48506496D01*
X29898738Y-48332145D01*
X29844181Y-48151445D01*
X29755566Y-47984783D01*
X29636266Y-47838508D01*
X29629521Y-47832928D01*
X29495577Y-47722120D01*
X29495574Y-47722118D01*
X29490827Y-47718191D01*
X29324788Y-47628414D01*
X29144474Y-47572597D01*
X29138356Y-47571954D01*
X29138351Y-47571953D01*
X28962881Y-47553511D01*
X28962879Y-47553511D01*
X28956752Y-47552867D01*
X28842461Y-47563268D01*
X28774914Y-47569415D01*
X28774913Y-47569415D01*
X28768773Y-47569974D01*
X28587697Y-47623268D01*
X28420420Y-47710718D01*
X28273316Y-47828993D01*
X28151986Y-47973588D01*
X28149016Y-47978991D01*
X28149015Y-47978992D01*
X28089099Y-48087978D01*
X28061052Y-48138996D01*
X28003978Y-48318917D01*
X28003292Y-48325036D01*
X28003291Y-48325039D01*
X27987820Y-48462965D01*
X27982937Y-48506496D01*
X13763374Y-48506496D01*
X13763867Y-47460271D01*
X33335860Y-47460271D01*
X33342928Y-47473718D01*
X34017188Y-48147978D01*
X34031132Y-48155592D01*
X34032965Y-48155461D01*
X34039580Y-48151210D01*
X34717793Y-47472997D01*
X34724223Y-47461223D01*
X34714926Y-47449207D01*
X34671931Y-47419102D01*
X34662445Y-47413624D01*
X34633809Y-47400271D01*
X45375860Y-47400271D01*
X45382928Y-47413718D01*
X46057188Y-48087978D01*
X46071132Y-48095592D01*
X46072965Y-48095461D01*
X46079580Y-48091210D01*
X46757793Y-47412997D01*
X46764223Y-47401223D01*
X46754926Y-47389207D01*
X46711931Y-47359102D01*
X46702445Y-47353624D01*
X46511007Y-47264355D01*
X46500715Y-47260609D01*
X46296691Y-47205941D01*
X46285896Y-47204038D01*
X46075475Y-47185628D01*
X46064525Y-47185628D01*
X45854104Y-47204038D01*
X45843309Y-47205941D01*
X45639285Y-47260609D01*
X45628993Y-47264355D01*
X45437559Y-47353623D01*
X45428068Y-47359103D01*
X45384235Y-47389794D01*
X45375860Y-47400271D01*
X34633809Y-47400271D01*
X34471007Y-47324355D01*
X34460715Y-47320609D01*
X34256691Y-47265941D01*
X34245896Y-47264038D01*
X34035475Y-47245628D01*
X34024525Y-47245628D01*
X33814104Y-47264038D01*
X33803309Y-47265941D01*
X33599285Y-47320609D01*
X33588993Y-47324355D01*
X33397559Y-47413623D01*
X33388068Y-47419103D01*
X33344235Y-47449794D01*
X33335860Y-47460271D01*
X13763867Y-47460271D01*
X13770307Y-33785262D01*
X39334520Y-33785262D01*
X39351759Y-33990553D01*
X39408544Y-34188586D01*
X39411359Y-34194063D01*
X39411360Y-34194066D01*
X39452804Y-34274707D01*
X39502712Y-34371818D01*
X39630677Y-34533270D01*
X39635370Y-34537264D01*
X39635371Y-34537265D01*
X39672001Y-34568439D01*
X39787564Y-34666791D01*
X39792942Y-34669797D01*
X39792944Y-34669798D01*
X39851991Y-34702798D01*
X39967398Y-34767297D01*
X40062238Y-34798113D01*
X40157471Y-34829056D01*
X40157475Y-34829057D01*
X40163329Y-34830959D01*
X40367894Y-34855351D01*
X40374029Y-34854879D01*
X40374031Y-34854879D01*
X40430039Y-34850569D01*
X40573300Y-34839546D01*
X40579230Y-34837890D01*
X40579232Y-34837890D01*
X40765797Y-34785800D01*
X40765796Y-34785800D01*
X40771725Y-34784145D01*
X40777214Y-34781372D01*
X40777220Y-34781370D01*
X40924860Y-34706791D01*
X40955610Y-34691258D01*
X41117951Y-34564424D01*
X41245509Y-34416646D01*
X41248540Y-34413134D01*
X41248540Y-34413133D01*
X41252564Y-34408472D01*
X41273387Y-34371818D01*
X41331600Y-34269344D01*
X41354323Y-34229344D01*
X41419351Y-34033863D01*
X41445171Y-33829474D01*
X41445230Y-33825262D01*
X41874520Y-33825262D01*
X41875036Y-33831406D01*
X41888898Y-33996478D01*
X41891759Y-34030553D01*
X41893458Y-34036478D01*
X41938646Y-34194066D01*
X41948544Y-34228586D01*
X41951359Y-34234063D01*
X41951360Y-34234066D01*
X41972247Y-34274707D01*
X42042712Y-34411818D01*
X42170677Y-34573270D01*
X42175370Y-34577264D01*
X42175371Y-34577265D01*
X42320867Y-34701091D01*
X42327564Y-34706791D01*
X42507398Y-34807297D01*
X42574365Y-34829056D01*
X42697471Y-34869056D01*
X42697475Y-34869057D01*
X42703329Y-34870959D01*
X42907894Y-34895351D01*
X42914029Y-34894879D01*
X42914031Y-34894879D01*
X42970039Y-34890569D01*
X43113300Y-34879546D01*
X43119230Y-34877890D01*
X43119232Y-34877890D01*
X43254874Y-34840018D01*
X43311725Y-34824145D01*
X43317214Y-34821372D01*
X43317220Y-34821370D01*
X43490116Y-34734033D01*
X43495610Y-34731258D01*
X43657951Y-34604424D01*
X43689208Y-34568213D01*
X43788540Y-34453134D01*
X43788540Y-34453133D01*
X43792564Y-34448472D01*
X43813387Y-34411818D01*
X43891276Y-34274707D01*
X43894323Y-34269344D01*
X43959351Y-34073863D01*
X43985171Y-33869474D01*
X43985583Y-33840000D01*
X43965480Y-33634970D01*
X43905935Y-33437749D01*
X43809218Y-33255849D01*
X43735859Y-33165902D01*
X43682906Y-33100975D01*
X43682903Y-33100972D01*
X43679011Y-33096200D01*
X43661786Y-33081950D01*
X43525025Y-32968811D01*
X43525021Y-32968809D01*
X43520275Y-32964882D01*
X43339055Y-32866897D01*
X43142254Y-32805977D01*
X43136129Y-32805333D01*
X43136128Y-32805333D01*
X42943498Y-32785087D01*
X42943496Y-32785087D01*
X42937369Y-32784443D01*
X42850529Y-32792346D01*
X42738342Y-32802555D01*
X42738339Y-32802556D01*
X42732203Y-32803114D01*
X42534572Y-32861280D01*
X42352002Y-32956726D01*
X42347201Y-32960586D01*
X42347198Y-32960588D01*
X42233167Y-33052271D01*
X42191447Y-33085815D01*
X42059024Y-33243630D01*
X42056056Y-33249028D01*
X42056053Y-33249033D01*
X42049315Y-33261290D01*
X41959776Y-33424162D01*
X41897484Y-33620532D01*
X41896798Y-33626649D01*
X41896797Y-33626653D01*
X41875207Y-33819137D01*
X41874520Y-33825262D01*
X41445230Y-33825262D01*
X41445583Y-33800000D01*
X41425480Y-33594970D01*
X41365935Y-33397749D01*
X41269218Y-33215849D01*
X41175529Y-33100975D01*
X41142906Y-33060975D01*
X41142903Y-33060972D01*
X41139011Y-33056200D01*
X41042319Y-32976209D01*
X40985025Y-32928811D01*
X40985021Y-32928809D01*
X40980275Y-32924882D01*
X40799055Y-32826897D01*
X40602254Y-32765977D01*
X40596129Y-32765333D01*
X40596128Y-32765333D01*
X40403498Y-32745087D01*
X40403496Y-32745087D01*
X40397369Y-32744443D01*
X40310529Y-32752346D01*
X40198342Y-32762555D01*
X40198339Y-32762556D01*
X40192203Y-32763114D01*
X39994572Y-32821280D01*
X39812002Y-32916726D01*
X39807201Y-32920586D01*
X39807198Y-32920588D01*
X39695702Y-33010233D01*
X39651447Y-33045815D01*
X39519024Y-33203630D01*
X39516056Y-33209028D01*
X39516053Y-33209033D01*
X39492942Y-33251073D01*
X39419776Y-33384162D01*
X39357484Y-33580532D01*
X39356798Y-33586649D01*
X39356797Y-33586653D01*
X39352040Y-33629068D01*
X39334520Y-33785262D01*
X13770307Y-33785262D01*
X13778660Y-16045262D01*
X46954520Y-16045262D01*
X46971759Y-16250553D01*
X47028544Y-16448586D01*
X47031359Y-16454063D01*
X47031360Y-16454066D01*
X47106559Y-16600388D01*
X47122712Y-16631818D01*
X47250677Y-16793270D01*
X47255370Y-16797264D01*
X47255371Y-16797265D01*
X47362361Y-16888320D01*
X47407564Y-16926791D01*
X47412942Y-16929797D01*
X47412944Y-16929798D01*
X47451342Y-16951258D01*
X47587398Y-17027297D01*
X47662346Y-17051649D01*
X47777471Y-17089056D01*
X47777475Y-17089057D01*
X47783329Y-17090959D01*
X47987894Y-17115351D01*
X47994029Y-17114879D01*
X47994031Y-17114879D01*
X48050039Y-17110569D01*
X48193300Y-17099546D01*
X48199230Y-17097890D01*
X48199232Y-17097890D01*
X48331529Y-17060952D01*
X48391725Y-17044145D01*
X48404718Y-17037582D01*
X48404722Y-17037580D01*
X48474544Y-17024721D01*
X48540235Y-17051651D01*
X48550626Y-17060952D01*
X51552595Y-20062921D01*
X51586621Y-20125233D01*
X51589500Y-20152016D01*
X51589500Y-50189204D01*
X51569498Y-50257325D01*
X51540204Y-50289167D01*
X51471718Y-50341718D01*
X51466695Y-50348264D01*
X51451349Y-50368264D01*
X51375464Y-50467159D01*
X51314956Y-50613238D01*
X51294318Y-50770000D01*
X51314956Y-50926762D01*
X51375464Y-51072841D01*
X51471718Y-51198282D01*
X51597159Y-51294536D01*
X51743238Y-51355044D01*
X51900000Y-51375682D01*
X51908188Y-51374604D01*
X52048574Y-51356122D01*
X52056762Y-51355044D01*
X52202841Y-51294536D01*
X52328282Y-51198282D01*
X52424536Y-51072841D01*
X52485044Y-50926762D01*
X52505682Y-50770000D01*
X52485044Y-50613238D01*
X52424536Y-50467159D01*
X52348651Y-50368264D01*
X52333305Y-50348264D01*
X52328282Y-50341718D01*
X52321736Y-50336695D01*
X52321733Y-50336692D01*
X52289797Y-50312187D01*
X52247929Y-50254849D01*
X52240500Y-50212224D01*
X52240500Y-34769212D01*
X52260502Y-34701091D01*
X52314158Y-34654598D01*
X52384432Y-34644494D01*
X52448163Y-34673258D01*
X52480867Y-34701091D01*
X52487564Y-34706791D01*
X52667398Y-34807297D01*
X52734365Y-34829056D01*
X52857471Y-34869056D01*
X52857475Y-34869057D01*
X52863329Y-34870959D01*
X53067894Y-34895351D01*
X53074029Y-34894879D01*
X53074031Y-34894879D01*
X53130039Y-34890569D01*
X53273300Y-34879546D01*
X53279230Y-34877890D01*
X53279232Y-34877890D01*
X53414874Y-34840018D01*
X53471725Y-34824145D01*
X53477214Y-34821372D01*
X53477220Y-34821370D01*
X53650116Y-34734033D01*
X53655610Y-34731258D01*
X53817951Y-34604424D01*
X53849208Y-34568213D01*
X53948540Y-34453134D01*
X53948540Y-34453133D01*
X53952564Y-34448472D01*
X53973387Y-34411818D01*
X54051276Y-34274707D01*
X54054323Y-34269344D01*
X54119351Y-34073863D01*
X54145171Y-33869474D01*
X54145583Y-33840000D01*
X54144138Y-33825262D01*
X54574520Y-33825262D01*
X54575036Y-33831406D01*
X54588898Y-33996478D01*
X54591759Y-34030553D01*
X54593458Y-34036478D01*
X54638646Y-34194066D01*
X54648544Y-34228586D01*
X54651359Y-34234063D01*
X54651360Y-34234066D01*
X54672247Y-34274707D01*
X54742712Y-34411818D01*
X54870677Y-34573270D01*
X54875370Y-34577264D01*
X54875371Y-34577265D01*
X55020867Y-34701091D01*
X55027564Y-34706791D01*
X55207398Y-34807297D01*
X55274365Y-34829056D01*
X55397471Y-34869056D01*
X55397475Y-34869057D01*
X55403329Y-34870959D01*
X55607894Y-34895351D01*
X55614029Y-34894879D01*
X55614031Y-34894879D01*
X55670039Y-34890569D01*
X55813300Y-34879546D01*
X55819230Y-34877890D01*
X55819232Y-34877890D01*
X55954874Y-34840018D01*
X56011725Y-34824145D01*
X56017214Y-34821372D01*
X56017220Y-34821370D01*
X56190116Y-34734033D01*
X56195610Y-34731258D01*
X56357951Y-34604424D01*
X56389208Y-34568213D01*
X56488540Y-34453134D01*
X56488540Y-34453133D01*
X56492564Y-34448472D01*
X56513387Y-34411818D01*
X56591276Y-34274707D01*
X56594323Y-34269344D01*
X56659351Y-34073863D01*
X56685171Y-33869474D01*
X56685583Y-33840000D01*
X56665480Y-33634970D01*
X56605935Y-33437749D01*
X56509218Y-33255849D01*
X56435859Y-33165902D01*
X56382906Y-33100975D01*
X56382903Y-33100972D01*
X56379011Y-33096200D01*
X56361786Y-33081950D01*
X56225025Y-32968811D01*
X56225021Y-32968809D01*
X56220275Y-32964882D01*
X56039055Y-32866897D01*
X55842254Y-32805977D01*
X55836129Y-32805333D01*
X55836128Y-32805333D01*
X55643498Y-32785087D01*
X55643496Y-32785087D01*
X55637369Y-32784443D01*
X55550529Y-32792346D01*
X55438342Y-32802555D01*
X55438339Y-32802556D01*
X55432203Y-32803114D01*
X55234572Y-32861280D01*
X55052002Y-32956726D01*
X55047201Y-32960586D01*
X55047198Y-32960588D01*
X54933167Y-33052271D01*
X54891447Y-33085815D01*
X54759024Y-33243630D01*
X54756056Y-33249028D01*
X54756053Y-33249033D01*
X54749315Y-33261290D01*
X54659776Y-33424162D01*
X54597484Y-33620532D01*
X54596798Y-33626649D01*
X54596797Y-33626653D01*
X54575207Y-33819137D01*
X54574520Y-33825262D01*
X54144138Y-33825262D01*
X54125480Y-33634970D01*
X54065935Y-33437749D01*
X53969218Y-33255849D01*
X53895859Y-33165902D01*
X53842906Y-33100975D01*
X53842903Y-33100972D01*
X53839011Y-33096200D01*
X53821786Y-33081950D01*
X53685025Y-32968811D01*
X53685021Y-32968809D01*
X53680275Y-32964882D01*
X53499055Y-32866897D01*
X53302254Y-32805977D01*
X53296129Y-32805333D01*
X53296128Y-32805333D01*
X53103498Y-32785087D01*
X53103496Y-32785087D01*
X53097369Y-32784443D01*
X53010529Y-32792346D01*
X52898342Y-32802555D01*
X52898339Y-32802556D01*
X52892203Y-32803114D01*
X52694572Y-32861280D01*
X52512002Y-32956726D01*
X52487770Y-32976209D01*
X52445452Y-33010233D01*
X52379829Y-33037329D01*
X52309975Y-33024645D01*
X52258067Y-32976209D01*
X52240500Y-32912036D01*
X52240500Y-19984710D01*
X52240980Y-19973728D01*
X52243303Y-19947180D01*
X52243303Y-19947178D01*
X52244264Y-19936193D01*
X52234508Y-19899785D01*
X52232130Y-19889058D01*
X52231538Y-19885699D01*
X52225588Y-19851955D01*
X52220077Y-19842410D01*
X52218885Y-19839134D01*
X52217408Y-19835966D01*
X52214554Y-19825316D01*
X52192945Y-19794456D01*
X52187039Y-19785185D01*
X52173707Y-19762094D01*
X52168194Y-19752545D01*
X52139317Y-19728315D01*
X52131215Y-19720889D01*
X49010715Y-16600389D01*
X48976689Y-16538077D01*
X48980252Y-16471522D01*
X49037404Y-16299715D01*
X49039351Y-16293863D01*
X49065171Y-16089474D01*
X49065583Y-16060000D01*
X49064138Y-16045262D01*
X49494520Y-16045262D01*
X49511759Y-16250553D01*
X49568544Y-16448586D01*
X49571359Y-16454063D01*
X49571360Y-16454066D01*
X49646559Y-16600388D01*
X49662712Y-16631818D01*
X49790677Y-16793270D01*
X49795370Y-16797264D01*
X49795371Y-16797265D01*
X49902361Y-16888320D01*
X49947564Y-16926791D01*
X49952942Y-16929797D01*
X49952944Y-16929798D01*
X49991342Y-16951258D01*
X50127398Y-17027297D01*
X50202346Y-17051649D01*
X50317471Y-17089056D01*
X50317475Y-17089057D01*
X50323329Y-17090959D01*
X50527894Y-17115351D01*
X50534029Y-17114879D01*
X50534031Y-17114879D01*
X50590039Y-17110569D01*
X50733300Y-17099546D01*
X50739230Y-17097890D01*
X50739232Y-17097890D01*
X50871529Y-17060952D01*
X50931725Y-17044145D01*
X50944718Y-17037582D01*
X50944722Y-17037580D01*
X51014544Y-17024721D01*
X51080235Y-17051651D01*
X51090626Y-17060952D01*
X57102595Y-23072921D01*
X57136621Y-23135233D01*
X57139500Y-23162016D01*
X57139500Y-48585290D01*
X57139020Y-48596272D01*
X57135736Y-48633807D01*
X57138590Y-48644456D01*
X57145491Y-48670210D01*
X57147870Y-48680942D01*
X57154412Y-48718045D01*
X57159923Y-48727590D01*
X57161115Y-48730866D01*
X57162592Y-48734034D01*
X57165446Y-48744684D01*
X57171770Y-48753715D01*
X57187055Y-48775544D01*
X57192961Y-48784815D01*
X57204873Y-48805447D01*
X57211806Y-48817455D01*
X57229166Y-48832022D01*
X57240682Y-48841685D01*
X57248785Y-48849111D01*
X59017291Y-50617617D01*
X59051317Y-50679929D01*
X59053118Y-50723157D01*
X59044318Y-50790000D01*
X59064956Y-50946762D01*
X59125464Y-51092841D01*
X59147488Y-51121543D01*
X59206372Y-51198282D01*
X59221718Y-51218282D01*
X59347159Y-51314536D01*
X59493238Y-51375044D01*
X59650000Y-51395682D01*
X59658188Y-51394604D01*
X59798574Y-51376122D01*
X59806762Y-51375044D01*
X59952841Y-51314536D01*
X60078282Y-51218282D01*
X60093629Y-51198282D01*
X60152512Y-51121543D01*
X60174536Y-51092841D01*
X60235044Y-50946762D01*
X60255682Y-50790000D01*
X60235044Y-50633238D01*
X60174536Y-50487159D01*
X60078282Y-50361718D01*
X59952841Y-50265464D01*
X59927410Y-50254930D01*
X65692710Y-50254930D01*
X65710619Y-50482483D01*
X65712162Y-50492230D01*
X65765447Y-50714176D01*
X65768496Y-50723561D01*
X65855844Y-50934437D01*
X65860325Y-50943231D01*
X65963797Y-51112083D01*
X65974253Y-51121543D01*
X65983031Y-51117759D01*
X66837978Y-50262812D01*
X66844356Y-50251132D01*
X67574408Y-50251132D01*
X67574539Y-50252965D01*
X67578790Y-50259580D01*
X68433926Y-51114716D01*
X68446306Y-51121476D01*
X68453956Y-51115749D01*
X68559675Y-50943231D01*
X68564156Y-50934437D01*
X68651504Y-50723561D01*
X68654553Y-50714176D01*
X68707838Y-50492230D01*
X68709381Y-50482483D01*
X68727290Y-50254930D01*
X74332710Y-50254930D01*
X74350619Y-50482483D01*
X74352162Y-50492230D01*
X74405447Y-50714176D01*
X74408496Y-50723561D01*
X74495844Y-50934437D01*
X74500325Y-50943231D01*
X74603797Y-51112083D01*
X74614253Y-51121543D01*
X74623031Y-51117759D01*
X75477978Y-50262812D01*
X75485592Y-50248868D01*
X75485461Y-50247035D01*
X75481210Y-50240420D01*
X74626074Y-49385284D01*
X74613694Y-49378524D01*
X74606044Y-49384251D01*
X74500325Y-49556769D01*
X74495844Y-49565563D01*
X74408496Y-49776439D01*
X74405447Y-49785824D01*
X74352162Y-50007770D01*
X74350619Y-50017517D01*
X74332710Y-50245070D01*
X74332710Y-50254930D01*
X68727290Y-50254930D01*
X68727290Y-50245070D01*
X68709381Y-50017517D01*
X68707838Y-50007770D01*
X68654553Y-49785824D01*
X68651504Y-49776439D01*
X68564156Y-49565563D01*
X68559675Y-49556769D01*
X68456203Y-49387917D01*
X68445747Y-49378457D01*
X68436969Y-49382241D01*
X67582022Y-50237188D01*
X67574408Y-50251132D01*
X66844356Y-50251132D01*
X66845592Y-50248868D01*
X66845461Y-50247035D01*
X66841210Y-50240420D01*
X65986074Y-49385284D01*
X65973694Y-49378524D01*
X65966044Y-49384251D01*
X65860325Y-49556769D01*
X65855844Y-49565563D01*
X65768496Y-49776439D01*
X65765447Y-49785824D01*
X65712162Y-50007770D01*
X65710619Y-50017517D01*
X65692710Y-50245070D01*
X65692710Y-50254930D01*
X59927410Y-50254930D01*
X59806762Y-50204956D01*
X59650000Y-50184318D01*
X59583157Y-50193118D01*
X59513010Y-50182179D01*
X59477617Y-50157291D01*
X58334579Y-49014253D01*
X66338457Y-49014253D01*
X66342241Y-49023031D01*
X67197188Y-49877978D01*
X67211132Y-49885592D01*
X67212965Y-49885461D01*
X67219580Y-49881210D01*
X68074716Y-49026074D01*
X68081171Y-49014253D01*
X74978457Y-49014253D01*
X74982241Y-49023031D01*
X75837188Y-49877978D01*
X75851132Y-49885592D01*
X75852965Y-49885461D01*
X75859580Y-49881210D01*
X76714716Y-49026074D01*
X76721476Y-49013694D01*
X76715749Y-49006044D01*
X76543231Y-48900325D01*
X76534437Y-48895844D01*
X76323561Y-48808496D01*
X76314176Y-48805447D01*
X76092230Y-48752162D01*
X76082483Y-48750619D01*
X75854930Y-48732710D01*
X75845070Y-48732710D01*
X75617517Y-48750619D01*
X75607770Y-48752162D01*
X75385824Y-48805447D01*
X75376439Y-48808496D01*
X75165563Y-48895844D01*
X75156769Y-48900325D01*
X74987917Y-49003797D01*
X74978457Y-49014253D01*
X68081171Y-49014253D01*
X68081476Y-49013694D01*
X68075749Y-49006044D01*
X67903231Y-48900325D01*
X67894437Y-48895844D01*
X67683561Y-48808496D01*
X67674176Y-48805447D01*
X67452230Y-48752162D01*
X67442483Y-48750619D01*
X67214930Y-48732710D01*
X67205070Y-48732710D01*
X66977517Y-48750619D01*
X66967770Y-48752162D01*
X66745824Y-48805447D01*
X66736439Y-48808496D01*
X66525563Y-48895844D01*
X66516769Y-48900325D01*
X66347917Y-49003797D01*
X66338457Y-49014253D01*
X58334579Y-49014253D01*
X57827405Y-48507079D01*
X57793379Y-48444767D01*
X57790500Y-48417984D01*
X57790500Y-22994710D01*
X57790980Y-22983728D01*
X57793303Y-22957180D01*
X57793303Y-22957178D01*
X57794264Y-22946193D01*
X57784508Y-22909785D01*
X57782130Y-22899058D01*
X57781538Y-22895699D01*
X57775588Y-22861955D01*
X57770077Y-22852410D01*
X57768885Y-22849134D01*
X57767408Y-22845966D01*
X57764554Y-22835316D01*
X57742945Y-22804456D01*
X57737039Y-22795185D01*
X57723707Y-22772094D01*
X57718194Y-22762545D01*
X57689317Y-22738315D01*
X57681215Y-22730889D01*
X51550715Y-16600389D01*
X51516689Y-16538077D01*
X51520252Y-16471522D01*
X51577404Y-16299715D01*
X51579351Y-16293863D01*
X51605171Y-16089474D01*
X51605583Y-16060000D01*
X51604138Y-16045262D01*
X52034520Y-16045262D01*
X52051759Y-16250553D01*
X52108544Y-16448586D01*
X52111359Y-16454063D01*
X52111360Y-16454066D01*
X52186559Y-16600388D01*
X52202712Y-16631818D01*
X52330677Y-16793270D01*
X52335370Y-16797264D01*
X52335371Y-16797265D01*
X52442361Y-16888320D01*
X52487564Y-16926791D01*
X52492942Y-16929797D01*
X52492944Y-16929798D01*
X52531342Y-16951258D01*
X52667398Y-17027297D01*
X52742346Y-17051649D01*
X52857471Y-17089056D01*
X52857475Y-17089057D01*
X52863329Y-17090959D01*
X53067894Y-17115351D01*
X53074029Y-17114879D01*
X53074031Y-17114879D01*
X53130039Y-17110569D01*
X53273300Y-17099546D01*
X53279230Y-17097890D01*
X53279232Y-17097890D01*
X53411529Y-17060952D01*
X53471725Y-17044145D01*
X53477214Y-17041372D01*
X53477220Y-17041370D01*
X53650116Y-16954033D01*
X53655610Y-16951258D01*
X53663385Y-16945184D01*
X53813101Y-16828213D01*
X53817951Y-16824424D01*
X53952564Y-16668472D01*
X53973387Y-16631818D01*
X54011321Y-16565041D01*
X54054323Y-16489344D01*
X54119351Y-16293863D01*
X54145171Y-16089474D01*
X54145583Y-16060000D01*
X54125480Y-15854970D01*
X54065935Y-15657749D01*
X54064312Y-15654696D01*
X54056944Y-15585024D01*
X54091808Y-15518518D01*
X54849962Y-14760364D01*
X54912274Y-14726338D01*
X54939057Y-14723459D01*
X55680943Y-14723459D01*
X55749064Y-14743461D01*
X55770038Y-14760364D01*
X55806768Y-14797094D01*
X55840794Y-14859406D01*
X55835729Y-14930221D01*
X55793182Y-14987057D01*
X55726662Y-15011868D01*
X55704503Y-15011499D01*
X55643497Y-15005087D01*
X55643496Y-15005087D01*
X55637369Y-15004443D01*
X55555780Y-15011868D01*
X55438342Y-15022555D01*
X55438339Y-15022556D01*
X55432203Y-15023114D01*
X55234572Y-15081280D01*
X55229107Y-15084137D01*
X55225959Y-15085783D01*
X55052002Y-15176726D01*
X55047201Y-15180586D01*
X55047198Y-15180588D01*
X55036971Y-15188811D01*
X54891447Y-15305815D01*
X54759024Y-15463630D01*
X54756056Y-15469028D01*
X54756053Y-15469033D01*
X54692287Y-15585024D01*
X54659776Y-15644162D01*
X54597484Y-15840532D01*
X54596798Y-15846649D01*
X54596797Y-15846653D01*
X54575207Y-16039137D01*
X54574520Y-16045262D01*
X54591759Y-16250553D01*
X54648544Y-16448586D01*
X54651359Y-16454063D01*
X54651360Y-16454066D01*
X54726559Y-16600388D01*
X54742712Y-16631818D01*
X54870677Y-16793270D01*
X54875370Y-16797264D01*
X54875371Y-16797265D01*
X54982361Y-16888320D01*
X55027564Y-16926791D01*
X55032942Y-16929797D01*
X55032944Y-16929798D01*
X55071342Y-16951258D01*
X55207398Y-17027297D01*
X55282346Y-17051649D01*
X55397471Y-17089056D01*
X55397475Y-17089057D01*
X55403329Y-17090959D01*
X55607894Y-17115351D01*
X55614029Y-17114879D01*
X55614031Y-17114879D01*
X55670039Y-17110569D01*
X55813300Y-17099546D01*
X55819230Y-17097890D01*
X55819232Y-17097890D01*
X55951529Y-17060952D01*
X56011725Y-17044145D01*
X56017214Y-17041372D01*
X56017220Y-17041370D01*
X56190116Y-16954033D01*
X56195610Y-16951258D01*
X56203385Y-16945184D01*
X56353101Y-16828213D01*
X56357951Y-16824424D01*
X56492564Y-16668472D01*
X56510644Y-16636646D01*
X56536064Y-16591899D01*
X56587104Y-16542548D01*
X56656722Y-16528626D01*
X56722815Y-16554552D01*
X56734715Y-16565041D01*
X59687595Y-19517921D01*
X59721621Y-19580233D01*
X59724500Y-19607016D01*
X59724500Y-41170714D01*
X59704498Y-41238835D01*
X59675204Y-41270677D01*
X59621718Y-41311718D01*
X59620731Y-41310431D01*
X59566783Y-41339890D01*
X59495968Y-41334825D01*
X59452007Y-41306572D01*
X59448282Y-41301718D01*
X59322841Y-41205464D01*
X59176762Y-41144956D01*
X59020000Y-41124318D01*
X58863238Y-41144956D01*
X58717159Y-41205464D01*
X58591718Y-41301718D01*
X58586695Y-41308264D01*
X58574327Y-41324383D01*
X58495464Y-41427159D01*
X58434956Y-41573238D01*
X58414318Y-41730000D01*
X58434956Y-41886762D01*
X58495464Y-42032841D01*
X58591718Y-42158282D01*
X58717159Y-42254536D01*
X58863238Y-42315044D01*
X59020000Y-42335682D01*
X59082154Y-42327499D01*
X59152302Y-42338438D01*
X59187695Y-42363326D01*
X59515584Y-42691215D01*
X59523010Y-42699318D01*
X59547240Y-42728194D01*
X59556789Y-42733707D01*
X59579880Y-42747039D01*
X59589151Y-42752945D01*
X59620011Y-42774554D01*
X59630661Y-42777408D01*
X59633829Y-42778885D01*
X59637105Y-42780077D01*
X59646650Y-42785588D01*
X59680394Y-42791538D01*
X59683753Y-42792130D01*
X59694480Y-42794508D01*
X59730888Y-42804264D01*
X59741864Y-42803304D01*
X59741867Y-42803304D01*
X59768438Y-42800979D01*
X59779419Y-42800500D01*
X61345290Y-42800500D01*
X61356272Y-42800980D01*
X61382820Y-42803303D01*
X61382822Y-42803303D01*
X61393807Y-42804264D01*
X61430215Y-42794508D01*
X61440942Y-42792130D01*
X61444301Y-42791538D01*
X61478045Y-42785588D01*
X61487590Y-42780077D01*
X61490866Y-42778885D01*
X61494034Y-42777408D01*
X61504684Y-42774554D01*
X61535544Y-42752945D01*
X61544815Y-42747039D01*
X61567906Y-42733707D01*
X61577455Y-42728194D01*
X61601685Y-42699317D01*
X61609111Y-42691215D01*
X61991215Y-42309111D01*
X61999319Y-42301684D01*
X62019749Y-42284541D01*
X62028194Y-42277455D01*
X62041426Y-42254536D01*
X62047039Y-42244815D01*
X62052945Y-42235544D01*
X62068230Y-42213715D01*
X62074554Y-42204684D01*
X62077408Y-42194034D01*
X62078885Y-42190866D01*
X62080077Y-42187590D01*
X62085588Y-42178045D01*
X62092130Y-42140942D01*
X62094509Y-42130210D01*
X62104264Y-42093807D01*
X62103041Y-42079817D01*
X62100979Y-42056257D01*
X62100500Y-42045276D01*
X62100500Y-41000000D01*
X68394318Y-41000000D01*
X68414956Y-41156762D01*
X68475464Y-41302841D01*
X68480491Y-41309392D01*
X68565830Y-41420608D01*
X68571718Y-41428282D01*
X68697159Y-41524536D01*
X68843238Y-41585044D01*
X69000000Y-41605682D01*
X69008188Y-41604604D01*
X69148574Y-41586122D01*
X69156762Y-41585044D01*
X69302841Y-41524536D01*
X69428282Y-41428282D01*
X69434171Y-41420608D01*
X69519509Y-41309392D01*
X69524536Y-41302841D01*
X69585044Y-41156762D01*
X69605682Y-41000000D01*
X70394318Y-41000000D01*
X70414956Y-41156762D01*
X70475464Y-41302841D01*
X70480491Y-41309392D01*
X70565830Y-41420608D01*
X70571718Y-41428282D01*
X70697159Y-41524536D01*
X70843238Y-41585044D01*
X71000000Y-41605682D01*
X71008188Y-41604604D01*
X71148574Y-41586122D01*
X71156762Y-41585044D01*
X71302841Y-41524536D01*
X71428282Y-41428282D01*
X71434171Y-41420608D01*
X71519509Y-41309392D01*
X71524536Y-41302841D01*
X71585044Y-41156762D01*
X71605682Y-41000000D01*
X71585044Y-40843238D01*
X71524536Y-40697159D01*
X71428282Y-40571718D01*
X71374796Y-40530677D01*
X71332929Y-40473339D01*
X71325500Y-40430714D01*
X71325500Y-33825262D01*
X74894520Y-33825262D01*
X74895036Y-33831406D01*
X74908898Y-33996478D01*
X74911759Y-34030553D01*
X74913458Y-34036478D01*
X74958646Y-34194066D01*
X74968544Y-34228586D01*
X74971359Y-34234063D01*
X74971360Y-34234066D01*
X74992247Y-34274707D01*
X75062712Y-34411818D01*
X75190677Y-34573270D01*
X75195370Y-34577264D01*
X75195371Y-34577265D01*
X75340867Y-34701091D01*
X75347564Y-34706791D01*
X75527398Y-34807297D01*
X75594365Y-34829056D01*
X75717471Y-34869056D01*
X75717475Y-34869057D01*
X75723329Y-34870959D01*
X75927894Y-34895351D01*
X75934029Y-34894879D01*
X75934031Y-34894879D01*
X75990039Y-34890569D01*
X76133300Y-34879546D01*
X76139230Y-34877890D01*
X76139232Y-34877890D01*
X76274874Y-34840018D01*
X76331725Y-34824145D01*
X76337214Y-34821372D01*
X76337220Y-34821370D01*
X76510116Y-34734033D01*
X76515610Y-34731258D01*
X76677951Y-34604424D01*
X76709208Y-34568213D01*
X76808540Y-34453134D01*
X76808540Y-34453133D01*
X76812564Y-34448472D01*
X76833387Y-34411818D01*
X76911276Y-34274707D01*
X76914323Y-34269344D01*
X76979351Y-34073863D01*
X77005171Y-33869474D01*
X77005583Y-33840000D01*
X76985480Y-33634970D01*
X76925935Y-33437749D01*
X76829218Y-33255849D01*
X76755859Y-33165902D01*
X76702906Y-33100975D01*
X76702903Y-33100972D01*
X76699011Y-33096200D01*
X76681786Y-33081950D01*
X76545025Y-32968811D01*
X76545021Y-32968809D01*
X76540275Y-32964882D01*
X76359055Y-32866897D01*
X76162254Y-32805977D01*
X76156129Y-32805333D01*
X76156128Y-32805333D01*
X75963498Y-32785087D01*
X75963496Y-32785087D01*
X75957369Y-32784443D01*
X75870529Y-32792346D01*
X75758342Y-32802555D01*
X75758339Y-32802556D01*
X75752203Y-32803114D01*
X75554572Y-32861280D01*
X75372002Y-32956726D01*
X75367201Y-32960586D01*
X75367198Y-32960588D01*
X75253167Y-33052271D01*
X75211447Y-33085815D01*
X75079024Y-33243630D01*
X75076056Y-33249028D01*
X75076053Y-33249033D01*
X75069315Y-33261290D01*
X74979776Y-33424162D01*
X74917484Y-33620532D01*
X74916798Y-33626649D01*
X74916797Y-33626653D01*
X74895207Y-33819137D01*
X74894520Y-33825262D01*
X71325500Y-33825262D01*
X71325500Y-31586959D01*
X71345502Y-31518838D01*
X71374797Y-31486996D01*
X71431733Y-31443308D01*
X71431737Y-31443304D01*
X71438282Y-31438282D01*
X71450595Y-31422236D01*
X71529509Y-31319392D01*
X71534536Y-31312841D01*
X71595044Y-31166762D01*
X71615682Y-31010000D01*
X71595044Y-30853238D01*
X71534536Y-30707159D01*
X71438282Y-30581718D01*
X71312841Y-30485464D01*
X71166762Y-30424956D01*
X71010000Y-30404318D01*
X70853238Y-30424956D01*
X70707159Y-30485464D01*
X70581718Y-30581718D01*
X70485464Y-30707159D01*
X70424956Y-30853238D01*
X70404318Y-31010000D01*
X70424956Y-31166762D01*
X70485464Y-31312841D01*
X70490491Y-31319392D01*
X70569406Y-31422236D01*
X70581718Y-31438282D01*
X70588264Y-31443305D01*
X70625204Y-31471650D01*
X70667071Y-31528988D01*
X70674500Y-31571613D01*
X70674500Y-40430714D01*
X70654498Y-40498835D01*
X70625204Y-40530677D01*
X70571718Y-40571718D01*
X70475464Y-40697159D01*
X70414956Y-40843238D01*
X70394318Y-41000000D01*
X69605682Y-41000000D01*
X69585044Y-40843238D01*
X69524536Y-40697159D01*
X69428282Y-40571718D01*
X69374796Y-40530677D01*
X69332929Y-40473339D01*
X69325500Y-40430714D01*
X69325500Y-31577459D01*
X69345502Y-31509338D01*
X69374797Y-31477496D01*
X69431733Y-31433808D01*
X69431737Y-31433804D01*
X69438282Y-31428782D01*
X69534536Y-31303341D01*
X69595044Y-31157262D01*
X69615682Y-31000500D01*
X69595044Y-30843738D01*
X69534536Y-30697659D01*
X69466059Y-30608418D01*
X69443305Y-30578764D01*
X69438282Y-30572218D01*
X69312841Y-30475964D01*
X69166762Y-30415456D01*
X69010000Y-30394818D01*
X68853238Y-30415456D01*
X68707159Y-30475964D01*
X68581718Y-30572218D01*
X68576695Y-30578764D01*
X68553941Y-30608418D01*
X68485464Y-30697659D01*
X68424956Y-30843738D01*
X68404318Y-31000500D01*
X68424956Y-31157262D01*
X68485464Y-31303341D01*
X68581718Y-31428782D01*
X68588264Y-31433805D01*
X68625204Y-31462150D01*
X68667071Y-31519488D01*
X68674500Y-31562113D01*
X68674500Y-40430714D01*
X68654498Y-40498835D01*
X68625204Y-40530677D01*
X68571718Y-40571718D01*
X68475464Y-40697159D01*
X68414956Y-40843238D01*
X68394318Y-41000000D01*
X62100500Y-41000000D01*
X62100500Y-33825262D01*
X64734520Y-33825262D01*
X64735036Y-33831406D01*
X64748898Y-33996478D01*
X64751759Y-34030553D01*
X64753458Y-34036478D01*
X64798646Y-34194066D01*
X64808544Y-34228586D01*
X64811359Y-34234063D01*
X64811360Y-34234066D01*
X64832247Y-34274707D01*
X64902712Y-34411818D01*
X65030677Y-34573270D01*
X65035370Y-34577264D01*
X65035371Y-34577265D01*
X65180867Y-34701091D01*
X65187564Y-34706791D01*
X65367398Y-34807297D01*
X65434365Y-34829056D01*
X65557471Y-34869056D01*
X65557475Y-34869057D01*
X65563329Y-34870959D01*
X65767894Y-34895351D01*
X65774029Y-34894879D01*
X65774031Y-34894879D01*
X65830039Y-34890569D01*
X65973300Y-34879546D01*
X65979230Y-34877890D01*
X65979232Y-34877890D01*
X66114874Y-34840018D01*
X66171725Y-34824145D01*
X66177214Y-34821372D01*
X66177220Y-34821370D01*
X66350116Y-34734033D01*
X66355610Y-34731258D01*
X66517951Y-34604424D01*
X66549208Y-34568213D01*
X66648540Y-34453134D01*
X66648540Y-34453133D01*
X66652564Y-34448472D01*
X66673387Y-34411818D01*
X66751276Y-34274707D01*
X66754323Y-34269344D01*
X66819351Y-34073863D01*
X66845171Y-33869474D01*
X66845583Y-33840000D01*
X66825480Y-33634970D01*
X66765935Y-33437749D01*
X66669218Y-33255849D01*
X66595859Y-33165902D01*
X66542906Y-33100975D01*
X66542903Y-33100972D01*
X66539011Y-33096200D01*
X66521786Y-33081950D01*
X66385025Y-32968811D01*
X66385021Y-32968809D01*
X66380275Y-32964882D01*
X66199055Y-32866897D01*
X66002254Y-32805977D01*
X65996129Y-32805333D01*
X65996128Y-32805333D01*
X65803498Y-32785087D01*
X65803496Y-32785087D01*
X65797369Y-32784443D01*
X65710529Y-32792346D01*
X65598342Y-32802555D01*
X65598339Y-32802556D01*
X65592203Y-32803114D01*
X65394572Y-32861280D01*
X65212002Y-32956726D01*
X65207201Y-32960586D01*
X65207198Y-32960588D01*
X65093167Y-33052271D01*
X65051447Y-33085815D01*
X64919024Y-33243630D01*
X64916056Y-33249028D01*
X64916053Y-33249033D01*
X64909315Y-33261290D01*
X64819776Y-33424162D01*
X64757484Y-33620532D01*
X64756798Y-33626649D01*
X64756797Y-33626653D01*
X64735207Y-33819137D01*
X64734520Y-33825262D01*
X62100500Y-33825262D01*
X62100500Y-17144698D01*
X62100980Y-17133716D01*
X62103302Y-17107180D01*
X62103302Y-17107178D01*
X62104263Y-17096193D01*
X62094512Y-17059803D01*
X62092132Y-17049069D01*
X62090774Y-17041368D01*
X62085588Y-17011955D01*
X62080076Y-17002407D01*
X62078883Y-16999130D01*
X62077406Y-16995962D01*
X62074553Y-16985316D01*
X62052942Y-16954452D01*
X62047038Y-16945184D01*
X62036419Y-16926791D01*
X62028194Y-16912545D01*
X61999324Y-16888320D01*
X61991221Y-16880894D01*
X61710715Y-16600388D01*
X61676689Y-16538076D01*
X61680252Y-16471521D01*
X61737404Y-16299715D01*
X61739351Y-16293863D01*
X61765171Y-16089474D01*
X61765583Y-16060000D01*
X61745480Y-15854970D01*
X61685935Y-15657749D01*
X61589218Y-15475849D01*
X61515859Y-15385902D01*
X61462906Y-15320975D01*
X61462903Y-15320972D01*
X61459011Y-15316200D01*
X61441786Y-15301950D01*
X61305025Y-15188811D01*
X61305021Y-15188809D01*
X61300275Y-15184882D01*
X61119055Y-15086897D01*
X60922254Y-15025977D01*
X60916129Y-15025333D01*
X60916128Y-15025333D01*
X60723498Y-15005087D01*
X60723496Y-15005087D01*
X60717369Y-15004443D01*
X60635780Y-15011868D01*
X60518342Y-15022555D01*
X60518339Y-15022556D01*
X60512203Y-15023114D01*
X60314572Y-15081280D01*
X60309107Y-15084137D01*
X60305959Y-15085783D01*
X60132002Y-15176726D01*
X60127201Y-15180586D01*
X60127198Y-15180588D01*
X60116971Y-15188811D01*
X59971447Y-15305815D01*
X59839024Y-15463630D01*
X59836056Y-15469028D01*
X59836053Y-15469033D01*
X59772287Y-15585024D01*
X59739776Y-15644162D01*
X59677484Y-15840532D01*
X59676798Y-15846649D01*
X59676797Y-15846653D01*
X59655207Y-16039137D01*
X59654520Y-16045262D01*
X59671759Y-16250553D01*
X59728544Y-16448586D01*
X59731359Y-16454063D01*
X59731360Y-16454066D01*
X59806559Y-16600388D01*
X59822712Y-16631818D01*
X59950677Y-16793270D01*
X59955370Y-16797264D01*
X59955371Y-16797265D01*
X60062361Y-16888320D01*
X60107564Y-16926791D01*
X60112942Y-16929797D01*
X60112944Y-16929798D01*
X60151342Y-16951258D01*
X60287398Y-17027297D01*
X60362346Y-17051649D01*
X60477471Y-17089056D01*
X60477475Y-17089057D01*
X60483329Y-17090959D01*
X60687894Y-17115351D01*
X60694029Y-17114879D01*
X60694031Y-17114879D01*
X60750039Y-17110569D01*
X60893300Y-17099546D01*
X60899230Y-17097890D01*
X60899232Y-17097890D01*
X61031529Y-17060952D01*
X61091725Y-17044145D01*
X61104717Y-17037582D01*
X61174540Y-17024720D01*
X61240231Y-17051649D01*
X61250624Y-17060950D01*
X61334371Y-17144698D01*
X61412596Y-17222923D01*
X61446621Y-17285235D01*
X61449500Y-17312018D01*
X61449500Y-19204797D01*
X61429498Y-19272918D01*
X61375842Y-19319411D01*
X61305568Y-19329515D01*
X61242509Y-19301319D01*
X61223705Y-19285540D01*
X61223703Y-19285539D01*
X61215261Y-19278455D01*
X61211789Y-19277191D01*
X61193428Y-19263102D01*
X56112070Y-14181744D01*
X56104643Y-14173640D01*
X56087500Y-14153210D01*
X56087501Y-14153210D01*
X56080414Y-14144765D01*
X56070865Y-14139252D01*
X56047774Y-14125920D01*
X56038503Y-14120014D01*
X56016674Y-14104729D01*
X56007643Y-14098405D01*
X55996993Y-14095551D01*
X55993825Y-14094074D01*
X55990549Y-14092882D01*
X55981004Y-14087371D01*
X55947260Y-14081421D01*
X55943901Y-14080829D01*
X55933174Y-14078451D01*
X55896766Y-14068695D01*
X55885781Y-14069656D01*
X55885779Y-14069656D01*
X55859231Y-14071979D01*
X55848249Y-14072459D01*
X54771751Y-14072459D01*
X54760769Y-14071979D01*
X54734221Y-14069656D01*
X54734219Y-14069656D01*
X54723234Y-14068695D01*
X54686826Y-14078451D01*
X54676099Y-14080829D01*
X54672740Y-14081421D01*
X54638996Y-14087371D01*
X54629451Y-14092882D01*
X54626175Y-14094074D01*
X54623007Y-14095551D01*
X54612357Y-14098405D01*
X54603326Y-14104729D01*
X54581497Y-14120014D01*
X54572226Y-14125920D01*
X54549135Y-14139252D01*
X54539586Y-14144765D01*
X54532500Y-14153210D01*
X54515356Y-14173641D01*
X54507930Y-14181744D01*
X53631491Y-15058183D01*
X53569179Y-15092209D01*
X53499400Y-15085783D01*
X53499055Y-15086897D01*
X53493786Y-15085266D01*
X53302254Y-15025977D01*
X53296129Y-15025333D01*
X53296128Y-15025333D01*
X53103498Y-15005087D01*
X53103496Y-15005087D01*
X53097369Y-15004443D01*
X53015780Y-15011868D01*
X52898342Y-15022555D01*
X52898339Y-15022556D01*
X52892203Y-15023114D01*
X52694572Y-15081280D01*
X52689107Y-15084137D01*
X52685959Y-15085783D01*
X52512002Y-15176726D01*
X52507201Y-15180586D01*
X52507198Y-15180588D01*
X52496971Y-15188811D01*
X52351447Y-15305815D01*
X52219024Y-15463630D01*
X52216056Y-15469028D01*
X52216053Y-15469033D01*
X52152287Y-15585024D01*
X52119776Y-15644162D01*
X52057484Y-15840532D01*
X52056798Y-15846649D01*
X52056797Y-15846653D01*
X52035207Y-16039137D01*
X52034520Y-16045262D01*
X51604138Y-16045262D01*
X51585480Y-15854970D01*
X51525935Y-15657749D01*
X51429218Y-15475849D01*
X51355859Y-15385902D01*
X51302906Y-15320975D01*
X51302903Y-15320972D01*
X51299011Y-15316200D01*
X51281786Y-15301950D01*
X51145025Y-15188811D01*
X51145021Y-15188809D01*
X51140275Y-15184882D01*
X50959055Y-15086897D01*
X50762254Y-15025977D01*
X50756129Y-15025333D01*
X50756128Y-15025333D01*
X50563498Y-15005087D01*
X50563496Y-15005087D01*
X50557369Y-15004443D01*
X50475780Y-15011868D01*
X50358342Y-15022555D01*
X50358339Y-15022556D01*
X50352203Y-15023114D01*
X50154572Y-15081280D01*
X50149107Y-15084137D01*
X50145959Y-15085783D01*
X49972002Y-15176726D01*
X49967201Y-15180586D01*
X49967198Y-15180588D01*
X49956971Y-15188811D01*
X49811447Y-15305815D01*
X49679024Y-15463630D01*
X49676056Y-15469028D01*
X49676053Y-15469033D01*
X49612287Y-15585024D01*
X49579776Y-15644162D01*
X49517484Y-15840532D01*
X49516798Y-15846649D01*
X49516797Y-15846653D01*
X49495207Y-16039137D01*
X49494520Y-16045262D01*
X49064138Y-16045262D01*
X49045480Y-15854970D01*
X48985935Y-15657749D01*
X48889218Y-15475849D01*
X48815859Y-15385902D01*
X48762906Y-15320975D01*
X48762903Y-15320972D01*
X48759011Y-15316200D01*
X48741786Y-15301950D01*
X48605025Y-15188811D01*
X48605021Y-15188809D01*
X48600275Y-15184882D01*
X48419055Y-15086897D01*
X48222254Y-15025977D01*
X48216129Y-15025333D01*
X48216128Y-15025333D01*
X48023498Y-15005087D01*
X48023496Y-15005087D01*
X48017369Y-15004443D01*
X47935780Y-15011868D01*
X47818342Y-15022555D01*
X47818339Y-15022556D01*
X47812203Y-15023114D01*
X47614572Y-15081280D01*
X47609107Y-15084137D01*
X47605959Y-15085783D01*
X47432002Y-15176726D01*
X47427201Y-15180586D01*
X47427198Y-15180588D01*
X47416971Y-15188811D01*
X47271447Y-15305815D01*
X47139024Y-15463630D01*
X47136056Y-15469028D01*
X47136053Y-15469033D01*
X47072287Y-15585024D01*
X47039776Y-15644162D01*
X46977484Y-15840532D01*
X46976798Y-15846649D01*
X46976797Y-15846653D01*
X46955207Y-16039137D01*
X46954520Y-16045262D01*
X13778660Y-16045262D01*
X13779955Y-13295740D01*
X13799989Y-13227628D01*
X13853667Y-13181161D01*
X13905735Y-13169799D01*
X77134050Y-13060218D01*
X77202204Y-13080102D01*
G37*
%TD.AperFunction*%
M02*
