%TF.GenerationSoftware,KiCad,Pcbnew,(6.0.6)*%
%TF.CreationDate,2022-06-29T14:14:22-05:00*%
%TF.ProjectId,FireflyV0,46697265-666c-4795-9630-2e6b69636164,rev?*%
%TF.SameCoordinates,Original*%
%TF.FileFunction,Soldermask,Top*%
%TF.FilePolarity,Negative*%
%FSLAX46Y46*%
G04 Gerber Fmt 4.6, Leading zero omitted, Abs format (unit mm)*
G04 Created by KiCad (PCBNEW (6.0.6)) date 2022-06-29 14:14:22*
%MOMM*%
%LPD*%
G01*
G04 APERTURE LIST*
G04 Aperture macros list*
%AMRoundRect*
0 Rectangle with rounded corners*
0 $1 Rounding radius*
0 $2 $3 $4 $5 $6 $7 $8 $9 X,Y pos of 4 corners*
0 Add a 4 corners polygon primitive as box body*
4,1,4,$2,$3,$4,$5,$6,$7,$8,$9,$2,$3,0*
0 Add four circle primitives for the rounded corners*
1,1,$1+$1,$2,$3*
1,1,$1+$1,$4,$5*
1,1,$1+$1,$6,$7*
1,1,$1+$1,$8,$9*
0 Add four rect primitives between the rounded corners*
20,1,$1+$1,$2,$3,$4,$5,0*
20,1,$1+$1,$4,$5,$6,$7,0*
20,1,$1+$1,$6,$7,$8,$9,0*
20,1,$1+$1,$8,$9,$2,$3,0*%
%AMHorizOval*
0 Thick line with rounded ends*
0 $1 width*
0 $2 $3 position (X,Y) of the first rounded end (center of the circle)*
0 $4 $5 position (X,Y) of the second rounded end (center of the circle)*
0 Add line between two ends*
20,1,$1,$2,$3,$4,$5,0*
0 Add two circle primitives to create the rounded ends*
1,1,$1,$2,$3*
1,1,$1,$4,$5*%
G04 Aperture macros list end*
%ADD10O,1.700000X1.700000*%
%ADD11R,1.700000X3.500000*%
%ADD12R,3.500000X1.700000*%
%ADD13R,1.200000X1.400000*%
%ADD14R,1.840000X1.200000*%
%ADD15RoundRect,0.250000X-0.450000X0.262500X-0.450000X-0.262500X0.450000X-0.262500X0.450000X0.262500X0*%
%ADD16R,0.410000X0.280000*%
%ADD17R,0.280000X0.410000*%
%ADD18R,1.470000X1.020000*%
%ADD19RoundRect,0.500000X-1.500000X-0.500000X1.500000X-0.500000X1.500000X0.500000X-1.500000X0.500000X0*%
%ADD20R,0.700000X1.200000*%
%ADD21R,0.760000X1.200000*%
%ADD22R,0.800000X1.200000*%
%ADD23C,2.010000*%
%ADD24C,1.524000*%
%ADD25C,0.910000*%
%ADD26HorizOval,0.910000X-0.070711X0.070711X0.070711X-0.070711X0*%
%ADD27R,1.020000X1.470000*%
%ADD28RoundRect,0.500000X0.500000X-1.500000X0.500000X1.500000X-0.500000X1.500000X-0.500000X-1.500000X0*%
G04 APERTURE END LIST*
D10*
X60710000Y-16060000D03*
X55630000Y-16060000D03*
X53090000Y-16060000D03*
D11*
X75950000Y-15160000D03*
X73410000Y-15160000D03*
X70870000Y-15160000D03*
X68330000Y-15160000D03*
X65790000Y-15160000D03*
X63250000Y-15160000D03*
X60710000Y-15160000D03*
X58170000Y-15160000D03*
X55630000Y-15160000D03*
X53090000Y-15160000D03*
X50550000Y-15160000D03*
D10*
X50550000Y-16060000D03*
D11*
X48010000Y-15160000D03*
D10*
X48010000Y-16060000D03*
D11*
X45470000Y-15160000D03*
X42930000Y-15160000D03*
X40390000Y-15160000D03*
X37850000Y-15160000D03*
X35310000Y-15160000D03*
X32770000Y-15160000D03*
X30230000Y-15160000D03*
X27690000Y-15160000D03*
X27690000Y-34740000D03*
X30230000Y-34740000D03*
X32770000Y-34740000D03*
X35310000Y-34740000D03*
X37850000Y-34740000D03*
X40390000Y-34740000D03*
D10*
X40390000Y-33800000D03*
X42930000Y-33840000D03*
D11*
X42930000Y-34740000D03*
X45470000Y-34740000D03*
X48010000Y-34740000D03*
X50550000Y-34740000D03*
D10*
X53090000Y-33840000D03*
D11*
X53090000Y-34740000D03*
D10*
X55630000Y-33840000D03*
D11*
X55630000Y-34740000D03*
X58170000Y-34740000D03*
X60710000Y-34740000D03*
X63250000Y-34740000D03*
D10*
X65790000Y-33840000D03*
D11*
X65790000Y-34740000D03*
X68330000Y-34740000D03*
X70870000Y-34740000D03*
X73410000Y-34740000D03*
D10*
X75950000Y-33840000D03*
D11*
X75950000Y-34740000D03*
D12*
X27020000Y-22410000D03*
X27020000Y-24950000D03*
X27020000Y-27490000D03*
D13*
X63265000Y-54950000D03*
D14*
X63265000Y-53350000D03*
X59215000Y-53350000D03*
D13*
X59215000Y-54950000D03*
X55785000Y-54950000D03*
D14*
X55785000Y-53350000D03*
X51735000Y-53350000D03*
D13*
X51735000Y-54950000D03*
D15*
X20140000Y-45410000D03*
X20140000Y-47235000D03*
X18120000Y-45385000D03*
X18120000Y-47210000D03*
X70330000Y-45625000D03*
X70330000Y-47450000D03*
X68420000Y-45600000D03*
X68420000Y-47425000D03*
D16*
X60585000Y-42850000D03*
X60585000Y-43350000D03*
X60585000Y-43850000D03*
X60585000Y-44350000D03*
D17*
X61130000Y-44415000D03*
X61630000Y-44415000D03*
D16*
X62175000Y-44350000D03*
X62175000Y-43850000D03*
X62175000Y-43350000D03*
X62175000Y-42850000D03*
D17*
X61630000Y-42785000D03*
X61130000Y-42785000D03*
D18*
X64550000Y-42700000D03*
X64550000Y-44300000D03*
D19*
X16300000Y-19450000D03*
X16300000Y-22450000D03*
X16300000Y-25450000D03*
X16300000Y-28450000D03*
D20*
X19133821Y-50002500D03*
D21*
X21153821Y-50002500D03*
D22*
X22383821Y-50002500D03*
D20*
X20133821Y-50002500D03*
D21*
X18113821Y-50002500D03*
D22*
X16883821Y-50002500D03*
D23*
X15313821Y-50082500D03*
X15313821Y-53882500D03*
X23953821Y-53882500D03*
X23953821Y-50082500D03*
D20*
X71030000Y-50170000D03*
D21*
X73050000Y-50170000D03*
D22*
X74280000Y-50170000D03*
D20*
X72030000Y-50170000D03*
D21*
X70010000Y-50170000D03*
D22*
X68780000Y-50170000D03*
D23*
X67210000Y-50250000D03*
X67210000Y-54050000D03*
X75850000Y-54050000D03*
X75850000Y-50250000D03*
D24*
X46070000Y-48460000D03*
X43530000Y-48460000D03*
X40990000Y-48460000D03*
X34030000Y-48520000D03*
X31490000Y-48520000D03*
X28950000Y-48520000D03*
D25*
X42820000Y-41870000D03*
X42820000Y-40220000D03*
X42820000Y-38570000D03*
X40480000Y-38570000D03*
X40480000Y-40220000D03*
D26*
X40580000Y-41770000D03*
D27*
X41040000Y-44660000D03*
X42640000Y-44660000D03*
D19*
X16210000Y-31210000D03*
X16210000Y-34210000D03*
X16210000Y-37210000D03*
X16210000Y-40210000D03*
D28*
X15400000Y-15560000D03*
X18400000Y-15560000D03*
X21400000Y-15560000D03*
X24400000Y-15560000D03*
D19*
X74820000Y-38310000D03*
X74820000Y-41310000D03*
X74820000Y-44310000D03*
X74820000Y-47310000D03*
M02*
