%TF.GenerationSoftware,KiCad,Pcbnew,(6.0.6)*%
%TF.CreationDate,2022-06-29T14:14:22-05:00*%
%TF.ProjectId,FireflyV0,46697265-666c-4795-9630-2e6b69636164,rev?*%
%TF.SameCoordinates,Original*%
%TF.FileFunction,Legend,Bot*%
%TF.FilePolarity,Positive*%
%FSLAX46Y46*%
G04 Gerber Fmt 4.6, Leading zero omitted, Abs format (unit mm)*
G04 Created by KiCad (PCBNEW (6.0.6)) date 2022-06-29 14:14:22*
%MOMM*%
%LPD*%
G01*
G04 APERTURE LIST*
%ADD10C,0.150000*%
%ADD11C,0.250000*%
%ADD12C,0.200000*%
%ADD13O,1.700000X1.700000*%
%ADD14R,1.200000X1.400000*%
%ADD15C,2.010000*%
%ADD16C,1.524000*%
G04 APERTURE END LIST*
D10*
X47709523Y-19948571D02*
X47566666Y-19996190D01*
X47519047Y-20043809D01*
X47471428Y-20139047D01*
X47471428Y-20281904D01*
X47519047Y-20377142D01*
X47566666Y-20424761D01*
X47661904Y-20472380D01*
X48042857Y-20472380D01*
X48042857Y-19472380D01*
X47709523Y-19472380D01*
X47614285Y-19520000D01*
X47566666Y-19567619D01*
X47519047Y-19662857D01*
X47519047Y-19758095D01*
X47566666Y-19853333D01*
X47614285Y-19900952D01*
X47709523Y-19948571D01*
X48042857Y-19948571D01*
X47185714Y-19472380D02*
X46614285Y-19472380D01*
X46900000Y-20472380D02*
X46900000Y-19472380D01*
X46280952Y-20472380D02*
X46280952Y-19472380D01*
X45709523Y-20472380D01*
X45709523Y-19472380D01*
X44709523Y-20472380D02*
X45280952Y-20472380D01*
X44995238Y-20472380D02*
X44995238Y-19472380D01*
X45090476Y-19615238D01*
X45185714Y-19710476D01*
X45280952Y-19758095D01*
X51339523Y-19988571D02*
X51196666Y-20036190D01*
X51149047Y-20083809D01*
X51101428Y-20179047D01*
X51101428Y-20321904D01*
X51149047Y-20417142D01*
X51196666Y-20464761D01*
X51291904Y-20512380D01*
X51672857Y-20512380D01*
X51672857Y-19512380D01*
X51339523Y-19512380D01*
X51244285Y-19560000D01*
X51196666Y-19607619D01*
X51149047Y-19702857D01*
X51149047Y-19798095D01*
X51196666Y-19893333D01*
X51244285Y-19940952D01*
X51339523Y-19988571D01*
X51672857Y-19988571D01*
X50815714Y-19512380D02*
X50244285Y-19512380D01*
X50530000Y-20512380D02*
X50530000Y-19512380D01*
X49910952Y-20512380D02*
X49910952Y-19512380D01*
X49339523Y-20512380D01*
X49339523Y-19512380D01*
X48910952Y-19607619D02*
X48863333Y-19560000D01*
X48768095Y-19512380D01*
X48530000Y-19512380D01*
X48434761Y-19560000D01*
X48387142Y-19607619D01*
X48339523Y-19702857D01*
X48339523Y-19798095D01*
X48387142Y-19940952D01*
X48958571Y-20512380D01*
X48339523Y-20512380D01*
X55272857Y-20226666D02*
X54796666Y-20226666D01*
X55368095Y-20512380D02*
X55034761Y-19512380D01*
X54701428Y-20512380D01*
X53796666Y-20417142D02*
X53844285Y-20464761D01*
X53987142Y-20512380D01*
X54082380Y-20512380D01*
X54225238Y-20464761D01*
X54320476Y-20369523D01*
X54368095Y-20274285D01*
X54415714Y-20083809D01*
X54415714Y-19940952D01*
X54368095Y-19750476D01*
X54320476Y-19655238D01*
X54225238Y-19560000D01*
X54082380Y-19512380D01*
X53987142Y-19512380D01*
X53844285Y-19560000D01*
X53796666Y-19607619D01*
X52891904Y-20512380D02*
X53368095Y-20512380D01*
X53368095Y-19512380D01*
X52558571Y-20512380D02*
X52558571Y-19512380D01*
X51987142Y-20512380D02*
X52415714Y-19940952D01*
X51987142Y-19512380D02*
X52558571Y-20083809D01*
X58807619Y-20256666D02*
X58331428Y-20256666D01*
X58902857Y-20542380D02*
X58569523Y-19542380D01*
X58236190Y-20542380D01*
X57902857Y-20542380D02*
X57902857Y-19542380D01*
X57664761Y-19542380D01*
X57521904Y-19590000D01*
X57426666Y-19685238D01*
X57379047Y-19780476D01*
X57331428Y-19970952D01*
X57331428Y-20113809D01*
X57379047Y-20304285D01*
X57426666Y-20399523D01*
X57521904Y-20494761D01*
X57664761Y-20542380D01*
X57902857Y-20542380D01*
X56950476Y-20256666D02*
X56474285Y-20256666D01*
X57045714Y-20542380D02*
X56712380Y-19542380D01*
X56379047Y-20542380D01*
X56188571Y-19542380D02*
X55617142Y-19542380D01*
X55902857Y-20542380D02*
X55902857Y-19542380D01*
X62090952Y-20296666D02*
X61614761Y-20296666D01*
X62186190Y-20582380D02*
X61852857Y-19582380D01*
X61519523Y-20582380D01*
X61186190Y-20582380D02*
X61186190Y-19582380D01*
X60710000Y-20582380D02*
X60710000Y-19582380D01*
X60138571Y-20582380D01*
X60138571Y-19582380D01*
X59805238Y-19582380D02*
X59233809Y-19582380D01*
X59519523Y-20582380D02*
X59519523Y-19582380D01*
X46610000Y-19160000D02*
X48060000Y-17220000D01*
X50130000Y-19190000D02*
X50620000Y-17260000D01*
X53590000Y-19160000D02*
X53110000Y-17220000D01*
X60710000Y-19260000D02*
X60710000Y-17260000D01*
X57150000Y-19190000D02*
X55630000Y-17190000D01*
X53852857Y-30252380D02*
X53852857Y-29252380D01*
X53471904Y-29252380D01*
X53376666Y-29300000D01*
X53329047Y-29347619D01*
X53281428Y-29442857D01*
X53281428Y-29585714D01*
X53329047Y-29680952D01*
X53376666Y-29728571D01*
X53471904Y-29776190D01*
X53852857Y-29776190D01*
X52662380Y-29252380D02*
X52471904Y-29252380D01*
X52376666Y-29300000D01*
X52281428Y-29395238D01*
X52233809Y-29585714D01*
X52233809Y-29919047D01*
X52281428Y-30109523D01*
X52376666Y-30204761D01*
X52471904Y-30252380D01*
X52662380Y-30252380D01*
X52757619Y-30204761D01*
X52852857Y-30109523D01*
X52900476Y-29919047D01*
X52900476Y-29585714D01*
X52852857Y-29395238D01*
X52757619Y-29300000D01*
X52662380Y-29252380D01*
X51948095Y-29252380D02*
X51376666Y-29252380D01*
X51662380Y-30252380D02*
X51662380Y-29252380D01*
X51090952Y-29347619D02*
X51043333Y-29300000D01*
X50948095Y-29252380D01*
X50710000Y-29252380D01*
X50614761Y-29300000D01*
X50567142Y-29347619D01*
X50519523Y-29442857D01*
X50519523Y-29538095D01*
X50567142Y-29680952D01*
X51138571Y-30252380D01*
X50519523Y-30252380D01*
X53010000Y-32630000D02*
X53010000Y-30630000D01*
X32025833Y-28282380D02*
X32025833Y-27758571D01*
X32073452Y-27663333D01*
X32168690Y-27615714D01*
X32359166Y-27615714D01*
X32454404Y-27663333D01*
X32025833Y-28234761D02*
X32121071Y-28282380D01*
X32359166Y-28282380D01*
X32454404Y-28234761D01*
X32502023Y-28139523D01*
X32502023Y-28044285D01*
X32454404Y-27949047D01*
X32359166Y-27901428D01*
X32121071Y-27901428D01*
X32025833Y-27853809D01*
X31121071Y-28234761D02*
X31216309Y-28282380D01*
X31406785Y-28282380D01*
X31502023Y-28234761D01*
X31549642Y-28187142D01*
X31597261Y-28091904D01*
X31597261Y-27806190D01*
X31549642Y-27710952D01*
X31502023Y-27663333D01*
X31406785Y-27615714D01*
X31216309Y-27615714D01*
X31121071Y-27663333D01*
X30263928Y-28234761D02*
X30359166Y-28282380D01*
X30549642Y-28282380D01*
X30644880Y-28234761D01*
X30692500Y-28187142D01*
X30740119Y-28091904D01*
X30740119Y-27806190D01*
X30692500Y-27710952D01*
X30644880Y-27663333D01*
X30549642Y-27615714D01*
X30359166Y-27615714D01*
X30263928Y-27663333D01*
X30073452Y-28377619D02*
X29311547Y-28377619D01*
X28644880Y-28234761D02*
X28740119Y-28282380D01*
X28930595Y-28282380D01*
X29025833Y-28234761D01*
X29073452Y-28187142D01*
X29121071Y-28091904D01*
X29121071Y-27806190D01*
X29073452Y-27710952D01*
X29025833Y-27663333D01*
X28930595Y-27615714D01*
X28740119Y-27615714D01*
X28644880Y-27663333D01*
X28073452Y-28282380D02*
X28168690Y-28234761D01*
X28216309Y-28139523D01*
X28216309Y-27282380D01*
X27692500Y-28282380D02*
X27692500Y-27282380D01*
X27597261Y-27901428D02*
X27311547Y-28282380D01*
X27311547Y-27615714D02*
X27692500Y-27996666D01*
X26121071Y-27758571D02*
X25359166Y-27758571D01*
X25359166Y-28044285D02*
X26121071Y-28044285D01*
X24454404Y-27615714D02*
X24454404Y-28425238D01*
X24502023Y-28520476D01*
X24549642Y-28568095D01*
X24644880Y-28615714D01*
X24787738Y-28615714D01*
X24882976Y-28568095D01*
X24454404Y-28234761D02*
X24549642Y-28282380D01*
X24740119Y-28282380D01*
X24835357Y-28234761D01*
X24882976Y-28187142D01*
X24930595Y-28091904D01*
X24930595Y-27806190D01*
X24882976Y-27710952D01*
X24835357Y-27663333D01*
X24740119Y-27615714D01*
X24549642Y-27615714D01*
X24454404Y-27663333D01*
X23978214Y-27615714D02*
X23978214Y-28615714D01*
X23978214Y-27663333D02*
X23882976Y-27615714D01*
X23692500Y-27615714D01*
X23597261Y-27663333D01*
X23549642Y-27710952D01*
X23502023Y-27806190D01*
X23502023Y-28091904D01*
X23549642Y-28187142D01*
X23597261Y-28234761D01*
X23692500Y-28282380D01*
X23882976Y-28282380D01*
X23978214Y-28234761D01*
X23168690Y-27282380D02*
X22502023Y-27282380D01*
X22930595Y-28282380D01*
X32025833Y-29892380D02*
X32025833Y-29368571D01*
X32073452Y-29273333D01*
X32168690Y-29225714D01*
X32359166Y-29225714D01*
X32454404Y-29273333D01*
X32025833Y-29844761D02*
X32121071Y-29892380D01*
X32359166Y-29892380D01*
X32454404Y-29844761D01*
X32502023Y-29749523D01*
X32502023Y-29654285D01*
X32454404Y-29559047D01*
X32359166Y-29511428D01*
X32121071Y-29511428D01*
X32025833Y-29463809D01*
X31121071Y-29844761D02*
X31216309Y-29892380D01*
X31406785Y-29892380D01*
X31502023Y-29844761D01*
X31549642Y-29797142D01*
X31597261Y-29701904D01*
X31597261Y-29416190D01*
X31549642Y-29320952D01*
X31502023Y-29273333D01*
X31406785Y-29225714D01*
X31216309Y-29225714D01*
X31121071Y-29273333D01*
X30263928Y-29844761D02*
X30359166Y-29892380D01*
X30549642Y-29892380D01*
X30644880Y-29844761D01*
X30692500Y-29797142D01*
X30740119Y-29701904D01*
X30740119Y-29416190D01*
X30692500Y-29320952D01*
X30644880Y-29273333D01*
X30549642Y-29225714D01*
X30359166Y-29225714D01*
X30263928Y-29273333D01*
X30073452Y-29987619D02*
X29311547Y-29987619D01*
X28644880Y-29892380D02*
X28644880Y-28892380D01*
X28644880Y-29844761D02*
X28740119Y-29892380D01*
X28930595Y-29892380D01*
X29025833Y-29844761D01*
X29073452Y-29797142D01*
X29121071Y-29701904D01*
X29121071Y-29416190D01*
X29073452Y-29320952D01*
X29025833Y-29273333D01*
X28930595Y-29225714D01*
X28740119Y-29225714D01*
X28644880Y-29273333D01*
X27740119Y-29892380D02*
X27740119Y-29368571D01*
X27787738Y-29273333D01*
X27882976Y-29225714D01*
X28073452Y-29225714D01*
X28168690Y-29273333D01*
X27740119Y-29844761D02*
X27835357Y-29892380D01*
X28073452Y-29892380D01*
X28168690Y-29844761D01*
X28216309Y-29749523D01*
X28216309Y-29654285D01*
X28168690Y-29559047D01*
X28073452Y-29511428D01*
X27835357Y-29511428D01*
X27740119Y-29463809D01*
X27406785Y-29225714D02*
X27025833Y-29225714D01*
X27263928Y-28892380D02*
X27263928Y-29749523D01*
X27216309Y-29844761D01*
X27121071Y-29892380D01*
X27025833Y-29892380D01*
X26263928Y-29892380D02*
X26263928Y-29368571D01*
X26311547Y-29273333D01*
X26406785Y-29225714D01*
X26597261Y-29225714D01*
X26692500Y-29273333D01*
X26263928Y-29844761D02*
X26359166Y-29892380D01*
X26597261Y-29892380D01*
X26692500Y-29844761D01*
X26740119Y-29749523D01*
X26740119Y-29654285D01*
X26692500Y-29559047D01*
X26597261Y-29511428D01*
X26359166Y-29511428D01*
X26263928Y-29463809D01*
X25787738Y-29368571D02*
X25025833Y-29368571D01*
X25025833Y-29654285D02*
X25787738Y-29654285D01*
X24121071Y-29225714D02*
X24121071Y-30035238D01*
X24168690Y-30130476D01*
X24216309Y-30178095D01*
X24311547Y-30225714D01*
X24454404Y-30225714D01*
X24549642Y-30178095D01*
X24121071Y-29844761D02*
X24216309Y-29892380D01*
X24406785Y-29892380D01*
X24502023Y-29844761D01*
X24549642Y-29797142D01*
X24597261Y-29701904D01*
X24597261Y-29416190D01*
X24549642Y-29320952D01*
X24502023Y-29273333D01*
X24406785Y-29225714D01*
X24216309Y-29225714D01*
X24121071Y-29273333D01*
X23644880Y-29225714D02*
X23644880Y-30225714D01*
X23644880Y-29273333D02*
X23549642Y-29225714D01*
X23359166Y-29225714D01*
X23263928Y-29273333D01*
X23216309Y-29320952D01*
X23168690Y-29416190D01*
X23168690Y-29701904D01*
X23216309Y-29797142D01*
X23263928Y-29844761D01*
X23359166Y-29892380D01*
X23549642Y-29892380D01*
X23644880Y-29844761D01*
X22311547Y-28892380D02*
X22502023Y-28892380D01*
X22597261Y-28940000D01*
X22644880Y-28987619D01*
X22740119Y-29130476D01*
X22787738Y-29320952D01*
X22787738Y-29701904D01*
X22740119Y-29797142D01*
X22692500Y-29844761D01*
X22597261Y-29892380D01*
X22406785Y-29892380D01*
X22311547Y-29844761D01*
X22263928Y-29797142D01*
X22216309Y-29701904D01*
X22216309Y-29463809D01*
X22263928Y-29368571D01*
X22311547Y-29320952D01*
X22406785Y-29273333D01*
X22597261Y-29273333D01*
X22692500Y-29320952D01*
X22740119Y-29368571D01*
X22787738Y-29463809D01*
X32025833Y-31502380D02*
X32025833Y-30978571D01*
X32073452Y-30883333D01*
X32168690Y-30835714D01*
X32359166Y-30835714D01*
X32454404Y-30883333D01*
X32025833Y-31454761D02*
X32121071Y-31502380D01*
X32359166Y-31502380D01*
X32454404Y-31454761D01*
X32502023Y-31359523D01*
X32502023Y-31264285D01*
X32454404Y-31169047D01*
X32359166Y-31121428D01*
X32121071Y-31121428D01*
X32025833Y-31073809D01*
X31121071Y-31454761D02*
X31216309Y-31502380D01*
X31406785Y-31502380D01*
X31502023Y-31454761D01*
X31549642Y-31407142D01*
X31597261Y-31311904D01*
X31597261Y-31026190D01*
X31549642Y-30930952D01*
X31502023Y-30883333D01*
X31406785Y-30835714D01*
X31216309Y-30835714D01*
X31121071Y-30883333D01*
X30263928Y-31454761D02*
X30359166Y-31502380D01*
X30549642Y-31502380D01*
X30644880Y-31454761D01*
X30692500Y-31407142D01*
X30740119Y-31311904D01*
X30740119Y-31026190D01*
X30692500Y-30930952D01*
X30644880Y-30883333D01*
X30549642Y-30835714D01*
X30359166Y-30835714D01*
X30263928Y-30883333D01*
X30073452Y-31597619D02*
X29311547Y-31597619D01*
X29073452Y-31502380D02*
X29073452Y-30835714D01*
X29073452Y-30502380D02*
X29121071Y-30550000D01*
X29073452Y-30597619D01*
X29025833Y-30550000D01*
X29073452Y-30502380D01*
X29073452Y-30597619D01*
X28597261Y-30835714D02*
X28597261Y-31502380D01*
X28597261Y-30930952D02*
X28549642Y-30883333D01*
X28454404Y-30835714D01*
X28311547Y-30835714D01*
X28216309Y-30883333D01*
X28168690Y-30978571D01*
X28168690Y-31502380D01*
X27835357Y-30835714D02*
X27454404Y-30835714D01*
X27692500Y-30502380D02*
X27692500Y-31359523D01*
X27644880Y-31454761D01*
X27549642Y-31502380D01*
X27454404Y-31502380D01*
X26359166Y-30978571D02*
X25597261Y-30978571D01*
X25597261Y-31264285D02*
X26359166Y-31264285D01*
X24692499Y-30835714D02*
X24692499Y-31645238D01*
X24740119Y-31740476D01*
X24787738Y-31788095D01*
X24882976Y-31835714D01*
X25025833Y-31835714D01*
X25121071Y-31788095D01*
X24692499Y-31454761D02*
X24787738Y-31502380D01*
X24978214Y-31502380D01*
X25073452Y-31454761D01*
X25121071Y-31407142D01*
X25168690Y-31311904D01*
X25168690Y-31026190D01*
X25121071Y-30930952D01*
X25073452Y-30883333D01*
X24978214Y-30835714D01*
X24787738Y-30835714D01*
X24692499Y-30883333D01*
X24216309Y-30835714D02*
X24216309Y-31835714D01*
X24216309Y-30883333D02*
X24121071Y-30835714D01*
X23930595Y-30835714D01*
X23835357Y-30883333D01*
X23787738Y-30930952D01*
X23740119Y-31026190D01*
X23740119Y-31311904D01*
X23787738Y-31407142D01*
X23835357Y-31454761D01*
X23930595Y-31502380D01*
X24121071Y-31502380D01*
X24216309Y-31454761D01*
X22835357Y-30502380D02*
X23311547Y-30502380D01*
X23359166Y-30978571D01*
X23311547Y-30930952D01*
X23216309Y-30883333D01*
X22978214Y-30883333D01*
X22882976Y-30930952D01*
X22835357Y-30978571D01*
X22787738Y-31073809D01*
X22787738Y-31311904D01*
X22835357Y-31407142D01*
X22882976Y-31454761D01*
X22978214Y-31502380D01*
X23216309Y-31502380D01*
X23311547Y-31454761D01*
X23359166Y-31407142D01*
X32454404Y-32445714D02*
X32454404Y-33445714D01*
X32454404Y-32493333D02*
X32359166Y-32445714D01*
X32168690Y-32445714D01*
X32073452Y-32493333D01*
X32025833Y-32540952D01*
X31978214Y-32636190D01*
X31978214Y-32921904D01*
X32025833Y-33017142D01*
X32073452Y-33064761D01*
X32168690Y-33112380D01*
X32359166Y-33112380D01*
X32454404Y-33064761D01*
X31121071Y-33112380D02*
X31121071Y-32112380D01*
X31121071Y-33064761D02*
X31216309Y-33112380D01*
X31406785Y-33112380D01*
X31502023Y-33064761D01*
X31549642Y-33017142D01*
X31597261Y-32921904D01*
X31597261Y-32636190D01*
X31549642Y-32540952D01*
X31502023Y-32493333D01*
X31406785Y-32445714D01*
X31216309Y-32445714D01*
X31121071Y-32493333D01*
X30644880Y-33112380D02*
X30644880Y-32445714D01*
X30644880Y-32540952D02*
X30597261Y-32493333D01*
X30502023Y-32445714D01*
X30359166Y-32445714D01*
X30263928Y-32493333D01*
X30216309Y-32588571D01*
X30216309Y-33112380D01*
X30216309Y-32588571D02*
X30168690Y-32493333D01*
X30073452Y-32445714D01*
X29930595Y-32445714D01*
X29835357Y-32493333D01*
X29787738Y-32588571D01*
X29787738Y-33112380D01*
X29549642Y-33207619D02*
X28787738Y-33207619D01*
X28121071Y-33064761D02*
X28216309Y-33112380D01*
X28406785Y-33112380D01*
X28502023Y-33064761D01*
X28549642Y-33017142D01*
X28597261Y-32921904D01*
X28597261Y-32636190D01*
X28549642Y-32540952D01*
X28502023Y-32493333D01*
X28406785Y-32445714D01*
X28216309Y-32445714D01*
X28121071Y-32493333D01*
X27549642Y-33112380D02*
X27644880Y-33064761D01*
X27692500Y-32969523D01*
X27692500Y-32112380D01*
X27168690Y-33112380D02*
X27168690Y-32112380D01*
X27073452Y-32731428D02*
X26787738Y-33112380D01*
X26787738Y-32445714D02*
X27168690Y-32826666D01*
X25597261Y-32588571D02*
X24835357Y-32588571D01*
X24835357Y-32874285D02*
X25597261Y-32874285D01*
X23930595Y-32445714D02*
X23930595Y-33255238D01*
X23978214Y-33350476D01*
X24025833Y-33398095D01*
X24121071Y-33445714D01*
X24263928Y-33445714D01*
X24359166Y-33398095D01*
X23930595Y-33064761D02*
X24025833Y-33112380D01*
X24216309Y-33112380D01*
X24311547Y-33064761D01*
X24359166Y-33017142D01*
X24406785Y-32921904D01*
X24406785Y-32636190D01*
X24359166Y-32540952D01*
X24311547Y-32493333D01*
X24216309Y-32445714D01*
X24025833Y-32445714D01*
X23930595Y-32493333D01*
X23454404Y-32445714D02*
X23454404Y-33445714D01*
X23454404Y-32493333D02*
X23359166Y-32445714D01*
X23168690Y-32445714D01*
X23073452Y-32493333D01*
X23025833Y-32540952D01*
X22978214Y-32636190D01*
X22978214Y-32921904D01*
X23025833Y-33017142D01*
X23073452Y-33064761D01*
X23168690Y-33112380D01*
X23359166Y-33112380D01*
X23454404Y-33064761D01*
X22597261Y-32207619D02*
X22549642Y-32160000D01*
X22454404Y-32112380D01*
X22216309Y-32112380D01*
X22121071Y-32160000D01*
X22073452Y-32207619D01*
X22025833Y-32302857D01*
X22025833Y-32398095D01*
X22073452Y-32540952D01*
X22644880Y-33112380D01*
X22025833Y-33112380D01*
X21073452Y-33112380D02*
X21644880Y-33112380D01*
X21359166Y-33112380D02*
X21359166Y-32112380D01*
X21454404Y-32255238D01*
X21549642Y-32350476D01*
X21644880Y-32398095D01*
X32454404Y-34055714D02*
X32454404Y-35055714D01*
X32454404Y-34103333D02*
X32359166Y-34055714D01*
X32168690Y-34055714D01*
X32073452Y-34103333D01*
X32025833Y-34150952D01*
X31978214Y-34246190D01*
X31978214Y-34531904D01*
X32025833Y-34627142D01*
X32073452Y-34674761D01*
X32168690Y-34722380D01*
X32359166Y-34722380D01*
X32454404Y-34674761D01*
X31121071Y-34722380D02*
X31121071Y-33722380D01*
X31121071Y-34674761D02*
X31216309Y-34722380D01*
X31406785Y-34722380D01*
X31502023Y-34674761D01*
X31549642Y-34627142D01*
X31597261Y-34531904D01*
X31597261Y-34246190D01*
X31549642Y-34150952D01*
X31502023Y-34103333D01*
X31406785Y-34055714D01*
X31216309Y-34055714D01*
X31121071Y-34103333D01*
X30644880Y-34722380D02*
X30644880Y-34055714D01*
X30644880Y-34150952D02*
X30597261Y-34103333D01*
X30502023Y-34055714D01*
X30359166Y-34055714D01*
X30263928Y-34103333D01*
X30216309Y-34198571D01*
X30216309Y-34722380D01*
X30216309Y-34198571D02*
X30168690Y-34103333D01*
X30073452Y-34055714D01*
X29930595Y-34055714D01*
X29835357Y-34103333D01*
X29787738Y-34198571D01*
X29787738Y-34722380D01*
X29549642Y-34817619D02*
X28787738Y-34817619D01*
X28121071Y-34722380D02*
X28121071Y-33722380D01*
X28121071Y-34674761D02*
X28216309Y-34722380D01*
X28406785Y-34722380D01*
X28502023Y-34674761D01*
X28549642Y-34627142D01*
X28597261Y-34531904D01*
X28597261Y-34246190D01*
X28549642Y-34150952D01*
X28502023Y-34103333D01*
X28406785Y-34055714D01*
X28216309Y-34055714D01*
X28121071Y-34103333D01*
X27216309Y-34722380D02*
X27216309Y-34198571D01*
X27263928Y-34103333D01*
X27359166Y-34055714D01*
X27549642Y-34055714D01*
X27644880Y-34103333D01*
X27216309Y-34674761D02*
X27311547Y-34722380D01*
X27549642Y-34722380D01*
X27644880Y-34674761D01*
X27692500Y-34579523D01*
X27692500Y-34484285D01*
X27644880Y-34389047D01*
X27549642Y-34341428D01*
X27311547Y-34341428D01*
X27216309Y-34293809D01*
X26882976Y-34055714D02*
X26502023Y-34055714D01*
X26740119Y-33722380D02*
X26740119Y-34579523D01*
X26692500Y-34674761D01*
X26597261Y-34722380D01*
X26502023Y-34722380D01*
X25740119Y-34722380D02*
X25740119Y-34198571D01*
X25787738Y-34103333D01*
X25882976Y-34055714D01*
X26073452Y-34055714D01*
X26168690Y-34103333D01*
X25740119Y-34674761D02*
X25835357Y-34722380D01*
X26073452Y-34722380D01*
X26168690Y-34674761D01*
X26216309Y-34579523D01*
X26216309Y-34484285D01*
X26168690Y-34389047D01*
X26073452Y-34341428D01*
X25835357Y-34341428D01*
X25740119Y-34293809D01*
X25263928Y-34198571D02*
X24502023Y-34198571D01*
X24502023Y-34484285D02*
X25263928Y-34484285D01*
X23597261Y-34055714D02*
X23597261Y-34865238D01*
X23644880Y-34960476D01*
X23692500Y-35008095D01*
X23787738Y-35055714D01*
X23930595Y-35055714D01*
X24025833Y-35008095D01*
X23597261Y-34674761D02*
X23692500Y-34722380D01*
X23882976Y-34722380D01*
X23978214Y-34674761D01*
X24025833Y-34627142D01*
X24073452Y-34531904D01*
X24073452Y-34246190D01*
X24025833Y-34150952D01*
X23978214Y-34103333D01*
X23882976Y-34055714D01*
X23692500Y-34055714D01*
X23597261Y-34103333D01*
X23121071Y-34055714D02*
X23121071Y-35055714D01*
X23121071Y-34103333D02*
X23025833Y-34055714D01*
X22835357Y-34055714D01*
X22740119Y-34103333D01*
X22692500Y-34150952D01*
X22644880Y-34246190D01*
X22644880Y-34531904D01*
X22692500Y-34627142D01*
X22740119Y-34674761D01*
X22835357Y-34722380D01*
X23025833Y-34722380D01*
X23121071Y-34674761D01*
X22263928Y-33817619D02*
X22216309Y-33770000D01*
X22121071Y-33722380D01*
X21882976Y-33722380D01*
X21787738Y-33770000D01*
X21740119Y-33817619D01*
X21692500Y-33912857D01*
X21692500Y-34008095D01*
X21740119Y-34150952D01*
X22311547Y-34722380D01*
X21692500Y-34722380D01*
X21073452Y-33722380D02*
X20978214Y-33722380D01*
X20882976Y-33770000D01*
X20835357Y-33817619D01*
X20787738Y-33912857D01*
X20740119Y-34103333D01*
X20740119Y-34341428D01*
X20787738Y-34531904D01*
X20835357Y-34627142D01*
X20882976Y-34674761D01*
X20978214Y-34722380D01*
X21073452Y-34722380D01*
X21168690Y-34674761D01*
X21216309Y-34627142D01*
X21263928Y-34531904D01*
X21311547Y-34341428D01*
X21311547Y-34103333D01*
X21263928Y-33912857D01*
X21216309Y-33817619D01*
X21168690Y-33770000D01*
X21073452Y-33722380D01*
X19930000Y-26830000D02*
X33305000Y-26830000D01*
X33305000Y-26830000D02*
X33305000Y-35300000D01*
X33305000Y-35300000D02*
X19930000Y-35300000D01*
X19930000Y-35300000D02*
X19930000Y-26830000D01*
X55420000Y-32510000D02*
X55420000Y-30510000D01*
X39920000Y-32510000D02*
X39420000Y-30510000D01*
X38640000Y-21580000D02*
X51640000Y-21580000D01*
X51640000Y-21580000D02*
X51640000Y-28660000D01*
X51640000Y-28660000D02*
X38640000Y-28660000D01*
X38640000Y-28660000D02*
X38640000Y-21580000D01*
X52570000Y-21540000D02*
X63570000Y-21540000D01*
X63570000Y-21540000D02*
X63570000Y-28660000D01*
X63570000Y-28660000D02*
X52570000Y-28660000D01*
X52570000Y-28660000D02*
X52570000Y-21540000D01*
X43670000Y-30510000D02*
X43170000Y-32510000D01*
X65670000Y-32510000D02*
X65670000Y-30510000D01*
X26950000Y-19070000D02*
X37720000Y-19070000D01*
X37720000Y-19070000D02*
X37720000Y-26090000D01*
X37720000Y-26090000D02*
X26950000Y-26090000D01*
X26950000Y-26090000D02*
X26950000Y-19070000D01*
X75920000Y-32510000D02*
X75920000Y-30510000D01*
D11*
X62791428Y-18105714D02*
X62720000Y-18177142D01*
X62791428Y-18248571D01*
X62862857Y-18177142D01*
X62791428Y-18105714D01*
X62791428Y-18248571D01*
X61934285Y-17748571D02*
X61791428Y-17748571D01*
X61648571Y-17891428D01*
X61648571Y-18034285D01*
X61791428Y-18177142D01*
X61934285Y-18177142D01*
X62077142Y-18034285D01*
X62077142Y-17891428D01*
X61934285Y-17748571D01*
X60505714Y-18105714D02*
X60434285Y-18177142D01*
X60505714Y-18248571D01*
X60577142Y-18177142D01*
X60505714Y-18105714D01*
X60505714Y-18248571D01*
X59791428Y-18105714D02*
X59719999Y-18177142D01*
X59791428Y-18248571D01*
X59862857Y-18177142D01*
X59791428Y-18105714D01*
X59791428Y-18248571D01*
X59791428Y-17320000D02*
X59719999Y-17391428D01*
X59791428Y-17462857D01*
X59862857Y-17391428D01*
X59791428Y-17320000D01*
X59791428Y-17462857D01*
X58862857Y-16748571D02*
X58862857Y-17105714D01*
X59219999Y-16962857D02*
X58862857Y-17105714D01*
X58505714Y-16962857D01*
X59077142Y-17391428D02*
X58862857Y-17105714D01*
X58648571Y-17391428D01*
X57577142Y-17462857D02*
X57434285Y-17462857D01*
X57362857Y-17534285D01*
X57362857Y-17677142D01*
X57434285Y-17748571D01*
X57577142Y-17748571D01*
X57648571Y-17677142D01*
X57648571Y-17534285D01*
X57577142Y-17462857D01*
X56148571Y-16748571D02*
X56291428Y-16820000D01*
X56362857Y-16962857D01*
X56291428Y-17105714D01*
X56148571Y-17177142D01*
X56005714Y-17105714D01*
X55934285Y-16962857D01*
X56005714Y-16820000D01*
X56148571Y-16748571D01*
X55219999Y-18105714D02*
X55148571Y-18177142D01*
X55219999Y-18248571D01*
X55291428Y-18177142D01*
X55219999Y-18105714D01*
X55219999Y-18248571D01*
X54362857Y-17748571D02*
X54219999Y-17748571D01*
X54077142Y-17891428D01*
X54077142Y-18034285D01*
X54219999Y-18177142D01*
X54362857Y-18177142D01*
X54505714Y-18034285D01*
X54505714Y-17891428D01*
X54362857Y-17748571D01*
X52934285Y-18105714D02*
X52862857Y-18177142D01*
X52934285Y-18248571D01*
X53005714Y-18177142D01*
X52934285Y-18105714D01*
X52934285Y-18248571D01*
X52219999Y-18105714D02*
X52148571Y-18177142D01*
X52219999Y-18248571D01*
X52291428Y-18177142D01*
X52219999Y-18105714D01*
X52219999Y-18248571D01*
X52219999Y-17320000D02*
X52148571Y-17391428D01*
X52219999Y-17462857D01*
X52291428Y-17391428D01*
X52219999Y-17320000D01*
X52219999Y-17462857D01*
X51291428Y-16748571D02*
X51291428Y-17105714D01*
X51648571Y-16962857D02*
X51291428Y-17105714D01*
X50934285Y-16962857D01*
X51505714Y-17391428D02*
X51291428Y-17105714D01*
X51077142Y-17391428D01*
X50005714Y-17462857D02*
X49862857Y-17462857D01*
X49791428Y-17534285D01*
X49791428Y-17677142D01*
X49862857Y-17748571D01*
X50005714Y-17748571D01*
X50077142Y-17677142D01*
X50077142Y-17534285D01*
X50005714Y-17462857D01*
X48577142Y-16748571D02*
X48719999Y-16820000D01*
X48791428Y-16962857D01*
X48719999Y-17105714D01*
X48577142Y-17177142D01*
X48434285Y-17105714D01*
X48362857Y-16962857D01*
X48434285Y-16820000D01*
X48577142Y-16748571D01*
X47648571Y-18105714D02*
X47577142Y-18177142D01*
X47648571Y-18248571D01*
X47719999Y-18177142D01*
X47648571Y-18105714D01*
X47648571Y-18248571D01*
X46791428Y-17748571D02*
X46648571Y-17748571D01*
X46505714Y-17891428D01*
X46505714Y-18034285D01*
X46648571Y-18177142D01*
X46791428Y-18177142D01*
X46934285Y-18034285D01*
X46934285Y-17891428D01*
X46791428Y-17748571D01*
X45362857Y-18105714D02*
X45291428Y-18177142D01*
X45362857Y-18248571D01*
X45434285Y-18177142D01*
X45362857Y-18105714D01*
X45362857Y-18248571D01*
X44648571Y-18105714D02*
X44577142Y-18177142D01*
X44648571Y-18248571D01*
X44720000Y-18177142D01*
X44648571Y-18105714D01*
X44648571Y-18248571D01*
X44648571Y-17320000D02*
X44577142Y-17391428D01*
X44648571Y-17462857D01*
X44720000Y-17391428D01*
X44648571Y-17320000D01*
X44648571Y-17462857D01*
X43720000Y-16748571D02*
X43720000Y-17105714D01*
X44077142Y-16962857D02*
X43720000Y-17105714D01*
X43362857Y-16962857D01*
X43934285Y-17391428D02*
X43720000Y-17105714D01*
X43505714Y-17391428D01*
X42434285Y-17462857D02*
X42291428Y-17462857D01*
X42220000Y-17534285D01*
X42220000Y-17677142D01*
X42291428Y-17748571D01*
X42434285Y-17748571D01*
X42505714Y-17677142D01*
X42505714Y-17534285D01*
X42434285Y-17462857D01*
X41005714Y-16748571D02*
X41148571Y-16820000D01*
X41220000Y-16962857D01*
X41148571Y-17105714D01*
X41005714Y-17177142D01*
X40862857Y-17105714D01*
X40791428Y-16962857D01*
X40862857Y-16820000D01*
X41005714Y-16748571D01*
X40077142Y-18105714D02*
X40005714Y-18177142D01*
X40077142Y-18248571D01*
X40148571Y-18177142D01*
X40077142Y-18105714D01*
X40077142Y-18248571D01*
X39220000Y-17748571D02*
X39077142Y-17748571D01*
X38934285Y-17891428D01*
X38934285Y-18034285D01*
X39077142Y-18177142D01*
X39220000Y-18177142D01*
X39362857Y-18034285D01*
X39362857Y-17891428D01*
X39220000Y-17748571D01*
X37791428Y-18105714D02*
X37720000Y-18177142D01*
X37791428Y-18248571D01*
X37862857Y-18177142D01*
X37791428Y-18105714D01*
X37791428Y-18248571D01*
X37077142Y-18105714D02*
X37005714Y-18177142D01*
X37077142Y-18248571D01*
X37148571Y-18177142D01*
X37077142Y-18105714D01*
X37077142Y-18248571D01*
X37077142Y-17320000D02*
X37005714Y-17391428D01*
X37077142Y-17462857D01*
X37148571Y-17391428D01*
X37077142Y-17320000D01*
X37077142Y-17462857D01*
X36148571Y-16748571D02*
X36148571Y-17105714D01*
X36505714Y-16962857D02*
X36148571Y-17105714D01*
X35791428Y-16962857D01*
X36362857Y-17391428D02*
X36148571Y-17105714D01*
X35934285Y-17391428D01*
X34862857Y-17462857D02*
X34720000Y-17462857D01*
X34648571Y-17534285D01*
X34648571Y-17677142D01*
X34720000Y-17748571D01*
X34862857Y-17748571D01*
X34934285Y-17677142D01*
X34934285Y-17534285D01*
X34862857Y-17462857D01*
X33434285Y-16748571D02*
X33577142Y-16820000D01*
X33648571Y-16962857D01*
X33577142Y-17105714D01*
X33434285Y-17177142D01*
X33291428Y-17105714D01*
X33220000Y-16962857D01*
X33291428Y-16820000D01*
X33434285Y-16748571D01*
X32505714Y-18105714D02*
X32434285Y-18177142D01*
X32505714Y-18248571D01*
X32577142Y-18177142D01*
X32505714Y-18105714D01*
X32505714Y-18248571D01*
X31648571Y-17748571D02*
X31505714Y-17748571D01*
X31362857Y-17891428D01*
X31362857Y-18034285D01*
X31505714Y-18177142D01*
X31648571Y-18177142D01*
X31791428Y-18034285D01*
X31791428Y-17891428D01*
X31648571Y-17748571D01*
X30220000Y-18105714D02*
X30148571Y-18177142D01*
X30220000Y-18248571D01*
X30291428Y-18177142D01*
X30220000Y-18105714D01*
X30220000Y-18248571D01*
X29505714Y-18105714D02*
X29434285Y-18177142D01*
X29505714Y-18248571D01*
X29577142Y-18177142D01*
X29505714Y-18105714D01*
X29505714Y-18248571D01*
X29505714Y-17320000D02*
X29434285Y-17391428D01*
X29505714Y-17462857D01*
X29577142Y-17391428D01*
X29505714Y-17320000D01*
X29505714Y-17462857D01*
X28577142Y-16748571D02*
X28577142Y-17105714D01*
X28934285Y-16962857D02*
X28577142Y-17105714D01*
X28220000Y-16962857D01*
X28791428Y-17391428D02*
X28577142Y-17105714D01*
X28362857Y-17391428D01*
X27291428Y-17462857D02*
X27148571Y-17462857D01*
X27077142Y-17534285D01*
X27077142Y-17677142D01*
X27148571Y-17748571D01*
X27291428Y-17748571D01*
X27362857Y-17677142D01*
X27362857Y-17534285D01*
X27291428Y-17462857D01*
X25862857Y-16748571D02*
X26005714Y-16820000D01*
X26077142Y-16962857D01*
X26005714Y-17105714D01*
X25862857Y-17177142D01*
X25720000Y-17105714D01*
X25648571Y-16962857D01*
X25720000Y-16820000D01*
X25862857Y-16748571D01*
D10*
X76110476Y-29212380D02*
X76586666Y-29212380D01*
X76634285Y-29688571D01*
X76586666Y-29640952D01*
X76491428Y-29593333D01*
X76253333Y-29593333D01*
X76158095Y-29640952D01*
X76110476Y-29688571D01*
X76062857Y-29783809D01*
X76062857Y-30021904D01*
X76110476Y-30117142D01*
X76158095Y-30164761D01*
X76253333Y-30212380D01*
X76491428Y-30212380D01*
X76586666Y-30164761D01*
X76634285Y-30117142D01*
X75777142Y-29212380D02*
X75443809Y-30212380D01*
X75110476Y-29212380D01*
X74432214Y-22632380D02*
X74622690Y-22632380D01*
X74717929Y-22680000D01*
X74765548Y-22727619D01*
X74860786Y-22870476D01*
X74908405Y-23060952D01*
X74908405Y-23441904D01*
X74860786Y-23537142D01*
X74813167Y-23584761D01*
X74717929Y-23632380D01*
X74527452Y-23632380D01*
X74432214Y-23584761D01*
X74384595Y-23537142D01*
X74336976Y-23441904D01*
X74336976Y-23203809D01*
X74384595Y-23108571D01*
X74432214Y-23060952D01*
X74527452Y-23013333D01*
X74717929Y-23013333D01*
X74813167Y-23060952D01*
X74860786Y-23108571D01*
X74908405Y-23203809D01*
X73194119Y-22584761D02*
X74051262Y-23870476D01*
X72908405Y-22727619D02*
X72860786Y-22680000D01*
X72765548Y-22632380D01*
X72527452Y-22632380D01*
X72432214Y-22680000D01*
X72384595Y-22727619D01*
X72336976Y-22822857D01*
X72336976Y-22918095D01*
X72384595Y-23060952D01*
X72956024Y-23632380D01*
X72336976Y-23632380D01*
X71860786Y-23632380D02*
X71670309Y-23632380D01*
X71575071Y-23584761D01*
X71527452Y-23537142D01*
X71432214Y-23394285D01*
X71384595Y-23203809D01*
X71384595Y-22822857D01*
X71432214Y-22727619D01*
X71479833Y-22680000D01*
X71575071Y-22632380D01*
X71765548Y-22632380D01*
X71860786Y-22680000D01*
X71908405Y-22727619D01*
X71956024Y-22822857D01*
X71956024Y-23060952D01*
X71908405Y-23156190D01*
X71860786Y-23203809D01*
X71765548Y-23251428D01*
X71575071Y-23251428D01*
X71479833Y-23203809D01*
X71432214Y-23156190D01*
X71384595Y-23060952D01*
X70241738Y-22584761D02*
X71098881Y-23870476D01*
X69956024Y-22727619D02*
X69908405Y-22680000D01*
X69813167Y-22632380D01*
X69575071Y-22632380D01*
X69479833Y-22680000D01*
X69432214Y-22727619D01*
X69384595Y-22822857D01*
X69384595Y-22918095D01*
X69432214Y-23060952D01*
X70003643Y-23632380D01*
X69384595Y-23632380D01*
X68765548Y-22632380D02*
X68670309Y-22632380D01*
X68575071Y-22680000D01*
X68527452Y-22727619D01*
X68479833Y-22822857D01*
X68432214Y-23013333D01*
X68432214Y-23251428D01*
X68479833Y-23441904D01*
X68527452Y-23537142D01*
X68575071Y-23584761D01*
X68670309Y-23632380D01*
X68765548Y-23632380D01*
X68860786Y-23584761D01*
X68908405Y-23537142D01*
X68956024Y-23441904D01*
X69003643Y-23251428D01*
X69003643Y-23013333D01*
X68956024Y-22822857D01*
X68908405Y-22727619D01*
X68860786Y-22680000D01*
X68765548Y-22632380D01*
X68051262Y-22727619D02*
X68003643Y-22680000D01*
X67908405Y-22632380D01*
X67670309Y-22632380D01*
X67575071Y-22680000D01*
X67527452Y-22727619D01*
X67479833Y-22822857D01*
X67479833Y-22918095D01*
X67527452Y-23060952D01*
X68098881Y-23632380D01*
X67479833Y-23632380D01*
X67098881Y-22727619D02*
X67051262Y-22680000D01*
X66956024Y-22632380D01*
X66717929Y-22632380D01*
X66622690Y-22680000D01*
X66575071Y-22727619D01*
X66527452Y-22822857D01*
X66527452Y-22918095D01*
X66575071Y-23060952D01*
X67146500Y-23632380D01*
X66527452Y-23632380D01*
X66908095Y-29212380D02*
X66289047Y-29212380D01*
X66622380Y-29593333D01*
X66479523Y-29593333D01*
X66384285Y-29640952D01*
X66336666Y-29688571D01*
X66289047Y-29783809D01*
X66289047Y-30021904D01*
X66336666Y-30117142D01*
X66384285Y-30164761D01*
X66479523Y-30212380D01*
X66765238Y-30212380D01*
X66860476Y-30164761D01*
X66908095Y-30117142D01*
X66003333Y-29212380D02*
X65670000Y-30212380D01*
X65336666Y-29212380D01*
X65098571Y-29212380D02*
X64479523Y-29212380D01*
X64812857Y-29593333D01*
X64670000Y-29593333D01*
X64574761Y-29640952D01*
X64527142Y-29688571D01*
X64479523Y-29783809D01*
X64479523Y-30021904D01*
X64527142Y-30117142D01*
X64574761Y-30164761D01*
X64670000Y-30212380D01*
X64955714Y-30212380D01*
X65050952Y-30164761D01*
X65098571Y-30117142D01*
X36565833Y-20509761D02*
X36661071Y-20557380D01*
X36851547Y-20557380D01*
X36946785Y-20509761D01*
X36994404Y-20462142D01*
X37042023Y-20366904D01*
X37042023Y-20081190D01*
X36994404Y-19985952D01*
X36946785Y-19938333D01*
X36851547Y-19890714D01*
X36661071Y-19890714D01*
X36565833Y-19938333D01*
X35994404Y-20557380D02*
X36089642Y-20509761D01*
X36137261Y-20414523D01*
X36137261Y-19557380D01*
X35613452Y-20557380D02*
X35613452Y-19557380D01*
X35518214Y-20176428D02*
X35232500Y-20557380D01*
X35232500Y-19890714D02*
X35613452Y-20271666D01*
X35042023Y-20652619D02*
X34280119Y-20652619D01*
X34137261Y-19557380D02*
X33518214Y-19557380D01*
X33851547Y-19938333D01*
X33708690Y-19938333D01*
X33613452Y-19985952D01*
X33565833Y-20033571D01*
X33518214Y-20128809D01*
X33518214Y-20366904D01*
X33565833Y-20462142D01*
X33613452Y-20509761D01*
X33708690Y-20557380D01*
X33994404Y-20557380D01*
X34089642Y-20509761D01*
X34137261Y-20462142D01*
X32327738Y-20033571D02*
X31565833Y-20033571D01*
X31565833Y-20319285D02*
X32327738Y-20319285D01*
X30661071Y-19890714D02*
X30661071Y-20700238D01*
X30708690Y-20795476D01*
X30756309Y-20843095D01*
X30851547Y-20890714D01*
X30994404Y-20890714D01*
X31089642Y-20843095D01*
X30661071Y-20509761D02*
X30756309Y-20557380D01*
X30946785Y-20557380D01*
X31042023Y-20509761D01*
X31089642Y-20462142D01*
X31137261Y-20366904D01*
X31137261Y-20081190D01*
X31089642Y-19985952D01*
X31042023Y-19938333D01*
X30946785Y-19890714D01*
X30756309Y-19890714D01*
X30661071Y-19938333D01*
X30184880Y-19890714D02*
X30184880Y-20890714D01*
X30184880Y-19938333D02*
X30089642Y-19890714D01*
X29899166Y-19890714D01*
X29803928Y-19938333D01*
X29756309Y-19985952D01*
X29708690Y-20081190D01*
X29708690Y-20366904D01*
X29756309Y-20462142D01*
X29803928Y-20509761D01*
X29899166Y-20557380D01*
X30089642Y-20557380D01*
X30184880Y-20509761D01*
X28756309Y-20557380D02*
X29327738Y-20557380D01*
X29042023Y-20557380D02*
X29042023Y-19557380D01*
X29137261Y-19700238D01*
X29232500Y-19795476D01*
X29327738Y-19843095D01*
X27803928Y-20557380D02*
X28375357Y-20557380D01*
X28089642Y-20557380D02*
X28089642Y-19557380D01*
X28184880Y-19700238D01*
X28280119Y-19795476D01*
X28375357Y-19843095D01*
X36565833Y-22167380D02*
X36565833Y-21167380D01*
X36565833Y-22119761D02*
X36661071Y-22167380D01*
X36851547Y-22167380D01*
X36946785Y-22119761D01*
X36994404Y-22072142D01*
X37042023Y-21976904D01*
X37042023Y-21691190D01*
X36994404Y-21595952D01*
X36946785Y-21548333D01*
X36851547Y-21500714D01*
X36661071Y-21500714D01*
X36565833Y-21548333D01*
X35661071Y-22167380D02*
X35661071Y-21643571D01*
X35708690Y-21548333D01*
X35803928Y-21500714D01*
X35994404Y-21500714D01*
X36089642Y-21548333D01*
X35661071Y-22119761D02*
X35756309Y-22167380D01*
X35994404Y-22167380D01*
X36089642Y-22119761D01*
X36137261Y-22024523D01*
X36137261Y-21929285D01*
X36089642Y-21834047D01*
X35994404Y-21786428D01*
X35756309Y-21786428D01*
X35661071Y-21738809D01*
X35327738Y-21500714D02*
X34946785Y-21500714D01*
X35184880Y-21167380D02*
X35184880Y-22024523D01*
X35137261Y-22119761D01*
X35042023Y-22167380D01*
X34946785Y-22167380D01*
X34184880Y-22167380D02*
X34184880Y-21643571D01*
X34232500Y-21548333D01*
X34327738Y-21500714D01*
X34518214Y-21500714D01*
X34613452Y-21548333D01*
X34184880Y-22119761D02*
X34280119Y-22167380D01*
X34518214Y-22167380D01*
X34613452Y-22119761D01*
X34661071Y-22024523D01*
X34661071Y-21929285D01*
X34613452Y-21834047D01*
X34518214Y-21786428D01*
X34280119Y-21786428D01*
X34184880Y-21738809D01*
X33946785Y-22262619D02*
X33184880Y-22262619D01*
X33042023Y-21167380D02*
X32422976Y-21167380D01*
X32756309Y-21548333D01*
X32613452Y-21548333D01*
X32518214Y-21595952D01*
X32470595Y-21643571D01*
X32422976Y-21738809D01*
X32422976Y-21976904D01*
X32470595Y-22072142D01*
X32518214Y-22119761D01*
X32613452Y-22167380D01*
X32899166Y-22167380D01*
X32994404Y-22119761D01*
X33042023Y-22072142D01*
X31994404Y-21643571D02*
X31232500Y-21643571D01*
X31232500Y-21929285D02*
X31994404Y-21929285D01*
X30327738Y-21500714D02*
X30327738Y-22310238D01*
X30375357Y-22405476D01*
X30422976Y-22453095D01*
X30518214Y-22500714D01*
X30661071Y-22500714D01*
X30756309Y-22453095D01*
X30327738Y-22119761D02*
X30422976Y-22167380D01*
X30613452Y-22167380D01*
X30708690Y-22119761D01*
X30756309Y-22072142D01*
X30803928Y-21976904D01*
X30803928Y-21691190D01*
X30756309Y-21595952D01*
X30708690Y-21548333D01*
X30613452Y-21500714D01*
X30422976Y-21500714D01*
X30327738Y-21548333D01*
X29851547Y-21500714D02*
X29851547Y-22500714D01*
X29851547Y-21548333D02*
X29756309Y-21500714D01*
X29565833Y-21500714D01*
X29470595Y-21548333D01*
X29422976Y-21595952D01*
X29375357Y-21691190D01*
X29375357Y-21976904D01*
X29422976Y-22072142D01*
X29470595Y-22119761D01*
X29565833Y-22167380D01*
X29756309Y-22167380D01*
X29851547Y-22119761D01*
X28422976Y-22167380D02*
X28994404Y-22167380D01*
X28708690Y-22167380D02*
X28708690Y-21167380D01*
X28803928Y-21310238D01*
X28899166Y-21405476D01*
X28994404Y-21453095D01*
X27803928Y-21167380D02*
X27708690Y-21167380D01*
X27613452Y-21215000D01*
X27565833Y-21262619D01*
X27518214Y-21357857D01*
X27470595Y-21548333D01*
X27470595Y-21786428D01*
X27518214Y-21976904D01*
X27565833Y-22072142D01*
X27613452Y-22119761D01*
X27708690Y-22167380D01*
X27803928Y-22167380D01*
X27899166Y-22119761D01*
X27946785Y-22072142D01*
X27994404Y-21976904D01*
X28042023Y-21786428D01*
X28042023Y-21548333D01*
X27994404Y-21357857D01*
X27946785Y-21262619D01*
X27899166Y-21215000D01*
X27803928Y-21167380D01*
X36565833Y-23729761D02*
X36661071Y-23777380D01*
X36851547Y-23777380D01*
X36946785Y-23729761D01*
X36994404Y-23682142D01*
X37042023Y-23586904D01*
X37042023Y-23301190D01*
X36994404Y-23205952D01*
X36946785Y-23158333D01*
X36851547Y-23110714D01*
X36661071Y-23110714D01*
X36565833Y-23158333D01*
X35994404Y-23777380D02*
X36089642Y-23729761D01*
X36137261Y-23634523D01*
X36137261Y-22777380D01*
X35613452Y-23777380D02*
X35613452Y-22777380D01*
X35518214Y-23396428D02*
X35232500Y-23777380D01*
X35232500Y-23110714D02*
X35613452Y-23491666D01*
X35042023Y-23872619D02*
X34280119Y-23872619D01*
X33613452Y-23110714D02*
X33613452Y-23777380D01*
X33851547Y-22729761D02*
X34089642Y-23444047D01*
X33470595Y-23444047D01*
X32327738Y-23253571D02*
X31565833Y-23253571D01*
X31565833Y-23539285D02*
X32327738Y-23539285D01*
X30661071Y-23110714D02*
X30661071Y-23920238D01*
X30708690Y-24015476D01*
X30756309Y-24063095D01*
X30851547Y-24110714D01*
X30994404Y-24110714D01*
X31089642Y-24063095D01*
X30661071Y-23729761D02*
X30756309Y-23777380D01*
X30946785Y-23777380D01*
X31042023Y-23729761D01*
X31089642Y-23682142D01*
X31137261Y-23586904D01*
X31137261Y-23301190D01*
X31089642Y-23205952D01*
X31042023Y-23158333D01*
X30946785Y-23110714D01*
X30756309Y-23110714D01*
X30661071Y-23158333D01*
X30184880Y-23110714D02*
X30184880Y-24110714D01*
X30184880Y-23158333D02*
X30089642Y-23110714D01*
X29899166Y-23110714D01*
X29803928Y-23158333D01*
X29756309Y-23205952D01*
X29708690Y-23301190D01*
X29708690Y-23586904D01*
X29756309Y-23682142D01*
X29803928Y-23729761D01*
X29899166Y-23777380D01*
X30089642Y-23777380D01*
X30184880Y-23729761D01*
X28756309Y-23777380D02*
X29327738Y-23777380D01*
X29042023Y-23777380D02*
X29042023Y-22777380D01*
X29137261Y-22920238D01*
X29232500Y-23015476D01*
X29327738Y-23063095D01*
X28422976Y-22777380D02*
X27803928Y-22777380D01*
X28137261Y-23158333D01*
X27994404Y-23158333D01*
X27899166Y-23205952D01*
X27851547Y-23253571D01*
X27803928Y-23348809D01*
X27803928Y-23586904D01*
X27851547Y-23682142D01*
X27899166Y-23729761D01*
X27994404Y-23777380D01*
X28280119Y-23777380D01*
X28375357Y-23729761D01*
X28422976Y-23682142D01*
X36565833Y-25387380D02*
X36565833Y-24387380D01*
X36565833Y-25339761D02*
X36661071Y-25387380D01*
X36851547Y-25387380D01*
X36946785Y-25339761D01*
X36994404Y-25292142D01*
X37042023Y-25196904D01*
X37042023Y-24911190D01*
X36994404Y-24815952D01*
X36946785Y-24768333D01*
X36851547Y-24720714D01*
X36661071Y-24720714D01*
X36565833Y-24768333D01*
X35661071Y-25387380D02*
X35661071Y-24863571D01*
X35708690Y-24768333D01*
X35803928Y-24720714D01*
X35994404Y-24720714D01*
X36089642Y-24768333D01*
X35661071Y-25339761D02*
X35756309Y-25387380D01*
X35994404Y-25387380D01*
X36089642Y-25339761D01*
X36137261Y-25244523D01*
X36137261Y-25149285D01*
X36089642Y-25054047D01*
X35994404Y-25006428D01*
X35756309Y-25006428D01*
X35661071Y-24958809D01*
X35327738Y-24720714D02*
X34946785Y-24720714D01*
X35184880Y-24387380D02*
X35184880Y-25244523D01*
X35137261Y-25339761D01*
X35042023Y-25387380D01*
X34946785Y-25387380D01*
X34184880Y-25387380D02*
X34184880Y-24863571D01*
X34232500Y-24768333D01*
X34327738Y-24720714D01*
X34518214Y-24720714D01*
X34613452Y-24768333D01*
X34184880Y-25339761D02*
X34280119Y-25387380D01*
X34518214Y-25387380D01*
X34613452Y-25339761D01*
X34661071Y-25244523D01*
X34661071Y-25149285D01*
X34613452Y-25054047D01*
X34518214Y-25006428D01*
X34280119Y-25006428D01*
X34184880Y-24958809D01*
X33946785Y-25482619D02*
X33184880Y-25482619D01*
X32518214Y-24720714D02*
X32518214Y-25387380D01*
X32756309Y-24339761D02*
X32994404Y-25054047D01*
X32375357Y-25054047D01*
X31994404Y-24863571D02*
X31232500Y-24863571D01*
X31232500Y-25149285D02*
X31994404Y-25149285D01*
X30327738Y-24720714D02*
X30327738Y-25530238D01*
X30375357Y-25625476D01*
X30422976Y-25673095D01*
X30518214Y-25720714D01*
X30661071Y-25720714D01*
X30756309Y-25673095D01*
X30327738Y-25339761D02*
X30422976Y-25387380D01*
X30613452Y-25387380D01*
X30708690Y-25339761D01*
X30756309Y-25292142D01*
X30803928Y-25196904D01*
X30803928Y-24911190D01*
X30756309Y-24815952D01*
X30708690Y-24768333D01*
X30613452Y-24720714D01*
X30422976Y-24720714D01*
X30327738Y-24768333D01*
X29851547Y-24720714D02*
X29851547Y-25720714D01*
X29851547Y-24768333D02*
X29756309Y-24720714D01*
X29565833Y-24720714D01*
X29470595Y-24768333D01*
X29422976Y-24815952D01*
X29375357Y-24911190D01*
X29375357Y-25196904D01*
X29422976Y-25292142D01*
X29470595Y-25339761D01*
X29565833Y-25387380D01*
X29756309Y-25387380D01*
X29851547Y-25339761D01*
X28422976Y-25387380D02*
X28994404Y-25387380D01*
X28708690Y-25387380D02*
X28708690Y-24387380D01*
X28803928Y-24530238D01*
X28899166Y-24625476D01*
X28994404Y-24673095D01*
X28042023Y-24482619D02*
X27994404Y-24435000D01*
X27899166Y-24387380D01*
X27661071Y-24387380D01*
X27565833Y-24435000D01*
X27518214Y-24482619D01*
X27470595Y-24577857D01*
X27470595Y-24673095D01*
X27518214Y-24815952D01*
X28089642Y-25387380D01*
X27470595Y-25387380D01*
X40693809Y-30212380D02*
X40693809Y-29212380D01*
X40312857Y-29212380D01*
X40217619Y-29260000D01*
X40170000Y-29307619D01*
X40122380Y-29402857D01*
X40122380Y-29545714D01*
X40170000Y-29640952D01*
X40217619Y-29688571D01*
X40312857Y-29736190D01*
X40693809Y-29736190D01*
X39693809Y-30212380D02*
X39693809Y-29212380D01*
X39455714Y-29212380D01*
X39312857Y-29260000D01*
X39217619Y-29355238D01*
X39170000Y-29450476D01*
X39122380Y-29640952D01*
X39122380Y-29783809D01*
X39170000Y-29974285D01*
X39217619Y-30069523D01*
X39312857Y-30164761D01*
X39455714Y-30212380D01*
X39693809Y-30212380D01*
X38693809Y-30212380D02*
X38693809Y-29212380D01*
X38360476Y-29926666D01*
X38027142Y-29212380D01*
X38027142Y-30212380D01*
X37789047Y-30307619D02*
X37027142Y-30307619D01*
X36789047Y-30212380D02*
X36789047Y-29212380D01*
X36550952Y-29212380D01*
X36408095Y-29260000D01*
X36312857Y-29355238D01*
X36265238Y-29450476D01*
X36217619Y-29640952D01*
X36217619Y-29783809D01*
X36265238Y-29974285D01*
X36312857Y-30069523D01*
X36408095Y-30164761D01*
X36550952Y-30212380D01*
X36789047Y-30212380D01*
X35836666Y-29926666D02*
X35360476Y-29926666D01*
X35931904Y-30212380D02*
X35598571Y-29212380D01*
X35265238Y-30212380D01*
X35074761Y-29212380D02*
X34503333Y-29212380D01*
X34789047Y-30212380D02*
X34789047Y-29212380D01*
X26589047Y-20177142D02*
X26541428Y-20224761D01*
X26589047Y-20272380D01*
X26636666Y-20224761D01*
X26589047Y-20177142D01*
X26589047Y-20272380D01*
X26589047Y-19653333D02*
X26541428Y-19700952D01*
X26589047Y-19748571D01*
X26636666Y-19700952D01*
X26589047Y-19653333D01*
X26589047Y-19748571D01*
X26255714Y-19367619D02*
X26065238Y-19224761D01*
X25874761Y-19367619D01*
X25636666Y-20653333D02*
X25589047Y-20605714D01*
X25493809Y-20462857D01*
X25446190Y-20367619D01*
X25398571Y-20224761D01*
X25350952Y-19986666D01*
X25350952Y-19796190D01*
X25398571Y-19558095D01*
X25446190Y-19415238D01*
X25493809Y-19320000D01*
X25589047Y-19177142D01*
X25636666Y-19129523D01*
X57662857Y-30252380D02*
X57662857Y-29252380D01*
X57281904Y-29252380D01*
X57186666Y-29300000D01*
X57139047Y-29347619D01*
X57091428Y-29442857D01*
X57091428Y-29585714D01*
X57139047Y-29680952D01*
X57186666Y-29728571D01*
X57281904Y-29776190D01*
X57662857Y-29776190D01*
X56472380Y-29252380D02*
X56281904Y-29252380D01*
X56186666Y-29300000D01*
X56091428Y-29395238D01*
X56043809Y-29585714D01*
X56043809Y-29919047D01*
X56091428Y-30109523D01*
X56186666Y-30204761D01*
X56281904Y-30252380D01*
X56472380Y-30252380D01*
X56567619Y-30204761D01*
X56662857Y-30109523D01*
X56710476Y-29919047D01*
X56710476Y-29585714D01*
X56662857Y-29395238D01*
X56567619Y-29300000D01*
X56472380Y-29252380D01*
X55758095Y-29252380D02*
X55186666Y-29252380D01*
X55472380Y-30252380D02*
X55472380Y-29252380D01*
X54329523Y-30252380D02*
X54900952Y-30252380D01*
X54615238Y-30252380D02*
X54615238Y-29252380D01*
X54710476Y-29395238D01*
X54805714Y-29490476D01*
X54900952Y-29538095D01*
X62864404Y-22550714D02*
X62864404Y-23550714D01*
X62864404Y-22598333D02*
X62769166Y-22550714D01*
X62578690Y-22550714D01*
X62483452Y-22598333D01*
X62435833Y-22645952D01*
X62388214Y-22741190D01*
X62388214Y-23026904D01*
X62435833Y-23122142D01*
X62483452Y-23169761D01*
X62578690Y-23217380D01*
X62769166Y-23217380D01*
X62864404Y-23169761D01*
X61816785Y-23217380D02*
X61912023Y-23169761D01*
X61959642Y-23122142D01*
X62007261Y-23026904D01*
X62007261Y-22741190D01*
X61959642Y-22645952D01*
X61912023Y-22598333D01*
X61816785Y-22550714D01*
X61673928Y-22550714D01*
X61578690Y-22598333D01*
X61531071Y-22645952D01*
X61483452Y-22741190D01*
X61483452Y-23026904D01*
X61531071Y-23122142D01*
X61578690Y-23169761D01*
X61673928Y-23217380D01*
X61816785Y-23217380D01*
X61197738Y-22550714D02*
X60816785Y-22550714D01*
X61054880Y-22217380D02*
X61054880Y-23074523D01*
X61007261Y-23169761D01*
X60912023Y-23217380D01*
X60816785Y-23217380D01*
X60721547Y-23312619D02*
X59959642Y-23312619D01*
X59197738Y-23217380D02*
X59769166Y-23217380D01*
X59483452Y-23217380D02*
X59483452Y-22217380D01*
X59578690Y-22360238D01*
X59673928Y-22455476D01*
X59769166Y-22503095D01*
X58007261Y-22693571D02*
X57245357Y-22693571D01*
X57245357Y-22979285D02*
X58007261Y-22979285D01*
X56340595Y-22550714D02*
X56340595Y-23360238D01*
X56388214Y-23455476D01*
X56435833Y-23503095D01*
X56531071Y-23550714D01*
X56673928Y-23550714D01*
X56769166Y-23503095D01*
X56340595Y-23169761D02*
X56435833Y-23217380D01*
X56626309Y-23217380D01*
X56721547Y-23169761D01*
X56769166Y-23122142D01*
X56816785Y-23026904D01*
X56816785Y-22741190D01*
X56769166Y-22645952D01*
X56721547Y-22598333D01*
X56626309Y-22550714D01*
X56435833Y-22550714D01*
X56340595Y-22598333D01*
X55864404Y-22550714D02*
X55864404Y-23550714D01*
X55864404Y-22598333D02*
X55769166Y-22550714D01*
X55578690Y-22550714D01*
X55483452Y-22598333D01*
X55435833Y-22645952D01*
X55388214Y-22741190D01*
X55388214Y-23026904D01*
X55435833Y-23122142D01*
X55483452Y-23169761D01*
X55578690Y-23217380D01*
X55769166Y-23217380D01*
X55864404Y-23169761D01*
X55007261Y-22312619D02*
X54959642Y-22265000D01*
X54864404Y-22217380D01*
X54626309Y-22217380D01*
X54531071Y-22265000D01*
X54483452Y-22312619D01*
X54435833Y-22407857D01*
X54435833Y-22503095D01*
X54483452Y-22645952D01*
X55054880Y-23217380D01*
X54435833Y-23217380D01*
X54102500Y-22217380D02*
X53435833Y-22217380D01*
X53864404Y-23217380D01*
X62864404Y-24160714D02*
X62864404Y-25160714D01*
X62864404Y-24208333D02*
X62769166Y-24160714D01*
X62578690Y-24160714D01*
X62483452Y-24208333D01*
X62435833Y-24255952D01*
X62388214Y-24351190D01*
X62388214Y-24636904D01*
X62435833Y-24732142D01*
X62483452Y-24779761D01*
X62578690Y-24827380D01*
X62769166Y-24827380D01*
X62864404Y-24779761D01*
X61816785Y-24827380D02*
X61912023Y-24779761D01*
X61959642Y-24732142D01*
X62007261Y-24636904D01*
X62007261Y-24351190D01*
X61959642Y-24255952D01*
X61912023Y-24208333D01*
X61816785Y-24160714D01*
X61673928Y-24160714D01*
X61578690Y-24208333D01*
X61531071Y-24255952D01*
X61483452Y-24351190D01*
X61483452Y-24636904D01*
X61531071Y-24732142D01*
X61578690Y-24779761D01*
X61673928Y-24827380D01*
X61816785Y-24827380D01*
X61197738Y-24160714D02*
X60816785Y-24160714D01*
X61054880Y-23827380D02*
X61054880Y-24684523D01*
X61007261Y-24779761D01*
X60912023Y-24827380D01*
X60816785Y-24827380D01*
X60721547Y-24922619D02*
X59959642Y-24922619D01*
X59769166Y-23922619D02*
X59721547Y-23875000D01*
X59626309Y-23827380D01*
X59388214Y-23827380D01*
X59292976Y-23875000D01*
X59245357Y-23922619D01*
X59197738Y-24017857D01*
X59197738Y-24113095D01*
X59245357Y-24255952D01*
X59816785Y-24827380D01*
X59197738Y-24827380D01*
X58007261Y-24303571D02*
X57245357Y-24303571D01*
X57245357Y-24589285D02*
X58007261Y-24589285D01*
X56340595Y-24160714D02*
X56340595Y-24970238D01*
X56388214Y-25065476D01*
X56435833Y-25113095D01*
X56531071Y-25160714D01*
X56673928Y-25160714D01*
X56769166Y-25113095D01*
X56340595Y-24779761D02*
X56435833Y-24827380D01*
X56626309Y-24827380D01*
X56721547Y-24779761D01*
X56769166Y-24732142D01*
X56816785Y-24636904D01*
X56816785Y-24351190D01*
X56769166Y-24255952D01*
X56721547Y-24208333D01*
X56626309Y-24160714D01*
X56435833Y-24160714D01*
X56340595Y-24208333D01*
X55864404Y-24160714D02*
X55864404Y-25160714D01*
X55864404Y-24208333D02*
X55769166Y-24160714D01*
X55578690Y-24160714D01*
X55483452Y-24208333D01*
X55435833Y-24255952D01*
X55388214Y-24351190D01*
X55388214Y-24636904D01*
X55435833Y-24732142D01*
X55483452Y-24779761D01*
X55578690Y-24827380D01*
X55769166Y-24827380D01*
X55864404Y-24779761D01*
X55007261Y-23922619D02*
X54959642Y-23875000D01*
X54864404Y-23827380D01*
X54626309Y-23827380D01*
X54531071Y-23875000D01*
X54483452Y-23922619D01*
X54435833Y-24017857D01*
X54435833Y-24113095D01*
X54483452Y-24255952D01*
X55054880Y-24827380D01*
X54435833Y-24827380D01*
X53578690Y-23827380D02*
X53769166Y-23827380D01*
X53864404Y-23875000D01*
X53912023Y-23922619D01*
X54007261Y-24065476D01*
X54054880Y-24255952D01*
X54054880Y-24636904D01*
X54007261Y-24732142D01*
X53959642Y-24779761D01*
X53864404Y-24827380D01*
X53673928Y-24827380D01*
X53578690Y-24779761D01*
X53531071Y-24732142D01*
X53483452Y-24636904D01*
X53483452Y-24398809D01*
X53531071Y-24303571D01*
X53578690Y-24255952D01*
X53673928Y-24208333D01*
X53864404Y-24208333D01*
X53959642Y-24255952D01*
X54007261Y-24303571D01*
X54054880Y-24398809D01*
X62864404Y-26437380D02*
X62864404Y-25437380D01*
X62864404Y-25818333D02*
X62769166Y-25770714D01*
X62578690Y-25770714D01*
X62483452Y-25818333D01*
X62435833Y-25865952D01*
X62388214Y-25961190D01*
X62388214Y-26246904D01*
X62435833Y-26342142D01*
X62483452Y-26389761D01*
X62578690Y-26437380D01*
X62769166Y-26437380D01*
X62864404Y-26389761D01*
X62102500Y-25770714D02*
X61721547Y-25770714D01*
X61959642Y-25437380D02*
X61959642Y-26294523D01*
X61912023Y-26389761D01*
X61816785Y-26437380D01*
X61721547Y-26437380D01*
X61388214Y-25770714D02*
X61388214Y-26437380D01*
X61388214Y-25865952D02*
X61340595Y-25818333D01*
X61245357Y-25770714D01*
X61102500Y-25770714D01*
X61007261Y-25818333D01*
X60959642Y-25913571D01*
X60959642Y-26437380D01*
X60721547Y-26532619D02*
X59959642Y-26532619D01*
X59197738Y-26437380D02*
X59769166Y-26437380D01*
X59483452Y-26437380D02*
X59483452Y-25437380D01*
X59578690Y-25580238D01*
X59673928Y-25675476D01*
X59769166Y-25723095D01*
X58007261Y-25913571D02*
X57245357Y-25913571D01*
X57245357Y-26199285D02*
X58007261Y-26199285D01*
X56340595Y-25770714D02*
X56340595Y-26580238D01*
X56388214Y-26675476D01*
X56435833Y-26723095D01*
X56531071Y-26770714D01*
X56673928Y-26770714D01*
X56769166Y-26723095D01*
X56340595Y-26389761D02*
X56435833Y-26437380D01*
X56626309Y-26437380D01*
X56721547Y-26389761D01*
X56769166Y-26342142D01*
X56816785Y-26246904D01*
X56816785Y-25961190D01*
X56769166Y-25865952D01*
X56721547Y-25818333D01*
X56626309Y-25770714D01*
X56435833Y-25770714D01*
X56340595Y-25818333D01*
X55864404Y-25770714D02*
X55864404Y-26770714D01*
X55864404Y-25818333D02*
X55769166Y-25770714D01*
X55578690Y-25770714D01*
X55483452Y-25818333D01*
X55435833Y-25865952D01*
X55388214Y-25961190D01*
X55388214Y-26246904D01*
X55435833Y-26342142D01*
X55483452Y-26389761D01*
X55578690Y-26437380D01*
X55769166Y-26437380D01*
X55864404Y-26389761D01*
X54912023Y-26437380D02*
X54721547Y-26437380D01*
X54626309Y-26389761D01*
X54578690Y-26342142D01*
X54483452Y-26199285D01*
X54435833Y-26008809D01*
X54435833Y-25627857D01*
X54483452Y-25532619D01*
X54531071Y-25485000D01*
X54626309Y-25437380D01*
X54816785Y-25437380D01*
X54912023Y-25485000D01*
X54959642Y-25532619D01*
X55007261Y-25627857D01*
X55007261Y-25865952D01*
X54959642Y-25961190D01*
X54912023Y-26008809D01*
X54816785Y-26056428D01*
X54626309Y-26056428D01*
X54531071Y-26008809D01*
X54483452Y-25961190D01*
X54435833Y-25865952D01*
X62864404Y-28047380D02*
X62864404Y-27047380D01*
X62864404Y-27428333D02*
X62769166Y-27380714D01*
X62578690Y-27380714D01*
X62483452Y-27428333D01*
X62435833Y-27475952D01*
X62388214Y-27571190D01*
X62388214Y-27856904D01*
X62435833Y-27952142D01*
X62483452Y-27999761D01*
X62578690Y-28047380D01*
X62769166Y-28047380D01*
X62864404Y-27999761D01*
X62102500Y-27380714D02*
X61721547Y-27380714D01*
X61959642Y-27047380D02*
X61959642Y-27904523D01*
X61912023Y-27999761D01*
X61816785Y-28047380D01*
X61721547Y-28047380D01*
X61388214Y-27380714D02*
X61388214Y-28047380D01*
X61388214Y-27475952D02*
X61340595Y-27428333D01*
X61245357Y-27380714D01*
X61102500Y-27380714D01*
X61007261Y-27428333D01*
X60959642Y-27523571D01*
X60959642Y-28047380D01*
X60721547Y-28142619D02*
X59959642Y-28142619D01*
X59769166Y-27142619D02*
X59721547Y-27095000D01*
X59626309Y-27047380D01*
X59388214Y-27047380D01*
X59292976Y-27095000D01*
X59245357Y-27142619D01*
X59197738Y-27237857D01*
X59197738Y-27333095D01*
X59245357Y-27475952D01*
X59816785Y-28047380D01*
X59197738Y-28047380D01*
X58007261Y-27523571D02*
X57245357Y-27523571D01*
X57245357Y-27809285D02*
X58007261Y-27809285D01*
X56340595Y-27380714D02*
X56340595Y-28190238D01*
X56388214Y-28285476D01*
X56435833Y-28333095D01*
X56531071Y-28380714D01*
X56673928Y-28380714D01*
X56769166Y-28333095D01*
X56340595Y-27999761D02*
X56435833Y-28047380D01*
X56626309Y-28047380D01*
X56721547Y-27999761D01*
X56769166Y-27952142D01*
X56816785Y-27856904D01*
X56816785Y-27571190D01*
X56769166Y-27475952D01*
X56721547Y-27428333D01*
X56626309Y-27380714D01*
X56435833Y-27380714D01*
X56340595Y-27428333D01*
X55864404Y-27380714D02*
X55864404Y-28380714D01*
X55864404Y-27428333D02*
X55769166Y-27380714D01*
X55578690Y-27380714D01*
X55483452Y-27428333D01*
X55435833Y-27475952D01*
X55388214Y-27571190D01*
X55388214Y-27856904D01*
X55435833Y-27952142D01*
X55483452Y-27999761D01*
X55578690Y-28047380D01*
X55769166Y-28047380D01*
X55864404Y-27999761D01*
X54816785Y-27475952D02*
X54912023Y-27428333D01*
X54959642Y-27380714D01*
X55007261Y-27285476D01*
X55007261Y-27237857D01*
X54959642Y-27142619D01*
X54912023Y-27095000D01*
X54816785Y-27047380D01*
X54626309Y-27047380D01*
X54531071Y-27095000D01*
X54483452Y-27142619D01*
X54435833Y-27237857D01*
X54435833Y-27285476D01*
X54483452Y-27380714D01*
X54531071Y-27428333D01*
X54626309Y-27475952D01*
X54816785Y-27475952D01*
X54912023Y-27523571D01*
X54959642Y-27571190D01*
X55007261Y-27666428D01*
X55007261Y-27856904D01*
X54959642Y-27952142D01*
X54912023Y-27999761D01*
X54816785Y-28047380D01*
X54626309Y-28047380D01*
X54531071Y-27999761D01*
X54483452Y-27952142D01*
X54435833Y-27856904D01*
X54435833Y-27666428D01*
X54483452Y-27571190D01*
X54531071Y-27523571D01*
X54626309Y-27475952D01*
D12*
X75898571Y-17626785D02*
X75970000Y-17555357D01*
X76112857Y-17483928D01*
X76255714Y-17483928D01*
X76398571Y-17555357D01*
X76470000Y-17626785D01*
X76541428Y-17769642D01*
X76541428Y-17912500D01*
X76470000Y-18055357D01*
X76398571Y-18126785D01*
X76255714Y-18198214D01*
X76112857Y-18198214D01*
X75970000Y-18126785D01*
X75898571Y-18055357D01*
X75898571Y-17483928D02*
X75898571Y-18055357D01*
X75827142Y-18126785D01*
X75755714Y-18126785D01*
X75612857Y-18055357D01*
X75541428Y-17912500D01*
X75541428Y-17555357D01*
X75684285Y-17341071D01*
X75898571Y-17198214D01*
X76184285Y-17126785D01*
X76470000Y-17198214D01*
X76684285Y-17341071D01*
X76827142Y-17555357D01*
X76898571Y-17841071D01*
X76827142Y-18126785D01*
X76684285Y-18341071D01*
X76470000Y-18483928D01*
X76184285Y-18555357D01*
X75898571Y-18483928D01*
X75684285Y-18341071D01*
X74898571Y-18341071D02*
X74898571Y-16841071D01*
X74041428Y-18341071D02*
X74684285Y-17483928D01*
X74041428Y-16841071D02*
X74898571Y-17698214D01*
X73541428Y-17341071D02*
X73184285Y-18341071D01*
X72827142Y-17341071D02*
X73184285Y-18341071D01*
X73327142Y-18698214D01*
X73398571Y-18769642D01*
X73541428Y-18841071D01*
X72041428Y-18341071D02*
X72184285Y-18269642D01*
X72255714Y-18126785D01*
X72255714Y-16841071D01*
X70827142Y-18341071D02*
X70827142Y-17555357D01*
X70898571Y-17412500D01*
X71041428Y-17341071D01*
X71327142Y-17341071D01*
X71470000Y-17412500D01*
X70827142Y-18269642D02*
X70970000Y-18341071D01*
X71327142Y-18341071D01*
X71470000Y-18269642D01*
X71541428Y-18126785D01*
X71541428Y-17983928D01*
X71470000Y-17841071D01*
X71327142Y-17769642D01*
X70970000Y-17769642D01*
X70827142Y-17698214D01*
X70112857Y-18341071D02*
X70112857Y-17341071D01*
X70112857Y-17626785D02*
X70041428Y-17483928D01*
X69970000Y-17412500D01*
X69827142Y-17341071D01*
X69684285Y-17341071D01*
X68470000Y-18341071D02*
X69184285Y-18341071D01*
X69184285Y-16841071D01*
X67970000Y-17555357D02*
X67470000Y-17555357D01*
X67255714Y-18341071D02*
X67970000Y-18341071D01*
X67970000Y-16841071D01*
X67255714Y-16841071D01*
X66612857Y-18341071D02*
X66612857Y-16841071D01*
X66255714Y-16841071D01*
X66041428Y-16912500D01*
X65898571Y-17055357D01*
X65827142Y-17198214D01*
X65755714Y-17483928D01*
X65755714Y-17698214D01*
X65827142Y-17983928D01*
X65898571Y-18126785D01*
X66041428Y-18269642D01*
X66255714Y-18341071D01*
X66612857Y-18341071D01*
X65184285Y-18269642D02*
X65041428Y-18341071D01*
X64755714Y-18341071D01*
X64612857Y-18269642D01*
X64541428Y-18126785D01*
X64541428Y-18055357D01*
X64612857Y-17912500D01*
X64755714Y-17841071D01*
X64969999Y-17841071D01*
X65112857Y-17769642D01*
X65184285Y-17626785D01*
X65184285Y-17555357D01*
X65112857Y-17412500D01*
X64969999Y-17341071D01*
X64755714Y-17341071D01*
X64612857Y-17412500D01*
X74362857Y-19970357D02*
X74862857Y-19970357D01*
X74862857Y-20756071D02*
X74862857Y-19256071D01*
X74148571Y-19256071D01*
X73577142Y-20756071D02*
X73577142Y-19756071D01*
X73577142Y-19256071D02*
X73648571Y-19327500D01*
X73577142Y-19398928D01*
X73505714Y-19327500D01*
X73577142Y-19256071D01*
X73577142Y-19398928D01*
X72862857Y-20756071D02*
X72862857Y-19756071D01*
X72862857Y-20041785D02*
X72791428Y-19898928D01*
X72720000Y-19827500D01*
X72577142Y-19756071D01*
X72434285Y-19756071D01*
X71362857Y-20684642D02*
X71505714Y-20756071D01*
X71791428Y-20756071D01*
X71934285Y-20684642D01*
X72005714Y-20541785D01*
X72005714Y-19970357D01*
X71934285Y-19827500D01*
X71791428Y-19756071D01*
X71505714Y-19756071D01*
X71362857Y-19827500D01*
X71291428Y-19970357D01*
X71291428Y-20113214D01*
X72005714Y-20256071D01*
X70148571Y-19970357D02*
X70648571Y-19970357D01*
X70648571Y-20756071D02*
X70648571Y-19256071D01*
X69934285Y-19256071D01*
X69148571Y-20756071D02*
X69291428Y-20684642D01*
X69362857Y-20541785D01*
X69362857Y-19256071D01*
X68720000Y-19756071D02*
X68362857Y-20756071D01*
X68005714Y-19756071D02*
X68362857Y-20756071D01*
X68505714Y-21113214D01*
X68577142Y-21184642D01*
X68720000Y-21256071D01*
X67648571Y-19256071D02*
X67148571Y-20756071D01*
X66648571Y-19256071D01*
X65362857Y-20756071D02*
X66220000Y-20756071D01*
X65791428Y-20756071D02*
X65791428Y-19256071D01*
X65934285Y-19470357D01*
X66077142Y-19613214D01*
X66220000Y-19684642D01*
D10*
X49475833Y-23119761D02*
X49571071Y-23167380D01*
X49761547Y-23167380D01*
X49856785Y-23119761D01*
X49904404Y-23072142D01*
X49952023Y-22976904D01*
X49952023Y-22691190D01*
X49904404Y-22595952D01*
X49856785Y-22548333D01*
X49761547Y-22500714D01*
X49571071Y-22500714D01*
X49475833Y-22548333D01*
X48904404Y-23167380D02*
X48999642Y-23119761D01*
X49047261Y-23024523D01*
X49047261Y-22167380D01*
X48523452Y-23167380D02*
X48523452Y-22167380D01*
X48428214Y-22786428D02*
X48142500Y-23167380D01*
X48142500Y-22500714D02*
X48523452Y-22881666D01*
X47952023Y-23262619D02*
X47190119Y-23262619D01*
X46428214Y-23167380D02*
X46999642Y-23167380D01*
X46713928Y-23167380D02*
X46713928Y-22167380D01*
X46809166Y-22310238D01*
X46904404Y-22405476D01*
X46999642Y-22453095D01*
X45237738Y-22643571D02*
X44475833Y-22643571D01*
X44475833Y-22929285D02*
X45237738Y-22929285D01*
X43571071Y-22500714D02*
X43571071Y-23310238D01*
X43618690Y-23405476D01*
X43666309Y-23453095D01*
X43761547Y-23500714D01*
X43904404Y-23500714D01*
X43999642Y-23453095D01*
X43571071Y-23119761D02*
X43666309Y-23167380D01*
X43856785Y-23167380D01*
X43952023Y-23119761D01*
X43999642Y-23072142D01*
X44047261Y-22976904D01*
X44047261Y-22691190D01*
X43999642Y-22595952D01*
X43952023Y-22548333D01*
X43856785Y-22500714D01*
X43666309Y-22500714D01*
X43571071Y-22548333D01*
X43094880Y-22500714D02*
X43094880Y-23500714D01*
X43094880Y-22548333D02*
X42999642Y-22500714D01*
X42809166Y-22500714D01*
X42713928Y-22548333D01*
X42666309Y-22595952D01*
X42618690Y-22691190D01*
X42618690Y-22976904D01*
X42666309Y-23072142D01*
X42713928Y-23119761D01*
X42809166Y-23167380D01*
X42999642Y-23167380D01*
X43094880Y-23119761D01*
X41666309Y-23167380D02*
X42237738Y-23167380D01*
X41952023Y-23167380D02*
X41952023Y-22167380D01*
X42047261Y-22310238D01*
X42142500Y-22405476D01*
X42237738Y-22453095D01*
X41332976Y-22167380D02*
X40666309Y-22167380D01*
X41094880Y-23167380D01*
X49475833Y-24777380D02*
X49475833Y-23777380D01*
X49475833Y-24729761D02*
X49571071Y-24777380D01*
X49761547Y-24777380D01*
X49856785Y-24729761D01*
X49904404Y-24682142D01*
X49952023Y-24586904D01*
X49952023Y-24301190D01*
X49904404Y-24205952D01*
X49856785Y-24158333D01*
X49761547Y-24110714D01*
X49571071Y-24110714D01*
X49475833Y-24158333D01*
X48571071Y-24777380D02*
X48571071Y-24253571D01*
X48618690Y-24158333D01*
X48713928Y-24110714D01*
X48904404Y-24110714D01*
X48999642Y-24158333D01*
X48571071Y-24729761D02*
X48666309Y-24777380D01*
X48904404Y-24777380D01*
X48999642Y-24729761D01*
X49047261Y-24634523D01*
X49047261Y-24539285D01*
X48999642Y-24444047D01*
X48904404Y-24396428D01*
X48666309Y-24396428D01*
X48571071Y-24348809D01*
X48237738Y-24110714D02*
X47856785Y-24110714D01*
X48094880Y-23777380D02*
X48094880Y-24634523D01*
X48047261Y-24729761D01*
X47952023Y-24777380D01*
X47856785Y-24777380D01*
X47094880Y-24777380D02*
X47094880Y-24253571D01*
X47142500Y-24158333D01*
X47237738Y-24110714D01*
X47428214Y-24110714D01*
X47523452Y-24158333D01*
X47094880Y-24729761D02*
X47190119Y-24777380D01*
X47428214Y-24777380D01*
X47523452Y-24729761D01*
X47571071Y-24634523D01*
X47571071Y-24539285D01*
X47523452Y-24444047D01*
X47428214Y-24396428D01*
X47190119Y-24396428D01*
X47094880Y-24348809D01*
X46856785Y-24872619D02*
X46094880Y-24872619D01*
X45332976Y-24777380D02*
X45904404Y-24777380D01*
X45618690Y-24777380D02*
X45618690Y-23777380D01*
X45713928Y-23920238D01*
X45809166Y-24015476D01*
X45904404Y-24063095D01*
X44904404Y-24253571D02*
X44142500Y-24253571D01*
X44142500Y-24539285D02*
X44904404Y-24539285D01*
X43237738Y-24110714D02*
X43237738Y-24920238D01*
X43285357Y-25015476D01*
X43332976Y-25063095D01*
X43428214Y-25110714D01*
X43571071Y-25110714D01*
X43666309Y-25063095D01*
X43237738Y-24729761D02*
X43332976Y-24777380D01*
X43523452Y-24777380D01*
X43618690Y-24729761D01*
X43666309Y-24682142D01*
X43713928Y-24586904D01*
X43713928Y-24301190D01*
X43666309Y-24205952D01*
X43618690Y-24158333D01*
X43523452Y-24110714D01*
X43332976Y-24110714D01*
X43237738Y-24158333D01*
X42761547Y-24110714D02*
X42761547Y-25110714D01*
X42761547Y-24158333D02*
X42666309Y-24110714D01*
X42475833Y-24110714D01*
X42380595Y-24158333D01*
X42332976Y-24205952D01*
X42285357Y-24301190D01*
X42285357Y-24586904D01*
X42332976Y-24682142D01*
X42380595Y-24729761D01*
X42475833Y-24777380D01*
X42666309Y-24777380D01*
X42761547Y-24729761D01*
X41332976Y-24777380D02*
X41904404Y-24777380D01*
X41618690Y-24777380D02*
X41618690Y-23777380D01*
X41713928Y-23920238D01*
X41809166Y-24015476D01*
X41904404Y-24063095D01*
X40475833Y-23777380D02*
X40666309Y-23777380D01*
X40761547Y-23825000D01*
X40809166Y-23872619D01*
X40904404Y-24015476D01*
X40952023Y-24205952D01*
X40952023Y-24586904D01*
X40904404Y-24682142D01*
X40856785Y-24729761D01*
X40761547Y-24777380D01*
X40571071Y-24777380D01*
X40475833Y-24729761D01*
X40428214Y-24682142D01*
X40380595Y-24586904D01*
X40380595Y-24348809D01*
X40428214Y-24253571D01*
X40475833Y-24205952D01*
X40571071Y-24158333D01*
X40761547Y-24158333D01*
X40856785Y-24205952D01*
X40904404Y-24253571D01*
X40952023Y-24348809D01*
X49475833Y-26339761D02*
X49571071Y-26387380D01*
X49761547Y-26387380D01*
X49856785Y-26339761D01*
X49904404Y-26292142D01*
X49952023Y-26196904D01*
X49952023Y-25911190D01*
X49904404Y-25815952D01*
X49856785Y-25768333D01*
X49761547Y-25720714D01*
X49571071Y-25720714D01*
X49475833Y-25768333D01*
X48904404Y-26387380D02*
X48999642Y-26339761D01*
X49047261Y-26244523D01*
X49047261Y-25387380D01*
X48523452Y-26387380D02*
X48523452Y-25387380D01*
X48428214Y-26006428D02*
X48142500Y-26387380D01*
X48142500Y-25720714D02*
X48523452Y-26101666D01*
X47952023Y-26482619D02*
X47190119Y-26482619D01*
X46999642Y-25482619D02*
X46952023Y-25435000D01*
X46856785Y-25387380D01*
X46618690Y-25387380D01*
X46523452Y-25435000D01*
X46475833Y-25482619D01*
X46428214Y-25577857D01*
X46428214Y-25673095D01*
X46475833Y-25815952D01*
X47047261Y-26387380D01*
X46428214Y-26387380D01*
X45237738Y-25863571D02*
X44475833Y-25863571D01*
X44475833Y-26149285D02*
X45237738Y-26149285D01*
X43571071Y-25720714D02*
X43571071Y-26530238D01*
X43618690Y-26625476D01*
X43666309Y-26673095D01*
X43761547Y-26720714D01*
X43904404Y-26720714D01*
X43999642Y-26673095D01*
X43571071Y-26339761D02*
X43666309Y-26387380D01*
X43856785Y-26387380D01*
X43952023Y-26339761D01*
X43999642Y-26292142D01*
X44047261Y-26196904D01*
X44047261Y-25911190D01*
X43999642Y-25815952D01*
X43952023Y-25768333D01*
X43856785Y-25720714D01*
X43666309Y-25720714D01*
X43571071Y-25768333D01*
X43094880Y-25720714D02*
X43094880Y-26720714D01*
X43094880Y-25768333D02*
X42999642Y-25720714D01*
X42809166Y-25720714D01*
X42713928Y-25768333D01*
X42666309Y-25815952D01*
X42618690Y-25911190D01*
X42618690Y-26196904D01*
X42666309Y-26292142D01*
X42713928Y-26339761D01*
X42809166Y-26387380D01*
X42999642Y-26387380D01*
X43094880Y-26339761D01*
X41666309Y-26387380D02*
X42237738Y-26387380D01*
X41952023Y-26387380D02*
X41952023Y-25387380D01*
X42047261Y-25530238D01*
X42142500Y-25625476D01*
X42237738Y-25673095D01*
X41190119Y-26387380D02*
X40999642Y-26387380D01*
X40904404Y-26339761D01*
X40856785Y-26292142D01*
X40761547Y-26149285D01*
X40713928Y-25958809D01*
X40713928Y-25577857D01*
X40761547Y-25482619D01*
X40809166Y-25435000D01*
X40904404Y-25387380D01*
X41094880Y-25387380D01*
X41190119Y-25435000D01*
X41237738Y-25482619D01*
X41285357Y-25577857D01*
X41285357Y-25815952D01*
X41237738Y-25911190D01*
X41190119Y-25958809D01*
X41094880Y-26006428D01*
X40904404Y-26006428D01*
X40809166Y-25958809D01*
X40761547Y-25911190D01*
X40713928Y-25815952D01*
X49475833Y-27997380D02*
X49475833Y-26997380D01*
X49475833Y-27949761D02*
X49571071Y-27997380D01*
X49761547Y-27997380D01*
X49856785Y-27949761D01*
X49904404Y-27902142D01*
X49952023Y-27806904D01*
X49952023Y-27521190D01*
X49904404Y-27425952D01*
X49856785Y-27378333D01*
X49761547Y-27330714D01*
X49571071Y-27330714D01*
X49475833Y-27378333D01*
X48571071Y-27997380D02*
X48571071Y-27473571D01*
X48618690Y-27378333D01*
X48713928Y-27330714D01*
X48904404Y-27330714D01*
X48999642Y-27378333D01*
X48571071Y-27949761D02*
X48666309Y-27997380D01*
X48904404Y-27997380D01*
X48999642Y-27949761D01*
X49047261Y-27854523D01*
X49047261Y-27759285D01*
X48999642Y-27664047D01*
X48904404Y-27616428D01*
X48666309Y-27616428D01*
X48571071Y-27568809D01*
X48237738Y-27330714D02*
X47856785Y-27330714D01*
X48094880Y-26997380D02*
X48094880Y-27854523D01*
X48047261Y-27949761D01*
X47952023Y-27997380D01*
X47856785Y-27997380D01*
X47094880Y-27997380D02*
X47094880Y-27473571D01*
X47142500Y-27378333D01*
X47237738Y-27330714D01*
X47428214Y-27330714D01*
X47523452Y-27378333D01*
X47094880Y-27949761D02*
X47190119Y-27997380D01*
X47428214Y-27997380D01*
X47523452Y-27949761D01*
X47571071Y-27854523D01*
X47571071Y-27759285D01*
X47523452Y-27664047D01*
X47428214Y-27616428D01*
X47190119Y-27616428D01*
X47094880Y-27568809D01*
X46856785Y-28092619D02*
X46094880Y-28092619D01*
X45904404Y-27092619D02*
X45856785Y-27045000D01*
X45761547Y-26997380D01*
X45523452Y-26997380D01*
X45428214Y-27045000D01*
X45380595Y-27092619D01*
X45332976Y-27187857D01*
X45332976Y-27283095D01*
X45380595Y-27425952D01*
X45952023Y-27997380D01*
X45332976Y-27997380D01*
X44904404Y-27473571D02*
X44142500Y-27473571D01*
X44142500Y-27759285D02*
X44904404Y-27759285D01*
X43237738Y-27330714D02*
X43237738Y-28140238D01*
X43285357Y-28235476D01*
X43332976Y-28283095D01*
X43428214Y-28330714D01*
X43571071Y-28330714D01*
X43666309Y-28283095D01*
X43237738Y-27949761D02*
X43332976Y-27997380D01*
X43523452Y-27997380D01*
X43618690Y-27949761D01*
X43666309Y-27902142D01*
X43713928Y-27806904D01*
X43713928Y-27521190D01*
X43666309Y-27425952D01*
X43618690Y-27378333D01*
X43523452Y-27330714D01*
X43332976Y-27330714D01*
X43237738Y-27378333D01*
X42761547Y-27330714D02*
X42761547Y-28330714D01*
X42761547Y-27378333D02*
X42666309Y-27330714D01*
X42475833Y-27330714D01*
X42380595Y-27378333D01*
X42332976Y-27425952D01*
X42285357Y-27521190D01*
X42285357Y-27806904D01*
X42332976Y-27902142D01*
X42380595Y-27949761D01*
X42475833Y-27997380D01*
X42666309Y-27997380D01*
X42761547Y-27949761D01*
X41332976Y-27997380D02*
X41904404Y-27997380D01*
X41618690Y-27997380D02*
X41618690Y-26997380D01*
X41713928Y-27140238D01*
X41809166Y-27235476D01*
X41904404Y-27283095D01*
X40761547Y-27425952D02*
X40856785Y-27378333D01*
X40904404Y-27330714D01*
X40952023Y-27235476D01*
X40952023Y-27187857D01*
X40904404Y-27092619D01*
X40856785Y-27045000D01*
X40761547Y-26997380D01*
X40571071Y-26997380D01*
X40475833Y-27045000D01*
X40428214Y-27092619D01*
X40380595Y-27187857D01*
X40380595Y-27235476D01*
X40428214Y-27330714D01*
X40475833Y-27378333D01*
X40571071Y-27425952D01*
X40761547Y-27425952D01*
X40856785Y-27473571D01*
X40904404Y-27521190D01*
X40952023Y-27616428D01*
X40952023Y-27806904D01*
X40904404Y-27902142D01*
X40856785Y-27949761D01*
X40761547Y-27997380D01*
X40571071Y-27997380D01*
X40475833Y-27949761D01*
X40428214Y-27902142D01*
X40380595Y-27806904D01*
X40380595Y-27616428D01*
X40428214Y-27521190D01*
X40475833Y-27473571D01*
X40571071Y-27425952D01*
X48539047Y-30212380D02*
X48539047Y-29212380D01*
X48158095Y-29212380D01*
X48062857Y-29260000D01*
X48015238Y-29307619D01*
X47967619Y-29402857D01*
X47967619Y-29545714D01*
X48015238Y-29640952D01*
X48062857Y-29688571D01*
X48158095Y-29736190D01*
X48539047Y-29736190D01*
X47539047Y-30212380D02*
X47539047Y-29212380D01*
X47300952Y-29212380D01*
X47158095Y-29260000D01*
X47062857Y-29355238D01*
X47015238Y-29450476D01*
X46967619Y-29640952D01*
X46967619Y-29783809D01*
X47015238Y-29974285D01*
X47062857Y-30069523D01*
X47158095Y-30164761D01*
X47300952Y-30212380D01*
X47539047Y-30212380D01*
X46539047Y-30212380D02*
X46539047Y-29212380D01*
X46205714Y-29926666D01*
X45872380Y-29212380D01*
X45872380Y-30212380D01*
X45634285Y-30307619D02*
X44872380Y-30307619D01*
X44062857Y-30117142D02*
X44110476Y-30164761D01*
X44253333Y-30212380D01*
X44348571Y-30212380D01*
X44491428Y-30164761D01*
X44586666Y-30069523D01*
X44634285Y-29974285D01*
X44681904Y-29783809D01*
X44681904Y-29640952D01*
X44634285Y-29450476D01*
X44586666Y-29355238D01*
X44491428Y-29260000D01*
X44348571Y-29212380D01*
X44253333Y-29212380D01*
X44110476Y-29260000D01*
X44062857Y-29307619D01*
X43158095Y-30212380D02*
X43634285Y-30212380D01*
X43634285Y-29212380D01*
X42824761Y-30212380D02*
X42824761Y-29212380D01*
X42253333Y-30212380D02*
X42681904Y-29640952D01*
X42253333Y-29212380D02*
X42824761Y-29783809D01*
%LPC*%
D13*
X60710000Y-16060000D03*
X55630000Y-16060000D03*
X53090000Y-16060000D03*
X50550000Y-16060000D03*
X48010000Y-16060000D03*
X40390000Y-33800000D03*
X42930000Y-33840000D03*
X53090000Y-33840000D03*
X55630000Y-33840000D03*
X65790000Y-33840000D03*
X75950000Y-33840000D03*
D14*
X63265000Y-54950000D03*
X59215000Y-54950000D03*
X55785000Y-54950000D03*
X51735000Y-54950000D03*
D15*
X15313821Y-50082500D03*
X15313821Y-53882500D03*
X23953821Y-53882500D03*
X23953821Y-50082500D03*
X67210000Y-50250000D03*
X67210000Y-54050000D03*
X75850000Y-54050000D03*
X75850000Y-50250000D03*
D16*
X46070000Y-48460000D03*
X43530000Y-48460000D03*
X40990000Y-48460000D03*
X34030000Y-48520000D03*
X31490000Y-48520000D03*
X28950000Y-48520000D03*
M02*
