%TF.GenerationSoftware,KiCad,Pcbnew,(6.0.6)*%
%TF.CreationDate,2022-06-29T14:14:22-05:00*%
%TF.ProjectId,FireflyV0,46697265-666c-4795-9630-2e6b69636164,rev?*%
%TF.SameCoordinates,Original*%
%TF.FileFunction,Legend,Top*%
%TF.FilePolarity,Positive*%
%FSLAX46Y46*%
G04 Gerber Fmt 4.6, Leading zero omitted, Abs format (unit mm)*
G04 Created by KiCad (PCBNEW (6.0.6)) date 2022-06-29 14:14:22*
%MOMM*%
%LPD*%
G01*
G04 APERTURE LIST*
G04 Aperture macros list*
%AMRoundRect*
0 Rectangle with rounded corners*
0 $1 Rounding radius*
0 $2 $3 $4 $5 $6 $7 $8 $9 X,Y pos of 4 corners*
0 Add a 4 corners polygon primitive as box body*
4,1,4,$2,$3,$4,$5,$6,$7,$8,$9,$2,$3,0*
0 Add four circle primitives for the rounded corners*
1,1,$1+$1,$2,$3*
1,1,$1+$1,$4,$5*
1,1,$1+$1,$6,$7*
1,1,$1+$1,$8,$9*
0 Add four rect primitives between the rounded corners*
20,1,$1+$1,$2,$3,$4,$5,0*
20,1,$1+$1,$4,$5,$6,$7,0*
20,1,$1+$1,$6,$7,$8,$9,0*
20,1,$1+$1,$8,$9,$2,$3,0*%
%AMHorizOval*
0 Thick line with rounded ends*
0 $1 width*
0 $2 $3 position (X,Y) of the first rounded end (center of the circle)*
0 $4 $5 position (X,Y) of the second rounded end (center of the circle)*
0 Add line between two ends*
20,1,$1,$2,$3,$4,$5,0*
0 Add two circle primitives to create the rounded ends*
1,1,$1,$2,$3*
1,1,$1,$4,$5*%
G04 Aperture macros list end*
%ADD10C,0.150000*%
%ADD11C,0.254000*%
%ADD12C,0.120000*%
%ADD13C,0.200000*%
%ADD14C,0.100000*%
%ADD15O,1.700000X1.700000*%
%ADD16R,1.700000X3.500000*%
%ADD17R,3.500000X1.700000*%
%ADD18R,1.200000X1.400000*%
%ADD19R,1.840000X1.200000*%
%ADD20RoundRect,0.250000X-0.450000X0.262500X-0.450000X-0.262500X0.450000X-0.262500X0.450000X0.262500X0*%
%ADD21R,0.410000X0.280000*%
%ADD22R,0.280000X0.410000*%
%ADD23R,1.470000X1.020000*%
%ADD24RoundRect,0.500000X-1.500000X-0.500000X1.500000X-0.500000X1.500000X0.500000X-1.500000X0.500000X0*%
%ADD25R,0.700000X1.200000*%
%ADD26R,0.760000X1.200000*%
%ADD27R,0.800000X1.200000*%
%ADD28C,2.010000*%
%ADD29C,1.524000*%
%ADD30C,0.910000*%
%ADD31HorizOval,0.910000X-0.070711X0.070711X0.070711X-0.070711X0*%
%ADD32R,1.020000X1.470000*%
%ADD33RoundRect,0.500000X0.500000X-1.500000X0.500000X1.500000X-0.500000X1.500000X-0.500000X-1.500000X0*%
G04 APERTURE END LIST*
D10*
X25720000Y-17915000D02*
X14030000Y-17915000D01*
X14030000Y-17915000D02*
X14030000Y-13485000D01*
X14030000Y-13485000D02*
X25720000Y-13485000D01*
X25720000Y-13485000D02*
X25720000Y-17915000D01*
X14025000Y-29750000D02*
X18455000Y-29750000D01*
X18455000Y-29750000D02*
X18455000Y-18060000D01*
X18455000Y-18060000D02*
X14025000Y-18060000D01*
X14025000Y-18060000D02*
X14025000Y-29750000D01*
X14005000Y-41540000D02*
X18435000Y-41540000D01*
X18435000Y-41540000D02*
X18435000Y-29850000D01*
X18435000Y-29850000D02*
X14005000Y-29850000D01*
X14005000Y-29850000D02*
X14005000Y-41540000D01*
X72600000Y-48660000D02*
X77030000Y-48660000D01*
X77030000Y-48660000D02*
X77030000Y-36970000D01*
X77030000Y-36970000D02*
X72600000Y-36970000D01*
X72600000Y-36970000D02*
X72600000Y-48660000D01*
X49600000Y-24800000D02*
X66600000Y-24800000D01*
X66600000Y-24800000D02*
X66600000Y-29800000D01*
X66600000Y-29800000D02*
X49600000Y-29800000D01*
X49600000Y-29800000D02*
X49600000Y-24800000D01*
X46000000Y-40570000D02*
G75*
G03*
X46000000Y-40570000I-200000J0D01*
G01*
X72300000Y-22650000D02*
X74650000Y-22650000D01*
X74650000Y-22650000D02*
X74650000Y-27525000D01*
X74650000Y-27525000D02*
X72300000Y-27525000D01*
X72300000Y-27525000D02*
X72300000Y-22650000D01*
X39450000Y-20200000D02*
X59196164Y-20200000D01*
X59196164Y-20200000D02*
X59196164Y-24275000D01*
X59196164Y-24275000D02*
X39450000Y-24275000D01*
X39450000Y-24275000D02*
X39450000Y-20200000D01*
X44760000Y-38580000D02*
X46760000Y-38580000D01*
X46760000Y-38580000D02*
X46760000Y-41080000D01*
X46760000Y-41080000D02*
X44760000Y-41080000D01*
X44760000Y-41080000D02*
X44760000Y-38580000D01*
X44090000Y-42980000D02*
X39050000Y-42980000D01*
X39050000Y-42980000D02*
X39050000Y-37360000D01*
X39050000Y-37360000D02*
X44090000Y-37360000D01*
X44090000Y-37360000D02*
X44090000Y-42980000D01*
X39450000Y-24800000D02*
X48800000Y-24800000D01*
X48800000Y-24800000D02*
X48800000Y-29825000D01*
X48800000Y-29825000D02*
X39450000Y-29825000D01*
X39450000Y-29825000D02*
X39450000Y-24800000D01*
X37832857Y-38750000D02*
X38732857Y-38750000D01*
X38732857Y-39092857D01*
X38690000Y-39178571D01*
X38647142Y-39221428D01*
X38561428Y-39264285D01*
X38432857Y-39264285D01*
X38347142Y-39221428D01*
X38304285Y-39178571D01*
X38261428Y-39092857D01*
X38261428Y-38750000D01*
X37832857Y-39650000D02*
X38732857Y-39650000D01*
X38732857Y-39864285D01*
X38690000Y-39992857D01*
X38604285Y-40078571D01*
X38518571Y-40121428D01*
X38347142Y-40164285D01*
X38218571Y-40164285D01*
X38047142Y-40121428D01*
X37961428Y-40078571D01*
X37875714Y-39992857D01*
X37832857Y-39864285D01*
X37832857Y-39650000D01*
X37832857Y-40550000D02*
X38732857Y-40550000D01*
X38090000Y-40850000D01*
X38732857Y-41150000D01*
X37832857Y-41150000D01*
X19967619Y-31418095D02*
X19967619Y-30941904D01*
X19491428Y-30894285D01*
X19539047Y-30941904D01*
X19586666Y-31037142D01*
X19586666Y-31275238D01*
X19539047Y-31370476D01*
X19491428Y-31418095D01*
X19396190Y-31465714D01*
X19158095Y-31465714D01*
X19062857Y-31418095D01*
X19015238Y-31370476D01*
X18967619Y-31275238D01*
X18967619Y-31037142D01*
X19015238Y-30941904D01*
X19062857Y-30894285D01*
X22168095Y-18147619D02*
X22168095Y-19147619D01*
X21930000Y-19147619D01*
X21787142Y-19100000D01*
X21691904Y-19004761D01*
X21644285Y-18909523D01*
X21596666Y-18719047D01*
X21596666Y-18576190D01*
X21644285Y-18385714D01*
X21691904Y-18290476D01*
X21787142Y-18195238D01*
X21930000Y-18147619D01*
X22168095Y-18147619D01*
X20739523Y-18814285D02*
X20739523Y-18147619D01*
X20977619Y-19195238D02*
X21215714Y-18480952D01*
X20596666Y-18480952D01*
X42447023Y-22652380D02*
X42113690Y-22176190D01*
X41875595Y-22652380D02*
X41875595Y-21652380D01*
X42256547Y-21652380D01*
X42351785Y-21700000D01*
X42399404Y-21747619D01*
X42447023Y-21842857D01*
X42447023Y-21985714D01*
X42399404Y-22080952D01*
X42351785Y-22128571D01*
X42256547Y-22176190D01*
X41875595Y-22176190D01*
X42827976Y-22366666D02*
X43304166Y-22366666D01*
X42732738Y-22652380D02*
X43066071Y-21652380D01*
X43399404Y-22652380D01*
X43685119Y-22604761D02*
X43827976Y-22652380D01*
X44066071Y-22652380D01*
X44161309Y-22604761D01*
X44208928Y-22557142D01*
X44256547Y-22461904D01*
X44256547Y-22366666D01*
X44208928Y-22271428D01*
X44161309Y-22223809D01*
X44066071Y-22176190D01*
X43875595Y-22128571D01*
X43780357Y-22080952D01*
X43732738Y-22033333D01*
X43685119Y-21938095D01*
X43685119Y-21842857D01*
X43732738Y-21747619D01*
X43780357Y-21700000D01*
X43875595Y-21652380D01*
X44113690Y-21652380D01*
X44256547Y-21700000D01*
X44685119Y-22652380D02*
X44685119Y-21652380D01*
X45066071Y-21652380D01*
X45161309Y-21700000D01*
X45208928Y-21747619D01*
X45256547Y-21842857D01*
X45256547Y-21985714D01*
X45208928Y-22080952D01*
X45161309Y-22128571D01*
X45066071Y-22176190D01*
X44685119Y-22176190D01*
X46018452Y-22128571D02*
X46161309Y-22176190D01*
X46208928Y-22223809D01*
X46256547Y-22319047D01*
X46256547Y-22461904D01*
X46208928Y-22557142D01*
X46161309Y-22604761D01*
X46066071Y-22652380D01*
X45685119Y-22652380D01*
X45685119Y-21652380D01*
X46018452Y-21652380D01*
X46113690Y-21700000D01*
X46161309Y-21747619D01*
X46208928Y-21842857D01*
X46208928Y-21938095D01*
X46161309Y-22033333D01*
X46113690Y-22080952D01*
X46018452Y-22128571D01*
X45685119Y-22128571D01*
X46685119Y-22128571D02*
X47018452Y-22128571D01*
X47161309Y-22652380D02*
X46685119Y-22652380D01*
X46685119Y-21652380D01*
X47161309Y-21652380D01*
X48161309Y-22652380D02*
X47827976Y-22176190D01*
X47589880Y-22652380D02*
X47589880Y-21652380D01*
X47970833Y-21652380D01*
X48066071Y-21700000D01*
X48113690Y-21747619D01*
X48161309Y-21842857D01*
X48161309Y-21985714D01*
X48113690Y-22080952D01*
X48066071Y-22128571D01*
X47970833Y-22176190D01*
X47589880Y-22176190D01*
X49161309Y-22652380D02*
X48827976Y-22176190D01*
X48589880Y-22652380D02*
X48589880Y-21652380D01*
X48970833Y-21652380D01*
X49066071Y-21700000D01*
X49113690Y-21747619D01*
X49161309Y-21842857D01*
X49161309Y-21985714D01*
X49113690Y-22080952D01*
X49066071Y-22128571D01*
X48970833Y-22176190D01*
X48589880Y-22176190D01*
X49780357Y-22176190D02*
X49780357Y-22652380D01*
X49447023Y-21652380D02*
X49780357Y-22176190D01*
X50113690Y-21652380D01*
X51208928Y-22652380D02*
X51208928Y-21652380D01*
X51589880Y-21652380D01*
X51685119Y-21700000D01*
X51732738Y-21747619D01*
X51780357Y-21842857D01*
X51780357Y-21985714D01*
X51732738Y-22080952D01*
X51685119Y-22128571D01*
X51589880Y-22176190D01*
X51208928Y-22176190D01*
X52208928Y-22652380D02*
X52208928Y-21652380D01*
X53447023Y-22652380D02*
X53447023Y-21652380D01*
X53827976Y-21652380D01*
X53923214Y-21700000D01*
X53970833Y-21747619D01*
X54018452Y-21842857D01*
X54018452Y-21985714D01*
X53970833Y-22080952D01*
X53923214Y-22128571D01*
X53827976Y-22176190D01*
X53447023Y-22176190D01*
X54447023Y-22652380D02*
X54447023Y-21652380D01*
X55494642Y-22557142D02*
X55447023Y-22604761D01*
X55304166Y-22652380D01*
X55208928Y-22652380D01*
X55066071Y-22604761D01*
X54970833Y-22509523D01*
X54923214Y-22414285D01*
X54875595Y-22223809D01*
X54875595Y-22080952D01*
X54923214Y-21890476D01*
X54970833Y-21795238D01*
X55066071Y-21700000D01*
X55208928Y-21652380D01*
X55304166Y-21652380D01*
X55447023Y-21700000D01*
X55494642Y-21747619D01*
X56113690Y-21652380D02*
X56304166Y-21652380D01*
X56399404Y-21700000D01*
X56494642Y-21795238D01*
X56542261Y-21985714D01*
X56542261Y-22319047D01*
X56494642Y-22509523D01*
X56399404Y-22604761D01*
X56304166Y-22652380D01*
X56113690Y-22652380D01*
X56018452Y-22604761D01*
X55923214Y-22509523D01*
X55875595Y-22319047D01*
X55875595Y-21985714D01*
X55923214Y-21795238D01*
X56018452Y-21700000D01*
X56113690Y-21652380D01*
X57732738Y-22557142D02*
X57780357Y-22604761D01*
X57732738Y-22652380D01*
X57685119Y-22604761D01*
X57732738Y-22557142D01*
X57732738Y-22652380D01*
X57732738Y-22033333D02*
X57780357Y-22080952D01*
X57732738Y-22128571D01*
X57685119Y-22080952D01*
X57732738Y-22033333D01*
X57732738Y-22128571D01*
X58113690Y-23033333D02*
X58161309Y-22985714D01*
X58256547Y-22842857D01*
X58304166Y-22747619D01*
X58351785Y-22604761D01*
X58399404Y-22366666D01*
X58399404Y-22176190D01*
X58351785Y-21938095D01*
X58304166Y-21795238D01*
X58256547Y-21700000D01*
X58161309Y-21557142D01*
X58113690Y-21509523D01*
X39958095Y-44774761D02*
X39862857Y-44822380D01*
X39672380Y-44822380D01*
X39577142Y-44774761D01*
X39529523Y-44727142D01*
X39481904Y-44631904D01*
X39481904Y-44346190D01*
X39529523Y-44250952D01*
X39577142Y-44203333D01*
X39672380Y-44155714D01*
X39862857Y-44155714D01*
X39958095Y-44203333D01*
X19870000Y-40451904D02*
X19917619Y-40356666D01*
X19917619Y-40213809D01*
X19870000Y-40070952D01*
X19774761Y-39975714D01*
X19679523Y-39928095D01*
X19489047Y-39880476D01*
X19346190Y-39880476D01*
X19155714Y-39928095D01*
X19060476Y-39975714D01*
X18965238Y-40070952D01*
X18917619Y-40213809D01*
X18917619Y-40309047D01*
X18965238Y-40451904D01*
X19012857Y-40499523D01*
X19346190Y-40499523D01*
X19346190Y-40309047D01*
X72152380Y-45068095D02*
X71152380Y-45068095D01*
X71152380Y-44830000D01*
X71200000Y-44687142D01*
X71295238Y-44591904D01*
X71390476Y-44544285D01*
X71580952Y-44496666D01*
X71723809Y-44496666D01*
X71914285Y-44544285D01*
X72009523Y-44591904D01*
X72104761Y-44687142D01*
X72152380Y-44830000D01*
X72152380Y-45068095D01*
X71247619Y-44115714D02*
X71200000Y-44068095D01*
X71152380Y-43972857D01*
X71152380Y-43734761D01*
X71200000Y-43639523D01*
X71247619Y-43591904D01*
X71342857Y-43544285D01*
X71438095Y-43544285D01*
X71580952Y-43591904D01*
X72152380Y-44163333D01*
X72152380Y-43544285D01*
X72017142Y-41596666D02*
X72064761Y-41644285D01*
X72112380Y-41787142D01*
X72112380Y-41882380D01*
X72064761Y-42025238D01*
X71969523Y-42120476D01*
X71874285Y-42168095D01*
X71683809Y-42215714D01*
X71540952Y-42215714D01*
X71350476Y-42168095D01*
X71255238Y-42120476D01*
X71160000Y-42025238D01*
X71112380Y-41882380D01*
X71112380Y-41787142D01*
X71160000Y-41644285D01*
X71207619Y-41596666D01*
X71207619Y-41215714D02*
X71160000Y-41168095D01*
X71112380Y-41072857D01*
X71112380Y-40834761D01*
X71160000Y-40739523D01*
X71207619Y-40691904D01*
X71302857Y-40644285D01*
X71398095Y-40644285D01*
X71540952Y-40691904D01*
X72112380Y-41263333D01*
X72112380Y-40644285D01*
X19062857Y-34113333D02*
X19015238Y-34065714D01*
X18967619Y-33922857D01*
X18967619Y-33827619D01*
X19015238Y-33684761D01*
X19110476Y-33589523D01*
X19205714Y-33541904D01*
X19396190Y-33494285D01*
X19539047Y-33494285D01*
X19729523Y-33541904D01*
X19824761Y-33589523D01*
X19920000Y-33684761D01*
X19967619Y-33827619D01*
X19967619Y-33922857D01*
X19920000Y-34065714D01*
X19872380Y-34113333D01*
X18967619Y-35065714D02*
X18967619Y-34494285D01*
X18967619Y-34780000D02*
X19967619Y-34780000D01*
X19824761Y-34684761D01*
X19729523Y-34589523D01*
X19681904Y-34494285D01*
X71112380Y-37941904D02*
X71112380Y-38418095D01*
X71588571Y-38465714D01*
X71540952Y-38418095D01*
X71493333Y-38322857D01*
X71493333Y-38084761D01*
X71540952Y-37989523D01*
X71588571Y-37941904D01*
X71683809Y-37894285D01*
X71921904Y-37894285D01*
X72017142Y-37941904D01*
X72064761Y-37989523D01*
X72112380Y-38084761D01*
X72112380Y-38322857D01*
X72064761Y-38418095D01*
X72017142Y-38465714D01*
X75759523Y-30972380D02*
X75283333Y-30972380D01*
X75235714Y-31448571D01*
X75283333Y-31400952D01*
X75378571Y-31353333D01*
X75616666Y-31353333D01*
X75711904Y-31400952D01*
X75759523Y-31448571D01*
X75807142Y-31543809D01*
X75807142Y-31781904D01*
X75759523Y-31877142D01*
X75711904Y-31924761D01*
X75616666Y-31972380D01*
X75378571Y-31972380D01*
X75283333Y-31924761D01*
X75235714Y-31877142D01*
X76092857Y-30972380D02*
X76426190Y-31972380D01*
X76759523Y-30972380D01*
X15011904Y-18547619D02*
X15488095Y-18547619D01*
X15535714Y-18071428D01*
X15488095Y-18119047D01*
X15392857Y-18166666D01*
X15154761Y-18166666D01*
X15059523Y-18119047D01*
X15011904Y-18071428D01*
X14964285Y-17976190D01*
X14964285Y-17738095D01*
X15011904Y-17642857D01*
X15059523Y-17595238D01*
X15154761Y-17547619D01*
X15392857Y-17547619D01*
X15488095Y-17595238D01*
X15535714Y-17642857D01*
X19102857Y-22273333D02*
X19055238Y-22225714D01*
X19007619Y-22082857D01*
X19007619Y-21987619D01*
X19055238Y-21844761D01*
X19150476Y-21749523D01*
X19245714Y-21701904D01*
X19436190Y-21654285D01*
X19579047Y-21654285D01*
X19769523Y-21701904D01*
X19864761Y-21749523D01*
X19960000Y-21844761D01*
X20007619Y-21987619D01*
X20007619Y-22082857D01*
X19960000Y-22225714D01*
X19912380Y-22273333D01*
X20007619Y-22606666D02*
X20007619Y-23225714D01*
X19626666Y-22892380D01*
X19626666Y-23035238D01*
X19579047Y-23130476D01*
X19531428Y-23178095D01*
X19436190Y-23225714D01*
X19198095Y-23225714D01*
X19102857Y-23178095D01*
X19055238Y-23130476D01*
X19007619Y-23035238D01*
X19007619Y-22749523D01*
X19055238Y-22654285D01*
X19102857Y-22606666D01*
X41157023Y-26092380D02*
X40823690Y-25616190D01*
X40585595Y-26092380D02*
X40585595Y-25092380D01*
X40966547Y-25092380D01*
X41061785Y-25140000D01*
X41109404Y-25187619D01*
X41157023Y-25282857D01*
X41157023Y-25425714D01*
X41109404Y-25520952D01*
X41061785Y-25568571D01*
X40966547Y-25616190D01*
X40585595Y-25616190D01*
X42347500Y-25568571D02*
X43109404Y-25568571D01*
X43109404Y-25854285D02*
X42347500Y-25854285D01*
X44871309Y-26092380D02*
X44299880Y-26092380D01*
X44585595Y-26092380D02*
X44585595Y-25092380D01*
X44490357Y-25235238D01*
X44395119Y-25330476D01*
X44299880Y-25378095D01*
X45490357Y-25092380D02*
X45585595Y-25092380D01*
X45680833Y-25140000D01*
X45728452Y-25187619D01*
X45776071Y-25282857D01*
X45823690Y-25473333D01*
X45823690Y-25711428D01*
X45776071Y-25901904D01*
X45728452Y-25997142D01*
X45680833Y-26044761D01*
X45585595Y-26092380D01*
X45490357Y-26092380D01*
X45395119Y-26044761D01*
X45347500Y-25997142D01*
X45299880Y-25901904D01*
X45252261Y-25711428D01*
X45252261Y-25473333D01*
X45299880Y-25282857D01*
X45347500Y-25187619D01*
X45395119Y-25140000D01*
X45490357Y-25092380D01*
X46252261Y-26092380D02*
X46252261Y-25092380D01*
X46347500Y-25711428D02*
X46633214Y-26092380D01*
X46633214Y-25425714D02*
X46252261Y-25806666D01*
X47014166Y-26092380D02*
X47252261Y-26092380D01*
X47252261Y-25901904D01*
X47157023Y-25854285D01*
X47061785Y-25759047D01*
X47014166Y-25616190D01*
X47014166Y-25378095D01*
X47061785Y-25235238D01*
X47157023Y-25140000D01*
X47299880Y-25092380D01*
X47490357Y-25092380D01*
X47633214Y-25140000D01*
X47728452Y-25235238D01*
X47776071Y-25378095D01*
X47776071Y-25616190D01*
X47728452Y-25759047D01*
X47633214Y-25854285D01*
X47537976Y-25901904D01*
X47537976Y-26092380D01*
X47776071Y-26092380D01*
X41157023Y-27607142D02*
X41109404Y-27654761D01*
X40966547Y-27702380D01*
X40871309Y-27702380D01*
X40728452Y-27654761D01*
X40633214Y-27559523D01*
X40585595Y-27464285D01*
X40537976Y-27273809D01*
X40537976Y-27130952D01*
X40585595Y-26940476D01*
X40633214Y-26845238D01*
X40728452Y-26750000D01*
X40871309Y-26702380D01*
X40966547Y-26702380D01*
X41109404Y-26750000D01*
X41157023Y-26797619D01*
X42347500Y-27178571D02*
X43109404Y-27178571D01*
X43109404Y-27464285D02*
X42347500Y-27464285D01*
X44537976Y-26702380D02*
X44633214Y-26702380D01*
X44728452Y-26750000D01*
X44776071Y-26797619D01*
X44823690Y-26892857D01*
X44871309Y-27083333D01*
X44871309Y-27321428D01*
X44823690Y-27511904D01*
X44776071Y-27607142D01*
X44728452Y-27654761D01*
X44633214Y-27702380D01*
X44537976Y-27702380D01*
X44442738Y-27654761D01*
X44395119Y-27607142D01*
X44347500Y-27511904D01*
X44299880Y-27321428D01*
X44299880Y-27083333D01*
X44347500Y-26892857D01*
X44395119Y-26797619D01*
X44442738Y-26750000D01*
X44537976Y-26702380D01*
X45299880Y-27607142D02*
X45347500Y-27654761D01*
X45299880Y-27702380D01*
X45252261Y-27654761D01*
X45299880Y-27607142D01*
X45299880Y-27702380D01*
X46299880Y-27702380D02*
X45728452Y-27702380D01*
X46014166Y-27702380D02*
X46014166Y-26702380D01*
X45918928Y-26845238D01*
X45823690Y-26940476D01*
X45728452Y-26988095D01*
X47157023Y-27035714D02*
X47157023Y-27702380D01*
X46728452Y-27035714D02*
X46728452Y-27559523D01*
X46776071Y-27654761D01*
X46871309Y-27702380D01*
X47014166Y-27702380D01*
X47109404Y-27654761D01*
X47157023Y-27607142D01*
X47966547Y-27178571D02*
X47633214Y-27178571D01*
X47633214Y-27702380D02*
X47633214Y-26702380D01*
X48109404Y-26702380D01*
X40347500Y-29407619D02*
X41109404Y-29407619D01*
X41109404Y-29407619D02*
X41871309Y-29407619D01*
X42299880Y-28312380D02*
X42395119Y-28312380D01*
X42490357Y-28360000D01*
X42537976Y-28407619D01*
X42585595Y-28502857D01*
X42633214Y-28693333D01*
X42633214Y-28931428D01*
X42585595Y-29121904D01*
X42537976Y-29217142D01*
X42490357Y-29264761D01*
X42395119Y-29312380D01*
X42299880Y-29312380D01*
X42204642Y-29264761D01*
X42157023Y-29217142D01*
X42109404Y-29121904D01*
X42061785Y-28931428D01*
X42061785Y-28693333D01*
X42109404Y-28502857D01*
X42157023Y-28407619D01*
X42204642Y-28360000D01*
X42299880Y-28312380D01*
X43204642Y-28740952D02*
X43109404Y-28693333D01*
X43061785Y-28645714D01*
X43014166Y-28550476D01*
X43014166Y-28502857D01*
X43061785Y-28407619D01*
X43109404Y-28360000D01*
X43204642Y-28312380D01*
X43395119Y-28312380D01*
X43490357Y-28360000D01*
X43537976Y-28407619D01*
X43585595Y-28502857D01*
X43585595Y-28550476D01*
X43537976Y-28645714D01*
X43490357Y-28693333D01*
X43395119Y-28740952D01*
X43204642Y-28740952D01*
X43109404Y-28788571D01*
X43061785Y-28836190D01*
X43014166Y-28931428D01*
X43014166Y-29121904D01*
X43061785Y-29217142D01*
X43109404Y-29264761D01*
X43204642Y-29312380D01*
X43395119Y-29312380D01*
X43490357Y-29264761D01*
X43537976Y-29217142D01*
X43585595Y-29121904D01*
X43585595Y-28931428D01*
X43537976Y-28836190D01*
X43490357Y-28788571D01*
X43395119Y-28740952D01*
X44204642Y-28312380D02*
X44299880Y-28312380D01*
X44395119Y-28360000D01*
X44442738Y-28407619D01*
X44490357Y-28502857D01*
X44537976Y-28693333D01*
X44537976Y-28931428D01*
X44490357Y-29121904D01*
X44442738Y-29217142D01*
X44395119Y-29264761D01*
X44299880Y-29312380D01*
X44204642Y-29312380D01*
X44109404Y-29264761D01*
X44061785Y-29217142D01*
X44014166Y-29121904D01*
X43966547Y-28931428D01*
X43966547Y-28693333D01*
X44014166Y-28502857D01*
X44061785Y-28407619D01*
X44109404Y-28360000D01*
X44204642Y-28312380D01*
X45442738Y-28312380D02*
X44966547Y-28312380D01*
X44918928Y-28788571D01*
X44966547Y-28740952D01*
X45061785Y-28693333D01*
X45299880Y-28693333D01*
X45395119Y-28740952D01*
X45442738Y-28788571D01*
X45490357Y-28883809D01*
X45490357Y-29121904D01*
X45442738Y-29217142D01*
X45395119Y-29264761D01*
X45299880Y-29312380D01*
X45061785Y-29312380D01*
X44966547Y-29264761D01*
X44918928Y-29217142D01*
X45680833Y-29407619D02*
X46442738Y-29407619D01*
X46442738Y-29407619D02*
X47204642Y-29407619D01*
X20097619Y-19688095D02*
X20097619Y-19211904D01*
X19621428Y-19164285D01*
X19669047Y-19211904D01*
X19716666Y-19307142D01*
X19716666Y-19545238D01*
X19669047Y-19640476D01*
X19621428Y-19688095D01*
X19526190Y-19735714D01*
X19288095Y-19735714D01*
X19192857Y-19688095D01*
X19145238Y-19640476D01*
X19097619Y-19545238D01*
X19097619Y-19307142D01*
X19145238Y-19211904D01*
X19192857Y-19164285D01*
X19960000Y-28591904D02*
X20007619Y-28496666D01*
X20007619Y-28353809D01*
X19960000Y-28210952D01*
X19864761Y-28115714D01*
X19769523Y-28068095D01*
X19579047Y-28020476D01*
X19436190Y-28020476D01*
X19245714Y-28068095D01*
X19150476Y-28115714D01*
X19055238Y-28210952D01*
X19007619Y-28353809D01*
X19007619Y-28449047D01*
X19055238Y-28591904D01*
X19102857Y-28639523D01*
X19436190Y-28639523D01*
X19436190Y-28449047D01*
X19037619Y-36421904D02*
X20037619Y-36421904D01*
X20037619Y-36660000D01*
X19990000Y-36802857D01*
X19894761Y-36898095D01*
X19799523Y-36945714D01*
X19609047Y-36993333D01*
X19466190Y-36993333D01*
X19275714Y-36945714D01*
X19180476Y-36898095D01*
X19085238Y-36802857D01*
X19037619Y-36660000D01*
X19037619Y-36421904D01*
X19037619Y-37945714D02*
X19037619Y-37374285D01*
X19037619Y-37660000D02*
X20037619Y-37660000D01*
X19894761Y-37564761D01*
X19799523Y-37469523D01*
X19751904Y-37374285D01*
X32324999Y-17852380D02*
X32563095Y-18852380D01*
X32753571Y-18138095D01*
X32944047Y-18852380D01*
X33182142Y-17852380D01*
X33944047Y-18804761D02*
X33848809Y-18852380D01*
X33658333Y-18852380D01*
X33563095Y-18804761D01*
X33515476Y-18709523D01*
X33515476Y-18328571D01*
X33563095Y-18233333D01*
X33658333Y-18185714D01*
X33848809Y-18185714D01*
X33944047Y-18233333D01*
X33991666Y-18328571D01*
X33991666Y-18423809D01*
X33515476Y-18519047D01*
X34563095Y-18852380D02*
X34467857Y-18804761D01*
X34420238Y-18709523D01*
X34420238Y-17852380D01*
X35372619Y-18804761D02*
X35277380Y-18852380D01*
X35086904Y-18852380D01*
X34991666Y-18804761D01*
X34944047Y-18757142D01*
X34896428Y-18661904D01*
X34896428Y-18376190D01*
X34944047Y-18280952D01*
X34991666Y-18233333D01*
X35086904Y-18185714D01*
X35277380Y-18185714D01*
X35372619Y-18233333D01*
X35944047Y-18852380D02*
X35848809Y-18804761D01*
X35801190Y-18757142D01*
X35753571Y-18661904D01*
X35753571Y-18376190D01*
X35801190Y-18280952D01*
X35848809Y-18233333D01*
X35944047Y-18185714D01*
X36086904Y-18185714D01*
X36182142Y-18233333D01*
X36229761Y-18280952D01*
X36277380Y-18376190D01*
X36277380Y-18661904D01*
X36229761Y-18757142D01*
X36182142Y-18804761D01*
X36086904Y-18852380D01*
X35944047Y-18852380D01*
X36705952Y-18852380D02*
X36705952Y-18185714D01*
X36705952Y-18280952D02*
X36753571Y-18233333D01*
X36848809Y-18185714D01*
X36991666Y-18185714D01*
X37086904Y-18233333D01*
X37134523Y-18328571D01*
X37134523Y-18852380D01*
X37134523Y-18328571D02*
X37182142Y-18233333D01*
X37277380Y-18185714D01*
X37420238Y-18185714D01*
X37515476Y-18233333D01*
X37563095Y-18328571D01*
X37563095Y-18852380D01*
X38420238Y-18804761D02*
X38324999Y-18852380D01*
X38134523Y-18852380D01*
X38039285Y-18804761D01*
X37991666Y-18709523D01*
X37991666Y-18328571D01*
X38039285Y-18233333D01*
X38134523Y-18185714D01*
X38324999Y-18185714D01*
X38420238Y-18233333D01*
X38467857Y-18328571D01*
X38467857Y-18423809D01*
X37991666Y-18519047D01*
X39515476Y-18185714D02*
X39896428Y-18185714D01*
X39658333Y-17852380D02*
X39658333Y-18709523D01*
X39705952Y-18804761D01*
X39801190Y-18852380D01*
X39896428Y-18852380D01*
X40372619Y-18852380D02*
X40277380Y-18804761D01*
X40229761Y-18757142D01*
X40182142Y-18661904D01*
X40182142Y-18376190D01*
X40229761Y-18280952D01*
X40277380Y-18233333D01*
X40372619Y-18185714D01*
X40515476Y-18185714D01*
X40610714Y-18233333D01*
X40658333Y-18280952D01*
X40705952Y-18376190D01*
X40705952Y-18661904D01*
X40658333Y-18757142D01*
X40610714Y-18804761D01*
X40515476Y-18852380D01*
X40372619Y-18852380D01*
X41801190Y-18185714D02*
X42039285Y-18852380D01*
X42277380Y-18185714D02*
X42039285Y-18852380D01*
X41944047Y-19090476D01*
X41896428Y-19138095D01*
X41801190Y-19185714D01*
X42801190Y-18852380D02*
X42705952Y-18804761D01*
X42658333Y-18757142D01*
X42610714Y-18661904D01*
X42610714Y-18376190D01*
X42658333Y-18280952D01*
X42705952Y-18233333D01*
X42801190Y-18185714D01*
X42944047Y-18185714D01*
X43039285Y-18233333D01*
X43086904Y-18280952D01*
X43134523Y-18376190D01*
X43134523Y-18661904D01*
X43086904Y-18757142D01*
X43039285Y-18804761D01*
X42944047Y-18852380D01*
X42801190Y-18852380D01*
X43991666Y-18185714D02*
X43991666Y-18852380D01*
X43563095Y-18185714D02*
X43563095Y-18709523D01*
X43610714Y-18804761D01*
X43705952Y-18852380D01*
X43848809Y-18852380D01*
X43944047Y-18804761D01*
X43991666Y-18757142D01*
X44467857Y-18852380D02*
X44467857Y-18185714D01*
X44467857Y-18376190D02*
X44515476Y-18280952D01*
X44563095Y-18233333D01*
X44658333Y-18185714D01*
X44753571Y-18185714D01*
X46467857Y-18376190D02*
X46420238Y-18328571D01*
X46324999Y-18280952D01*
X46229761Y-18280952D01*
X46134523Y-18328571D01*
X46086904Y-18376190D01*
X46039285Y-18471428D01*
X46039285Y-18566666D01*
X46086904Y-18661904D01*
X46134523Y-18709523D01*
X46229761Y-18757142D01*
X46324999Y-18757142D01*
X46420238Y-18709523D01*
X46467857Y-18661904D01*
X46467857Y-18280952D02*
X46467857Y-18661904D01*
X46515476Y-18709523D01*
X46563095Y-18709523D01*
X46658333Y-18661904D01*
X46705952Y-18566666D01*
X46705952Y-18328571D01*
X46610714Y-18185714D01*
X46467857Y-18090476D01*
X46277380Y-18042857D01*
X46086904Y-18090476D01*
X45944047Y-18185714D01*
X45848809Y-18328571D01*
X45801190Y-18519047D01*
X45848809Y-18709523D01*
X45944047Y-18852380D01*
X46086904Y-18947619D01*
X46277380Y-18995238D01*
X46467857Y-18947619D01*
X46610714Y-18852380D01*
X47134523Y-18852380D02*
X47134523Y-17852380D01*
X47705952Y-18852380D02*
X47277380Y-18280952D01*
X47705952Y-17852380D02*
X47134523Y-18423809D01*
X48039285Y-18185714D02*
X48277380Y-18852380D01*
X48515476Y-18185714D02*
X48277380Y-18852380D01*
X48182142Y-19090476D01*
X48134523Y-19138095D01*
X48039285Y-19185714D01*
X49039285Y-18852380D02*
X48944047Y-18804761D01*
X48896428Y-18709523D01*
X48896428Y-17852380D01*
X49848809Y-18852380D02*
X49848809Y-18328571D01*
X49801190Y-18233333D01*
X49705952Y-18185714D01*
X49515476Y-18185714D01*
X49420238Y-18233333D01*
X49848809Y-18804761D02*
X49753571Y-18852380D01*
X49515476Y-18852380D01*
X49420238Y-18804761D01*
X49372619Y-18709523D01*
X49372619Y-18614285D01*
X49420238Y-18519047D01*
X49515476Y-18471428D01*
X49753571Y-18471428D01*
X49848809Y-18423809D01*
X50324999Y-18852380D02*
X50324999Y-18185714D01*
X50324999Y-18376190D02*
X50372619Y-18280952D01*
X50420238Y-18233333D01*
X50515476Y-18185714D01*
X50610714Y-18185714D01*
X51420238Y-18852380D02*
X50944047Y-18852380D01*
X50944047Y-17852380D01*
X51753571Y-18328571D02*
X52086904Y-18328571D01*
X52229761Y-18852380D02*
X51753571Y-18852380D01*
X51753571Y-17852380D01*
X52229761Y-17852380D01*
X52658333Y-18852380D02*
X52658333Y-17852380D01*
X52896428Y-17852380D01*
X53039285Y-17900000D01*
X53134523Y-17995238D01*
X53182142Y-18090476D01*
X53229761Y-18280952D01*
X53229761Y-18423809D01*
X53182142Y-18614285D01*
X53134523Y-18709523D01*
X53039285Y-18804761D01*
X52896428Y-18852380D01*
X52658333Y-18852380D01*
X53610714Y-18804761D02*
X53705952Y-18852380D01*
X53896428Y-18852380D01*
X53991666Y-18804761D01*
X54039285Y-18709523D01*
X54039285Y-18661904D01*
X53991666Y-18566666D01*
X53896428Y-18519047D01*
X53753571Y-18519047D01*
X53658333Y-18471428D01*
X53610714Y-18376190D01*
X53610714Y-18328571D01*
X53658333Y-18233333D01*
X53753571Y-18185714D01*
X53896428Y-18185714D01*
X53991666Y-18233333D01*
X55563095Y-18328571D02*
X55229761Y-18328571D01*
X55229761Y-18852380D02*
X55229761Y-17852380D01*
X55705952Y-17852380D01*
X56086904Y-18852380D02*
X56086904Y-18185714D01*
X56086904Y-17852380D02*
X56039285Y-17900000D01*
X56086904Y-17947619D01*
X56134523Y-17900000D01*
X56086904Y-17852380D01*
X56086904Y-17947619D01*
X56563095Y-18852380D02*
X56563095Y-18185714D01*
X56563095Y-18376190D02*
X56610714Y-18280952D01*
X56658333Y-18233333D01*
X56753571Y-18185714D01*
X56848809Y-18185714D01*
X57563095Y-18804761D02*
X57467857Y-18852380D01*
X57277380Y-18852380D01*
X57182142Y-18804761D01*
X57134523Y-18709523D01*
X57134523Y-18328571D01*
X57182142Y-18233333D01*
X57277380Y-18185714D01*
X57467857Y-18185714D01*
X57563095Y-18233333D01*
X57610714Y-18328571D01*
X57610714Y-18423809D01*
X57134523Y-18519047D01*
X58372619Y-18328571D02*
X58039285Y-18328571D01*
X58039285Y-18852380D02*
X58039285Y-17852380D01*
X58515476Y-17852380D01*
X59039285Y-18852380D02*
X58944047Y-18804761D01*
X58896428Y-18709523D01*
X58896428Y-17852380D01*
X59324999Y-18185714D02*
X59563095Y-18852380D01*
X59801190Y-18185714D02*
X59563095Y-18852380D01*
X59467857Y-19090476D01*
X59420238Y-19138095D01*
X59324999Y-19185714D01*
X61372619Y-18804761D02*
X61277380Y-18852380D01*
X61086904Y-18852380D01*
X60991666Y-18804761D01*
X60944047Y-18757142D01*
X60896428Y-18661904D01*
X60896428Y-18376190D01*
X60944047Y-18280952D01*
X60991666Y-18233333D01*
X61086904Y-18185714D01*
X61277380Y-18185714D01*
X61372619Y-18233333D01*
X61944047Y-18852380D02*
X61848809Y-18804761D01*
X61801190Y-18757142D01*
X61753571Y-18661904D01*
X61753571Y-18376190D01*
X61801190Y-18280952D01*
X61848809Y-18233333D01*
X61944047Y-18185714D01*
X62086904Y-18185714D01*
X62182142Y-18233333D01*
X62229761Y-18280952D01*
X62277380Y-18376190D01*
X62277380Y-18661904D01*
X62229761Y-18757142D01*
X62182142Y-18804761D01*
X62086904Y-18852380D01*
X61944047Y-18852380D01*
X62705952Y-18185714D02*
X62705952Y-18852380D01*
X62705952Y-18280952D02*
X62753571Y-18233333D01*
X62848809Y-18185714D01*
X62991666Y-18185714D01*
X63086904Y-18233333D01*
X63134523Y-18328571D01*
X63134523Y-18852380D01*
X63467857Y-18185714D02*
X63848809Y-18185714D01*
X63610714Y-17852380D02*
X63610714Y-18709523D01*
X63658333Y-18804761D01*
X63753571Y-18852380D01*
X63848809Y-18852380D01*
X64182142Y-18852380D02*
X64182142Y-18185714D01*
X64182142Y-18376190D02*
X64229761Y-18280952D01*
X64277380Y-18233333D01*
X64372619Y-18185714D01*
X64467857Y-18185714D01*
X64944047Y-18852380D02*
X64848809Y-18804761D01*
X64801190Y-18757142D01*
X64753571Y-18661904D01*
X64753571Y-18376190D01*
X64801190Y-18280952D01*
X64848809Y-18233333D01*
X64944047Y-18185714D01*
X65086904Y-18185714D01*
X65182142Y-18233333D01*
X65229761Y-18280952D01*
X65277380Y-18376190D01*
X65277380Y-18661904D01*
X65229761Y-18757142D01*
X65182142Y-18804761D01*
X65086904Y-18852380D01*
X64944047Y-18852380D01*
X65848809Y-18852380D02*
X65753571Y-18804761D01*
X65705952Y-18709523D01*
X65705952Y-17852380D01*
X66372619Y-18852380D02*
X66277380Y-18804761D01*
X66229761Y-18709523D01*
X66229761Y-17852380D01*
X67134523Y-18804761D02*
X67039285Y-18852380D01*
X66848809Y-18852380D01*
X66753571Y-18804761D01*
X66705952Y-18709523D01*
X66705952Y-18328571D01*
X66753571Y-18233333D01*
X66848809Y-18185714D01*
X67039285Y-18185714D01*
X67134523Y-18233333D01*
X67182142Y-18328571D01*
X67182142Y-18423809D01*
X66705952Y-18519047D01*
X67610714Y-18852380D02*
X67610714Y-18185714D01*
X67610714Y-18376190D02*
X67658333Y-18280952D01*
X67705952Y-18233333D01*
X67801190Y-18185714D01*
X67896428Y-18185714D01*
X68229761Y-18757142D02*
X68277380Y-18804761D01*
X68229761Y-18852380D01*
X68182142Y-18804761D01*
X68229761Y-18757142D01*
X68229761Y-18852380D01*
X68229761Y-18471428D02*
X68182142Y-17900000D01*
X68229761Y-17852380D01*
X68277380Y-17900000D01*
X68229761Y-18471428D01*
X68229761Y-17852380D01*
X71350000Y-47008095D02*
X71302380Y-47103333D01*
X71302380Y-47246190D01*
X71350000Y-47389047D01*
X71445238Y-47484285D01*
X71540476Y-47531904D01*
X71730952Y-47579523D01*
X71873809Y-47579523D01*
X72064285Y-47531904D01*
X72159523Y-47484285D01*
X72254761Y-47389047D01*
X72302380Y-47246190D01*
X72302380Y-47150952D01*
X72254761Y-47008095D01*
X72207142Y-46960476D01*
X71873809Y-46960476D01*
X71873809Y-47150952D01*
X19077619Y-24661904D02*
X20077619Y-24661904D01*
X20077619Y-24900000D01*
X20030000Y-25042857D01*
X19934761Y-25138095D01*
X19839523Y-25185714D01*
X19649047Y-25233333D01*
X19506190Y-25233333D01*
X19315714Y-25185714D01*
X19220476Y-25138095D01*
X19125238Y-25042857D01*
X19077619Y-24900000D01*
X19077619Y-24661904D01*
X20077619Y-25566666D02*
X20077619Y-26185714D01*
X19696666Y-25852380D01*
X19696666Y-25995238D01*
X19649047Y-26090476D01*
X19601428Y-26138095D01*
X19506190Y-26185714D01*
X19268095Y-26185714D01*
X19172857Y-26138095D01*
X19125238Y-26090476D01*
X19077619Y-25995238D01*
X19077619Y-25709523D01*
X19125238Y-25614285D01*
X19172857Y-25566666D01*
X24198095Y-19080000D02*
X24293333Y-19127619D01*
X24436190Y-19127619D01*
X24579047Y-19080000D01*
X24674285Y-18984761D01*
X24721904Y-18889523D01*
X24769523Y-18699047D01*
X24769523Y-18556190D01*
X24721904Y-18365714D01*
X24674285Y-18270476D01*
X24579047Y-18175238D01*
X24436190Y-18127619D01*
X24340952Y-18127619D01*
X24198095Y-18175238D01*
X24150476Y-18222857D01*
X24150476Y-18556190D01*
X24340952Y-18556190D01*
X51021309Y-26623333D02*
X50973690Y-26575714D01*
X50878452Y-26432857D01*
X50830833Y-26337619D01*
X50783214Y-26194761D01*
X50735595Y-25956666D01*
X50735595Y-25766190D01*
X50783214Y-25528095D01*
X50830833Y-25385238D01*
X50878452Y-25290000D01*
X50973690Y-25147142D01*
X51021309Y-25099523D01*
X51545119Y-26242380D02*
X51449880Y-26194761D01*
X51402261Y-26147142D01*
X51354642Y-26051904D01*
X51354642Y-25766190D01*
X51402261Y-25670952D01*
X51449880Y-25623333D01*
X51545119Y-25575714D01*
X51687976Y-25575714D01*
X51783214Y-25623333D01*
X51830833Y-25670952D01*
X51878452Y-25766190D01*
X51878452Y-26051904D01*
X51830833Y-26147142D01*
X51783214Y-26194761D01*
X51687976Y-26242380D01*
X51545119Y-26242380D01*
X52307023Y-25575714D02*
X52307023Y-26575714D01*
X52307023Y-25623333D02*
X52402261Y-25575714D01*
X52592738Y-25575714D01*
X52687976Y-25623333D01*
X52735595Y-25670952D01*
X52783214Y-25766190D01*
X52783214Y-26051904D01*
X52735595Y-26147142D01*
X52687976Y-26194761D01*
X52592738Y-26242380D01*
X52402261Y-26242380D01*
X52307023Y-26194761D01*
X53068928Y-25575714D02*
X53449880Y-25575714D01*
X53211785Y-25242380D02*
X53211785Y-26099523D01*
X53259404Y-26194761D01*
X53354642Y-26242380D01*
X53449880Y-26242380D01*
X53783214Y-26242380D02*
X53783214Y-25575714D01*
X53783214Y-25242380D02*
X53735595Y-25290000D01*
X53783214Y-25337619D01*
X53830833Y-25290000D01*
X53783214Y-25242380D01*
X53783214Y-25337619D01*
X54402261Y-26242380D02*
X54307023Y-26194761D01*
X54259404Y-26147142D01*
X54211785Y-26051904D01*
X54211785Y-25766190D01*
X54259404Y-25670952D01*
X54307023Y-25623333D01*
X54402261Y-25575714D01*
X54545119Y-25575714D01*
X54640357Y-25623333D01*
X54687976Y-25670952D01*
X54735595Y-25766190D01*
X54735595Y-26051904D01*
X54687976Y-26147142D01*
X54640357Y-26194761D01*
X54545119Y-26242380D01*
X54402261Y-26242380D01*
X55164166Y-25575714D02*
X55164166Y-26242380D01*
X55164166Y-25670952D02*
X55211785Y-25623333D01*
X55307023Y-25575714D01*
X55449880Y-25575714D01*
X55545119Y-25623333D01*
X55592738Y-25718571D01*
X55592738Y-26242380D01*
X56497500Y-26242380D02*
X56497500Y-25718571D01*
X56449880Y-25623333D01*
X56354642Y-25575714D01*
X56164166Y-25575714D01*
X56068928Y-25623333D01*
X56497500Y-26194761D02*
X56402261Y-26242380D01*
X56164166Y-26242380D01*
X56068928Y-26194761D01*
X56021309Y-26099523D01*
X56021309Y-26004285D01*
X56068928Y-25909047D01*
X56164166Y-25861428D01*
X56402261Y-25861428D01*
X56497500Y-25813809D01*
X57116547Y-26242380D02*
X57021309Y-26194761D01*
X56973690Y-26099523D01*
X56973690Y-25242380D01*
X57402261Y-26623333D02*
X57449880Y-26575714D01*
X57545119Y-26432857D01*
X57592738Y-26337619D01*
X57640357Y-26194761D01*
X57687976Y-25956666D01*
X57687976Y-25766190D01*
X57640357Y-25528095D01*
X57592738Y-25385238D01*
X57545119Y-25290000D01*
X57449880Y-25147142D01*
X57402261Y-25099523D01*
X51211785Y-27852380D02*
X50735595Y-27852380D01*
X50735595Y-26852380D01*
X51545119Y-27328571D02*
X51878452Y-27328571D01*
X52021309Y-27852380D02*
X51545119Y-27852380D01*
X51545119Y-26852380D01*
X52021309Y-26852380D01*
X52449880Y-27852380D02*
X52449880Y-26852380D01*
X52687976Y-26852380D01*
X52830833Y-26900000D01*
X52926071Y-26995238D01*
X52973690Y-27090476D01*
X53021309Y-27280952D01*
X53021309Y-27423809D01*
X52973690Y-27614285D01*
X52926071Y-27709523D01*
X52830833Y-27804761D01*
X52687976Y-27852380D01*
X52449880Y-27852380D01*
X54640357Y-27852380D02*
X54640357Y-26852380D01*
X54640357Y-27804761D02*
X54545119Y-27852380D01*
X54354642Y-27852380D01*
X54259404Y-27804761D01*
X54211785Y-27757142D01*
X54164166Y-27661904D01*
X54164166Y-27376190D01*
X54211785Y-27280952D01*
X54259404Y-27233333D01*
X54354642Y-27185714D01*
X54545119Y-27185714D01*
X54640357Y-27233333D01*
X55545119Y-27852380D02*
X55545119Y-27328571D01*
X55497500Y-27233333D01*
X55402261Y-27185714D01*
X55211785Y-27185714D01*
X55116547Y-27233333D01*
X55545119Y-27804761D02*
X55449880Y-27852380D01*
X55211785Y-27852380D01*
X55116547Y-27804761D01*
X55068928Y-27709523D01*
X55068928Y-27614285D01*
X55116547Y-27519047D01*
X55211785Y-27471428D01*
X55449880Y-27471428D01*
X55545119Y-27423809D01*
X55878452Y-27185714D02*
X56259404Y-27185714D01*
X56021309Y-26852380D02*
X56021309Y-27709523D01*
X56068928Y-27804761D01*
X56164166Y-27852380D01*
X56259404Y-27852380D01*
X57021309Y-27852380D02*
X57021309Y-27328571D01*
X56973690Y-27233333D01*
X56878452Y-27185714D01*
X56687976Y-27185714D01*
X56592738Y-27233333D01*
X57021309Y-27804761D02*
X56926071Y-27852380D01*
X56687976Y-27852380D01*
X56592738Y-27804761D01*
X56545119Y-27709523D01*
X56545119Y-27614285D01*
X56592738Y-27519047D01*
X56687976Y-27471428D01*
X56926071Y-27471428D01*
X57021309Y-27423809D01*
X58259404Y-27852380D02*
X58259404Y-27185714D01*
X58259404Y-27376190D02*
X58307023Y-27280952D01*
X58354642Y-27233333D01*
X58449880Y-27185714D01*
X58545119Y-27185714D01*
X59259404Y-27804761D02*
X59164166Y-27852380D01*
X58973690Y-27852380D01*
X58878452Y-27804761D01*
X58830833Y-27709523D01*
X58830833Y-27328571D01*
X58878452Y-27233333D01*
X58973690Y-27185714D01*
X59164166Y-27185714D01*
X59259404Y-27233333D01*
X59307023Y-27328571D01*
X59307023Y-27423809D01*
X58830833Y-27519047D01*
X59687976Y-27804761D02*
X59783214Y-27852380D01*
X59973690Y-27852380D01*
X60068928Y-27804761D01*
X60116547Y-27709523D01*
X60116547Y-27661904D01*
X60068928Y-27566666D01*
X59973690Y-27519047D01*
X59830833Y-27519047D01*
X59735595Y-27471428D01*
X59687976Y-27376190D01*
X59687976Y-27328571D01*
X59735595Y-27233333D01*
X59830833Y-27185714D01*
X59973690Y-27185714D01*
X60068928Y-27233333D01*
X60545119Y-27852380D02*
X60545119Y-27185714D01*
X60545119Y-26852380D02*
X60497500Y-26900000D01*
X60545119Y-26947619D01*
X60592738Y-26900000D01*
X60545119Y-26852380D01*
X60545119Y-26947619D01*
X60973690Y-27804761D02*
X61068928Y-27852380D01*
X61259404Y-27852380D01*
X61354642Y-27804761D01*
X61402261Y-27709523D01*
X61402261Y-27661904D01*
X61354642Y-27566666D01*
X61259404Y-27519047D01*
X61116547Y-27519047D01*
X61021309Y-27471428D01*
X60973690Y-27376190D01*
X60973690Y-27328571D01*
X61021309Y-27233333D01*
X61116547Y-27185714D01*
X61259404Y-27185714D01*
X61354642Y-27233333D01*
X61687976Y-27185714D02*
X62068928Y-27185714D01*
X61830833Y-26852380D02*
X61830833Y-27709523D01*
X61878452Y-27804761D01*
X61973690Y-27852380D01*
X62068928Y-27852380D01*
X62545119Y-27852380D02*
X62449880Y-27804761D01*
X62402261Y-27757142D01*
X62354642Y-27661904D01*
X62354642Y-27376190D01*
X62402261Y-27280952D01*
X62449880Y-27233333D01*
X62545119Y-27185714D01*
X62687976Y-27185714D01*
X62783214Y-27233333D01*
X62830833Y-27280952D01*
X62878452Y-27376190D01*
X62878452Y-27661904D01*
X62830833Y-27757142D01*
X62783214Y-27804761D01*
X62687976Y-27852380D01*
X62545119Y-27852380D01*
X63307023Y-27852380D02*
X63307023Y-27185714D01*
X63307023Y-27376190D02*
X63354642Y-27280952D01*
X63402261Y-27233333D01*
X63497500Y-27185714D01*
X63592738Y-27185714D01*
X65259404Y-27852380D02*
X64926071Y-27376190D01*
X64687976Y-27852380D02*
X64687976Y-26852380D01*
X65068928Y-26852380D01*
X65164166Y-26900000D01*
X65211785Y-26947619D01*
X65259404Y-27042857D01*
X65259404Y-27185714D01*
X65211785Y-27280952D01*
X65164166Y-27328571D01*
X65068928Y-27376190D01*
X64687976Y-27376190D01*
X65640357Y-26947619D02*
X65687976Y-26900000D01*
X65783214Y-26852380D01*
X66021309Y-26852380D01*
X66116547Y-26900000D01*
X66164166Y-26947619D01*
X66211785Y-27042857D01*
X66211785Y-27138095D01*
X66164166Y-27280952D01*
X65592738Y-27852380D01*
X66211785Y-27852380D01*
X51307023Y-29462380D02*
X50973690Y-28986190D01*
X50735595Y-29462380D02*
X50735595Y-28462380D01*
X51116547Y-28462380D01*
X51211785Y-28510000D01*
X51259404Y-28557619D01*
X51307023Y-28652857D01*
X51307023Y-28795714D01*
X51259404Y-28890952D01*
X51211785Y-28938571D01*
X51116547Y-28986190D01*
X50735595Y-28986190D01*
X51687976Y-28557619D02*
X51735595Y-28510000D01*
X51830833Y-28462380D01*
X52068928Y-28462380D01*
X52164166Y-28510000D01*
X52211785Y-28557619D01*
X52259404Y-28652857D01*
X52259404Y-28748095D01*
X52211785Y-28890952D01*
X51640357Y-29462380D01*
X52259404Y-29462380D01*
X53449880Y-28938571D02*
X54211785Y-28938571D01*
X54211785Y-29224285D02*
X53449880Y-29224285D01*
X55402261Y-28557619D02*
X55449880Y-28510000D01*
X55545119Y-28462380D01*
X55783214Y-28462380D01*
X55878452Y-28510000D01*
X55926071Y-28557619D01*
X55973690Y-28652857D01*
X55973690Y-28748095D01*
X55926071Y-28890952D01*
X55354642Y-29462380D01*
X55973690Y-29462380D01*
X56354642Y-28557619D02*
X56402261Y-28510000D01*
X56497500Y-28462380D01*
X56735595Y-28462380D01*
X56830833Y-28510000D01*
X56878452Y-28557619D01*
X56926071Y-28652857D01*
X56926071Y-28748095D01*
X56878452Y-28890952D01*
X56307023Y-29462380D01*
X56926071Y-29462380D01*
X57545119Y-28462380D02*
X57640357Y-28462380D01*
X57735595Y-28510000D01*
X57783214Y-28557619D01*
X57830833Y-28652857D01*
X57878452Y-28843333D01*
X57878452Y-29081428D01*
X57830833Y-29271904D01*
X57783214Y-29367142D01*
X57735595Y-29414761D01*
X57640357Y-29462380D01*
X57545119Y-29462380D01*
X57449880Y-29414761D01*
X57402261Y-29367142D01*
X57354642Y-29271904D01*
X57307023Y-29081428D01*
X57307023Y-28843333D01*
X57354642Y-28652857D01*
X57402261Y-28557619D01*
X57449880Y-28510000D01*
X57545119Y-28462380D01*
X58259404Y-29462380D02*
X58497500Y-29462380D01*
X58497500Y-29271904D01*
X58402261Y-29224285D01*
X58307023Y-29129047D01*
X58259404Y-28986190D01*
X58259404Y-28748095D01*
X58307023Y-28605238D01*
X58402261Y-28510000D01*
X58545119Y-28462380D01*
X58735595Y-28462380D01*
X58878452Y-28510000D01*
X58973690Y-28605238D01*
X59021309Y-28748095D01*
X59021309Y-28986190D01*
X58973690Y-29129047D01*
X58878452Y-29224285D01*
X58783214Y-29271904D01*
X58783214Y-29462380D01*
X59021309Y-29462380D01*
X73135714Y-25717857D02*
X73802380Y-25717857D01*
X73135714Y-26146428D02*
X73659523Y-26146428D01*
X73754761Y-26098809D01*
X73802380Y-26003571D01*
X73802380Y-25860714D01*
X73754761Y-25765476D01*
X73707142Y-25717857D01*
X73754761Y-25289285D02*
X73802380Y-25194047D01*
X73802380Y-25003571D01*
X73754761Y-24908333D01*
X73659523Y-24860714D01*
X73611904Y-24860714D01*
X73516666Y-24908333D01*
X73469047Y-25003571D01*
X73469047Y-25146428D01*
X73421428Y-25241666D01*
X73326190Y-25289285D01*
X73278571Y-25289285D01*
X73183333Y-25241666D01*
X73135714Y-25146428D01*
X73135714Y-25003571D01*
X73183333Y-24908333D01*
X73802380Y-24432142D02*
X72802380Y-24432142D01*
X73183333Y-24432142D02*
X73135714Y-24336904D01*
X73135714Y-24146428D01*
X73183333Y-24051190D01*
X73230952Y-24003571D01*
X73326190Y-23955952D01*
X73611904Y-23955952D01*
X73707142Y-24003571D01*
X73754761Y-24051190D01*
X73802380Y-24146428D01*
X73802380Y-24336904D01*
X73754761Y-24432142D01*
X52272380Y-13877619D02*
X51272380Y-13877619D01*
X51272380Y-14258571D01*
X51320000Y-14353809D01*
X51367619Y-14401428D01*
X51462857Y-14449047D01*
X51605714Y-14449047D01*
X51700952Y-14401428D01*
X51748571Y-14353809D01*
X51796190Y-14258571D01*
X51796190Y-13877619D01*
X51272380Y-15068095D02*
X51272380Y-15258571D01*
X51320000Y-15353809D01*
X51415238Y-15449047D01*
X51605714Y-15496666D01*
X51939047Y-15496666D01*
X52129523Y-15449047D01*
X52224761Y-15353809D01*
X52272380Y-15258571D01*
X52272380Y-15068095D01*
X52224761Y-14972857D01*
X52129523Y-14877619D01*
X51939047Y-14830000D01*
X51605714Y-14830000D01*
X51415238Y-14877619D01*
X51320000Y-14972857D01*
X51272380Y-15068095D01*
X51272380Y-15782380D02*
X51272380Y-16353809D01*
X52272380Y-16068095D02*
X51272380Y-16068095D01*
X52272380Y-17210952D02*
X52272380Y-16639523D01*
X52272380Y-16925238D02*
X51272380Y-16925238D01*
X51415238Y-16830000D01*
X51510476Y-16734761D01*
X51558095Y-16639523D01*
X52367619Y-17401428D02*
X52367619Y-18163333D01*
X51986666Y-18353809D02*
X51986666Y-18830000D01*
X52272380Y-18258571D02*
X51272380Y-18591904D01*
X52272380Y-18925238D01*
X52272380Y-19258571D02*
X51272380Y-19258571D01*
X51272380Y-19496666D01*
X51320000Y-19639523D01*
X51415238Y-19734761D01*
X51510476Y-19782380D01*
X51700952Y-19830000D01*
X51843809Y-19830000D01*
X52034285Y-19782380D01*
X52129523Y-19734761D01*
X52224761Y-19639523D01*
X52272380Y-19496666D01*
X52272380Y-19258571D01*
X52177142Y-20830000D02*
X52224761Y-20782380D01*
X52272380Y-20639523D01*
X52272380Y-20544285D01*
X52224761Y-20401428D01*
X52129523Y-20306190D01*
X52034285Y-20258571D01*
X51843809Y-20210952D01*
X51700952Y-20210952D01*
X51510476Y-20258571D01*
X51415238Y-20306190D01*
X51320000Y-20401428D01*
X51272380Y-20544285D01*
X51272380Y-20639523D01*
X51320000Y-20782380D01*
X51367619Y-20830000D01*
D11*
X60681380Y-54703047D02*
X60862809Y-54763523D01*
X61165190Y-54763523D01*
X61286142Y-54703047D01*
X61346619Y-54642571D01*
X61407095Y-54521619D01*
X61407095Y-54400666D01*
X61346619Y-54279714D01*
X61286142Y-54219238D01*
X61165190Y-54158761D01*
X60923285Y-54098285D01*
X60802333Y-54037809D01*
X60741857Y-53977333D01*
X60681380Y-53856380D01*
X60681380Y-53735428D01*
X60741857Y-53614476D01*
X60802333Y-53554000D01*
X60923285Y-53493523D01*
X61225666Y-53493523D01*
X61407095Y-53554000D01*
X61890904Y-53614476D02*
X61951380Y-53554000D01*
X62072333Y-53493523D01*
X62374714Y-53493523D01*
X62495666Y-53554000D01*
X62556142Y-53614476D01*
X62616619Y-53735428D01*
X62616619Y-53856380D01*
X62556142Y-54037809D01*
X61830428Y-54763523D01*
X62616619Y-54763523D01*
X53201380Y-54703047D02*
X53382809Y-54763523D01*
X53685190Y-54763523D01*
X53806142Y-54703047D01*
X53866619Y-54642571D01*
X53927095Y-54521619D01*
X53927095Y-54400666D01*
X53866619Y-54279714D01*
X53806142Y-54219238D01*
X53685190Y-54158761D01*
X53443285Y-54098285D01*
X53322333Y-54037809D01*
X53261857Y-53977333D01*
X53201380Y-53856380D01*
X53201380Y-53735428D01*
X53261857Y-53614476D01*
X53322333Y-53554000D01*
X53443285Y-53493523D01*
X53745666Y-53493523D01*
X53927095Y-53554000D01*
X55136619Y-54763523D02*
X54410904Y-54763523D01*
X54773761Y-54763523D02*
X54773761Y-53493523D01*
X54652809Y-53674952D01*
X54531857Y-53795904D01*
X54410904Y-53856380D01*
D10*
X22242380Y-46489166D02*
X21766190Y-46822500D01*
X22242380Y-47060595D02*
X21242380Y-47060595D01*
X21242380Y-46679642D01*
X21290000Y-46584404D01*
X21337619Y-46536785D01*
X21432857Y-46489166D01*
X21575714Y-46489166D01*
X21670952Y-46536785D01*
X21718571Y-46584404D01*
X21766190Y-46679642D01*
X21766190Y-47060595D01*
X21575714Y-45632023D02*
X22242380Y-45632023D01*
X21194761Y-45870119D02*
X21909047Y-46108214D01*
X21909047Y-45489166D01*
X20222380Y-46464166D02*
X19746190Y-46797500D01*
X20222380Y-47035595D02*
X19222380Y-47035595D01*
X19222380Y-46654642D01*
X19270000Y-46559404D01*
X19317619Y-46511785D01*
X19412857Y-46464166D01*
X19555714Y-46464166D01*
X19650952Y-46511785D01*
X19698571Y-46559404D01*
X19746190Y-46654642D01*
X19746190Y-47035595D01*
X19222380Y-46130833D02*
X19222380Y-45511785D01*
X19603333Y-45845119D01*
X19603333Y-45702261D01*
X19650952Y-45607023D01*
X19698571Y-45559404D01*
X19793809Y-45511785D01*
X20031904Y-45511785D01*
X20127142Y-45559404D01*
X20174761Y-45607023D01*
X20222380Y-45702261D01*
X20222380Y-45987976D01*
X20174761Y-46083214D01*
X20127142Y-46130833D01*
X72432380Y-46704166D02*
X71956190Y-47037500D01*
X72432380Y-47275595D02*
X71432380Y-47275595D01*
X71432380Y-46894642D01*
X71480000Y-46799404D01*
X71527619Y-46751785D01*
X71622857Y-46704166D01*
X71765714Y-46704166D01*
X71860952Y-46751785D01*
X71908571Y-46799404D01*
X71956190Y-46894642D01*
X71956190Y-47275595D01*
X71527619Y-46323214D02*
X71480000Y-46275595D01*
X71432380Y-46180357D01*
X71432380Y-45942261D01*
X71480000Y-45847023D01*
X71527619Y-45799404D01*
X71622857Y-45751785D01*
X71718095Y-45751785D01*
X71860952Y-45799404D01*
X72432380Y-46370833D01*
X72432380Y-45751785D01*
X70522380Y-46679166D02*
X70046190Y-47012500D01*
X70522380Y-47250595D02*
X69522380Y-47250595D01*
X69522380Y-46869642D01*
X69570000Y-46774404D01*
X69617619Y-46726785D01*
X69712857Y-46679166D01*
X69855714Y-46679166D01*
X69950952Y-46726785D01*
X69998571Y-46774404D01*
X70046190Y-46869642D01*
X70046190Y-47250595D01*
X70522380Y-45726785D02*
X70522380Y-46298214D01*
X70522380Y-46012500D02*
X69522380Y-46012500D01*
X69665238Y-46107738D01*
X69760476Y-46202976D01*
X69808095Y-46298214D01*
D11*
X60140238Y-44174523D02*
X60140238Y-42904523D01*
X61470714Y-44053571D02*
X61410238Y-44114047D01*
X61228809Y-44174523D01*
X61107857Y-44174523D01*
X60926428Y-44114047D01*
X60805476Y-43993095D01*
X60745000Y-43872142D01*
X60684523Y-43630238D01*
X60684523Y-43448809D01*
X60745000Y-43206904D01*
X60805476Y-43085952D01*
X60926428Y-42965000D01*
X61107857Y-42904523D01*
X61228809Y-42904523D01*
X61410238Y-42965000D01*
X61470714Y-43025476D01*
X62680238Y-44174523D02*
X61954523Y-44174523D01*
X62317380Y-44174523D02*
X62317380Y-42904523D01*
X62196428Y-43085952D01*
X62075476Y-43206904D01*
X61954523Y-43267380D01*
X65003571Y-43711666D02*
X65064047Y-43772142D01*
X65124523Y-43953571D01*
X65124523Y-44074523D01*
X65064047Y-44255952D01*
X64943095Y-44376904D01*
X64822142Y-44437380D01*
X64580238Y-44497857D01*
X64398809Y-44497857D01*
X64156904Y-44437380D01*
X64035952Y-44376904D01*
X63915000Y-44255952D01*
X63854523Y-44074523D01*
X63854523Y-43953571D01*
X63915000Y-43772142D01*
X63975476Y-43711666D01*
X65124523Y-42502142D02*
X65124523Y-43227857D01*
X65124523Y-42865000D02*
X63854523Y-42865000D01*
X64035952Y-42985952D01*
X64156904Y-43106904D01*
X64217380Y-43227857D01*
X19210487Y-52084023D02*
X19210487Y-52991166D01*
X19150011Y-53172595D01*
X19029059Y-53293547D01*
X18847630Y-53354023D01*
X18726678Y-53354023D01*
X19754773Y-52204976D02*
X19815249Y-52144500D01*
X19936201Y-52084023D01*
X20238582Y-52084023D01*
X20359535Y-52144500D01*
X20420011Y-52204976D01*
X20480487Y-52325928D01*
X20480487Y-52446880D01*
X20420011Y-52628309D01*
X19694297Y-53354023D01*
X20480487Y-53354023D01*
X71106666Y-52251523D02*
X71106666Y-53158666D01*
X71046190Y-53340095D01*
X70925238Y-53461047D01*
X70743809Y-53521523D01*
X70622857Y-53521523D01*
X72376666Y-53521523D02*
X71650952Y-53521523D01*
X72013809Y-53521523D02*
X72013809Y-52251523D01*
X71892857Y-52432952D01*
X71771904Y-52553904D01*
X71650952Y-52614380D01*
D10*
X44125238Y-46007619D02*
X44458571Y-46483809D01*
X44696666Y-46007619D02*
X44696666Y-47007619D01*
X44315714Y-47007619D01*
X44220476Y-46960000D01*
X44172857Y-46912380D01*
X44125238Y-46817142D01*
X44125238Y-46674285D01*
X44172857Y-46579047D01*
X44220476Y-46531428D01*
X44315714Y-46483809D01*
X44696666Y-46483809D01*
X43839523Y-47007619D02*
X43506190Y-46007619D01*
X43172857Y-47007619D01*
X42887142Y-46912380D02*
X42839523Y-46960000D01*
X42744285Y-47007619D01*
X42506190Y-47007619D01*
X42410952Y-46960000D01*
X42363333Y-46912380D01*
X42315714Y-46817142D01*
X42315714Y-46721904D01*
X42363333Y-46579047D01*
X42934761Y-46007619D01*
X42315714Y-46007619D01*
X32085238Y-46067619D02*
X32418571Y-46543809D01*
X32656666Y-46067619D02*
X32656666Y-47067619D01*
X32275714Y-47067619D01*
X32180476Y-47020000D01*
X32132857Y-46972380D01*
X32085238Y-46877142D01*
X32085238Y-46734285D01*
X32132857Y-46639047D01*
X32180476Y-46591428D01*
X32275714Y-46543809D01*
X32656666Y-46543809D01*
X31799523Y-47067619D02*
X31466190Y-46067619D01*
X31132857Y-47067619D01*
X30275714Y-46067619D02*
X30847142Y-46067619D01*
X30561428Y-46067619D02*
X30561428Y-47067619D01*
X30656666Y-46924761D01*
X30751904Y-46829523D01*
X30847142Y-46781904D01*
X74058095Y-37262380D02*
X74058095Y-38071904D01*
X74105714Y-38167142D01*
X74153333Y-38214761D01*
X74248571Y-38262380D01*
X74439047Y-38262380D01*
X74534285Y-38214761D01*
X74581904Y-38167142D01*
X74629523Y-38071904D01*
X74629523Y-37262380D01*
X75010476Y-37262380D02*
X75629523Y-37262380D01*
X75296190Y-37643333D01*
X75439047Y-37643333D01*
X75534285Y-37690952D01*
X75581904Y-37738571D01*
X75629523Y-37833809D01*
X75629523Y-38071904D01*
X75581904Y-38167142D01*
X75534285Y-38214761D01*
X75439047Y-38262380D01*
X75153333Y-38262380D01*
X75058095Y-38214761D01*
X75010476Y-38167142D01*
D12*
X62220000Y-14450000D02*
X61820000Y-14450000D01*
X26320000Y-21250000D02*
X26320000Y-14450000D01*
X26320000Y-23450000D02*
X26320000Y-23850000D01*
X34220000Y-14450000D02*
X33820000Y-14450000D01*
X74920000Y-14450000D02*
X74520000Y-14450000D01*
X57120000Y-14450000D02*
X56720000Y-14450000D01*
X49520000Y-14450000D02*
X49120000Y-14450000D01*
X31720000Y-14450000D02*
X31320000Y-14450000D01*
X41820000Y-35450000D02*
X41420000Y-35450000D01*
X36720000Y-35450000D02*
X36320000Y-35450000D01*
X31720000Y-35450000D02*
X31320000Y-35450000D01*
X39320000Y-35450000D02*
X38920000Y-35450000D01*
X36720000Y-14450000D02*
X36320000Y-14450000D01*
X77320000Y-14450000D02*
X77320000Y-35450000D01*
X41820000Y-14450000D02*
X41420000Y-14450000D01*
X69820000Y-14450000D02*
X69420000Y-14450000D01*
X46920000Y-35450000D02*
X46520000Y-35450000D01*
X44420000Y-14450000D02*
X44020000Y-14450000D01*
X62220000Y-35450000D02*
X61820000Y-35450000D01*
X77320000Y-35450000D02*
X77020000Y-35450000D01*
X59620000Y-35450000D02*
X59220000Y-35450000D01*
X57120000Y-35450000D02*
X56720000Y-35450000D01*
X72320000Y-35450000D02*
X71920000Y-35450000D01*
X74920000Y-35450000D02*
X74520000Y-35450000D01*
X74653000Y-17457000D02*
X77320000Y-17457000D01*
X64720000Y-14450000D02*
X64320000Y-14450000D01*
X39320000Y-14450000D02*
X38920000Y-14450000D01*
X26320000Y-35450000D02*
X26320000Y-28650000D01*
X34220000Y-35450000D02*
X33820000Y-35450000D01*
X49520000Y-35450000D02*
X49120000Y-35450000D01*
X72320000Y-14450000D02*
X71920000Y-14450000D01*
X29120000Y-14450000D02*
X28720000Y-14450000D01*
X74653000Y-14450000D02*
X74653000Y-17457000D01*
X44420000Y-35450000D02*
X44020000Y-35450000D01*
X67220000Y-14450000D02*
X66820000Y-14450000D01*
X64720000Y-35450000D02*
X64320000Y-35450000D01*
X26320000Y-26050000D02*
X26320000Y-26450000D01*
X29120000Y-35450000D02*
X28720000Y-35450000D01*
X69820000Y-35450000D02*
X69420000Y-35450000D01*
X77320000Y-14450000D02*
X77020000Y-14450000D01*
X52020000Y-14450000D02*
X51620000Y-14450000D01*
X46920000Y-14450000D02*
X46520000Y-14450000D01*
X59620000Y-14450000D02*
X59220000Y-14450000D01*
X54520000Y-35450000D02*
X54120000Y-35450000D01*
X67220000Y-35450000D02*
X66820000Y-35450000D01*
X54520000Y-14450000D02*
X54120000Y-14450000D01*
X52020000Y-35450000D02*
X51620000Y-35450000D01*
D13*
X60390000Y-52050000D02*
X60390000Y-52700000D01*
X62082000Y-55600000D02*
X60398000Y-55600000D01*
X62090000Y-52050000D02*
X60390000Y-52050000D01*
X62090000Y-52700000D02*
X62090000Y-52050000D01*
X64677640Y-54879000D02*
G75*
G03*
X64677640Y-54879000I-50640J0D01*
G01*
X52910000Y-52050000D02*
X52910000Y-52700000D01*
X54602000Y-55600000D02*
X52918000Y-55600000D01*
X54610000Y-52050000D02*
X52910000Y-52050000D01*
X54610000Y-52700000D02*
X54610000Y-52050000D01*
X57197640Y-54879000D02*
G75*
G03*
X57197640Y-54879000I-50640J0D01*
G01*
D12*
X20875000Y-46095436D02*
X20875000Y-46549564D01*
X19405000Y-46095436D02*
X19405000Y-46549564D01*
X18855000Y-46070436D02*
X18855000Y-46524564D01*
X17385000Y-46070436D02*
X17385000Y-46524564D01*
X71065000Y-46310436D02*
X71065000Y-46764564D01*
X69595000Y-46310436D02*
X69595000Y-46764564D01*
X69155000Y-46285436D02*
X69155000Y-46739564D01*
X67685000Y-46285436D02*
X67685000Y-46739564D01*
D14*
X59780000Y-42850000D02*
X59780000Y-42850000D01*
X59880000Y-42850000D02*
X59880000Y-42850000D01*
X59780000Y-42850000D02*
G75*
G03*
X59880000Y-42850000I50000J0D01*
G01*
X59880000Y-42850000D02*
G75*
G03*
X59780000Y-42850000I-50000J0D01*
G01*
X19133821Y-48882500D02*
X19133821Y-48882500D01*
X19133821Y-48782500D02*
X19133821Y-48782500D01*
D13*
X15163821Y-56482500D02*
X24103821Y-56482500D01*
X24103821Y-56482500D02*
X24103821Y-55282500D01*
X15163821Y-55282500D02*
X15163821Y-56482500D01*
D14*
X19133821Y-48882500D02*
G75*
G03*
X19133821Y-48782500I0J50000D01*
G01*
X19133821Y-48782500D02*
G75*
G03*
X19133821Y-48882500I0J-50000D01*
G01*
X71030000Y-48950000D02*
X71030000Y-48950000D01*
D13*
X76000000Y-56650000D02*
X76000000Y-55450000D01*
D14*
X71030000Y-49050000D02*
X71030000Y-49050000D01*
D13*
X67060000Y-55450000D02*
X67060000Y-56650000D01*
X67060000Y-56650000D02*
X76000000Y-56650000D01*
D14*
X71030000Y-48950000D02*
G75*
G03*
X71030000Y-49050000I0J-50000D01*
G01*
X71030000Y-49050000D02*
G75*
G03*
X71030000Y-48950000I0J50000D01*
G01*
D12*
X48610000Y-48460000D02*
X48610000Y-45920000D01*
X46070000Y-51000000D02*
X48610000Y-48460000D01*
X38450000Y-48460000D02*
X40990000Y-51000000D01*
X48610000Y-45920000D02*
X38450000Y-45920000D01*
X40990000Y-51000000D02*
X46070000Y-51000000D01*
X38450000Y-45920000D02*
X38450000Y-48460000D01*
X39720000Y-49730000D02*
G75*
G03*
X47340000Y-49730000I3810000J-3810000D01*
G01*
X36570000Y-45980000D02*
X26410000Y-45980000D01*
X26410000Y-48520000D02*
X28950000Y-51060000D01*
X36570000Y-48520000D02*
X36570000Y-45980000D01*
X26410000Y-45980000D02*
X26410000Y-48520000D01*
X34030000Y-51060000D02*
X36570000Y-48520000D01*
X28950000Y-51060000D02*
X34030000Y-51060000D01*
X27680000Y-49790000D02*
G75*
G03*
X35300000Y-49790000I3810000J-3810000D01*
G01*
D13*
X44050000Y-41870000D02*
X44050000Y-41870000D01*
X44150000Y-41870000D02*
X44150000Y-41870000D01*
X44150000Y-41870000D02*
X44150000Y-41870000D01*
X44150000Y-41870000D02*
G75*
G03*
X44050000Y-41870000I-50000J0D01*
G01*
X44150000Y-41870000D02*
G75*
G03*
X44050000Y-41870000I-50000J0D01*
G01*
X44050000Y-41870000D02*
G75*
G03*
X44150000Y-41870000I50000J0D01*
G01*
%LPC*%
D15*
X60710000Y-16060000D03*
X55630000Y-16060000D03*
X53090000Y-16060000D03*
D16*
X75950000Y-15160000D03*
X73410000Y-15160000D03*
X70870000Y-15160000D03*
X68330000Y-15160000D03*
X65790000Y-15160000D03*
X63250000Y-15160000D03*
X60710000Y-15160000D03*
X58170000Y-15160000D03*
X55630000Y-15160000D03*
X53090000Y-15160000D03*
X50550000Y-15160000D03*
D15*
X50550000Y-16060000D03*
D16*
X48010000Y-15160000D03*
D15*
X48010000Y-16060000D03*
D16*
X45470000Y-15160000D03*
X42930000Y-15160000D03*
X40390000Y-15160000D03*
X37850000Y-15160000D03*
X35310000Y-15160000D03*
X32770000Y-15160000D03*
X30230000Y-15160000D03*
X27690000Y-15160000D03*
X27690000Y-34740000D03*
X30230000Y-34740000D03*
X32770000Y-34740000D03*
X35310000Y-34740000D03*
X37850000Y-34740000D03*
X40390000Y-34740000D03*
D15*
X40390000Y-33800000D03*
X42930000Y-33840000D03*
D16*
X42930000Y-34740000D03*
X45470000Y-34740000D03*
X48010000Y-34740000D03*
X50550000Y-34740000D03*
D15*
X53090000Y-33840000D03*
D16*
X53090000Y-34740000D03*
D15*
X55630000Y-33840000D03*
D16*
X55630000Y-34740000D03*
X58170000Y-34740000D03*
X60710000Y-34740000D03*
X63250000Y-34740000D03*
D15*
X65790000Y-33840000D03*
D16*
X65790000Y-34740000D03*
X68330000Y-34740000D03*
X70870000Y-34740000D03*
X73410000Y-34740000D03*
D15*
X75950000Y-33840000D03*
D16*
X75950000Y-34740000D03*
D17*
X27020000Y-22410000D03*
X27020000Y-24950000D03*
X27020000Y-27490000D03*
D18*
X63265000Y-54950000D03*
D19*
X63265000Y-53350000D03*
X59215000Y-53350000D03*
D18*
X59215000Y-54950000D03*
X55785000Y-54950000D03*
D19*
X55785000Y-53350000D03*
X51735000Y-53350000D03*
D18*
X51735000Y-54950000D03*
D20*
X20140000Y-45410000D03*
X20140000Y-47235000D03*
X18120000Y-45385000D03*
X18120000Y-47210000D03*
X70330000Y-45625000D03*
X70330000Y-47450000D03*
X68420000Y-45600000D03*
X68420000Y-47425000D03*
D21*
X60585000Y-42850000D03*
X60585000Y-43350000D03*
X60585000Y-43850000D03*
X60585000Y-44350000D03*
D22*
X61130000Y-44415000D03*
X61630000Y-44415000D03*
D21*
X62175000Y-44350000D03*
X62175000Y-43850000D03*
X62175000Y-43350000D03*
X62175000Y-42850000D03*
D22*
X61630000Y-42785000D03*
X61130000Y-42785000D03*
D23*
X64550000Y-42700000D03*
X64550000Y-44300000D03*
D24*
X16300000Y-19450000D03*
X16300000Y-22450000D03*
X16300000Y-25450000D03*
X16300000Y-28450000D03*
D25*
X19133821Y-50002500D03*
D26*
X21153821Y-50002500D03*
D27*
X22383821Y-50002500D03*
D25*
X20133821Y-50002500D03*
D26*
X18113821Y-50002500D03*
D27*
X16883821Y-50002500D03*
D28*
X15313821Y-50082500D03*
X15313821Y-53882500D03*
X23953821Y-53882500D03*
X23953821Y-50082500D03*
D25*
X71030000Y-50170000D03*
D26*
X73050000Y-50170000D03*
D27*
X74280000Y-50170000D03*
D25*
X72030000Y-50170000D03*
D26*
X70010000Y-50170000D03*
D27*
X68780000Y-50170000D03*
D28*
X67210000Y-50250000D03*
X67210000Y-54050000D03*
X75850000Y-54050000D03*
X75850000Y-50250000D03*
D29*
X46070000Y-48460000D03*
X43530000Y-48460000D03*
X40990000Y-48460000D03*
X34030000Y-48520000D03*
X31490000Y-48520000D03*
X28950000Y-48520000D03*
D30*
X42820000Y-41870000D03*
X42820000Y-40220000D03*
X42820000Y-38570000D03*
X40480000Y-38570000D03*
X40480000Y-40220000D03*
D31*
X40580000Y-41770000D03*
D32*
X41040000Y-44660000D03*
X42640000Y-44660000D03*
D24*
X16210000Y-31210000D03*
X16210000Y-34210000D03*
X16210000Y-37210000D03*
X16210000Y-40210000D03*
D33*
X15400000Y-15560000D03*
X18400000Y-15560000D03*
X21400000Y-15560000D03*
X24400000Y-15560000D03*
D24*
X74820000Y-38310000D03*
X74820000Y-41310000D03*
X74820000Y-44310000D03*
X74820000Y-47310000D03*
M02*
