%FSLAX45Y45*%
G04 Gerber Fmt 4.5, Leading zero omitted, Abs format (unit mm)*
G04 Created by KiCad (PCBNEW (6.0.6)) date 2022-06-29 14:15:08*
%MOMM*%
%LPD*%
G01*
G04 APERTURE LIST*
%TA.AperFunction,Profile*%
%ADD10C,0.200000*%
%TD*%
%ADD11C,0.200000*%
G04 APERTURE END LIST*
D10*
X1335000Y-1287725D02*
X7751000Y-1287725D01*
X7751000Y-1287725D02*
X7751000Y-5614000D01*
X7751000Y-5614000D02*
X1335000Y-5614000D01*
X1335000Y-5614000D02*
X1335000Y-1287725D01*
D11*
X1582619Y-5934476D02*
X1582619Y-5734476D01*
X1630238Y-5734476D01*
X1658809Y-5744000D01*
X1677857Y-5763048D01*
X1687381Y-5782095D01*
X1696905Y-5820190D01*
X1696905Y-5848762D01*
X1687381Y-5886857D01*
X1677857Y-5905905D01*
X1658809Y-5924952D01*
X1630238Y-5934476D01*
X1582619Y-5934476D01*
X1782619Y-5934476D02*
X1782619Y-5801143D01*
X1782619Y-5839238D02*
X1792143Y-5820190D01*
X1801667Y-5810667D01*
X1820714Y-5801143D01*
X1839762Y-5801143D01*
X1906428Y-5934476D02*
X1906428Y-5801143D01*
X1906428Y-5734476D02*
X1896905Y-5744000D01*
X1906428Y-5753524D01*
X1915952Y-5744000D01*
X1906428Y-5734476D01*
X1906428Y-5753524D01*
X2030238Y-5934476D02*
X2011190Y-5924952D01*
X2001667Y-5905905D01*
X2001667Y-5734476D01*
X2135000Y-5934476D02*
X2115952Y-5924952D01*
X2106429Y-5905905D01*
X2106429Y-5734476D01*
X2363571Y-5934476D02*
X2363571Y-5734476D01*
X2430238Y-5877333D01*
X2496905Y-5734476D01*
X2496905Y-5934476D01*
X2677857Y-5934476D02*
X2677857Y-5829714D01*
X2668333Y-5810667D01*
X2649286Y-5801143D01*
X2611190Y-5801143D01*
X2592143Y-5810667D01*
X2677857Y-5924952D02*
X2658810Y-5934476D01*
X2611190Y-5934476D01*
X2592143Y-5924952D01*
X2582619Y-5905905D01*
X2582619Y-5886857D01*
X2592143Y-5867809D01*
X2611190Y-5858286D01*
X2658810Y-5858286D01*
X2677857Y-5848762D01*
X2773095Y-5801143D02*
X2773095Y-6001143D01*
X2773095Y-5810667D02*
X2792143Y-5801143D01*
X2830238Y-5801143D01*
X2849286Y-5810667D01*
X2858809Y-5820190D01*
X2868333Y-5839238D01*
X2868333Y-5896381D01*
X2858809Y-5915428D01*
X2849286Y-5924952D01*
X2830238Y-5934476D01*
X2792143Y-5934476D01*
X2773095Y-5924952D01*
X2954048Y-5915428D02*
X2963571Y-5924952D01*
X2954048Y-5934476D01*
X2944524Y-5924952D01*
X2954048Y-5915428D01*
X2954048Y-5934476D01*
X2954048Y-5810667D02*
X2963571Y-5820190D01*
X2954048Y-5829714D01*
X2944524Y-5820190D01*
X2954048Y-5810667D01*
X2954048Y-5829714D01*
M02*
