%FSLAX45Y45*%
G04 Gerber Fmt 4.5, Leading zero omitted, Abs format (unit mm)*
G04 Created by KiCad (PCBNEW (6.0.6)) date 2022-06-29 14:15:08*
%MOMM*%
%LPD*%
G01*
G04 APERTURE LIST*
%TA.AperFunction,Profile*%
%ADD10C,0.200000*%
%TD*%
%ADD11C,0.200000*%
%ADD12C,0.040000*%
%ADD13C,0.070000*%
%ADD14C,0.076200*%
%ADD15C,0.102000*%
%ADD16C,0.134000*%
G04 APERTURE END LIST*
D10*
X1335000Y-1287725D02*
X7751000Y-1287725D01*
X7751000Y-1287725D02*
X7751000Y-5614000D01*
X7751000Y-5614000D02*
X1335000Y-5614000D01*
X1335000Y-5614000D02*
X1335000Y-1287725D01*
D11*
D12*
X1610000Y-2821000D02*
X1650000Y-2861000D01*
X1650000Y-2821000D02*
X1610000Y-2861000D01*
X2428000Y-1543000D02*
X2468000Y-1583000D01*
X2468000Y-1543000D02*
X2428000Y-1583000D01*
X4527000Y-3460000D02*
X4567000Y-3500000D01*
X4567000Y-3460000D02*
X4527000Y-3500000D01*
X5170000Y-5057000D02*
X5210000Y-5097000D01*
X5210000Y-5057000D02*
X5170000Y-5097000D01*
X5799000Y-3449000D02*
X5839000Y-3489000D01*
X5839000Y-3449000D02*
X5799000Y-3489000D01*
X5882000Y-4153000D02*
X5922000Y-4193000D01*
X5922000Y-4153000D02*
X5882000Y-4193000D01*
X5945000Y-5059000D02*
X5985000Y-5099000D01*
X5985000Y-5059000D02*
X5945000Y-5099000D01*
X5985000Y-4154000D02*
X6025000Y-4194000D01*
X6025000Y-4154000D02*
X5985000Y-4194000D01*
X6085000Y-4155000D02*
X6125000Y-4195000D01*
X6125000Y-4155000D02*
X6085000Y-4195000D01*
X6880000Y-4080000D02*
X6920000Y-4120000D01*
X6920000Y-4080000D02*
X6880000Y-4120000D01*
X6881000Y-3080050D02*
X6921000Y-3120050D01*
X6921000Y-3080050D02*
X6881000Y-3120050D01*
X7080000Y-4080000D02*
X7120000Y-4120000D01*
X7120000Y-4080000D02*
X7080000Y-4120000D01*
X7081000Y-3081000D02*
X7121000Y-3121000D01*
X7121000Y-3081000D02*
X7081000Y-3121000D01*
D13*
X5208500Y-5495000D02*
G75*
G03*
X5208500Y-5495000I-35000J0D01*
G01*
X5613500Y-5495000D02*
G75*
G03*
X5613500Y-5495000I-35000J0D01*
G01*
X5956500Y-5495000D02*
G75*
G03*
X5956500Y-5495000I-35000J0D01*
G01*
X6361500Y-5495000D02*
G75*
G03*
X6361500Y-5495000I-35000J0D01*
G01*
D14*
X2895000Y-4813900D02*
X2895000Y-4890100D01*
X2856900Y-4852000D02*
X2933100Y-4852000D01*
X3149000Y-4813900D02*
X3149000Y-4890100D01*
X3110900Y-4852000D02*
X3187100Y-4852000D01*
X3403000Y-4813900D02*
X3403000Y-4890100D01*
X3364900Y-4852000D02*
X3441100Y-4852000D01*
X4099000Y-4807900D02*
X4099000Y-4884100D01*
X4060900Y-4846000D02*
X4137100Y-4846000D01*
X4353000Y-4807900D02*
X4353000Y-4884100D01*
X4314900Y-4846000D02*
X4391100Y-4846000D01*
X4607000Y-4807900D02*
X4607000Y-4884100D01*
X4568900Y-4846000D02*
X4645100Y-4846000D01*
D15*
X4075063Y-3416063D02*
X4075063Y-3343937D01*
X4002937Y-3343937D01*
X4002937Y-3416063D01*
X4075063Y-3416063D01*
X4329063Y-3420063D02*
X4329063Y-3347937D01*
X4256937Y-3347937D01*
X4256937Y-3420063D01*
X4329063Y-3420063D01*
X4837063Y-1642063D02*
X4837063Y-1569937D01*
X4764937Y-1569937D01*
X4764937Y-1642063D01*
X4837063Y-1642063D01*
X5091063Y-1642063D02*
X5091063Y-1569937D01*
X5018937Y-1569937D01*
X5018937Y-1642063D01*
X5091063Y-1642063D01*
X5345063Y-1642063D02*
X5345063Y-1569937D01*
X5272937Y-1569937D01*
X5272937Y-1642063D01*
X5345063Y-1642063D01*
X5345063Y-3420063D02*
X5345063Y-3347937D01*
X5272937Y-3347937D01*
X5272937Y-3420063D01*
X5345063Y-3420063D01*
X5599063Y-1642063D02*
X5599063Y-1569937D01*
X5526937Y-1569937D01*
X5526937Y-1642063D01*
X5599063Y-1642063D01*
X5599063Y-3420063D02*
X5599063Y-3347937D01*
X5526937Y-3347937D01*
X5526937Y-3420063D01*
X5599063Y-3420063D01*
X6107063Y-1642063D02*
X6107063Y-1569937D01*
X6034937Y-1569937D01*
X6034937Y-1642063D01*
X6107063Y-1642063D01*
X6615063Y-3420063D02*
X6615063Y-3347937D01*
X6542937Y-3347937D01*
X6542937Y-3420063D01*
X6615063Y-3420063D01*
X7631063Y-3420063D02*
X7631063Y-3347937D01*
X7558937Y-3347937D01*
X7558937Y-3420063D01*
X7631063Y-3420063D01*
D16*
X1531382Y-5075250D02*
X1598382Y-5008250D01*
X1531382Y-4941250D01*
X1464382Y-5008250D01*
X1531382Y-5075250D01*
X1531382Y-5455250D02*
X1598382Y-5388250D01*
X1531382Y-5321250D01*
X1464382Y-5388250D01*
X1531382Y-5455250D01*
X2395382Y-5075250D02*
X2462382Y-5008250D01*
X2395382Y-4941250D01*
X2328382Y-5008250D01*
X2395382Y-5075250D01*
X2395382Y-5455250D02*
X2462382Y-5388250D01*
X2395382Y-5321250D01*
X2328382Y-5388250D01*
X2395382Y-5455250D01*
X6721000Y-5092000D02*
X6788000Y-5025000D01*
X6721000Y-4958000D01*
X6654000Y-5025000D01*
X6721000Y-5092000D01*
X6721000Y-5472000D02*
X6788000Y-5405000D01*
X6721000Y-5338000D01*
X6654000Y-5405000D01*
X6721000Y-5472000D01*
X7585000Y-5092000D02*
X7652000Y-5025000D01*
X7585000Y-4958000D01*
X7518000Y-5025000D01*
X7585000Y-5092000D01*
X7585000Y-5472000D02*
X7652000Y-5405000D01*
X7585000Y-5338000D01*
X7518000Y-5405000D01*
X7585000Y-5472000D01*
D11*
X1582619Y-5934476D02*
X1582619Y-5734476D01*
X1630238Y-5734476D01*
X1658809Y-5744000D01*
X1677857Y-5763048D01*
X1687381Y-5782095D01*
X1696905Y-5820190D01*
X1696905Y-5848762D01*
X1687381Y-5886857D01*
X1677857Y-5905905D01*
X1658809Y-5924952D01*
X1630238Y-5934476D01*
X1582619Y-5934476D01*
X1782619Y-5934476D02*
X1782619Y-5801143D01*
X1782619Y-5839238D02*
X1792143Y-5820190D01*
X1801667Y-5810667D01*
X1820714Y-5801143D01*
X1839762Y-5801143D01*
X1906428Y-5934476D02*
X1906428Y-5801143D01*
X1906428Y-5734476D02*
X1896905Y-5744000D01*
X1906428Y-5753524D01*
X1915952Y-5744000D01*
X1906428Y-5734476D01*
X1906428Y-5753524D01*
X2030238Y-5934476D02*
X2011190Y-5924952D01*
X2001667Y-5905905D01*
X2001667Y-5734476D01*
X2135000Y-5934476D02*
X2115952Y-5924952D01*
X2106429Y-5905905D01*
X2106429Y-5734476D01*
X2363571Y-5934476D02*
X2363571Y-5734476D01*
X2430238Y-5877333D01*
X2496905Y-5734476D01*
X2496905Y-5934476D01*
X2677857Y-5934476D02*
X2677857Y-5829714D01*
X2668333Y-5810667D01*
X2649286Y-5801143D01*
X2611190Y-5801143D01*
X2592143Y-5810667D01*
X2677857Y-5924952D02*
X2658810Y-5934476D01*
X2611190Y-5934476D01*
X2592143Y-5924952D01*
X2582619Y-5905905D01*
X2582619Y-5886857D01*
X2592143Y-5867809D01*
X2611190Y-5858286D01*
X2658810Y-5858286D01*
X2677857Y-5848762D01*
X2773095Y-5801143D02*
X2773095Y-6001143D01*
X2773095Y-5810667D02*
X2792143Y-5801143D01*
X2830238Y-5801143D01*
X2849286Y-5810667D01*
X2858809Y-5820190D01*
X2868333Y-5839238D01*
X2868333Y-5896381D01*
X2858809Y-5915428D01*
X2849286Y-5924952D01*
X2830238Y-5934476D01*
X2792143Y-5934476D01*
X2773095Y-5924952D01*
X2954048Y-5915428D02*
X2963571Y-5924952D01*
X2954048Y-5934476D01*
X2944524Y-5924952D01*
X2954048Y-5915428D01*
X2954048Y-5934476D01*
X2954048Y-5810667D02*
X2963571Y-5820190D01*
X2954048Y-5829714D01*
X2944524Y-5820190D01*
X2954048Y-5810667D01*
X2954048Y-5829714D01*
D12*
X1285000Y-6244000D02*
X1325000Y-6284000D01*
X1325000Y-6244000D02*
X1285000Y-6284000D01*
D11*
X1620714Y-6154476D02*
X1639762Y-6154476D01*
X1658809Y-6164000D01*
X1668333Y-6173524D01*
X1677857Y-6192571D01*
X1687381Y-6230667D01*
X1687381Y-6278286D01*
X1677857Y-6316381D01*
X1668333Y-6335428D01*
X1658809Y-6344952D01*
X1639762Y-6354476D01*
X1620714Y-6354476D01*
X1601667Y-6344952D01*
X1592143Y-6335428D01*
X1582619Y-6316381D01*
X1573095Y-6278286D01*
X1573095Y-6230667D01*
X1582619Y-6192571D01*
X1592143Y-6173524D01*
X1601667Y-6164000D01*
X1620714Y-6154476D01*
X1773095Y-6335428D02*
X1782619Y-6344952D01*
X1773095Y-6354476D01*
X1763571Y-6344952D01*
X1773095Y-6335428D01*
X1773095Y-6354476D01*
X1954048Y-6221143D02*
X1954048Y-6354476D01*
X1906428Y-6144952D02*
X1858809Y-6287809D01*
X1982619Y-6287809D01*
X2096905Y-6154476D02*
X2115952Y-6154476D01*
X2135000Y-6164000D01*
X2144524Y-6173524D01*
X2154048Y-6192571D01*
X2163571Y-6230667D01*
X2163571Y-6278286D01*
X2154048Y-6316381D01*
X2144524Y-6335428D01*
X2135000Y-6344952D01*
X2115952Y-6354476D01*
X2096905Y-6354476D01*
X2077857Y-6344952D01*
X2068333Y-6335428D01*
X2058809Y-6316381D01*
X2049286Y-6278286D01*
X2049286Y-6230667D01*
X2058809Y-6192571D01*
X2068333Y-6173524D01*
X2077857Y-6164000D01*
X2096905Y-6154476D01*
X2287381Y-6154476D02*
X2306429Y-6154476D01*
X2325476Y-6164000D01*
X2335000Y-6173524D01*
X2344524Y-6192571D01*
X2354048Y-6230667D01*
X2354048Y-6278286D01*
X2344524Y-6316381D01*
X2335000Y-6335428D01*
X2325476Y-6344952D01*
X2306429Y-6354476D01*
X2287381Y-6354476D01*
X2268333Y-6344952D01*
X2258810Y-6335428D01*
X2249286Y-6316381D01*
X2239762Y-6278286D01*
X2239762Y-6230667D01*
X2249286Y-6192571D01*
X2258810Y-6173524D01*
X2268333Y-6164000D01*
X2287381Y-6154476D01*
X2439762Y-6354476D02*
X2439762Y-6221143D01*
X2439762Y-6240190D02*
X2449286Y-6230667D01*
X2468333Y-6221143D01*
X2496905Y-6221143D01*
X2515952Y-6230667D01*
X2525476Y-6249714D01*
X2525476Y-6354476D01*
X2525476Y-6249714D02*
X2535000Y-6230667D01*
X2554048Y-6221143D01*
X2582619Y-6221143D01*
X2601667Y-6230667D01*
X2611190Y-6249714D01*
X2611190Y-6354476D01*
X2706429Y-6354476D02*
X2706429Y-6221143D01*
X2706429Y-6240190D02*
X2715952Y-6230667D01*
X2735000Y-6221143D01*
X2763571Y-6221143D01*
X2782619Y-6230667D01*
X2792143Y-6249714D01*
X2792143Y-6354476D01*
X2792143Y-6249714D02*
X2801667Y-6230667D01*
X2820714Y-6221143D01*
X2849286Y-6221143D01*
X2868333Y-6230667D01*
X2877857Y-6249714D01*
X2877857Y-6354476D01*
X3268333Y-6144952D02*
X3096905Y-6402095D01*
X3525476Y-6154476D02*
X3544524Y-6154476D01*
X3563571Y-6164000D01*
X3573095Y-6173524D01*
X3582619Y-6192571D01*
X3592143Y-6230667D01*
X3592143Y-6278286D01*
X3582619Y-6316381D01*
X3573095Y-6335428D01*
X3563571Y-6344952D01*
X3544524Y-6354476D01*
X3525476Y-6354476D01*
X3506428Y-6344952D01*
X3496905Y-6335428D01*
X3487381Y-6316381D01*
X3477857Y-6278286D01*
X3477857Y-6230667D01*
X3487381Y-6192571D01*
X3496905Y-6173524D01*
X3506428Y-6164000D01*
X3525476Y-6154476D01*
X3677857Y-6335428D02*
X3687381Y-6344952D01*
X3677857Y-6354476D01*
X3668333Y-6344952D01*
X3677857Y-6335428D01*
X3677857Y-6354476D01*
X3811190Y-6154476D02*
X3830238Y-6154476D01*
X3849286Y-6164000D01*
X3858809Y-6173524D01*
X3868333Y-6192571D01*
X3877857Y-6230667D01*
X3877857Y-6278286D01*
X3868333Y-6316381D01*
X3858809Y-6335428D01*
X3849286Y-6344952D01*
X3830238Y-6354476D01*
X3811190Y-6354476D01*
X3792143Y-6344952D01*
X3782619Y-6335428D01*
X3773095Y-6316381D01*
X3763571Y-6278286D01*
X3763571Y-6230667D01*
X3773095Y-6192571D01*
X3782619Y-6173524D01*
X3792143Y-6164000D01*
X3811190Y-6154476D01*
X4068333Y-6354476D02*
X3954048Y-6354476D01*
X4011190Y-6354476D02*
X4011190Y-6154476D01*
X3992143Y-6183048D01*
X3973095Y-6202095D01*
X3954048Y-6211619D01*
X4249286Y-6154476D02*
X4154048Y-6154476D01*
X4144524Y-6249714D01*
X4154048Y-6240190D01*
X4173095Y-6230667D01*
X4220714Y-6230667D01*
X4239762Y-6240190D01*
X4249286Y-6249714D01*
X4258810Y-6268762D01*
X4258810Y-6316381D01*
X4249286Y-6335428D01*
X4239762Y-6344952D01*
X4220714Y-6354476D01*
X4173095Y-6354476D01*
X4154048Y-6344952D01*
X4144524Y-6335428D01*
X4325476Y-6154476D02*
X4458810Y-6154476D01*
X4373095Y-6354476D01*
X4525476Y-6154476D02*
X4525476Y-6192571D01*
X4601667Y-6154476D02*
X4601667Y-6192571D01*
X4896905Y-6430667D02*
X4887381Y-6421143D01*
X4868333Y-6392571D01*
X4858810Y-6373524D01*
X4849286Y-6344952D01*
X4839762Y-6297333D01*
X4839762Y-6259238D01*
X4849286Y-6211619D01*
X4858810Y-6183048D01*
X4868333Y-6164000D01*
X4887381Y-6135428D01*
X4896905Y-6125905D01*
X5077857Y-6354476D02*
X4963571Y-6354476D01*
X5020714Y-6354476D02*
X5020714Y-6154476D01*
X5001667Y-6183048D01*
X4982619Y-6202095D01*
X4963571Y-6211619D01*
X5144524Y-6154476D02*
X5268333Y-6154476D01*
X5201667Y-6230667D01*
X5230238Y-6230667D01*
X5249286Y-6240190D01*
X5258810Y-6249714D01*
X5268333Y-6268762D01*
X5268333Y-6316381D01*
X5258810Y-6335428D01*
X5249286Y-6344952D01*
X5230238Y-6354476D01*
X5173095Y-6354476D01*
X5154048Y-6344952D01*
X5144524Y-6335428D01*
X5506429Y-6354476D02*
X5506429Y-6154476D01*
X5592143Y-6354476D02*
X5592143Y-6249714D01*
X5582619Y-6230667D01*
X5563571Y-6221143D01*
X5535000Y-6221143D01*
X5515952Y-6230667D01*
X5506429Y-6240190D01*
X5715952Y-6354476D02*
X5696905Y-6344952D01*
X5687381Y-6335428D01*
X5677857Y-6316381D01*
X5677857Y-6259238D01*
X5687381Y-6240190D01*
X5696905Y-6230667D01*
X5715952Y-6221143D01*
X5744524Y-6221143D01*
X5763571Y-6230667D01*
X5773095Y-6240190D01*
X5782619Y-6259238D01*
X5782619Y-6316381D01*
X5773095Y-6335428D01*
X5763571Y-6344952D01*
X5744524Y-6354476D01*
X5715952Y-6354476D01*
X5896905Y-6354476D02*
X5877857Y-6344952D01*
X5868333Y-6325905D01*
X5868333Y-6154476D01*
X6049286Y-6344952D02*
X6030238Y-6354476D01*
X5992143Y-6354476D01*
X5973095Y-6344952D01*
X5963571Y-6325905D01*
X5963571Y-6249714D01*
X5973095Y-6230667D01*
X5992143Y-6221143D01*
X6030238Y-6221143D01*
X6049286Y-6230667D01*
X6058809Y-6249714D01*
X6058809Y-6268762D01*
X5963571Y-6287809D01*
X6135000Y-6344952D02*
X6154048Y-6354476D01*
X6192143Y-6354476D01*
X6211190Y-6344952D01*
X6220714Y-6325905D01*
X6220714Y-6316381D01*
X6211190Y-6297333D01*
X6192143Y-6287809D01*
X6163571Y-6287809D01*
X6144524Y-6278286D01*
X6135000Y-6259238D01*
X6135000Y-6249714D01*
X6144524Y-6230667D01*
X6163571Y-6221143D01*
X6192143Y-6221143D01*
X6211190Y-6230667D01*
X6287381Y-6430667D02*
X6296905Y-6421143D01*
X6315952Y-6392571D01*
X6325476Y-6373524D01*
X6335000Y-6344952D01*
X6344524Y-6297333D01*
X6344524Y-6259238D01*
X6335000Y-6211619D01*
X6325476Y-6183048D01*
X6315952Y-6164000D01*
X6296905Y-6135428D01*
X6287381Y-6125905D01*
D13*
X1325000Y-6528000D02*
G75*
G03*
X1325000Y-6528000I-35000J0D01*
G01*
D11*
X1620714Y-6418476D02*
X1639762Y-6418476D01*
X1658809Y-6428000D01*
X1668333Y-6437524D01*
X1677857Y-6456571D01*
X1687381Y-6494667D01*
X1687381Y-6542286D01*
X1677857Y-6580381D01*
X1668333Y-6599428D01*
X1658809Y-6608952D01*
X1639762Y-6618476D01*
X1620714Y-6618476D01*
X1601667Y-6608952D01*
X1592143Y-6599428D01*
X1582619Y-6580381D01*
X1573095Y-6542286D01*
X1573095Y-6494667D01*
X1582619Y-6456571D01*
X1592143Y-6437524D01*
X1601667Y-6428000D01*
X1620714Y-6418476D01*
X1773095Y-6599428D02*
X1782619Y-6608952D01*
X1773095Y-6618476D01*
X1763571Y-6608952D01*
X1773095Y-6599428D01*
X1773095Y-6618476D01*
X1849286Y-6418476D02*
X1982619Y-6418476D01*
X1896905Y-6618476D01*
X2096905Y-6418476D02*
X2115952Y-6418476D01*
X2135000Y-6428000D01*
X2144524Y-6437524D01*
X2154048Y-6456571D01*
X2163571Y-6494667D01*
X2163571Y-6542286D01*
X2154048Y-6580381D01*
X2144524Y-6599428D01*
X2135000Y-6608952D01*
X2115952Y-6618476D01*
X2096905Y-6618476D01*
X2077857Y-6608952D01*
X2068333Y-6599428D01*
X2058809Y-6580381D01*
X2049286Y-6542286D01*
X2049286Y-6494667D01*
X2058809Y-6456571D01*
X2068333Y-6437524D01*
X2077857Y-6428000D01*
X2096905Y-6418476D01*
X2287381Y-6418476D02*
X2306429Y-6418476D01*
X2325476Y-6428000D01*
X2335000Y-6437524D01*
X2344524Y-6456571D01*
X2354048Y-6494667D01*
X2354048Y-6542286D01*
X2344524Y-6580381D01*
X2335000Y-6599428D01*
X2325476Y-6608952D01*
X2306429Y-6618476D01*
X2287381Y-6618476D01*
X2268333Y-6608952D01*
X2258810Y-6599428D01*
X2249286Y-6580381D01*
X2239762Y-6542286D01*
X2239762Y-6494667D01*
X2249286Y-6456571D01*
X2258810Y-6437524D01*
X2268333Y-6428000D01*
X2287381Y-6418476D01*
X2439762Y-6618476D02*
X2439762Y-6485143D01*
X2439762Y-6504190D02*
X2449286Y-6494667D01*
X2468333Y-6485143D01*
X2496905Y-6485143D01*
X2515952Y-6494667D01*
X2525476Y-6513714D01*
X2525476Y-6618476D01*
X2525476Y-6513714D02*
X2535000Y-6494667D01*
X2554048Y-6485143D01*
X2582619Y-6485143D01*
X2601667Y-6494667D01*
X2611190Y-6513714D01*
X2611190Y-6618476D01*
X2706429Y-6618476D02*
X2706429Y-6485143D01*
X2706429Y-6504190D02*
X2715952Y-6494667D01*
X2735000Y-6485143D01*
X2763571Y-6485143D01*
X2782619Y-6494667D01*
X2792143Y-6513714D01*
X2792143Y-6618476D01*
X2792143Y-6513714D02*
X2801667Y-6494667D01*
X2820714Y-6485143D01*
X2849286Y-6485143D01*
X2868333Y-6494667D01*
X2877857Y-6513714D01*
X2877857Y-6618476D01*
X3268333Y-6408952D02*
X3096905Y-6666095D01*
X3525476Y-6418476D02*
X3544524Y-6418476D01*
X3563571Y-6428000D01*
X3573095Y-6437524D01*
X3582619Y-6456571D01*
X3592143Y-6494667D01*
X3592143Y-6542286D01*
X3582619Y-6580381D01*
X3573095Y-6599428D01*
X3563571Y-6608952D01*
X3544524Y-6618476D01*
X3525476Y-6618476D01*
X3506428Y-6608952D01*
X3496905Y-6599428D01*
X3487381Y-6580381D01*
X3477857Y-6542286D01*
X3477857Y-6494667D01*
X3487381Y-6456571D01*
X3496905Y-6437524D01*
X3506428Y-6428000D01*
X3525476Y-6418476D01*
X3677857Y-6599428D02*
X3687381Y-6608952D01*
X3677857Y-6618476D01*
X3668333Y-6608952D01*
X3677857Y-6599428D01*
X3677857Y-6618476D01*
X3811190Y-6418476D02*
X3830238Y-6418476D01*
X3849286Y-6428000D01*
X3858809Y-6437524D01*
X3868333Y-6456571D01*
X3877857Y-6494667D01*
X3877857Y-6542286D01*
X3868333Y-6580381D01*
X3858809Y-6599428D01*
X3849286Y-6608952D01*
X3830238Y-6618476D01*
X3811190Y-6618476D01*
X3792143Y-6608952D01*
X3782619Y-6599428D01*
X3773095Y-6580381D01*
X3763571Y-6542286D01*
X3763571Y-6494667D01*
X3773095Y-6456571D01*
X3782619Y-6437524D01*
X3792143Y-6428000D01*
X3811190Y-6418476D01*
X3954048Y-6437524D02*
X3963571Y-6428000D01*
X3982619Y-6418476D01*
X4030238Y-6418476D01*
X4049286Y-6428000D01*
X4058809Y-6437524D01*
X4068333Y-6456571D01*
X4068333Y-6475619D01*
X4058809Y-6504190D01*
X3944524Y-6618476D01*
X4068333Y-6618476D01*
X4135000Y-6418476D02*
X4268333Y-6418476D01*
X4182619Y-6618476D01*
X4430238Y-6418476D02*
X4392143Y-6418476D01*
X4373095Y-6428000D01*
X4363571Y-6437524D01*
X4344524Y-6466095D01*
X4335000Y-6504190D01*
X4335000Y-6580381D01*
X4344524Y-6599428D01*
X4354048Y-6608952D01*
X4373095Y-6618476D01*
X4411190Y-6618476D01*
X4430238Y-6608952D01*
X4439762Y-6599428D01*
X4449286Y-6580381D01*
X4449286Y-6532762D01*
X4439762Y-6513714D01*
X4430238Y-6504190D01*
X4411190Y-6494667D01*
X4373095Y-6494667D01*
X4354048Y-6504190D01*
X4344524Y-6513714D01*
X4335000Y-6532762D01*
X4525476Y-6418476D02*
X4525476Y-6456571D01*
X4601667Y-6418476D02*
X4601667Y-6456571D01*
X4896905Y-6694667D02*
X4887381Y-6685143D01*
X4868333Y-6656571D01*
X4858810Y-6637524D01*
X4849286Y-6608952D01*
X4839762Y-6561333D01*
X4839762Y-6523238D01*
X4849286Y-6475619D01*
X4858810Y-6447048D01*
X4868333Y-6428000D01*
X4887381Y-6399428D01*
X4896905Y-6389905D01*
X5058810Y-6485143D02*
X5058810Y-6618476D01*
X5011190Y-6408952D02*
X4963571Y-6551809D01*
X5087381Y-6551809D01*
X5315952Y-6618476D02*
X5315952Y-6418476D01*
X5401667Y-6618476D02*
X5401667Y-6513714D01*
X5392143Y-6494667D01*
X5373095Y-6485143D01*
X5344524Y-6485143D01*
X5325476Y-6494667D01*
X5315952Y-6504190D01*
X5525476Y-6618476D02*
X5506429Y-6608952D01*
X5496905Y-6599428D01*
X5487381Y-6580381D01*
X5487381Y-6523238D01*
X5496905Y-6504190D01*
X5506429Y-6494667D01*
X5525476Y-6485143D01*
X5554048Y-6485143D01*
X5573095Y-6494667D01*
X5582619Y-6504190D01*
X5592143Y-6523238D01*
X5592143Y-6580381D01*
X5582619Y-6599428D01*
X5573095Y-6608952D01*
X5554048Y-6618476D01*
X5525476Y-6618476D01*
X5706428Y-6618476D02*
X5687381Y-6608952D01*
X5677857Y-6589905D01*
X5677857Y-6418476D01*
X5858809Y-6608952D02*
X5839762Y-6618476D01*
X5801667Y-6618476D01*
X5782619Y-6608952D01*
X5773095Y-6589905D01*
X5773095Y-6513714D01*
X5782619Y-6494667D01*
X5801667Y-6485143D01*
X5839762Y-6485143D01*
X5858809Y-6494667D01*
X5868333Y-6513714D01*
X5868333Y-6532762D01*
X5773095Y-6551809D01*
X5944524Y-6608952D02*
X5963571Y-6618476D01*
X6001667Y-6618476D01*
X6020714Y-6608952D01*
X6030238Y-6589905D01*
X6030238Y-6580381D01*
X6020714Y-6561333D01*
X6001667Y-6551809D01*
X5973095Y-6551809D01*
X5954048Y-6542286D01*
X5944524Y-6523238D01*
X5944524Y-6513714D01*
X5954048Y-6494667D01*
X5973095Y-6485143D01*
X6001667Y-6485143D01*
X6020714Y-6494667D01*
X6096905Y-6694667D02*
X6106428Y-6685143D01*
X6125476Y-6656571D01*
X6135000Y-6637524D01*
X6144524Y-6608952D01*
X6154048Y-6561333D01*
X6154048Y-6523238D01*
X6144524Y-6475619D01*
X6135000Y-6447048D01*
X6125476Y-6428000D01*
X6106428Y-6399428D01*
X6096905Y-6389905D01*
D14*
X1286900Y-6753900D02*
X1286900Y-6830100D01*
X1248800Y-6792000D02*
X1325000Y-6792000D01*
D11*
X1620714Y-6682476D02*
X1639762Y-6682476D01*
X1658809Y-6692000D01*
X1668333Y-6701524D01*
X1677857Y-6720571D01*
X1687381Y-6758667D01*
X1687381Y-6806286D01*
X1677857Y-6844381D01*
X1668333Y-6863428D01*
X1658809Y-6872952D01*
X1639762Y-6882476D01*
X1620714Y-6882476D01*
X1601667Y-6872952D01*
X1592143Y-6863428D01*
X1582619Y-6844381D01*
X1573095Y-6806286D01*
X1573095Y-6758667D01*
X1582619Y-6720571D01*
X1592143Y-6701524D01*
X1601667Y-6692000D01*
X1620714Y-6682476D01*
X1773095Y-6863428D02*
X1782619Y-6872952D01*
X1773095Y-6882476D01*
X1763571Y-6872952D01*
X1773095Y-6863428D01*
X1773095Y-6882476D01*
X1849286Y-6682476D02*
X1982619Y-6682476D01*
X1896905Y-6882476D01*
X2144524Y-6682476D02*
X2106429Y-6682476D01*
X2087381Y-6692000D01*
X2077857Y-6701524D01*
X2058809Y-6730095D01*
X2049286Y-6768190D01*
X2049286Y-6844381D01*
X2058809Y-6863428D01*
X2068333Y-6872952D01*
X2087381Y-6882476D01*
X2125476Y-6882476D01*
X2144524Y-6872952D01*
X2154048Y-6863428D01*
X2163571Y-6844381D01*
X2163571Y-6796762D01*
X2154048Y-6777714D01*
X2144524Y-6768190D01*
X2125476Y-6758667D01*
X2087381Y-6758667D01*
X2068333Y-6768190D01*
X2058809Y-6777714D01*
X2049286Y-6796762D01*
X2239762Y-6701524D02*
X2249286Y-6692000D01*
X2268333Y-6682476D01*
X2315952Y-6682476D01*
X2335000Y-6692000D01*
X2344524Y-6701524D01*
X2354048Y-6720571D01*
X2354048Y-6739619D01*
X2344524Y-6768190D01*
X2230238Y-6882476D01*
X2354048Y-6882476D01*
X2439762Y-6882476D02*
X2439762Y-6749143D01*
X2439762Y-6768190D02*
X2449286Y-6758667D01*
X2468333Y-6749143D01*
X2496905Y-6749143D01*
X2515952Y-6758667D01*
X2525476Y-6777714D01*
X2525476Y-6882476D01*
X2525476Y-6777714D02*
X2535000Y-6758667D01*
X2554048Y-6749143D01*
X2582619Y-6749143D01*
X2601667Y-6758667D01*
X2611190Y-6777714D01*
X2611190Y-6882476D01*
X2706429Y-6882476D02*
X2706429Y-6749143D01*
X2706429Y-6768190D02*
X2715952Y-6758667D01*
X2735000Y-6749143D01*
X2763571Y-6749143D01*
X2782619Y-6758667D01*
X2792143Y-6777714D01*
X2792143Y-6882476D01*
X2792143Y-6777714D02*
X2801667Y-6758667D01*
X2820714Y-6749143D01*
X2849286Y-6749143D01*
X2868333Y-6758667D01*
X2877857Y-6777714D01*
X2877857Y-6882476D01*
X3268333Y-6672952D02*
X3096905Y-6930095D01*
X3525476Y-6682476D02*
X3544524Y-6682476D01*
X3563571Y-6692000D01*
X3573095Y-6701524D01*
X3582619Y-6720571D01*
X3592143Y-6758667D01*
X3592143Y-6806286D01*
X3582619Y-6844381D01*
X3573095Y-6863428D01*
X3563571Y-6872952D01*
X3544524Y-6882476D01*
X3525476Y-6882476D01*
X3506428Y-6872952D01*
X3496905Y-6863428D01*
X3487381Y-6844381D01*
X3477857Y-6806286D01*
X3477857Y-6758667D01*
X3487381Y-6720571D01*
X3496905Y-6701524D01*
X3506428Y-6692000D01*
X3525476Y-6682476D01*
X3677857Y-6863428D02*
X3687381Y-6872952D01*
X3677857Y-6882476D01*
X3668333Y-6872952D01*
X3677857Y-6863428D01*
X3677857Y-6882476D01*
X3811190Y-6682476D02*
X3830238Y-6682476D01*
X3849286Y-6692000D01*
X3858809Y-6701524D01*
X3868333Y-6720571D01*
X3877857Y-6758667D01*
X3877857Y-6806286D01*
X3868333Y-6844381D01*
X3858809Y-6863428D01*
X3849286Y-6872952D01*
X3830238Y-6882476D01*
X3811190Y-6882476D01*
X3792143Y-6872952D01*
X3782619Y-6863428D01*
X3773095Y-6844381D01*
X3763571Y-6806286D01*
X3763571Y-6758667D01*
X3773095Y-6720571D01*
X3782619Y-6701524D01*
X3792143Y-6692000D01*
X3811190Y-6682476D01*
X3944524Y-6682476D02*
X4068333Y-6682476D01*
X4001667Y-6758667D01*
X4030238Y-6758667D01*
X4049286Y-6768190D01*
X4058809Y-6777714D01*
X4068333Y-6796762D01*
X4068333Y-6844381D01*
X4058809Y-6863428D01*
X4049286Y-6872952D01*
X4030238Y-6882476D01*
X3973095Y-6882476D01*
X3954048Y-6872952D01*
X3944524Y-6863428D01*
X4192143Y-6682476D02*
X4211190Y-6682476D01*
X4230238Y-6692000D01*
X4239762Y-6701524D01*
X4249286Y-6720571D01*
X4258810Y-6758667D01*
X4258810Y-6806286D01*
X4249286Y-6844381D01*
X4239762Y-6863428D01*
X4230238Y-6872952D01*
X4211190Y-6882476D01*
X4192143Y-6882476D01*
X4173095Y-6872952D01*
X4163571Y-6863428D01*
X4154048Y-6844381D01*
X4144524Y-6806286D01*
X4144524Y-6758667D01*
X4154048Y-6720571D01*
X4163571Y-6701524D01*
X4173095Y-6692000D01*
X4192143Y-6682476D01*
X4382619Y-6682476D02*
X4401667Y-6682476D01*
X4420714Y-6692000D01*
X4430238Y-6701524D01*
X4439762Y-6720571D01*
X4449286Y-6758667D01*
X4449286Y-6806286D01*
X4439762Y-6844381D01*
X4430238Y-6863428D01*
X4420714Y-6872952D01*
X4401667Y-6882476D01*
X4382619Y-6882476D01*
X4363571Y-6872952D01*
X4354048Y-6863428D01*
X4344524Y-6844381D01*
X4335000Y-6806286D01*
X4335000Y-6758667D01*
X4344524Y-6720571D01*
X4354048Y-6701524D01*
X4363571Y-6692000D01*
X4382619Y-6682476D01*
X4525476Y-6682476D02*
X4525476Y-6720571D01*
X4601667Y-6682476D02*
X4601667Y-6720571D01*
X4896905Y-6958667D02*
X4887381Y-6949143D01*
X4868333Y-6920571D01*
X4858810Y-6901524D01*
X4849286Y-6872952D01*
X4839762Y-6825333D01*
X4839762Y-6787238D01*
X4849286Y-6739619D01*
X4858810Y-6711048D01*
X4868333Y-6692000D01*
X4887381Y-6663428D01*
X4896905Y-6653905D01*
X5058810Y-6682476D02*
X5020714Y-6682476D01*
X5001667Y-6692000D01*
X4992143Y-6701524D01*
X4973095Y-6730095D01*
X4963571Y-6768190D01*
X4963571Y-6844381D01*
X4973095Y-6863428D01*
X4982619Y-6872952D01*
X5001667Y-6882476D01*
X5039762Y-6882476D01*
X5058810Y-6872952D01*
X5068333Y-6863428D01*
X5077857Y-6844381D01*
X5077857Y-6796762D01*
X5068333Y-6777714D01*
X5058810Y-6768190D01*
X5039762Y-6758667D01*
X5001667Y-6758667D01*
X4982619Y-6768190D01*
X4973095Y-6777714D01*
X4963571Y-6796762D01*
X5315952Y-6882476D02*
X5315952Y-6682476D01*
X5401667Y-6882476D02*
X5401667Y-6777714D01*
X5392143Y-6758667D01*
X5373095Y-6749143D01*
X5344524Y-6749143D01*
X5325476Y-6758667D01*
X5315952Y-6768190D01*
X5525476Y-6882476D02*
X5506429Y-6872952D01*
X5496905Y-6863428D01*
X5487381Y-6844381D01*
X5487381Y-6787238D01*
X5496905Y-6768190D01*
X5506429Y-6758667D01*
X5525476Y-6749143D01*
X5554048Y-6749143D01*
X5573095Y-6758667D01*
X5582619Y-6768190D01*
X5592143Y-6787238D01*
X5592143Y-6844381D01*
X5582619Y-6863428D01*
X5573095Y-6872952D01*
X5554048Y-6882476D01*
X5525476Y-6882476D01*
X5706428Y-6882476D02*
X5687381Y-6872952D01*
X5677857Y-6853905D01*
X5677857Y-6682476D01*
X5858809Y-6872952D02*
X5839762Y-6882476D01*
X5801667Y-6882476D01*
X5782619Y-6872952D01*
X5773095Y-6853905D01*
X5773095Y-6777714D01*
X5782619Y-6758667D01*
X5801667Y-6749143D01*
X5839762Y-6749143D01*
X5858809Y-6758667D01*
X5868333Y-6777714D01*
X5868333Y-6796762D01*
X5773095Y-6815809D01*
X5944524Y-6872952D02*
X5963571Y-6882476D01*
X6001667Y-6882476D01*
X6020714Y-6872952D01*
X6030238Y-6853905D01*
X6030238Y-6844381D01*
X6020714Y-6825333D01*
X6001667Y-6815809D01*
X5973095Y-6815809D01*
X5954048Y-6806286D01*
X5944524Y-6787238D01*
X5944524Y-6777714D01*
X5954048Y-6758667D01*
X5973095Y-6749143D01*
X6001667Y-6749143D01*
X6020714Y-6758667D01*
X6096905Y-6958667D02*
X6106428Y-6949143D01*
X6125476Y-6920571D01*
X6135000Y-6901524D01*
X6144524Y-6872952D01*
X6154048Y-6825333D01*
X6154048Y-6787238D01*
X6144524Y-6739619D01*
X6135000Y-6711048D01*
X6125476Y-6692000D01*
X6106428Y-6663428D01*
X6096905Y-6653905D01*
D15*
X1310063Y-7092063D02*
X1310063Y-7019937D01*
X1237937Y-7019937D01*
X1237937Y-7092063D01*
X1310063Y-7092063D01*
D11*
X1687381Y-7146476D02*
X1573095Y-7146476D01*
X1630238Y-7146476D02*
X1630238Y-6946476D01*
X1611190Y-6975048D01*
X1592143Y-6994095D01*
X1573095Y-7003619D01*
X1773095Y-7127428D02*
X1782619Y-7136952D01*
X1773095Y-7146476D01*
X1763571Y-7136952D01*
X1773095Y-7127428D01*
X1773095Y-7146476D01*
X1906428Y-6946476D02*
X1925476Y-6946476D01*
X1944524Y-6956000D01*
X1954048Y-6965524D01*
X1963571Y-6984571D01*
X1973095Y-7022667D01*
X1973095Y-7070286D01*
X1963571Y-7108381D01*
X1954048Y-7127428D01*
X1944524Y-7136952D01*
X1925476Y-7146476D01*
X1906428Y-7146476D01*
X1887381Y-7136952D01*
X1877857Y-7127428D01*
X1868333Y-7108381D01*
X1858809Y-7070286D01*
X1858809Y-7022667D01*
X1868333Y-6984571D01*
X1877857Y-6965524D01*
X1887381Y-6956000D01*
X1906428Y-6946476D01*
X2049286Y-6965524D02*
X2058809Y-6956000D01*
X2077857Y-6946476D01*
X2125476Y-6946476D01*
X2144524Y-6956000D01*
X2154048Y-6965524D01*
X2163571Y-6984571D01*
X2163571Y-7003619D01*
X2154048Y-7032190D01*
X2039762Y-7146476D01*
X2163571Y-7146476D01*
X2287381Y-6946476D02*
X2306429Y-6946476D01*
X2325476Y-6956000D01*
X2335000Y-6965524D01*
X2344524Y-6984571D01*
X2354048Y-7022667D01*
X2354048Y-7070286D01*
X2344524Y-7108381D01*
X2335000Y-7127428D01*
X2325476Y-7136952D01*
X2306429Y-7146476D01*
X2287381Y-7146476D01*
X2268333Y-7136952D01*
X2258810Y-7127428D01*
X2249286Y-7108381D01*
X2239762Y-7070286D01*
X2239762Y-7022667D01*
X2249286Y-6984571D01*
X2258810Y-6965524D01*
X2268333Y-6956000D01*
X2287381Y-6946476D01*
X2439762Y-7146476D02*
X2439762Y-7013143D01*
X2439762Y-7032190D02*
X2449286Y-7022667D01*
X2468333Y-7013143D01*
X2496905Y-7013143D01*
X2515952Y-7022667D01*
X2525476Y-7041714D01*
X2525476Y-7146476D01*
X2525476Y-7041714D02*
X2535000Y-7022667D01*
X2554048Y-7013143D01*
X2582619Y-7013143D01*
X2601667Y-7022667D01*
X2611190Y-7041714D01*
X2611190Y-7146476D01*
X2706429Y-7146476D02*
X2706429Y-7013143D01*
X2706429Y-7032190D02*
X2715952Y-7022667D01*
X2735000Y-7013143D01*
X2763571Y-7013143D01*
X2782619Y-7022667D01*
X2792143Y-7041714D01*
X2792143Y-7146476D01*
X2792143Y-7041714D02*
X2801667Y-7022667D01*
X2820714Y-7013143D01*
X2849286Y-7013143D01*
X2868333Y-7022667D01*
X2877857Y-7041714D01*
X2877857Y-7146476D01*
X3268333Y-6936952D02*
X3096905Y-7194095D01*
X3525476Y-6946476D02*
X3544524Y-6946476D01*
X3563571Y-6956000D01*
X3573095Y-6965524D01*
X3582619Y-6984571D01*
X3592143Y-7022667D01*
X3592143Y-7070286D01*
X3582619Y-7108381D01*
X3573095Y-7127428D01*
X3563571Y-7136952D01*
X3544524Y-7146476D01*
X3525476Y-7146476D01*
X3506428Y-7136952D01*
X3496905Y-7127428D01*
X3487381Y-7108381D01*
X3477857Y-7070286D01*
X3477857Y-7022667D01*
X3487381Y-6984571D01*
X3496905Y-6965524D01*
X3506428Y-6956000D01*
X3525476Y-6946476D01*
X3677857Y-7127428D02*
X3687381Y-7136952D01*
X3677857Y-7146476D01*
X3668333Y-7136952D01*
X3677857Y-7127428D01*
X3677857Y-7146476D01*
X3811190Y-6946476D02*
X3830238Y-6946476D01*
X3849286Y-6956000D01*
X3858809Y-6965524D01*
X3868333Y-6984571D01*
X3877857Y-7022667D01*
X3877857Y-7070286D01*
X3868333Y-7108381D01*
X3858809Y-7127428D01*
X3849286Y-7136952D01*
X3830238Y-7146476D01*
X3811190Y-7146476D01*
X3792143Y-7136952D01*
X3782619Y-7127428D01*
X3773095Y-7108381D01*
X3763571Y-7070286D01*
X3763571Y-7022667D01*
X3773095Y-6984571D01*
X3782619Y-6965524D01*
X3792143Y-6956000D01*
X3811190Y-6946476D01*
X4049286Y-7013143D02*
X4049286Y-7146476D01*
X4001667Y-6936952D02*
X3954048Y-7079809D01*
X4077857Y-7079809D01*
X4192143Y-6946476D02*
X4211190Y-6946476D01*
X4230238Y-6956000D01*
X4239762Y-6965524D01*
X4249286Y-6984571D01*
X4258810Y-7022667D01*
X4258810Y-7070286D01*
X4249286Y-7108381D01*
X4239762Y-7127428D01*
X4230238Y-7136952D01*
X4211190Y-7146476D01*
X4192143Y-7146476D01*
X4173095Y-7136952D01*
X4163571Y-7127428D01*
X4154048Y-7108381D01*
X4144524Y-7070286D01*
X4144524Y-7022667D01*
X4154048Y-6984571D01*
X4163571Y-6965524D01*
X4173095Y-6956000D01*
X4192143Y-6946476D01*
X4335000Y-6965524D02*
X4344524Y-6956000D01*
X4363571Y-6946476D01*
X4411190Y-6946476D01*
X4430238Y-6956000D01*
X4439762Y-6965524D01*
X4449286Y-6984571D01*
X4449286Y-7003619D01*
X4439762Y-7032190D01*
X4325476Y-7146476D01*
X4449286Y-7146476D01*
X4525476Y-6946476D02*
X4525476Y-6984571D01*
X4601667Y-6946476D02*
X4601667Y-6984571D01*
X4896905Y-7222667D02*
X4887381Y-7213143D01*
X4868333Y-7184571D01*
X4858810Y-7165524D01*
X4849286Y-7136952D01*
X4839762Y-7089333D01*
X4839762Y-7051238D01*
X4849286Y-7003619D01*
X4858810Y-6975048D01*
X4868333Y-6956000D01*
X4887381Y-6927428D01*
X4896905Y-6917905D01*
X5077857Y-7146476D02*
X4963571Y-7146476D01*
X5020714Y-7146476D02*
X5020714Y-6946476D01*
X5001667Y-6975048D01*
X4982619Y-6994095D01*
X4963571Y-7003619D01*
X5268333Y-7146476D02*
X5154048Y-7146476D01*
X5211190Y-7146476D02*
X5211190Y-6946476D01*
X5192143Y-6975048D01*
X5173095Y-6994095D01*
X5154048Y-7003619D01*
X5506429Y-7146476D02*
X5506429Y-6946476D01*
X5592143Y-7146476D02*
X5592143Y-7041714D01*
X5582619Y-7022667D01*
X5563571Y-7013143D01*
X5535000Y-7013143D01*
X5515952Y-7022667D01*
X5506429Y-7032190D01*
X5715952Y-7146476D02*
X5696905Y-7136952D01*
X5687381Y-7127428D01*
X5677857Y-7108381D01*
X5677857Y-7051238D01*
X5687381Y-7032190D01*
X5696905Y-7022667D01*
X5715952Y-7013143D01*
X5744524Y-7013143D01*
X5763571Y-7022667D01*
X5773095Y-7032190D01*
X5782619Y-7051238D01*
X5782619Y-7108381D01*
X5773095Y-7127428D01*
X5763571Y-7136952D01*
X5744524Y-7146476D01*
X5715952Y-7146476D01*
X5896905Y-7146476D02*
X5877857Y-7136952D01*
X5868333Y-7117905D01*
X5868333Y-6946476D01*
X6049286Y-7136952D02*
X6030238Y-7146476D01*
X5992143Y-7146476D01*
X5973095Y-7136952D01*
X5963571Y-7117905D01*
X5963571Y-7041714D01*
X5973095Y-7022667D01*
X5992143Y-7013143D01*
X6030238Y-7013143D01*
X6049286Y-7022667D01*
X6058809Y-7041714D01*
X6058809Y-7060762D01*
X5963571Y-7079809D01*
X6135000Y-7136952D02*
X6154048Y-7146476D01*
X6192143Y-7146476D01*
X6211190Y-7136952D01*
X6220714Y-7117905D01*
X6220714Y-7108381D01*
X6211190Y-7089333D01*
X6192143Y-7079809D01*
X6163571Y-7079809D01*
X6144524Y-7070286D01*
X6135000Y-7051238D01*
X6135000Y-7041714D01*
X6144524Y-7022667D01*
X6163571Y-7013143D01*
X6192143Y-7013143D01*
X6211190Y-7022667D01*
X6287381Y-7222667D02*
X6296905Y-7213143D01*
X6315952Y-7184571D01*
X6325476Y-7165524D01*
X6335000Y-7136952D01*
X6344524Y-7089333D01*
X6344524Y-7051238D01*
X6335000Y-7003619D01*
X6325476Y-6975048D01*
X6315952Y-6956000D01*
X6296905Y-6927428D01*
X6287381Y-6917905D01*
D16*
X1258000Y-7387000D02*
X1325000Y-7320000D01*
X1258000Y-7253000D01*
X1191000Y-7320000D01*
X1258000Y-7387000D01*
D11*
X1687381Y-7410476D02*
X1573095Y-7410476D01*
X1630238Y-7410476D02*
X1630238Y-7210476D01*
X1611190Y-7239048D01*
X1592143Y-7258095D01*
X1573095Y-7267619D01*
X1773095Y-7391428D02*
X1782619Y-7400952D01*
X1773095Y-7410476D01*
X1763571Y-7400952D01*
X1773095Y-7391428D01*
X1773095Y-7410476D01*
X1849286Y-7210476D02*
X1973095Y-7210476D01*
X1906428Y-7286667D01*
X1935000Y-7286667D01*
X1954048Y-7296190D01*
X1963571Y-7305714D01*
X1973095Y-7324762D01*
X1973095Y-7372381D01*
X1963571Y-7391428D01*
X1954048Y-7400952D01*
X1935000Y-7410476D01*
X1877857Y-7410476D01*
X1858809Y-7400952D01*
X1849286Y-7391428D01*
X2144524Y-7277143D02*
X2144524Y-7410476D01*
X2096905Y-7200952D02*
X2049286Y-7343809D01*
X2173095Y-7343809D01*
X2287381Y-7210476D02*
X2306429Y-7210476D01*
X2325476Y-7220000D01*
X2335000Y-7229524D01*
X2344524Y-7248571D01*
X2354048Y-7286667D01*
X2354048Y-7334286D01*
X2344524Y-7372381D01*
X2335000Y-7391428D01*
X2325476Y-7400952D01*
X2306429Y-7410476D01*
X2287381Y-7410476D01*
X2268333Y-7400952D01*
X2258810Y-7391428D01*
X2249286Y-7372381D01*
X2239762Y-7334286D01*
X2239762Y-7286667D01*
X2249286Y-7248571D01*
X2258810Y-7229524D01*
X2268333Y-7220000D01*
X2287381Y-7210476D01*
X2439762Y-7410476D02*
X2439762Y-7277143D01*
X2439762Y-7296190D02*
X2449286Y-7286667D01*
X2468333Y-7277143D01*
X2496905Y-7277143D01*
X2515952Y-7286667D01*
X2525476Y-7305714D01*
X2525476Y-7410476D01*
X2525476Y-7305714D02*
X2535000Y-7286667D01*
X2554048Y-7277143D01*
X2582619Y-7277143D01*
X2601667Y-7286667D01*
X2611190Y-7305714D01*
X2611190Y-7410476D01*
X2706429Y-7410476D02*
X2706429Y-7277143D01*
X2706429Y-7296190D02*
X2715952Y-7286667D01*
X2735000Y-7277143D01*
X2763571Y-7277143D01*
X2782619Y-7286667D01*
X2792143Y-7305714D01*
X2792143Y-7410476D01*
X2792143Y-7305714D02*
X2801667Y-7286667D01*
X2820714Y-7277143D01*
X2849286Y-7277143D01*
X2868333Y-7286667D01*
X2877857Y-7305714D01*
X2877857Y-7410476D01*
X3268333Y-7200952D02*
X3096905Y-7458095D01*
X3525476Y-7210476D02*
X3544524Y-7210476D01*
X3563571Y-7220000D01*
X3573095Y-7229524D01*
X3582619Y-7248571D01*
X3592143Y-7286667D01*
X3592143Y-7334286D01*
X3582619Y-7372381D01*
X3573095Y-7391428D01*
X3563571Y-7400952D01*
X3544524Y-7410476D01*
X3525476Y-7410476D01*
X3506428Y-7400952D01*
X3496905Y-7391428D01*
X3487381Y-7372381D01*
X3477857Y-7334286D01*
X3477857Y-7286667D01*
X3487381Y-7248571D01*
X3496905Y-7229524D01*
X3506428Y-7220000D01*
X3525476Y-7210476D01*
X3677857Y-7391428D02*
X3687381Y-7400952D01*
X3677857Y-7410476D01*
X3668333Y-7400952D01*
X3677857Y-7391428D01*
X3677857Y-7410476D01*
X3811190Y-7210476D02*
X3830238Y-7210476D01*
X3849286Y-7220000D01*
X3858809Y-7229524D01*
X3868333Y-7248571D01*
X3877857Y-7286667D01*
X3877857Y-7334286D01*
X3868333Y-7372381D01*
X3858809Y-7391428D01*
X3849286Y-7400952D01*
X3830238Y-7410476D01*
X3811190Y-7410476D01*
X3792143Y-7400952D01*
X3782619Y-7391428D01*
X3773095Y-7372381D01*
X3763571Y-7334286D01*
X3763571Y-7286667D01*
X3773095Y-7248571D01*
X3782619Y-7229524D01*
X3792143Y-7220000D01*
X3811190Y-7210476D01*
X4058809Y-7210476D02*
X3963571Y-7210476D01*
X3954048Y-7305714D01*
X3963571Y-7296190D01*
X3982619Y-7286667D01*
X4030238Y-7286667D01*
X4049286Y-7296190D01*
X4058809Y-7305714D01*
X4068333Y-7324762D01*
X4068333Y-7372381D01*
X4058809Y-7391428D01*
X4049286Y-7400952D01*
X4030238Y-7410476D01*
X3982619Y-7410476D01*
X3963571Y-7400952D01*
X3954048Y-7391428D01*
X4144524Y-7229524D02*
X4154048Y-7220000D01*
X4173095Y-7210476D01*
X4220714Y-7210476D01*
X4239762Y-7220000D01*
X4249286Y-7229524D01*
X4258810Y-7248571D01*
X4258810Y-7267619D01*
X4249286Y-7296190D01*
X4135000Y-7410476D01*
X4258810Y-7410476D01*
X4373095Y-7296190D02*
X4354048Y-7286667D01*
X4344524Y-7277143D01*
X4335000Y-7258095D01*
X4335000Y-7248571D01*
X4344524Y-7229524D01*
X4354048Y-7220000D01*
X4373095Y-7210476D01*
X4411190Y-7210476D01*
X4430238Y-7220000D01*
X4439762Y-7229524D01*
X4449286Y-7248571D01*
X4449286Y-7258095D01*
X4439762Y-7277143D01*
X4430238Y-7286667D01*
X4411190Y-7296190D01*
X4373095Y-7296190D01*
X4354048Y-7305714D01*
X4344524Y-7315238D01*
X4335000Y-7334286D01*
X4335000Y-7372381D01*
X4344524Y-7391428D01*
X4354048Y-7400952D01*
X4373095Y-7410476D01*
X4411190Y-7410476D01*
X4430238Y-7400952D01*
X4439762Y-7391428D01*
X4449286Y-7372381D01*
X4449286Y-7334286D01*
X4439762Y-7315238D01*
X4430238Y-7305714D01*
X4411190Y-7296190D01*
X4525476Y-7210476D02*
X4525476Y-7248571D01*
X4601667Y-7210476D02*
X4601667Y-7248571D01*
X4896905Y-7486667D02*
X4887381Y-7477143D01*
X4868333Y-7448571D01*
X4858810Y-7429524D01*
X4849286Y-7400952D01*
X4839762Y-7353333D01*
X4839762Y-7315238D01*
X4849286Y-7267619D01*
X4858810Y-7239048D01*
X4868333Y-7220000D01*
X4887381Y-7191428D01*
X4896905Y-7181905D01*
X5001667Y-7296190D02*
X4982619Y-7286667D01*
X4973095Y-7277143D01*
X4963571Y-7258095D01*
X4963571Y-7248571D01*
X4973095Y-7229524D01*
X4982619Y-7220000D01*
X5001667Y-7210476D01*
X5039762Y-7210476D01*
X5058810Y-7220000D01*
X5068333Y-7229524D01*
X5077857Y-7248571D01*
X5077857Y-7258095D01*
X5068333Y-7277143D01*
X5058810Y-7286667D01*
X5039762Y-7296190D01*
X5001667Y-7296190D01*
X4982619Y-7305714D01*
X4973095Y-7315238D01*
X4963571Y-7334286D01*
X4963571Y-7372381D01*
X4973095Y-7391428D01*
X4982619Y-7400952D01*
X5001667Y-7410476D01*
X5039762Y-7410476D01*
X5058810Y-7400952D01*
X5068333Y-7391428D01*
X5077857Y-7372381D01*
X5077857Y-7334286D01*
X5068333Y-7315238D01*
X5058810Y-7305714D01*
X5039762Y-7296190D01*
X5315952Y-7410476D02*
X5315952Y-7210476D01*
X5401667Y-7410476D02*
X5401667Y-7305714D01*
X5392143Y-7286667D01*
X5373095Y-7277143D01*
X5344524Y-7277143D01*
X5325476Y-7286667D01*
X5315952Y-7296190D01*
X5525476Y-7410476D02*
X5506429Y-7400952D01*
X5496905Y-7391428D01*
X5487381Y-7372381D01*
X5487381Y-7315238D01*
X5496905Y-7296190D01*
X5506429Y-7286667D01*
X5525476Y-7277143D01*
X5554048Y-7277143D01*
X5573095Y-7286667D01*
X5582619Y-7296190D01*
X5592143Y-7315238D01*
X5592143Y-7372381D01*
X5582619Y-7391428D01*
X5573095Y-7400952D01*
X5554048Y-7410476D01*
X5525476Y-7410476D01*
X5706428Y-7410476D02*
X5687381Y-7400952D01*
X5677857Y-7381905D01*
X5677857Y-7210476D01*
X5858809Y-7400952D02*
X5839762Y-7410476D01*
X5801667Y-7410476D01*
X5782619Y-7400952D01*
X5773095Y-7381905D01*
X5773095Y-7305714D01*
X5782619Y-7286667D01*
X5801667Y-7277143D01*
X5839762Y-7277143D01*
X5858809Y-7286667D01*
X5868333Y-7305714D01*
X5868333Y-7324762D01*
X5773095Y-7343809D01*
X5944524Y-7400952D02*
X5963571Y-7410476D01*
X6001667Y-7410476D01*
X6020714Y-7400952D01*
X6030238Y-7381905D01*
X6030238Y-7372381D01*
X6020714Y-7353333D01*
X6001667Y-7343809D01*
X5973095Y-7343809D01*
X5954048Y-7334286D01*
X5944524Y-7315238D01*
X5944524Y-7305714D01*
X5954048Y-7286667D01*
X5973095Y-7277143D01*
X6001667Y-7277143D01*
X6020714Y-7286667D01*
X6096905Y-7486667D02*
X6106428Y-7477143D01*
X6125476Y-7448571D01*
X6135000Y-7429524D01*
X6144524Y-7400952D01*
X6154048Y-7353333D01*
X6154048Y-7315238D01*
X6144524Y-7267619D01*
X6135000Y-7239048D01*
X6125476Y-7220000D01*
X6106428Y-7191428D01*
X6096905Y-7181905D01*
M02*
