%TF.GenerationSoftware,KiCad,Pcbnew,8.0.4*%
%TF.CreationDate,2024-09-10T00:37:33+02:00*%
%TF.ProjectId,ESP32_PICO_LED,45535033-325f-4504-9943-4f5f4c45442e,rev?*%
%TF.SameCoordinates,Original*%
%TF.FileFunction,Copper,L2,Inr*%
%TF.FilePolarity,Positive*%
%FSLAX46Y46*%
G04 Gerber Fmt 4.6, Leading zero omitted, Abs format (unit mm)*
G04 Created by KiCad (PCBNEW 8.0.4) date 2024-09-10 00:37:33*
%MOMM*%
%LPD*%
G01*
G04 APERTURE LIST*
%ADD10C,0.090000*%
%TA.AperFunction,NonConductor*%
%ADD11C,0.090000*%
%TD*%
%TA.AperFunction,ComponentPad*%
%ADD12C,0.500000*%
%TD*%
%TA.AperFunction,ViaPad*%
%ADD13C,0.450000*%
%TD*%
%TA.AperFunction,ViaPad*%
%ADD14C,0.800000*%
%TD*%
%TA.AperFunction,Conductor*%
%ADD15C,0.700000*%
%TD*%
G04 APERTURE END LIST*
D10*
D11*
X111004448Y-75851748D02*
X111028257Y-75827939D01*
X111028257Y-75827939D02*
X111075876Y-75804129D01*
X111075876Y-75804129D02*
X111194924Y-75804129D01*
X111194924Y-75804129D02*
X111242543Y-75827939D01*
X111242543Y-75827939D02*
X111266352Y-75851748D01*
X111266352Y-75851748D02*
X111290162Y-75899367D01*
X111290162Y-75899367D02*
X111290162Y-75946986D01*
X111290162Y-75946986D02*
X111266352Y-76018415D01*
X111266352Y-76018415D02*
X110980638Y-76304129D01*
X110980638Y-76304129D02*
X111290162Y-76304129D01*
D12*
%TO.N,GND*%
%TO.C,U5*%
X166300000Y-79750000D03*
X165600000Y-80450000D03*
X165600000Y-79050000D03*
X164900000Y-79750000D03*
%TD*%
D13*
%TO.N,GND*%
X138280000Y-79650000D03*
X158710000Y-79950000D03*
X120400000Y-82300000D03*
X154720000Y-81070000D03*
X145600000Y-76175000D03*
X131240000Y-85560000D03*
X134040000Y-82030000D03*
X172650000Y-79310000D03*
X172190000Y-82030000D03*
X171620000Y-82030000D03*
X170520000Y-85560000D03*
X110123320Y-76354946D03*
X113150000Y-84550000D03*
X171770000Y-79990000D03*
X171170000Y-80010000D03*
X138420000Y-84840000D03*
X170390000Y-79980000D03*
X125180000Y-80970000D03*
X140280000Y-81000000D03*
X117404732Y-78833694D03*
X154760000Y-78540000D03*
X172750000Y-82050000D03*
X168250000Y-77100000D03*
X126990000Y-76180000D03*
X126160000Y-84130000D03*
X146700000Y-76325000D03*
X172650000Y-78560000D03*
X165550000Y-85848000D03*
X119400000Y-78950000D03*
X170840000Y-82380000D03*
X129450000Y-76052000D03*
X172000000Y-83420000D03*
X117493254Y-77350000D03*
X134410000Y-76570000D03*
%TO.N,+3.3V*%
X133350000Y-85600000D03*
X166370000Y-76270000D03*
X162320000Y-78010000D03*
X168050000Y-80700008D03*
X136554016Y-76315416D03*
X115450000Y-78400000D03*
X171110000Y-79000000D03*
X129000000Y-85240000D03*
X168170000Y-82220000D03*
X158930000Y-81040000D03*
X133780000Y-81300000D03*
D14*
X144350000Y-79350000D03*
D13*
X132890000Y-76210000D03*
X158350000Y-77940000D03*
X119092049Y-76191350D03*
D14*
X144450000Y-80250000D03*
X144375007Y-81266134D03*
D13*
X127186992Y-80346992D03*
X127230000Y-78680000D03*
X147642862Y-81066800D03*
X161080000Y-76900000D03*
D14*
%TO.N,+5V*%
X113249964Y-82800000D03*
D13*
X147775000Y-84524996D03*
D14*
X141975742Y-79337407D03*
X157400000Y-84325000D03*
X156000000Y-77600000D03*
X111225000Y-78200000D03*
D13*
X148425000Y-84600000D03*
%TO.N,MIC_PDM_DATA*%
X133132462Y-78947394D03*
X115508609Y-76928114D03*
%TO.N,SWCLK*%
X134038827Y-79930196D03*
%TO.N,SWDIO*%
X133914296Y-79366212D03*
%TO.N,/esp32_wifi_section/IO9*%
X157390000Y-76210000D03*
X162320000Y-76800000D03*
%TO.N,MIC_PDM_CLK*%
X132850002Y-78415000D03*
X116691497Y-76928200D03*
%TO.N,BUTTON*%
X118890740Y-81629313D03*
X132000000Y-78947998D03*
%TO.N,QSPI_SD0*%
X123150000Y-79200000D03*
X123190000Y-82258928D03*
%TO.N,QSPI_SD3*%
X121340000Y-81760000D03*
X121340000Y-79100000D03*
%TO.N,Net-(U3-VREG_VOUT)*%
X129325000Y-80905000D03*
X134060450Y-80580306D03*
%TO.N,QSPI_CLK*%
X122290000Y-79140000D03*
X122430000Y-81990000D03*
%TO.N,/UART1_RX*%
X133860743Y-83414319D03*
X159150000Y-85200000D03*
%TO.N,Net-(U5-CHIP_EN)*%
X159290000Y-77590000D03*
X169050000Y-78200000D03*
%TO.N,Net-(U3-RUN)*%
X124150000Y-80800000D03*
X134050000Y-78450000D03*
%TO.N,/UART1_TX*%
X159200000Y-84050000D03*
X133350000Y-83071800D03*
%TO.N,LED_1_C*%
X129869818Y-78124166D03*
%TO.N,LED_1_D*%
X129748119Y-76676145D03*
%TO.N,LED_2_C*%
X132000000Y-76300000D03*
%TO.N,LED_2_D*%
X131196601Y-76331033D03*
%TO.N,LED_4_C*%
X134980000Y-85841402D03*
%TO.N,LED_4_D*%
X135060000Y-85200000D03*
%TO.N,LED_3_D*%
X129725002Y-85334998D03*
%TO.N,LED_3_C*%
X129241800Y-83433837D03*
%TD*%
D15*
%TO.N,+5V*%
X130322236Y-78767764D02*
X131450000Y-77640000D01*
X113249964Y-82800000D02*
X114169964Y-83720000D01*
X130322236Y-78770000D02*
X130322236Y-78767764D01*
X131450000Y-77640000D02*
X140278335Y-77640000D01*
X140278335Y-77640000D02*
X141975742Y-79337407D01*
X114169964Y-83720000D02*
X125372236Y-83720000D01*
X125372236Y-83720000D02*
X130322236Y-78770000D01*
%TD*%
%TA.AperFunction,Conductor*%
%TO.N,+3.3V*%
G36*
X109816694Y-75847185D02*
G01*
X109862449Y-75899989D01*
X109872393Y-75969147D01*
X109843368Y-76032703D01*
X109837336Y-76039181D01*
X109774796Y-76101720D01*
X109774793Y-76101724D01*
X109713599Y-76221824D01*
X109692516Y-76354943D01*
X109692516Y-76354948D01*
X109713599Y-76488067D01*
X109713600Y-76488070D01*
X109713601Y-76488072D01*
X109774792Y-76608166D01*
X109774793Y-76608167D01*
X109774796Y-76608171D01*
X109870094Y-76703469D01*
X109870098Y-76703472D01*
X109870100Y-76703474D01*
X109990194Y-76764665D01*
X109990196Y-76764665D01*
X109990198Y-76764666D01*
X110123318Y-76785750D01*
X110123320Y-76785750D01*
X110123322Y-76785750D01*
X110256441Y-76764666D01*
X110256441Y-76764665D01*
X110256446Y-76764665D01*
X110376540Y-76703474D01*
X110471848Y-76608166D01*
X110499620Y-76553659D01*
X110547591Y-76502866D01*
X110615412Y-76486070D01*
X110681547Y-76508606D01*
X110697784Y-76522275D01*
X110730138Y-76554629D01*
X111543990Y-76554629D01*
X111543990Y-75951500D01*
X111563675Y-75884461D01*
X111616479Y-75838706D01*
X111667990Y-75827500D01*
X126489709Y-75827500D01*
X126556748Y-75847185D01*
X126602503Y-75899989D01*
X126612447Y-75969147D01*
X126600194Y-76007792D01*
X126587977Y-76031768D01*
X126580279Y-76046877D01*
X126559196Y-76179997D01*
X126559196Y-76180002D01*
X126580279Y-76313121D01*
X126580280Y-76313124D01*
X126580281Y-76313126D01*
X126641472Y-76433220D01*
X126641473Y-76433221D01*
X126641476Y-76433225D01*
X126736774Y-76528523D01*
X126736778Y-76528526D01*
X126736780Y-76528528D01*
X126856874Y-76589719D01*
X126856876Y-76589719D01*
X126856878Y-76589720D01*
X126989998Y-76610804D01*
X126990000Y-76610804D01*
X126990002Y-76610804D01*
X127123121Y-76589720D01*
X127123121Y-76589719D01*
X127123126Y-76589719D01*
X127243220Y-76528528D01*
X127338528Y-76433220D01*
X127399719Y-76313126D01*
X127400512Y-76308121D01*
X127420804Y-76180002D01*
X127420804Y-76179997D01*
X127399720Y-76046877D01*
X127399719Y-76046875D01*
X127399719Y-76046874D01*
X127379806Y-76007793D01*
X127366910Y-75939126D01*
X127393186Y-75874386D01*
X127450292Y-75834128D01*
X127490291Y-75827500D01*
X128909568Y-75827500D01*
X128976607Y-75847185D01*
X129022362Y-75899989D01*
X129032306Y-75969147D01*
X129032041Y-75970898D01*
X129019196Y-76051997D01*
X129019196Y-76052002D01*
X129040279Y-76185121D01*
X129040280Y-76185124D01*
X129040281Y-76185126D01*
X129101472Y-76305220D01*
X129101473Y-76305221D01*
X129101476Y-76305225D01*
X129196774Y-76400523D01*
X129196777Y-76400525D01*
X129196780Y-76400528D01*
X129268435Y-76437038D01*
X129319231Y-76485011D01*
X129336026Y-76552832D01*
X129334614Y-76566919D01*
X129328081Y-76608171D01*
X129317316Y-76676142D01*
X129317315Y-76676147D01*
X129338398Y-76809266D01*
X129338399Y-76809269D01*
X129338400Y-76809271D01*
X129399591Y-76929365D01*
X129399592Y-76929366D01*
X129399595Y-76929370D01*
X129494893Y-77024668D01*
X129494897Y-77024671D01*
X129494899Y-77024673D01*
X129614993Y-77085864D01*
X129614995Y-77085864D01*
X129614997Y-77085865D01*
X129748117Y-77106949D01*
X129748119Y-77106949D01*
X129748121Y-77106949D01*
X129881240Y-77085865D01*
X129881240Y-77085864D01*
X129881245Y-77085864D01*
X130001339Y-77024673D01*
X130096647Y-76929365D01*
X130157838Y-76809271D01*
X130159306Y-76800002D01*
X130178923Y-76676147D01*
X130178923Y-76676142D01*
X130157839Y-76543023D01*
X130157838Y-76543021D01*
X130157838Y-76543019D01*
X130096647Y-76422925D01*
X130096645Y-76422923D01*
X130096642Y-76422919D01*
X130001344Y-76327621D01*
X130001341Y-76327619D01*
X130001339Y-76327617D01*
X129929681Y-76291105D01*
X129878887Y-76243132D01*
X129862092Y-76175311D01*
X129863505Y-76161224D01*
X129880804Y-76052002D01*
X129880804Y-76051997D01*
X129867959Y-75970898D01*
X129876914Y-75901604D01*
X129921910Y-75848153D01*
X129988661Y-75827513D01*
X129990432Y-75827500D01*
X130799023Y-75827500D01*
X130866062Y-75847185D01*
X130911817Y-75899989D01*
X130921761Y-75969147D01*
X130892736Y-76032703D01*
X130886704Y-76039181D01*
X130848077Y-76077807D01*
X130848074Y-76077811D01*
X130786880Y-76197911D01*
X130765797Y-76331030D01*
X130765797Y-76331035D01*
X130786880Y-76464154D01*
X130786881Y-76464157D01*
X130786882Y-76464159D01*
X130845741Y-76579676D01*
X130848074Y-76584254D01*
X130848077Y-76584258D01*
X130943375Y-76679556D01*
X130943379Y-76679559D01*
X130943381Y-76679561D01*
X131063475Y-76740752D01*
X131063477Y-76740752D01*
X131063479Y-76740753D01*
X131196599Y-76761837D01*
X131196601Y-76761837D01*
X131196603Y-76761837D01*
X131329722Y-76740753D01*
X131329722Y-76740752D01*
X131329727Y-76740752D01*
X131449821Y-76679561D01*
X131526136Y-76603245D01*
X131587456Y-76569761D01*
X131657148Y-76574745D01*
X131701497Y-76603246D01*
X131746774Y-76648523D01*
X131746778Y-76648526D01*
X131746780Y-76648528D01*
X131866874Y-76709719D01*
X131866876Y-76709719D01*
X131866878Y-76709720D01*
X131999998Y-76730804D01*
X132000000Y-76730804D01*
X132000002Y-76730804D01*
X132133121Y-76709720D01*
X132133121Y-76709719D01*
X132133126Y-76709719D01*
X132253220Y-76648528D01*
X132348528Y-76553220D01*
X132409719Y-76433126D01*
X132416505Y-76390281D01*
X132430804Y-76300002D01*
X132430804Y-76299997D01*
X132409720Y-76166878D01*
X132409719Y-76166876D01*
X132409719Y-76166874D01*
X132348528Y-76046780D01*
X132348526Y-76046778D01*
X132348523Y-76046774D01*
X132340930Y-76039181D01*
X132307445Y-75977858D01*
X132312429Y-75908166D01*
X132354301Y-75852233D01*
X132419765Y-75827816D01*
X132428611Y-75827500D01*
X145097161Y-75827500D01*
X145164200Y-75847185D01*
X145209955Y-75899989D01*
X145219899Y-75969147D01*
X145207647Y-76007790D01*
X145207645Y-76007796D01*
X145190279Y-76041878D01*
X145169196Y-76174997D01*
X145169196Y-76175002D01*
X145190279Y-76308121D01*
X145190280Y-76308124D01*
X145190281Y-76308126D01*
X145251472Y-76428220D01*
X145251473Y-76428221D01*
X145251476Y-76428225D01*
X145346774Y-76523523D01*
X145346778Y-76523526D01*
X145346780Y-76523528D01*
X145466874Y-76584719D01*
X145466876Y-76584719D01*
X145466878Y-76584720D01*
X145599998Y-76605804D01*
X145600000Y-76605804D01*
X145600002Y-76605804D01*
X145733121Y-76584720D01*
X145733121Y-76584719D01*
X145733126Y-76584719D01*
X145853220Y-76523528D01*
X145948528Y-76428220D01*
X146009719Y-76308126D01*
X146009720Y-76308121D01*
X146030804Y-76175002D01*
X146030804Y-76174997D01*
X146009720Y-76041878D01*
X146009719Y-76041876D01*
X146009719Y-76041874D01*
X145992353Y-76007792D01*
X145979458Y-75939126D01*
X146005734Y-75874385D01*
X146062841Y-75834128D01*
X146102839Y-75827500D01*
X146296389Y-75827500D01*
X146363428Y-75847185D01*
X146409183Y-75899989D01*
X146419127Y-75969147D01*
X146390102Y-76032703D01*
X146384070Y-76039181D01*
X146351476Y-76071774D01*
X146351473Y-76071778D01*
X146290279Y-76191878D01*
X146269196Y-76324997D01*
X146269196Y-76325002D01*
X146290279Y-76458121D01*
X146290280Y-76458124D01*
X146290281Y-76458126D01*
X146351472Y-76578220D01*
X146351473Y-76578221D01*
X146351476Y-76578225D01*
X146446774Y-76673523D01*
X146446778Y-76673526D01*
X146446780Y-76673528D01*
X146566874Y-76734719D01*
X146566876Y-76734719D01*
X146566878Y-76734720D01*
X146699998Y-76755804D01*
X146700000Y-76755804D01*
X146700002Y-76755804D01*
X146833121Y-76734720D01*
X146833121Y-76734719D01*
X146833126Y-76734719D01*
X146953220Y-76673528D01*
X147048528Y-76578220D01*
X147109719Y-76458126D01*
X147113059Y-76437037D01*
X147130804Y-76325002D01*
X147130804Y-76324997D01*
X147109720Y-76191878D01*
X147109719Y-76191876D01*
X147109719Y-76191874D01*
X147048528Y-76071780D01*
X147048526Y-76071778D01*
X147048523Y-76071774D01*
X147015930Y-76039181D01*
X146982445Y-75977858D01*
X146987429Y-75908166D01*
X147029301Y-75852233D01*
X147094765Y-75827816D01*
X147103611Y-75827500D01*
X156904994Y-75827500D01*
X156972033Y-75847185D01*
X157017788Y-75899989D01*
X157027732Y-75969147D01*
X157015479Y-76007794D01*
X156980279Y-76076876D01*
X156959196Y-76209997D01*
X156959196Y-76210002D01*
X156980279Y-76343121D01*
X156980280Y-76343124D01*
X156980281Y-76343126D01*
X157041472Y-76463220D01*
X157041473Y-76463221D01*
X157041476Y-76463225D01*
X157136774Y-76558523D01*
X157136778Y-76558526D01*
X157136780Y-76558528D01*
X157256874Y-76619719D01*
X157256876Y-76619719D01*
X157256878Y-76619720D01*
X157389998Y-76640804D01*
X157390000Y-76640804D01*
X157390002Y-76640804D01*
X157523121Y-76619720D01*
X157523121Y-76619719D01*
X157523126Y-76619719D01*
X157643220Y-76558528D01*
X157738528Y-76463220D01*
X157799719Y-76343126D01*
X157801634Y-76331035D01*
X157820804Y-76210002D01*
X157820804Y-76209997D01*
X157799720Y-76076876D01*
X157764521Y-76007794D01*
X157751625Y-75939125D01*
X157777902Y-75874385D01*
X157835008Y-75834128D01*
X157875006Y-75827500D01*
X172826000Y-75827500D01*
X172893039Y-75847185D01*
X172938794Y-75899989D01*
X172950000Y-75951500D01*
X172950000Y-78033830D01*
X172930315Y-78100869D01*
X172877511Y-78146624D01*
X172808353Y-78156568D01*
X172787681Y-78151761D01*
X172783122Y-78150279D01*
X172650002Y-78129196D01*
X172649998Y-78129196D01*
X172516878Y-78150279D01*
X172396778Y-78211473D01*
X172396774Y-78211476D01*
X172301476Y-78306774D01*
X172301473Y-78306778D01*
X172301472Y-78306780D01*
X172250470Y-78406878D01*
X172240279Y-78426878D01*
X172219196Y-78559997D01*
X172219196Y-78560002D01*
X172240279Y-78693121D01*
X172240280Y-78693124D01*
X172240281Y-78693126D01*
X172301472Y-78813220D01*
X172301473Y-78813221D01*
X172301476Y-78813225D01*
X172335570Y-78847319D01*
X172369055Y-78908642D01*
X172364071Y-78978334D01*
X172335570Y-79022681D01*
X172301476Y-79056774D01*
X172301473Y-79056778D01*
X172240280Y-79176876D01*
X172237348Y-79195395D01*
X172207420Y-79258531D01*
X172148109Y-79295463D01*
X172114874Y-79300000D01*
X167950000Y-79300000D01*
X167950000Y-81900000D01*
X170418889Y-81900000D01*
X170485928Y-81919685D01*
X170531683Y-81972489D01*
X170541627Y-82041647D01*
X170512602Y-82105203D01*
X170506570Y-82111681D01*
X170491476Y-82126774D01*
X170491473Y-82126778D01*
X170430279Y-82246878D01*
X170409196Y-82379997D01*
X170409196Y-82380002D01*
X170430279Y-82513121D01*
X170430280Y-82513124D01*
X170430281Y-82513126D01*
X170478344Y-82607454D01*
X170491473Y-82633221D01*
X170491476Y-82633225D01*
X170586774Y-82728523D01*
X170586778Y-82728526D01*
X170586780Y-82728528D01*
X170706874Y-82789719D01*
X170706876Y-82789719D01*
X170706878Y-82789720D01*
X170839998Y-82810804D01*
X170840000Y-82810804D01*
X170840002Y-82810804D01*
X170973121Y-82789720D01*
X170973121Y-82789719D01*
X170973126Y-82789719D01*
X171093220Y-82728528D01*
X171188528Y-82633220D01*
X171249719Y-82513126D01*
X171251487Y-82501959D01*
X171281415Y-82438825D01*
X171340725Y-82401892D01*
X171410588Y-82402888D01*
X171430249Y-82410867D01*
X171486874Y-82439719D01*
X171486876Y-82439719D01*
X171486878Y-82439720D01*
X171619998Y-82460804D01*
X171620000Y-82460804D01*
X171620002Y-82460804D01*
X171753121Y-82439720D01*
X171753121Y-82439719D01*
X171753126Y-82439719D01*
X171848708Y-82391017D01*
X171917374Y-82378122D01*
X171961290Y-82391016D01*
X172056874Y-82439719D01*
X172056876Y-82439719D01*
X172056878Y-82439720D01*
X172189998Y-82460804D01*
X172190000Y-82460804D01*
X172190002Y-82460804D01*
X172323122Y-82439720D01*
X172323123Y-82439719D01*
X172323126Y-82439719D01*
X172394082Y-82403565D01*
X172462746Y-82390669D01*
X172506662Y-82403563D01*
X172616874Y-82459719D01*
X172616876Y-82459719D01*
X172616878Y-82459720D01*
X172749998Y-82480804D01*
X172750000Y-82480804D01*
X172750001Y-82480804D01*
X172768768Y-82477831D01*
X172806602Y-82471839D01*
X172875895Y-82480793D01*
X172929347Y-82525789D01*
X172949987Y-82592541D01*
X172950000Y-82594312D01*
X172950000Y-85948500D01*
X172930315Y-86015539D01*
X172877511Y-86061294D01*
X172826000Y-86072500D01*
X170908611Y-86072500D01*
X170841572Y-86052815D01*
X170795817Y-86000011D01*
X170785873Y-85930853D01*
X170814898Y-85867297D01*
X170820930Y-85860819D01*
X170868523Y-85813225D01*
X170868528Y-85813220D01*
X170929719Y-85693126D01*
X170929720Y-85693121D01*
X170950804Y-85560002D01*
X170950804Y-85559997D01*
X170929720Y-85426878D01*
X170929719Y-85426876D01*
X170929719Y-85426874D01*
X170868528Y-85306780D01*
X170868526Y-85306778D01*
X170868523Y-85306774D01*
X170773225Y-85211476D01*
X170773221Y-85211473D01*
X170773220Y-85211472D01*
X170653126Y-85150281D01*
X170653124Y-85150280D01*
X170653121Y-85150279D01*
X170520002Y-85129196D01*
X170519998Y-85129196D01*
X170386878Y-85150279D01*
X170266778Y-85211473D01*
X170266774Y-85211476D01*
X170171476Y-85306774D01*
X170171473Y-85306778D01*
X170110279Y-85426878D01*
X170089196Y-85559997D01*
X170089196Y-85560002D01*
X170110279Y-85693121D01*
X170110280Y-85693124D01*
X170110281Y-85693126D01*
X170171472Y-85813220D01*
X170171473Y-85813221D01*
X170171476Y-85813225D01*
X170219070Y-85860819D01*
X170252555Y-85922142D01*
X170247571Y-85991834D01*
X170205699Y-86047767D01*
X170140235Y-86072184D01*
X170131389Y-86072500D01*
X166090432Y-86072500D01*
X166023393Y-86052815D01*
X165977638Y-86000011D01*
X165967694Y-85930853D01*
X165967959Y-85929102D01*
X165980804Y-85848002D01*
X165980804Y-85847997D01*
X165959720Y-85714878D01*
X165959719Y-85714876D01*
X165959719Y-85714874D01*
X165898528Y-85594780D01*
X165898526Y-85594778D01*
X165898523Y-85594774D01*
X165803225Y-85499476D01*
X165803221Y-85499473D01*
X165803220Y-85499472D01*
X165683126Y-85438281D01*
X165683124Y-85438280D01*
X165683121Y-85438279D01*
X165550002Y-85417196D01*
X165549998Y-85417196D01*
X165416878Y-85438279D01*
X165296778Y-85499473D01*
X165296774Y-85499476D01*
X165201476Y-85594774D01*
X165201473Y-85594778D01*
X165140279Y-85714878D01*
X165119196Y-85847997D01*
X165119196Y-85848002D01*
X165132041Y-85929102D01*
X165123086Y-85998396D01*
X165078090Y-86051847D01*
X165011339Y-86072487D01*
X165009568Y-86072500D01*
X135519387Y-86072500D01*
X135452348Y-86052815D01*
X135406593Y-86000011D01*
X135396649Y-85930853D01*
X135396914Y-85929102D01*
X135410804Y-85841404D01*
X135410804Y-85841399D01*
X135389720Y-85708280D01*
X135389719Y-85708278D01*
X135389719Y-85708276D01*
X135350875Y-85632041D01*
X135337980Y-85563375D01*
X135364256Y-85498634D01*
X135373681Y-85488067D01*
X135408524Y-85453224D01*
X135408528Y-85453220D01*
X135469719Y-85333126D01*
X135482929Y-85249720D01*
X135490804Y-85200002D01*
X135490804Y-85199997D01*
X135469720Y-85066878D01*
X135469719Y-85066876D01*
X135469719Y-85066874D01*
X135408528Y-84946780D01*
X135408526Y-84946778D01*
X135408523Y-84946774D01*
X135313225Y-84851476D01*
X135313221Y-84851473D01*
X135313220Y-84851472D01*
X135290699Y-84839997D01*
X137989196Y-84839997D01*
X137989196Y-84840002D01*
X138010279Y-84973121D01*
X138010280Y-84973124D01*
X138010281Y-84973126D01*
X138071472Y-85093220D01*
X138071473Y-85093221D01*
X138071476Y-85093225D01*
X138166774Y-85188523D01*
X138166778Y-85188526D01*
X138166780Y-85188528D01*
X138286874Y-85249719D01*
X138286876Y-85249719D01*
X138286878Y-85249720D01*
X138419998Y-85270804D01*
X138420000Y-85270804D01*
X138420002Y-85270804D01*
X138553121Y-85249720D01*
X138553121Y-85249719D01*
X138553126Y-85249719D01*
X138650711Y-85199997D01*
X158719196Y-85199997D01*
X158719196Y-85200002D01*
X158740279Y-85333121D01*
X158740280Y-85333124D01*
X158740281Y-85333126D01*
X158801472Y-85453220D01*
X158801473Y-85453221D01*
X158801476Y-85453225D01*
X158896774Y-85548523D01*
X158896778Y-85548526D01*
X158896780Y-85548528D01*
X159016874Y-85609719D01*
X159016876Y-85609719D01*
X159016878Y-85609720D01*
X159149998Y-85630804D01*
X159150000Y-85630804D01*
X159150002Y-85630804D01*
X159283121Y-85609720D01*
X159283121Y-85609719D01*
X159283126Y-85609719D01*
X159403220Y-85548528D01*
X159498528Y-85453220D01*
X159559719Y-85333126D01*
X159572929Y-85249720D01*
X159580804Y-85200002D01*
X159580804Y-85199997D01*
X159559720Y-85066878D01*
X159559719Y-85066876D01*
X159559719Y-85066874D01*
X159498528Y-84946780D01*
X159498526Y-84946778D01*
X159498523Y-84946774D01*
X159403225Y-84851476D01*
X159403221Y-84851473D01*
X159403220Y-84851472D01*
X159283126Y-84790281D01*
X159283124Y-84790280D01*
X159283121Y-84790279D01*
X159150002Y-84769196D01*
X159149998Y-84769196D01*
X159016878Y-84790279D01*
X158896778Y-84851473D01*
X158896774Y-84851476D01*
X158801476Y-84946774D01*
X158801473Y-84946778D01*
X158740279Y-85066878D01*
X158719196Y-85199997D01*
X138650711Y-85199997D01*
X138673220Y-85188528D01*
X138768528Y-85093220D01*
X138829719Y-84973126D01*
X138829720Y-84973121D01*
X138850804Y-84840002D01*
X138850804Y-84839997D01*
X138829720Y-84706878D01*
X138829719Y-84706876D01*
X138829719Y-84706874D01*
X138768528Y-84586780D01*
X138768526Y-84586778D01*
X138768523Y-84586774D01*
X138706742Y-84524993D01*
X147344196Y-84524993D01*
X147344196Y-84524998D01*
X147365279Y-84658117D01*
X147365280Y-84658120D01*
X147365281Y-84658122D01*
X147426472Y-84778216D01*
X147426473Y-84778217D01*
X147426476Y-84778221D01*
X147521774Y-84873519D01*
X147521778Y-84873522D01*
X147521780Y-84873524D01*
X147641874Y-84934715D01*
X147641876Y-84934715D01*
X147641878Y-84934716D01*
X147774998Y-84955800D01*
X147775000Y-84955800D01*
X147775002Y-84955800D01*
X147908121Y-84934716D01*
X147908121Y-84934715D01*
X147908126Y-84934715D01*
X147993364Y-84891283D01*
X148062033Y-84878388D01*
X148126773Y-84904665D01*
X148137339Y-84914088D01*
X148171774Y-84948523D01*
X148171778Y-84948526D01*
X148171780Y-84948528D01*
X148291874Y-85009719D01*
X148291876Y-85009719D01*
X148291878Y-85009720D01*
X148424998Y-85030804D01*
X148425000Y-85030804D01*
X148425002Y-85030804D01*
X148558121Y-85009720D01*
X148558121Y-85009719D01*
X148558126Y-85009719D01*
X148678220Y-84948528D01*
X148773528Y-84853220D01*
X148834719Y-84733126D01*
X148842639Y-84683121D01*
X148855804Y-84600002D01*
X148855804Y-84599997D01*
X148834720Y-84466878D01*
X148834719Y-84466876D01*
X148834719Y-84466874D01*
X148773528Y-84346780D01*
X148773526Y-84346778D01*
X148773523Y-84346774D01*
X148751747Y-84324998D01*
X156794318Y-84324998D01*
X156794318Y-84325001D01*
X156814955Y-84481760D01*
X156814956Y-84481762D01*
X156863930Y-84599997D01*
X156875464Y-84627841D01*
X156971718Y-84753282D01*
X157097159Y-84849536D01*
X157243238Y-84910044D01*
X157321619Y-84920363D01*
X157399999Y-84930682D01*
X157400000Y-84930682D01*
X157400001Y-84930682D01*
X157452254Y-84923802D01*
X157556762Y-84910044D01*
X157702841Y-84849536D01*
X157828282Y-84753282D01*
X157924536Y-84627841D01*
X157985044Y-84481762D01*
X158005682Y-84325000D01*
X158001112Y-84290290D01*
X157985044Y-84168239D01*
X157985044Y-84168238D01*
X157936067Y-84049997D01*
X158769196Y-84049997D01*
X158769196Y-84050002D01*
X158790279Y-84183121D01*
X158790280Y-84183124D01*
X158790281Y-84183126D01*
X158840865Y-84282402D01*
X158851473Y-84303221D01*
X158851476Y-84303225D01*
X158946774Y-84398523D01*
X158946778Y-84398526D01*
X158946780Y-84398528D01*
X159066874Y-84459719D01*
X159066876Y-84459719D01*
X159066878Y-84459720D01*
X159199998Y-84480804D01*
X159200000Y-84480804D01*
X159200002Y-84480804D01*
X159333121Y-84459720D01*
X159333121Y-84459719D01*
X159333126Y-84459719D01*
X159453220Y-84398528D01*
X159548528Y-84303220D01*
X159609719Y-84183126D01*
X159610773Y-84176471D01*
X159630804Y-84050002D01*
X159630804Y-84049997D01*
X159609720Y-83916878D01*
X159609719Y-83916876D01*
X159609719Y-83916874D01*
X159548528Y-83796780D01*
X159548526Y-83796778D01*
X159548523Y-83796774D01*
X159453225Y-83701476D01*
X159453221Y-83701473D01*
X159453220Y-83701472D01*
X159333126Y-83640281D01*
X159333124Y-83640280D01*
X159333121Y-83640279D01*
X159200002Y-83619196D01*
X159199998Y-83619196D01*
X159066878Y-83640279D01*
X158946778Y-83701473D01*
X158946774Y-83701476D01*
X158851476Y-83796774D01*
X158851473Y-83796778D01*
X158790279Y-83916878D01*
X158769196Y-84049997D01*
X157936067Y-84049997D01*
X157924536Y-84022159D01*
X157828282Y-83896718D01*
X157702841Y-83800464D01*
X157693942Y-83796778D01*
X157556762Y-83739956D01*
X157556760Y-83739955D01*
X157400001Y-83719318D01*
X157399999Y-83719318D01*
X157243239Y-83739955D01*
X157243237Y-83739956D01*
X157097160Y-83800463D01*
X156971718Y-83896718D01*
X156875463Y-84022160D01*
X156814956Y-84168237D01*
X156814955Y-84168239D01*
X156794318Y-84324998D01*
X148751747Y-84324998D01*
X148678225Y-84251476D01*
X148678221Y-84251473D01*
X148678220Y-84251472D01*
X148558126Y-84190281D01*
X148558124Y-84190280D01*
X148558121Y-84190279D01*
X148425002Y-84169196D01*
X148424998Y-84169196D01*
X148291876Y-84190279D01*
X148206635Y-84233712D01*
X148137966Y-84246608D01*
X148073226Y-84220331D01*
X148062659Y-84210907D01*
X148028224Y-84176471D01*
X148028221Y-84176469D01*
X148028220Y-84176468D01*
X147908126Y-84115277D01*
X147908124Y-84115276D01*
X147908121Y-84115275D01*
X147775002Y-84094192D01*
X147774998Y-84094192D01*
X147641878Y-84115275D01*
X147521778Y-84176469D01*
X147521774Y-84176472D01*
X147426476Y-84271770D01*
X147426473Y-84271774D01*
X147365279Y-84391874D01*
X147344196Y-84524993D01*
X138706742Y-84524993D01*
X138673225Y-84491476D01*
X138673221Y-84491473D01*
X138673220Y-84491472D01*
X138553126Y-84430281D01*
X138553124Y-84430280D01*
X138553121Y-84430279D01*
X138420002Y-84409196D01*
X138419998Y-84409196D01*
X138286878Y-84430279D01*
X138166778Y-84491473D01*
X138166774Y-84491476D01*
X138071476Y-84586774D01*
X138071473Y-84586778D01*
X138010279Y-84706878D01*
X137989196Y-84839997D01*
X135290699Y-84839997D01*
X135193126Y-84790281D01*
X135193124Y-84790280D01*
X135193121Y-84790279D01*
X135060002Y-84769196D01*
X135059998Y-84769196D01*
X134926878Y-84790279D01*
X134806778Y-84851473D01*
X134806774Y-84851476D01*
X134711476Y-84946774D01*
X134711473Y-84946778D01*
X134650279Y-85066878D01*
X134629196Y-85199997D01*
X134629196Y-85200002D01*
X134650279Y-85333123D01*
X134689123Y-85409358D01*
X134702019Y-85478027D01*
X134675742Y-85542767D01*
X134666320Y-85553332D01*
X134631476Y-85588176D01*
X134631473Y-85588180D01*
X134570279Y-85708280D01*
X134549196Y-85841399D01*
X134549196Y-85841404D01*
X134563086Y-85929102D01*
X134554131Y-85998396D01*
X134509135Y-86051848D01*
X134442384Y-86072487D01*
X134440613Y-86072500D01*
X131628611Y-86072500D01*
X131561572Y-86052815D01*
X131515817Y-86000011D01*
X131505873Y-85930853D01*
X131534898Y-85867297D01*
X131540930Y-85860819D01*
X131588523Y-85813225D01*
X131588528Y-85813220D01*
X131649719Y-85693126D01*
X131649720Y-85693121D01*
X131670804Y-85560002D01*
X131670804Y-85559997D01*
X131649720Y-85426878D01*
X131649719Y-85426876D01*
X131649719Y-85426874D01*
X131588528Y-85306780D01*
X131588526Y-85306778D01*
X131588523Y-85306774D01*
X131493225Y-85211476D01*
X131493221Y-85211473D01*
X131493220Y-85211472D01*
X131373126Y-85150281D01*
X131373124Y-85150280D01*
X131373121Y-85150279D01*
X131240002Y-85129196D01*
X131239998Y-85129196D01*
X131106878Y-85150279D01*
X130986778Y-85211473D01*
X130986774Y-85211476D01*
X130891476Y-85306774D01*
X130891473Y-85306778D01*
X130830279Y-85426878D01*
X130809196Y-85559997D01*
X130809196Y-85560002D01*
X130830279Y-85693121D01*
X130830280Y-85693124D01*
X130830281Y-85693126D01*
X130891472Y-85813220D01*
X130891473Y-85813221D01*
X130891476Y-85813225D01*
X130939070Y-85860819D01*
X130972555Y-85922142D01*
X130967571Y-85991834D01*
X130925699Y-86047767D01*
X130860235Y-86072184D01*
X130851389Y-86072500D01*
X106501500Y-86072500D01*
X106434461Y-86052815D01*
X106388706Y-86000011D01*
X106377500Y-85948500D01*
X106377500Y-85334995D01*
X129294198Y-85334995D01*
X129294198Y-85335000D01*
X129315281Y-85468119D01*
X129315282Y-85468122D01*
X129315283Y-85468124D01*
X129363816Y-85563375D01*
X129376475Y-85588219D01*
X129376478Y-85588223D01*
X129471776Y-85683521D01*
X129471780Y-85683524D01*
X129471782Y-85683526D01*
X129591876Y-85744717D01*
X129591878Y-85744717D01*
X129591880Y-85744718D01*
X129725000Y-85765802D01*
X129725002Y-85765802D01*
X129725004Y-85765802D01*
X129858123Y-85744718D01*
X129858123Y-85744717D01*
X129858128Y-85744717D01*
X129978222Y-85683526D01*
X130073530Y-85588218D01*
X130134721Y-85468124D01*
X130137081Y-85453224D01*
X130155806Y-85335000D01*
X130155806Y-85334995D01*
X130134722Y-85201876D01*
X130134721Y-85201874D01*
X130134721Y-85201872D01*
X130073530Y-85081778D01*
X130073528Y-85081776D01*
X130073525Y-85081772D01*
X129978227Y-84986474D01*
X129978223Y-84986471D01*
X129978222Y-84986470D01*
X129858128Y-84925279D01*
X129858126Y-84925278D01*
X129858123Y-84925277D01*
X129725004Y-84904194D01*
X129725000Y-84904194D01*
X129591880Y-84925277D01*
X129471780Y-84986471D01*
X129471776Y-84986474D01*
X129376478Y-85081772D01*
X129376475Y-85081776D01*
X129315281Y-85201876D01*
X129294198Y-85334995D01*
X106377500Y-85334995D01*
X106377500Y-84549997D01*
X112719196Y-84549997D01*
X112719196Y-84550002D01*
X112740279Y-84683121D01*
X112740280Y-84683124D01*
X112740281Y-84683126D01*
X112801472Y-84803220D01*
X112801473Y-84803221D01*
X112801476Y-84803225D01*
X112896774Y-84898523D01*
X112896778Y-84898526D01*
X112896780Y-84898528D01*
X113016874Y-84959719D01*
X113016876Y-84959719D01*
X113016878Y-84959720D01*
X113149998Y-84980804D01*
X113150000Y-84980804D01*
X113150002Y-84980804D01*
X113283121Y-84959720D01*
X113283121Y-84959719D01*
X113283126Y-84959719D01*
X113403220Y-84898528D01*
X113498528Y-84803220D01*
X113559719Y-84683126D01*
X113563680Y-84658117D01*
X113580804Y-84550002D01*
X113580804Y-84549997D01*
X113559720Y-84416878D01*
X113559719Y-84416876D01*
X113559719Y-84416874D01*
X113498528Y-84296780D01*
X113498526Y-84296778D01*
X113498523Y-84296774D01*
X113403225Y-84201476D01*
X113403221Y-84201473D01*
X113403220Y-84201472D01*
X113283126Y-84140281D01*
X113283124Y-84140280D01*
X113283121Y-84140279D01*
X113150002Y-84119196D01*
X113149998Y-84119196D01*
X113016878Y-84140279D01*
X112896778Y-84201473D01*
X112896774Y-84201476D01*
X112801476Y-84296774D01*
X112801473Y-84296778D01*
X112740279Y-84416878D01*
X112719196Y-84549997D01*
X106377500Y-84549997D01*
X106377500Y-82799998D01*
X112644282Y-82799998D01*
X112644282Y-82800001D01*
X112664919Y-82956760D01*
X112664920Y-82956762D01*
X112712434Y-83071472D01*
X112725428Y-83102841D01*
X112821682Y-83228282D01*
X112947123Y-83324536D01*
X112947124Y-83324536D01*
X112947125Y-83324537D01*
X113007730Y-83349640D01*
X113047959Y-83376520D01*
X113831949Y-84160510D01*
X113939320Y-84222500D01*
X113957479Y-84232984D01*
X114097489Y-84270500D01*
X114097492Y-84270500D01*
X125444708Y-84270500D01*
X125444710Y-84270500D01*
X125444711Y-84270500D01*
X125584721Y-84232984D01*
X125587616Y-84231312D01*
X125590367Y-84230644D01*
X125592231Y-84229873D01*
X125592351Y-84230163D01*
X125655514Y-84214838D01*
X125721542Y-84237688D01*
X125760102Y-84282402D01*
X125811471Y-84383218D01*
X125811476Y-84383225D01*
X125906774Y-84478523D01*
X125906778Y-84478526D01*
X125906780Y-84478528D01*
X126026874Y-84539719D01*
X126026876Y-84539719D01*
X126026878Y-84539720D01*
X126159998Y-84560804D01*
X126160000Y-84560804D01*
X126160002Y-84560804D01*
X126293121Y-84539720D01*
X126293121Y-84539719D01*
X126293126Y-84539719D01*
X126413220Y-84478528D01*
X126508528Y-84383220D01*
X126569719Y-84263126D01*
X126574493Y-84232983D01*
X126590804Y-84130002D01*
X126590804Y-84129997D01*
X126569720Y-83996878D01*
X126569719Y-83996876D01*
X126569719Y-83996874D01*
X126508528Y-83876780D01*
X126508526Y-83876778D01*
X126508523Y-83876774D01*
X126413225Y-83781476D01*
X126413222Y-83781474D01*
X126413220Y-83781472D01*
X126350694Y-83749613D01*
X126299900Y-83701640D01*
X126283105Y-83633819D01*
X126305642Y-83567684D01*
X126319304Y-83551455D01*
X126436925Y-83433834D01*
X128810996Y-83433834D01*
X128810996Y-83433839D01*
X128832079Y-83566958D01*
X128832080Y-83566961D01*
X128832081Y-83566963D01*
X128893272Y-83687057D01*
X128893273Y-83687058D01*
X128893276Y-83687062D01*
X128988574Y-83782360D01*
X128988578Y-83782363D01*
X128988580Y-83782365D01*
X129108674Y-83843556D01*
X129108676Y-83843556D01*
X129108678Y-83843557D01*
X129241798Y-83864641D01*
X129241800Y-83864641D01*
X129241802Y-83864641D01*
X129374921Y-83843557D01*
X129374921Y-83843556D01*
X129374926Y-83843556D01*
X129495020Y-83782365D01*
X129590328Y-83687057D01*
X129651519Y-83566963D01*
X129653711Y-83553126D01*
X129672604Y-83433839D01*
X129672604Y-83433834D01*
X129651520Y-83300715D01*
X129651519Y-83300713D01*
X129651519Y-83300711D01*
X129590328Y-83180617D01*
X129590326Y-83180615D01*
X129590323Y-83180611D01*
X129495025Y-83085313D01*
X129495021Y-83085310D01*
X129495020Y-83085309D01*
X129468501Y-83071797D01*
X132919196Y-83071797D01*
X132919196Y-83071802D01*
X132940279Y-83204921D01*
X132940280Y-83204924D01*
X132940281Y-83204926D01*
X133001226Y-83324537D01*
X133001473Y-83325021D01*
X133001476Y-83325025D01*
X133096774Y-83420323D01*
X133096778Y-83420326D01*
X133096780Y-83420328D01*
X133216874Y-83481519D01*
X133216876Y-83481519D01*
X133216878Y-83481520D01*
X133349998Y-83502604D01*
X133352189Y-83502604D01*
X133354754Y-83503357D01*
X133359639Y-83504131D01*
X133359539Y-83504762D01*
X133419228Y-83522289D01*
X133462673Y-83570308D01*
X133512215Y-83667539D01*
X133512217Y-83667541D01*
X133512219Y-83667544D01*
X133607517Y-83762842D01*
X133607521Y-83762845D01*
X133607523Y-83762847D01*
X133727617Y-83824038D01*
X133727619Y-83824038D01*
X133727621Y-83824039D01*
X133860741Y-83845123D01*
X133860743Y-83845123D01*
X133860745Y-83845123D01*
X133993864Y-83824039D01*
X133993864Y-83824038D01*
X133993869Y-83824038D01*
X134113963Y-83762847D01*
X134209271Y-83667539D01*
X134270462Y-83547445D01*
X134270463Y-83547440D01*
X134290648Y-83419997D01*
X171569196Y-83419997D01*
X171569196Y-83420002D01*
X171590279Y-83553121D01*
X171590280Y-83553124D01*
X171590281Y-83553126D01*
X171648578Y-83667540D01*
X171651473Y-83673221D01*
X171651476Y-83673225D01*
X171746774Y-83768523D01*
X171746778Y-83768526D01*
X171746780Y-83768528D01*
X171866874Y-83829719D01*
X171866876Y-83829719D01*
X171866878Y-83829720D01*
X171999998Y-83850804D01*
X172000000Y-83850804D01*
X172000002Y-83850804D01*
X172133121Y-83829720D01*
X172133121Y-83829719D01*
X172133126Y-83829719D01*
X172253220Y-83768528D01*
X172348528Y-83673220D01*
X172409719Y-83553126D01*
X172417721Y-83502604D01*
X172430804Y-83420002D01*
X172430804Y-83419997D01*
X172409720Y-83286878D01*
X172409719Y-83286876D01*
X172409719Y-83286874D01*
X172348528Y-83166780D01*
X172348526Y-83166778D01*
X172348523Y-83166774D01*
X172253225Y-83071476D01*
X172253221Y-83071473D01*
X172253220Y-83071472D01*
X172133126Y-83010281D01*
X172133124Y-83010280D01*
X172133121Y-83010279D01*
X172000002Y-82989196D01*
X171999998Y-82989196D01*
X171866878Y-83010279D01*
X171746778Y-83071473D01*
X171746774Y-83071476D01*
X171651476Y-83166774D01*
X171651473Y-83166778D01*
X171590279Y-83286878D01*
X171569196Y-83419997D01*
X134290648Y-83419997D01*
X134291547Y-83414321D01*
X134291547Y-83414316D01*
X134270463Y-83281197D01*
X134270462Y-83281195D01*
X134270462Y-83281193D01*
X134209271Y-83161099D01*
X134209269Y-83161097D01*
X134209266Y-83161093D01*
X134113968Y-83065795D01*
X134113964Y-83065792D01*
X134113963Y-83065791D01*
X133993869Y-83004600D01*
X133993867Y-83004599D01*
X133993864Y-83004598D01*
X133860745Y-82983515D01*
X133858553Y-82983515D01*
X133855985Y-82982761D01*
X133851104Y-82981988D01*
X133851203Y-82981357D01*
X133791514Y-82963830D01*
X133748069Y-82915810D01*
X133698528Y-82818580D01*
X133698525Y-82818577D01*
X133698523Y-82818574D01*
X133603225Y-82723276D01*
X133603221Y-82723273D01*
X133603220Y-82723272D01*
X133483126Y-82662081D01*
X133483124Y-82662080D01*
X133483121Y-82662079D01*
X133350002Y-82640996D01*
X133349998Y-82640996D01*
X133216878Y-82662079D01*
X133096778Y-82723273D01*
X133096774Y-82723276D01*
X133001476Y-82818574D01*
X133001473Y-82818578D01*
X132940279Y-82938678D01*
X132919196Y-83071797D01*
X129468501Y-83071797D01*
X129374926Y-83024118D01*
X129374924Y-83024117D01*
X129374921Y-83024116D01*
X129241802Y-83003033D01*
X129241798Y-83003033D01*
X129108678Y-83024116D01*
X128988578Y-83085310D01*
X128988574Y-83085313D01*
X128893276Y-83180611D01*
X128893273Y-83180615D01*
X128832079Y-83300715D01*
X128810996Y-83433834D01*
X126436925Y-83433834D01*
X127840762Y-82029997D01*
X133609196Y-82029997D01*
X133609196Y-82030002D01*
X133630279Y-82163121D01*
X133630280Y-82163124D01*
X133630281Y-82163126D01*
X133691472Y-82283220D01*
X133691473Y-82283221D01*
X133691476Y-82283225D01*
X133786774Y-82378523D01*
X133786778Y-82378526D01*
X133786780Y-82378528D01*
X133906874Y-82439719D01*
X133906876Y-82439719D01*
X133906878Y-82439720D01*
X134039998Y-82460804D01*
X134040000Y-82460804D01*
X134040002Y-82460804D01*
X134173121Y-82439720D01*
X134173121Y-82439719D01*
X134173126Y-82439719D01*
X134293220Y-82378528D01*
X134388528Y-82283220D01*
X134449719Y-82163126D01*
X134455631Y-82125802D01*
X134470804Y-82030002D01*
X134470804Y-82029997D01*
X134449720Y-81896878D01*
X134449719Y-81896876D01*
X134449719Y-81896874D01*
X134388528Y-81776780D01*
X134388526Y-81776778D01*
X134388523Y-81776774D01*
X134293225Y-81681476D01*
X134293221Y-81681473D01*
X134293220Y-81681472D01*
X134173126Y-81620281D01*
X134173124Y-81620280D01*
X134173121Y-81620279D01*
X134040002Y-81599196D01*
X134039998Y-81599196D01*
X133906878Y-81620279D01*
X133786778Y-81681473D01*
X133786774Y-81681476D01*
X133691476Y-81776774D01*
X133691473Y-81776778D01*
X133630279Y-81896878D01*
X133609196Y-82029997D01*
X127840762Y-82029997D01*
X128766703Y-81104056D01*
X128828024Y-81070573D01*
X128897716Y-81075557D01*
X128953649Y-81117429D01*
X128964866Y-81135442D01*
X128976472Y-81158220D01*
X128976476Y-81158225D01*
X129071774Y-81253523D01*
X129071778Y-81253526D01*
X129071780Y-81253528D01*
X129191874Y-81314719D01*
X129191876Y-81314719D01*
X129191878Y-81314720D01*
X129324998Y-81335804D01*
X129325000Y-81335804D01*
X129325002Y-81335804D01*
X129458121Y-81314720D01*
X129458121Y-81314719D01*
X129458126Y-81314719D01*
X129578220Y-81253528D01*
X129673528Y-81158220D01*
X129734719Y-81038126D01*
X129738998Y-81011110D01*
X129755804Y-80905002D01*
X129755804Y-80904997D01*
X129734720Y-80771878D01*
X129734719Y-80771876D01*
X129734719Y-80771874D01*
X129673528Y-80651780D01*
X129673526Y-80651778D01*
X129673523Y-80651774D01*
X129578225Y-80556476D01*
X129578220Y-80556472D01*
X129555442Y-80544866D01*
X129504647Y-80496890D01*
X129487853Y-80429069D01*
X129510392Y-80362935D01*
X129524052Y-80346707D01*
X130762746Y-79108015D01*
X130762750Y-79108007D01*
X130765164Y-79104862D01*
X130775862Y-79092661D01*
X131641706Y-78226819D01*
X131703029Y-78193334D01*
X131729387Y-78190500D01*
X132309570Y-78190500D01*
X132376609Y-78210185D01*
X132422364Y-78262989D01*
X132432308Y-78332147D01*
X132432043Y-78333898D01*
X132425155Y-78377391D01*
X132419198Y-78415000D01*
X132425252Y-78453221D01*
X132427480Y-78467291D01*
X132418524Y-78536585D01*
X132373527Y-78590036D01*
X132306776Y-78610675D01*
X132248712Y-78597173D01*
X132133126Y-78538279D01*
X132133124Y-78538278D01*
X132133121Y-78538277D01*
X132000002Y-78517194D01*
X131999998Y-78517194D01*
X131866878Y-78538277D01*
X131746778Y-78599471D01*
X131746774Y-78599474D01*
X131651476Y-78694772D01*
X131651473Y-78694776D01*
X131590279Y-78814876D01*
X131569196Y-78947995D01*
X131569196Y-78948000D01*
X131590279Y-79081119D01*
X131590280Y-79081122D01*
X131590281Y-79081124D01*
X131651165Y-79200615D01*
X131651473Y-79201219D01*
X131651476Y-79201223D01*
X131746774Y-79296521D01*
X131746778Y-79296524D01*
X131746780Y-79296526D01*
X131866874Y-79357717D01*
X131866876Y-79357717D01*
X131866878Y-79357718D01*
X131999998Y-79378802D01*
X132000000Y-79378802D01*
X132000002Y-79378802D01*
X132133121Y-79357718D01*
X132133121Y-79357717D01*
X132133126Y-79357717D01*
X132253220Y-79296526D01*
X132348528Y-79201218D01*
X132409719Y-79081124D01*
X132409815Y-79080520D01*
X132430804Y-78948000D01*
X132430804Y-78947996D01*
X132422522Y-78895707D01*
X132431476Y-78826414D01*
X132476472Y-78772962D01*
X132543224Y-78752322D01*
X132601286Y-78765823D01*
X132640503Y-78785805D01*
X132691297Y-78833778D01*
X132708092Y-78901599D01*
X132706680Y-78915683D01*
X132701658Y-78947394D01*
X132701658Y-78947396D01*
X132722741Y-79080515D01*
X132722742Y-79080518D01*
X132722743Y-79080520D01*
X132783934Y-79200614D01*
X132783935Y-79200615D01*
X132783938Y-79200619D01*
X132879236Y-79295917D01*
X132879240Y-79295920D01*
X132879242Y-79295922D01*
X132999336Y-79357113D01*
X132999338Y-79357113D01*
X132999340Y-79357114D01*
X133132460Y-79378198D01*
X133132462Y-79378198D01*
X133132464Y-79378198D01*
X133265584Y-79357114D01*
X133265585Y-79357113D01*
X133265588Y-79357113D01*
X133313818Y-79332538D01*
X133382484Y-79319642D01*
X133447225Y-79345918D01*
X133487482Y-79403024D01*
X133492584Y-79423624D01*
X133504575Y-79499334D01*
X133504576Y-79499337D01*
X133504577Y-79499338D01*
X133560819Y-79609720D01*
X133565769Y-79619433D01*
X133565772Y-79619437D01*
X133603983Y-79657648D01*
X133637468Y-79718971D01*
X133632484Y-79788663D01*
X133630010Y-79794291D01*
X133629107Y-79797071D01*
X133608023Y-79930193D01*
X133608023Y-79930198D01*
X133629106Y-80063317D01*
X133629107Y-80063320D01*
X133629108Y-80063322D01*
X133680409Y-80164005D01*
X133690300Y-80183417D01*
X133696038Y-80191315D01*
X133694728Y-80192266D01*
X133722898Y-80243854D01*
X133717914Y-80313546D01*
X133712217Y-80326506D01*
X133650729Y-80447182D01*
X133629646Y-80580303D01*
X133629646Y-80580308D01*
X133650729Y-80713427D01*
X133650730Y-80713430D01*
X133650731Y-80713432D01*
X133706343Y-80822576D01*
X133711923Y-80833527D01*
X133711926Y-80833531D01*
X133807224Y-80928829D01*
X133807228Y-80928832D01*
X133807230Y-80928834D01*
X133927324Y-80990025D01*
X133927326Y-80990025D01*
X133927328Y-80990026D01*
X134060448Y-81011110D01*
X134060450Y-81011110D01*
X134060452Y-81011110D01*
X134130617Y-80999997D01*
X139849196Y-80999997D01*
X139849196Y-81000002D01*
X139870279Y-81133121D01*
X139870280Y-81133124D01*
X139870281Y-81133126D01*
X139931472Y-81253220D01*
X139931473Y-81253221D01*
X139931476Y-81253225D01*
X140026774Y-81348523D01*
X140026778Y-81348526D01*
X140026780Y-81348528D01*
X140146874Y-81409719D01*
X140146876Y-81409719D01*
X140146878Y-81409720D01*
X140279998Y-81430804D01*
X140280000Y-81430804D01*
X140280002Y-81430804D01*
X140413121Y-81409720D01*
X140413121Y-81409719D01*
X140413126Y-81409719D01*
X140533220Y-81348528D01*
X140628528Y-81253220D01*
X140689719Y-81133126D01*
X140694471Y-81103126D01*
X140699718Y-81069997D01*
X154289196Y-81069997D01*
X154289196Y-81070002D01*
X154310279Y-81203121D01*
X154310280Y-81203124D01*
X154310281Y-81203126D01*
X154371472Y-81323220D01*
X154371473Y-81323221D01*
X154371476Y-81323225D01*
X154466774Y-81418523D01*
X154466778Y-81418526D01*
X154466780Y-81418528D01*
X154586874Y-81479719D01*
X154586876Y-81479719D01*
X154586878Y-81479720D01*
X154719998Y-81500804D01*
X154720000Y-81500804D01*
X154720002Y-81500804D01*
X154853121Y-81479720D01*
X154853121Y-81479719D01*
X154853126Y-81479719D01*
X154973220Y-81418528D01*
X155068528Y-81323220D01*
X155129719Y-81203126D01*
X155136831Y-81158221D01*
X155150804Y-81070002D01*
X155150804Y-81069997D01*
X155129720Y-80936878D01*
X155129719Y-80936876D01*
X155129719Y-80936874D01*
X155068528Y-80816780D01*
X155068526Y-80816778D01*
X155068523Y-80816774D01*
X154973225Y-80721476D01*
X154973221Y-80721473D01*
X154973220Y-80721472D01*
X154853126Y-80660281D01*
X154853124Y-80660280D01*
X154853121Y-80660279D01*
X154720002Y-80639196D01*
X154719998Y-80639196D01*
X154586878Y-80660279D01*
X154466778Y-80721473D01*
X154466774Y-80721476D01*
X154371476Y-80816774D01*
X154371473Y-80816778D01*
X154371472Y-80816780D01*
X154328815Y-80900500D01*
X154310279Y-80936878D01*
X154289196Y-81069997D01*
X140699718Y-81069997D01*
X140710804Y-81000002D01*
X140710804Y-80999997D01*
X140689720Y-80866878D01*
X140689719Y-80866876D01*
X140689719Y-80866874D01*
X140628528Y-80746780D01*
X140628526Y-80746778D01*
X140628523Y-80746774D01*
X140533225Y-80651476D01*
X140533221Y-80651473D01*
X140533220Y-80651472D01*
X140413126Y-80590281D01*
X140413124Y-80590280D01*
X140413121Y-80590279D01*
X140280002Y-80569196D01*
X140279998Y-80569196D01*
X140146878Y-80590279D01*
X140026778Y-80651473D01*
X140026774Y-80651476D01*
X139931476Y-80746774D01*
X139931473Y-80746778D01*
X139870279Y-80866878D01*
X139849196Y-80999997D01*
X134130617Y-80999997D01*
X134193571Y-80990026D01*
X134193571Y-80990025D01*
X134193576Y-80990025D01*
X134313670Y-80928834D01*
X134408978Y-80833526D01*
X134470169Y-80713432D01*
X134472920Y-80696062D01*
X134491254Y-80580308D01*
X134491254Y-80580303D01*
X134470170Y-80447184D01*
X134470169Y-80447182D01*
X134470169Y-80447180D01*
X134408978Y-80327086D01*
X134408976Y-80327084D01*
X134403239Y-80319187D01*
X134404547Y-80318236D01*
X134376378Y-80266647D01*
X134381362Y-80196955D01*
X134387059Y-80183994D01*
X134387351Y-80183419D01*
X134387355Y-80183416D01*
X134448546Y-80063322D01*
X134448547Y-80063317D01*
X134469631Y-79930198D01*
X134469631Y-79930193D01*
X134448547Y-79797074D01*
X134448546Y-79797072D01*
X134448546Y-79797070D01*
X134387355Y-79676976D01*
X134387353Y-79676974D01*
X134387350Y-79676970D01*
X134360377Y-79649997D01*
X137849196Y-79649997D01*
X137849196Y-79650002D01*
X137870279Y-79783121D01*
X137870280Y-79783124D01*
X137870281Y-79783126D01*
X137918737Y-79878226D01*
X137931473Y-79903221D01*
X137931476Y-79903225D01*
X138026774Y-79998523D01*
X138026778Y-79998526D01*
X138026780Y-79998528D01*
X138146874Y-80059719D01*
X138146876Y-80059719D01*
X138146878Y-80059720D01*
X138279998Y-80080804D01*
X138280000Y-80080804D01*
X138280002Y-80080804D01*
X138413121Y-80059720D01*
X138413121Y-80059719D01*
X138413126Y-80059719D01*
X138533220Y-79998528D01*
X138581751Y-79949997D01*
X158279196Y-79949997D01*
X158279196Y-79950002D01*
X158300279Y-80083121D01*
X158300280Y-80083124D01*
X158300281Y-80083126D01*
X158361472Y-80203220D01*
X158361473Y-80203221D01*
X158361476Y-80203225D01*
X158456774Y-80298523D01*
X158456778Y-80298526D01*
X158456780Y-80298528D01*
X158576874Y-80359719D01*
X158576876Y-80359719D01*
X158576878Y-80359720D01*
X158709998Y-80380804D01*
X158710000Y-80380804D01*
X158710002Y-80380804D01*
X158843121Y-80359720D01*
X158843121Y-80359719D01*
X158843126Y-80359719D01*
X158963220Y-80298528D01*
X159058528Y-80203220D01*
X159119719Y-80083126D01*
X159122856Y-80063322D01*
X159140804Y-79950002D01*
X159140804Y-79949997D01*
X159119720Y-79816878D01*
X159119719Y-79816876D01*
X159119719Y-79816874D01*
X159085645Y-79750000D01*
X164444867Y-79750000D01*
X164463302Y-79878225D01*
X164509782Y-79980000D01*
X164517118Y-79996063D01*
X164601951Y-80093967D01*
X164710931Y-80164004D01*
X164794873Y-80188651D01*
X164835225Y-80200499D01*
X164835227Y-80200500D01*
X164835228Y-80200500D01*
X164964771Y-80200500D01*
X164964772Y-80200500D01*
X165005127Y-80188651D01*
X165074995Y-80188651D01*
X165133774Y-80226425D01*
X165162799Y-80289980D01*
X165162799Y-80325274D01*
X165144867Y-80449999D01*
X165163302Y-80578225D01*
X165203788Y-80666875D01*
X165217118Y-80696063D01*
X165301951Y-80793967D01*
X165410931Y-80864004D01*
X165535225Y-80900499D01*
X165535227Y-80900500D01*
X165535228Y-80900500D01*
X165664773Y-80900500D01*
X165664773Y-80900499D01*
X165789069Y-80864004D01*
X165898049Y-80793967D01*
X165982882Y-80696063D01*
X166036697Y-80578226D01*
X166055133Y-80450000D01*
X166037200Y-80325273D01*
X166047144Y-80256117D01*
X166092898Y-80203313D01*
X166159938Y-80183628D01*
X166194873Y-80188651D01*
X166235227Y-80200500D01*
X166235228Y-80200500D01*
X166364773Y-80200500D01*
X166364773Y-80200499D01*
X166489069Y-80164004D01*
X166598049Y-80093967D01*
X166682882Y-79996063D01*
X166736697Y-79878226D01*
X166755133Y-79750000D01*
X166736697Y-79621774D01*
X166682882Y-79503937D01*
X166598049Y-79406033D01*
X166489069Y-79335996D01*
X166489065Y-79335994D01*
X166489064Y-79335994D01*
X166364774Y-79299500D01*
X166364772Y-79299500D01*
X166235228Y-79299500D01*
X166235227Y-79299500D01*
X166194870Y-79311349D01*
X166125001Y-79311347D01*
X166066223Y-79273572D01*
X166037200Y-79210016D01*
X166037200Y-79174725D01*
X166055133Y-79050000D01*
X166036697Y-78921774D01*
X165982882Y-78803937D01*
X165898049Y-78706033D01*
X165789069Y-78635996D01*
X165789065Y-78635994D01*
X165789064Y-78635994D01*
X165664774Y-78599500D01*
X165664772Y-78599500D01*
X165535228Y-78599500D01*
X165535226Y-78599500D01*
X165410935Y-78635994D01*
X165410932Y-78635995D01*
X165410931Y-78635996D01*
X165384653Y-78652884D01*
X165301950Y-78706033D01*
X165217118Y-78803937D01*
X165217117Y-78803938D01*
X165163302Y-78921774D01*
X165144867Y-79050000D01*
X165162799Y-79174725D01*
X165152855Y-79243883D01*
X165107100Y-79296687D01*
X165040060Y-79316371D01*
X165005128Y-79311349D01*
X164964772Y-79299500D01*
X164835228Y-79299500D01*
X164835226Y-79299500D01*
X164710935Y-79335994D01*
X164710932Y-79335995D01*
X164710931Y-79335996D01*
X164677131Y-79357718D01*
X164601950Y-79406033D01*
X164517118Y-79503937D01*
X164517117Y-79503938D01*
X164463302Y-79621774D01*
X164444867Y-79750000D01*
X159085645Y-79750000D01*
X159058528Y-79696780D01*
X159058526Y-79696778D01*
X159058523Y-79696774D01*
X158963225Y-79601476D01*
X158963221Y-79601473D01*
X158963220Y-79601472D01*
X158843126Y-79540281D01*
X158843124Y-79540280D01*
X158843121Y-79540279D01*
X158710002Y-79519196D01*
X158709998Y-79519196D01*
X158576878Y-79540279D01*
X158456778Y-79601473D01*
X158456774Y-79601476D01*
X158361476Y-79696774D01*
X158361473Y-79696778D01*
X158361472Y-79696780D01*
X158317477Y-79783126D01*
X158300279Y-79816878D01*
X158279196Y-79949997D01*
X138581751Y-79949997D01*
X138628528Y-79903220D01*
X138689719Y-79783126D01*
X138696422Y-79740804D01*
X138710804Y-79650002D01*
X138710804Y-79649997D01*
X138689720Y-79516878D01*
X138689719Y-79516876D01*
X138689719Y-79516874D01*
X138628528Y-79396780D01*
X138628526Y-79396778D01*
X138628523Y-79396774D01*
X138533225Y-79301476D01*
X138533221Y-79301473D01*
X138533220Y-79301472D01*
X138413126Y-79240281D01*
X138413124Y-79240280D01*
X138413121Y-79240279D01*
X138280002Y-79219196D01*
X138279998Y-79219196D01*
X138146878Y-79240279D01*
X138026778Y-79301473D01*
X138026774Y-79301476D01*
X137931476Y-79396774D01*
X137931473Y-79396778D01*
X137870279Y-79516878D01*
X137849196Y-79649997D01*
X134360377Y-79649997D01*
X134349139Y-79638759D01*
X134315654Y-79577436D01*
X134320638Y-79507744D01*
X134323111Y-79502118D01*
X134324016Y-79499334D01*
X134345100Y-79366214D01*
X134345100Y-79366209D01*
X134324016Y-79233090D01*
X134324015Y-79233088D01*
X134324015Y-79233086D01*
X134262824Y-79112992D01*
X134262822Y-79112990D01*
X134262819Y-79112986D01*
X134188822Y-79038989D01*
X134155337Y-78977666D01*
X134160321Y-78907974D01*
X134202193Y-78852041D01*
X134220197Y-78840829D01*
X134303220Y-78798528D01*
X134398528Y-78703220D01*
X134459719Y-78583126D01*
X134460139Y-78580474D01*
X134480804Y-78450002D01*
X134480804Y-78449996D01*
X134462416Y-78333897D01*
X134471371Y-78264604D01*
X134516367Y-78211152D01*
X134583119Y-78190513D01*
X134584889Y-78190500D01*
X139998948Y-78190500D01*
X140065987Y-78210185D01*
X140086629Y-78226819D01*
X141399220Y-79539410D01*
X141426100Y-79579638D01*
X141451204Y-79640245D01*
X141451205Y-79640246D01*
X141451206Y-79640248D01*
X141465233Y-79658528D01*
X141540623Y-79756780D01*
X141547460Y-79765689D01*
X141672901Y-79861943D01*
X141818980Y-79922451D01*
X141877825Y-79930198D01*
X141975741Y-79943089D01*
X141975742Y-79943089D01*
X141975743Y-79943089D01*
X142073659Y-79930198D01*
X142132504Y-79922451D01*
X142278583Y-79861943D01*
X142404024Y-79765689D01*
X142500278Y-79640248D01*
X142560786Y-79494169D01*
X142577632Y-79366209D01*
X142581424Y-79337408D01*
X142581424Y-79337405D01*
X142562728Y-79195395D01*
X142560786Y-79180645D01*
X142500278Y-79034566D01*
X142404024Y-78909125D01*
X142404022Y-78909124D01*
X142404022Y-78909123D01*
X142365984Y-78879936D01*
X142278583Y-78812871D01*
X142278579Y-78812869D01*
X142278580Y-78812869D01*
X142217973Y-78787765D01*
X142177745Y-78760885D01*
X141956857Y-78539997D01*
X154329196Y-78539997D01*
X154329196Y-78540002D01*
X154350279Y-78673121D01*
X154350280Y-78673124D01*
X154350281Y-78673126D01*
X154411472Y-78793220D01*
X154411473Y-78793221D01*
X154411476Y-78793225D01*
X154506774Y-78888523D01*
X154506778Y-78888526D01*
X154506780Y-78888528D01*
X154626874Y-78949719D01*
X154626876Y-78949719D01*
X154626878Y-78949720D01*
X154759998Y-78970804D01*
X154760000Y-78970804D01*
X154760002Y-78970804D01*
X154893121Y-78949720D01*
X154893121Y-78949719D01*
X154893126Y-78949719D01*
X155013220Y-78888528D01*
X155108528Y-78793220D01*
X155169719Y-78673126D01*
X155169720Y-78673121D01*
X155190804Y-78540002D01*
X155190804Y-78539997D01*
X155169720Y-78406878D01*
X155169719Y-78406876D01*
X155169719Y-78406874D01*
X155108528Y-78286780D01*
X155108526Y-78286778D01*
X155108523Y-78286774D01*
X155013225Y-78191476D01*
X155013221Y-78191473D01*
X155013220Y-78191472D01*
X154893126Y-78130281D01*
X154893124Y-78130280D01*
X154893121Y-78130279D01*
X154760002Y-78109196D01*
X154759998Y-78109196D01*
X154626878Y-78130279D01*
X154506778Y-78191473D01*
X154506774Y-78191476D01*
X154411476Y-78286774D01*
X154411473Y-78286778D01*
X154350279Y-78406878D01*
X154329196Y-78539997D01*
X141956857Y-78539997D01*
X141016858Y-77599998D01*
X155394318Y-77599998D01*
X155394318Y-77600001D01*
X155414955Y-77756760D01*
X155414956Y-77756762D01*
X155467692Y-77884079D01*
X155475464Y-77902841D01*
X155571718Y-78028282D01*
X155697159Y-78124536D01*
X155843238Y-78185044D01*
X155906207Y-78193334D01*
X155999999Y-78205682D01*
X156000000Y-78205682D01*
X156000001Y-78205682D01*
X156043178Y-78199997D01*
X168619196Y-78199997D01*
X168619196Y-78200002D01*
X168640279Y-78333121D01*
X168640280Y-78333124D01*
X168640281Y-78333126D01*
X168701472Y-78453220D01*
X168701473Y-78453221D01*
X168701476Y-78453225D01*
X168796774Y-78548523D01*
X168796778Y-78548526D01*
X168796780Y-78548528D01*
X168916874Y-78609719D01*
X168916876Y-78609719D01*
X168916878Y-78609720D01*
X169049998Y-78630804D01*
X169050000Y-78630804D01*
X169050002Y-78630804D01*
X169183121Y-78609720D01*
X169183121Y-78609719D01*
X169183126Y-78609719D01*
X169303220Y-78548528D01*
X169398528Y-78453220D01*
X169459719Y-78333126D01*
X169463893Y-78306774D01*
X169480804Y-78200002D01*
X169480804Y-78199997D01*
X169459720Y-78066878D01*
X169459719Y-78066876D01*
X169459719Y-78066874D01*
X169398528Y-77946780D01*
X169398526Y-77946778D01*
X169398523Y-77946774D01*
X169303225Y-77851476D01*
X169303221Y-77851473D01*
X169303220Y-77851472D01*
X169183126Y-77790281D01*
X169183124Y-77790280D01*
X169183121Y-77790279D01*
X169050002Y-77769196D01*
X169049998Y-77769196D01*
X168916878Y-77790279D01*
X168796778Y-77851473D01*
X168796774Y-77851476D01*
X168701476Y-77946774D01*
X168701473Y-77946778D01*
X168640279Y-78066878D01*
X168619196Y-78199997D01*
X156043178Y-78199997D01*
X156052254Y-78198802D01*
X156156762Y-78185044D01*
X156302841Y-78124536D01*
X156428282Y-78028282D01*
X156524536Y-77902841D01*
X156585044Y-77756762D01*
X156604930Y-77605710D01*
X156605682Y-77600001D01*
X156605682Y-77599998D01*
X156604365Y-77589997D01*
X158859196Y-77589997D01*
X158859196Y-77590002D01*
X158880279Y-77723121D01*
X158880280Y-77723124D01*
X158880281Y-77723126D01*
X158938558Y-77837500D01*
X158941473Y-77843221D01*
X158941476Y-77843225D01*
X159036774Y-77938523D01*
X159036778Y-77938526D01*
X159036780Y-77938528D01*
X159156874Y-77999719D01*
X159156876Y-77999719D01*
X159156878Y-77999720D01*
X159289998Y-78020804D01*
X159290000Y-78020804D01*
X159290002Y-78020804D01*
X159423121Y-77999720D01*
X159423121Y-77999719D01*
X159423126Y-77999719D01*
X159543220Y-77938528D01*
X159638528Y-77843220D01*
X159699719Y-77723126D01*
X159704682Y-77691790D01*
X159720804Y-77590002D01*
X159720804Y-77589997D01*
X159699720Y-77456878D01*
X159699719Y-77456876D01*
X159699719Y-77456874D01*
X159638528Y-77336780D01*
X159638526Y-77336778D01*
X159638523Y-77336774D01*
X159543225Y-77241476D01*
X159543221Y-77241473D01*
X159543220Y-77241472D01*
X159423126Y-77180281D01*
X159423124Y-77180280D01*
X159423121Y-77180279D01*
X159290002Y-77159196D01*
X159289998Y-77159196D01*
X159156878Y-77180279D01*
X159036778Y-77241473D01*
X159036774Y-77241476D01*
X158941476Y-77336774D01*
X158941473Y-77336778D01*
X158880279Y-77456878D01*
X158859196Y-77589997D01*
X156604365Y-77589997D01*
X156585044Y-77443239D01*
X156585044Y-77443238D01*
X156524536Y-77297159D01*
X156428282Y-77171718D01*
X156302841Y-77075464D01*
X156289203Y-77069815D01*
X156156762Y-77014956D01*
X156156760Y-77014955D01*
X156000001Y-76994318D01*
X155999999Y-76994318D01*
X155843239Y-77014955D01*
X155843237Y-77014956D01*
X155697160Y-77075463D01*
X155571718Y-77171718D01*
X155475463Y-77297160D01*
X155414956Y-77443237D01*
X155414955Y-77443239D01*
X155394318Y-77599998D01*
X141016858Y-77599998D01*
X140616351Y-77199491D01*
X140616350Y-77199490D01*
X140490820Y-77127016D01*
X140490821Y-77127016D01*
X140455817Y-77117637D01*
X140350810Y-77089500D01*
X134791611Y-77089500D01*
X134724572Y-77069815D01*
X134678817Y-77017011D01*
X134668873Y-76947853D01*
X134697898Y-76884297D01*
X134703930Y-76877819D01*
X134758523Y-76823225D01*
X134758528Y-76823220D01*
X134770361Y-76799997D01*
X161889196Y-76799997D01*
X161889196Y-76800002D01*
X161910279Y-76933121D01*
X161910280Y-76933124D01*
X161910281Y-76933126D01*
X161956926Y-77024671D01*
X161971473Y-77053221D01*
X161971476Y-77053225D01*
X162066774Y-77148523D01*
X162066778Y-77148526D01*
X162066780Y-77148528D01*
X162186874Y-77209719D01*
X162186876Y-77209719D01*
X162186878Y-77209720D01*
X162319998Y-77230804D01*
X162320000Y-77230804D01*
X162320002Y-77230804D01*
X162453121Y-77209720D01*
X162453121Y-77209719D01*
X162453126Y-77209719D01*
X162573220Y-77148528D01*
X162621751Y-77099997D01*
X167819196Y-77099997D01*
X167819196Y-77100002D01*
X167840279Y-77233121D01*
X167840280Y-77233124D01*
X167840281Y-77233126D01*
X167901472Y-77353220D01*
X167901473Y-77353221D01*
X167901476Y-77353225D01*
X167996774Y-77448523D01*
X167996778Y-77448526D01*
X167996780Y-77448528D01*
X168116874Y-77509719D01*
X168116876Y-77509719D01*
X168116878Y-77509720D01*
X168249998Y-77530804D01*
X168250000Y-77530804D01*
X168250002Y-77530804D01*
X168383121Y-77509720D01*
X168383121Y-77509719D01*
X168383126Y-77509719D01*
X168503220Y-77448528D01*
X168598528Y-77353220D01*
X168659719Y-77233126D01*
X168660498Y-77228207D01*
X168680804Y-77100002D01*
X168680804Y-77099997D01*
X168659720Y-76966878D01*
X168659719Y-76966876D01*
X168659719Y-76966874D01*
X168598528Y-76846780D01*
X168598526Y-76846778D01*
X168598523Y-76846774D01*
X168503225Y-76751476D01*
X168503221Y-76751473D01*
X168503220Y-76751472D01*
X168383126Y-76690281D01*
X168383124Y-76690280D01*
X168383121Y-76690279D01*
X168250002Y-76669196D01*
X168249998Y-76669196D01*
X168116878Y-76690279D01*
X167996778Y-76751473D01*
X167996774Y-76751476D01*
X167901476Y-76846774D01*
X167901473Y-76846778D01*
X167901472Y-76846780D01*
X167857477Y-76933126D01*
X167840279Y-76966878D01*
X167819196Y-77099997D01*
X162621751Y-77099997D01*
X162668528Y-77053220D01*
X162729719Y-76933126D01*
X162730513Y-76928114D01*
X162750804Y-76800002D01*
X162750804Y-76799997D01*
X162729720Y-76666878D01*
X162729719Y-76666876D01*
X162729719Y-76666874D01*
X162668528Y-76546780D01*
X162668526Y-76546778D01*
X162668523Y-76546774D01*
X162573225Y-76451476D01*
X162573221Y-76451473D01*
X162573220Y-76451472D01*
X162453126Y-76390281D01*
X162453124Y-76390280D01*
X162453121Y-76390279D01*
X162320002Y-76369196D01*
X162319998Y-76369196D01*
X162186878Y-76390279D01*
X162066778Y-76451473D01*
X162066774Y-76451476D01*
X161971476Y-76546774D01*
X161971473Y-76546778D01*
X161910279Y-76666878D01*
X161889196Y-76799997D01*
X134770361Y-76799997D01*
X134819719Y-76703126D01*
X134819720Y-76703121D01*
X134840804Y-76570002D01*
X134840804Y-76569997D01*
X134819720Y-76436878D01*
X134819719Y-76436876D01*
X134819719Y-76436874D01*
X134758528Y-76316780D01*
X134758526Y-76316778D01*
X134758523Y-76316774D01*
X134663225Y-76221476D01*
X134663221Y-76221473D01*
X134663220Y-76221472D01*
X134543126Y-76160281D01*
X134543124Y-76160280D01*
X134543121Y-76160279D01*
X134410002Y-76139196D01*
X134409998Y-76139196D01*
X134276878Y-76160279D01*
X134156778Y-76221473D01*
X134156774Y-76221476D01*
X134061476Y-76316774D01*
X134061473Y-76316778D01*
X134000279Y-76436878D01*
X133979196Y-76569997D01*
X133979196Y-76570002D01*
X134000279Y-76703121D01*
X134000280Y-76703124D01*
X134000281Y-76703126D01*
X134054365Y-76809271D01*
X134061473Y-76823221D01*
X134061476Y-76823225D01*
X134116070Y-76877819D01*
X134149555Y-76939142D01*
X134144571Y-77008834D01*
X134102699Y-77064767D01*
X134037235Y-77089184D01*
X134028389Y-77089500D01*
X131377525Y-77089500D01*
X131272517Y-77117637D01*
X131237514Y-77127016D01*
X131111986Y-77199489D01*
X131111983Y-77199491D01*
X130414023Y-77897450D01*
X130352700Y-77930935D01*
X130283008Y-77925951D01*
X130227075Y-77884079D01*
X130222214Y-77876271D01*
X130218347Y-77870948D01*
X130218346Y-77870946D01*
X130218343Y-77870943D01*
X130218341Y-77870940D01*
X130123043Y-77775642D01*
X130123039Y-77775639D01*
X130123038Y-77775638D01*
X130002944Y-77714447D01*
X130002942Y-77714446D01*
X130002939Y-77714445D01*
X129869820Y-77693362D01*
X129869816Y-77693362D01*
X129736696Y-77714445D01*
X129616596Y-77775639D01*
X129616592Y-77775642D01*
X129521294Y-77870940D01*
X129521291Y-77870944D01*
X129460097Y-77991044D01*
X129439014Y-78124163D01*
X129439014Y-78124168D01*
X129460097Y-78257287D01*
X129460098Y-78257290D01*
X129460099Y-78257292D01*
X129499132Y-78333898D01*
X129521291Y-78377387D01*
X129521294Y-78377391D01*
X129616592Y-78472689D01*
X129616595Y-78472691D01*
X129616598Y-78472694D01*
X129616600Y-78472695D01*
X129624490Y-78478427D01*
X129623110Y-78480325D01*
X129663989Y-78518928D01*
X129680789Y-78586748D01*
X129658255Y-78652884D01*
X129644583Y-78669126D01*
X125180530Y-83133181D01*
X125119207Y-83166666D01*
X125092849Y-83169500D01*
X114449351Y-83169500D01*
X114382312Y-83149815D01*
X114361670Y-83133181D01*
X113826484Y-82597995D01*
X113799604Y-82557766D01*
X113774501Y-82497161D01*
X113774500Y-82497160D01*
X113774500Y-82497159D01*
X113678246Y-82371718D01*
X113584777Y-82299997D01*
X119969196Y-82299997D01*
X119969196Y-82300002D01*
X119990279Y-82433121D01*
X119990280Y-82433124D01*
X119990281Y-82433126D01*
X120051472Y-82553220D01*
X120051473Y-82553221D01*
X120051476Y-82553225D01*
X120146774Y-82648523D01*
X120146778Y-82648526D01*
X120146780Y-82648528D01*
X120266874Y-82709719D01*
X120266876Y-82709719D01*
X120266878Y-82709720D01*
X120399998Y-82730804D01*
X120400000Y-82730804D01*
X120400002Y-82730804D01*
X120533121Y-82709720D01*
X120533121Y-82709719D01*
X120533126Y-82709719D01*
X120653220Y-82648528D01*
X120748528Y-82553220D01*
X120809719Y-82433126D01*
X120818133Y-82380002D01*
X120830804Y-82300002D01*
X120830804Y-82299997D01*
X120810170Y-82169720D01*
X120809719Y-82166874D01*
X120809718Y-82166872D01*
X120807894Y-82161257D01*
X120805895Y-82091416D01*
X120825939Y-82058172D01*
X120765907Y-82051284D01*
X120726495Y-82024746D01*
X120653225Y-81951476D01*
X120653221Y-81951473D01*
X120653220Y-81951472D01*
X120533126Y-81890281D01*
X120533124Y-81890280D01*
X120533121Y-81890279D01*
X120400002Y-81869196D01*
X120399998Y-81869196D01*
X120266878Y-81890279D01*
X120146778Y-81951473D01*
X120146774Y-81951476D01*
X120051476Y-82046774D01*
X120051473Y-82046778D01*
X119990279Y-82166878D01*
X119969196Y-82299997D01*
X113584777Y-82299997D01*
X113552805Y-82275464D01*
X113520435Y-82262056D01*
X113406726Y-82214956D01*
X113406724Y-82214955D01*
X113249965Y-82194318D01*
X113249963Y-82194318D01*
X113093203Y-82214955D01*
X113093201Y-82214956D01*
X112947124Y-82275463D01*
X112821682Y-82371718D01*
X112725427Y-82497160D01*
X112664920Y-82643237D01*
X112664919Y-82643239D01*
X112644282Y-82799998D01*
X106377500Y-82799998D01*
X106377500Y-81629310D01*
X118459936Y-81629310D01*
X118459936Y-81629315D01*
X118481019Y-81762434D01*
X118481020Y-81762437D01*
X118481021Y-81762439D01*
X118542212Y-81882533D01*
X118542213Y-81882534D01*
X118542216Y-81882538D01*
X118637514Y-81977836D01*
X118637518Y-81977839D01*
X118637520Y-81977841D01*
X118757614Y-82039032D01*
X118757616Y-82039032D01*
X118757618Y-82039033D01*
X118890738Y-82060117D01*
X118890740Y-82060117D01*
X118890742Y-82060117D01*
X119023861Y-82039033D01*
X119023861Y-82039032D01*
X119023866Y-82039032D01*
X119143960Y-81977841D01*
X119239268Y-81882533D01*
X119300459Y-81762439D01*
X119300845Y-81760002D01*
X119300846Y-81759997D01*
X120909196Y-81759997D01*
X120909196Y-81760002D01*
X120930280Y-81893124D01*
X120932107Y-81898747D01*
X120934102Y-81968588D01*
X120914058Y-82001827D01*
X120974087Y-82008713D01*
X121013504Y-82035253D01*
X121086774Y-82108523D01*
X121086778Y-82108526D01*
X121086780Y-82108528D01*
X121206874Y-82169719D01*
X121206876Y-82169719D01*
X121206878Y-82169720D01*
X121339998Y-82190804D01*
X121340000Y-82190804D01*
X121340002Y-82190804D01*
X121473121Y-82169720D01*
X121473121Y-82169719D01*
X121473126Y-82169719D01*
X121593220Y-82108528D01*
X121688528Y-82013220D01*
X121700361Y-81989997D01*
X121999196Y-81989997D01*
X121999196Y-81990002D01*
X122020279Y-82123121D01*
X122020280Y-82123124D01*
X122020281Y-82123126D01*
X122067071Y-82214956D01*
X122081473Y-82243221D01*
X122081476Y-82243225D01*
X122176774Y-82338523D01*
X122176778Y-82338526D01*
X122176780Y-82338528D01*
X122296874Y-82399719D01*
X122296876Y-82399719D01*
X122296878Y-82399720D01*
X122429998Y-82420804D01*
X122430000Y-82420804D01*
X122430002Y-82420804D01*
X122563121Y-82399720D01*
X122563121Y-82399719D01*
X122563126Y-82399719D01*
X122628142Y-82366591D01*
X122696808Y-82353696D01*
X122761548Y-82379972D01*
X122794918Y-82420780D01*
X122841472Y-82512148D01*
X122841474Y-82512150D01*
X122841476Y-82512153D01*
X122936774Y-82607451D01*
X122936778Y-82607454D01*
X122936780Y-82607456D01*
X123056874Y-82668647D01*
X123056876Y-82668647D01*
X123056878Y-82668648D01*
X123189998Y-82689732D01*
X123190000Y-82689732D01*
X123190002Y-82689732D01*
X123323121Y-82668648D01*
X123323121Y-82668647D01*
X123323126Y-82668647D01*
X123443220Y-82607456D01*
X123538528Y-82512148D01*
X123599719Y-82392054D01*
X123599883Y-82391018D01*
X123620804Y-82258930D01*
X123620804Y-82258925D01*
X123599720Y-82125806D01*
X123599719Y-82125804D01*
X123599719Y-82125802D01*
X123538528Y-82005708D01*
X123538526Y-82005706D01*
X123538523Y-82005702D01*
X123443225Y-81910404D01*
X123443221Y-81910401D01*
X123443220Y-81910400D01*
X123323126Y-81849209D01*
X123323124Y-81849208D01*
X123323121Y-81849207D01*
X123190002Y-81828124D01*
X123189998Y-81828124D01*
X123056875Y-81849208D01*
X123056874Y-81849208D01*
X122991858Y-81882335D01*
X122923189Y-81895231D01*
X122858449Y-81868954D01*
X122825082Y-81828147D01*
X122778528Y-81736780D01*
X122778526Y-81736778D01*
X122778523Y-81736774D01*
X122683225Y-81641476D01*
X122683221Y-81641473D01*
X122683220Y-81641472D01*
X122563126Y-81580281D01*
X122563124Y-81580280D01*
X122563121Y-81580279D01*
X122430002Y-81559196D01*
X122429998Y-81559196D01*
X122296878Y-81580279D01*
X122176778Y-81641473D01*
X122176774Y-81641476D01*
X122081476Y-81736774D01*
X122081473Y-81736778D01*
X122020279Y-81856878D01*
X121999196Y-81989997D01*
X121700361Y-81989997D01*
X121749719Y-81893126D01*
X121753509Y-81869196D01*
X121770804Y-81760002D01*
X121770804Y-81759997D01*
X121749720Y-81626878D01*
X121749719Y-81626876D01*
X121749719Y-81626874D01*
X121688528Y-81506780D01*
X121688526Y-81506778D01*
X121688523Y-81506774D01*
X121593225Y-81411476D01*
X121593221Y-81411473D01*
X121593220Y-81411472D01*
X121473126Y-81350281D01*
X121473124Y-81350280D01*
X121473121Y-81350279D01*
X121340002Y-81329196D01*
X121339998Y-81329196D01*
X121206878Y-81350279D01*
X121086778Y-81411473D01*
X121086774Y-81411476D01*
X120991476Y-81506774D01*
X120991473Y-81506778D01*
X120930279Y-81626878D01*
X120909196Y-81759997D01*
X119300846Y-81759997D01*
X119321544Y-81629315D01*
X119321544Y-81629310D01*
X119300460Y-81496191D01*
X119300459Y-81496189D01*
X119300459Y-81496187D01*
X119239268Y-81376093D01*
X119239266Y-81376091D01*
X119239263Y-81376087D01*
X119143965Y-81280789D01*
X119143961Y-81280786D01*
X119143960Y-81280785D01*
X119023866Y-81219594D01*
X119023864Y-81219593D01*
X119023861Y-81219592D01*
X118890742Y-81198509D01*
X118890738Y-81198509D01*
X118757618Y-81219592D01*
X118637518Y-81280786D01*
X118637514Y-81280789D01*
X118542216Y-81376087D01*
X118542213Y-81376091D01*
X118481019Y-81496191D01*
X118459936Y-81629310D01*
X106377500Y-81629310D01*
X106377500Y-80799997D01*
X123719196Y-80799997D01*
X123719196Y-80800002D01*
X123740279Y-80933121D01*
X123740280Y-80933124D01*
X123740281Y-80933126D01*
X123801472Y-81053220D01*
X123801473Y-81053221D01*
X123801476Y-81053225D01*
X123896774Y-81148523D01*
X123896778Y-81148526D01*
X123896780Y-81148528D01*
X124016874Y-81209719D01*
X124016876Y-81209719D01*
X124016878Y-81209720D01*
X124149998Y-81230804D01*
X124150000Y-81230804D01*
X124150002Y-81230804D01*
X124283121Y-81209720D01*
X124283121Y-81209719D01*
X124283126Y-81209719D01*
X124403220Y-81148528D01*
X124498528Y-81053220D01*
X124526553Y-80998217D01*
X124574525Y-80947424D01*
X124642346Y-80930629D01*
X124708481Y-80953166D01*
X124751933Y-81007881D01*
X124759509Y-81035117D01*
X124770279Y-81103121D01*
X124770280Y-81103124D01*
X124770281Y-81103126D01*
X124831472Y-81223220D01*
X124831473Y-81223221D01*
X124831476Y-81223225D01*
X124926774Y-81318523D01*
X124926778Y-81318526D01*
X124926780Y-81318528D01*
X125046874Y-81379719D01*
X125046876Y-81379719D01*
X125046878Y-81379720D01*
X125179998Y-81400804D01*
X125180000Y-81400804D01*
X125180002Y-81400804D01*
X125313121Y-81379720D01*
X125313121Y-81379719D01*
X125313126Y-81379719D01*
X125433220Y-81318528D01*
X125528528Y-81223220D01*
X125589719Y-81103126D01*
X125589720Y-81103121D01*
X125610804Y-80970002D01*
X125610804Y-80969997D01*
X125589720Y-80836878D01*
X125589719Y-80836876D01*
X125589719Y-80836874D01*
X125528528Y-80716780D01*
X125528526Y-80716778D01*
X125528523Y-80716774D01*
X125433225Y-80621476D01*
X125433221Y-80621473D01*
X125433220Y-80621472D01*
X125313126Y-80560281D01*
X125313124Y-80560280D01*
X125313121Y-80560279D01*
X125180002Y-80539196D01*
X125179998Y-80539196D01*
X125046878Y-80560279D01*
X124926778Y-80621473D01*
X124926774Y-80621476D01*
X124831476Y-80716774D01*
X124831472Y-80716779D01*
X124803447Y-80771781D01*
X124755472Y-80822576D01*
X124687650Y-80839370D01*
X124621516Y-80816831D01*
X124578065Y-80762116D01*
X124570491Y-80734888D01*
X124559719Y-80666874D01*
X124498528Y-80546780D01*
X124498526Y-80546778D01*
X124498523Y-80546774D01*
X124403225Y-80451476D01*
X124403221Y-80451473D01*
X124403220Y-80451472D01*
X124283126Y-80390281D01*
X124283124Y-80390280D01*
X124283121Y-80390279D01*
X124150002Y-80369196D01*
X124149998Y-80369196D01*
X124016878Y-80390279D01*
X123896778Y-80451473D01*
X123896774Y-80451476D01*
X123801476Y-80546774D01*
X123801473Y-80546778D01*
X123801472Y-80546780D01*
X123763415Y-80621472D01*
X123740279Y-80666878D01*
X123719196Y-80799997D01*
X106377500Y-80799997D01*
X106377500Y-78833691D01*
X116973928Y-78833691D01*
X116973928Y-78833696D01*
X116995011Y-78966815D01*
X116995012Y-78966818D01*
X116995013Y-78966820D01*
X117054274Y-79083126D01*
X117056205Y-79086915D01*
X117056208Y-79086919D01*
X117151506Y-79182217D01*
X117151510Y-79182220D01*
X117151512Y-79182222D01*
X117271606Y-79243413D01*
X117271608Y-79243413D01*
X117271610Y-79243414D01*
X117404730Y-79264498D01*
X117404732Y-79264498D01*
X117404734Y-79264498D01*
X117537853Y-79243414D01*
X117537853Y-79243413D01*
X117537858Y-79243413D01*
X117657952Y-79182222D01*
X117753260Y-79086914D01*
X117814451Y-78966820D01*
X117817115Y-78950000D01*
X117817115Y-78949997D01*
X118969196Y-78949997D01*
X118969196Y-78950002D01*
X118990279Y-79083121D01*
X118990280Y-79083124D01*
X118990281Y-79083126D01*
X119051472Y-79203220D01*
X119051473Y-79203221D01*
X119051476Y-79203225D01*
X119146774Y-79298523D01*
X119146778Y-79298526D01*
X119146780Y-79298528D01*
X119266874Y-79359719D01*
X119266876Y-79359719D01*
X119266878Y-79359720D01*
X119399998Y-79380804D01*
X119400000Y-79380804D01*
X119400002Y-79380804D01*
X119533121Y-79359720D01*
X119533121Y-79359719D01*
X119533126Y-79359719D01*
X119653220Y-79298528D01*
X119748528Y-79203220D01*
X119801123Y-79099997D01*
X120909196Y-79099997D01*
X120909196Y-79100002D01*
X120930279Y-79233121D01*
X120930280Y-79233124D01*
X120930281Y-79233126D01*
X120991472Y-79353220D01*
X120991473Y-79353221D01*
X120991476Y-79353225D01*
X121086774Y-79448523D01*
X121086778Y-79448526D01*
X121086780Y-79448528D01*
X121206874Y-79509719D01*
X121206876Y-79509719D01*
X121206878Y-79509720D01*
X121339998Y-79530804D01*
X121340000Y-79530804D01*
X121340002Y-79530804D01*
X121473121Y-79509720D01*
X121473121Y-79509719D01*
X121473126Y-79509719D01*
X121593220Y-79448528D01*
X121688528Y-79353220D01*
X121694324Y-79341843D01*
X121742296Y-79291048D01*
X121810116Y-79274251D01*
X121876252Y-79296786D01*
X121915292Y-79341840D01*
X121941472Y-79393220D01*
X121941474Y-79393222D01*
X121941476Y-79393225D01*
X122036774Y-79488523D01*
X122036778Y-79488526D01*
X122036780Y-79488528D01*
X122156874Y-79549719D01*
X122156876Y-79549719D01*
X122156878Y-79549720D01*
X122289998Y-79570804D01*
X122290000Y-79570804D01*
X122290002Y-79570804D01*
X122423121Y-79549720D01*
X122423121Y-79549719D01*
X122423126Y-79549719D01*
X122543220Y-79488528D01*
X122605538Y-79426209D01*
X122666859Y-79392726D01*
X122736551Y-79397710D01*
X122792485Y-79439581D01*
X122798006Y-79448449D01*
X122801476Y-79453225D01*
X122896774Y-79548523D01*
X122896778Y-79548526D01*
X122896780Y-79548528D01*
X123016874Y-79609719D01*
X123016876Y-79609719D01*
X123016878Y-79609720D01*
X123149998Y-79630804D01*
X123150000Y-79630804D01*
X123150002Y-79630804D01*
X123283121Y-79609720D01*
X123283121Y-79609719D01*
X123283126Y-79609719D01*
X123403220Y-79548528D01*
X123498528Y-79453220D01*
X123559719Y-79333126D01*
X123563168Y-79311349D01*
X123580804Y-79200002D01*
X123580804Y-79199997D01*
X123559720Y-79066878D01*
X123559719Y-79066876D01*
X123559719Y-79066874D01*
X123498528Y-78946780D01*
X123498526Y-78946778D01*
X123498523Y-78946774D01*
X123403225Y-78851476D01*
X123403221Y-78851473D01*
X123403220Y-78851472D01*
X123283126Y-78790281D01*
X123283124Y-78790280D01*
X123283121Y-78790279D01*
X123150002Y-78769196D01*
X123149998Y-78769196D01*
X123016878Y-78790279D01*
X123016874Y-78790280D01*
X123016874Y-78790281D01*
X122949286Y-78824719D01*
X122896778Y-78851473D01*
X122896777Y-78851473D01*
X122834462Y-78913789D01*
X122773138Y-78947273D01*
X122703447Y-78942288D01*
X122647513Y-78900417D01*
X122641993Y-78891551D01*
X122638529Y-78886782D01*
X122638528Y-78886780D01*
X122638525Y-78886777D01*
X122638523Y-78886774D01*
X122543225Y-78791476D01*
X122543221Y-78791473D01*
X122543220Y-78791472D01*
X122423126Y-78730281D01*
X122423124Y-78730280D01*
X122423121Y-78730279D01*
X122290002Y-78709196D01*
X122289998Y-78709196D01*
X122156878Y-78730279D01*
X122036778Y-78791473D01*
X122036774Y-78791476D01*
X121941476Y-78886774D01*
X121941470Y-78886782D01*
X121935673Y-78898160D01*
X121887697Y-78948955D01*
X121819876Y-78965748D01*
X121753741Y-78943208D01*
X121714707Y-78898159D01*
X121688528Y-78846780D01*
X121688526Y-78846778D01*
X121688523Y-78846774D01*
X121593225Y-78751476D01*
X121593221Y-78751473D01*
X121593220Y-78751472D01*
X121473126Y-78690281D01*
X121473124Y-78690280D01*
X121473121Y-78690279D01*
X121340002Y-78669196D01*
X121339998Y-78669196D01*
X121206878Y-78690279D01*
X121086778Y-78751473D01*
X121086774Y-78751476D01*
X120991476Y-78846774D01*
X120991473Y-78846778D01*
X120930279Y-78966878D01*
X120909196Y-79099997D01*
X119801123Y-79099997D01*
X119809719Y-79083126D01*
X119810133Y-79080515D01*
X119830804Y-78950002D01*
X119830804Y-78949997D01*
X119809720Y-78816878D01*
X119809719Y-78816876D01*
X119809719Y-78816874D01*
X119748528Y-78696780D01*
X119748526Y-78696778D01*
X119748523Y-78696774D01*
X119653225Y-78601476D01*
X119653221Y-78601473D01*
X119653220Y-78601472D01*
X119533126Y-78540281D01*
X119533124Y-78540280D01*
X119533121Y-78540279D01*
X119400002Y-78519196D01*
X119399998Y-78519196D01*
X119266878Y-78540279D01*
X119146778Y-78601473D01*
X119146774Y-78601476D01*
X119051476Y-78696774D01*
X119051473Y-78696778D01*
X119051472Y-78696780D01*
X119006113Y-78785803D01*
X118990279Y-78816878D01*
X118969196Y-78949997D01*
X117817115Y-78949997D01*
X117835536Y-78833696D01*
X117835536Y-78833691D01*
X117814452Y-78700572D01*
X117814451Y-78700570D01*
X117814451Y-78700568D01*
X117753260Y-78580474D01*
X117753258Y-78580472D01*
X117753255Y-78580468D01*
X117657957Y-78485170D01*
X117657953Y-78485167D01*
X117657952Y-78485166D01*
X117537858Y-78423975D01*
X117537856Y-78423974D01*
X117537853Y-78423973D01*
X117404734Y-78402890D01*
X117404730Y-78402890D01*
X117271610Y-78423973D01*
X117151510Y-78485167D01*
X117151506Y-78485170D01*
X117056208Y-78580468D01*
X117056205Y-78580472D01*
X117056204Y-78580474D01*
X117000255Y-78690281D01*
X116995011Y-78700572D01*
X116973928Y-78833691D01*
X106377500Y-78833691D01*
X106377500Y-78199998D01*
X110619318Y-78199998D01*
X110619318Y-78200001D01*
X110639955Y-78356760D01*
X110639956Y-78356762D01*
X110691137Y-78480325D01*
X110700464Y-78502841D01*
X110796718Y-78628282D01*
X110922159Y-78724536D01*
X111068238Y-78785044D01*
X111130341Y-78793220D01*
X111224999Y-78805682D01*
X111225000Y-78805682D01*
X111225001Y-78805682D01*
X111279378Y-78798523D01*
X111381762Y-78785044D01*
X111527841Y-78724536D01*
X111653282Y-78628282D01*
X111749536Y-78502841D01*
X111810044Y-78356762D01*
X111830682Y-78200000D01*
X111829804Y-78193334D01*
X111810044Y-78043239D01*
X111810044Y-78043238D01*
X111749536Y-77897159D01*
X111653282Y-77771718D01*
X111527841Y-77675464D01*
X111381762Y-77614956D01*
X111381760Y-77614955D01*
X111225001Y-77594318D01*
X111224999Y-77594318D01*
X111068239Y-77614955D01*
X111068237Y-77614956D01*
X110922160Y-77675463D01*
X110796718Y-77771718D01*
X110700463Y-77897160D01*
X110639956Y-78043237D01*
X110639955Y-78043239D01*
X110619318Y-78199998D01*
X106377500Y-78199998D01*
X106377500Y-77410301D01*
X112380000Y-77410301D01*
X112380000Y-77509699D01*
X112405726Y-77605709D01*
X112455425Y-77691790D01*
X112525710Y-77762075D01*
X112611791Y-77811774D01*
X112707801Y-77837500D01*
X112707804Y-77837500D01*
X112807196Y-77837500D01*
X112807199Y-77837500D01*
X112903209Y-77811774D01*
X112989290Y-77762075D01*
X113059575Y-77691790D01*
X113109274Y-77605709D01*
X113135000Y-77509699D01*
X113135000Y-77410301D01*
X113109274Y-77314291D01*
X113059575Y-77228210D01*
X112989290Y-77157925D01*
X112903209Y-77108226D01*
X112807199Y-77082500D01*
X112707801Y-77082500D01*
X112611791Y-77108226D01*
X112611789Y-77108226D01*
X112611789Y-77108227D01*
X112525710Y-77157925D01*
X112525707Y-77157927D01*
X112455427Y-77228207D01*
X112455425Y-77228210D01*
X112415617Y-77297160D01*
X112405726Y-77314291D01*
X112380000Y-77410301D01*
X106377500Y-77410301D01*
X106377500Y-76928111D01*
X115077805Y-76928111D01*
X115077805Y-76928116D01*
X115098888Y-77061235D01*
X115098889Y-77061238D01*
X115098890Y-77061240D01*
X115160081Y-77181334D01*
X115160082Y-77181335D01*
X115160085Y-77181339D01*
X115255383Y-77276637D01*
X115255387Y-77276640D01*
X115255389Y-77276642D01*
X115375483Y-77337833D01*
X115375485Y-77337833D01*
X115375487Y-77337834D01*
X115508607Y-77358918D01*
X115508609Y-77358918D01*
X115508611Y-77358918D01*
X115641730Y-77337834D01*
X115641730Y-77337833D01*
X115641735Y-77337833D01*
X115761829Y-77276642D01*
X115857137Y-77181334D01*
X115918328Y-77061240D01*
X115918329Y-77061235D01*
X115939400Y-76928197D01*
X116260693Y-76928197D01*
X116260693Y-76928202D01*
X116281776Y-77061321D01*
X116281777Y-77061324D01*
X116281778Y-77061326D01*
X116342926Y-77181335D01*
X116342970Y-77181421D01*
X116342973Y-77181425D01*
X116438271Y-77276723D01*
X116438275Y-77276726D01*
X116438277Y-77276728D01*
X116558371Y-77337919D01*
X116558373Y-77337919D01*
X116558375Y-77337920D01*
X116691495Y-77359004D01*
X116691497Y-77359004D01*
X116691499Y-77359004D01*
X116824619Y-77337920D01*
X116824620Y-77337919D01*
X116824623Y-77337919D01*
X116890852Y-77304173D01*
X116959518Y-77291277D01*
X117024259Y-77317553D01*
X117064516Y-77374659D01*
X117069618Y-77395260D01*
X117083533Y-77483121D01*
X117083534Y-77483124D01*
X117083535Y-77483126D01*
X117143086Y-77600001D01*
X117144727Y-77603221D01*
X117144730Y-77603225D01*
X117240028Y-77698523D01*
X117240032Y-77698526D01*
X117240034Y-77698528D01*
X117360128Y-77759719D01*
X117360130Y-77759719D01*
X117360132Y-77759720D01*
X117493252Y-77780804D01*
X117493254Y-77780804D01*
X117493256Y-77780804D01*
X117626375Y-77759720D01*
X117626375Y-77759719D01*
X117626380Y-77759719D01*
X117746474Y-77698528D01*
X117841782Y-77603220D01*
X117902973Y-77483126D01*
X117908454Y-77448523D01*
X117924058Y-77350002D01*
X117924058Y-77349997D01*
X117902974Y-77216878D01*
X117902973Y-77216876D01*
X117902973Y-77216874D01*
X117841782Y-77096780D01*
X117841780Y-77096778D01*
X117841777Y-77096774D01*
X117746479Y-77001476D01*
X117746475Y-77001473D01*
X117746474Y-77001472D01*
X117626380Y-76940281D01*
X117626378Y-76940280D01*
X117626375Y-76940279D01*
X117493256Y-76919196D01*
X117493252Y-76919196D01*
X117360130Y-76940279D01*
X117293899Y-76974026D01*
X117225230Y-76986922D01*
X117160489Y-76960645D01*
X117120233Y-76903538D01*
X117115134Y-76882951D01*
X117101216Y-76795074D01*
X117040025Y-76674980D01*
X117040023Y-76674978D01*
X117040020Y-76674974D01*
X116944722Y-76579676D01*
X116944718Y-76579673D01*
X116944717Y-76579672D01*
X116824623Y-76518481D01*
X116824621Y-76518480D01*
X116824618Y-76518479D01*
X116691499Y-76497396D01*
X116691495Y-76497396D01*
X116558375Y-76518479D01*
X116558371Y-76518480D01*
X116558371Y-76518481D01*
X116487427Y-76554629D01*
X116438275Y-76579673D01*
X116438271Y-76579676D01*
X116342973Y-76674974D01*
X116342970Y-76674978D01*
X116281776Y-76795078D01*
X116260693Y-76928197D01*
X115939400Y-76928197D01*
X115939413Y-76928116D01*
X115939413Y-76928111D01*
X115918329Y-76794992D01*
X115918328Y-76794990D01*
X115918328Y-76794988D01*
X115857137Y-76674894D01*
X115857135Y-76674892D01*
X115857132Y-76674888D01*
X115761834Y-76579590D01*
X115761830Y-76579587D01*
X115761829Y-76579586D01*
X115641735Y-76518395D01*
X115641733Y-76518394D01*
X115641730Y-76518393D01*
X115508611Y-76497310D01*
X115508607Y-76497310D01*
X115375487Y-76518393D01*
X115255387Y-76579587D01*
X115255383Y-76579590D01*
X115160085Y-76674888D01*
X115160082Y-76674892D01*
X115160081Y-76674894D01*
X115121061Y-76751476D01*
X115098888Y-76794992D01*
X115077805Y-76928111D01*
X106377500Y-76928111D01*
X106377500Y-75951500D01*
X106397185Y-75884461D01*
X106449989Y-75838706D01*
X106501500Y-75827500D01*
X109749655Y-75827500D01*
X109816694Y-75847185D01*
G37*
%TD.AperFunction*%
%TD*%
M02*
