%TF.GenerationSoftware,KiCad,Pcbnew,8.0.4*%
%TF.CreationDate,2024-09-10T00:37:34+02:00*%
%TF.ProjectId,ESP32_PICO_LED,45535033-325f-4504-9943-4f5f4c45442e,rev?*%
%TF.SameCoordinates,Original*%
%TF.FileFunction,Legend,Bot*%
%TF.FilePolarity,Positive*%
%FSLAX46Y46*%
G04 Gerber Fmt 4.6, Leading zero omitted, Abs format (unit mm)*
G04 Created by KiCad (PCBNEW 8.0.4) date 2024-09-10 00:37:34*
%MOMM*%
%LPD*%
G01*
G04 APERTURE LIST*
%ADD10C,0.090000*%
%ADD11C,0.120000*%
%ADD12C,0.100000*%
G04 APERTURE END LIST*
D10*
X110353257Y-79415870D02*
X110353257Y-79915870D01*
X110353257Y-79915870D02*
X110472305Y-79915870D01*
X110472305Y-79915870D02*
X110543733Y-79892060D01*
X110543733Y-79892060D02*
X110591352Y-79844441D01*
X110591352Y-79844441D02*
X110615162Y-79796822D01*
X110615162Y-79796822D02*
X110638971Y-79701584D01*
X110638971Y-79701584D02*
X110638971Y-79630156D01*
X110638971Y-79630156D02*
X110615162Y-79534918D01*
X110615162Y-79534918D02*
X110591352Y-79487299D01*
X110591352Y-79487299D02*
X110543733Y-79439680D01*
X110543733Y-79439680D02*
X110472305Y-79415870D01*
X110472305Y-79415870D02*
X110353257Y-79415870D01*
X150640870Y-82471742D02*
X151140870Y-82471742D01*
X151140870Y-82471742D02*
X151140870Y-82352694D01*
X151140870Y-82352694D02*
X151117060Y-82281266D01*
X151117060Y-82281266D02*
X151069441Y-82233647D01*
X151069441Y-82233647D02*
X151021822Y-82209837D01*
X151021822Y-82209837D02*
X150926584Y-82186028D01*
X150926584Y-82186028D02*
X150855156Y-82186028D01*
X150855156Y-82186028D02*
X150759918Y-82209837D01*
X150759918Y-82209837D02*
X150712299Y-82233647D01*
X150712299Y-82233647D02*
X150664680Y-82281266D01*
X150664680Y-82281266D02*
X150640870Y-82352694D01*
X150640870Y-82352694D02*
X150640870Y-82471742D01*
X148215162Y-80042060D02*
X148167543Y-80065870D01*
X148167543Y-80065870D02*
X148096114Y-80065870D01*
X148096114Y-80065870D02*
X148024686Y-80042060D01*
X148024686Y-80042060D02*
X147977067Y-79994441D01*
X147977067Y-79994441D02*
X147953257Y-79946822D01*
X147953257Y-79946822D02*
X147929448Y-79851584D01*
X147929448Y-79851584D02*
X147929448Y-79780156D01*
X147929448Y-79780156D02*
X147953257Y-79684918D01*
X147953257Y-79684918D02*
X147977067Y-79637299D01*
X147977067Y-79637299D02*
X148024686Y-79589680D01*
X148024686Y-79589680D02*
X148096114Y-79565870D01*
X148096114Y-79565870D02*
X148143733Y-79565870D01*
X148143733Y-79565870D02*
X148215162Y-79589680D01*
X148215162Y-79589680D02*
X148238971Y-79613489D01*
X148238971Y-79613489D02*
X148238971Y-79780156D01*
X148238971Y-79780156D02*
X148143733Y-79780156D01*
X148453257Y-79565870D02*
X148453257Y-80065870D01*
X148453257Y-80065870D02*
X148738971Y-79565870D01*
X148738971Y-79565870D02*
X148738971Y-80065870D01*
X148977067Y-79565870D02*
X148977067Y-80065870D01*
X148977067Y-80065870D02*
X149096115Y-80065870D01*
X149096115Y-80065870D02*
X149167543Y-80042060D01*
X149167543Y-80042060D02*
X149215162Y-79994441D01*
X149215162Y-79994441D02*
X149238972Y-79946822D01*
X149238972Y-79946822D02*
X149262781Y-79851584D01*
X149262781Y-79851584D02*
X149262781Y-79780156D01*
X149262781Y-79780156D02*
X149238972Y-79684918D01*
X149238972Y-79684918D02*
X149215162Y-79637299D01*
X149215162Y-79637299D02*
X149167543Y-79589680D01*
X149167543Y-79589680D02*
X149096115Y-79565870D01*
X149096115Y-79565870D02*
X148977067Y-79565870D01*
X153113489Y-82086028D02*
X153089680Y-82109837D01*
X153089680Y-82109837D02*
X153065870Y-82181266D01*
X153065870Y-82181266D02*
X153065870Y-82228885D01*
X153065870Y-82228885D02*
X153089680Y-82300313D01*
X153089680Y-82300313D02*
X153137299Y-82347932D01*
X153137299Y-82347932D02*
X153184918Y-82371742D01*
X153184918Y-82371742D02*
X153280156Y-82395551D01*
X153280156Y-82395551D02*
X153351584Y-82395551D01*
X153351584Y-82395551D02*
X153446822Y-82371742D01*
X153446822Y-82371742D02*
X153494441Y-82347932D01*
X153494441Y-82347932D02*
X153542060Y-82300313D01*
X153542060Y-82300313D02*
X153565870Y-82228885D01*
X153565870Y-82228885D02*
X153565870Y-82181266D01*
X153565870Y-82181266D02*
X153542060Y-82109837D01*
X153542060Y-82109837D02*
X153518251Y-82086028D01*
X151186510Y-79888971D02*
X151210320Y-79865162D01*
X151210320Y-79865162D02*
X151234129Y-79793733D01*
X151234129Y-79793733D02*
X151234129Y-79746114D01*
X151234129Y-79746114D02*
X151210320Y-79674686D01*
X151210320Y-79674686D02*
X151162700Y-79627067D01*
X151162700Y-79627067D02*
X151115081Y-79603257D01*
X151115081Y-79603257D02*
X151019843Y-79579448D01*
X151019843Y-79579448D02*
X150948415Y-79579448D01*
X150948415Y-79579448D02*
X150853177Y-79603257D01*
X150853177Y-79603257D02*
X150805558Y-79627067D01*
X150805558Y-79627067D02*
X150757939Y-79674686D01*
X150757939Y-79674686D02*
X150734129Y-79746114D01*
X150734129Y-79746114D02*
X150734129Y-79793733D01*
X150734129Y-79793733D02*
X150757939Y-79865162D01*
X150757939Y-79865162D02*
X150781748Y-79888971D01*
X152459129Y-76553257D02*
X151959129Y-76553257D01*
X151959129Y-76553257D02*
X151959129Y-76743733D01*
X151959129Y-76743733D02*
X151982939Y-76791352D01*
X151982939Y-76791352D02*
X152006748Y-76815162D01*
X152006748Y-76815162D02*
X152054367Y-76838971D01*
X152054367Y-76838971D02*
X152125796Y-76838971D01*
X152125796Y-76838971D02*
X152173415Y-76815162D01*
X152173415Y-76815162D02*
X152197224Y-76791352D01*
X152197224Y-76791352D02*
X152221034Y-76743733D01*
X152221034Y-76743733D02*
X152221034Y-76553257D01*
X152459129Y-77291352D02*
X152459129Y-77053257D01*
X152459129Y-77053257D02*
X151959129Y-77053257D01*
X152197224Y-77458019D02*
X152197224Y-77624686D01*
X152459129Y-77696114D02*
X152459129Y-77458019D01*
X152459129Y-77458019D02*
X151959129Y-77458019D01*
X151959129Y-77458019D02*
X151959129Y-77696114D01*
X152459129Y-77910400D02*
X151959129Y-77910400D01*
X151959129Y-77910400D02*
X151959129Y-78029448D01*
X151959129Y-78029448D02*
X151982939Y-78100876D01*
X151982939Y-78100876D02*
X152030558Y-78148495D01*
X152030558Y-78148495D02*
X152078177Y-78172305D01*
X152078177Y-78172305D02*
X152173415Y-78196114D01*
X152173415Y-78196114D02*
X152244843Y-78196114D01*
X152244843Y-78196114D02*
X152340081Y-78172305D01*
X152340081Y-78172305D02*
X152387700Y-78148495D01*
X152387700Y-78148495D02*
X152435320Y-78100876D01*
X152435320Y-78100876D02*
X152459129Y-78029448D01*
X152459129Y-78029448D02*
X152459129Y-77910400D01*
X152006748Y-78386591D02*
X151982939Y-78410400D01*
X151982939Y-78410400D02*
X151959129Y-78458019D01*
X151959129Y-78458019D02*
X151959129Y-78577067D01*
X151959129Y-78577067D02*
X151982939Y-78624686D01*
X151982939Y-78624686D02*
X152006748Y-78648495D01*
X152006748Y-78648495D02*
X152054367Y-78672305D01*
X152054367Y-78672305D02*
X152101986Y-78672305D01*
X152101986Y-78672305D02*
X152173415Y-78648495D01*
X152173415Y-78648495D02*
X152459129Y-78362781D01*
X152459129Y-78362781D02*
X152459129Y-78672305D01*
X143782219Y-78107939D02*
X143829838Y-78084129D01*
X143829838Y-78084129D02*
X143901267Y-78084129D01*
X143901267Y-78084129D02*
X143972695Y-78107939D01*
X143972695Y-78107939D02*
X144020314Y-78155558D01*
X144020314Y-78155558D02*
X144044124Y-78203177D01*
X144044124Y-78203177D02*
X144067933Y-78298415D01*
X144067933Y-78298415D02*
X144067933Y-78369843D01*
X144067933Y-78369843D02*
X144044124Y-78465081D01*
X144044124Y-78465081D02*
X144020314Y-78512700D01*
X144020314Y-78512700D02*
X143972695Y-78560320D01*
X143972695Y-78560320D02*
X143901267Y-78584129D01*
X143901267Y-78584129D02*
X143853648Y-78584129D01*
X143853648Y-78584129D02*
X143782219Y-78560320D01*
X143782219Y-78560320D02*
X143758410Y-78536510D01*
X143758410Y-78536510D02*
X143758410Y-78369843D01*
X143758410Y-78369843D02*
X143853648Y-78369843D01*
X143544124Y-78584129D02*
X143544124Y-78084129D01*
X143544124Y-78084129D02*
X143258410Y-78584129D01*
X143258410Y-78584129D02*
X143258410Y-78084129D01*
X143020314Y-78584129D02*
X143020314Y-78084129D01*
X143020314Y-78084129D02*
X142901266Y-78084129D01*
X142901266Y-78084129D02*
X142829838Y-78107939D01*
X142829838Y-78107939D02*
X142782219Y-78155558D01*
X142782219Y-78155558D02*
X142758409Y-78203177D01*
X142758409Y-78203177D02*
X142734600Y-78298415D01*
X142734600Y-78298415D02*
X142734600Y-78369843D01*
X142734600Y-78369843D02*
X142758409Y-78465081D01*
X142758409Y-78465081D02*
X142782219Y-78512700D01*
X142782219Y-78512700D02*
X142829838Y-78560320D01*
X142829838Y-78560320D02*
X142901266Y-78584129D01*
X142901266Y-78584129D02*
X143020314Y-78584129D01*
X119971742Y-82318653D02*
X119590790Y-82318653D01*
X119781266Y-82509129D02*
X119781266Y-82128177D01*
X119114599Y-82009129D02*
X119352694Y-82009129D01*
X119352694Y-82009129D02*
X119376503Y-82247224D01*
X119376503Y-82247224D02*
X119352694Y-82223415D01*
X119352694Y-82223415D02*
X119305075Y-82199605D01*
X119305075Y-82199605D02*
X119186027Y-82199605D01*
X119186027Y-82199605D02*
X119138408Y-82223415D01*
X119138408Y-82223415D02*
X119114599Y-82247224D01*
X119114599Y-82247224D02*
X119090789Y-82294843D01*
X119090789Y-82294843D02*
X119090789Y-82413891D01*
X119090789Y-82413891D02*
X119114599Y-82461510D01*
X119114599Y-82461510D02*
X119138408Y-82485320D01*
X119138408Y-82485320D02*
X119186027Y-82509129D01*
X119186027Y-82509129D02*
X119305075Y-82509129D01*
X119305075Y-82509129D02*
X119352694Y-82485320D01*
X119352694Y-82485320D02*
X119376503Y-82461510D01*
X118947932Y-82009129D02*
X118781266Y-82509129D01*
X118781266Y-82509129D02*
X118614599Y-82009129D01*
X121565870Y-82496742D02*
X122065870Y-82496742D01*
X122065870Y-82496742D02*
X122065870Y-82377694D01*
X122065870Y-82377694D02*
X122042060Y-82306266D01*
X122042060Y-82306266D02*
X121994441Y-82258647D01*
X121994441Y-82258647D02*
X121946822Y-82234837D01*
X121946822Y-82234837D02*
X121851584Y-82211028D01*
X121851584Y-82211028D02*
X121780156Y-82211028D01*
X121780156Y-82211028D02*
X121684918Y-82234837D01*
X121684918Y-82234837D02*
X121637299Y-82258647D01*
X121637299Y-82258647D02*
X121589680Y-82306266D01*
X121589680Y-82306266D02*
X121565870Y-82377694D01*
X121565870Y-82377694D02*
X121565870Y-82496742D01*
X156334837Y-82057939D02*
X156382456Y-82034129D01*
X156382456Y-82034129D02*
X156453885Y-82034129D01*
X156453885Y-82034129D02*
X156525313Y-82057939D01*
X156525313Y-82057939D02*
X156572932Y-82105558D01*
X156572932Y-82105558D02*
X156596742Y-82153177D01*
X156596742Y-82153177D02*
X156620551Y-82248415D01*
X156620551Y-82248415D02*
X156620551Y-82319843D01*
X156620551Y-82319843D02*
X156596742Y-82415081D01*
X156596742Y-82415081D02*
X156572932Y-82462700D01*
X156572932Y-82462700D02*
X156525313Y-82510320D01*
X156525313Y-82510320D02*
X156453885Y-82534129D01*
X156453885Y-82534129D02*
X156406266Y-82534129D01*
X156406266Y-82534129D02*
X156334837Y-82510320D01*
X156334837Y-82510320D02*
X156311028Y-82486510D01*
X156311028Y-82486510D02*
X156311028Y-82319843D01*
X156311028Y-82319843D02*
X156406266Y-82319843D01*
X156096742Y-82534129D02*
X156096742Y-82034129D01*
X156096742Y-82034129D02*
X155811028Y-82534129D01*
X155811028Y-82534129D02*
X155811028Y-82034129D01*
X155572932Y-82534129D02*
X155572932Y-82034129D01*
X155572932Y-82034129D02*
X155453884Y-82034129D01*
X155453884Y-82034129D02*
X155382456Y-82057939D01*
X155382456Y-82057939D02*
X155334837Y-82105558D01*
X155334837Y-82105558D02*
X155311027Y-82153177D01*
X155311027Y-82153177D02*
X155287218Y-82248415D01*
X155287218Y-82248415D02*
X155287218Y-82319843D01*
X155287218Y-82319843D02*
X155311027Y-82415081D01*
X155311027Y-82415081D02*
X155334837Y-82462700D01*
X155334837Y-82462700D02*
X155382456Y-82510320D01*
X155382456Y-82510320D02*
X155453884Y-82534129D01*
X155453884Y-82534129D02*
X155572932Y-82534129D01*
X155253257Y-79681346D02*
X155634210Y-79681346D01*
X155443733Y-79490870D02*
X155443733Y-79871822D01*
X156110400Y-79990870D02*
X155872305Y-79990870D01*
X155872305Y-79990870D02*
X155848496Y-79752775D01*
X155848496Y-79752775D02*
X155872305Y-79776584D01*
X155872305Y-79776584D02*
X155919924Y-79800394D01*
X155919924Y-79800394D02*
X156038972Y-79800394D01*
X156038972Y-79800394D02*
X156086591Y-79776584D01*
X156086591Y-79776584D02*
X156110400Y-79752775D01*
X156110400Y-79752775D02*
X156134210Y-79705156D01*
X156134210Y-79705156D02*
X156134210Y-79586108D01*
X156134210Y-79586108D02*
X156110400Y-79538489D01*
X156110400Y-79538489D02*
X156086591Y-79514680D01*
X156086591Y-79514680D02*
X156038972Y-79490870D01*
X156038972Y-79490870D02*
X155919924Y-79490870D01*
X155919924Y-79490870D02*
X155872305Y-79514680D01*
X155872305Y-79514680D02*
X155848496Y-79538489D01*
X156277067Y-79990870D02*
X156443733Y-79490870D01*
X156443733Y-79490870D02*
X156610400Y-79990870D01*
X149146742Y-82243653D02*
X148765790Y-82243653D01*
X148956266Y-82434129D02*
X148956266Y-82053177D01*
X148289599Y-81934129D02*
X148527694Y-81934129D01*
X148527694Y-81934129D02*
X148551503Y-82172224D01*
X148551503Y-82172224D02*
X148527694Y-82148415D01*
X148527694Y-82148415D02*
X148480075Y-82124605D01*
X148480075Y-82124605D02*
X148361027Y-82124605D01*
X148361027Y-82124605D02*
X148313408Y-82148415D01*
X148313408Y-82148415D02*
X148289599Y-82172224D01*
X148289599Y-82172224D02*
X148265789Y-82219843D01*
X148265789Y-82219843D02*
X148265789Y-82338891D01*
X148265789Y-82338891D02*
X148289599Y-82386510D01*
X148289599Y-82386510D02*
X148313408Y-82410320D01*
X148313408Y-82410320D02*
X148361027Y-82434129D01*
X148361027Y-82434129D02*
X148480075Y-82434129D01*
X148480075Y-82434129D02*
X148527694Y-82410320D01*
X148527694Y-82410320D02*
X148551503Y-82386510D01*
X148122932Y-81934129D02*
X147956266Y-82434129D01*
X147956266Y-82434129D02*
X147789599Y-81934129D01*
X122790870Y-85646742D02*
X123290870Y-85646742D01*
X123290870Y-85646742D02*
X123290870Y-85456266D01*
X123290870Y-85456266D02*
X123267060Y-85408647D01*
X123267060Y-85408647D02*
X123243251Y-85384837D01*
X123243251Y-85384837D02*
X123195632Y-85361028D01*
X123195632Y-85361028D02*
X123124203Y-85361028D01*
X123124203Y-85361028D02*
X123076584Y-85384837D01*
X123076584Y-85384837D02*
X123052775Y-85408647D01*
X123052775Y-85408647D02*
X123028965Y-85456266D01*
X123028965Y-85456266D02*
X123028965Y-85646742D01*
X122790870Y-84908647D02*
X122790870Y-85146742D01*
X122790870Y-85146742D02*
X123290870Y-85146742D01*
X123052775Y-84741980D02*
X123052775Y-84575313D01*
X122790870Y-84503885D02*
X122790870Y-84741980D01*
X122790870Y-84741980D02*
X123290870Y-84741980D01*
X123290870Y-84741980D02*
X123290870Y-84503885D01*
X122790870Y-84289599D02*
X123290870Y-84289599D01*
X123290870Y-84289599D02*
X123290870Y-84170551D01*
X123290870Y-84170551D02*
X123267060Y-84099123D01*
X123267060Y-84099123D02*
X123219441Y-84051504D01*
X123219441Y-84051504D02*
X123171822Y-84027694D01*
X123171822Y-84027694D02*
X123076584Y-84003885D01*
X123076584Y-84003885D02*
X123005156Y-84003885D01*
X123005156Y-84003885D02*
X122909918Y-84027694D01*
X122909918Y-84027694D02*
X122862299Y-84051504D01*
X122862299Y-84051504D02*
X122814680Y-84099123D01*
X122814680Y-84099123D02*
X122790870Y-84170551D01*
X122790870Y-84170551D02*
X122790870Y-84289599D01*
X123290870Y-83837218D02*
X123290870Y-83527694D01*
X123290870Y-83527694D02*
X123100394Y-83694361D01*
X123100394Y-83694361D02*
X123100394Y-83622932D01*
X123100394Y-83622932D02*
X123076584Y-83575313D01*
X123076584Y-83575313D02*
X123052775Y-83551504D01*
X123052775Y-83551504D02*
X123005156Y-83527694D01*
X123005156Y-83527694D02*
X122886108Y-83527694D01*
X122886108Y-83527694D02*
X122838489Y-83551504D01*
X122838489Y-83551504D02*
X122814680Y-83575313D01*
X122814680Y-83575313D02*
X122790870Y-83622932D01*
X122790870Y-83622932D02*
X122790870Y-83765789D01*
X122790870Y-83765789D02*
X122814680Y-83813408D01*
X122814680Y-83813408D02*
X122838489Y-83837218D01*
X153684129Y-79703257D02*
X153184129Y-79703257D01*
X153184129Y-79703257D02*
X153184129Y-79822305D01*
X153184129Y-79822305D02*
X153207939Y-79893733D01*
X153207939Y-79893733D02*
X153255558Y-79941352D01*
X153255558Y-79941352D02*
X153303177Y-79965162D01*
X153303177Y-79965162D02*
X153398415Y-79988971D01*
X153398415Y-79988971D02*
X153469843Y-79988971D01*
X153469843Y-79988971D02*
X153565081Y-79965162D01*
X153565081Y-79965162D02*
X153612700Y-79941352D01*
X153612700Y-79941352D02*
X153660320Y-79893733D01*
X153660320Y-79893733D02*
X153684129Y-79822305D01*
X153684129Y-79822305D02*
X153684129Y-79703257D01*
X151890870Y-85471742D02*
X152390870Y-85471742D01*
X152390870Y-85471742D02*
X152390870Y-85281266D01*
X152390870Y-85281266D02*
X152367060Y-85233647D01*
X152367060Y-85233647D02*
X152343251Y-85209837D01*
X152343251Y-85209837D02*
X152295632Y-85186028D01*
X152295632Y-85186028D02*
X152224203Y-85186028D01*
X152224203Y-85186028D02*
X152176584Y-85209837D01*
X152176584Y-85209837D02*
X152152775Y-85233647D01*
X152152775Y-85233647D02*
X152128965Y-85281266D01*
X152128965Y-85281266D02*
X152128965Y-85471742D01*
X151890870Y-84733647D02*
X151890870Y-84971742D01*
X151890870Y-84971742D02*
X152390870Y-84971742D01*
X152152775Y-84566980D02*
X152152775Y-84400313D01*
X151890870Y-84328885D02*
X151890870Y-84566980D01*
X151890870Y-84566980D02*
X152390870Y-84566980D01*
X152390870Y-84566980D02*
X152390870Y-84328885D01*
X151890870Y-84114599D02*
X152390870Y-84114599D01*
X152390870Y-84114599D02*
X152390870Y-83995551D01*
X152390870Y-83995551D02*
X152367060Y-83924123D01*
X152367060Y-83924123D02*
X152319441Y-83876504D01*
X152319441Y-83876504D02*
X152271822Y-83852694D01*
X152271822Y-83852694D02*
X152176584Y-83828885D01*
X152176584Y-83828885D02*
X152105156Y-83828885D01*
X152105156Y-83828885D02*
X152009918Y-83852694D01*
X152009918Y-83852694D02*
X151962299Y-83876504D01*
X151962299Y-83876504D02*
X151914680Y-83924123D01*
X151914680Y-83924123D02*
X151890870Y-83995551D01*
X151890870Y-83995551D02*
X151890870Y-84114599D01*
X152224203Y-83400313D02*
X151890870Y-83400313D01*
X152414680Y-83519361D02*
X152057537Y-83638408D01*
X152057537Y-83638408D02*
X152057537Y-83328885D01*
X139195551Y-78560320D02*
X139124123Y-78584129D01*
X139124123Y-78584129D02*
X139005075Y-78584129D01*
X139005075Y-78584129D02*
X138957456Y-78560320D01*
X138957456Y-78560320D02*
X138933647Y-78536510D01*
X138933647Y-78536510D02*
X138909837Y-78488891D01*
X138909837Y-78488891D02*
X138909837Y-78441272D01*
X138909837Y-78441272D02*
X138933647Y-78393653D01*
X138933647Y-78393653D02*
X138957456Y-78369843D01*
X138957456Y-78369843D02*
X139005075Y-78346034D01*
X139005075Y-78346034D02*
X139100313Y-78322224D01*
X139100313Y-78322224D02*
X139147932Y-78298415D01*
X139147932Y-78298415D02*
X139171742Y-78274605D01*
X139171742Y-78274605D02*
X139195551Y-78226986D01*
X139195551Y-78226986D02*
X139195551Y-78179367D01*
X139195551Y-78179367D02*
X139171742Y-78131748D01*
X139171742Y-78131748D02*
X139147932Y-78107939D01*
X139147932Y-78107939D02*
X139100313Y-78084129D01*
X139100313Y-78084129D02*
X138981266Y-78084129D01*
X138981266Y-78084129D02*
X138909837Y-78107939D01*
X138743171Y-78084129D02*
X138624123Y-78584129D01*
X138624123Y-78584129D02*
X138528885Y-78226986D01*
X138528885Y-78226986D02*
X138433647Y-78584129D01*
X138433647Y-78584129D02*
X138314600Y-78084129D01*
X137838409Y-78536510D02*
X137862218Y-78560320D01*
X137862218Y-78560320D02*
X137933647Y-78584129D01*
X137933647Y-78584129D02*
X137981266Y-78584129D01*
X137981266Y-78584129D02*
X138052694Y-78560320D01*
X138052694Y-78560320D02*
X138100313Y-78512700D01*
X138100313Y-78512700D02*
X138124123Y-78465081D01*
X138124123Y-78465081D02*
X138147932Y-78369843D01*
X138147932Y-78369843D02*
X138147932Y-78298415D01*
X138147932Y-78298415D02*
X138124123Y-78203177D01*
X138124123Y-78203177D02*
X138100313Y-78155558D01*
X138100313Y-78155558D02*
X138052694Y-78107939D01*
X138052694Y-78107939D02*
X137981266Y-78084129D01*
X137981266Y-78084129D02*
X137933647Y-78084129D01*
X137933647Y-78084129D02*
X137862218Y-78107939D01*
X137862218Y-78107939D02*
X137838409Y-78131748D01*
X137386028Y-78584129D02*
X137624123Y-78584129D01*
X137624123Y-78584129D02*
X137624123Y-78084129D01*
X137219361Y-78584129D02*
X137219361Y-78084129D01*
X136933647Y-78584129D02*
X137147932Y-78298415D01*
X136933647Y-78084129D02*
X137219361Y-78369843D01*
X141845551Y-78610320D02*
X141774123Y-78634129D01*
X141774123Y-78634129D02*
X141655075Y-78634129D01*
X141655075Y-78634129D02*
X141607456Y-78610320D01*
X141607456Y-78610320D02*
X141583647Y-78586510D01*
X141583647Y-78586510D02*
X141559837Y-78538891D01*
X141559837Y-78538891D02*
X141559837Y-78491272D01*
X141559837Y-78491272D02*
X141583647Y-78443653D01*
X141583647Y-78443653D02*
X141607456Y-78419843D01*
X141607456Y-78419843D02*
X141655075Y-78396034D01*
X141655075Y-78396034D02*
X141750313Y-78372224D01*
X141750313Y-78372224D02*
X141797932Y-78348415D01*
X141797932Y-78348415D02*
X141821742Y-78324605D01*
X141821742Y-78324605D02*
X141845551Y-78276986D01*
X141845551Y-78276986D02*
X141845551Y-78229367D01*
X141845551Y-78229367D02*
X141821742Y-78181748D01*
X141821742Y-78181748D02*
X141797932Y-78157939D01*
X141797932Y-78157939D02*
X141750313Y-78134129D01*
X141750313Y-78134129D02*
X141631266Y-78134129D01*
X141631266Y-78134129D02*
X141559837Y-78157939D01*
X141393171Y-78134129D02*
X141274123Y-78634129D01*
X141274123Y-78634129D02*
X141178885Y-78276986D01*
X141178885Y-78276986D02*
X141083647Y-78634129D01*
X141083647Y-78634129D02*
X140964600Y-78134129D01*
X140774123Y-78634129D02*
X140774123Y-78134129D01*
X140774123Y-78134129D02*
X140655075Y-78134129D01*
X140655075Y-78134129D02*
X140583647Y-78157939D01*
X140583647Y-78157939D02*
X140536028Y-78205558D01*
X140536028Y-78205558D02*
X140512218Y-78253177D01*
X140512218Y-78253177D02*
X140488409Y-78348415D01*
X140488409Y-78348415D02*
X140488409Y-78419843D01*
X140488409Y-78419843D02*
X140512218Y-78515081D01*
X140512218Y-78515081D02*
X140536028Y-78562700D01*
X140536028Y-78562700D02*
X140583647Y-78610320D01*
X140583647Y-78610320D02*
X140655075Y-78634129D01*
X140655075Y-78634129D02*
X140774123Y-78634129D01*
X140274123Y-78634129D02*
X140274123Y-78134129D01*
X139940790Y-78134129D02*
X139845552Y-78134129D01*
X139845552Y-78134129D02*
X139797933Y-78157939D01*
X139797933Y-78157939D02*
X139750314Y-78205558D01*
X139750314Y-78205558D02*
X139726504Y-78300796D01*
X139726504Y-78300796D02*
X139726504Y-78467462D01*
X139726504Y-78467462D02*
X139750314Y-78562700D01*
X139750314Y-78562700D02*
X139797933Y-78610320D01*
X139797933Y-78610320D02*
X139845552Y-78634129D01*
X139845552Y-78634129D02*
X139940790Y-78634129D01*
X139940790Y-78634129D02*
X139988409Y-78610320D01*
X139988409Y-78610320D02*
X140036028Y-78562700D01*
X140036028Y-78562700D02*
X140059837Y-78467462D01*
X140059837Y-78467462D02*
X140059837Y-78300796D01*
X140059837Y-78300796D02*
X140036028Y-78205558D01*
X140036028Y-78205558D02*
X139988409Y-78157939D01*
X139988409Y-78157939D02*
X139940790Y-78134129D01*
X110538971Y-81888489D02*
X110515162Y-81864680D01*
X110515162Y-81864680D02*
X110443733Y-81840870D01*
X110443733Y-81840870D02*
X110396114Y-81840870D01*
X110396114Y-81840870D02*
X110324686Y-81864680D01*
X110324686Y-81864680D02*
X110277067Y-81912299D01*
X110277067Y-81912299D02*
X110253257Y-81959918D01*
X110253257Y-81959918D02*
X110229448Y-82055156D01*
X110229448Y-82055156D02*
X110229448Y-82126584D01*
X110229448Y-82126584D02*
X110253257Y-82221822D01*
X110253257Y-82221822D02*
X110277067Y-82269441D01*
X110277067Y-82269441D02*
X110324686Y-82317060D01*
X110324686Y-82317060D02*
X110396114Y-82340870D01*
X110396114Y-82340870D02*
X110443733Y-82340870D01*
X110443733Y-82340870D02*
X110515162Y-82317060D01*
X110515162Y-82317060D02*
X110538971Y-82293251D01*
X127109837Y-82007939D02*
X127157456Y-81984129D01*
X127157456Y-81984129D02*
X127228885Y-81984129D01*
X127228885Y-81984129D02*
X127300313Y-82007939D01*
X127300313Y-82007939D02*
X127347932Y-82055558D01*
X127347932Y-82055558D02*
X127371742Y-82103177D01*
X127371742Y-82103177D02*
X127395551Y-82198415D01*
X127395551Y-82198415D02*
X127395551Y-82269843D01*
X127395551Y-82269843D02*
X127371742Y-82365081D01*
X127371742Y-82365081D02*
X127347932Y-82412700D01*
X127347932Y-82412700D02*
X127300313Y-82460320D01*
X127300313Y-82460320D02*
X127228885Y-82484129D01*
X127228885Y-82484129D02*
X127181266Y-82484129D01*
X127181266Y-82484129D02*
X127109837Y-82460320D01*
X127109837Y-82460320D02*
X127086028Y-82436510D01*
X127086028Y-82436510D02*
X127086028Y-82269843D01*
X127086028Y-82269843D02*
X127181266Y-82269843D01*
X126871742Y-82484129D02*
X126871742Y-81984129D01*
X126871742Y-81984129D02*
X126586028Y-82484129D01*
X126586028Y-82484129D02*
X126586028Y-81984129D01*
X126347932Y-82484129D02*
X126347932Y-81984129D01*
X126347932Y-81984129D02*
X126228884Y-81984129D01*
X126228884Y-81984129D02*
X126157456Y-82007939D01*
X126157456Y-82007939D02*
X126109837Y-82055558D01*
X126109837Y-82055558D02*
X126086027Y-82103177D01*
X126086027Y-82103177D02*
X126062218Y-82198415D01*
X126062218Y-82198415D02*
X126062218Y-82269843D01*
X126062218Y-82269843D02*
X126086027Y-82365081D01*
X126086027Y-82365081D02*
X126109837Y-82412700D01*
X126109837Y-82412700D02*
X126157456Y-82460320D01*
X126157456Y-82460320D02*
X126228884Y-82484129D01*
X126228884Y-82484129D02*
X126347932Y-82484129D01*
X124063489Y-82161028D02*
X124039680Y-82184837D01*
X124039680Y-82184837D02*
X124015870Y-82256266D01*
X124015870Y-82256266D02*
X124015870Y-82303885D01*
X124015870Y-82303885D02*
X124039680Y-82375313D01*
X124039680Y-82375313D02*
X124087299Y-82422932D01*
X124087299Y-82422932D02*
X124134918Y-82446742D01*
X124134918Y-82446742D02*
X124230156Y-82470551D01*
X124230156Y-82470551D02*
X124301584Y-82470551D01*
X124301584Y-82470551D02*
X124396822Y-82446742D01*
X124396822Y-82446742D02*
X124444441Y-82422932D01*
X124444441Y-82422932D02*
X124492060Y-82375313D01*
X124492060Y-82375313D02*
X124515870Y-82303885D01*
X124515870Y-82303885D02*
X124515870Y-82256266D01*
X124515870Y-82256266D02*
X124492060Y-82184837D01*
X124492060Y-82184837D02*
X124468251Y-82161028D01*
X107203257Y-80640870D02*
X107203257Y-81140870D01*
X107203257Y-81140870D02*
X107393733Y-81140870D01*
X107393733Y-81140870D02*
X107441352Y-81117060D01*
X107441352Y-81117060D02*
X107465162Y-81093251D01*
X107465162Y-81093251D02*
X107488971Y-81045632D01*
X107488971Y-81045632D02*
X107488971Y-80974203D01*
X107488971Y-80974203D02*
X107465162Y-80926584D01*
X107465162Y-80926584D02*
X107441352Y-80902775D01*
X107441352Y-80902775D02*
X107393733Y-80878965D01*
X107393733Y-80878965D02*
X107203257Y-80878965D01*
X107941352Y-80640870D02*
X107703257Y-80640870D01*
X107703257Y-80640870D02*
X107703257Y-81140870D01*
X108108019Y-80902775D02*
X108274686Y-80902775D01*
X108346114Y-80640870D02*
X108108019Y-80640870D01*
X108108019Y-80640870D02*
X108108019Y-81140870D01*
X108108019Y-81140870D02*
X108346114Y-81140870D01*
X108560400Y-80640870D02*
X108560400Y-81140870D01*
X108560400Y-81140870D02*
X108679448Y-81140870D01*
X108679448Y-81140870D02*
X108750876Y-81117060D01*
X108750876Y-81117060D02*
X108798495Y-81069441D01*
X108798495Y-81069441D02*
X108822305Y-81021822D01*
X108822305Y-81021822D02*
X108846114Y-80926584D01*
X108846114Y-80926584D02*
X108846114Y-80855156D01*
X108846114Y-80855156D02*
X108822305Y-80759918D01*
X108822305Y-80759918D02*
X108798495Y-80712299D01*
X108798495Y-80712299D02*
X108750876Y-80664680D01*
X108750876Y-80664680D02*
X108679448Y-80640870D01*
X108679448Y-80640870D02*
X108560400Y-80640870D01*
X109322305Y-80640870D02*
X109036591Y-80640870D01*
X109179448Y-80640870D02*
X109179448Y-81140870D01*
X109179448Y-81140870D02*
X109131829Y-81069441D01*
X109131829Y-81069441D02*
X109084210Y-81021822D01*
X109084210Y-81021822D02*
X109036591Y-80998013D01*
X110381346Y-77846742D02*
X110381346Y-77465790D01*
X110190870Y-77656266D02*
X110571822Y-77656266D01*
X110690870Y-76989599D02*
X110690870Y-77227694D01*
X110690870Y-77227694D02*
X110452775Y-77251503D01*
X110452775Y-77251503D02*
X110476584Y-77227694D01*
X110476584Y-77227694D02*
X110500394Y-77180075D01*
X110500394Y-77180075D02*
X110500394Y-77061027D01*
X110500394Y-77061027D02*
X110476584Y-77013408D01*
X110476584Y-77013408D02*
X110452775Y-76989599D01*
X110452775Y-76989599D02*
X110405156Y-76965789D01*
X110405156Y-76965789D02*
X110286108Y-76965789D01*
X110286108Y-76965789D02*
X110238489Y-76989599D01*
X110238489Y-76989599D02*
X110214680Y-77013408D01*
X110214680Y-77013408D02*
X110190870Y-77061027D01*
X110190870Y-77061027D02*
X110190870Y-77180075D01*
X110190870Y-77180075D02*
X110214680Y-77227694D01*
X110214680Y-77227694D02*
X110238489Y-77251503D01*
X110690870Y-76822932D02*
X110190870Y-76656266D01*
X110190870Y-76656266D02*
X110690870Y-76489599D01*
X110692060Y-84884837D02*
X110715870Y-84932456D01*
X110715870Y-84932456D02*
X110715870Y-85003885D01*
X110715870Y-85003885D02*
X110692060Y-85075313D01*
X110692060Y-85075313D02*
X110644441Y-85122932D01*
X110644441Y-85122932D02*
X110596822Y-85146742D01*
X110596822Y-85146742D02*
X110501584Y-85170551D01*
X110501584Y-85170551D02*
X110430156Y-85170551D01*
X110430156Y-85170551D02*
X110334918Y-85146742D01*
X110334918Y-85146742D02*
X110287299Y-85122932D01*
X110287299Y-85122932D02*
X110239680Y-85075313D01*
X110239680Y-85075313D02*
X110215870Y-85003885D01*
X110215870Y-85003885D02*
X110215870Y-84956266D01*
X110215870Y-84956266D02*
X110239680Y-84884837D01*
X110239680Y-84884837D02*
X110263489Y-84861028D01*
X110263489Y-84861028D02*
X110430156Y-84861028D01*
X110430156Y-84861028D02*
X110430156Y-84956266D01*
X110215870Y-84646742D02*
X110715870Y-84646742D01*
X110715870Y-84646742D02*
X110215870Y-84361028D01*
X110215870Y-84361028D02*
X110715870Y-84361028D01*
X110215870Y-84122932D02*
X110715870Y-84122932D01*
X110715870Y-84122932D02*
X110715870Y-84003884D01*
X110715870Y-84003884D02*
X110692060Y-83932456D01*
X110692060Y-83932456D02*
X110644441Y-83884837D01*
X110644441Y-83884837D02*
X110596822Y-83861027D01*
X110596822Y-83861027D02*
X110501584Y-83837218D01*
X110501584Y-83837218D02*
X110430156Y-83837218D01*
X110430156Y-83837218D02*
X110334918Y-83861027D01*
X110334918Y-83861027D02*
X110287299Y-83884837D01*
X110287299Y-83884837D02*
X110239680Y-83932456D01*
X110239680Y-83932456D02*
X110215870Y-84003884D01*
X110215870Y-84003884D02*
X110215870Y-84122932D01*
D11*
%TO.C,J3*%
X140040000Y-76400000D02*
X141440000Y-76400000D01*
X140040000Y-77800000D02*
X140040000Y-76400000D01*
X141440000Y-76400000D02*
X141440000Y-77800000D01*
X141440000Y-77800000D02*
X140040000Y-77800000D01*
%TO.C,J4*%
D12*
X156540000Y-86010000D02*
X147540000Y-86010000D01*
X147540000Y-82810000D01*
X156540000Y-82810000D01*
X156540000Y-86010000D01*
%TO.C,J7*%
X127460000Y-86000000D02*
X118460000Y-86000000D01*
X118460000Y-82800000D01*
X127460000Y-82800000D01*
X127460000Y-86000000D01*
D11*
%TO.C,J8*%
X137500000Y-76400000D02*
X138900000Y-76400000D01*
X137500000Y-77800000D02*
X137500000Y-76400000D01*
X138900000Y-76400000D02*
X138900000Y-77800000D01*
X138900000Y-77800000D02*
X137500000Y-77800000D01*
%TO.C,J5*%
X142700000Y-76400000D02*
X144100000Y-76400000D01*
X142700000Y-77800000D02*
X142700000Y-76400000D01*
X144100000Y-76400000D02*
X144100000Y-77800000D01*
X144100000Y-77800000D02*
X142700000Y-77800000D01*
%TO.C,J6*%
D12*
X147750000Y-76000000D02*
X156750000Y-76000000D01*
X156750000Y-79200000D01*
X147750000Y-79200000D01*
X147750000Y-76000000D01*
%TO.C,J9*%
X106650000Y-85300000D02*
X109850000Y-85300000D01*
X109850000Y-76300000D01*
X106650000Y-76300000D01*
X106650000Y-85300000D01*
%TD*%
M02*
