%TF.GenerationSoftware,KiCad,Pcbnew,8.0.4*%
%TF.CreationDate,2024-09-10T00:37:33+02:00*%
%TF.ProjectId,ESP32_PICO_LED,45535033-325f-4504-9943-4f5f4c45442e,rev?*%
%TF.SameCoordinates,Original*%
%TF.FileFunction,Copper,L1,Top*%
%TF.FilePolarity,Positive*%
%FSLAX46Y46*%
G04 Gerber Fmt 4.6, Leading zero omitted, Abs format (unit mm)*
G04 Created by KiCad (PCBNEW 8.0.4) date 2024-09-10 00:37:33*
%MOMM*%
%LPD*%
G01*
G04 APERTURE LIST*
G04 Aperture macros list*
%AMRoundRect*
0 Rectangle with rounded corners*
0 $1 Rounding radius*
0 $2 $3 $4 $5 $6 $7 $8 $9 X,Y pos of 4 corners*
0 Add a 4 corners polygon primitive as box body*
4,1,4,$2,$3,$4,$5,$6,$7,$8,$9,$2,$3,0*
0 Add four circle primitives for the rounded corners*
1,1,$1+$1,$2,$3*
1,1,$1+$1,$4,$5*
1,1,$1+$1,$6,$7*
1,1,$1+$1,$8,$9*
0 Add four rect primitives between the rounded corners*
20,1,$1+$1,$2,$3,$4,$5,0*
20,1,$1+$1,$4,$5,$6,$7,0*
20,1,$1+$1,$6,$7,$8,$9,0*
20,1,$1+$1,$8,$9,$2,$3,0*%
%AMFreePoly0*
4,1,48,0.445355,0.365355,0.460000,0.330000,0.460000,0.080000,0.445355,0.044645,0.425811,0.032566,0.395811,0.022566,0.388220,0.020680,0.330185,0.011007,0.297451,0.002824,0.262361,-0.014721,0.206394,-0.042704,0.172840,-0.067870,0.145355,-0.095355,0.100090,-0.140619,0.065404,-0.201320,0.038048,-0.274269,0.018809,-0.360847,-0.003156,-0.392183,-0.030000,-0.400000,-0.280000,-0.400000,
-0.315355,-0.385355,-0.330000,-0.350000,-0.329320,-0.341780,-0.299320,-0.161780,-0.296816,-0.152444,-0.266816,-0.072444,-0.264721,-0.067639,-0.244721,-0.027639,-0.240000,-0.020000,-0.210837,0.018884,-0.151603,0.107735,-0.145355,0.115355,-0.065355,0.195355,-0.061235,0.199043,-0.011235,0.239043,-0.005725,0.242875,0.044275,0.272875,0.047639,0.274721,0.127639,0.314721,0.130304,0.315957,
0.200304,0.345957,0.204189,0.347434,0.264189,0.367434,0.271780,0.369320,0.331780,0.379320,0.340000,0.380000,0.410000,0.380000,0.445355,0.365355,0.445355,0.365355,$1*%
%AMFreePoly1*
4,1,46,-0.054645,0.445355,-0.042566,0.425811,-0.032566,0.395811,-0.030680,0.388220,-0.021007,0.330185,-0.012824,0.297451,0.004721,0.262361,0.032704,0.206394,0.057870,0.172840,0.085355,0.145355,0.130619,0.100090,0.191320,0.065404,0.264269,0.038048,0.350847,0.018809,0.382183,-0.003156,0.390000,-0.030000,0.390000,-0.280000,0.375355,-0.315355,0.340000,-0.330000,0.331780,-0.329320,
0.151780,-0.299320,0.140304,-0.295957,0.070885,-0.266206,0.021430,-0.246424,0.010000,-0.240000,-0.028884,-0.210837,-0.117735,-0.151603,-0.125355,-0.145355,-0.205355,-0.065355,-0.209043,-0.061235,-0.249043,-0.011235,-0.252875,-0.005725,-0.282875,0.044275,-0.284721,0.047639,-0.324721,0.127639,-0.325957,0.130304,-0.355957,0.200304,-0.359320,0.211780,-0.368675,0.267914,-0.387434,0.324189,
-0.390000,0.340000,-0.390000,0.410000,-0.375355,0.445355,-0.340000,0.460000,-0.090000,0.460000,-0.054645,0.445355,-0.054645,0.445355,$1*%
%AMFreePoly2*
4,1,49,-0.331780,0.329320,-0.212320,0.309410,-0.142929,0.299497,-0.130304,0.295957,-0.060304,0.265957,-0.057639,0.264721,-0.017639,0.244721,-0.010000,0.240000,0.028884,0.210837,0.117735,0.151603,0.125355,0.145355,0.205355,0.065355,0.209043,0.061235,0.249043,0.011235,0.252875,0.005725,0.281550,-0.042066,0.310000,-0.080000,0.318507,-0.097873,0.327535,-0.133987,0.355957,-0.200304,
0.357434,-0.204189,0.377434,-0.264189,0.379320,-0.271780,0.389320,-0.331780,0.390000,-0.340000,0.390000,-0.410000,0.375355,-0.445355,0.340000,-0.460000,0.090000,-0.460000,0.054645,-0.445355,0.042566,-0.425811,0.032566,-0.395811,0.030680,-0.388220,0.021007,-0.330185,0.011493,-0.292127,0.003593,-0.260530,-0.030837,-0.208884,-0.057870,-0.172840,-0.085355,-0.145355,-0.130619,-0.100090,
-0.191320,-0.065404,-0.264886,-0.037817,-0.342127,-0.018507,-0.372875,0.004275,-0.379960,0.028002,-0.389960,0.278002,-0.376740,0.313914,-0.341998,0.329960,-0.331780,0.329320,-0.331780,0.329320,$1*%
%AMFreePoly3*
4,1,48,0.315355,0.375355,0.330000,0.340000,0.329320,0.331780,0.299320,0.151780,0.296816,0.142444,0.266816,0.062444,0.264721,0.057639,0.244721,0.017639,0.240000,0.010000,0.210837,-0.028884,0.151603,-0.117735,0.145355,-0.125355,0.065355,-0.205355,0.061235,-0.209043,0.011235,-0.249043,0.005725,-0.252875,-0.044275,-0.282875,-0.047639,-0.284721,-0.127639,-0.324721,-0.130304,-0.325957,
-0.200304,-0.355957,-0.204189,-0.357434,-0.264189,-0.377434,-0.271780,-0.379320,-0.331780,-0.389320,-0.340000,-0.390000,-0.410000,-0.390000,-0.445355,-0.375355,-0.460000,-0.340000,-0.460000,-0.090000,-0.445355,-0.054645,-0.425811,-0.042566,-0.395811,-0.032566,-0.388220,-0.030680,-0.330185,-0.021007,-0.297451,-0.012824,-0.262361,0.004721,-0.206394,0.032704,-0.172840,0.057870,-0.145355,0.085355,
-0.100090,0.130619,-0.065404,0.191320,-0.038048,0.264269,-0.018809,0.350847,0.003156,0.382183,0.030000,0.390000,0.280000,0.390000,0.315355,0.375355,0.315355,0.375355,$1*%
G04 Aperture macros list end*
%ADD10C,0.090000*%
%TA.AperFunction,NonConductor*%
%ADD11C,0.090000*%
%TD*%
%TA.AperFunction,SMDPad,CuDef*%
%ADD12R,1.150000X1.000000*%
%TD*%
%TA.AperFunction,SMDPad,CuDef*%
%ADD13R,0.900000X1.700000*%
%TD*%
%TA.AperFunction,SMDPad,CuDef*%
%ADD14RoundRect,0.150000X0.150000X-0.650000X0.150000X0.650000X-0.150000X0.650000X-0.150000X-0.650000X0*%
%TD*%
%TA.AperFunction,SMDPad,CuDef*%
%ADD15RoundRect,0.135000X-0.135000X-0.185000X0.135000X-0.185000X0.135000X0.185000X-0.135000X0.185000X0*%
%TD*%
%TA.AperFunction,SMDPad,CuDef*%
%ADD16R,1.700000X2.200000*%
%TD*%
%TA.AperFunction,SMDPad,CuDef*%
%ADD17RoundRect,0.300000X-0.550000X0.800000X-0.550000X-0.800000X0.550000X-0.800000X0.550000X0.800000X0*%
%TD*%
%TA.AperFunction,SMDPad,CuDef*%
%ADD18RoundRect,0.218750X-0.256250X0.218750X-0.256250X-0.218750X0.256250X-0.218750X0.256250X0.218750X0*%
%TD*%
%TA.AperFunction,SMDPad,CuDef*%
%ADD19RoundRect,0.135000X0.135000X0.185000X-0.135000X0.185000X-0.135000X-0.185000X0.135000X-0.185000X0*%
%TD*%
%TA.AperFunction,SMDPad,CuDef*%
%ADD20RoundRect,0.218750X0.256250X-0.218750X0.256250X0.218750X-0.256250X0.218750X-0.256250X-0.218750X0*%
%TD*%
%TA.AperFunction,SMDPad,CuDef*%
%ADD21RoundRect,0.135000X-0.185000X0.135000X-0.185000X-0.135000X0.185000X-0.135000X0.185000X0.135000X0*%
%TD*%
%TA.AperFunction,SMDPad,CuDef*%
%ADD22RoundRect,0.140000X-0.140000X-0.170000X0.140000X-0.170000X0.140000X0.170000X-0.140000X0.170000X0*%
%TD*%
%TA.AperFunction,SMDPad,CuDef*%
%ADD23R,0.530000X0.730000*%
%TD*%
%TA.AperFunction,SMDPad,CuDef*%
%ADD24FreePoly0,270.000000*%
%TD*%
%TA.AperFunction,SMDPad,CuDef*%
%ADD25FreePoly1,270.000000*%
%TD*%
%TA.AperFunction,SMDPad,CuDef*%
%ADD26FreePoly2,270.000000*%
%TD*%
%TA.AperFunction,SMDPad,CuDef*%
%ADD27FreePoly3,270.000000*%
%TD*%
%TA.AperFunction,SMDPad,CuDef*%
%ADD28RoundRect,0.225000X0.225000X0.250000X-0.225000X0.250000X-0.225000X-0.250000X0.225000X-0.250000X0*%
%TD*%
%TA.AperFunction,SMDPad,CuDef*%
%ADD29RoundRect,0.140000X0.170000X-0.140000X0.170000X0.140000X-0.170000X0.140000X-0.170000X-0.140000X0*%
%TD*%
%TA.AperFunction,SMDPad,CuDef*%
%ADD30RoundRect,0.135000X0.185000X-0.135000X0.185000X0.135000X-0.185000X0.135000X-0.185000X-0.135000X0*%
%TD*%
%TA.AperFunction,SMDPad,CuDef*%
%ADD31RoundRect,0.033750X0.371250X0.101250X-0.371250X0.101250X-0.371250X-0.101250X0.371250X-0.101250X0*%
%TD*%
%TA.AperFunction,SMDPad,CuDef*%
%ADD32RoundRect,0.033750X0.101250X0.371250X-0.101250X0.371250X-0.101250X-0.371250X0.101250X-0.371250X0*%
%TD*%
%TA.AperFunction,ComponentPad*%
%ADD33C,0.500000*%
%TD*%
%TA.AperFunction,SMDPad,CuDef*%
%ADD34R,3.400000X3.400000*%
%TD*%
%TA.AperFunction,SMDPad,CuDef*%
%ADD35R,1.400000X1.200000*%
%TD*%
%TA.AperFunction,SMDPad,CuDef*%
%ADD36R,2.200000X1.700000*%
%TD*%
%TA.AperFunction,SMDPad,CuDef*%
%ADD37RoundRect,0.300000X0.800000X0.550000X-0.800000X0.550000X-0.800000X-0.550000X0.800000X-0.550000X0*%
%TD*%
%TA.AperFunction,SMDPad,CuDef*%
%ADD38RoundRect,0.140000X0.140000X0.170000X-0.140000X0.170000X-0.140000X-0.170000X0.140000X-0.170000X0*%
%TD*%
%TA.AperFunction,SMDPad,CuDef*%
%ADD39RoundRect,0.225000X-0.250000X0.225000X-0.250000X-0.225000X0.250000X-0.225000X0.250000X0.225000X0*%
%TD*%
%TA.AperFunction,SMDPad,CuDef*%
%ADD40RoundRect,0.050000X0.050000X-0.387500X0.050000X0.387500X-0.050000X0.387500X-0.050000X-0.387500X0*%
%TD*%
%TA.AperFunction,SMDPad,CuDef*%
%ADD41RoundRect,0.050000X0.387500X-0.050000X0.387500X0.050000X-0.387500X0.050000X-0.387500X-0.050000X0*%
%TD*%
%TA.AperFunction,HeatsinkPad*%
%ADD42R,3.200000X3.200000*%
%TD*%
%TA.AperFunction,SMDPad,CuDef*%
%ADD43RoundRect,0.147500X-0.147500X-0.172500X0.147500X-0.172500X0.147500X0.172500X-0.147500X0.172500X0*%
%TD*%
%TA.AperFunction,SMDPad,CuDef*%
%ADD44RoundRect,0.218750X0.218750X0.256250X-0.218750X0.256250X-0.218750X-0.256250X0.218750X-0.256250X0*%
%TD*%
%TA.AperFunction,SMDPad,CuDef*%
%ADD45RoundRect,0.225000X0.250000X-0.225000X0.250000X0.225000X-0.250000X0.225000X-0.250000X-0.225000X0*%
%TD*%
%TA.AperFunction,SMDPad,CuDef*%
%ADD46RoundRect,0.147500X0.172500X-0.147500X0.172500X0.147500X-0.172500X0.147500X-0.172500X-0.147500X0*%
%TD*%
%TA.AperFunction,SMDPad,CuDef*%
%ADD47RoundRect,0.375000X-0.375000X0.625000X-0.375000X-0.625000X0.375000X-0.625000X0.375000X0.625000X0*%
%TD*%
%TA.AperFunction,SMDPad,CuDef*%
%ADD48RoundRect,0.500000X-1.400000X0.500000X-1.400000X-0.500000X1.400000X-0.500000X1.400000X0.500000X0*%
%TD*%
%TA.AperFunction,SMDPad,CuDef*%
%ADD49R,1.660000X0.800000*%
%TD*%
%TA.AperFunction,SMDPad,CuDef*%
%ADD50RoundRect,0.140000X-0.170000X0.140000X-0.170000X-0.140000X0.170000X-0.140000X0.170000X0.140000X0*%
%TD*%
%TA.AperFunction,ViaPad*%
%ADD51C,0.450000*%
%TD*%
%TA.AperFunction,ViaPad*%
%ADD52C,0.800000*%
%TD*%
%TA.AperFunction,Conductor*%
%ADD53C,0.300000*%
%TD*%
%TA.AperFunction,Conductor*%
%ADD54C,0.152400*%
%TD*%
%TA.AperFunction,Conductor*%
%ADD55C,0.156464*%
%TD*%
%TA.AperFunction,Conductor*%
%ADD56C,0.254000*%
%TD*%
%TA.AperFunction,Conductor*%
%ADD57C,0.200000*%
%TD*%
%TA.AperFunction,Conductor*%
%ADD58C,0.127000*%
%TD*%
%TA.AperFunction,Conductor*%
%ADD59C,0.500000*%
%TD*%
%TA.AperFunction,Conductor*%
%ADD60C,0.700000*%
%TD*%
%TA.AperFunction,Conductor*%
%ADD61C,0.211074*%
%TD*%
%TA.AperFunction,Conductor*%
%ADD62C,0.349250*%
%TD*%
G04 APERTURE END LIST*
D10*
D11*
X111300162Y-76304129D02*
X111014448Y-76304129D01*
X111157305Y-76304129D02*
X111157305Y-75804129D01*
X111157305Y-75804129D02*
X111109686Y-75875558D01*
X111109686Y-75875558D02*
X111062067Y-75923177D01*
X111062067Y-75923177D02*
X111014448Y-75946986D01*
D12*
%TO.P,Y2,1,1*%
%TO.N,/esp32_wifi_section/XTAL_P*%
X168425000Y-83800000D03*
%TO.P,Y2,2,2*%
%TO.N,GND*%
X166675000Y-83800000D03*
%TO.P,Y2,3,3*%
%TO.N,Net-(C25-Pad2)*%
X166675000Y-85200000D03*
%TO.P,Y2,4,4*%
%TO.N,GND*%
X168425000Y-85200000D03*
%TD*%
D13*
%TO.P,SW1,1,1*%
%TO.N,Net-(U3-RUN)*%
X114950000Y-81100000D03*
%TO.P,SW1,2,2*%
%TO.N,GND*%
X111550000Y-81100000D03*
%TD*%
D14*
%TO.P,U2,1,~{CS}*%
%TO.N,QSPI_SS*%
X119595000Y-84250000D03*
%TO.P,U2,2,DO(IO1)*%
%TO.N,QSPI_SD1*%
X120865000Y-84250000D03*
%TO.P,U2,3,IO2*%
%TO.N,QSPI_SD2*%
X122135000Y-84250000D03*
%TO.P,U2,4,GND*%
%TO.N,GND*%
X123405000Y-84250000D03*
%TO.P,U2,5,DI(IO0)*%
%TO.N,QSPI_SD0*%
X123405000Y-77050000D03*
%TO.P,U2,6,CLK*%
%TO.N,QSPI_CLK*%
X122135000Y-77050000D03*
%TO.P,U2,7,IO3*%
%TO.N,QSPI_SD3*%
X120865000Y-77050000D03*
%TO.P,U2,8,VCC*%
%TO.N,+3.3V*%
X119595000Y-77050000D03*
%TD*%
D15*
%TO.P,R1,1*%
%TO.N,/_RPI_USB_P*%
X125355000Y-79950000D03*
%TO.P,R1,2*%
%TO.N,RPI_USB_P*%
X126375000Y-79950000D03*
%TD*%
D16*
%TO.P,J2,1,Pin_1*%
%TO.N,+5V*%
X157620000Y-84680000D03*
D17*
%TO.P,J2,2,Pin_2*%
%TO.N,/esp32_wifi_section/_USB_D+*%
X155080000Y-84680000D03*
%TO.P,J2,3,Pin_3*%
%TO.N,/esp32_wifi_section/_USB_D-*%
X152540000Y-84680000D03*
%TO.P,J2,4,Pin_4*%
%TO.N,GND*%
X150000000Y-84680000D03*
%TD*%
D18*
%TO.P,D1,1,K*%
%TO.N,Net-(D1-K)*%
X117700000Y-83862500D03*
%TO.P,D1,2,A*%
%TO.N,RPI_STATUS_LED*%
X117700000Y-85437500D03*
%TD*%
D19*
%TO.P,R2,1*%
%TO.N,+3.3V*%
X136240000Y-76230000D03*
%TO.P,R2,2*%
%TO.N,Net-(U3-RUN)*%
X135220000Y-76230000D03*
%TD*%
D20*
%TO.P,D2,1,K*%
%TO.N,Net-(D2-K)*%
X150450000Y-81587500D03*
%TO.P,D2,2,A*%
%TO.N,+3.3V*%
X150450000Y-80012500D03*
%TD*%
D19*
%TO.P,R9,1*%
%TO.N,+3.3V*%
X158310000Y-81030000D03*
%TO.P,R9,2*%
%TO.N,/esp32_wifi_section/IO9*%
X157290000Y-81030000D03*
%TD*%
D21*
%TO.P,R3,1*%
%TO.N,Net-(U3-ADC_AVDD)*%
X125950000Y-76815000D03*
%TO.P,R3,2*%
%TO.N,+3.3V*%
X125950000Y-77835000D03*
%TD*%
D22*
%TO.P,C6,1*%
%TO.N,Net-(U3-VREG_VOUT)*%
X136700000Y-77680000D03*
%TO.P,C6,2*%
%TO.N,GND*%
X137660000Y-77680000D03*
%TD*%
D23*
%TO.P,U1,1,DATA*%
%TO.N,MIC_PDM_DATA*%
X114837500Y-76620000D03*
%TO.P,U1,2,L/R*%
%TO.N,GND*%
X114007500Y-76620000D03*
D24*
%TO.P,U1,3,GND*%
X113187500Y-76980000D03*
D25*
X112277500Y-77040000D03*
D26*
X113237500Y-77880000D03*
D27*
X112337500Y-77940000D03*
D23*
%TO.P,U1,4,CLK*%
%TO.N,MIC_PDM_CLK*%
X114007500Y-78300000D03*
%TO.P,U1,5,VDD*%
%TO.N,+3.3V*%
X114837500Y-78300000D03*
%TD*%
D28*
%TO.P,C19,1*%
%TO.N,+3.3V*%
X161380000Y-78770000D03*
%TO.P,C19,2*%
%TO.N,GND*%
X159830000Y-78770000D03*
%TD*%
D22*
%TO.P,C17,1*%
%TO.N,/esp32_wifi_section/IO9*%
X157310000Y-80020000D03*
%TO.P,C17,2*%
%TO.N,GND*%
X158270000Y-80020000D03*
%TD*%
D29*
%TO.P,C25,1*%
%TO.N,GND*%
X165250000Y-85580000D03*
%TO.P,C25,2*%
%TO.N,Net-(C25-Pad2)*%
X165250000Y-84620000D03*
%TD*%
D15*
%TO.P,R17,1*%
%TO.N,GND*%
X171240000Y-76350000D03*
%TO.P,R17,2*%
%TO.N,Net-(D3-K)*%
X172260000Y-76350000D03*
%TD*%
D30*
%TO.P,R15,1*%
%TO.N,+3.3V*%
X158450000Y-77310000D03*
%TO.P,R15,2*%
%TO.N,Net-(U5-CHIP_EN)*%
X158450000Y-76290000D03*
%TD*%
D29*
%TO.P,C21,1*%
%TO.N,/esp32_wifi_section/LNA_IN*%
X169800000Y-81250000D03*
%TO.P,C21,2*%
%TO.N,GND*%
X169800000Y-80290000D03*
%TD*%
D21*
%TO.P,R6,1*%
%TO.N,GND*%
X116950000Y-81650000D03*
%TO.P,R6,2*%
%TO.N,Net-(D1-K)*%
X116950000Y-82670000D03*
%TD*%
D22*
%TO.P,C9,1*%
%TO.N,Net-(U3-ADC_AVDD)*%
X128180000Y-76230000D03*
%TO.P,C9,2*%
%TO.N,GND*%
X129140000Y-76230000D03*
%TD*%
%TO.P,C24,1*%
%TO.N,+3.3V*%
X169250000Y-82400000D03*
%TO.P,C24,2*%
%TO.N,GND*%
X170210000Y-82400000D03*
%TD*%
D29*
%TO.P,C14,1*%
%TO.N,Net-(U5-CHIP_EN)*%
X159550000Y-77280000D03*
%TO.P,C14,2*%
%TO.N,GND*%
X159550000Y-76320000D03*
%TD*%
D13*
%TO.P,SW3,1,1*%
%TO.N,GND*%
X148700000Y-77475000D03*
%TO.P,SW3,2,2*%
%TO.N,/esp32_wifi_section/IO9*%
X152100000Y-77475000D03*
%TD*%
D22*
%TO.P,C1,1*%
%TO.N,Net-(U3-VREG_VOUT)*%
X136690000Y-78680000D03*
%TO.P,C1,2*%
%TO.N,GND*%
X137650000Y-78680000D03*
%TD*%
%TO.P,C3,1*%
%TO.N,+3.3V*%
X136690000Y-79670000D03*
%TO.P,C3,2*%
%TO.N,GND*%
X137650000Y-79670000D03*
%TD*%
D29*
%TO.P,C23,1*%
%TO.N,GND*%
X169950000Y-85580000D03*
%TO.P,C23,2*%
%TO.N,/esp32_wifi_section/XTAL_P*%
X169950000Y-84620000D03*
%TD*%
D31*
%TO.P,U5,1,LNA_IN*%
%TO.N,/esp32_wifi_section/LNA_IN*%
X168050000Y-81500000D03*
%TO.P,U5,2,VDD3P3*%
%TO.N,+3.3V*%
X168050000Y-81000000D03*
%TO.P,U5,3,VDD3P3*%
X168050000Y-80500000D03*
%TO.P,U5,4,XTAL_32K_P*%
%TO.N,unconnected-(U5-XTAL_32K_P-Pad4)*%
X168050000Y-80000000D03*
%TO.P,U5,5,XTAL_32K_N*%
%TO.N,unconnected-(U5-XTAL_32K_N-Pad5)*%
X168050000Y-79500000D03*
%TO.P,U5,6,GPIO2*%
%TO.N,/esp32_wifi_section/IO2*%
X168050000Y-79000000D03*
%TO.P,U5,7,CHIP_EN*%
%TO.N,Net-(U5-CHIP_EN)*%
X168050000Y-78500000D03*
%TO.P,U5,8,GPIO3*%
%TO.N,ESP_STATUS_LED*%
X168050000Y-78000000D03*
D32*
%TO.P,U5,9,MTMS*%
%TO.N,unconnected-(U5-MTMS-Pad9)*%
X167350000Y-77300000D03*
%TO.P,U5,10,MTDI*%
%TO.N,unconnected-(U5-MTDI-Pad10)*%
X166850000Y-77300000D03*
%TO.P,U5,11,VDD3P3_RTC*%
%TO.N,+3.3V*%
X166350000Y-77300000D03*
%TO.P,U5,12,MTCK*%
%TO.N,unconnected-(U5-MTCK-Pad12)*%
X165850000Y-77300000D03*
%TO.P,U5,13,MTDO*%
%TO.N,unconnected-(U5-MTDO-Pad13)*%
X165350000Y-77300000D03*
%TO.P,U5,14,GPIO8*%
%TO.N,/esp32_wifi_section/IO8*%
X164850000Y-77300000D03*
%TO.P,U5,15,GPIO9*%
%TO.N,/esp32_wifi_section/IO9*%
X164350000Y-77300000D03*
%TO.P,U5,16,GPIO10*%
%TO.N,unconnected-(U5-GPIO10-Pad16)*%
X163850000Y-77300000D03*
D31*
%TO.P,U5,17,VDD3P3_CPU*%
%TO.N,+3.3V*%
X163150000Y-78000000D03*
%TO.P,U5,18,VDD_SPI*%
%TO.N,unconnected-(U5-VDD_SPI-Pad18)*%
X163150000Y-78500000D03*
%TO.P,U5,19,SPIHD*%
%TO.N,unconnected-(U5-SPIHD-Pad19)*%
X163150000Y-79000000D03*
%TO.P,U5,20,SPIWP*%
%TO.N,unconnected-(U5-SPIWP-Pad20)*%
X163150000Y-79500000D03*
%TO.P,U5,21,SPICS0*%
%TO.N,unconnected-(U5-SPICS0-Pad21)*%
X163150000Y-80000000D03*
%TO.P,U5,22,SPICLK*%
%TO.N,unconnected-(U5-SPICLK-Pad22)*%
X163150000Y-80500000D03*
%TO.P,U5,23,SPID*%
%TO.N,unconnected-(U5-SPID-Pad23)*%
X163150000Y-81000000D03*
%TO.P,U5,24,SPIQ*%
%TO.N,unconnected-(U5-SPIQ-Pad24)*%
X163150000Y-81500000D03*
D32*
%TO.P,U5,25,GPIO18*%
%TO.N,/esp32_wifi_section/USB_D-*%
X163850000Y-82200000D03*
%TO.P,U5,26,GPIO19*%
%TO.N,/esp32_wifi_section/USB_D+*%
X164350000Y-82200000D03*
%TO.P,U5,27,U0RXD*%
%TO.N,Net-(U5-U0RXD)*%
X164850000Y-82200000D03*
%TO.P,U5,28,U0TXD*%
%TO.N,Net-(U5-U0TXD)*%
X165350000Y-82200000D03*
%TO.P,U5,29,XTAL_N*%
%TO.N,/esp32_wifi_section/XTAL_N*%
X165850000Y-82200000D03*
%TO.P,U5,30,XTAL_P*%
%TO.N,/esp32_wifi_section/XTAL_P*%
X166350000Y-82200000D03*
%TO.P,U5,31,VDDA*%
%TO.N,+3.3V*%
X166850000Y-82200000D03*
%TO.P,U5,32,VDDA*%
X167350000Y-82200000D03*
D33*
%TO.P,U5,33,GND*%
%TO.N,GND*%
X166300000Y-79750000D03*
X165600000Y-80450000D03*
D34*
X165600000Y-79750000D03*
D33*
X165600000Y-79050000D03*
X164900000Y-79750000D03*
%TD*%
D22*
%TO.P,C8,1*%
%TO.N,XIN*%
X136700000Y-85250000D03*
%TO.P,C8,2*%
%TO.N,GND*%
X137660000Y-85250000D03*
%TD*%
D35*
%TO.P,Y1,1,1*%
%TO.N,XIN*%
X137280000Y-83780000D03*
%TO.P,Y1,2,2*%
%TO.N,GND*%
X139480000Y-83780000D03*
%TO.P,Y1,3,3*%
%TO.N,Net-(C11-Pad1)*%
X139480000Y-82080000D03*
%TO.P,Y1,4,4*%
%TO.N,GND*%
X137280000Y-82080000D03*
%TD*%
D15*
%TO.P,R8,1*%
%TO.N,/UART1_TX*%
X159940000Y-84125000D03*
%TO.P,R8,2*%
%TO.N,Net-(U5-U0RXD)*%
X160960000Y-84125000D03*
%TD*%
D36*
%TO.P,J1,1,Pin_1*%
%TO.N,+5V*%
X108650000Y-84755000D03*
D37*
%TO.P,J1,2,Pin_2*%
%TO.N,/_RPI_USB_P*%
X108650000Y-82215000D03*
%TO.P,J1,3,Pin_3*%
%TO.N,/_RPI_USB_N*%
X108650000Y-79675000D03*
%TO.P,J1,4,Pin_4*%
%TO.N,GND*%
X108650000Y-77135000D03*
%TD*%
D38*
%TO.P,C4,1*%
%TO.N,Net-(U3-VREG_VOUT)*%
X126670000Y-80970000D03*
%TO.P,C4,2*%
%TO.N,GND*%
X125710000Y-80970000D03*
%TD*%
D15*
%TO.P,R10,1*%
%TO.N,/UART1_RX*%
X159940000Y-85250000D03*
%TO.P,R10,2*%
%TO.N,Net-(U5-U0TXD)*%
X160960000Y-85250000D03*
%TD*%
%TO.P,R11,1*%
%TO.N,/esp32_wifi_section/_USB_D+*%
X159950000Y-82975000D03*
%TO.P,R11,2*%
%TO.N,/esp32_wifi_section/USB_D+*%
X160970000Y-82975000D03*
%TD*%
D39*
%TO.P,C15,1*%
%TO.N,+5V*%
X139760000Y-77215000D03*
%TO.P,C15,2*%
%TO.N,GND*%
X139760000Y-78765000D03*
%TD*%
D29*
%TO.P,C7,1*%
%TO.N,+3.3V*%
X124925000Y-77805000D03*
%TO.P,C7,2*%
%TO.N,GND*%
X124925000Y-76845000D03*
%TD*%
D22*
%TO.P,C5,1*%
%TO.N,+3.3V*%
X133330000Y-76230000D03*
%TO.P,C5,2*%
%TO.N,GND*%
X134290000Y-76230000D03*
%TD*%
D40*
%TO.P,U3,1,IOVDD*%
%TO.N,+3.3V*%
X129050000Y-84337500D03*
%TO.P,U3,2,GPIO0*%
%TO.N,LED_3_C*%
X129450000Y-84337500D03*
%TO.P,U3,3,GPIO1*%
%TO.N,LED_3_D*%
X129850000Y-84337500D03*
%TO.P,U3,4,GPIO2*%
%TO.N,RPI_STATUS_LED*%
X130250000Y-84337500D03*
%TO.P,U3,5,GPIO3*%
%TO.N,unconnected-(U3-GPIO3-Pad5)*%
X130650000Y-84337500D03*
%TO.P,U3,6,GPIO4*%
%TO.N,/UART1_TX*%
X131050000Y-84337500D03*
%TO.P,U3,7,GPIO5*%
%TO.N,/UART1_RX*%
X131450000Y-84337500D03*
%TO.P,U3,8,GPIO6*%
%TO.N,unconnected-(U3-GPIO6-Pad8)*%
X131850000Y-84337500D03*
%TO.P,U3,9,GPIO7*%
%TO.N,unconnected-(U3-GPIO7-Pad9)*%
X132250000Y-84337500D03*
%TO.P,U3,10,IOVDD*%
%TO.N,+3.3V*%
X132650000Y-84337500D03*
%TO.P,U3,11,GPIO8*%
%TO.N,unconnected-(U3-GPIO8-Pad11)*%
X133050000Y-84337500D03*
%TO.P,U3,12,GPIO9*%
%TO.N,LED_4_C*%
X133450000Y-84337500D03*
%TO.P,U3,13,GPIO10*%
%TO.N,LED_4_D*%
X133850000Y-84337500D03*
%TO.P,U3,14,GPIO11*%
%TO.N,unconnected-(U3-GPIO11-Pad14)*%
X134250000Y-84337500D03*
D41*
%TO.P,U3,15,GPIO12*%
%TO.N,unconnected-(U3-GPIO12-Pad15)*%
X135087500Y-83500000D03*
%TO.P,U3,16,GPIO13*%
%TO.N,unconnected-(U3-GPIO13-Pad16)*%
X135087500Y-83100000D03*
%TO.P,U3,17,GPIO14*%
%TO.N,unconnected-(U3-GPIO14-Pad17)*%
X135087500Y-82700000D03*
%TO.P,U3,18,GPIO15*%
%TO.N,unconnected-(U3-GPIO15-Pad18)*%
X135087500Y-82300000D03*
%TO.P,U3,19,TESTEN*%
%TO.N,GND*%
X135087500Y-81900000D03*
%TO.P,U3,20,XIN*%
%TO.N,XIN*%
X135087500Y-81500000D03*
%TO.P,U3,21,XOUT*%
%TO.N,XOUT*%
X135087500Y-81100000D03*
%TO.P,U3,22,IOVDD*%
%TO.N,+3.3V*%
X135087500Y-80700000D03*
%TO.P,U3,23,DVDD*%
%TO.N,Net-(U3-VREG_VOUT)*%
X135087500Y-80300000D03*
%TO.P,U3,24,SWCLK*%
%TO.N,SWCLK*%
X135087500Y-79900000D03*
%TO.P,U3,25,SWD*%
%TO.N,SWDIO*%
X135087500Y-79500000D03*
%TO.P,U3,26,RUN*%
%TO.N,Net-(U3-RUN)*%
X135087500Y-79100000D03*
%TO.P,U3,27,GPIO16*%
%TO.N,unconnected-(U3-GPIO16-Pad27)*%
X135087500Y-78700000D03*
%TO.P,U3,28,GPIO17*%
%TO.N,unconnected-(U3-GPIO17-Pad28)*%
X135087500Y-78300000D03*
D40*
%TO.P,U3,29,GPIO18*%
%TO.N,unconnected-(U3-GPIO18-Pad29)*%
X134250000Y-77462500D03*
%TO.P,U3,30,GPIO19*%
%TO.N,unconnected-(U3-GPIO19-Pad30)*%
X133850000Y-77462500D03*
%TO.P,U3,31,GPIO20*%
%TO.N,MIC_PDM_DATA*%
X133450000Y-77462500D03*
%TO.P,U3,32,GPIO21*%
%TO.N,MIC_PDM_CLK*%
X133050000Y-77462500D03*
%TO.P,U3,33,IOVDD*%
%TO.N,+3.3V*%
X132650000Y-77462500D03*
%TO.P,U3,34,GPIO22*%
%TO.N,BUTTON*%
X132250000Y-77462500D03*
%TO.P,U3,35,GPIO23*%
%TO.N,unconnected-(U3-GPIO23-Pad35)*%
X131850000Y-77462500D03*
%TO.P,U3,36,GPIO24*%
%TO.N,LED_2_C*%
X131450000Y-77462500D03*
%TO.P,U3,37,GPIO25*%
%TO.N,LED_2_D*%
X131050000Y-77462500D03*
%TO.P,U3,38,GPIO26_ADC0*%
%TO.N,unconnected-(U3-GPIO26_ADC0-Pad38)*%
X130650000Y-77462500D03*
%TO.P,U3,39,GPIO27_ADC1*%
%TO.N,unconnected-(U3-GPIO27_ADC1-Pad39)*%
X130250000Y-77462500D03*
%TO.P,U3,40,GPIO28_ADC2*%
%TO.N,LED_1_C*%
X129850000Y-77462500D03*
%TO.P,U3,41,GPIO29_ADC3*%
%TO.N,LED_1_D*%
X129450000Y-77462500D03*
%TO.P,U3,42,IOVDD*%
%TO.N,+3.3V*%
X129050000Y-77462500D03*
D41*
%TO.P,U3,43,ADC_AVDD*%
%TO.N,Net-(U3-ADC_AVDD)*%
X128212500Y-78300000D03*
%TO.P,U3,44,VREG_IN*%
%TO.N,+3.3V*%
X128212500Y-78700000D03*
%TO.P,U3,45,VREG_VOUT*%
%TO.N,Net-(U3-VREG_VOUT)*%
X128212500Y-79100000D03*
%TO.P,U3,46,USB_DM*%
%TO.N,RPI_USB_N*%
X128212500Y-79500000D03*
%TO.P,U3,47,USB_DP*%
%TO.N,RPI_USB_P*%
X128212500Y-79900000D03*
%TO.P,U3,48,USB_VDD*%
%TO.N,+3.3V*%
X128212500Y-80300000D03*
%TO.P,U3,49,IOVDD*%
X128212500Y-80700000D03*
%TO.P,U3,50,DVDD*%
%TO.N,Net-(U3-VREG_VOUT)*%
X128212500Y-81100000D03*
%TO.P,U3,51,QSPI_SD3*%
%TO.N,QSPI_SD3*%
X128212500Y-81500000D03*
%TO.P,U3,52,QSPI_SCLK*%
%TO.N,QSPI_CLK*%
X128212500Y-81900000D03*
%TO.P,U3,53,QSPI_SD0*%
%TO.N,QSPI_SD0*%
X128212500Y-82300000D03*
%TO.P,U3,54,QSPI_SD2*%
%TO.N,QSPI_SD2*%
X128212500Y-82700000D03*
%TO.P,U3,55,QSPI_SD1*%
%TO.N,QSPI_SD1*%
X128212500Y-83100000D03*
%TO.P,U3,56,QSPI_SS*%
%TO.N,QSPI_SS*%
X128212500Y-83500000D03*
D42*
%TO.P,U3,57,GND*%
%TO.N,GND*%
X131650000Y-80900000D03*
%TD*%
D43*
%TO.P,L2,1*%
%TO.N,/esp32_wifi_section/LNA_IN*%
X170790000Y-81200000D03*
%TO.P,L2,2*%
%TO.N,Net-(AE1-A)*%
X171760000Y-81200000D03*
%TD*%
D22*
%TO.P,C20,1*%
%TO.N,+3.3V*%
X169260000Y-76400000D03*
%TO.P,C20,2*%
%TO.N,GND*%
X170220000Y-76400000D03*
%TD*%
D44*
%TO.P,D3,1,K*%
%TO.N,Net-(D3-K)*%
X171962500Y-77710000D03*
%TO.P,D3,2,A*%
%TO.N,ESP_STATUS_LED*%
X170387500Y-77710000D03*
%TD*%
D38*
%TO.P,C16,1*%
%TO.N,+3.3V*%
X161650000Y-77500000D03*
%TO.P,C16,2*%
%TO.N,GND*%
X160690000Y-77500000D03*
%TD*%
D15*
%TO.P,R5,1*%
%TO.N,/_RPI_USB_N*%
X125340000Y-78875000D03*
%TO.P,R5,2*%
%TO.N,RPI_USB_N*%
X126360000Y-78875000D03*
%TD*%
%TO.P,R12,1*%
%TO.N,+3.3V*%
X160640000Y-76400000D03*
%TO.P,R12,2*%
%TO.N,/esp32_wifi_section/IO8*%
X161660000Y-76400000D03*
%TD*%
D19*
%TO.P,R16,1*%
%TO.N,+3.3V*%
X170450000Y-79025000D03*
%TO.P,R16,2*%
%TO.N,/esp32_wifi_section/IO2*%
X169430000Y-79025000D03*
%TD*%
%TO.P,R4,1*%
%TO.N,Net-(C11-Pad1)*%
X137700000Y-80700000D03*
%TO.P,R4,2*%
%TO.N,XOUT*%
X136680000Y-80700000D03*
%TD*%
D15*
%TO.P,R13,1*%
%TO.N,/esp32_wifi_section/_USB_D-*%
X159940000Y-81875000D03*
%TO.P,R13,2*%
%TO.N,/esp32_wifi_section/USB_D-*%
X160960000Y-81875000D03*
%TD*%
D29*
%TO.P,C22,1*%
%TO.N,Net-(AE1-A)*%
X172750000Y-81230000D03*
%TO.P,C22,2*%
%TO.N,GND*%
X172750000Y-80270000D03*
%TD*%
D21*
%TO.P,R14,1*%
%TO.N,GND*%
X151850000Y-80880000D03*
%TO.P,R14,2*%
%TO.N,Net-(D2-K)*%
X151850000Y-81900000D03*
%TD*%
D29*
%TO.P,C2,1*%
%TO.N,Net-(U3-ADC_AVDD)*%
X126975000Y-77705000D03*
%TO.P,C2,2*%
%TO.N,GND*%
X126975000Y-76745000D03*
%TD*%
D21*
%TO.P,R7,1*%
%TO.N,BUTTON*%
X118000000Y-81640000D03*
%TO.P,R7,2*%
%TO.N,QSPI_SS*%
X118000000Y-82660000D03*
%TD*%
D38*
%TO.P,C10,1*%
%TO.N,+3.3V*%
X132830000Y-85600000D03*
%TO.P,C10,2*%
%TO.N,GND*%
X131870000Y-85600000D03*
%TD*%
D45*
%TO.P,C18,1*%
%TO.N,+3.3V*%
X148750000Y-81575000D03*
%TO.P,C18,2*%
%TO.N,GND*%
X148750000Y-80025000D03*
%TD*%
D22*
%TO.P,C11,1*%
%TO.N,Net-(C11-Pad1)*%
X138750000Y-80670000D03*
%TO.P,C11,2*%
%TO.N,GND*%
X139710000Y-80670000D03*
%TD*%
%TO.P,C26,1*%
%TO.N,+3.3V*%
X170470000Y-83400000D03*
%TO.P,C26,2*%
%TO.N,GND*%
X171430000Y-83400000D03*
%TD*%
D46*
%TO.P,L1,1*%
%TO.N,Net-(C25-Pad2)*%
X164150000Y-85585000D03*
%TO.P,L1,2*%
%TO.N,/esp32_wifi_section/XTAL_N*%
X164150000Y-84615000D03*
%TD*%
D47*
%TO.P,U4,1,GND*%
%TO.N,GND*%
X146560000Y-77740000D03*
%TO.P,U4,2,VO*%
%TO.N,+3.3V*%
X144260000Y-77740000D03*
D48*
X144260000Y-84040000D03*
D47*
%TO.P,U4,3,VI*%
%TO.N,+5V*%
X141960000Y-77740000D03*
%TD*%
D22*
%TO.P,C12,1*%
%TO.N,+3.3V*%
X116080000Y-78360000D03*
%TO.P,C12,2*%
%TO.N,GND*%
X117040000Y-78360000D03*
%TD*%
D13*
%TO.P,SW4,1,1*%
%TO.N,Net-(U5-CHIP_EN)*%
X157175000Y-77475000D03*
%TO.P,SW4,2,2*%
%TO.N,GND*%
X153775000Y-77475000D03*
%TD*%
D49*
%TO.P,AE1,1,A*%
%TO.N,Net-(AE1-A)*%
X175050000Y-82000000D03*
%TO.P,AE1,2,Shield*%
%TO.N,unconnected-(AE1-Shield-Pad2)*%
X175050000Y-78900000D03*
%TD*%
D50*
%TO.P,C13,1*%
%TO.N,+3.3V*%
X118050000Y-76420000D03*
%TO.P,C13,2*%
%TO.N,GND*%
X118050000Y-77380000D03*
%TD*%
D13*
%TO.P,SW2,1,1*%
%TO.N,BUTTON*%
X114950000Y-84500000D03*
%TO.P,SW2,2,2*%
%TO.N,GND*%
X111550000Y-84500000D03*
%TD*%
D51*
%TO.N,GND*%
X138280000Y-79650000D03*
X158710000Y-79950000D03*
X120400000Y-82300000D03*
X154720000Y-81070000D03*
X145600000Y-76175000D03*
X131240000Y-85560000D03*
X134040000Y-82030000D03*
X172650000Y-79310000D03*
X172190000Y-82030000D03*
X171620000Y-82030000D03*
X170520000Y-85560000D03*
X110123320Y-76354946D03*
X113150000Y-84550000D03*
X171770000Y-79990000D03*
X171170000Y-80010000D03*
X138420000Y-84840000D03*
X170390000Y-79980000D03*
X125180000Y-80970000D03*
X140280000Y-81000000D03*
X117404732Y-78833694D03*
X154760000Y-78540000D03*
X172750000Y-82050000D03*
X168250000Y-77100000D03*
X126990000Y-76180000D03*
X126160000Y-84130000D03*
X146700000Y-76325000D03*
X172650000Y-78560000D03*
X165550000Y-85848000D03*
X119400000Y-78950000D03*
X170840000Y-82380000D03*
X129450000Y-76052000D03*
X172000000Y-83420000D03*
X117493254Y-77350000D03*
X134410000Y-76570000D03*
%TO.N,+3.3V*%
X133350000Y-85600000D03*
X166370000Y-76270000D03*
X162320000Y-78010000D03*
X168050000Y-80700008D03*
X136554016Y-76315416D03*
X115450000Y-78400000D03*
X171110000Y-79000000D03*
X129000000Y-85240000D03*
X168170000Y-82220000D03*
X158930000Y-81040000D03*
X133780000Y-81300000D03*
D52*
X144350000Y-79350000D03*
D51*
X132890000Y-76210000D03*
X158350000Y-77940000D03*
X119092049Y-76191350D03*
D52*
X144450000Y-80250000D03*
X144375007Y-81266134D03*
D51*
X127186992Y-80346992D03*
X127230000Y-78680000D03*
X147642862Y-81066800D03*
X161080000Y-76900000D03*
D52*
%TO.N,+5V*%
X113249964Y-82800000D03*
D51*
X147775000Y-84524996D03*
D52*
X141975742Y-79337407D03*
X157400000Y-84325000D03*
X156000000Y-77600000D03*
X111225000Y-78200000D03*
D51*
X148425000Y-84600000D03*
%TO.N,MIC_PDM_DATA*%
X133132462Y-78947394D03*
X115508609Y-76928114D03*
%TO.N,SWCLK*%
X134038827Y-79930196D03*
%TO.N,SWDIO*%
X133914296Y-79366212D03*
%TO.N,/esp32_wifi_section/IO9*%
X157390000Y-76210000D03*
X162320000Y-76800000D03*
%TO.N,MIC_PDM_CLK*%
X132850002Y-78415000D03*
X116691497Y-76928200D03*
%TO.N,BUTTON*%
X118890740Y-81629313D03*
X132000000Y-78947998D03*
%TO.N,QSPI_SD0*%
X123150000Y-79200000D03*
X123190000Y-82258928D03*
%TO.N,QSPI_SD3*%
X121340000Y-81760000D03*
X121340000Y-79100000D03*
%TO.N,Net-(U3-VREG_VOUT)*%
X129325000Y-80905000D03*
X134060450Y-80580306D03*
%TO.N,QSPI_CLK*%
X122290000Y-79140000D03*
X122430000Y-81990000D03*
%TO.N,/UART1_RX*%
X133860743Y-83414319D03*
X159150000Y-85200000D03*
%TO.N,Net-(U5-CHIP_EN)*%
X159290000Y-77590000D03*
X169050000Y-78200000D03*
%TO.N,Net-(U3-RUN)*%
X124150000Y-80800000D03*
X134050000Y-78450000D03*
%TO.N,/UART1_TX*%
X159200000Y-84050000D03*
X133350000Y-83071800D03*
%TO.N,LED_1_C*%
X129869818Y-78124166D03*
%TO.N,LED_1_D*%
X129748119Y-76676145D03*
%TO.N,LED_2_C*%
X132000000Y-76300000D03*
%TO.N,LED_2_D*%
X131196601Y-76331033D03*
%TO.N,LED_4_C*%
X134980000Y-85841402D03*
%TO.N,LED_4_D*%
X135060000Y-85200000D03*
%TO.N,LED_3_D*%
X129725002Y-85334998D03*
%TO.N,LED_3_C*%
X129241800Y-83433837D03*
%TD*%
D53*
%TO.N,GND*%
X109398266Y-77080000D02*
X108650000Y-77080000D01*
D54*
X165250000Y-85580000D02*
X165282000Y-85580000D01*
D55*
X140540000Y-83120000D02*
X140540000Y-81260000D01*
D56*
X170210000Y-82400000D02*
X170820000Y-82400000D01*
D55*
X139480000Y-83780000D02*
X139880000Y-83780000D01*
D56*
X123555000Y-84200000D02*
X126090000Y-84200000D01*
X171980000Y-83400000D02*
X172000000Y-83420000D01*
D55*
X139950000Y-80670000D02*
X140280000Y-81000000D01*
X140540000Y-81260000D02*
X140280000Y-81000000D01*
D54*
X169950000Y-85580000D02*
X170500000Y-85580000D01*
D55*
X117404732Y-78724732D02*
X117404732Y-78833694D01*
D57*
X129272000Y-76230000D02*
X129140000Y-76230000D01*
D55*
X131870000Y-85600000D02*
X131280000Y-85600000D01*
D54*
X168805000Y-85580000D02*
X168425000Y-85200000D01*
D55*
X138980000Y-83780000D02*
X137280000Y-82080000D01*
X139480000Y-83780000D02*
X138980000Y-83780000D01*
D54*
X169950000Y-85580000D02*
X168805000Y-85580000D01*
D55*
X118200000Y-77380000D02*
X117523254Y-77380000D01*
D54*
X135087500Y-81900000D02*
X134170000Y-81900000D01*
D58*
X158640000Y-80020000D02*
X158710000Y-79950000D01*
D54*
X167025000Y-83800000D02*
X168425000Y-85200000D01*
D56*
X159830000Y-78360000D02*
X160690000Y-77500000D01*
X126950000Y-76720000D02*
X126950000Y-76220000D01*
D54*
X126090000Y-84200000D02*
X126160000Y-84130000D01*
D55*
X134290000Y-76450000D02*
X134410000Y-76570000D01*
D54*
X165250000Y-85580000D02*
X165660000Y-85990000D01*
D57*
X129450000Y-76052000D02*
X129272000Y-76230000D01*
D54*
X134170000Y-81900000D02*
X134040000Y-82030000D01*
D56*
X171430000Y-83400000D02*
X171980000Y-83400000D01*
D55*
X117040000Y-78360000D02*
X117404732Y-78724732D01*
D56*
X126950000Y-76220000D02*
X126990000Y-76180000D01*
D55*
X137660000Y-85200000D02*
X138060000Y-85200000D01*
D58*
X158270000Y-80020000D02*
X158640000Y-80020000D01*
D56*
X159830000Y-78770000D02*
X159830000Y-78360000D01*
D55*
X138060000Y-85200000D02*
X138420000Y-84840000D01*
X125710000Y-80970000D02*
X125180000Y-80970000D01*
D53*
X110123320Y-76354946D02*
X109398266Y-77080000D01*
D54*
X165660000Y-85990000D02*
X167635000Y-85990000D01*
X166675000Y-83800000D02*
X167025000Y-83800000D01*
D55*
X139710000Y-80670000D02*
X139950000Y-80670000D01*
X138420000Y-84840000D02*
X139480000Y-83780000D01*
D56*
X170820000Y-82400000D02*
X170840000Y-82380000D01*
D55*
X134290000Y-76230000D02*
X134290000Y-76450000D01*
D57*
X137680000Y-79650000D02*
X138280000Y-79650000D01*
D54*
X165282000Y-85580000D02*
X165550000Y-85848000D01*
X170500000Y-85580000D02*
X170520000Y-85560000D01*
D55*
X139880000Y-83780000D02*
X140540000Y-83120000D01*
X117523254Y-77380000D02*
X117493254Y-77350000D01*
D54*
X167635000Y-85990000D02*
X168425000Y-85200000D01*
D55*
X131280000Y-85600000D02*
X131240000Y-85560000D01*
%TO.N,+3.3V*%
X127233984Y-80300000D02*
X127186992Y-80346992D01*
D56*
X161050000Y-76900000D02*
X161080000Y-76900000D01*
X150450000Y-80012500D02*
X150312500Y-80012500D01*
D57*
X132650000Y-76450000D02*
X132650000Y-77462500D01*
D55*
X136639432Y-76230000D02*
X136554016Y-76315416D01*
D56*
X126776000Y-78376000D02*
X126110000Y-77710000D01*
D57*
X132910000Y-76230000D02*
X132890000Y-76210000D01*
D55*
X118863399Y-76420000D02*
X119092049Y-76191350D01*
D56*
X128212500Y-78700000D02*
X127250000Y-78700000D01*
X144375007Y-81266134D02*
X144375007Y-81266132D01*
D55*
X129050000Y-84337500D02*
X129050000Y-85190000D01*
X119092049Y-76347049D02*
X119092049Y-76191350D01*
D53*
X168050000Y-80700000D02*
X168050000Y-80500014D01*
D56*
X160640000Y-76400000D02*
X160640000Y-76490000D01*
D55*
X115490000Y-78360000D02*
X115450000Y-78400000D01*
D56*
X126110000Y-77710000D02*
X125950000Y-77710000D01*
D59*
X144375007Y-81266132D02*
X144408439Y-81232700D01*
D56*
X126926000Y-78376000D02*
X126776000Y-78376000D01*
D55*
X136240000Y-76230000D02*
X136910000Y-76230000D01*
D57*
X135670000Y-80700000D02*
X135087500Y-80700000D01*
X132890000Y-76210000D02*
X132650000Y-76450000D01*
D54*
X166350000Y-76290000D02*
X166370000Y-76270000D01*
D56*
X162310000Y-78000000D02*
X162150000Y-78000000D01*
X127230000Y-78680000D02*
X126926000Y-78376000D01*
D57*
X128950000Y-77562500D02*
X128950000Y-78590000D01*
X136720000Y-79650000D02*
X135670000Y-80700000D01*
D55*
X115410000Y-78360000D02*
X114897500Y-78360000D01*
X132650000Y-85420000D02*
X132830000Y-85600000D01*
D59*
X147476962Y-81232700D02*
X147642862Y-81066800D01*
D56*
X124980000Y-77710000D02*
X124950000Y-77680000D01*
D53*
X168050000Y-81000000D02*
X168050000Y-80700000D01*
X167350000Y-82200000D02*
X166850000Y-82200000D01*
D55*
X136890000Y-76230000D02*
X136639432Y-76230000D01*
X118200000Y-76420000D02*
X118863399Y-76420000D01*
D57*
X128950000Y-78590000D02*
X128840000Y-78700000D01*
X135087500Y-80700000D02*
X134640000Y-80700000D01*
D56*
X161080000Y-76900000D02*
X161080000Y-76930000D01*
X127210000Y-78700000D02*
X127090000Y-78700000D01*
X162320000Y-78010000D02*
X162310000Y-78000000D01*
D58*
X158310000Y-81030000D02*
X158920000Y-81030000D01*
D57*
X134640000Y-80700000D02*
X134040000Y-81300000D01*
D55*
X132830000Y-85600000D02*
X133350000Y-85600000D01*
D53*
X168170000Y-82220000D02*
X168190000Y-82200000D01*
X170250000Y-83400000D02*
X170470000Y-83400000D01*
D55*
X115450000Y-78400000D02*
X115410000Y-78360000D01*
D56*
X162330000Y-78000000D02*
X162320000Y-78010000D01*
D54*
X166350000Y-77300000D02*
X166350000Y-76290000D01*
D53*
X168150000Y-82200000D02*
X168170000Y-82220000D01*
D59*
X144408439Y-81232700D02*
X147476962Y-81232700D01*
D57*
X169260000Y-76400000D02*
X166500000Y-76400000D01*
D53*
X169050000Y-82200000D02*
X169250000Y-82400000D01*
D57*
X166500000Y-76400000D02*
X166370000Y-76270000D01*
D53*
X168050000Y-80500000D02*
X168050014Y-80500000D01*
D55*
X127540000Y-80700000D02*
X127186992Y-80346992D01*
D56*
X161080000Y-76930000D02*
X161650000Y-77500000D01*
D53*
X167350000Y-82200000D02*
X168150000Y-82200000D01*
X168050014Y-80500000D02*
X168050014Y-80699994D01*
D55*
X158450000Y-77310000D02*
X158450000Y-77840000D01*
D59*
X148750000Y-81575000D02*
X148151062Y-81575000D01*
D57*
X128840000Y-78700000D02*
X128212500Y-78700000D01*
D56*
X161380000Y-77770000D02*
X161650000Y-77500000D01*
D55*
X128212500Y-80300000D02*
X127233984Y-80300000D01*
X132650000Y-84337500D02*
X132650000Y-85420000D01*
D56*
X160640000Y-76490000D02*
X161050000Y-76900000D01*
X127250000Y-78700000D02*
X127230000Y-78680000D01*
D55*
X128212500Y-80700000D02*
X127540000Y-80700000D01*
D53*
X168190000Y-82200000D02*
X169050000Y-82200000D01*
D56*
X150312500Y-80012500D02*
X148750000Y-81575000D01*
D57*
X133330000Y-76230000D02*
X132910000Y-76230000D01*
D54*
X170560000Y-79000000D02*
X171110000Y-79000000D01*
D56*
X163150000Y-78000000D02*
X162330000Y-78000000D01*
X161380000Y-78770000D02*
X161380000Y-77770000D01*
X125950000Y-77710000D02*
X124980000Y-77710000D01*
D59*
X148151062Y-81575000D02*
X147642862Y-81066800D01*
D55*
X119745000Y-77000000D02*
X119092049Y-76347049D01*
X116080000Y-78360000D02*
X115490000Y-78360000D01*
D56*
X127230000Y-78680000D02*
X127210000Y-78700000D01*
D55*
X158450000Y-77840000D02*
X158350000Y-77940000D01*
D57*
X129050000Y-77462500D02*
X128950000Y-77562500D01*
D53*
X168050014Y-80699994D02*
X168050000Y-80700008D01*
D55*
X114897500Y-78360000D02*
X114837500Y-78300000D01*
D53*
X168050000Y-80500014D02*
X168050014Y-80500000D01*
D55*
X129050000Y-85190000D02*
X129000000Y-85240000D01*
D58*
X158920000Y-81030000D02*
X158930000Y-81040000D01*
D56*
X162150000Y-78000000D02*
X161650000Y-77500000D01*
D57*
X134040000Y-81300000D02*
X133780000Y-81300000D01*
D53*
X169250000Y-82400000D02*
X170250000Y-83400000D01*
D54*
%TO.N,XIN*%
X135950000Y-81500000D02*
X135087500Y-81500000D01*
X136250000Y-82900000D02*
X136250000Y-81800000D01*
X136700000Y-84360000D02*
X137280000Y-83780000D01*
X137280000Y-83780000D02*
X137030000Y-83780000D01*
X136250000Y-81800000D02*
X135950000Y-81500000D01*
X137280000Y-83780000D02*
X137130000Y-83780000D01*
X136700000Y-85200000D02*
X136700000Y-84360000D01*
X137130000Y-83780000D02*
X136250000Y-82900000D01*
%TO.N,/esp32_wifi_section/XTAL_P*%
X166350000Y-82690000D02*
X166560000Y-82900000D01*
X167525000Y-82900000D02*
X168425000Y-83800000D01*
X169245000Y-84620000D02*
X169950000Y-84620000D01*
X166560000Y-82900000D02*
X167525000Y-82900000D01*
X168425000Y-83800000D02*
X169245000Y-84620000D01*
X166350000Y-82200000D02*
X166350000Y-82690000D01*
D60*
%TO.N,+5V*%
X110800000Y-82800000D02*
X113249964Y-82800000D01*
D59*
X141960000Y-77740000D02*
X140285000Y-77740000D01*
D60*
X108900000Y-84700000D02*
X110800000Y-82800000D01*
D59*
X141960000Y-77740000D02*
X141960000Y-79321665D01*
X140285000Y-77740000D02*
X139760000Y-77215000D01*
D60*
X108650000Y-84700000D02*
X108900000Y-84700000D01*
D59*
X141960000Y-79321665D02*
X141975742Y-79337407D01*
D54*
%TO.N,MIC_PDM_DATA*%
X115200495Y-76620000D02*
X115508609Y-76928114D01*
X133450000Y-78629856D02*
X133132462Y-78947394D01*
X114837500Y-76620000D02*
X115200495Y-76620000D01*
X133450000Y-77462500D02*
X133450000Y-78629856D01*
D55*
%TO.N,RPI_STATUS_LED*%
X120590000Y-85888696D02*
X118381196Y-85888696D01*
X130250000Y-85568440D02*
X130250000Y-84337500D01*
X129898208Y-85920232D02*
X130250000Y-85568440D01*
X126660000Y-85960000D02*
X126699768Y-85920232D01*
X120590000Y-85888696D02*
X120661304Y-85960000D01*
X120661304Y-85960000D02*
X126660000Y-85960000D01*
X118381196Y-85888696D02*
X118352500Y-85860000D01*
X117880000Y-85437500D02*
X118302500Y-85860000D01*
X126699768Y-85920232D02*
X129898208Y-85920232D01*
D54*
%TO.N,ESP_STATUS_LED*%
X168050000Y-78000000D02*
X168340000Y-77710000D01*
X168340000Y-77710000D02*
X170272500Y-77710000D01*
X170272500Y-77710000D02*
X170262500Y-77700000D01*
D56*
%TO.N,Net-(D2-K)*%
X150450000Y-81587500D02*
X151537500Y-81587500D01*
X151537500Y-81587500D02*
X151850000Y-81900000D01*
D55*
%TO.N,SWCLK*%
X134069023Y-79900000D02*
X134038827Y-79930196D01*
X135087500Y-79900000D02*
X134069023Y-79900000D01*
%TO.N,SWDIO*%
X134048084Y-79500000D02*
X133914296Y-79366212D01*
X135087500Y-79500000D02*
X134048084Y-79500000D01*
D54*
%TO.N,/esp32_wifi_section/XTAL_N*%
X165850000Y-83580000D02*
X165850000Y-82200000D01*
X164900000Y-83980000D02*
X165450000Y-83980000D01*
X165450000Y-83980000D02*
X165850000Y-83580000D01*
X164150000Y-84615000D02*
X164265000Y-84615000D01*
X164265000Y-84615000D02*
X164900000Y-83980000D01*
%TO.N,/esp32_wifi_section/IO2*%
X168050000Y-79000000D02*
X169540000Y-79000000D01*
%TO.N,/esp32_wifi_section/IO8*%
X164850000Y-77300000D02*
X164850000Y-76260000D01*
X164600000Y-76010000D02*
X161730001Y-76010000D01*
X164850000Y-76260000D02*
X164600000Y-76010000D01*
X161660000Y-76080001D02*
X161660000Y-76400000D01*
X161730001Y-76010000D02*
X161660000Y-76080001D01*
%TO.N,/esp32_wifi_section/IO9*%
X162270000Y-76810000D02*
X163020000Y-76810000D01*
X152860000Y-76220000D02*
X157380000Y-76220000D01*
X164350000Y-76610000D02*
X164350000Y-77300000D01*
D58*
X157310000Y-80020000D02*
X153050000Y-80020000D01*
D54*
X164190000Y-76450000D02*
X164350000Y-76610000D01*
D58*
X157290000Y-80040000D02*
X157310000Y-80020000D01*
X152100000Y-78950000D02*
X152100000Y-77475000D01*
D54*
X163380000Y-76450000D02*
X164190000Y-76450000D01*
D58*
X157290000Y-81030000D02*
X157290000Y-80040000D01*
X152040000Y-79010000D02*
X152100000Y-78950000D01*
D54*
X163020000Y-76810000D02*
X163380000Y-76450000D01*
X152150000Y-76930000D02*
X152860000Y-76220000D01*
X157380000Y-76220000D02*
X157390000Y-76210000D01*
D58*
X153050000Y-80020000D02*
X152040000Y-79010000D01*
D54*
X152150000Y-77500000D02*
X152150000Y-76930000D01*
%TO.N,MIC_PDM_CLK*%
X114007500Y-77867500D02*
X114425000Y-77450000D01*
X114425000Y-77450000D02*
X116169697Y-77450000D01*
X133050000Y-77462500D02*
X133050000Y-78215002D01*
X114007500Y-78300000D02*
X114007500Y-77867500D01*
X116169697Y-77450000D02*
X116691497Y-76928200D01*
X133050000Y-78215002D02*
X132850002Y-78415000D01*
%TO.N,XOUT*%
X136050000Y-81100000D02*
X136480000Y-80670000D01*
X136480000Y-80670000D02*
X136680000Y-80670000D01*
X135087500Y-81100000D02*
X136050000Y-81100000D01*
D55*
%TO.N,QSPI_SS*%
X119620000Y-82650000D02*
X118195000Y-82650000D01*
X119745000Y-85375000D02*
X119970000Y-85600000D01*
X127670000Y-85390000D02*
X127670000Y-83720000D01*
X119745000Y-84200000D02*
X119745000Y-82775000D01*
X127460000Y-85600000D02*
X127670000Y-85390000D01*
X119970000Y-85600000D02*
X127460000Y-85600000D01*
X119745000Y-82775000D02*
X119620000Y-82650000D01*
X127670000Y-83720000D02*
X127890000Y-83500000D01*
X119745000Y-84200000D02*
X119745000Y-85375000D01*
X127890000Y-83500000D02*
X128212500Y-83500000D01*
%TO.N,BUTTON*%
X115800000Y-81550000D02*
X115800000Y-83650000D01*
X132000000Y-78947998D02*
X132250000Y-78697998D01*
X132250000Y-78697998D02*
X132250000Y-77462500D01*
X116290000Y-81060000D02*
X115800000Y-81550000D01*
X118881427Y-81620000D02*
X118180000Y-81620000D01*
X118180000Y-81620000D02*
X117620000Y-81060000D01*
X115800000Y-83650000D02*
X114950000Y-84500000D01*
X117620000Y-81060000D02*
X116290000Y-81060000D01*
X118890740Y-81629313D02*
X118881427Y-81620000D01*
%TO.N,QSPI_SD0*%
X123150000Y-78950000D02*
X123150000Y-79200000D01*
X123231072Y-82300000D02*
X128212500Y-82300000D01*
X123590000Y-77435000D02*
X123590000Y-78510000D01*
X123190000Y-82258928D02*
X123231072Y-82300000D01*
X123590000Y-78510000D02*
X123150000Y-78950000D01*
X123555000Y-77400000D02*
X123590000Y-77435000D01*
%TO.N,QSPI_SD3*%
X121015000Y-77400000D02*
X121340000Y-77725000D01*
X128167268Y-81545232D02*
X121554768Y-81545232D01*
X128212500Y-81500000D02*
X128167268Y-81545232D01*
X121554768Y-81545232D02*
X121340000Y-81760000D01*
X121340000Y-77725000D02*
X121340000Y-79100000D01*
%TO.N,QSPI_SD1*%
X122640000Y-85280000D02*
X121270000Y-85280000D01*
X128212500Y-83100000D02*
X128208804Y-83103696D01*
X121015000Y-85025000D02*
X121015000Y-84600000D01*
X128208804Y-83103696D02*
X123026304Y-83103696D01*
X122890000Y-83240000D02*
X122890000Y-85030000D01*
X122890000Y-85030000D02*
X122640000Y-85280000D01*
X123026304Y-83103696D02*
X122890000Y-83240000D01*
X121270000Y-85280000D02*
X121015000Y-85025000D01*
%TO.N,QSPI_SD2*%
X122510000Y-82700000D02*
X122285000Y-82925000D01*
X128212500Y-82700000D02*
X122510000Y-82700000D01*
X122285000Y-82925000D02*
X122285000Y-84600000D01*
D57*
%TO.N,Net-(U3-VREG_VOUT)*%
X136700000Y-78830000D02*
X136700000Y-78550000D01*
D54*
X135900000Y-79230000D02*
X136300000Y-78830000D01*
X135641210Y-80300000D02*
X135900000Y-80041210D01*
D55*
X129130000Y-81100000D02*
X129370000Y-80860000D01*
D54*
X135900000Y-80041210D02*
X135900000Y-79230000D01*
X135087500Y-80300000D02*
X134340756Y-80300000D01*
X136300000Y-78830000D02*
X136700000Y-78830000D01*
D57*
X136690000Y-77690000D02*
X136700000Y-77680000D01*
D55*
X129140000Y-79100000D02*
X128212500Y-79100000D01*
X128212500Y-81100000D02*
X126740000Y-81100000D01*
X129370000Y-79330000D02*
X129140000Y-79100000D01*
X129370000Y-80860000D02*
X129370000Y-79330000D01*
D54*
X135087500Y-80300000D02*
X135641210Y-80300000D01*
D57*
X136690000Y-78680000D02*
X136690000Y-77690000D01*
X136700000Y-78550000D02*
X136770000Y-78480000D01*
D55*
X126740000Y-81100000D02*
X126670000Y-81030000D01*
X128212500Y-81100000D02*
X129130000Y-81100000D01*
D54*
X134340756Y-80300000D02*
X134060450Y-80580306D01*
D55*
%TO.N,QSPI_CLK*%
X122290000Y-77405000D02*
X122290000Y-79140000D01*
X122285000Y-77400000D02*
X122290000Y-77405000D01*
X128212500Y-81900000D02*
X128141196Y-81828696D01*
X122591304Y-81828696D02*
X122430000Y-81990000D01*
X128141196Y-81828696D02*
X122591304Y-81828696D01*
D54*
%TO.N,/UART1_RX*%
X159150000Y-85200000D02*
X159830000Y-85200000D01*
X131550000Y-83600000D02*
X133675062Y-83600000D01*
X131450000Y-84337500D02*
X131450000Y-83700000D01*
X131450000Y-83700000D02*
X131550000Y-83600000D01*
X133675062Y-83600000D02*
X133860743Y-83414319D01*
X159830000Y-85200000D02*
X159930000Y-85100000D01*
D56*
%TO.N,Net-(U3-ADC_AVDD)*%
X126950000Y-77680000D02*
X126940000Y-77680000D01*
X128212500Y-78300000D02*
X127570000Y-78300000D01*
X128180000Y-76450000D02*
X128180000Y-76230000D01*
X127570000Y-78300000D02*
X126950000Y-77680000D01*
X126950000Y-77680000D02*
X128180000Y-76450000D01*
X126940000Y-77680000D02*
X125950000Y-76690000D01*
D54*
%TO.N,Net-(C11-Pad1)*%
X137700000Y-80670000D02*
X138750000Y-80670000D01*
X138750000Y-81350000D02*
X139480000Y-82080000D01*
X138750000Y-80670000D02*
X138750000Y-81350000D01*
%TO.N,Net-(U5-CHIP_EN)*%
X158450000Y-76290000D02*
X157240000Y-77500000D01*
D55*
X168950000Y-78200000D02*
X169050000Y-78200000D01*
X168920000Y-78170000D02*
X168950000Y-78200000D01*
D54*
X159550000Y-77280000D02*
X159440000Y-77280000D01*
D55*
X168590000Y-78500000D02*
X168920000Y-78170000D01*
X168050000Y-78500000D02*
X168590000Y-78500000D01*
D54*
X157240000Y-77500000D02*
X157150000Y-77500000D01*
X159440000Y-77280000D02*
X158450000Y-76290000D01*
%TO.N,Net-(C25-Pad2)*%
X166095000Y-84620000D02*
X166675000Y-85200000D01*
X164150000Y-85585000D02*
X164285000Y-85585000D01*
X165250000Y-84620000D02*
X166095000Y-84620000D01*
X164285000Y-85585000D02*
X165250000Y-84620000D01*
D55*
%TO.N,Net-(D1-K)*%
X117100000Y-83082500D02*
X117100000Y-82670000D01*
X117880000Y-83862500D02*
X117100000Y-83082500D01*
D54*
%TO.N,Net-(U3-RUN)*%
X134050000Y-78500000D02*
X134050000Y-78450000D01*
D55*
X114950000Y-81100000D02*
X115420000Y-81100000D01*
D54*
X135087500Y-79100000D02*
X135484464Y-79100000D01*
D55*
X115820000Y-80700000D02*
X116050000Y-80700000D01*
D54*
X116050000Y-80700000D02*
X118550000Y-80700000D01*
X135930000Y-76940000D02*
X135220000Y-76230000D01*
X135930000Y-78654464D02*
X135930000Y-76940000D01*
X135087500Y-79100000D02*
X134650000Y-79100000D01*
X135484464Y-79100000D02*
X135930000Y-78654464D01*
X119113800Y-81263800D02*
X123686200Y-81263800D01*
X134650000Y-79100000D02*
X134050000Y-78500000D01*
X123686200Y-81263800D02*
X124150000Y-80800000D01*
X118550000Y-80700000D02*
X119113800Y-81263800D01*
D55*
X115420000Y-81100000D02*
X115820000Y-80700000D01*
D54*
%TO.N,Net-(U5-U0TXD)*%
X164515731Y-83829400D02*
X165350000Y-82995131D01*
X161295132Y-85100000D02*
X162565732Y-83829400D01*
X160950000Y-85100000D02*
X161295132Y-85100000D01*
X165350000Y-82995131D02*
X165350000Y-82200000D01*
X162565732Y-83829400D02*
X164515731Y-83829400D01*
%TO.N,/UART1_TX*%
X131050000Y-84337500D02*
X131050000Y-83300000D01*
X159930000Y-84050000D02*
X159200000Y-84050000D01*
X131278200Y-83071800D02*
X133350000Y-83071800D01*
X131050000Y-83300000D02*
X131278200Y-83071800D01*
D61*
%TO.N,/esp32_wifi_section/_USB_D+*%
X158969981Y-82589037D02*
X158600472Y-82219528D01*
X159564037Y-82589037D02*
X158969981Y-82589037D01*
X159950000Y-82975000D02*
X159564037Y-82589037D01*
X153759037Y-82600019D02*
X154390019Y-81969037D01*
X153759037Y-82974037D02*
X153759037Y-82600019D01*
X154390019Y-81969037D02*
X158349981Y-81969037D01*
X154860000Y-84075000D02*
X153759037Y-82974037D01*
X154860000Y-84325000D02*
X154860000Y-84075000D01*
X158349981Y-81969037D02*
X158770472Y-82389528D01*
%TO.N,/esp32_wifi_section/_USB_D-*%
X159564037Y-82250963D02*
X159940000Y-81875000D01*
X158490019Y-81630963D02*
X159110019Y-82250963D01*
X152320000Y-84075000D02*
X153420963Y-82974037D01*
X153420963Y-82974037D02*
X153420963Y-82459981D01*
X152320000Y-84325000D02*
X152320000Y-84075000D01*
X154249981Y-81630963D02*
X158490019Y-81630963D01*
X153420963Y-82459981D02*
X154249981Y-81630963D01*
X159110019Y-82250963D02*
X159564037Y-82250963D01*
%TO.N,/esp32_wifi_section/USB_D-*%
X163930963Y-82624992D02*
X163664992Y-82890963D01*
X163664992Y-82890963D02*
X162780019Y-82890963D01*
X162780019Y-82890963D02*
X162150019Y-82260963D01*
X162150019Y-82260963D02*
X161345963Y-82260963D01*
X163930963Y-82550963D02*
X163930963Y-82624992D01*
X163850000Y-82470000D02*
X163930963Y-82550963D01*
X161345963Y-82260963D02*
X160960000Y-81875000D01*
X163850000Y-82200000D02*
X163850000Y-82470000D01*
%TO.N,/esp32_wifi_section/USB_D+*%
X164350000Y-82200000D02*
X164350000Y-82470000D01*
X161345963Y-82599037D02*
X160970000Y-82975000D01*
X164269037Y-82765030D02*
X163805030Y-83229037D01*
X163805030Y-83229037D02*
X162639981Y-83229037D01*
X164350000Y-82470000D02*
X164269037Y-82550963D01*
X164269037Y-82550963D02*
X164269037Y-82765030D01*
X162009981Y-82599037D02*
X161345963Y-82599037D01*
X162639981Y-83229037D02*
X162009981Y-82599037D01*
D62*
%TO.N,Net-(AE1-A)*%
X172465857Y-81200000D02*
X171515000Y-81200000D01*
X174660000Y-81610000D02*
X175050000Y-82000000D01*
X172514142Y-81220000D02*
X173718456Y-81220000D01*
X174660000Y-81610000D02*
G75*
G03*
X173718456Y-81220018I-941500J-941500D01*
G01*
X172490000Y-81210000D02*
G75*
G03*
X172514142Y-81219983I24100J24100D01*
G01*
X172490000Y-81210000D02*
G75*
G03*
X172465857Y-81200017I-24100J-24100D01*
G01*
D57*
%TO.N,Net-(D3-K)*%
X171847500Y-76692500D02*
X172130000Y-76410000D01*
X171847500Y-77710000D02*
X171847500Y-76692500D01*
D61*
%TO.N,RPI_USB_P*%
X127556249Y-79900000D02*
X128212500Y-79900000D01*
X126655963Y-79614037D02*
X126904981Y-79614037D01*
X126904981Y-79614037D02*
X127159981Y-79869037D01*
X127525286Y-79869037D02*
X127556249Y-79900000D01*
X127159981Y-79869037D02*
X127525286Y-79869037D01*
X126320000Y-79950000D02*
X126655963Y-79614037D01*
%TO.N,RPI_USB_N*%
X127045019Y-79275963D02*
X127300019Y-79530963D01*
X126330000Y-78950000D02*
X126655963Y-79275963D01*
X127556249Y-79500000D02*
X128212500Y-79500000D01*
X126655963Y-79275963D02*
X127045019Y-79275963D01*
X127525286Y-79530963D02*
X127556249Y-79500000D01*
X127300019Y-79530963D02*
X127525286Y-79530963D01*
%TO.N,/_RPI_USB_P*%
X116549981Y-79439037D02*
X117179981Y-80069037D01*
X124974037Y-79624037D02*
X125300000Y-79950000D01*
X124035019Y-79624037D02*
X124974037Y-79624037D01*
X109750963Y-81059037D02*
X109910019Y-81059037D01*
X111530019Y-79439037D02*
X116549981Y-79439037D01*
X123590019Y-80069037D02*
X124035019Y-79624037D01*
X108650000Y-82160000D02*
X109750963Y-81059037D01*
X109910019Y-81059037D02*
X111530019Y-79439037D01*
X117179981Y-80069037D02*
X123590019Y-80069037D01*
%TO.N,/_RPI_USB_N*%
X116690019Y-79100963D02*
X117320019Y-79730963D01*
X109769981Y-80720963D02*
X111389981Y-79100963D01*
X111389981Y-79100963D02*
X116690019Y-79100963D01*
X124974037Y-79285963D02*
X125310000Y-78950000D01*
X123449981Y-79730963D02*
X123894981Y-79285963D01*
X108650000Y-79620000D02*
X109750963Y-80720963D01*
X123894981Y-79285963D02*
X124974037Y-79285963D01*
X109750963Y-80720963D02*
X109769981Y-80720963D01*
X117320019Y-79730963D02*
X123449981Y-79730963D01*
D62*
%TO.N,/esp32_wifi_section/LNA_IN*%
X169575000Y-81225000D02*
X169525000Y-81275000D01*
X169635355Y-81200000D02*
X170545000Y-81200000D01*
X169525000Y-81275000D02*
X169425000Y-81375000D01*
X169123223Y-81500000D02*
X168050000Y-81500000D01*
X169425000Y-81375000D02*
G75*
G02*
X169123223Y-81500010I-301800J301800D01*
G01*
X169635355Y-81200000D02*
G75*
G03*
X169575013Y-81225013I45J-85400D01*
G01*
D54*
%TO.N,Net-(U5-U0RXD)*%
X164850000Y-82200000D02*
X164850000Y-83100000D01*
X164400000Y-83550000D02*
X162450000Y-83550000D01*
X162450000Y-83550000D02*
X161950000Y-84050000D01*
X164850000Y-83100000D02*
X164400000Y-83550000D01*
X161950000Y-84050000D02*
X160950000Y-84050000D01*
%TO.N,LED_1_C*%
X129850000Y-77462500D02*
X129850000Y-78104348D01*
X129850000Y-78104348D02*
X129869818Y-78124166D01*
%TO.N,LED_1_D*%
X129748119Y-76676145D02*
X129450000Y-76974264D01*
X129450000Y-76974264D02*
X129450000Y-77462500D01*
%TO.N,LED_2_C*%
X131450000Y-77462500D02*
X131450000Y-76850000D01*
X131450000Y-76850000D02*
X132000000Y-76300000D01*
%TO.N,LED_2_D*%
X131050000Y-77462500D02*
X131050000Y-76477634D01*
X131050000Y-76477634D02*
X131196601Y-76331033D01*
%TO.N,LED_4_C*%
X134341402Y-85841402D02*
X134980000Y-85841402D01*
X133450000Y-84950000D02*
X134341402Y-85841402D01*
X133450000Y-84337500D02*
X133450000Y-84950000D01*
%TO.N,LED_4_D*%
X133850000Y-84910000D02*
X134140000Y-85200000D01*
X134140000Y-85200000D02*
X135060000Y-85200000D01*
X133850000Y-84337500D02*
X133850000Y-84910000D01*
%TO.N,LED_3_D*%
X129850000Y-84337500D02*
X129850000Y-85210000D01*
X129850000Y-85210000D02*
X129725002Y-85334998D01*
%TO.N,LED_3_C*%
X129450000Y-83642037D02*
X129241800Y-83433837D01*
X129450000Y-84337500D02*
X129450000Y-83642037D01*
%TD*%
%TA.AperFunction,Conductor*%
%TO.N,+3.3V*%
G36*
X145043039Y-76419685D02*
G01*
X145088794Y-76472489D01*
X145100000Y-76524000D01*
X145100000Y-82200000D01*
X146276000Y-82200000D01*
X146343039Y-82219685D01*
X146388794Y-82272489D01*
X146400000Y-82324000D01*
X146400000Y-84976000D01*
X146380315Y-85043039D01*
X146327511Y-85088794D01*
X146276000Y-85100000D01*
X142374000Y-85100000D01*
X142306961Y-85080315D01*
X142261206Y-85027511D01*
X142250000Y-84976000D01*
X142250000Y-82324000D01*
X142269685Y-82256961D01*
X142322489Y-82211206D01*
X142374000Y-82200000D01*
X143400000Y-82200000D01*
X143400000Y-76524000D01*
X143419685Y-76456961D01*
X143472489Y-76411206D01*
X143524000Y-76400000D01*
X144976000Y-76400000D01*
X145043039Y-76419685D01*
G37*
%TD.AperFunction*%
%TD*%
%TA.AperFunction,Conductor*%
%TO.N,GND*%
G36*
X110703659Y-75847185D02*
G01*
X110749414Y-75899989D01*
X110760620Y-75951500D01*
X110760620Y-76554629D01*
X111550662Y-76554629D01*
X111550662Y-75951500D01*
X111570347Y-75884461D01*
X111623151Y-75838706D01*
X111674662Y-75827500D01*
X114446989Y-75827500D01*
X114514028Y-75847185D01*
X114559783Y-75899989D01*
X114569727Y-75969147D01*
X114540702Y-76032703D01*
X114504205Y-76059021D01*
X114504423Y-76059348D01*
X114495291Y-76065449D01*
X114494445Y-76066060D01*
X114494268Y-76066133D01*
X114427947Y-76110447D01*
X114383632Y-76176769D01*
X114383631Y-76176770D01*
X114372000Y-76235247D01*
X114372000Y-76235252D01*
X114372000Y-77004748D01*
X114376048Y-77025100D01*
X114382560Y-77057838D01*
X114376332Y-77127429D01*
X114333468Y-77182606D01*
X114322944Y-77189414D01*
X114255104Y-77228583D01*
X114255098Y-77228587D01*
X113782348Y-77701337D01*
X113721025Y-77734822D01*
X113718860Y-77735273D01*
X113664269Y-77746132D01*
X113597947Y-77790447D01*
X113553632Y-77856769D01*
X113553631Y-77856770D01*
X113542000Y-77915247D01*
X113542000Y-78670926D01*
X113522315Y-78737965D01*
X113469511Y-78783720D01*
X113418000Y-78794926D01*
X111776858Y-78794926D01*
X111709819Y-78775241D01*
X111664064Y-78722437D01*
X111654120Y-78653279D01*
X111678480Y-78595442D01*
X111749536Y-78502841D01*
X111810044Y-78356762D01*
X111827457Y-78224500D01*
X111830682Y-78200001D01*
X111830682Y-78199998D01*
X111814518Y-78077225D01*
X111810044Y-78043238D01*
X111749536Y-77897159D01*
X111653282Y-77771718D01*
X111527841Y-77675464D01*
X111520685Y-77672500D01*
X111381762Y-77614956D01*
X111381760Y-77614955D01*
X111225001Y-77594318D01*
X111224999Y-77594318D01*
X111068239Y-77614955D01*
X111068237Y-77614956D01*
X110922160Y-77675463D01*
X110796718Y-77771718D01*
X110700463Y-77897160D01*
X110639956Y-78043237D01*
X110639955Y-78043239D01*
X110619318Y-78199998D01*
X110619318Y-78200001D01*
X110639955Y-78356760D01*
X110639956Y-78356762D01*
X110692194Y-78482877D01*
X110700464Y-78502841D01*
X110796718Y-78628282D01*
X110922159Y-78724536D01*
X111034241Y-78770961D01*
X111041643Y-78774028D01*
X111096046Y-78817869D01*
X111118111Y-78884163D01*
X111100832Y-78951863D01*
X111081871Y-78976270D01*
X110162180Y-79895961D01*
X110100857Y-79929446D01*
X110031165Y-79924462D01*
X109975232Y-79882590D01*
X109950815Y-79817126D01*
X109950499Y-79808280D01*
X109950499Y-79077129D01*
X109950498Y-79077123D01*
X109950497Y-79077116D01*
X109944091Y-79017517D01*
X109940121Y-79006874D01*
X109893797Y-78882671D01*
X109893793Y-78882664D01*
X109807547Y-78767455D01*
X109807544Y-78767452D01*
X109692335Y-78681206D01*
X109692328Y-78681202D01*
X109557482Y-78630908D01*
X109557483Y-78630908D01*
X109497883Y-78624501D01*
X109497881Y-78624500D01*
X109497873Y-78624500D01*
X109497864Y-78624500D01*
X107802129Y-78624500D01*
X107802123Y-78624501D01*
X107742516Y-78630908D01*
X107607671Y-78681202D01*
X107607664Y-78681206D01*
X107492455Y-78767452D01*
X107492452Y-78767455D01*
X107406206Y-78882664D01*
X107406202Y-78882671D01*
X107355908Y-79017517D01*
X107351071Y-79062513D01*
X107349501Y-79077123D01*
X107349500Y-79077135D01*
X107349500Y-80272870D01*
X107349501Y-80272876D01*
X107355908Y-80332483D01*
X107406202Y-80467328D01*
X107406206Y-80467335D01*
X107492452Y-80582544D01*
X107492455Y-80582547D01*
X107607664Y-80668793D01*
X107607671Y-80668797D01*
X107742517Y-80719091D01*
X107742516Y-80719091D01*
X107749444Y-80719835D01*
X107802127Y-80725500D01*
X109271335Y-80725499D01*
X109338374Y-80745184D01*
X109359016Y-80761818D01*
X109399516Y-80802318D01*
X109433001Y-80863641D01*
X109428017Y-80933333D01*
X109399517Y-80977680D01*
X109345341Y-81031856D01*
X109249015Y-81128182D01*
X109187693Y-81161666D01*
X109161335Y-81164500D01*
X107802129Y-81164500D01*
X107802123Y-81164501D01*
X107742516Y-81170908D01*
X107607671Y-81221202D01*
X107607664Y-81221206D01*
X107492455Y-81307452D01*
X107492452Y-81307455D01*
X107406206Y-81422664D01*
X107406202Y-81422671D01*
X107355908Y-81557517D01*
X107349945Y-81612989D01*
X107349501Y-81617123D01*
X107349500Y-81617135D01*
X107349500Y-82812870D01*
X107349501Y-82812876D01*
X107355908Y-82872483D01*
X107406202Y-83007328D01*
X107406206Y-83007335D01*
X107492452Y-83122544D01*
X107492455Y-83122547D01*
X107607664Y-83208793D01*
X107607671Y-83208797D01*
X107742517Y-83259091D01*
X107742516Y-83259091D01*
X107745642Y-83259427D01*
X107802127Y-83265500D01*
X109256613Y-83265499D01*
X109323652Y-83285184D01*
X109369407Y-83337987D01*
X109379351Y-83407146D01*
X109350326Y-83470702D01*
X109344294Y-83477180D01*
X109153294Y-83668181D01*
X109091971Y-83701666D01*
X109065613Y-83704500D01*
X107530247Y-83704500D01*
X107471770Y-83716131D01*
X107471769Y-83716132D01*
X107405447Y-83760447D01*
X107361132Y-83826769D01*
X107361131Y-83826770D01*
X107349500Y-83885247D01*
X107349500Y-85624752D01*
X107361131Y-85683229D01*
X107361132Y-85683230D01*
X107405447Y-85749552D01*
X107471769Y-85793867D01*
X107471770Y-85793868D01*
X107530247Y-85805499D01*
X107530250Y-85805500D01*
X107530252Y-85805500D01*
X109769750Y-85805500D01*
X109769751Y-85805499D01*
X109784568Y-85802552D01*
X109828229Y-85793868D01*
X109828229Y-85793867D01*
X109828231Y-85793867D01*
X109894552Y-85749552D01*
X109938867Y-85683231D01*
X109938867Y-85683229D01*
X109938868Y-85683229D01*
X109950499Y-85624752D01*
X109950500Y-85624750D01*
X109950500Y-84479387D01*
X109970185Y-84412348D01*
X109986819Y-84391706D01*
X110991706Y-83386819D01*
X111053029Y-83353334D01*
X111079387Y-83350500D01*
X112985141Y-83350500D01*
X113032593Y-83359938D01*
X113093202Y-83385044D01*
X113157561Y-83393517D01*
X113249963Y-83405682D01*
X113249964Y-83405682D01*
X113249965Y-83405682D01*
X113309226Y-83397880D01*
X113406726Y-83385044D01*
X113552805Y-83324536D01*
X113678246Y-83228282D01*
X113774500Y-83102841D01*
X113835008Y-82956762D01*
X113855646Y-82800000D01*
X113855107Y-82795909D01*
X113835008Y-82643239D01*
X113835008Y-82643238D01*
X113774500Y-82497159D01*
X113678246Y-82371718D01*
X113552805Y-82275464D01*
X113551863Y-82275074D01*
X113406726Y-82214956D01*
X113406724Y-82214955D01*
X113249965Y-82194318D01*
X113249963Y-82194318D01*
X113093203Y-82214955D01*
X113093201Y-82214956D01*
X113032594Y-82240061D01*
X112985141Y-82249500D01*
X110727525Y-82249500D01*
X110605902Y-82282089D01*
X110605901Y-82282088D01*
X110587517Y-82287015D01*
X110587514Y-82287016D01*
X110461987Y-82359488D01*
X110162180Y-82659294D01*
X110100857Y-82692778D01*
X110031165Y-82687794D01*
X109975232Y-82645922D01*
X109950815Y-82580458D01*
X109950499Y-82571634D01*
X109950499Y-81617128D01*
X109944091Y-81557517D01*
X109927067Y-81511875D01*
X109922084Y-81442187D01*
X109955568Y-81380863D01*
X110011154Y-81348770D01*
X110028145Y-81344218D01*
X110097930Y-81303928D01*
X111620465Y-79781393D01*
X111681788Y-79747908D01*
X111708146Y-79745074D01*
X116371854Y-79745074D01*
X116438893Y-79764759D01*
X116459535Y-79781393D01*
X116889762Y-80211619D01*
X116923247Y-80272942D01*
X116918263Y-80342633D01*
X116876392Y-80398567D01*
X116810927Y-80422984D01*
X116802081Y-80423300D01*
X116110257Y-80423300D01*
X116094070Y-80422239D01*
X116086696Y-80421268D01*
X115783304Y-80421268D01*
X115783302Y-80421268D01*
X115756592Y-80428425D01*
X115686742Y-80426761D01*
X115628880Y-80387598D01*
X115601377Y-80323369D01*
X115600500Y-80308650D01*
X115600500Y-80230249D01*
X115600499Y-80230247D01*
X115588868Y-80171770D01*
X115588867Y-80171769D01*
X115544552Y-80105447D01*
X115478230Y-80061132D01*
X115478229Y-80061131D01*
X115419752Y-80049500D01*
X115419748Y-80049500D01*
X114480252Y-80049500D01*
X114480247Y-80049500D01*
X114421770Y-80061131D01*
X114421769Y-80061132D01*
X114355447Y-80105447D01*
X114311132Y-80171769D01*
X114311131Y-80171770D01*
X114299500Y-80230247D01*
X114299500Y-81969752D01*
X114311131Y-82028229D01*
X114311132Y-82028230D01*
X114355447Y-82094552D01*
X114421769Y-82138867D01*
X114421770Y-82138868D01*
X114480247Y-82150499D01*
X114480250Y-82150500D01*
X115397268Y-82150500D01*
X115464307Y-82170185D01*
X115510062Y-82222989D01*
X115521268Y-82274500D01*
X115521268Y-83325500D01*
X115501583Y-83392539D01*
X115448779Y-83438294D01*
X115397268Y-83449500D01*
X114480247Y-83449500D01*
X114421770Y-83461131D01*
X114421769Y-83461132D01*
X114355447Y-83505447D01*
X114311132Y-83571769D01*
X114311131Y-83571770D01*
X114299500Y-83630247D01*
X114299500Y-85369752D01*
X114311131Y-85428229D01*
X114311132Y-85428230D01*
X114355447Y-85494552D01*
X114421769Y-85538867D01*
X114421770Y-85538868D01*
X114480247Y-85550499D01*
X114480250Y-85550500D01*
X114480252Y-85550500D01*
X115419750Y-85550500D01*
X115419751Y-85550499D01*
X115434568Y-85547552D01*
X115478229Y-85538868D01*
X115478229Y-85538867D01*
X115478231Y-85538867D01*
X115544552Y-85494552D01*
X115588867Y-85428231D01*
X115588867Y-85428229D01*
X115588868Y-85428229D01*
X115600499Y-85369752D01*
X115600500Y-85369750D01*
X115600500Y-84295048D01*
X115620185Y-84228009D01*
X115636819Y-84207367D01*
X115794186Y-84050000D01*
X116023042Y-83821145D01*
X116059737Y-83757587D01*
X116078732Y-83686696D01*
X116078732Y-83613304D01*
X116078732Y-81716816D01*
X116098417Y-81649777D01*
X116115051Y-81629135D01*
X116369136Y-81375051D01*
X116430459Y-81341566D01*
X116456817Y-81338732D01*
X117355500Y-81338732D01*
X117422539Y-81358417D01*
X117468294Y-81411221D01*
X117479500Y-81462732D01*
X117479500Y-81814316D01*
X117485931Y-81863171D01*
X117535935Y-81970404D01*
X117627267Y-82061736D01*
X117624443Y-82064559D01*
X117655183Y-82103042D01*
X117662352Y-82172542D01*
X117630808Y-82234886D01*
X117627101Y-82238098D01*
X117627267Y-82238264D01*
X117557681Y-82307850D01*
X117496358Y-82341335D01*
X117426666Y-82336351D01*
X117382319Y-82307850D01*
X117330404Y-82255935D01*
X117308959Y-82245935D01*
X117223173Y-82205932D01*
X117223171Y-82205931D01*
X117223172Y-82205931D01*
X117174317Y-82199500D01*
X117174316Y-82199500D01*
X116725684Y-82199500D01*
X116725683Y-82199500D01*
X116676828Y-82205931D01*
X116569595Y-82255935D01*
X116485935Y-82339595D01*
X116435931Y-82446828D01*
X116429500Y-82495683D01*
X116429500Y-82844316D01*
X116435931Y-82893171D01*
X116459251Y-82943181D01*
X116485935Y-83000404D01*
X116569596Y-83084065D01*
X116676827Y-83134068D01*
X116725683Y-83140500D01*
X116725684Y-83140500D01*
X116740043Y-83140500D01*
X116807082Y-83160185D01*
X116847428Y-83202496D01*
X116876959Y-83253645D01*
X117009823Y-83386509D01*
X117043307Y-83447830D01*
X117040559Y-83502781D01*
X117041575Y-83502942D01*
X117040079Y-83512381D01*
X117040074Y-83512500D01*
X117040048Y-83512577D01*
X117024500Y-83610748D01*
X117024500Y-84114251D01*
X117040047Y-84212417D01*
X117047992Y-84228009D01*
X117100342Y-84330751D01*
X117100344Y-84330753D01*
X117100346Y-84330756D01*
X117194243Y-84424653D01*
X117194245Y-84424654D01*
X117194249Y-84424658D01*
X117312580Y-84484951D01*
X117312581Y-84484951D01*
X117312583Y-84484952D01*
X117312582Y-84484952D01*
X117410749Y-84500500D01*
X117410754Y-84500500D01*
X117989251Y-84500500D01*
X118087417Y-84484952D01*
X118087418Y-84484951D01*
X118087420Y-84484951D01*
X118205751Y-84424658D01*
X118299658Y-84330751D01*
X118359951Y-84212420D01*
X118359951Y-84212418D01*
X118359952Y-84212417D01*
X118375500Y-84114251D01*
X118375500Y-83610748D01*
X118359952Y-83512582D01*
X118356317Y-83505448D01*
X118299658Y-83394249D01*
X118299654Y-83394245D01*
X118299653Y-83394243D01*
X118232198Y-83326788D01*
X118198713Y-83265465D01*
X118203697Y-83195773D01*
X118245569Y-83139840D01*
X118267474Y-83126725D01*
X118273171Y-83124068D01*
X118273173Y-83124068D01*
X118380404Y-83074065D01*
X118464065Y-82990404D01*
X118464066Y-82990399D01*
X118470223Y-82981609D01*
X118524800Y-82937984D01*
X118571798Y-82928732D01*
X119342268Y-82928732D01*
X119409307Y-82948417D01*
X119455062Y-83001221D01*
X119466268Y-83052732D01*
X119466268Y-83134312D01*
X119446583Y-83201351D01*
X119393779Y-83247106D01*
X119360150Y-83257016D01*
X119343607Y-83259426D01*
X119238514Y-83310803D01*
X119155803Y-83393514D01*
X119104426Y-83498608D01*
X119094500Y-83566739D01*
X119094500Y-84933260D01*
X119104426Y-85001391D01*
X119155803Y-85106485D01*
X119238514Y-85189196D01*
X119238515Y-85189196D01*
X119238517Y-85189198D01*
X119343607Y-85240573D01*
X119349512Y-85241433D01*
X119360146Y-85242983D01*
X119423647Y-85272127D01*
X119461311Y-85330976D01*
X119466268Y-85365687D01*
X119466268Y-85411696D01*
X119477395Y-85453224D01*
X119477569Y-85453871D01*
X119475906Y-85523721D01*
X119436743Y-85581583D01*
X119372515Y-85609087D01*
X119357794Y-85609964D01*
X118508172Y-85609964D01*
X118467886Y-85601951D01*
X118467786Y-85602326D01*
X118467255Y-85602183D01*
X118466388Y-85601653D01*
X118460721Y-85600526D01*
X118460089Y-85600264D01*
X118460087Y-85600263D01*
X118460084Y-85600262D01*
X118452580Y-85597154D01*
X118453882Y-85594008D01*
X118407641Y-85565743D01*
X118377191Y-85502857D01*
X118375500Y-85482449D01*
X118375500Y-85185748D01*
X118359952Y-85087582D01*
X118351602Y-85071195D01*
X118299658Y-84969249D01*
X118299654Y-84969245D01*
X118299653Y-84969243D01*
X118205756Y-84875346D01*
X118205753Y-84875344D01*
X118205751Y-84875342D01*
X118087420Y-84815049D01*
X118087419Y-84815048D01*
X118087416Y-84815047D01*
X118087417Y-84815047D01*
X117989251Y-84799500D01*
X117989246Y-84799500D01*
X117410754Y-84799500D01*
X117410749Y-84799500D01*
X117312582Y-84815047D01*
X117241096Y-84851472D01*
X117194249Y-84875342D01*
X117194248Y-84875343D01*
X117194243Y-84875346D01*
X117100346Y-84969243D01*
X117100343Y-84969248D01*
X117100342Y-84969249D01*
X117083965Y-85001391D01*
X117040047Y-85087582D01*
X117024500Y-85185748D01*
X117024500Y-85689251D01*
X117040047Y-85787417D01*
X117040048Y-85787419D01*
X117049261Y-85805500D01*
X117093440Y-85892205D01*
X117106337Y-85960873D01*
X117080061Y-86025614D01*
X117022955Y-86065872D01*
X116982956Y-86072500D01*
X106501500Y-86072500D01*
X106434461Y-86052815D01*
X106388706Y-86000011D01*
X106377500Y-85948500D01*
X106377500Y-77410301D01*
X112380000Y-77410301D01*
X112380000Y-77509699D01*
X112405726Y-77605709D01*
X112455425Y-77691790D01*
X112525710Y-77762075D01*
X112611791Y-77811774D01*
X112707801Y-77837500D01*
X112707804Y-77837500D01*
X112807196Y-77837500D01*
X112807199Y-77837500D01*
X112903209Y-77811774D01*
X112989290Y-77762075D01*
X113059575Y-77691790D01*
X113109274Y-77605709D01*
X113135000Y-77509699D01*
X113135000Y-77410301D01*
X113109274Y-77314291D01*
X113059575Y-77228210D01*
X112989290Y-77157925D01*
X112903209Y-77108226D01*
X112807199Y-77082500D01*
X112707801Y-77082500D01*
X112611791Y-77108226D01*
X112611789Y-77108226D01*
X112611789Y-77108227D01*
X112525710Y-77157925D01*
X112525707Y-77157927D01*
X112455427Y-77228207D01*
X112455425Y-77228210D01*
X112415617Y-77297160D01*
X112405726Y-77314291D01*
X112380000Y-77410301D01*
X106377500Y-77410301D01*
X106377500Y-75951500D01*
X106397185Y-75884461D01*
X106449989Y-75838706D01*
X106501500Y-75827500D01*
X110636620Y-75827500D01*
X110703659Y-75847185D01*
G37*
%TD.AperFunction*%
%TA.AperFunction,Conductor*%
G36*
X132097461Y-84958977D02*
G01*
X132102256Y-84960963D01*
X132102260Y-84960966D01*
X132102264Y-84960966D01*
X132102267Y-84960968D01*
X132175321Y-84975499D01*
X132175324Y-84975500D01*
X132247268Y-84975500D01*
X132314307Y-84995185D01*
X132360062Y-85047989D01*
X132371268Y-85099500D01*
X132371268Y-85280339D01*
X132359652Y-85332741D01*
X132356027Y-85340513D01*
X132349500Y-85390098D01*
X132349500Y-85809894D01*
X132355863Y-85858231D01*
X132356028Y-85859487D01*
X132373099Y-85896096D01*
X132383591Y-85965171D01*
X132355072Y-86028956D01*
X132296596Y-86067196D01*
X132260717Y-86072500D01*
X130439489Y-86072500D01*
X130372450Y-86052815D01*
X130326695Y-86000011D01*
X130316751Y-85930853D01*
X130345776Y-85867297D01*
X130351808Y-85860819D01*
X130473040Y-85739586D01*
X130483001Y-85722335D01*
X130509737Y-85676027D01*
X130528732Y-85605136D01*
X130528732Y-85531744D01*
X130528732Y-85099500D01*
X130548417Y-85032461D01*
X130601221Y-84986706D01*
X130652732Y-84975500D01*
X130724676Y-84975500D01*
X130724677Y-84975499D01*
X130749029Y-84970655D01*
X130797732Y-84960968D01*
X130797733Y-84960967D01*
X130797740Y-84960966D01*
X130797745Y-84960962D01*
X130802539Y-84958977D01*
X130872008Y-84951504D01*
X130897461Y-84958977D01*
X130902256Y-84960963D01*
X130902260Y-84960966D01*
X130902264Y-84960966D01*
X130902267Y-84960968D01*
X130975321Y-84975499D01*
X130975324Y-84975500D01*
X130975326Y-84975500D01*
X131124676Y-84975500D01*
X131124677Y-84975499D01*
X131149029Y-84970655D01*
X131197732Y-84960968D01*
X131197733Y-84960967D01*
X131197740Y-84960966D01*
X131197745Y-84960962D01*
X131202539Y-84958977D01*
X131272008Y-84951504D01*
X131297461Y-84958977D01*
X131302256Y-84960963D01*
X131302260Y-84960966D01*
X131302264Y-84960966D01*
X131302267Y-84960968D01*
X131375321Y-84975499D01*
X131375324Y-84975500D01*
X131375326Y-84975500D01*
X131524676Y-84975500D01*
X131524677Y-84975499D01*
X131549029Y-84970655D01*
X131597732Y-84960968D01*
X131597733Y-84960967D01*
X131597740Y-84960966D01*
X131597745Y-84960962D01*
X131602539Y-84958977D01*
X131672008Y-84951504D01*
X131697461Y-84958977D01*
X131702256Y-84960963D01*
X131702260Y-84960966D01*
X131702264Y-84960966D01*
X131702267Y-84960968D01*
X131775321Y-84975499D01*
X131775324Y-84975500D01*
X131775326Y-84975500D01*
X131924676Y-84975500D01*
X131924677Y-84975499D01*
X131949029Y-84970655D01*
X131997732Y-84960968D01*
X131997733Y-84960967D01*
X131997740Y-84960966D01*
X131997745Y-84960962D01*
X132002539Y-84958977D01*
X132072008Y-84951504D01*
X132097461Y-84958977D01*
G37*
%TD.AperFunction*%
%TA.AperFunction,Conductor*%
G36*
X152628863Y-75847185D02*
G01*
X152674618Y-75899989D01*
X152684562Y-75969147D01*
X152655537Y-76032703D01*
X152649505Y-76039181D01*
X152300506Y-76388181D01*
X152239183Y-76421666D01*
X152212825Y-76424500D01*
X151630247Y-76424500D01*
X151571770Y-76436131D01*
X151571769Y-76436132D01*
X151505447Y-76480447D01*
X151461132Y-76546769D01*
X151461131Y-76546770D01*
X151449500Y-76605247D01*
X151449500Y-78344752D01*
X151461131Y-78403229D01*
X151461132Y-78403230D01*
X151505447Y-78469552D01*
X151571769Y-78513867D01*
X151571770Y-78513868D01*
X151630247Y-78525499D01*
X151630250Y-78525500D01*
X151630252Y-78525500D01*
X151712000Y-78525500D01*
X151779039Y-78545185D01*
X151824794Y-78597989D01*
X151836000Y-78649500D01*
X151836000Y-78793196D01*
X151819704Y-78848692D01*
X151820866Y-78849174D01*
X151816389Y-78859980D01*
X151816315Y-78860235D01*
X151816231Y-78860362D01*
X151816192Y-78860455D01*
X151816192Y-78860456D01*
X151815264Y-78862697D01*
X151776412Y-78956493D01*
X151776000Y-78957487D01*
X151776000Y-79062513D01*
X151816192Y-79159544D01*
X152900456Y-80243809D01*
X152964014Y-80270135D01*
X152997487Y-80284000D01*
X152997488Y-80284000D01*
X153102513Y-80284000D01*
X156759136Y-80284000D01*
X156826175Y-80303685D01*
X156871517Y-80355594D01*
X156880882Y-80375677D01*
X156886776Y-80388316D01*
X156924314Y-80425854D01*
X156957799Y-80487177D01*
X156952815Y-80556869D01*
X156924315Y-80601215D01*
X156875935Y-80649595D01*
X156825931Y-80756828D01*
X156819500Y-80805683D01*
X156819500Y-81200926D01*
X156799815Y-81267965D01*
X156747011Y-81313720D01*
X156695500Y-81324926D01*
X154290272Y-81324926D01*
X154209690Y-81324926D01*
X154158166Y-81338732D01*
X154131854Y-81345782D01*
X154062071Y-81386071D01*
X154062068Y-81386073D01*
X153176073Y-82272068D01*
X153176071Y-82272071D01*
X153135782Y-82341854D01*
X153135782Y-82341855D01*
X153114926Y-82419690D01*
X153114926Y-82419692D01*
X153114926Y-82795909D01*
X153095241Y-82862948D01*
X153078607Y-82883590D01*
X152619015Y-83343181D01*
X152557692Y-83376666D01*
X152531334Y-83379500D01*
X151942129Y-83379500D01*
X151942123Y-83379501D01*
X151882516Y-83385908D01*
X151747671Y-83436202D01*
X151747664Y-83436206D01*
X151632455Y-83522452D01*
X151632452Y-83522455D01*
X151546206Y-83637664D01*
X151546202Y-83637671D01*
X151495908Y-83772517D01*
X151490076Y-83826769D01*
X151489501Y-83832123D01*
X151489500Y-83832135D01*
X151489500Y-85527870D01*
X151489501Y-85527876D01*
X151495908Y-85587483D01*
X151546202Y-85722328D01*
X151546206Y-85722335D01*
X151632452Y-85837544D01*
X151632453Y-85837545D01*
X151648066Y-85849233D01*
X151689938Y-85905166D01*
X151694922Y-85974858D01*
X151661437Y-86036181D01*
X151600114Y-86069666D01*
X151573756Y-86072500D01*
X135519387Y-86072500D01*
X135452348Y-86052815D01*
X135406593Y-86000011D01*
X135396649Y-85930853D01*
X135396914Y-85929102D01*
X135410804Y-85841404D01*
X135410804Y-85841399D01*
X135389720Y-85708280D01*
X135389719Y-85708278D01*
X135389719Y-85708276D01*
X135350875Y-85632041D01*
X135337980Y-85563375D01*
X135364256Y-85498634D01*
X135373681Y-85488067D01*
X135408524Y-85453224D01*
X135408528Y-85453220D01*
X135469719Y-85333126D01*
X135473372Y-85310062D01*
X135490804Y-85200002D01*
X135490804Y-85199997D01*
X135469720Y-85066878D01*
X135469719Y-85066876D01*
X135469719Y-85066874D01*
X135408528Y-84946780D01*
X135408526Y-84946778D01*
X135408523Y-84946774D01*
X135313225Y-84851476D01*
X135313221Y-84851473D01*
X135313220Y-84851472D01*
X135193126Y-84790281D01*
X135193124Y-84790280D01*
X135193121Y-84790279D01*
X135060002Y-84769196D01*
X135059998Y-84769196D01*
X134926878Y-84790279D01*
X134806778Y-84851473D01*
X134806775Y-84851475D01*
X134771272Y-84886980D01*
X134709950Y-84920466D01*
X134683590Y-84923300D01*
X134667058Y-84923300D01*
X134600019Y-84903615D01*
X134554264Y-84850811D01*
X134544320Y-84781653D01*
X134545441Y-84775107D01*
X134550500Y-84749675D01*
X134550500Y-83924500D01*
X134570185Y-83857461D01*
X134622989Y-83811706D01*
X134674500Y-83800500D01*
X135499676Y-83800500D01*
X135499677Y-83800499D01*
X135572740Y-83785966D01*
X135655601Y-83730601D01*
X135710966Y-83647740D01*
X135725500Y-83574674D01*
X135725500Y-83425326D01*
X135725500Y-83425323D01*
X135725499Y-83425321D01*
X135710968Y-83352267D01*
X135710966Y-83352264D01*
X135710966Y-83352260D01*
X135710963Y-83352256D01*
X135708977Y-83347461D01*
X135701504Y-83277992D01*
X135708977Y-83252539D01*
X135710962Y-83247745D01*
X135710966Y-83247740D01*
X135711093Y-83247106D01*
X135721816Y-83193195D01*
X135725500Y-83174674D01*
X135725500Y-83025326D01*
X135725500Y-83025323D01*
X135725499Y-83025321D01*
X135710968Y-82952267D01*
X135710966Y-82952264D01*
X135710966Y-82952260D01*
X135710963Y-82952256D01*
X135708977Y-82947461D01*
X135701504Y-82877992D01*
X135708977Y-82852539D01*
X135710962Y-82847745D01*
X135710966Y-82847740D01*
X135713637Y-82834316D01*
X135721437Y-82795100D01*
X135725500Y-82774674D01*
X135725500Y-82774666D01*
X135725897Y-82770645D01*
X135752056Y-82705857D01*
X135809089Y-82665497D01*
X135878889Y-82662378D01*
X135939295Y-82697491D01*
X135971128Y-82759688D01*
X135973300Y-82782796D01*
X135973300Y-82936433D01*
X135992155Y-83006803D01*
X135992155Y-83006804D01*
X136028581Y-83069892D01*
X136028587Y-83069901D01*
X136343181Y-83384494D01*
X136376666Y-83445817D01*
X136379500Y-83472175D01*
X136379500Y-84399752D01*
X136391131Y-84458229D01*
X136396908Y-84466874D01*
X136402400Y-84475093D01*
X136423280Y-84541769D01*
X136423300Y-84543986D01*
X136423300Y-84689081D01*
X136403615Y-84756120D01*
X136370428Y-84790653D01*
X136361683Y-84796776D01*
X136276776Y-84881683D01*
X136226027Y-84990514D01*
X136219500Y-85040098D01*
X136219500Y-85459894D01*
X136219501Y-85459900D01*
X136226028Y-85509487D01*
X136226029Y-85509489D01*
X136226029Y-85509490D01*
X136265441Y-85594008D01*
X136276776Y-85618316D01*
X136361684Y-85703224D01*
X136470513Y-85753972D01*
X136520099Y-85760500D01*
X136879900Y-85760499D01*
X136929487Y-85753972D01*
X137038316Y-85703224D01*
X137123224Y-85618316D01*
X137173972Y-85509487D01*
X137180500Y-85459901D01*
X137180499Y-85040100D01*
X137173972Y-84990513D01*
X137123224Y-84881684D01*
X137038316Y-84796776D01*
X137033721Y-84792181D01*
X137000236Y-84730858D01*
X137005220Y-84661166D01*
X137047092Y-84605233D01*
X137112556Y-84580816D01*
X137121402Y-84580500D01*
X137999750Y-84580500D01*
X137999751Y-84580499D01*
X138014568Y-84577552D01*
X138058229Y-84568868D01*
X138058229Y-84568867D01*
X138058231Y-84568867D01*
X138124552Y-84524552D01*
X138168867Y-84458231D01*
X138168867Y-84458229D01*
X138168868Y-84458229D01*
X138180499Y-84399752D01*
X138180500Y-84399750D01*
X138180500Y-83160249D01*
X138180499Y-83160247D01*
X138168868Y-83101770D01*
X138168867Y-83101769D01*
X138124552Y-83035447D01*
X138058230Y-82991132D01*
X138058229Y-82991131D01*
X137999752Y-82979500D01*
X137999748Y-82979500D01*
X136772175Y-82979500D01*
X136705136Y-82959815D01*
X136684494Y-82943181D01*
X136563019Y-82821706D01*
X136529534Y-82760383D01*
X136526700Y-82734025D01*
X136526700Y-81763572D01*
X136517839Y-81730500D01*
X136507844Y-81693197D01*
X136471415Y-81630102D01*
X136471414Y-81630101D01*
X136471412Y-81630098D01*
X136278994Y-81437681D01*
X136245509Y-81376358D01*
X136250493Y-81306667D01*
X136278994Y-81262319D01*
X136307059Y-81234254D01*
X136368382Y-81200769D01*
X136438074Y-81205753D01*
X136447144Y-81209553D01*
X136451082Y-81211389D01*
X136456827Y-81214068D01*
X136505683Y-81220500D01*
X136505684Y-81220500D01*
X136854317Y-81220500D01*
X136870601Y-81218356D01*
X136903173Y-81214068D01*
X137010404Y-81164065D01*
X137094065Y-81080404D01*
X137094065Y-81080403D01*
X137101736Y-81072733D01*
X137104564Y-81075561D01*
X137142977Y-81044843D01*
X137212474Y-81037635D01*
X137274835Y-81069143D01*
X137278093Y-81072903D01*
X137278264Y-81072733D01*
X137285935Y-81080404D01*
X137369596Y-81164065D01*
X137476827Y-81214068D01*
X137525683Y-81220500D01*
X137525684Y-81220500D01*
X137874317Y-81220500D01*
X137890601Y-81218356D01*
X137923173Y-81214068D01*
X138030404Y-81164065D01*
X138114065Y-81080404D01*
X138120253Y-81067133D01*
X138166423Y-81014694D01*
X138233616Y-80995541D01*
X138300498Y-81015755D01*
X138320316Y-81031856D01*
X138411684Y-81123224D01*
X138420424Y-81129344D01*
X138464049Y-81183921D01*
X138473300Y-81230918D01*
X138473300Y-81386433D01*
X138492155Y-81456803D01*
X138492155Y-81456804D01*
X138528581Y-81519892D01*
X138528586Y-81519900D01*
X138543179Y-81534492D01*
X138576666Y-81595814D01*
X138579500Y-81622175D01*
X138579500Y-82699752D01*
X138591131Y-82758229D01*
X138591132Y-82758230D01*
X138635447Y-82824552D01*
X138701769Y-82868867D01*
X138701770Y-82868868D01*
X138760247Y-82880499D01*
X138760250Y-82880500D01*
X138760252Y-82880500D01*
X140199750Y-82880500D01*
X140199751Y-82880499D01*
X140214568Y-82877552D01*
X140258229Y-82868868D01*
X140258229Y-82868867D01*
X140258231Y-82868867D01*
X140324552Y-82824552D01*
X140368867Y-82758231D01*
X140368867Y-82758229D01*
X140368868Y-82758229D01*
X140380499Y-82699752D01*
X140380500Y-82699750D01*
X140380500Y-82324001D01*
X142044500Y-82324001D01*
X142044500Y-84976007D01*
X142049197Y-85019686D01*
X142060397Y-85071174D01*
X142062342Y-85079133D01*
X142062890Y-85081373D01*
X142105900Y-85162085D01*
X142121095Y-85179621D01*
X142151660Y-85214895D01*
X142168896Y-85232486D01*
X142169246Y-85232843D01*
X142169247Y-85232844D01*
X142169249Y-85232845D01*
X142249059Y-85277488D01*
X142249063Y-85277490D01*
X142316102Y-85297175D01*
X142374000Y-85305500D01*
X142374004Y-85305500D01*
X146275991Y-85305500D01*
X146276000Y-85305500D01*
X146319684Y-85300803D01*
X146348875Y-85294452D01*
X146371174Y-85289602D01*
X146371190Y-85289598D01*
X146371195Y-85289597D01*
X146381373Y-85287110D01*
X146462085Y-85244100D01*
X146514889Y-85198345D01*
X146532843Y-85180754D01*
X146577490Y-85100937D01*
X146597175Y-85033898D01*
X146605500Y-84976000D01*
X146605500Y-84524993D01*
X147344196Y-84524993D01*
X147344196Y-84524998D01*
X147365279Y-84658117D01*
X147365280Y-84658120D01*
X147365281Y-84658122D01*
X147423491Y-84772365D01*
X147426473Y-84778217D01*
X147426476Y-84778221D01*
X147521774Y-84873519D01*
X147521778Y-84873522D01*
X147521780Y-84873524D01*
X147641874Y-84934715D01*
X147641876Y-84934715D01*
X147641878Y-84934716D01*
X147774998Y-84955800D01*
X147775000Y-84955800D01*
X147775002Y-84955800D01*
X147908121Y-84934716D01*
X147908121Y-84934715D01*
X147908126Y-84934715D01*
X147993364Y-84891283D01*
X148062033Y-84878388D01*
X148126773Y-84904665D01*
X148137339Y-84914088D01*
X148171774Y-84948523D01*
X148171778Y-84948526D01*
X148171780Y-84948528D01*
X148291874Y-85009719D01*
X148291876Y-85009719D01*
X148291878Y-85009720D01*
X148424998Y-85030804D01*
X148425000Y-85030804D01*
X148425002Y-85030804D01*
X148558121Y-85009720D01*
X148558121Y-85009719D01*
X148558126Y-85009719D01*
X148678220Y-84948528D01*
X148773528Y-84853220D01*
X148834719Y-84733126D01*
X148835078Y-84730858D01*
X148855804Y-84600002D01*
X148855804Y-84599997D01*
X148834720Y-84466878D01*
X148834719Y-84466876D01*
X148834719Y-84466874D01*
X148773528Y-84346780D01*
X148773526Y-84346778D01*
X148773523Y-84346774D01*
X148678225Y-84251476D01*
X148678221Y-84251473D01*
X148678220Y-84251472D01*
X148558126Y-84190281D01*
X148558124Y-84190280D01*
X148558121Y-84190279D01*
X148425002Y-84169196D01*
X148424998Y-84169196D01*
X148291876Y-84190279D01*
X148206635Y-84233712D01*
X148137966Y-84246608D01*
X148073226Y-84220331D01*
X148062659Y-84210907D01*
X148028224Y-84176471D01*
X148028221Y-84176469D01*
X148028220Y-84176468D01*
X147908126Y-84115277D01*
X147908124Y-84115276D01*
X147908121Y-84115275D01*
X147775002Y-84094192D01*
X147774998Y-84094192D01*
X147641878Y-84115275D01*
X147521778Y-84176469D01*
X147521774Y-84176472D01*
X147426476Y-84271770D01*
X147426473Y-84271774D01*
X147426472Y-84271776D01*
X147365975Y-84390509D01*
X147365279Y-84391874D01*
X147344196Y-84524993D01*
X146605500Y-84524993D01*
X146605500Y-82324000D01*
X146600803Y-82280316D01*
X146595499Y-82255935D01*
X146589602Y-82228825D01*
X146588746Y-82225323D01*
X146587110Y-82218627D01*
X146544100Y-82137915D01*
X146498345Y-82085111D01*
X146498339Y-82085104D01*
X146480757Y-82067160D01*
X146480756Y-82067159D01*
X146480754Y-82067157D01*
X146480752Y-82067156D01*
X146480750Y-82067154D01*
X146400940Y-82022511D01*
X146400935Y-82022509D01*
X146333903Y-82002826D01*
X146333899Y-82002825D01*
X146333898Y-82002825D01*
X146276000Y-81994500D01*
X146275996Y-81994500D01*
X145429500Y-81994500D01*
X145362461Y-81974815D01*
X145316706Y-81922011D01*
X145305500Y-81870500D01*
X145305500Y-81807200D01*
X145325185Y-81740161D01*
X145377989Y-81694406D01*
X145429500Y-81683200D01*
X147536270Y-81683200D01*
X147536271Y-81683200D01*
X147536271Y-81683199D01*
X147544328Y-81682139D01*
X147544548Y-81683811D01*
X147604694Y-81685237D01*
X147654631Y-81715672D01*
X147874448Y-81935489D01*
X147928646Y-81966780D01*
X147928647Y-81966781D01*
X147977170Y-81994796D01*
X147977171Y-81994797D01*
X147977173Y-81994797D01*
X147977176Y-81994799D01*
X148091753Y-82025500D01*
X148091756Y-82025500D01*
X148099604Y-82027603D01*
X148098912Y-82030184D01*
X148150767Y-82053123D01*
X148158366Y-82060115D01*
X148246774Y-82148523D01*
X148246778Y-82148526D01*
X148246780Y-82148528D01*
X148366874Y-82209719D01*
X148366876Y-82209719D01*
X148366878Y-82209720D01*
X148466507Y-82225500D01*
X148466512Y-82225500D01*
X149033493Y-82225500D01*
X149133121Y-82209720D01*
X149133121Y-82209719D01*
X149133126Y-82209719D01*
X149253220Y-82148528D01*
X149348528Y-82053220D01*
X149409719Y-81933126D01*
X149410968Y-81925241D01*
X149425500Y-81833493D01*
X149425500Y-81414016D01*
X149445185Y-81346977D01*
X149461815Y-81326339D01*
X149565261Y-81222893D01*
X149626583Y-81189409D01*
X149696275Y-81194393D01*
X149752208Y-81236265D01*
X149776625Y-81301729D01*
X149775416Y-81329964D01*
X149774500Y-81335750D01*
X149774500Y-81839251D01*
X149790047Y-81937417D01*
X149805008Y-81966779D01*
X149850342Y-82055751D01*
X149850344Y-82055753D01*
X149850346Y-82055756D01*
X149944243Y-82149653D01*
X149944245Y-82149654D01*
X149944249Y-82149658D01*
X150062580Y-82209951D01*
X150062581Y-82209951D01*
X150062583Y-82209952D01*
X150062582Y-82209952D01*
X150160749Y-82225500D01*
X150160754Y-82225500D01*
X150739251Y-82225500D01*
X150837417Y-82209952D01*
X150837418Y-82209951D01*
X150837420Y-82209951D01*
X150955751Y-82149658D01*
X151049658Y-82055751D01*
X151076625Y-82002825D01*
X151086878Y-81982704D01*
X151134852Y-81931909D01*
X151197362Y-81915000D01*
X151205500Y-81915000D01*
X151272539Y-81934685D01*
X151318294Y-81987489D01*
X151329500Y-82039000D01*
X151329500Y-82074316D01*
X151335931Y-82123171D01*
X151335932Y-82123173D01*
X151385935Y-82230404D01*
X151469596Y-82314065D01*
X151576827Y-82364068D01*
X151625683Y-82370500D01*
X151625684Y-82370500D01*
X152074317Y-82370500D01*
X152090601Y-82368356D01*
X152123173Y-82364068D01*
X152230404Y-82314065D01*
X152314065Y-82230404D01*
X152364068Y-82123173D01*
X152370500Y-82074316D01*
X152370500Y-81725684D01*
X152364068Y-81676827D01*
X152314065Y-81569596D01*
X152230404Y-81485935D01*
X152123173Y-81435932D01*
X152123171Y-81435931D01*
X152123172Y-81435931D01*
X152074317Y-81429500D01*
X152074316Y-81429500D01*
X151894017Y-81429500D01*
X151826978Y-81409815D01*
X151806336Y-81393181D01*
X151738591Y-81325436D01*
X151738590Y-81325435D01*
X151663910Y-81282319D01*
X151663911Y-81282319D01*
X151636145Y-81274879D01*
X151580616Y-81260000D01*
X151580614Y-81260000D01*
X151197362Y-81260000D01*
X151130323Y-81240315D01*
X151086878Y-81192296D01*
X151059137Y-81137853D01*
X151049658Y-81119249D01*
X151049655Y-81119246D01*
X151049653Y-81119243D01*
X150955756Y-81025346D01*
X150955753Y-81025344D01*
X150955751Y-81025342D01*
X150837420Y-80965049D01*
X150837419Y-80965048D01*
X150837416Y-80965047D01*
X150837417Y-80965047D01*
X150739251Y-80949500D01*
X150739246Y-80949500D01*
X150160754Y-80949500D01*
X150160748Y-80949500D01*
X150154961Y-80950416D01*
X150085669Y-80941455D01*
X150032221Y-80896454D01*
X150011586Y-80829701D01*
X150030317Y-80762389D01*
X150047889Y-80740264D01*
X150101336Y-80686817D01*
X150162659Y-80653334D01*
X150189016Y-80650500D01*
X150739251Y-80650500D01*
X150837417Y-80634952D01*
X150837418Y-80634951D01*
X150837420Y-80634951D01*
X150955751Y-80574658D01*
X151049658Y-80480751D01*
X151109951Y-80362420D01*
X151109951Y-80362418D01*
X151109952Y-80362417D01*
X151125500Y-80264251D01*
X151125500Y-79760748D01*
X151109952Y-79662582D01*
X151104399Y-79651683D01*
X151049658Y-79544249D01*
X151049654Y-79544245D01*
X151049653Y-79544243D01*
X150955756Y-79450346D01*
X150955753Y-79450344D01*
X150955751Y-79450342D01*
X150837420Y-79390049D01*
X150837419Y-79390048D01*
X150837416Y-79390047D01*
X150837417Y-79390047D01*
X150739251Y-79374500D01*
X150739246Y-79374500D01*
X150160754Y-79374500D01*
X150160749Y-79374500D01*
X150062582Y-79390047D01*
X149994130Y-79424926D01*
X149944249Y-79450342D01*
X149944248Y-79450343D01*
X149944243Y-79450346D01*
X149850346Y-79544243D01*
X149850343Y-79544248D01*
X149790047Y-79662582D01*
X149774500Y-79760748D01*
X149774500Y-80035983D01*
X149754815Y-80103022D01*
X149738181Y-80123664D01*
X148973664Y-80888181D01*
X148912341Y-80921666D01*
X148885983Y-80924500D01*
X148466507Y-80924500D01*
X148366876Y-80940279D01*
X148305757Y-80971421D01*
X148237087Y-80984317D01*
X148172347Y-80958040D01*
X148161782Y-80948617D01*
X147919478Y-80706313D01*
X147919476Y-80706311D01*
X147877784Y-80682240D01*
X147816747Y-80646999D01*
X147702172Y-80616301D01*
X147702171Y-80616301D01*
X147583553Y-80616301D01*
X147583551Y-80616301D01*
X147468976Y-80646999D01*
X147366248Y-80706311D01*
X147366245Y-80706313D01*
X147326678Y-80745881D01*
X147265355Y-80779366D01*
X147238997Y-80782200D01*
X145429500Y-80782200D01*
X145362461Y-80762515D01*
X145316706Y-80709711D01*
X145305500Y-80658200D01*
X145305500Y-76524008D01*
X145305499Y-76523992D01*
X145305416Y-76523220D01*
X145300803Y-76480316D01*
X145295147Y-76454316D01*
X145289602Y-76428825D01*
X145288160Y-76422925D01*
X145287110Y-76418627D01*
X145244100Y-76337915D01*
X145198345Y-76285111D01*
X145198339Y-76285104D01*
X145180757Y-76267160D01*
X145180756Y-76267159D01*
X145180754Y-76267157D01*
X145180752Y-76267156D01*
X145180750Y-76267154D01*
X145100940Y-76222511D01*
X145100935Y-76222509D01*
X145033903Y-76202826D01*
X145033899Y-76202825D01*
X145033898Y-76202825D01*
X144976000Y-76194500D01*
X143524000Y-76194500D01*
X143523992Y-76194500D01*
X143480313Y-76199197D01*
X143428825Y-76210397D01*
X143418627Y-76212890D01*
X143418624Y-76212891D01*
X143337916Y-76255899D01*
X143337913Y-76255901D01*
X143285104Y-76301660D01*
X143267160Y-76319242D01*
X143267154Y-76319249D01*
X143222511Y-76399059D01*
X143222509Y-76399064D01*
X143202826Y-76466096D01*
X143202825Y-76466101D01*
X143202825Y-76466102D01*
X143194502Y-76523992D01*
X143194500Y-76524003D01*
X143194500Y-81870500D01*
X143174815Y-81937539D01*
X143122011Y-81983294D01*
X143070500Y-81994500D01*
X142373992Y-81994500D01*
X142330313Y-81999197D01*
X142278825Y-82010397D01*
X142268627Y-82012890D01*
X142268624Y-82012891D01*
X142187916Y-82055899D01*
X142187913Y-82055901D01*
X142135104Y-82101660D01*
X142117160Y-82119242D01*
X142117154Y-82119249D01*
X142072511Y-82199059D01*
X142072509Y-82199064D01*
X142052826Y-82266096D01*
X142052825Y-82266101D01*
X142052825Y-82266102D01*
X142048705Y-82294759D01*
X142044500Y-82324001D01*
X140380500Y-82324001D01*
X140380500Y-81460249D01*
X140380499Y-81460247D01*
X140368868Y-81401770D01*
X140368867Y-81401769D01*
X140324552Y-81335447D01*
X140258230Y-81291132D01*
X140258229Y-81291131D01*
X140199752Y-81279500D01*
X140199748Y-81279500D01*
X139231402Y-81279500D01*
X139164363Y-81259815D01*
X139118608Y-81207011D01*
X139108664Y-81137853D01*
X139137689Y-81074297D01*
X139143721Y-81067819D01*
X139158320Y-81053220D01*
X139173224Y-81038316D01*
X139223972Y-80929487D01*
X139230500Y-80879901D01*
X139230499Y-80460100D01*
X139223972Y-80410513D01*
X139173224Y-80301684D01*
X139088316Y-80216776D01*
X138979487Y-80166028D01*
X138979485Y-80166027D01*
X138979486Y-80166027D01*
X138929902Y-80159500D01*
X138570105Y-80159500D01*
X138554386Y-80161569D01*
X138520513Y-80166028D01*
X138520511Y-80166029D01*
X138520509Y-80166029D01*
X138411683Y-80216776D01*
X138326775Y-80301684D01*
X138320553Y-80310571D01*
X138319165Y-80309599D01*
X138281317Y-80352577D01*
X138214121Y-80371723D01*
X138147242Y-80351501D01*
X138121979Y-80327023D01*
X138121736Y-80327267D01*
X138030404Y-80235935D01*
X138003036Y-80223173D01*
X137923173Y-80185932D01*
X137923171Y-80185931D01*
X137923172Y-80185931D01*
X137874317Y-80179500D01*
X137874316Y-80179500D01*
X137525684Y-80179500D01*
X137525683Y-80179500D01*
X137476828Y-80185931D01*
X137369595Y-80235935D01*
X137278264Y-80327267D01*
X137275440Y-80324443D01*
X137236958Y-80355183D01*
X137167458Y-80362352D01*
X137105114Y-80330808D01*
X137101901Y-80327101D01*
X137101736Y-80327267D01*
X137050685Y-80276216D01*
X137017200Y-80214893D01*
X137022184Y-80145201D01*
X137050681Y-80100858D01*
X137113224Y-80038316D01*
X137163972Y-79929487D01*
X137170500Y-79879901D01*
X137170499Y-79460100D01*
X137163972Y-79410513D01*
X137113224Y-79301684D01*
X137074221Y-79262681D01*
X137040736Y-79201358D01*
X137045720Y-79131666D01*
X137074221Y-79087319D01*
X137084424Y-79077116D01*
X137113224Y-79048316D01*
X137163972Y-78939487D01*
X137170500Y-78889901D01*
X137170499Y-78470100D01*
X137163972Y-78420513D01*
X137113224Y-78311684D01*
X137074221Y-78272681D01*
X137040736Y-78211358D01*
X137045720Y-78141666D01*
X137074221Y-78097319D01*
X137098686Y-78072854D01*
X137123224Y-78048316D01*
X137173972Y-77939487D01*
X137180500Y-77889901D01*
X137180499Y-77470100D01*
X137173972Y-77420513D01*
X137123224Y-77311684D01*
X137038316Y-77226776D01*
X136929487Y-77176028D01*
X136929485Y-77176027D01*
X136929486Y-77176027D01*
X136879902Y-77169500D01*
X136520105Y-77169500D01*
X136504386Y-77171569D01*
X136470513Y-77176028D01*
X136470511Y-77176029D01*
X136470509Y-77176029D01*
X136383105Y-77216787D01*
X136314027Y-77227279D01*
X136250243Y-77198759D01*
X136212004Y-77140283D01*
X136206700Y-77104405D01*
X136206700Y-76956506D01*
X139084500Y-76956506D01*
X139084500Y-77473493D01*
X139100279Y-77573121D01*
X139100280Y-77573124D01*
X139100281Y-77573126D01*
X139161472Y-77693220D01*
X139161473Y-77693221D01*
X139161476Y-77693225D01*
X139256774Y-77788523D01*
X139256778Y-77788526D01*
X139256780Y-77788528D01*
X139376874Y-77849719D01*
X139376876Y-77849719D01*
X139376878Y-77849720D01*
X139476507Y-77865500D01*
X139476512Y-77865500D01*
X139722035Y-77865500D01*
X139789074Y-77885185D01*
X139809716Y-77901819D01*
X140008386Y-78100489D01*
X140111113Y-78159799D01*
X140128653Y-78164498D01*
X140128656Y-78164500D01*
X140128657Y-78164500D01*
X140149162Y-78169994D01*
X140225691Y-78190500D01*
X140885500Y-78190500D01*
X140952539Y-78210185D01*
X140998294Y-78262989D01*
X141009500Y-78314500D01*
X141009500Y-78402727D01*
X141024313Y-78515235D01*
X141024313Y-78515236D01*
X141081492Y-78653279D01*
X141082302Y-78655233D01*
X141174549Y-78775451D01*
X141294767Y-78867698D01*
X141352363Y-78891555D01*
X141372731Y-78899992D01*
X141427134Y-78943833D01*
X141449199Y-79010127D01*
X141439839Y-79062005D01*
X141390699Y-79180641D01*
X141390697Y-79180646D01*
X141370060Y-79337405D01*
X141370060Y-79337408D01*
X141390697Y-79494167D01*
X141390698Y-79494169D01*
X141451206Y-79640248D01*
X141547460Y-79765689D01*
X141672901Y-79861943D01*
X141818980Y-79922451D01*
X141877825Y-79930198D01*
X141975741Y-79943089D01*
X141975742Y-79943089D01*
X141975743Y-79943089D01*
X142027996Y-79936209D01*
X142132504Y-79922451D01*
X142278583Y-79861943D01*
X142404024Y-79765689D01*
X142500278Y-79640248D01*
X142560786Y-79494169D01*
X142575974Y-79378802D01*
X142581424Y-79337408D01*
X142581424Y-79337405D01*
X142560786Y-79180646D01*
X142560786Y-79180645D01*
X142507032Y-79050873D01*
X142499564Y-78981404D01*
X142530839Y-78918925D01*
X142574138Y-78888862D01*
X142625233Y-78867698D01*
X142745451Y-78775451D01*
X142837698Y-78655233D01*
X142895687Y-78515236D01*
X142910500Y-78402720D01*
X142910500Y-77077280D01*
X142895687Y-76964764D01*
X142837698Y-76824767D01*
X142745451Y-76704549D01*
X142625233Y-76612302D01*
X142625229Y-76612300D01*
X142546460Y-76579673D01*
X142485236Y-76554313D01*
X142471171Y-76552461D01*
X142372727Y-76539500D01*
X142372720Y-76539500D01*
X141547280Y-76539500D01*
X141547272Y-76539500D01*
X141434764Y-76554313D01*
X141434763Y-76554313D01*
X141294770Y-76612300D01*
X141294767Y-76612301D01*
X141294767Y-76612302D01*
X141174549Y-76704549D01*
X141097957Y-76804366D01*
X141082300Y-76824770D01*
X141024313Y-76964763D01*
X141024313Y-76964764D01*
X141009500Y-77077272D01*
X141009500Y-77165500D01*
X140989815Y-77232539D01*
X140937011Y-77278294D01*
X140885500Y-77289500D01*
X140559500Y-77289500D01*
X140492461Y-77269815D01*
X140446706Y-77217011D01*
X140435500Y-77165500D01*
X140435500Y-76956506D01*
X140419720Y-76856878D01*
X140419719Y-76856876D01*
X140419719Y-76856874D01*
X140358528Y-76736780D01*
X140358526Y-76736778D01*
X140358523Y-76736774D01*
X140263225Y-76641476D01*
X140263221Y-76641473D01*
X140263220Y-76641472D01*
X140143126Y-76580281D01*
X140143124Y-76580280D01*
X140143121Y-76580279D01*
X140043493Y-76564500D01*
X140043488Y-76564500D01*
X139476512Y-76564500D01*
X139476507Y-76564500D01*
X139376878Y-76580279D01*
X139256778Y-76641473D01*
X139256774Y-76641476D01*
X139161476Y-76736774D01*
X139161473Y-76736778D01*
X139161472Y-76736780D01*
X139108357Y-76841025D01*
X139100279Y-76856878D01*
X139084500Y-76956506D01*
X136206700Y-76956506D01*
X136206700Y-76903573D01*
X136205639Y-76895515D01*
X136207780Y-76895232D01*
X136209169Y-76836751D01*
X136248328Y-76778886D01*
X136312555Y-76751378D01*
X136327284Y-76750500D01*
X136414317Y-76750500D01*
X136425407Y-76749039D01*
X136463173Y-76744068D01*
X136463185Y-76744062D01*
X136463693Y-76743915D01*
X136464935Y-76743836D01*
X136472579Y-76742830D01*
X136472647Y-76743347D01*
X136517802Y-76740484D01*
X136554016Y-76746220D01*
X136665448Y-76728571D01*
X136687137Y-76725136D01*
X136687137Y-76725135D01*
X136687142Y-76725135D01*
X136807236Y-76663944D01*
X136902544Y-76568636D01*
X136905845Y-76562156D01*
X136953815Y-76511359D01*
X136984228Y-76498675D01*
X137017586Y-76489737D01*
X137081145Y-76453041D01*
X137133041Y-76401145D01*
X137169737Y-76337586D01*
X137188732Y-76266696D01*
X137188732Y-76193304D01*
X137169737Y-76122414D01*
X137133041Y-76058855D01*
X137113367Y-76039181D01*
X137079882Y-75977858D01*
X137084866Y-75908166D01*
X137126738Y-75852233D01*
X137192202Y-75827816D01*
X137201048Y-75827500D01*
X152561824Y-75827500D01*
X152628863Y-75847185D01*
G37*
%TD.AperFunction*%
%TA.AperFunction,Conductor*%
G36*
X165818834Y-84945220D02*
G01*
X165874767Y-84987092D01*
X165899184Y-85052556D01*
X165899500Y-85061402D01*
X165899500Y-85719752D01*
X165911131Y-85778229D01*
X165911132Y-85778230D01*
X165955447Y-85844552D01*
X165956715Y-85845399D01*
X165958856Y-85847961D01*
X165964083Y-85853188D01*
X165963615Y-85853655D01*
X166001519Y-85899013D01*
X166010225Y-85968338D01*
X165980069Y-86031365D01*
X165920625Y-86068083D01*
X165887822Y-86072500D01*
X164742288Y-86072500D01*
X164675249Y-86052815D01*
X164629494Y-86000011D01*
X164619550Y-85930853D01*
X164630888Y-85894039D01*
X164633417Y-85888867D01*
X164660645Y-85833170D01*
X164670500Y-85765528D01*
X164670500Y-85642174D01*
X164690185Y-85575135D01*
X164706815Y-85554497D01*
X165124494Y-85136817D01*
X165185817Y-85103333D01*
X165212175Y-85100499D01*
X165459895Y-85100499D01*
X165459900Y-85100499D01*
X165509487Y-85093972D01*
X165618316Y-85043224D01*
X165687819Y-84973721D01*
X165749142Y-84940236D01*
X165818834Y-84945220D01*
G37*
%TD.AperFunction*%
%TA.AperFunction,Conductor*%
G36*
X172893039Y-81819685D02*
G01*
X172938794Y-81872489D01*
X172950000Y-81924000D01*
X172950000Y-85948500D01*
X172930315Y-86015539D01*
X172877511Y-86061294D01*
X172826000Y-86072500D01*
X167462178Y-86072500D01*
X167395139Y-86052815D01*
X167349384Y-86000011D01*
X167339440Y-85930853D01*
X167368465Y-85867297D01*
X167393285Y-85845399D01*
X167394552Y-85844552D01*
X167420646Y-85805500D01*
X167438867Y-85778231D01*
X167438867Y-85778229D01*
X167438868Y-85778229D01*
X167450499Y-85719752D01*
X167450500Y-85719750D01*
X167450500Y-84680249D01*
X167450499Y-84680247D01*
X167438868Y-84621770D01*
X167438867Y-84621769D01*
X167394552Y-84555447D01*
X167328230Y-84511132D01*
X167328229Y-84511131D01*
X167269752Y-84499500D01*
X167269748Y-84499500D01*
X166417175Y-84499500D01*
X166350136Y-84479815D01*
X166329498Y-84463185D01*
X166264898Y-84398585D01*
X166264897Y-84398584D01*
X166264892Y-84398581D01*
X166201804Y-84362155D01*
X166131433Y-84343300D01*
X166131428Y-84343300D01*
X165810918Y-84343300D01*
X165743879Y-84323615D01*
X165709344Y-84290424D01*
X165697002Y-84272798D01*
X165699924Y-84270751D01*
X165675622Y-84226244D01*
X165680606Y-84156552D01*
X165709107Y-84112205D01*
X166071413Y-83749900D01*
X166071413Y-83749899D01*
X166071415Y-83749898D01*
X166088736Y-83719898D01*
X166090911Y-83716132D01*
X166094929Y-83709172D01*
X166107844Y-83686802D01*
X166126700Y-83616428D01*
X166126700Y-83157375D01*
X166146385Y-83090336D01*
X166199189Y-83044581D01*
X166268347Y-83034637D01*
X166331903Y-83063662D01*
X166338382Y-83069695D01*
X166390098Y-83121412D01*
X166390101Y-83121414D01*
X166390102Y-83121415D01*
X166390105Y-83121417D01*
X166390107Y-83121418D01*
X166453195Y-83157844D01*
X166523566Y-83176699D01*
X166523572Y-83176700D01*
X167359025Y-83176700D01*
X167426064Y-83196385D01*
X167446706Y-83213019D01*
X167613181Y-83379494D01*
X167646666Y-83440817D01*
X167649500Y-83467175D01*
X167649500Y-84319752D01*
X167661131Y-84378229D01*
X167661132Y-84378230D01*
X167705447Y-84444552D01*
X167771769Y-84488867D01*
X167771770Y-84488868D01*
X167830247Y-84500499D01*
X167830250Y-84500500D01*
X167830252Y-84500500D01*
X168682825Y-84500500D01*
X168749864Y-84520185D01*
X168770506Y-84536819D01*
X169075098Y-84841412D01*
X169075101Y-84841414D01*
X169075102Y-84841415D01*
X169075105Y-84841417D01*
X169075107Y-84841418D01*
X169138195Y-84877844D01*
X169208566Y-84896699D01*
X169208572Y-84896700D01*
X169281428Y-84896700D01*
X169389082Y-84896700D01*
X169456121Y-84916385D01*
X169490656Y-84949576D01*
X169496775Y-84958315D01*
X169496776Y-84958316D01*
X169581684Y-85043224D01*
X169690513Y-85093972D01*
X169740099Y-85100500D01*
X170159900Y-85100499D01*
X170209487Y-85093972D01*
X170318316Y-85043224D01*
X170403224Y-84958316D01*
X170453972Y-84849487D01*
X170460500Y-84799901D01*
X170460499Y-84440100D01*
X170453972Y-84390513D01*
X170403224Y-84281684D01*
X170318316Y-84196776D01*
X170209487Y-84146028D01*
X170209486Y-84146027D01*
X170204138Y-84143534D01*
X170198618Y-84138674D01*
X170177275Y-84141787D01*
X170168194Y-84140591D01*
X170159901Y-84139500D01*
X170159899Y-84139500D01*
X169740105Y-84139500D01*
X169724386Y-84141569D01*
X169690513Y-84146028D01*
X169690511Y-84146029D01*
X169690509Y-84146029D01*
X169581683Y-84196776D01*
X169489105Y-84289355D01*
X169487238Y-84287488D01*
X169445084Y-84321176D01*
X169375585Y-84328362D01*
X169313234Y-84296833D01*
X169310417Y-84294104D01*
X169236819Y-84220506D01*
X169203334Y-84159183D01*
X169200500Y-84132825D01*
X169200500Y-83280249D01*
X169200499Y-83280247D01*
X169188868Y-83221770D01*
X169188867Y-83221769D01*
X169144552Y-83155447D01*
X169117843Y-83137601D01*
X169073038Y-83083988D01*
X169064331Y-83014663D01*
X169094486Y-82951636D01*
X169153929Y-82914917D01*
X169186731Y-82910499D01*
X169213455Y-82910499D01*
X169280494Y-82930184D01*
X169301136Y-82946818D01*
X169966241Y-83611923D01*
X169989896Y-83651877D01*
X169992018Y-83650888D01*
X169996703Y-83660934D01*
X170046776Y-83768316D01*
X170131684Y-83853224D01*
X170240513Y-83903972D01*
X170240514Y-83903972D01*
X170245860Y-83906465D01*
X170251380Y-83911325D01*
X170272728Y-83908213D01*
X170290099Y-83910500D01*
X170649900Y-83910499D01*
X170699487Y-83903972D01*
X170808316Y-83853224D01*
X170893224Y-83768316D01*
X170943972Y-83659487D01*
X170950500Y-83609901D01*
X170950499Y-83190100D01*
X170943972Y-83140513D01*
X170893224Y-83031684D01*
X170808316Y-82946776D01*
X170699487Y-82896028D01*
X170699485Y-82896027D01*
X170699486Y-82896027D01*
X170649902Y-82889500D01*
X170286544Y-82889500D01*
X170219505Y-82869815D01*
X170198863Y-82853181D01*
X169766818Y-82421136D01*
X169733333Y-82359813D01*
X169730499Y-82333455D01*
X169730499Y-82190105D01*
X169730499Y-82190100D01*
X169723972Y-82140513D01*
X169673224Y-82031684D01*
X169653221Y-82011681D01*
X169619736Y-81950358D01*
X169624720Y-81880666D01*
X169666592Y-81824733D01*
X169732056Y-81800316D01*
X169740902Y-81800000D01*
X172826000Y-81800000D01*
X172893039Y-81819685D01*
G37*
%TD.AperFunction*%
%TA.AperFunction,Conductor*%
G36*
X120865815Y-81560185D02*
G01*
X120911570Y-81612989D01*
X120921514Y-81682147D01*
X120921249Y-81683898D01*
X120909196Y-81759997D01*
X120909196Y-81760002D01*
X120930279Y-81893121D01*
X120930280Y-81893124D01*
X120930281Y-81893126D01*
X120991472Y-82013220D01*
X120991473Y-82013221D01*
X120991476Y-82013225D01*
X121086774Y-82108523D01*
X121086778Y-82108526D01*
X121086780Y-82108528D01*
X121206874Y-82169719D01*
X121206876Y-82169719D01*
X121206878Y-82169720D01*
X121339998Y-82190804D01*
X121340000Y-82190804D01*
X121340002Y-82190804D01*
X121473121Y-82169720D01*
X121473121Y-82169719D01*
X121473126Y-82169719D01*
X121593220Y-82108528D01*
X121688528Y-82013220D01*
X121749719Y-81893126D01*
X121749719Y-81893124D01*
X121750461Y-81891669D01*
X121798436Y-81840873D01*
X121860946Y-81823964D01*
X121880308Y-81823964D01*
X121947347Y-81843649D01*
X121993102Y-81896453D01*
X122003046Y-81965611D01*
X122002781Y-81967361D01*
X121999196Y-81989996D01*
X121999196Y-81990002D01*
X122020279Y-82123121D01*
X122020280Y-82123124D01*
X122020281Y-82123126D01*
X122081472Y-82243220D01*
X122081473Y-82243221D01*
X122081476Y-82243225D01*
X122176774Y-82338523D01*
X122176777Y-82338525D01*
X122176780Y-82338528D01*
X122183308Y-82341854D01*
X122223784Y-82362478D01*
X122274579Y-82410452D01*
X122291374Y-82478273D01*
X122268836Y-82544408D01*
X122255169Y-82560643D01*
X122061959Y-82753853D01*
X122025263Y-82817411D01*
X122015668Y-82853222D01*
X122006268Y-82888303D01*
X122006268Y-83134312D01*
X121986583Y-83201351D01*
X121933779Y-83247106D01*
X121900150Y-83257016D01*
X121883607Y-83259426D01*
X121778514Y-83310803D01*
X121695803Y-83393514D01*
X121644426Y-83498608D01*
X121634500Y-83566739D01*
X121634500Y-84877268D01*
X121614815Y-84944307D01*
X121562011Y-84990062D01*
X121510500Y-85001268D01*
X121489500Y-85001268D01*
X121422461Y-84981583D01*
X121376706Y-84928779D01*
X121365500Y-84877268D01*
X121365500Y-83566739D01*
X121359048Y-83522455D01*
X121355573Y-83498607D01*
X121304198Y-83393517D01*
X121304196Y-83393515D01*
X121304196Y-83393514D01*
X121221485Y-83310803D01*
X121116391Y-83259426D01*
X121048261Y-83249500D01*
X121048260Y-83249500D01*
X120681740Y-83249500D01*
X120681739Y-83249500D01*
X120613608Y-83259426D01*
X120508514Y-83310803D01*
X120425803Y-83393514D01*
X120374426Y-83498608D01*
X120364500Y-83566739D01*
X120364500Y-84933260D01*
X120374426Y-85001391D01*
X120425803Y-85106485D01*
X120428905Y-85109587D01*
X120462390Y-85170910D01*
X120457406Y-85240602D01*
X120415534Y-85296535D01*
X120350070Y-85320952D01*
X120341224Y-85321268D01*
X120147732Y-85321268D01*
X120080693Y-85301583D01*
X120034938Y-85248779D01*
X120023732Y-85197268D01*
X120023732Y-85156579D01*
X120036331Y-85102119D01*
X120085573Y-85001393D01*
X120095500Y-84933260D01*
X120095500Y-83566740D01*
X120085573Y-83498607D01*
X120036331Y-83397880D01*
X120023732Y-83343420D01*
X120023732Y-82738305D01*
X120023732Y-82738304D01*
X120018067Y-82717163D01*
X120004737Y-82667413D01*
X120001657Y-82662079D01*
X119968040Y-82603853D01*
X119791146Y-82426959D01*
X119727592Y-82390265D01*
X119727589Y-82390264D01*
X119727588Y-82390263D01*
X119727587Y-82390263D01*
X119656696Y-82371268D01*
X119656695Y-82371268D01*
X118557099Y-82371268D01*
X118490060Y-82351583D01*
X118469418Y-82334949D01*
X118372733Y-82238264D01*
X118375561Y-82235435D01*
X118344843Y-82197023D01*
X118337635Y-82127526D01*
X118369143Y-82065165D01*
X118372903Y-82061907D01*
X118372732Y-82061736D01*
X118380401Y-82054065D01*
X118380404Y-82054065D01*
X118459395Y-81975073D01*
X118520714Y-81941591D01*
X118590406Y-81946575D01*
X118634754Y-81975076D01*
X118637514Y-81977836D01*
X118637518Y-81977839D01*
X118637520Y-81977841D01*
X118757614Y-82039032D01*
X118757616Y-82039032D01*
X118757618Y-82039033D01*
X118890738Y-82060117D01*
X118890740Y-82060117D01*
X118890742Y-82060117D01*
X119023861Y-82039033D01*
X119023861Y-82039032D01*
X119023866Y-82039032D01*
X119143960Y-81977841D01*
X119239268Y-81882533D01*
X119300459Y-81762439D01*
X119300845Y-81760002D01*
X119319044Y-81645102D01*
X119348973Y-81581967D01*
X119408285Y-81545036D01*
X119441517Y-81540500D01*
X120798776Y-81540500D01*
X120865815Y-81560185D01*
G37*
%TD.AperFunction*%
%TA.AperFunction,Conductor*%
G36*
X127395310Y-83402113D02*
G01*
X127441065Y-83454917D01*
X127451009Y-83524075D01*
X127435658Y-83568427D01*
X127413047Y-83607591D01*
X127410262Y-83612415D01*
X127405522Y-83630104D01*
X127391268Y-83683300D01*
X127391268Y-85197268D01*
X127371583Y-85264307D01*
X127318779Y-85310062D01*
X127267268Y-85321268D01*
X123258462Y-85321268D01*
X123191423Y-85301583D01*
X123145668Y-85248779D01*
X123135724Y-85179621D01*
X123147544Y-85145473D01*
X123146627Y-85145094D01*
X123149736Y-85137587D01*
X123149737Y-85137586D01*
X123168732Y-85066696D01*
X123168732Y-83506428D01*
X123188417Y-83439389D01*
X123241221Y-83393634D01*
X123292732Y-83382428D01*
X127328271Y-83382428D01*
X127395310Y-83402113D01*
G37*
%TD.AperFunction*%
%TA.AperFunction,Conductor*%
G36*
X131697461Y-78083977D02*
G01*
X131702256Y-78085963D01*
X131702260Y-78085966D01*
X131702264Y-78085966D01*
X131702267Y-78085968D01*
X131775321Y-78100499D01*
X131775324Y-78100500D01*
X131847268Y-78100500D01*
X131914307Y-78120185D01*
X131960062Y-78172989D01*
X131971268Y-78224500D01*
X131971268Y-78415838D01*
X131951583Y-78482877D01*
X131898779Y-78528632D01*
X131868133Y-78537869D01*
X131866876Y-78538277D01*
X131808961Y-78567787D01*
X131746780Y-78599470D01*
X131746779Y-78599471D01*
X131746774Y-78599474D01*
X131651476Y-78694772D01*
X131651473Y-78694776D01*
X131651472Y-78694778D01*
X131595014Y-78805584D01*
X131590279Y-78814876D01*
X131569196Y-78947995D01*
X131569196Y-78948000D01*
X131590279Y-79081119D01*
X131590280Y-79081122D01*
X131590281Y-79081124D01*
X131651165Y-79200615D01*
X131651473Y-79201219D01*
X131651476Y-79201223D01*
X131746774Y-79296521D01*
X131746778Y-79296524D01*
X131746780Y-79296526D01*
X131866874Y-79357717D01*
X131866876Y-79357717D01*
X131866878Y-79357718D01*
X131999998Y-79378802D01*
X132000000Y-79378802D01*
X132000002Y-79378802D01*
X132133121Y-79357718D01*
X132133121Y-79357717D01*
X132133126Y-79357717D01*
X132253220Y-79296526D01*
X132348528Y-79201218D01*
X132409719Y-79081124D01*
X132430804Y-78947998D01*
X132430803Y-78947994D01*
X132431391Y-78944284D01*
X132461321Y-78881149D01*
X132466176Y-78876008D01*
X132473041Y-78869144D01*
X132473043Y-78869139D01*
X132477988Y-78862697D01*
X132480082Y-78864304D01*
X132521185Y-78825098D01*
X132589789Y-78811861D01*
X132654659Y-78837816D01*
X132695199Y-78894722D01*
X132698998Y-78937636D01*
X132701658Y-78937636D01*
X132701658Y-78947396D01*
X132722741Y-79080515D01*
X132722742Y-79080518D01*
X132722743Y-79080520D01*
X132783934Y-79200614D01*
X132783935Y-79200615D01*
X132783938Y-79200619D01*
X132879236Y-79295917D01*
X132879240Y-79295920D01*
X132879242Y-79295922D01*
X132999336Y-79357113D01*
X132999338Y-79357113D01*
X132999340Y-79357114D01*
X133132460Y-79378198D01*
X133132462Y-79378198D01*
X133132464Y-79378198D01*
X133265584Y-79357114D01*
X133265585Y-79357113D01*
X133265588Y-79357113D01*
X133313818Y-79332538D01*
X133382484Y-79319642D01*
X133447225Y-79345918D01*
X133487482Y-79403024D01*
X133492584Y-79423624D01*
X133504575Y-79499334D01*
X133504576Y-79499337D01*
X133504577Y-79499338D01*
X133540375Y-79569596D01*
X133565769Y-79619433D01*
X133565772Y-79619437D01*
X133603983Y-79657648D01*
X133637468Y-79718971D01*
X133632484Y-79788663D01*
X133630010Y-79794291D01*
X133629107Y-79797071D01*
X133608023Y-79930193D01*
X133608023Y-79930198D01*
X133629106Y-80063317D01*
X133629107Y-80063320D01*
X133629108Y-80063322D01*
X133688304Y-80179500D01*
X133690300Y-80183417D01*
X133696038Y-80191315D01*
X133694728Y-80192266D01*
X133722898Y-80243854D01*
X133717914Y-80313546D01*
X133712217Y-80326506D01*
X133650729Y-80447182D01*
X133629646Y-80580303D01*
X133629646Y-80580308D01*
X133650729Y-80713429D01*
X133665178Y-80741786D01*
X133678074Y-80810455D01*
X133651797Y-80875196D01*
X133610989Y-80908564D01*
X133526781Y-80951471D01*
X133526774Y-80951476D01*
X133431476Y-81046774D01*
X133431473Y-81046778D01*
X133370279Y-81166878D01*
X133349196Y-81299997D01*
X133349196Y-81300002D01*
X133370279Y-81433121D01*
X133370280Y-81433124D01*
X133370281Y-81433126D01*
X133431472Y-81553220D01*
X133431473Y-81553221D01*
X133431476Y-81553225D01*
X133526774Y-81648523D01*
X133526778Y-81648526D01*
X133526780Y-81648528D01*
X133646874Y-81709719D01*
X133646876Y-81709719D01*
X133646878Y-81709720D01*
X133779998Y-81730804D01*
X133780000Y-81730804D01*
X133780002Y-81730804D01*
X133913121Y-81709720D01*
X133913121Y-81709719D01*
X133913126Y-81709719D01*
X134033220Y-81648528D01*
X134058372Y-81623374D01*
X134113956Y-81591283D01*
X134155989Y-81580021D01*
X134155993Y-81580018D01*
X134155995Y-81580018D01*
X134224504Y-81540464D01*
X134224503Y-81540464D01*
X134224511Y-81540460D01*
X134242455Y-81522515D01*
X134303775Y-81489030D01*
X134373467Y-81494013D01*
X134429402Y-81535883D01*
X134451753Y-81586004D01*
X134464032Y-81647736D01*
X134464033Y-81647739D01*
X134475599Y-81665049D01*
X134519399Y-81730601D01*
X134602260Y-81785966D01*
X134612415Y-81792751D01*
X134611591Y-81793983D01*
X134655391Y-81829281D01*
X134677455Y-81895576D01*
X134660175Y-81963275D01*
X134609037Y-82010885D01*
X134602516Y-82013862D01*
X134519399Y-82069399D01*
X134464033Y-82152260D01*
X134464032Y-82152264D01*
X134449500Y-82225321D01*
X134449500Y-82225326D01*
X134449500Y-82374674D01*
X134449500Y-82374676D01*
X134449499Y-82374676D01*
X134464033Y-82447740D01*
X134466025Y-82452548D01*
X134473494Y-82522017D01*
X134466025Y-82547452D01*
X134464033Y-82552259D01*
X134449500Y-82625323D01*
X134449500Y-82625326D01*
X134449500Y-82774674D01*
X134449500Y-82774676D01*
X134449499Y-82774676D01*
X134464033Y-82847740D01*
X134466025Y-82852548D01*
X134473494Y-82922017D01*
X134466025Y-82947452D01*
X134464033Y-82952259D01*
X134449500Y-83025323D01*
X134449500Y-83116078D01*
X134429815Y-83183117D01*
X134377011Y-83228872D01*
X134307853Y-83238816D01*
X134244297Y-83209791D01*
X134215016Y-83172374D01*
X134211273Y-83165029D01*
X134209271Y-83161099D01*
X134209268Y-83161096D01*
X134209266Y-83161093D01*
X134113968Y-83065795D01*
X134113964Y-83065792D01*
X134113963Y-83065791D01*
X133993869Y-83004600D01*
X133993867Y-83004599D01*
X133993864Y-83004598D01*
X133860745Y-82983515D01*
X133858553Y-82983515D01*
X133855985Y-82982761D01*
X133851104Y-82981988D01*
X133851203Y-82981357D01*
X133791514Y-82963830D01*
X133748069Y-82915810D01*
X133698528Y-82818580D01*
X133698525Y-82818577D01*
X133698523Y-82818574D01*
X133603225Y-82723276D01*
X133603221Y-82723273D01*
X133603220Y-82723272D01*
X133483126Y-82662081D01*
X133483124Y-82662080D01*
X133483121Y-82662079D01*
X133350002Y-82640996D01*
X133349998Y-82640996D01*
X133216878Y-82662079D01*
X133096778Y-82723273D01*
X133096775Y-82723275D01*
X133061272Y-82758780D01*
X132999950Y-82792266D01*
X132973590Y-82795100D01*
X131241768Y-82795100D01*
X131171398Y-82813955D01*
X131171396Y-82813955D01*
X131108308Y-82850381D01*
X131108299Y-82850387D01*
X130828587Y-83130098D01*
X130828581Y-83130107D01*
X130792155Y-83193195D01*
X130792155Y-83193197D01*
X130779603Y-83240046D01*
X130773300Y-83263567D01*
X130773300Y-83575500D01*
X130753615Y-83642539D01*
X130700811Y-83688294D01*
X130649300Y-83699500D01*
X130575324Y-83699500D01*
X130502259Y-83714033D01*
X130497452Y-83716025D01*
X130427983Y-83723494D01*
X130402548Y-83716025D01*
X130397740Y-83714033D01*
X130324676Y-83699500D01*
X130324674Y-83699500D01*
X130175326Y-83699500D01*
X130175324Y-83699500D01*
X130102259Y-83714033D01*
X130097452Y-83716025D01*
X130027983Y-83723494D01*
X130002548Y-83716025D01*
X129997740Y-83714033D01*
X129924676Y-83699500D01*
X129924674Y-83699500D01*
X129847006Y-83699500D01*
X129779967Y-83679815D01*
X129734212Y-83627011D01*
X129727231Y-83607591D01*
X129707844Y-83535235D01*
X129707844Y-83535233D01*
X129689218Y-83502973D01*
X129672604Y-83440972D01*
X129672604Y-83433834D01*
X129651520Y-83300715D01*
X129651519Y-83300713D01*
X129651519Y-83300711D01*
X129590328Y-83180617D01*
X129590326Y-83180615D01*
X129590323Y-83180611D01*
X129495025Y-83085313D01*
X129495021Y-83085310D01*
X129495020Y-83085309D01*
X129374926Y-83024118D01*
X129374924Y-83024117D01*
X129374921Y-83024116D01*
X129241802Y-83003033D01*
X129241798Y-83003033D01*
X129108676Y-83024116D01*
X129019994Y-83069302D01*
X128951325Y-83082198D01*
X128886584Y-83055921D01*
X128846328Y-82998814D01*
X128842083Y-82983008D01*
X128835968Y-82952267D01*
X128835966Y-82952264D01*
X128835966Y-82952260D01*
X128835963Y-82952256D01*
X128833977Y-82947461D01*
X128826504Y-82877992D01*
X128833977Y-82852539D01*
X128835962Y-82847745D01*
X128835966Y-82847740D01*
X128838637Y-82834316D01*
X128849979Y-82777292D01*
X128850500Y-82774674D01*
X128850500Y-82625326D01*
X128850500Y-82625323D01*
X128850499Y-82625321D01*
X128835968Y-82552267D01*
X128835966Y-82552264D01*
X128835966Y-82552260D01*
X128835963Y-82552256D01*
X128833977Y-82547461D01*
X128826504Y-82477992D01*
X128833977Y-82452539D01*
X128835962Y-82447745D01*
X128835966Y-82447740D01*
X128836148Y-82446828D01*
X128850499Y-82374678D01*
X128850500Y-82374676D01*
X128850500Y-82225323D01*
X128850499Y-82225321D01*
X128835968Y-82152267D01*
X128835966Y-82152264D01*
X128835966Y-82152260D01*
X128835963Y-82152256D01*
X128833977Y-82147461D01*
X128826504Y-82077992D01*
X128833977Y-82052539D01*
X128835962Y-82047745D01*
X128835966Y-82047740D01*
X128840985Y-82022511D01*
X128849871Y-81977836D01*
X128850500Y-81974674D01*
X128850500Y-81825326D01*
X128850500Y-81825323D01*
X128850499Y-81825321D01*
X128835968Y-81752267D01*
X128835966Y-81752264D01*
X128835966Y-81752260D01*
X128835963Y-81752256D01*
X128833977Y-81747461D01*
X128826504Y-81677992D01*
X128833977Y-81652539D01*
X128835962Y-81647745D01*
X128835966Y-81647740D01*
X128836231Y-81646411D01*
X128849437Y-81580018D01*
X128850500Y-81574674D01*
X128850500Y-81502732D01*
X128870185Y-81435693D01*
X128922989Y-81389938D01*
X128974500Y-81378732D01*
X129166694Y-81378732D01*
X129166696Y-81378732D01*
X129237587Y-81359737D01*
X129250903Y-81352048D01*
X129315240Y-81336437D01*
X129315240Y-81335804D01*
X129317852Y-81335804D01*
X129318800Y-81335574D01*
X129321039Y-81335804D01*
X129325000Y-81335804D01*
X129325002Y-81335804D01*
X129458121Y-81314720D01*
X129458121Y-81314719D01*
X129458126Y-81314719D01*
X129578220Y-81253528D01*
X129673528Y-81158220D01*
X129734719Y-81038126D01*
X129738430Y-81014694D01*
X129755804Y-80905002D01*
X129755804Y-80904997D01*
X129734720Y-80771878D01*
X129734719Y-80771876D01*
X129734719Y-80771874D01*
X129673528Y-80651780D01*
X129673525Y-80651777D01*
X129673524Y-80651775D01*
X129672411Y-80650242D01*
X129671634Y-80648064D01*
X129669097Y-80643085D01*
X129669740Y-80642757D01*
X129648934Y-80584435D01*
X129648732Y-80577361D01*
X129648732Y-79293306D01*
X129648732Y-79293304D01*
X129629737Y-79222414D01*
X129593041Y-79158855D01*
X129541145Y-79106959D01*
X129431152Y-78996966D01*
X129311148Y-78876961D01*
X129311145Y-78876959D01*
X129282699Y-78860535D01*
X129234486Y-78809969D01*
X129221264Y-78741362D01*
X129228103Y-78713890D01*
X129227917Y-78713840D01*
X129230021Y-78705989D01*
X129250500Y-78629562D01*
X129250500Y-78362426D01*
X129270185Y-78295387D01*
X129322989Y-78249632D01*
X129392147Y-78239688D01*
X129455703Y-78268713D01*
X129484982Y-78306129D01*
X129513885Y-78362853D01*
X129521289Y-78377384D01*
X129521294Y-78377391D01*
X129616592Y-78472689D01*
X129616596Y-78472692D01*
X129616598Y-78472694D01*
X129736692Y-78533885D01*
X129736694Y-78533885D01*
X129736696Y-78533886D01*
X129869816Y-78554970D01*
X129869818Y-78554970D01*
X129869820Y-78554970D01*
X130002939Y-78533886D01*
X130002939Y-78533885D01*
X130002944Y-78533885D01*
X130123038Y-78472694D01*
X130218346Y-78377386D01*
X130279537Y-78257292D01*
X130290190Y-78190027D01*
X130320118Y-78126896D01*
X130379429Y-78089964D01*
X130388463Y-78087811D01*
X130397740Y-78085966D01*
X130397744Y-78085962D01*
X130402539Y-78083977D01*
X130472008Y-78076504D01*
X130497461Y-78083977D01*
X130502256Y-78085963D01*
X130502260Y-78085966D01*
X130502264Y-78085966D01*
X130502267Y-78085968D01*
X130575321Y-78100499D01*
X130575324Y-78100500D01*
X130575326Y-78100500D01*
X130724676Y-78100500D01*
X130724677Y-78100499D01*
X130749029Y-78095655D01*
X130797732Y-78085968D01*
X130797733Y-78085967D01*
X130797740Y-78085966D01*
X130797745Y-78085962D01*
X130802539Y-78083977D01*
X130872008Y-78076504D01*
X130897461Y-78083977D01*
X130902256Y-78085963D01*
X130902260Y-78085966D01*
X130902264Y-78085966D01*
X130902267Y-78085968D01*
X130975321Y-78100499D01*
X130975324Y-78100500D01*
X130975326Y-78100500D01*
X131124676Y-78100500D01*
X131124677Y-78100499D01*
X131149029Y-78095655D01*
X131197732Y-78085968D01*
X131197733Y-78085967D01*
X131197740Y-78085966D01*
X131197745Y-78085962D01*
X131202539Y-78083977D01*
X131272008Y-78076504D01*
X131297461Y-78083977D01*
X131302256Y-78085963D01*
X131302260Y-78085966D01*
X131302264Y-78085966D01*
X131302267Y-78085968D01*
X131375321Y-78100499D01*
X131375324Y-78100500D01*
X131375326Y-78100500D01*
X131524676Y-78100500D01*
X131524677Y-78100499D01*
X131549029Y-78095655D01*
X131597732Y-78085968D01*
X131597733Y-78085967D01*
X131597740Y-78085966D01*
X131597745Y-78085962D01*
X131602539Y-78083977D01*
X131672008Y-78076504D01*
X131697461Y-78083977D01*
G37*
%TD.AperFunction*%
%TA.AperFunction,Conductor*%
G36*
X160189280Y-75847185D02*
G01*
X160235035Y-75899989D01*
X160244979Y-75969147D01*
X160229155Y-76009127D01*
X160230520Y-76009764D01*
X160225935Y-76019595D01*
X160225935Y-76019596D01*
X160219823Y-76032703D01*
X160175931Y-76126828D01*
X160169500Y-76175683D01*
X160169500Y-76624316D01*
X160175931Y-76673171D01*
X160176772Y-76674974D01*
X160225935Y-76780404D01*
X160309596Y-76864065D01*
X160416827Y-76914068D01*
X160465683Y-76920500D01*
X160465684Y-76920500D01*
X160546537Y-76920500D01*
X160613576Y-76940185D01*
X160659331Y-76992989D01*
X160669009Y-77025098D01*
X160670281Y-77033126D01*
X160731472Y-77153220D01*
X160731474Y-77153222D01*
X160731476Y-77153225D01*
X160826774Y-77248523D01*
X160826778Y-77248526D01*
X160826780Y-77248528D01*
X160946874Y-77309719D01*
X160966119Y-77312767D01*
X161029253Y-77342694D01*
X161034404Y-77347559D01*
X161101100Y-77414255D01*
X161134585Y-77475578D01*
X161129601Y-77545270D01*
X161120807Y-77563935D01*
X161074819Y-77643589D01*
X161072219Y-77653294D01*
X161052550Y-77726700D01*
X161052500Y-77726885D01*
X161052500Y-78018689D01*
X161032815Y-78085728D01*
X160984795Y-78129173D01*
X160901780Y-78171472D01*
X160901779Y-78171473D01*
X160901774Y-78171476D01*
X160806476Y-78266774D01*
X160806473Y-78266778D01*
X160745279Y-78386878D01*
X160729500Y-78486506D01*
X160729500Y-79053493D01*
X160745279Y-79153121D01*
X160745280Y-79153124D01*
X160745281Y-79153126D01*
X160806472Y-79273220D01*
X160806473Y-79273221D01*
X160806476Y-79273225D01*
X160901774Y-79368523D01*
X160901778Y-79368526D01*
X160901780Y-79368528D01*
X161021874Y-79429719D01*
X161021876Y-79429719D01*
X161021878Y-79429720D01*
X161121507Y-79445500D01*
X161121512Y-79445500D01*
X161638493Y-79445500D01*
X161738121Y-79429720D01*
X161738121Y-79429719D01*
X161738126Y-79429719D01*
X161858220Y-79368528D01*
X161953528Y-79273220D01*
X162014719Y-79153126D01*
X162014720Y-79153121D01*
X162030500Y-79053493D01*
X162030500Y-78539581D01*
X162050185Y-78472542D01*
X162102989Y-78426787D01*
X162172147Y-78416843D01*
X162179472Y-78418547D01*
X162319998Y-78440804D01*
X162320000Y-78440804D01*
X162320002Y-78440804D01*
X162401102Y-78427959D01*
X162470396Y-78436914D01*
X162523847Y-78481910D01*
X162544487Y-78548661D01*
X162544500Y-78550432D01*
X162544500Y-78624320D01*
X162544500Y-78624322D01*
X162544499Y-78624322D01*
X162558091Y-78692648D01*
X162562192Y-78702549D01*
X162569659Y-78772019D01*
X162562192Y-78797451D01*
X162558091Y-78807351D01*
X162544500Y-78875677D01*
X162544500Y-78875680D01*
X162544500Y-79124320D01*
X162544500Y-79124322D01*
X162544499Y-79124322D01*
X162558091Y-79192648D01*
X162562192Y-79202549D01*
X162569659Y-79272019D01*
X162562192Y-79297451D01*
X162558091Y-79307351D01*
X162544500Y-79375677D01*
X162544500Y-79375680D01*
X162544500Y-79624320D01*
X162544500Y-79624322D01*
X162544499Y-79624322D01*
X162558091Y-79692648D01*
X162562192Y-79702549D01*
X162569659Y-79772019D01*
X162562192Y-79797451D01*
X162558091Y-79807351D01*
X162544500Y-79875677D01*
X162544500Y-79875680D01*
X162544500Y-80124320D01*
X162544500Y-80124322D01*
X162544499Y-80124322D01*
X162558091Y-80192648D01*
X162562192Y-80202549D01*
X162569659Y-80272019D01*
X162562192Y-80297451D01*
X162558091Y-80307351D01*
X162544500Y-80375677D01*
X162544500Y-80375680D01*
X162544500Y-80624320D01*
X162544500Y-80624322D01*
X162544499Y-80624322D01*
X162558091Y-80692648D01*
X162562192Y-80702549D01*
X162569659Y-80772019D01*
X162562192Y-80797451D01*
X162558091Y-80807351D01*
X162544500Y-80875677D01*
X162544500Y-80875680D01*
X162544500Y-81124320D01*
X162544500Y-81124322D01*
X162544499Y-81124322D01*
X162558091Y-81192648D01*
X162562192Y-81202549D01*
X162569659Y-81272019D01*
X162562192Y-81297451D01*
X162558091Y-81307351D01*
X162544500Y-81375677D01*
X162544500Y-81375680D01*
X162544500Y-81624320D01*
X162544500Y-81624322D01*
X162544499Y-81624322D01*
X162558091Y-81692650D01*
X162583585Y-81730804D01*
X162609865Y-81770135D01*
X162639319Y-81789815D01*
X162687349Y-81821908D01*
X162755677Y-81835500D01*
X162755680Y-81835500D01*
X163390500Y-81835500D01*
X163457539Y-81855185D01*
X163503294Y-81907989D01*
X163514500Y-81959500D01*
X163514500Y-82460926D01*
X163494815Y-82527965D01*
X163442011Y-82573720D01*
X163390500Y-82584926D01*
X162958145Y-82584926D01*
X162891106Y-82565241D01*
X162870464Y-82548607D01*
X162616616Y-82294759D01*
X162337930Y-82016072D01*
X162268145Y-81975782D01*
X162268146Y-81975782D01*
X162245626Y-81969748D01*
X162190310Y-81954926D01*
X162190307Y-81954926D01*
X161554500Y-81954926D01*
X161487461Y-81935241D01*
X161441706Y-81882437D01*
X161430500Y-81830926D01*
X161430500Y-81650683D01*
X161426083Y-81617135D01*
X161424068Y-81601827D01*
X161374065Y-81494596D01*
X161290404Y-81410935D01*
X161183173Y-81360932D01*
X161183171Y-81360931D01*
X161183172Y-81360931D01*
X161134317Y-81354500D01*
X161134316Y-81354500D01*
X160785684Y-81354500D01*
X160785683Y-81354500D01*
X160736828Y-81360931D01*
X160629595Y-81410935D01*
X160538264Y-81502267D01*
X160535440Y-81499443D01*
X160496958Y-81530183D01*
X160427458Y-81537352D01*
X160365114Y-81505808D01*
X160361901Y-81502101D01*
X160361736Y-81502267D01*
X160270404Y-81410935D01*
X160250750Y-81401770D01*
X160163173Y-81360932D01*
X160163171Y-81360931D01*
X160163172Y-81360931D01*
X160114317Y-81354500D01*
X160114316Y-81354500D01*
X159765684Y-81354500D01*
X159765683Y-81354500D01*
X159716828Y-81360931D01*
X159609595Y-81410935D01*
X159525935Y-81494595D01*
X159475931Y-81601828D01*
X159469500Y-81650683D01*
X159469500Y-81820926D01*
X159449815Y-81887965D01*
X159397011Y-81933720D01*
X159345500Y-81944926D01*
X159288146Y-81944926D01*
X159221107Y-81925241D01*
X159200465Y-81908607D01*
X158957626Y-81665768D01*
X158924141Y-81604445D01*
X158929125Y-81534753D01*
X158970997Y-81478820D01*
X159025910Y-81455614D01*
X159063121Y-81449720D01*
X159063121Y-81449719D01*
X159063126Y-81449719D01*
X159183220Y-81388528D01*
X159278528Y-81293220D01*
X159339719Y-81173126D01*
X159339720Y-81173121D01*
X159360804Y-81040002D01*
X159360804Y-81039997D01*
X159339720Y-80906878D01*
X159339719Y-80906876D01*
X159339719Y-80906874D01*
X159278528Y-80786780D01*
X159278526Y-80786778D01*
X159278523Y-80786774D01*
X159183225Y-80691476D01*
X159183221Y-80691473D01*
X159183220Y-80691472D01*
X159063126Y-80630281D01*
X159063124Y-80630280D01*
X159063121Y-80630279D01*
X158930002Y-80609196D01*
X158929998Y-80609196D01*
X158787235Y-80631807D01*
X158786910Y-80629755D01*
X158729759Y-80631384D01*
X158673612Y-80599142D01*
X158640404Y-80565935D01*
X158598816Y-80546542D01*
X158533173Y-80515932D01*
X158533171Y-80515931D01*
X158533172Y-80515931D01*
X158484317Y-80509500D01*
X158484316Y-80509500D01*
X158135684Y-80509500D01*
X158135683Y-80509500D01*
X158086828Y-80515931D01*
X157979595Y-80565935D01*
X157888264Y-80657267D01*
X157885440Y-80654443D01*
X157846958Y-80685183D01*
X157777458Y-80692352D01*
X157715114Y-80660808D01*
X157711901Y-80657101D01*
X157711736Y-80657267D01*
X157675685Y-80621216D01*
X157642200Y-80559893D01*
X157647184Y-80490201D01*
X157675681Y-80445858D01*
X157733224Y-80388316D01*
X157783972Y-80279487D01*
X157790500Y-80229901D01*
X157790499Y-79810100D01*
X157783972Y-79760513D01*
X157733224Y-79651684D01*
X157648316Y-79566776D01*
X157539487Y-79516028D01*
X157539485Y-79516027D01*
X157539486Y-79516027D01*
X157489902Y-79509500D01*
X157130105Y-79509500D01*
X157114386Y-79511569D01*
X157080513Y-79516028D01*
X157080511Y-79516029D01*
X157080509Y-79516029D01*
X156971683Y-79566776D01*
X156886776Y-79651683D01*
X156886776Y-79651684D01*
X156875052Y-79676827D01*
X156871518Y-79684405D01*
X156825345Y-79736844D01*
X156759136Y-79756000D01*
X153210715Y-79756000D01*
X153143676Y-79736315D01*
X153123034Y-79719681D01*
X152400319Y-78996966D01*
X152366834Y-78935643D01*
X152364000Y-78909285D01*
X152364000Y-78649500D01*
X152383685Y-78582461D01*
X152436489Y-78536706D01*
X152488000Y-78525500D01*
X152569750Y-78525500D01*
X152569751Y-78525499D01*
X152588631Y-78521744D01*
X152628229Y-78513868D01*
X152628229Y-78513867D01*
X152628231Y-78513867D01*
X152694552Y-78469552D01*
X152738867Y-78403231D01*
X152738867Y-78403229D01*
X152738868Y-78403229D01*
X152750499Y-78344752D01*
X152750500Y-78344750D01*
X152750500Y-76772175D01*
X152770185Y-76705136D01*
X152786819Y-76684494D01*
X152938294Y-76533019D01*
X152999617Y-76499534D01*
X153025975Y-76496700D01*
X156400500Y-76496700D01*
X156467539Y-76516385D01*
X156513294Y-76569189D01*
X156524500Y-76620700D01*
X156524500Y-76994101D01*
X156504815Y-77061140D01*
X156452011Y-77106895D01*
X156382853Y-77116839D01*
X156325015Y-77092478D01*
X156302841Y-77075464D01*
X156156762Y-77014956D01*
X156156760Y-77014955D01*
X156000001Y-76994318D01*
X155999999Y-76994318D01*
X155843239Y-77014955D01*
X155843237Y-77014956D01*
X155697160Y-77075463D01*
X155571718Y-77171718D01*
X155475463Y-77297160D01*
X155414956Y-77443237D01*
X155414955Y-77443239D01*
X155394318Y-77599998D01*
X155394318Y-77600001D01*
X155414955Y-77756760D01*
X155414956Y-77756762D01*
X155470103Y-77889900D01*
X155475464Y-77902841D01*
X155571718Y-78028282D01*
X155697159Y-78124536D01*
X155843238Y-78185044D01*
X155901012Y-78192650D01*
X155999999Y-78205682D01*
X156000000Y-78205682D01*
X156000001Y-78205682D01*
X156052254Y-78198802D01*
X156156762Y-78185044D01*
X156302841Y-78124536D01*
X156325013Y-78107523D01*
X156390182Y-78082328D01*
X156458627Y-78096366D01*
X156508617Y-78145179D01*
X156524500Y-78205898D01*
X156524500Y-78344752D01*
X156536131Y-78403229D01*
X156536132Y-78403230D01*
X156580447Y-78469552D01*
X156646769Y-78513867D01*
X156646770Y-78513868D01*
X156705247Y-78525499D01*
X156705250Y-78525500D01*
X156705252Y-78525500D01*
X157644750Y-78525500D01*
X157644751Y-78525499D01*
X157663631Y-78521744D01*
X157703229Y-78513868D01*
X157703229Y-78513867D01*
X157703231Y-78513867D01*
X157769552Y-78469552D01*
X157813867Y-78403231D01*
X157813867Y-78403229D01*
X157813868Y-78403229D01*
X157825499Y-78344752D01*
X157825500Y-78344750D01*
X157825500Y-78316611D01*
X157845185Y-78249572D01*
X157897989Y-78203817D01*
X157967147Y-78193873D01*
X158030703Y-78222898D01*
X158037181Y-78228930D01*
X158096774Y-78288523D01*
X158096778Y-78288526D01*
X158096780Y-78288528D01*
X158216874Y-78349719D01*
X158216876Y-78349719D01*
X158216878Y-78349720D01*
X158349998Y-78370804D01*
X158350000Y-78370804D01*
X158350002Y-78370804D01*
X158483121Y-78349720D01*
X158483121Y-78349719D01*
X158483126Y-78349719D01*
X158603220Y-78288528D01*
X158698528Y-78193220D01*
X158759719Y-78073126D01*
X158760310Y-78069399D01*
X158777934Y-77958121D01*
X158807863Y-77894986D01*
X158867174Y-77858054D01*
X158937036Y-77859052D01*
X158988088Y-77889837D01*
X159036774Y-77938523D01*
X159036778Y-77938526D01*
X159036780Y-77938528D01*
X159156874Y-77999719D01*
X159156876Y-77999719D01*
X159156878Y-77999720D01*
X159289998Y-78020804D01*
X159290000Y-78020804D01*
X159290002Y-78020804D01*
X159423121Y-77999720D01*
X159423121Y-77999719D01*
X159423126Y-77999719D01*
X159543220Y-77938528D01*
X159638528Y-77843220D01*
X159638531Y-77843215D01*
X159646179Y-77828206D01*
X159694152Y-77777409D01*
X159756664Y-77760499D01*
X159759895Y-77760499D01*
X159759900Y-77760499D01*
X159809487Y-77753972D01*
X159918316Y-77703224D01*
X160003224Y-77618316D01*
X160053972Y-77509487D01*
X160060500Y-77459901D01*
X160060499Y-77100100D01*
X160053972Y-77050513D01*
X160003224Y-76941684D01*
X159918316Y-76856776D01*
X159809487Y-76806028D01*
X159809485Y-76806027D01*
X159809486Y-76806027D01*
X159759902Y-76799500D01*
X159759901Y-76799500D01*
X159402175Y-76799500D01*
X159335136Y-76779815D01*
X159314494Y-76763181D01*
X159006819Y-76455506D01*
X158973334Y-76394183D01*
X158970500Y-76367825D01*
X158970500Y-76115683D01*
X158965514Y-76077811D01*
X158964068Y-76066827D01*
X158934725Y-76003902D01*
X158924234Y-75934828D01*
X158952753Y-75871044D01*
X159011229Y-75832804D01*
X159047108Y-75827500D01*
X160122241Y-75827500D01*
X160189280Y-75847185D01*
G37*
%TD.AperFunction*%
%TA.AperFunction,Conductor*%
G36*
X135851064Y-81796385D02*
G01*
X135871706Y-81813019D01*
X135936981Y-81878294D01*
X135970466Y-81939617D01*
X135973300Y-81965975D01*
X135973300Y-82217203D01*
X135953615Y-82284242D01*
X135900811Y-82329997D01*
X135831653Y-82339941D01*
X135768097Y-82310916D01*
X135730323Y-82252138D01*
X135725897Y-82229355D01*
X135725500Y-82225331D01*
X135725500Y-82225326D01*
X135718374Y-82189500D01*
X135710967Y-82152264D01*
X135710966Y-82152260D01*
X135701380Y-82137913D01*
X135655601Y-82069399D01*
X135572740Y-82014034D01*
X135572739Y-82014033D01*
X135562585Y-82007249D01*
X135563696Y-82005585D01*
X135521299Y-81971418D01*
X135499235Y-81905124D01*
X135516515Y-81837425D01*
X135567653Y-81789815D01*
X135623156Y-81776700D01*
X135784025Y-81776700D01*
X135851064Y-81796385D01*
G37*
%TD.AperFunction*%
%TA.AperFunction,Conductor*%
G36*
X167147457Y-77887810D02*
G01*
X167157348Y-77891906D01*
X167157350Y-77891908D01*
X167172824Y-77894986D01*
X167225677Y-77905500D01*
X167225680Y-77905500D01*
X167320500Y-77905500D01*
X167387539Y-77925185D01*
X167433294Y-77977989D01*
X167444500Y-78029500D01*
X167444500Y-78124320D01*
X167444500Y-78124322D01*
X167444499Y-78124322D01*
X167458091Y-78192648D01*
X167462192Y-78202549D01*
X167469659Y-78272019D01*
X167462192Y-78297451D01*
X167458091Y-78307351D01*
X167444500Y-78375677D01*
X167444500Y-78375680D01*
X167444500Y-78624320D01*
X167444500Y-78624322D01*
X167444499Y-78624322D01*
X167458091Y-78692648D01*
X167462192Y-78702549D01*
X167469659Y-78772019D01*
X167462192Y-78797451D01*
X167458091Y-78807351D01*
X167444500Y-78875677D01*
X167444500Y-78875680D01*
X167444500Y-79124320D01*
X167444500Y-79124322D01*
X167444499Y-79124322D01*
X167458091Y-79192648D01*
X167462192Y-79202549D01*
X167469659Y-79272019D01*
X167462192Y-79297451D01*
X167458091Y-79307351D01*
X167444500Y-79375677D01*
X167444500Y-79375680D01*
X167444500Y-79624320D01*
X167444500Y-79624322D01*
X167444499Y-79624322D01*
X167458091Y-79692648D01*
X167462192Y-79702549D01*
X167469659Y-79772019D01*
X167462192Y-79797451D01*
X167458091Y-79807351D01*
X167444500Y-79875677D01*
X167444500Y-79875680D01*
X167444500Y-80124320D01*
X167444500Y-80124322D01*
X167444499Y-80124322D01*
X167458091Y-80192648D01*
X167462192Y-80202549D01*
X167469659Y-80272019D01*
X167462192Y-80297451D01*
X167458091Y-80307351D01*
X167444500Y-80375677D01*
X167444500Y-80375680D01*
X167444500Y-80624320D01*
X167444500Y-80624322D01*
X167444499Y-80624322D01*
X167458091Y-80692648D01*
X167462192Y-80702549D01*
X167469659Y-80772019D01*
X167462192Y-80797451D01*
X167458091Y-80807351D01*
X167444500Y-80875677D01*
X167444500Y-80875680D01*
X167444500Y-81124320D01*
X167444500Y-81124322D01*
X167444499Y-81124322D01*
X167458091Y-81192648D01*
X167462192Y-81202549D01*
X167469659Y-81272019D01*
X167462192Y-81297451D01*
X167458091Y-81307351D01*
X167444500Y-81375677D01*
X167444500Y-81470500D01*
X167424815Y-81537539D01*
X167372011Y-81583294D01*
X167320500Y-81594500D01*
X167225678Y-81594500D01*
X167157351Y-81608091D01*
X167147451Y-81612192D01*
X167077981Y-81619659D01*
X167052549Y-81612192D01*
X167042648Y-81608091D01*
X166974322Y-81594500D01*
X166974320Y-81594500D01*
X166725680Y-81594500D01*
X166725678Y-81594500D01*
X166657351Y-81608091D01*
X166647451Y-81612192D01*
X166577981Y-81619659D01*
X166552549Y-81612192D01*
X166542648Y-81608091D01*
X166474322Y-81594500D01*
X166474320Y-81594500D01*
X166225680Y-81594500D01*
X166225678Y-81594500D01*
X166157351Y-81608091D01*
X166147451Y-81612192D01*
X166077981Y-81619659D01*
X166052549Y-81612192D01*
X166042648Y-81608091D01*
X165974322Y-81594500D01*
X165974320Y-81594500D01*
X165725680Y-81594500D01*
X165725678Y-81594500D01*
X165657351Y-81608091D01*
X165647451Y-81612192D01*
X165577981Y-81619659D01*
X165552549Y-81612192D01*
X165542648Y-81608091D01*
X165474322Y-81594500D01*
X165474320Y-81594500D01*
X165225680Y-81594500D01*
X165225678Y-81594500D01*
X165157351Y-81608091D01*
X165147451Y-81612192D01*
X165077981Y-81619659D01*
X165052549Y-81612192D01*
X165042648Y-81608091D01*
X164974322Y-81594500D01*
X164974320Y-81594500D01*
X164725680Y-81594500D01*
X164725678Y-81594500D01*
X164657351Y-81608091D01*
X164647451Y-81612192D01*
X164577981Y-81619659D01*
X164552549Y-81612192D01*
X164542648Y-81608091D01*
X164474322Y-81594500D01*
X164474320Y-81594500D01*
X164225680Y-81594500D01*
X164225678Y-81594500D01*
X164157351Y-81608091D01*
X164147451Y-81612192D01*
X164077981Y-81619659D01*
X164052549Y-81612192D01*
X164042648Y-81608091D01*
X163974322Y-81594500D01*
X163974320Y-81594500D01*
X163879500Y-81594500D01*
X163812461Y-81574815D01*
X163766706Y-81522011D01*
X163755500Y-81470500D01*
X163755500Y-81375677D01*
X163741929Y-81307455D01*
X163741908Y-81307350D01*
X163741906Y-81307348D01*
X163737810Y-81297457D01*
X163730338Y-81227988D01*
X163737810Y-81202543D01*
X163741905Y-81192653D01*
X163741908Y-81192650D01*
X163755500Y-81124320D01*
X163755500Y-80875680D01*
X163755500Y-80875677D01*
X163744919Y-80822489D01*
X163741908Y-80807350D01*
X163741906Y-80807348D01*
X163737810Y-80797457D01*
X163730338Y-80727988D01*
X163737810Y-80702543D01*
X163741905Y-80692653D01*
X163741908Y-80692650D01*
X163750989Y-80646999D01*
X163755500Y-80624322D01*
X163755500Y-80375677D01*
X163742355Y-80309599D01*
X163741908Y-80307350D01*
X163741906Y-80307348D01*
X163737810Y-80297457D01*
X163730338Y-80227988D01*
X163737810Y-80202543D01*
X163741905Y-80192653D01*
X163741908Y-80192650D01*
X163750032Y-80151810D01*
X163755500Y-80124322D01*
X163755500Y-79875677D01*
X163741908Y-79807351D01*
X163737810Y-79797457D01*
X163730338Y-79727988D01*
X163737810Y-79702543D01*
X163741905Y-79692653D01*
X163741908Y-79692650D01*
X163748704Y-79658485D01*
X163755500Y-79624322D01*
X163755500Y-79375677D01*
X163744353Y-79319642D01*
X163741908Y-79307350D01*
X163741906Y-79307348D01*
X163737810Y-79297457D01*
X163730338Y-79227988D01*
X163737810Y-79202543D01*
X163741905Y-79192653D01*
X163741908Y-79192650D01*
X163753729Y-79133224D01*
X163755500Y-79124322D01*
X163755500Y-78875677D01*
X163745292Y-78824362D01*
X163741908Y-78807350D01*
X163741906Y-78807348D01*
X163737810Y-78797457D01*
X163730338Y-78727988D01*
X163737810Y-78702543D01*
X163741905Y-78692653D01*
X163741908Y-78692650D01*
X163751467Y-78644596D01*
X163755500Y-78624322D01*
X163755500Y-78375677D01*
X163741908Y-78307351D01*
X163737810Y-78297457D01*
X163730338Y-78227988D01*
X163737810Y-78202543D01*
X163741905Y-78192653D01*
X163741908Y-78192650D01*
X163751351Y-78145179D01*
X163755500Y-78124322D01*
X163755500Y-78029500D01*
X163775185Y-77962461D01*
X163827989Y-77916706D01*
X163879500Y-77905500D01*
X163974322Y-77905500D01*
X164016252Y-77897159D01*
X164042650Y-77891908D01*
X164042653Y-77891905D01*
X164052543Y-77887810D01*
X164122012Y-77880338D01*
X164147457Y-77887810D01*
X164157348Y-77891906D01*
X164157350Y-77891908D01*
X164172824Y-77894986D01*
X164225677Y-77905500D01*
X164225680Y-77905500D01*
X164474322Y-77905500D01*
X164516252Y-77897159D01*
X164542650Y-77891908D01*
X164542653Y-77891905D01*
X164552543Y-77887810D01*
X164622012Y-77880338D01*
X164647457Y-77887810D01*
X164657348Y-77891906D01*
X164657350Y-77891908D01*
X164672824Y-77894986D01*
X164725677Y-77905500D01*
X164725680Y-77905500D01*
X164974322Y-77905500D01*
X165016252Y-77897159D01*
X165042650Y-77891908D01*
X165042653Y-77891905D01*
X165052543Y-77887810D01*
X165122012Y-77880338D01*
X165147457Y-77887810D01*
X165157348Y-77891906D01*
X165157350Y-77891908D01*
X165172824Y-77894986D01*
X165225677Y-77905500D01*
X165225680Y-77905500D01*
X165474322Y-77905500D01*
X165516252Y-77897159D01*
X165542650Y-77891908D01*
X165542653Y-77891905D01*
X165552543Y-77887810D01*
X165622012Y-77880338D01*
X165647457Y-77887810D01*
X165657348Y-77891906D01*
X165657350Y-77891908D01*
X165672824Y-77894986D01*
X165725677Y-77905500D01*
X165725680Y-77905500D01*
X165974322Y-77905500D01*
X166016252Y-77897159D01*
X166042650Y-77891908D01*
X166042653Y-77891905D01*
X166052543Y-77887810D01*
X166122012Y-77880338D01*
X166147457Y-77887810D01*
X166157348Y-77891906D01*
X166157350Y-77891908D01*
X166172824Y-77894986D01*
X166225677Y-77905500D01*
X166225680Y-77905500D01*
X166474322Y-77905500D01*
X166516252Y-77897159D01*
X166542650Y-77891908D01*
X166542653Y-77891905D01*
X166552543Y-77887810D01*
X166622012Y-77880338D01*
X166647457Y-77887810D01*
X166657348Y-77891906D01*
X166657350Y-77891908D01*
X166672824Y-77894986D01*
X166725677Y-77905500D01*
X166725680Y-77905500D01*
X166974322Y-77905500D01*
X167016252Y-77897159D01*
X167042650Y-77891908D01*
X167042653Y-77891905D01*
X167052543Y-77887810D01*
X167122012Y-77880338D01*
X167147457Y-77887810D01*
G37*
%TD.AperFunction*%
%TA.AperFunction,Conductor*%
G36*
X124827539Y-79949759D02*
G01*
X124873294Y-80002563D01*
X124884500Y-80054074D01*
X124884500Y-80174316D01*
X124890931Y-80223171D01*
X124938155Y-80324443D01*
X124940935Y-80330404D01*
X125024596Y-80414065D01*
X125131827Y-80464068D01*
X125180683Y-80470500D01*
X125180684Y-80470500D01*
X125529317Y-80470500D01*
X125553410Y-80467328D01*
X125578173Y-80464068D01*
X125685404Y-80414065D01*
X125769065Y-80330404D01*
X125769065Y-80330403D01*
X125776736Y-80322733D01*
X125779564Y-80325561D01*
X125817977Y-80294843D01*
X125887474Y-80287635D01*
X125949835Y-80319143D01*
X125953093Y-80322903D01*
X125953264Y-80322733D01*
X125960935Y-80330404D01*
X126044596Y-80414065D01*
X126151827Y-80464068D01*
X126151828Y-80464068D01*
X126153141Y-80464451D01*
X126154462Y-80465296D01*
X126160425Y-80468077D01*
X126160053Y-80468874D01*
X126211993Y-80502111D01*
X126241141Y-80565610D01*
X126231332Y-80634788D01*
X126230820Y-80635900D01*
X126196027Y-80710512D01*
X126196027Y-80710513D01*
X126189500Y-80760098D01*
X126189500Y-80760099D01*
X126189500Y-80967415D01*
X126189501Y-81142500D01*
X126169817Y-81209539D01*
X126117013Y-81255294D01*
X126065501Y-81266500D01*
X124584611Y-81266500D01*
X124517572Y-81246815D01*
X124471817Y-81194011D01*
X124461873Y-81124853D01*
X124490898Y-81061297D01*
X124496930Y-81054819D01*
X124498523Y-81053225D01*
X124498528Y-81053220D01*
X124559719Y-80933126D01*
X124559841Y-80932354D01*
X124580804Y-80800002D01*
X124580804Y-80799997D01*
X124559720Y-80666878D01*
X124559719Y-80666876D01*
X124559719Y-80666874D01*
X124498528Y-80546780D01*
X124498526Y-80546778D01*
X124498523Y-80546774D01*
X124403225Y-80451476D01*
X124403221Y-80451473D01*
X124403220Y-80451472D01*
X124283126Y-80390281D01*
X124283124Y-80390280D01*
X124283121Y-80390279D01*
X124150002Y-80369196D01*
X124150000Y-80369196D01*
X124109924Y-80375543D01*
X124019174Y-80389916D01*
X123949880Y-80380960D01*
X123896429Y-80335963D01*
X123875790Y-80269212D01*
X123894516Y-80201898D01*
X123912092Y-80179765D01*
X124125465Y-79966393D01*
X124186788Y-79932908D01*
X124213146Y-79930074D01*
X124760500Y-79930074D01*
X124827539Y-79949759D01*
G37*
%TD.AperFunction*%
%TA.AperFunction,Conductor*%
G36*
X171784594Y-75847185D02*
G01*
X171830349Y-75899989D01*
X171840293Y-75969147D01*
X171829938Y-76003901D01*
X171816984Y-76031682D01*
X171795931Y-76076828D01*
X171789500Y-76125683D01*
X171789500Y-76274167D01*
X171769815Y-76341206D01*
X171753181Y-76361848D01*
X171607041Y-76507987D01*
X171607035Y-76507995D01*
X171567482Y-76576504D01*
X171567479Y-76576509D01*
X171557750Y-76612819D01*
X171547925Y-76649488D01*
X171547000Y-76652939D01*
X171547000Y-77008834D01*
X171527315Y-77075873D01*
X171495889Y-77109149D01*
X171494250Y-77110339D01*
X171400346Y-77204243D01*
X171400343Y-77204248D01*
X171400342Y-77204249D01*
X171380244Y-77243692D01*
X171340047Y-77322582D01*
X171324500Y-77420748D01*
X171324500Y-77999251D01*
X171340047Y-78097417D01*
X171356699Y-78130098D01*
X171400342Y-78215751D01*
X171400344Y-78215753D01*
X171400346Y-78215756D01*
X171494243Y-78309653D01*
X171494245Y-78309654D01*
X171494249Y-78309658D01*
X171612580Y-78369951D01*
X171612581Y-78369951D01*
X171612583Y-78369952D01*
X171612582Y-78369952D01*
X171710749Y-78385500D01*
X171710754Y-78385500D01*
X172214251Y-78385500D01*
X172312417Y-78369952D01*
X172312418Y-78369951D01*
X172312420Y-78369951D01*
X172430751Y-78309658D01*
X172524658Y-78215751D01*
X172584951Y-78097420D01*
X172584951Y-78097418D01*
X172584952Y-78097417D01*
X172600500Y-77999251D01*
X172600500Y-77420748D01*
X172584952Y-77322582D01*
X172584951Y-77322580D01*
X172524658Y-77204249D01*
X172524654Y-77204245D01*
X172524653Y-77204243D01*
X172430756Y-77110346D01*
X172430748Y-77110340D01*
X172413234Y-77101416D01*
X172362440Y-77053441D01*
X172345646Y-76985619D01*
X172368185Y-76919485D01*
X172422901Y-76876035D01*
X172453341Y-76867995D01*
X172483173Y-76864068D01*
X172590404Y-76814065D01*
X172674065Y-76730404D01*
X172713618Y-76645580D01*
X172759790Y-76593143D01*
X172826984Y-76573991D01*
X172893865Y-76594207D01*
X172939200Y-76647372D01*
X172950000Y-76697987D01*
X172950000Y-80176000D01*
X172930315Y-80243039D01*
X172877511Y-80288794D01*
X172826000Y-80300000D01*
X168771650Y-80300000D01*
X168704611Y-80280315D01*
X168658856Y-80227511D01*
X168648912Y-80158353D01*
X168650032Y-80151810D01*
X168652957Y-80137101D01*
X168655500Y-80124320D01*
X168655500Y-79875680D01*
X168655500Y-79875677D01*
X168641908Y-79807351D01*
X168637810Y-79797457D01*
X168630338Y-79727988D01*
X168637810Y-79702543D01*
X168641905Y-79692653D01*
X168641908Y-79692650D01*
X168648704Y-79658485D01*
X168655500Y-79624322D01*
X168655500Y-79400700D01*
X168675185Y-79333661D01*
X168727989Y-79287906D01*
X168779500Y-79276700D01*
X168876923Y-79276700D01*
X168943962Y-79296385D01*
X168989303Y-79348293D01*
X169015935Y-79405404D01*
X169099596Y-79489065D01*
X169206827Y-79539068D01*
X169255683Y-79545500D01*
X169255684Y-79545500D01*
X169604317Y-79545500D01*
X169620601Y-79543356D01*
X169653173Y-79539068D01*
X169760404Y-79489065D01*
X169844065Y-79405404D01*
X169844065Y-79405403D01*
X169851736Y-79397733D01*
X169854564Y-79400561D01*
X169892977Y-79369843D01*
X169962474Y-79362635D01*
X170024835Y-79394143D01*
X170028093Y-79397903D01*
X170028264Y-79397733D01*
X170035935Y-79405404D01*
X170119596Y-79489065D01*
X170226827Y-79539068D01*
X170275683Y-79545500D01*
X170275684Y-79545500D01*
X170624317Y-79545500D01*
X170640601Y-79543356D01*
X170673173Y-79539068D01*
X170780404Y-79489065D01*
X170835580Y-79433889D01*
X170896903Y-79400404D01*
X170966595Y-79405388D01*
X170975238Y-79409187D01*
X170976876Y-79409720D01*
X171109998Y-79430804D01*
X171110000Y-79430804D01*
X171110002Y-79430804D01*
X171243121Y-79409720D01*
X171243121Y-79409719D01*
X171243126Y-79409719D01*
X171363220Y-79348528D01*
X171458528Y-79253220D01*
X171519719Y-79133126D01*
X171519950Y-79131666D01*
X171540804Y-79000002D01*
X171540804Y-78999997D01*
X171519720Y-78866878D01*
X171519719Y-78866876D01*
X171519719Y-78866874D01*
X171458528Y-78746780D01*
X171458526Y-78746778D01*
X171458523Y-78746774D01*
X171363225Y-78651476D01*
X171363221Y-78651473D01*
X171363220Y-78651472D01*
X171243126Y-78590281D01*
X171243124Y-78590280D01*
X171243121Y-78590279D01*
X171110002Y-78569196D01*
X171109998Y-78569196D01*
X170976875Y-78590280D01*
X170946430Y-78605792D01*
X170877760Y-78618687D01*
X170813021Y-78592409D01*
X170802458Y-78582989D01*
X170798831Y-78579362D01*
X170780404Y-78560935D01*
X170780402Y-78560934D01*
X170780401Y-78560933D01*
X170773472Y-78556081D01*
X170729849Y-78501503D01*
X170722657Y-78432005D01*
X170754181Y-78369651D01*
X170788299Y-78344026D01*
X170855751Y-78309658D01*
X170949658Y-78215751D01*
X171009951Y-78097420D01*
X171009951Y-78097418D01*
X171009952Y-78097417D01*
X171025500Y-77999251D01*
X171025500Y-77420748D01*
X171009952Y-77322582D01*
X171009951Y-77322580D01*
X170949658Y-77204249D01*
X170949654Y-77204245D01*
X170949653Y-77204243D01*
X170855756Y-77110346D01*
X170855753Y-77110344D01*
X170855751Y-77110342D01*
X170737420Y-77050049D01*
X170737419Y-77050048D01*
X170737416Y-77050047D01*
X170737417Y-77050047D01*
X170639251Y-77034500D01*
X170639246Y-77034500D01*
X170135754Y-77034500D01*
X170135749Y-77034500D01*
X170037582Y-77050047D01*
X169965651Y-77086699D01*
X169919249Y-77110342D01*
X169919248Y-77110343D01*
X169919243Y-77110346D01*
X169825346Y-77204243D01*
X169825343Y-77204248D01*
X169825342Y-77204249D01*
X169766837Y-77319070D01*
X169765048Y-77322582D01*
X169764079Y-77328700D01*
X169734148Y-77391835D01*
X169674836Y-77428765D01*
X169641606Y-77433300D01*
X168303566Y-77433300D01*
X168233196Y-77452155D01*
X168233195Y-77452155D01*
X168170107Y-77488581D01*
X168170102Y-77488584D01*
X168126142Y-77532545D01*
X168030504Y-77628182D01*
X167969184Y-77661666D01*
X167942825Y-77664500D01*
X167809500Y-77664500D01*
X167742461Y-77644815D01*
X167696706Y-77592011D01*
X167685500Y-77540500D01*
X167685500Y-76905677D01*
X167685499Y-76905675D01*
X167674165Y-76848691D01*
X167680392Y-76779099D01*
X167723255Y-76723922D01*
X167789145Y-76700678D01*
X167795782Y-76700500D01*
X168726156Y-76700500D01*
X168793195Y-76720185D01*
X168828643Y-76760765D01*
X168830553Y-76759429D01*
X168836775Y-76768315D01*
X168836776Y-76768316D01*
X168921684Y-76853224D01*
X169030513Y-76903972D01*
X169080099Y-76910500D01*
X169439900Y-76910499D01*
X169489487Y-76903972D01*
X169598316Y-76853224D01*
X169683224Y-76768316D01*
X169733972Y-76659487D01*
X169740500Y-76609901D01*
X169740499Y-76190100D01*
X169733972Y-76140513D01*
X169683224Y-76031684D01*
X169683223Y-76031683D01*
X169683223Y-76031682D01*
X169677002Y-76022798D01*
X169680454Y-76020380D01*
X169657236Y-75977858D01*
X169662220Y-75908166D01*
X169704092Y-75852233D01*
X169769556Y-75827816D01*
X169778402Y-75827500D01*
X171717555Y-75827500D01*
X171784594Y-75847185D01*
G37*
%TD.AperFunction*%
%TA.AperFunction,Conductor*%
G36*
X117618637Y-75847185D02*
G01*
X117664392Y-75899989D01*
X117674336Y-75969147D01*
X117645311Y-76032703D01*
X117639279Y-76039181D01*
X117596776Y-76081683D01*
X117546027Y-76190514D01*
X117539500Y-76240097D01*
X117539500Y-76599894D01*
X117539501Y-76599900D01*
X117546028Y-76649487D01*
X117546029Y-76649489D01*
X117546029Y-76649490D01*
X117591223Y-76746408D01*
X117596776Y-76758316D01*
X117681684Y-76843224D01*
X117790513Y-76893972D01*
X117840099Y-76900500D01*
X118259900Y-76900499D01*
X118309487Y-76893972D01*
X118418316Y-76843224D01*
X118503224Y-76758316D01*
X118503225Y-76758311D01*
X118507920Y-76751609D01*
X118562497Y-76707984D01*
X118609495Y-76698732D01*
X118900093Y-76698732D01*
X118900095Y-76698732D01*
X118938408Y-76688466D01*
X119008256Y-76690129D01*
X119066119Y-76729292D01*
X119093623Y-76793520D01*
X119094500Y-76808241D01*
X119094500Y-77733260D01*
X119104426Y-77801391D01*
X119104427Y-77801393D01*
X119150181Y-77894986D01*
X119155803Y-77906485D01*
X119238514Y-77989196D01*
X119238515Y-77989196D01*
X119238517Y-77989198D01*
X119343607Y-78040573D01*
X119377673Y-78045536D01*
X119411739Y-78050500D01*
X119411740Y-78050500D01*
X119778261Y-78050500D01*
X119800971Y-78047191D01*
X119846393Y-78040573D01*
X119951483Y-77989198D01*
X120034198Y-77906483D01*
X120085573Y-77801393D01*
X120095500Y-77733260D01*
X120095500Y-76366740D01*
X120085573Y-76298607D01*
X120034198Y-76193517D01*
X120034196Y-76193515D01*
X120034196Y-76193514D01*
X119951485Y-76110803D01*
X119889188Y-76080348D01*
X119853498Y-76062900D01*
X119801916Y-76015773D01*
X119784002Y-75948239D01*
X119805443Y-75881740D01*
X119859432Y-75837390D01*
X119907959Y-75827500D01*
X120552041Y-75827500D01*
X120619080Y-75847185D01*
X120664835Y-75899989D01*
X120674779Y-75969147D01*
X120645754Y-76032703D01*
X120606501Y-76062901D01*
X120508514Y-76110803D01*
X120425803Y-76193514D01*
X120374426Y-76298608D01*
X120364500Y-76366739D01*
X120364500Y-77733260D01*
X120374426Y-77801391D01*
X120374427Y-77801393D01*
X120420181Y-77894986D01*
X120425803Y-77906485D01*
X120508514Y-77989196D01*
X120508515Y-77989196D01*
X120508517Y-77989198D01*
X120613607Y-78040573D01*
X120647673Y-78045536D01*
X120681739Y-78050500D01*
X120937268Y-78050500D01*
X121004307Y-78070185D01*
X121050062Y-78122989D01*
X121061268Y-78174500D01*
X121061268Y-78725621D01*
X121041583Y-78792660D01*
X121024949Y-78813302D01*
X120991476Y-78846774D01*
X120991473Y-78846778D01*
X120991472Y-78846780D01*
X120937930Y-78951863D01*
X120930279Y-78966878D01*
X120909196Y-79099997D01*
X120909196Y-79100002D01*
X120930279Y-79233121D01*
X120930280Y-79233124D01*
X120930281Y-79233126D01*
X120936144Y-79244633D01*
X120949040Y-79313300D01*
X120922764Y-79378041D01*
X120865658Y-79418298D01*
X120825659Y-79424926D01*
X117498145Y-79424926D01*
X117431106Y-79405241D01*
X117410464Y-79388607D01*
X117161857Y-79140000D01*
X116877930Y-78856072D01*
X116808145Y-78815782D01*
X116808146Y-78815782D01*
X116776680Y-78807351D01*
X116730310Y-78794926D01*
X116730307Y-78794926D01*
X116666804Y-78794926D01*
X116599765Y-78775241D01*
X116554010Y-78722437D01*
X116544066Y-78653279D01*
X116551413Y-78628619D01*
X116551318Y-78628592D01*
X116553972Y-78619486D01*
X116555775Y-78605792D01*
X116560500Y-78569901D01*
X116560499Y-78150100D01*
X116553972Y-78100513D01*
X116503224Y-77991684D01*
X116418316Y-77906776D01*
X116363763Y-77881337D01*
X116311325Y-77835165D01*
X116292173Y-77767972D01*
X116312389Y-77701091D01*
X116334228Y-77677542D01*
X116333848Y-77677162D01*
X116370606Y-77640404D01*
X116616086Y-77394922D01*
X116677405Y-77361440D01*
X116684367Y-77360132D01*
X116691493Y-77359003D01*
X116691497Y-77359004D01*
X116824623Y-77337919D01*
X116944717Y-77276728D01*
X117040025Y-77181420D01*
X117101216Y-77061326D01*
X117101230Y-77061240D01*
X117122301Y-76928202D01*
X117122301Y-76928197D01*
X117101217Y-76795078D01*
X117101216Y-76795076D01*
X117101216Y-76795074D01*
X117040025Y-76674980D01*
X117040023Y-76674978D01*
X117040020Y-76674974D01*
X116944722Y-76579676D01*
X116944718Y-76579673D01*
X116944717Y-76579672D01*
X116824623Y-76518481D01*
X116824621Y-76518480D01*
X116824618Y-76518479D01*
X116691499Y-76497396D01*
X116691495Y-76497396D01*
X116558375Y-76518479D01*
X116558371Y-76518480D01*
X116558371Y-76518481D01*
X116547524Y-76524008D01*
X116438275Y-76579673D01*
X116438271Y-76579676D01*
X116342973Y-76674974D01*
X116342970Y-76674978D01*
X116281776Y-76795078D01*
X116259563Y-76935328D01*
X116229634Y-76998463D01*
X116224772Y-77003611D01*
X116165153Y-77063231D01*
X116141359Y-77087025D01*
X116080036Y-77120510D01*
X116010344Y-77115526D01*
X115954410Y-77073655D01*
X115929993Y-77008191D01*
X115931204Y-76979946D01*
X115939413Y-76928116D01*
X115939413Y-76928111D01*
X115918329Y-76794992D01*
X115918328Y-76794990D01*
X115918328Y-76794988D01*
X115857137Y-76674894D01*
X115857135Y-76674892D01*
X115857132Y-76674888D01*
X115761834Y-76579590D01*
X115761830Y-76579587D01*
X115761829Y-76579586D01*
X115641735Y-76518395D01*
X115641733Y-76518394D01*
X115641730Y-76518393D01*
X115501479Y-76496180D01*
X115438344Y-76466251D01*
X115433213Y-76461405D01*
X115370393Y-76398585D01*
X115370392Y-76398584D01*
X115370387Y-76398580D01*
X115364995Y-76395467D01*
X115316782Y-76344898D01*
X115303000Y-76288083D01*
X115303000Y-76235249D01*
X115302999Y-76235247D01*
X115291368Y-76176770D01*
X115291367Y-76176769D01*
X115247052Y-76110447D01*
X115180731Y-76066133D01*
X115180555Y-76066060D01*
X115180229Y-76065797D01*
X115170577Y-76059348D01*
X115171154Y-76058483D01*
X115126153Y-76022217D01*
X115104090Y-75955923D01*
X115121371Y-75888224D01*
X115172509Y-75840615D01*
X115228011Y-75827500D01*
X117551598Y-75827500D01*
X117618637Y-75847185D01*
G37*
%TD.AperFunction*%
%TA.AperFunction,Conductor*%
G36*
X127650500Y-75847185D02*
G01*
X127696255Y-75899989D01*
X127706400Y-75967685D01*
X127699500Y-76020098D01*
X127699500Y-76415981D01*
X127679815Y-76483020D01*
X127663181Y-76503662D01*
X127032680Y-77134163D01*
X126971357Y-77167648D01*
X126901665Y-77162664D01*
X126857318Y-77134163D01*
X126506819Y-76783664D01*
X126473334Y-76722341D01*
X126470500Y-76695983D01*
X126470500Y-76640683D01*
X126464068Y-76591828D01*
X126464068Y-76591827D01*
X126414065Y-76484596D01*
X126330404Y-76400935D01*
X126223173Y-76350932D01*
X126223171Y-76350931D01*
X126223172Y-76350931D01*
X126174317Y-76344500D01*
X126174316Y-76344500D01*
X125725684Y-76344500D01*
X125725683Y-76344500D01*
X125676828Y-76350931D01*
X125569595Y-76400935D01*
X125485935Y-76484595D01*
X125435931Y-76591828D01*
X125429500Y-76640683D01*
X125429500Y-76989316D01*
X125435931Y-77038171D01*
X125485935Y-77145404D01*
X125511350Y-77170819D01*
X125544835Y-77232142D01*
X125539851Y-77301834D01*
X125497979Y-77357767D01*
X125432515Y-77382184D01*
X125423669Y-77382500D01*
X125322358Y-77382500D01*
X125269954Y-77370882D01*
X125184487Y-77331028D01*
X125184485Y-77331027D01*
X125184486Y-77331027D01*
X125134901Y-77324500D01*
X124715105Y-77324500D01*
X124699386Y-77326569D01*
X124665513Y-77331028D01*
X124665511Y-77331029D01*
X124665509Y-77331029D01*
X124556683Y-77381776D01*
X124471776Y-77466683D01*
X124421027Y-77575514D01*
X124414500Y-77625097D01*
X124414500Y-77984894D01*
X124414776Y-77986990D01*
X124421028Y-78034487D01*
X124421029Y-78034489D01*
X124421029Y-78034490D01*
X124456371Y-78110281D01*
X124471776Y-78143316D01*
X124556684Y-78228224D01*
X124665513Y-78278972D01*
X124715099Y-78285500D01*
X124835670Y-78285499D01*
X124902708Y-78305183D01*
X124948463Y-78357987D01*
X124958407Y-78427145D01*
X124931782Y-78485447D01*
X124932157Y-78485710D01*
X124930734Y-78487741D01*
X124929383Y-78490701D01*
X124926474Y-78493825D01*
X124925936Y-78494594D01*
X124875931Y-78601828D01*
X124869500Y-78650683D01*
X124869500Y-78855926D01*
X124849815Y-78922965D01*
X124797011Y-78968720D01*
X124745500Y-78979926D01*
X123935272Y-78979926D01*
X123854690Y-78979926D01*
X123836656Y-78984757D01*
X123766808Y-78983095D01*
X123708946Y-78943932D01*
X123681442Y-78879704D01*
X123693029Y-78810802D01*
X123716882Y-78777303D01*
X123813041Y-78681145D01*
X123849737Y-78617587D01*
X123868732Y-78546696D01*
X123868732Y-78473304D01*
X123868732Y-77884983D01*
X123881332Y-77830522D01*
X123895573Y-77801393D01*
X123905500Y-77733260D01*
X123905500Y-76366740D01*
X123895573Y-76298607D01*
X123844198Y-76193517D01*
X123844196Y-76193515D01*
X123844196Y-76193514D01*
X123761485Y-76110803D01*
X123699188Y-76080348D01*
X123663498Y-76062900D01*
X123611916Y-76015773D01*
X123594002Y-75948239D01*
X123615443Y-75881740D01*
X123669432Y-75837390D01*
X123717959Y-75827500D01*
X127583461Y-75827500D01*
X127650500Y-75847185D01*
G37*
%TD.AperFunction*%
%TA.AperFunction,Conductor*%
G36*
X134698602Y-75847185D02*
G01*
X134744357Y-75899989D01*
X134754502Y-75967684D01*
X134749500Y-76005681D01*
X134749500Y-76454316D01*
X134755931Y-76503171D01*
X134783437Y-76562158D01*
X134805935Y-76610404D01*
X134889596Y-76694065D01*
X134996827Y-76744068D01*
X135045683Y-76750500D01*
X135045684Y-76750500D01*
X135297825Y-76750500D01*
X135364864Y-76770185D01*
X135385506Y-76786819D01*
X135616981Y-77018294D01*
X135650466Y-77079617D01*
X135653300Y-77105975D01*
X135653300Y-77878963D01*
X135633615Y-77946002D01*
X135580811Y-77991757D01*
X135511653Y-78001701D01*
X135505113Y-78000581D01*
X135499678Y-77999500D01*
X135499674Y-77999500D01*
X134675326Y-77999500D01*
X134674500Y-77999500D01*
X134607461Y-77979815D01*
X134561706Y-77927011D01*
X134550500Y-77875500D01*
X134550500Y-77050323D01*
X134550499Y-77050321D01*
X134550444Y-77050047D01*
X134535966Y-76977260D01*
X134480601Y-76894399D01*
X134404011Y-76843224D01*
X134397739Y-76839033D01*
X134397735Y-76839032D01*
X134324677Y-76824500D01*
X134324674Y-76824500D01*
X134175326Y-76824500D01*
X134175324Y-76824500D01*
X134102259Y-76839033D01*
X134097452Y-76841025D01*
X134027983Y-76848494D01*
X134002548Y-76841025D01*
X133997740Y-76839033D01*
X133924676Y-76824500D01*
X133924674Y-76824500D01*
X133826402Y-76824500D01*
X133759363Y-76804815D01*
X133713608Y-76752011D01*
X133703664Y-76682853D01*
X133732689Y-76619297D01*
X133738721Y-76612819D01*
X133741639Y-76609901D01*
X133753224Y-76598316D01*
X133803972Y-76489487D01*
X133810500Y-76439901D01*
X133810499Y-76020100D01*
X133803972Y-75970513D01*
X133803971Y-75970511D01*
X133803599Y-75967682D01*
X133814367Y-75898647D01*
X133860749Y-75846392D01*
X133926539Y-75827500D01*
X134631563Y-75827500D01*
X134698602Y-75847185D01*
G37*
%TD.AperFunction*%
%TA.AperFunction,Conductor*%
G36*
X130866062Y-75847185D02*
G01*
X130911817Y-75899989D01*
X130921761Y-75969147D01*
X130892736Y-76032703D01*
X130886704Y-76039181D01*
X130848077Y-76077807D01*
X130848074Y-76077811D01*
X130786880Y-76197911D01*
X130766337Y-76327621D01*
X130765797Y-76331033D01*
X130768949Y-76350932D01*
X130775428Y-76391844D01*
X130773274Y-76433004D01*
X130774361Y-76433148D01*
X130773300Y-76441208D01*
X130773300Y-76700500D01*
X130753615Y-76767539D01*
X130700811Y-76813294D01*
X130649300Y-76824500D01*
X130575324Y-76824500D01*
X130502259Y-76839033D01*
X130497452Y-76841025D01*
X130427983Y-76848494D01*
X130402548Y-76841025D01*
X130397740Y-76839033D01*
X130324676Y-76824500D01*
X130324674Y-76824500D01*
X130300611Y-76824500D01*
X130233572Y-76804815D01*
X130187817Y-76752011D01*
X130177873Y-76682853D01*
X130178138Y-76681100D01*
X130178923Y-76676144D01*
X130178923Y-76676142D01*
X130157839Y-76543023D01*
X130157838Y-76543021D01*
X130157838Y-76543019D01*
X130096647Y-76422925D01*
X130096645Y-76422923D01*
X130096642Y-76422919D01*
X130001344Y-76327621D01*
X130001340Y-76327618D01*
X130001339Y-76327617D01*
X129881245Y-76266426D01*
X129881243Y-76266425D01*
X129881240Y-76266424D01*
X129748121Y-76245341D01*
X129748117Y-76245341D01*
X129614997Y-76266424D01*
X129614993Y-76266425D01*
X129614993Y-76266426D01*
X129578335Y-76285104D01*
X129494897Y-76327618D01*
X129494893Y-76327621D01*
X129399595Y-76422919D01*
X129399592Y-76422923D01*
X129399591Y-76422925D01*
X129353082Y-76514205D01*
X129338398Y-76543023D01*
X129316185Y-76683273D01*
X129286256Y-76746408D01*
X129281394Y-76751555D01*
X129241419Y-76791531D01*
X129180097Y-76825017D01*
X129129550Y-76825469D01*
X129124678Y-76824500D01*
X129124674Y-76824500D01*
X128975326Y-76824500D01*
X128975323Y-76824500D01*
X128902264Y-76839032D01*
X128902260Y-76839033D01*
X128819399Y-76894399D01*
X128764033Y-76977260D01*
X128764032Y-76977264D01*
X128749500Y-77050321D01*
X128749500Y-77286667D01*
X128729815Y-77353706D01*
X128713181Y-77374348D01*
X128709541Y-77377987D01*
X128709535Y-77377995D01*
X128669982Y-77446504D01*
X128669979Y-77446509D01*
X128663658Y-77470099D01*
X128653048Y-77509699D01*
X128649500Y-77522939D01*
X128649500Y-77875500D01*
X128629815Y-77942539D01*
X128577011Y-77988294D01*
X128525500Y-77999500D01*
X128372704Y-77999500D01*
X128340610Y-77995275D01*
X128338911Y-77994819D01*
X128338910Y-77994819D01*
X128255616Y-77972500D01*
X128255614Y-77972500D01*
X127757017Y-77972500D01*
X127689978Y-77952815D01*
X127669336Y-77936181D01*
X127521818Y-77788663D01*
X127488333Y-77727340D01*
X127485499Y-77700982D01*
X127485499Y-77659017D01*
X127505184Y-77591978D01*
X127521818Y-77571336D01*
X127921436Y-77171718D01*
X128321793Y-76771360D01*
X128383114Y-76737877D01*
X128393271Y-76736106D01*
X128409487Y-76733972D01*
X128518316Y-76683224D01*
X128603224Y-76598316D01*
X128653972Y-76489487D01*
X128660500Y-76439901D01*
X128660499Y-76020100D01*
X128653972Y-75970513D01*
X128653971Y-75970511D01*
X128653599Y-75967682D01*
X128664367Y-75898647D01*
X128710749Y-75846392D01*
X128776539Y-75827500D01*
X130799023Y-75827500D01*
X130866062Y-75847185D01*
G37*
%TD.AperFunction*%
%TD*%
M02*
