M48
; DRILL file {KiCad 8.0.4} date 2024-09-10T00:37:36+0200
; FORMAT={-:-/ absolute / inch / decimal}
; #@! TF.CreationDate,2024-09-10T00:37:36+02:00
; #@! TF.GenerationSoftware,Kicad,Pcbnew,8.0.4
; #@! TF.FileFunction,Plated,1,4,PTH
FMAT,2
INCH
; #@! TA.AperFunction,Plated,PTH,ViaDrill
T1C0.0100
; #@! TA.AperFunction,Plated,PTH,ViaDrill
T2C0.0157
; #@! TA.AperFunction,Plated,PTH,ComponentDrill
T3C0.0157
%
G90
G05
T1
X4.3356Y-3.0061
X4.4547Y-3.3287
X4.5453Y-3.0866
X4.5476Y-3.0287
X4.5942Y-3.0287
X4.6222Y-3.1037
X4.6257Y-3.0453
X4.6807Y-3.2138
X4.6887Y-2.9997
X4.7008Y-3.1083
X4.7402Y-3.2402
X4.7772Y-3.1142
X4.7772Y-3.2189
X4.8146Y-3.1157
X4.8201Y-3.228
X4.8484Y-3.1181
X4.85Y-3.2385
X4.8878Y-3.1811
X4.9283Y-3.1878
X4.9669Y-3.3122
X4.9996Y-2.9992
X5.0074Y-3.1633
X5.0091Y-3.0976
X5.0787Y-3.3559
X5.0883Y-3.2848
X5.0915Y-3.1852
X5.0965Y-2.9942
X5.1073Y-3.3596
X5.1082Y-3.0187
X5.113Y-3.0758
X5.1652Y-3.0052
X5.1669Y-3.3685
X5.1969Y-3.0039
X5.1969Y-3.1082
X5.2303Y-3.0872
X5.2319Y-3.0004
X5.2414Y-3.1082
X5.25Y-3.2705
X5.25Y-3.3701
X5.2669Y-3.2008
X5.2701Y-3.284
X5.2722Y-3.1247
X5.2771Y-3.1469
X5.2772Y-3.2295
X5.2776Y-3.0886
X5.278Y-3.1725
X5.2917Y-3.0146
X5.3142Y-3.3796
X5.3173Y-3.3543
X5.3761Y-3.0045
X5.4441Y-3.1358
X5.4496Y-3.3402
X5.5228Y-3.189
X5.7323Y-2.999
X5.7756Y-3.0049
X5.8127Y-3.1916
X5.8179Y-3.3278
X5.8435Y-3.3307
X6.0913Y-3.1917
X6.0929Y-3.0921
X6.1965Y-3.0004
X6.2343Y-3.0685
X6.2484Y-3.1476
X6.2571Y-3.1906
X6.2657Y-3.3543
X6.2677Y-3.3091
X6.2713Y-3.0547
X6.3417Y-3.0276
X6.3906Y-3.0236
X6.3906Y-3.0713
X6.5177Y-3.3798
X6.55Y-3.0028
X6.6161Y-3.1772
X6.6209Y-3.237
X6.624Y-3.0354
X6.6555Y-3.0787
X6.7083Y-3.1488
X6.7134Y-3.3685
X6.726Y-3.2433
X6.7366Y-3.1102
X6.739Y-3.15
X6.7567Y-3.2295
X6.7626Y-3.1492
X6.7717Y-3.2843
X6.7791Y-3.2295
X6.7972Y-3.0929
X6.7972Y-3.1224
X6.8012Y-3.2303
T2
X4.3789Y-3.0787
X4.4587Y-3.2598
X5.5896Y-3.1235
X5.6831Y-3.124
X5.6841Y-3.1995
X5.687Y-3.1594
X6.1417Y-3.0551
X6.1969Y-3.3199
T3
X6.4921Y-3.1398
X6.5197Y-3.1122
X6.5197Y-3.1673
X6.5472Y-3.1398
M30
