%TF.GenerationSoftware,KiCad,Pcbnew,8.0.4*%
%TF.CreationDate,2024-09-10T00:37:34+02:00*%
%TF.ProjectId,ESP32_PICO_LED,45535033-325f-4504-9943-4f5f4c45442e,rev?*%
%TF.SameCoordinates,Original*%
%TF.FileFunction,Legend,Top*%
%TF.FilePolarity,Positive*%
%FSLAX46Y46*%
G04 Gerber Fmt 4.6, Leading zero omitted, Abs format (unit mm)*
G04 Created by KiCad (PCBNEW 8.0.4) date 2024-09-10 00:37:34*
%MOMM*%
%LPD*%
G01*
G04 APERTURE LIST*
%ADD10C,0.090000*%
%ADD11C,0.125000*%
%ADD12C,0.120000*%
%ADD13C,0.150000*%
%ADD14C,0.200000*%
%ADD15C,0.127000*%
%ADD16C,0.300000*%
G04 APERTURE END LIST*
D10*
X154403257Y-82734129D02*
X154403257Y-82234129D01*
X154403257Y-82234129D02*
X154522305Y-82234129D01*
X154522305Y-82234129D02*
X154593733Y-82257939D01*
X154593733Y-82257939D02*
X154641352Y-82305558D01*
X154641352Y-82305558D02*
X154665162Y-82353177D01*
X154665162Y-82353177D02*
X154688971Y-82448415D01*
X154688971Y-82448415D02*
X154688971Y-82519843D01*
X154688971Y-82519843D02*
X154665162Y-82615081D01*
X154665162Y-82615081D02*
X154641352Y-82662700D01*
X154641352Y-82662700D02*
X154593733Y-82710320D01*
X154593733Y-82710320D02*
X154522305Y-82734129D01*
X154522305Y-82734129D02*
X154403257Y-82734129D01*
X154903257Y-82543653D02*
X155284210Y-82543653D01*
X115797224Y-84805075D02*
X115821034Y-84733647D01*
X115821034Y-84733647D02*
X115844843Y-84709837D01*
X115844843Y-84709837D02*
X115892462Y-84686028D01*
X115892462Y-84686028D02*
X115963891Y-84686028D01*
X115963891Y-84686028D02*
X116011510Y-84709837D01*
X116011510Y-84709837D02*
X116035320Y-84733647D01*
X116035320Y-84733647D02*
X116059129Y-84781266D01*
X116059129Y-84781266D02*
X116059129Y-84971742D01*
X116059129Y-84971742D02*
X115559129Y-84971742D01*
X115559129Y-84971742D02*
X115559129Y-84805075D01*
X115559129Y-84805075D02*
X115582939Y-84757456D01*
X115582939Y-84757456D02*
X115606748Y-84733647D01*
X115606748Y-84733647D02*
X115654367Y-84709837D01*
X115654367Y-84709837D02*
X115701986Y-84709837D01*
X115701986Y-84709837D02*
X115749605Y-84733647D01*
X115749605Y-84733647D02*
X115773415Y-84757456D01*
X115773415Y-84757456D02*
X115797224Y-84805075D01*
X115797224Y-84805075D02*
X115797224Y-84971742D01*
X115559129Y-84543170D02*
X115559129Y-84257456D01*
X116059129Y-84400313D02*
X115559129Y-84400313D01*
X116059129Y-84090790D02*
X115559129Y-84090790D01*
X115559129Y-84090790D02*
X116059129Y-83805076D01*
X116059129Y-83805076D02*
X115559129Y-83805076D01*
X152203257Y-82684129D02*
X152203257Y-82184129D01*
X152203257Y-82184129D02*
X152322305Y-82184129D01*
X152322305Y-82184129D02*
X152393733Y-82207939D01*
X152393733Y-82207939D02*
X152441352Y-82255558D01*
X152441352Y-82255558D02*
X152465162Y-82303177D01*
X152465162Y-82303177D02*
X152488971Y-82398415D01*
X152488971Y-82398415D02*
X152488971Y-82469843D01*
X152488971Y-82469843D02*
X152465162Y-82565081D01*
X152465162Y-82565081D02*
X152441352Y-82612700D01*
X152441352Y-82612700D02*
X152393733Y-82660320D01*
X152393733Y-82660320D02*
X152322305Y-82684129D01*
X152322305Y-82684129D02*
X152203257Y-82684129D01*
X152703257Y-82493653D02*
X153084210Y-82493653D01*
X152893733Y-82684129D02*
X152893733Y-82303177D01*
X154988971Y-79784129D02*
X154822305Y-79546034D01*
X154703257Y-79784129D02*
X154703257Y-79284129D01*
X154703257Y-79284129D02*
X154893733Y-79284129D01*
X154893733Y-79284129D02*
X154941352Y-79307939D01*
X154941352Y-79307939D02*
X154965162Y-79331748D01*
X154965162Y-79331748D02*
X154988971Y-79379367D01*
X154988971Y-79379367D02*
X154988971Y-79450796D01*
X154988971Y-79450796D02*
X154965162Y-79498415D01*
X154965162Y-79498415D02*
X154941352Y-79522224D01*
X154941352Y-79522224D02*
X154893733Y-79546034D01*
X154893733Y-79546034D02*
X154703257Y-79546034D01*
X155179448Y-79760320D02*
X155250876Y-79784129D01*
X155250876Y-79784129D02*
X155369924Y-79784129D01*
X155369924Y-79784129D02*
X155417543Y-79760320D01*
X155417543Y-79760320D02*
X155441352Y-79736510D01*
X155441352Y-79736510D02*
X155465162Y-79688891D01*
X155465162Y-79688891D02*
X155465162Y-79641272D01*
X155465162Y-79641272D02*
X155441352Y-79593653D01*
X155441352Y-79593653D02*
X155417543Y-79569843D01*
X155417543Y-79569843D02*
X155369924Y-79546034D01*
X155369924Y-79546034D02*
X155274686Y-79522224D01*
X155274686Y-79522224D02*
X155227067Y-79498415D01*
X155227067Y-79498415D02*
X155203257Y-79474605D01*
X155203257Y-79474605D02*
X155179448Y-79426986D01*
X155179448Y-79426986D02*
X155179448Y-79379367D01*
X155179448Y-79379367D02*
X155203257Y-79331748D01*
X155203257Y-79331748D02*
X155227067Y-79307939D01*
X155227067Y-79307939D02*
X155274686Y-79284129D01*
X155274686Y-79284129D02*
X155393733Y-79284129D01*
X155393733Y-79284129D02*
X155465162Y-79307939D01*
X155608019Y-79284129D02*
X155893733Y-79284129D01*
X155750876Y-79784129D02*
X155750876Y-79284129D01*
X157348257Y-82563653D02*
X157729210Y-82563653D01*
X157538733Y-82754129D02*
X157538733Y-82373177D01*
X158205400Y-82254129D02*
X157967305Y-82254129D01*
X157967305Y-82254129D02*
X157943496Y-82492224D01*
X157943496Y-82492224D02*
X157967305Y-82468415D01*
X157967305Y-82468415D02*
X158014924Y-82444605D01*
X158014924Y-82444605D02*
X158133972Y-82444605D01*
X158133972Y-82444605D02*
X158181591Y-82468415D01*
X158181591Y-82468415D02*
X158205400Y-82492224D01*
X158205400Y-82492224D02*
X158229210Y-82539843D01*
X158229210Y-82539843D02*
X158229210Y-82658891D01*
X158229210Y-82658891D02*
X158205400Y-82706510D01*
X158205400Y-82706510D02*
X158181591Y-82730320D01*
X158181591Y-82730320D02*
X158133972Y-82754129D01*
X158133972Y-82754129D02*
X158014924Y-82754129D01*
X158014924Y-82754129D02*
X157967305Y-82730320D01*
X157967305Y-82730320D02*
X157943496Y-82706510D01*
X158372067Y-82254129D02*
X158538733Y-82754129D01*
X158538733Y-82754129D02*
X158705400Y-82254129D01*
X110282939Y-77634837D02*
X110259129Y-77682456D01*
X110259129Y-77682456D02*
X110259129Y-77753885D01*
X110259129Y-77753885D02*
X110282939Y-77825313D01*
X110282939Y-77825313D02*
X110330558Y-77872932D01*
X110330558Y-77872932D02*
X110378177Y-77896742D01*
X110378177Y-77896742D02*
X110473415Y-77920551D01*
X110473415Y-77920551D02*
X110544843Y-77920551D01*
X110544843Y-77920551D02*
X110640081Y-77896742D01*
X110640081Y-77896742D02*
X110687700Y-77872932D01*
X110687700Y-77872932D02*
X110735320Y-77825313D01*
X110735320Y-77825313D02*
X110759129Y-77753885D01*
X110759129Y-77753885D02*
X110759129Y-77706266D01*
X110759129Y-77706266D02*
X110735320Y-77634837D01*
X110735320Y-77634837D02*
X110711510Y-77611028D01*
X110711510Y-77611028D02*
X110544843Y-77611028D01*
X110544843Y-77611028D02*
X110544843Y-77706266D01*
X110759129Y-77396742D02*
X110259129Y-77396742D01*
X110259129Y-77396742D02*
X110759129Y-77111028D01*
X110759129Y-77111028D02*
X110259129Y-77111028D01*
X110759129Y-76872932D02*
X110259129Y-76872932D01*
X110259129Y-76872932D02*
X110259129Y-76753884D01*
X110259129Y-76753884D02*
X110282939Y-76682456D01*
X110282939Y-76682456D02*
X110330558Y-76634837D01*
X110330558Y-76634837D02*
X110378177Y-76611027D01*
X110378177Y-76611027D02*
X110473415Y-76587218D01*
X110473415Y-76587218D02*
X110544843Y-76587218D01*
X110544843Y-76587218D02*
X110640081Y-76611027D01*
X110640081Y-76611027D02*
X110687700Y-76634837D01*
X110687700Y-76634837D02*
X110735320Y-76682456D01*
X110735320Y-76682456D02*
X110759129Y-76753884D01*
X110759129Y-76753884D02*
X110759129Y-76872932D01*
X110759129Y-82446742D02*
X110259129Y-82446742D01*
X110259129Y-82446742D02*
X110259129Y-82327694D01*
X110259129Y-82327694D02*
X110282939Y-82256266D01*
X110282939Y-82256266D02*
X110330558Y-82208647D01*
X110330558Y-82208647D02*
X110378177Y-82184837D01*
X110378177Y-82184837D02*
X110473415Y-82161028D01*
X110473415Y-82161028D02*
X110544843Y-82161028D01*
X110544843Y-82161028D02*
X110640081Y-82184837D01*
X110640081Y-82184837D02*
X110687700Y-82208647D01*
X110687700Y-82208647D02*
X110735320Y-82256266D01*
X110735320Y-82256266D02*
X110759129Y-82327694D01*
X110759129Y-82327694D02*
X110759129Y-82446742D01*
X110568653Y-81946742D02*
X110568653Y-81565790D01*
X110759129Y-81756266D02*
X110378177Y-81756266D01*
X152922224Y-78130075D02*
X152946034Y-78058647D01*
X152946034Y-78058647D02*
X152969843Y-78034837D01*
X152969843Y-78034837D02*
X153017462Y-78011028D01*
X153017462Y-78011028D02*
X153088891Y-78011028D01*
X153088891Y-78011028D02*
X153136510Y-78034837D01*
X153136510Y-78034837D02*
X153160320Y-78058647D01*
X153160320Y-78058647D02*
X153184129Y-78106266D01*
X153184129Y-78106266D02*
X153184129Y-78296742D01*
X153184129Y-78296742D02*
X152684129Y-78296742D01*
X152684129Y-78296742D02*
X152684129Y-78130075D01*
X152684129Y-78130075D02*
X152707939Y-78082456D01*
X152707939Y-78082456D02*
X152731748Y-78058647D01*
X152731748Y-78058647D02*
X152779367Y-78034837D01*
X152779367Y-78034837D02*
X152826986Y-78034837D01*
X152826986Y-78034837D02*
X152874605Y-78058647D01*
X152874605Y-78058647D02*
X152898415Y-78082456D01*
X152898415Y-78082456D02*
X152922224Y-78130075D01*
X152922224Y-78130075D02*
X152922224Y-78296742D01*
X152684129Y-77701504D02*
X152684129Y-77606266D01*
X152684129Y-77606266D02*
X152707939Y-77558647D01*
X152707939Y-77558647D02*
X152755558Y-77511028D01*
X152755558Y-77511028D02*
X152850796Y-77487218D01*
X152850796Y-77487218D02*
X153017462Y-77487218D01*
X153017462Y-77487218D02*
X153112700Y-77511028D01*
X153112700Y-77511028D02*
X153160320Y-77558647D01*
X153160320Y-77558647D02*
X153184129Y-77606266D01*
X153184129Y-77606266D02*
X153184129Y-77701504D01*
X153184129Y-77701504D02*
X153160320Y-77749123D01*
X153160320Y-77749123D02*
X153112700Y-77796742D01*
X153112700Y-77796742D02*
X153017462Y-77820551D01*
X153017462Y-77820551D02*
X152850796Y-77820551D01*
X152850796Y-77820551D02*
X152755558Y-77796742D01*
X152755558Y-77796742D02*
X152707939Y-77749123D01*
X152707939Y-77749123D02*
X152684129Y-77701504D01*
X152684129Y-77177694D02*
X152684129Y-77082456D01*
X152684129Y-77082456D02*
X152707939Y-77034837D01*
X152707939Y-77034837D02*
X152755558Y-76987218D01*
X152755558Y-76987218D02*
X152850796Y-76963408D01*
X152850796Y-76963408D02*
X153017462Y-76963408D01*
X153017462Y-76963408D02*
X153112700Y-76987218D01*
X153112700Y-76987218D02*
X153160320Y-77034837D01*
X153160320Y-77034837D02*
X153184129Y-77082456D01*
X153184129Y-77082456D02*
X153184129Y-77177694D01*
X153184129Y-77177694D02*
X153160320Y-77225313D01*
X153160320Y-77225313D02*
X153112700Y-77272932D01*
X153112700Y-77272932D02*
X153017462Y-77296741D01*
X153017462Y-77296741D02*
X152850796Y-77296741D01*
X152850796Y-77296741D02*
X152755558Y-77272932D01*
X152755558Y-77272932D02*
X152707939Y-77225313D01*
X152707939Y-77225313D02*
X152684129Y-77177694D01*
X152684129Y-76820550D02*
X152684129Y-76534836D01*
X153184129Y-76677693D02*
X152684129Y-76677693D01*
X149910162Y-82607939D02*
X149862543Y-82584129D01*
X149862543Y-82584129D02*
X149791114Y-82584129D01*
X149791114Y-82584129D02*
X149719686Y-82607939D01*
X149719686Y-82607939D02*
X149672067Y-82655558D01*
X149672067Y-82655558D02*
X149648257Y-82703177D01*
X149648257Y-82703177D02*
X149624448Y-82798415D01*
X149624448Y-82798415D02*
X149624448Y-82869843D01*
X149624448Y-82869843D02*
X149648257Y-82965081D01*
X149648257Y-82965081D02*
X149672067Y-83012700D01*
X149672067Y-83012700D02*
X149719686Y-83060320D01*
X149719686Y-83060320D02*
X149791114Y-83084129D01*
X149791114Y-83084129D02*
X149838733Y-83084129D01*
X149838733Y-83084129D02*
X149910162Y-83060320D01*
X149910162Y-83060320D02*
X149933971Y-83036510D01*
X149933971Y-83036510D02*
X149933971Y-82869843D01*
X149933971Y-82869843D02*
X149838733Y-82869843D01*
X150148257Y-83084129D02*
X150148257Y-82584129D01*
X150148257Y-82584129D02*
X150433971Y-83084129D01*
X150433971Y-83084129D02*
X150433971Y-82584129D01*
X150672067Y-83084129D02*
X150672067Y-82584129D01*
X150672067Y-82584129D02*
X150791115Y-82584129D01*
X150791115Y-82584129D02*
X150862543Y-82607939D01*
X150862543Y-82607939D02*
X150910162Y-82655558D01*
X150910162Y-82655558D02*
X150933972Y-82703177D01*
X150933972Y-82703177D02*
X150957781Y-82798415D01*
X150957781Y-82798415D02*
X150957781Y-82869843D01*
X150957781Y-82869843D02*
X150933972Y-82965081D01*
X150933972Y-82965081D02*
X150910162Y-83012700D01*
X150910162Y-83012700D02*
X150862543Y-83060320D01*
X150862543Y-83060320D02*
X150791115Y-83084129D01*
X150791115Y-83084129D02*
X150672067Y-83084129D01*
X110568653Y-85496742D02*
X110568653Y-85115790D01*
X110759129Y-85306266D02*
X110378177Y-85306266D01*
X110259129Y-84639599D02*
X110259129Y-84877694D01*
X110259129Y-84877694D02*
X110497224Y-84901503D01*
X110497224Y-84901503D02*
X110473415Y-84877694D01*
X110473415Y-84877694D02*
X110449605Y-84830075D01*
X110449605Y-84830075D02*
X110449605Y-84711027D01*
X110449605Y-84711027D02*
X110473415Y-84663408D01*
X110473415Y-84663408D02*
X110497224Y-84639599D01*
X110497224Y-84639599D02*
X110544843Y-84615789D01*
X110544843Y-84615789D02*
X110663891Y-84615789D01*
X110663891Y-84615789D02*
X110711510Y-84639599D01*
X110711510Y-84639599D02*
X110735320Y-84663408D01*
X110735320Y-84663408D02*
X110759129Y-84711027D01*
X110759129Y-84711027D02*
X110759129Y-84830075D01*
X110759129Y-84830075D02*
X110735320Y-84877694D01*
X110735320Y-84877694D02*
X110711510Y-84901503D01*
X110259129Y-84472932D02*
X110759129Y-84306266D01*
X110759129Y-84306266D02*
X110259129Y-84139599D01*
X110759129Y-80221742D02*
X110259129Y-80221742D01*
X110259129Y-80221742D02*
X110259129Y-80102694D01*
X110259129Y-80102694D02*
X110282939Y-80031266D01*
X110282939Y-80031266D02*
X110330558Y-79983647D01*
X110330558Y-79983647D02*
X110378177Y-79959837D01*
X110378177Y-79959837D02*
X110473415Y-79936028D01*
X110473415Y-79936028D02*
X110544843Y-79936028D01*
X110544843Y-79936028D02*
X110640081Y-79959837D01*
X110640081Y-79959837D02*
X110687700Y-79983647D01*
X110687700Y-79983647D02*
X110735320Y-80031266D01*
X110735320Y-80031266D02*
X110759129Y-80102694D01*
X110759129Y-80102694D02*
X110759129Y-80221742D01*
X110568653Y-79721742D02*
X110568653Y-79340790D01*
X151578257Y-79859129D02*
X151578257Y-79359129D01*
X151578257Y-79359129D02*
X151768733Y-79359129D01*
X151768733Y-79359129D02*
X151816352Y-79382939D01*
X151816352Y-79382939D02*
X151840162Y-79406748D01*
X151840162Y-79406748D02*
X151863971Y-79454367D01*
X151863971Y-79454367D02*
X151863971Y-79525796D01*
X151863971Y-79525796D02*
X151840162Y-79573415D01*
X151840162Y-79573415D02*
X151816352Y-79597224D01*
X151816352Y-79597224D02*
X151768733Y-79621034D01*
X151768733Y-79621034D02*
X151578257Y-79621034D01*
X152030638Y-79359129D02*
X152149686Y-79859129D01*
X152149686Y-79859129D02*
X152244924Y-79501986D01*
X152244924Y-79501986D02*
X152340162Y-79859129D01*
X152340162Y-79859129D02*
X152459210Y-79359129D01*
X152935400Y-79859129D02*
X152768734Y-79621034D01*
X152649686Y-79859129D02*
X152649686Y-79359129D01*
X152649686Y-79359129D02*
X152840162Y-79359129D01*
X152840162Y-79359129D02*
X152887781Y-79382939D01*
X152887781Y-79382939D02*
X152911591Y-79406748D01*
X152911591Y-79406748D02*
X152935400Y-79454367D01*
X152935400Y-79454367D02*
X152935400Y-79525796D01*
X152935400Y-79525796D02*
X152911591Y-79573415D01*
X152911591Y-79573415D02*
X152887781Y-79597224D01*
X152887781Y-79597224D02*
X152840162Y-79621034D01*
X152840162Y-79621034D02*
X152649686Y-79621034D01*
X116034129Y-81386028D02*
X115796034Y-81552694D01*
X116034129Y-81671742D02*
X115534129Y-81671742D01*
X115534129Y-81671742D02*
X115534129Y-81481266D01*
X115534129Y-81481266D02*
X115557939Y-81433647D01*
X115557939Y-81433647D02*
X115581748Y-81409837D01*
X115581748Y-81409837D02*
X115629367Y-81386028D01*
X115629367Y-81386028D02*
X115700796Y-81386028D01*
X115700796Y-81386028D02*
X115748415Y-81409837D01*
X115748415Y-81409837D02*
X115772224Y-81433647D01*
X115772224Y-81433647D02*
X115796034Y-81481266D01*
X115796034Y-81481266D02*
X115796034Y-81671742D01*
X115534129Y-81171742D02*
X115938891Y-81171742D01*
X115938891Y-81171742D02*
X115986510Y-81147932D01*
X115986510Y-81147932D02*
X116010320Y-81124123D01*
X116010320Y-81124123D02*
X116034129Y-81076504D01*
X116034129Y-81076504D02*
X116034129Y-80981266D01*
X116034129Y-80981266D02*
X116010320Y-80933647D01*
X116010320Y-80933647D02*
X115986510Y-80909837D01*
X115986510Y-80909837D02*
X115938891Y-80886028D01*
X115938891Y-80886028D02*
X115534129Y-80886028D01*
X116034129Y-80647932D02*
X115534129Y-80647932D01*
X115534129Y-80647932D02*
X116034129Y-80362218D01*
X116034129Y-80362218D02*
X115534129Y-80362218D01*
X165011905Y-83363534D02*
X165011905Y-83601629D01*
X164845239Y-83101629D02*
X165011905Y-83363534D01*
X165011905Y-83363534D02*
X165178572Y-83101629D01*
X165321429Y-83149248D02*
X165345238Y-83125439D01*
X165345238Y-83125439D02*
X165392857Y-83101629D01*
X165392857Y-83101629D02*
X165511905Y-83101629D01*
X165511905Y-83101629D02*
X165559524Y-83125439D01*
X165559524Y-83125439D02*
X165583333Y-83149248D01*
X165583333Y-83149248D02*
X165607143Y-83196867D01*
X165607143Y-83196867D02*
X165607143Y-83244486D01*
X165607143Y-83244486D02*
X165583333Y-83315915D01*
X165583333Y-83315915D02*
X165297619Y-83601629D01*
X165297619Y-83601629D02*
X165607143Y-83601629D01*
X112483334Y-81302820D02*
X112554762Y-81326629D01*
X112554762Y-81326629D02*
X112673810Y-81326629D01*
X112673810Y-81326629D02*
X112721429Y-81302820D01*
X112721429Y-81302820D02*
X112745238Y-81279010D01*
X112745238Y-81279010D02*
X112769048Y-81231391D01*
X112769048Y-81231391D02*
X112769048Y-81183772D01*
X112769048Y-81183772D02*
X112745238Y-81136153D01*
X112745238Y-81136153D02*
X112721429Y-81112343D01*
X112721429Y-81112343D02*
X112673810Y-81088534D01*
X112673810Y-81088534D02*
X112578572Y-81064724D01*
X112578572Y-81064724D02*
X112530953Y-81040915D01*
X112530953Y-81040915D02*
X112507143Y-81017105D01*
X112507143Y-81017105D02*
X112483334Y-80969486D01*
X112483334Y-80969486D02*
X112483334Y-80921867D01*
X112483334Y-80921867D02*
X112507143Y-80874248D01*
X112507143Y-80874248D02*
X112530953Y-80850439D01*
X112530953Y-80850439D02*
X112578572Y-80826629D01*
X112578572Y-80826629D02*
X112697619Y-80826629D01*
X112697619Y-80826629D02*
X112769048Y-80850439D01*
X112935714Y-80826629D02*
X113054762Y-81326629D01*
X113054762Y-81326629D02*
X113150000Y-80969486D01*
X113150000Y-80969486D02*
X113245238Y-81326629D01*
X113245238Y-81326629D02*
X113364286Y-80826629D01*
X113816667Y-81326629D02*
X113530953Y-81326629D01*
X113673810Y-81326629D02*
X113673810Y-80826629D01*
X113673810Y-80826629D02*
X113626191Y-80898058D01*
X113626191Y-80898058D02*
X113578572Y-80945677D01*
X113578572Y-80945677D02*
X113530953Y-80969486D01*
D11*
X117974809Y-79380952D02*
X118379571Y-79380952D01*
X118379571Y-79380952D02*
X118427190Y-79357142D01*
X118427190Y-79357142D02*
X118451000Y-79333333D01*
X118451000Y-79333333D02*
X118474809Y-79285714D01*
X118474809Y-79285714D02*
X118474809Y-79190476D01*
X118474809Y-79190476D02*
X118451000Y-79142857D01*
X118451000Y-79142857D02*
X118427190Y-79119047D01*
X118427190Y-79119047D02*
X118379571Y-79095238D01*
X118379571Y-79095238D02*
X117974809Y-79095238D01*
X118022428Y-78880951D02*
X117998619Y-78857142D01*
X117998619Y-78857142D02*
X117974809Y-78809523D01*
X117974809Y-78809523D02*
X117974809Y-78690475D01*
X117974809Y-78690475D02*
X117998619Y-78642856D01*
X117998619Y-78642856D02*
X118022428Y-78619047D01*
X118022428Y-78619047D02*
X118070047Y-78595237D01*
X118070047Y-78595237D02*
X118117666Y-78595237D01*
X118117666Y-78595237D02*
X118189095Y-78619047D01*
X118189095Y-78619047D02*
X118474809Y-78904761D01*
X118474809Y-78904761D02*
X118474809Y-78595237D01*
D10*
X125006629Y-80083333D02*
X124768534Y-80249999D01*
X125006629Y-80369047D02*
X124506629Y-80369047D01*
X124506629Y-80369047D02*
X124506629Y-80178571D01*
X124506629Y-80178571D02*
X124530439Y-80130952D01*
X124530439Y-80130952D02*
X124554248Y-80107142D01*
X124554248Y-80107142D02*
X124601867Y-80083333D01*
X124601867Y-80083333D02*
X124673296Y-80083333D01*
X124673296Y-80083333D02*
X124720915Y-80107142D01*
X124720915Y-80107142D02*
X124744724Y-80130952D01*
X124744724Y-80130952D02*
X124768534Y-80178571D01*
X124768534Y-80178571D02*
X124768534Y-80369047D01*
X125006629Y-79607142D02*
X125006629Y-79892856D01*
X125006629Y-79749999D02*
X124506629Y-79749999D01*
X124506629Y-79749999D02*
X124578058Y-79797618D01*
X124578058Y-79797618D02*
X124625677Y-79845237D01*
X124625677Y-79845237D02*
X124649486Y-79892856D01*
X116651629Y-85944047D02*
X116151629Y-85944047D01*
X116151629Y-85944047D02*
X116151629Y-85824999D01*
X116151629Y-85824999D02*
X116175439Y-85753571D01*
X116175439Y-85753571D02*
X116223058Y-85705952D01*
X116223058Y-85705952D02*
X116270677Y-85682142D01*
X116270677Y-85682142D02*
X116365915Y-85658333D01*
X116365915Y-85658333D02*
X116437343Y-85658333D01*
X116437343Y-85658333D02*
X116532581Y-85682142D01*
X116532581Y-85682142D02*
X116580200Y-85705952D01*
X116580200Y-85705952D02*
X116627820Y-85753571D01*
X116627820Y-85753571D02*
X116651629Y-85824999D01*
X116651629Y-85824999D02*
X116651629Y-85944047D01*
X116651629Y-85182142D02*
X116651629Y-85467856D01*
X116651629Y-85324999D02*
X116151629Y-85324999D01*
X116151629Y-85324999D02*
X116223058Y-85372618D01*
X116223058Y-85372618D02*
X116270677Y-85420237D01*
X116270677Y-85420237D02*
X116294486Y-85467856D01*
X137316666Y-76376629D02*
X137150000Y-76138534D01*
X137030952Y-76376629D02*
X137030952Y-75876629D01*
X137030952Y-75876629D02*
X137221428Y-75876629D01*
X137221428Y-75876629D02*
X137269047Y-75900439D01*
X137269047Y-75900439D02*
X137292857Y-75924248D01*
X137292857Y-75924248D02*
X137316666Y-75971867D01*
X137316666Y-75971867D02*
X137316666Y-76043296D01*
X137316666Y-76043296D02*
X137292857Y-76090915D01*
X137292857Y-76090915D02*
X137269047Y-76114724D01*
X137269047Y-76114724D02*
X137221428Y-76138534D01*
X137221428Y-76138534D02*
X137030952Y-76138534D01*
X137507143Y-75924248D02*
X137530952Y-75900439D01*
X137530952Y-75900439D02*
X137578571Y-75876629D01*
X137578571Y-75876629D02*
X137697619Y-75876629D01*
X137697619Y-75876629D02*
X137745238Y-75900439D01*
X137745238Y-75900439D02*
X137769047Y-75924248D01*
X137769047Y-75924248D02*
X137792857Y-75971867D01*
X137792857Y-75971867D02*
X137792857Y-76019486D01*
X137792857Y-76019486D02*
X137769047Y-76090915D01*
X137769047Y-76090915D02*
X137483333Y-76376629D01*
X137483333Y-76376629D02*
X137792857Y-76376629D01*
X150105952Y-81026629D02*
X150105952Y-80526629D01*
X150105952Y-80526629D02*
X150225000Y-80526629D01*
X150225000Y-80526629D02*
X150296428Y-80550439D01*
X150296428Y-80550439D02*
X150344047Y-80598058D01*
X150344047Y-80598058D02*
X150367857Y-80645677D01*
X150367857Y-80645677D02*
X150391666Y-80740915D01*
X150391666Y-80740915D02*
X150391666Y-80812343D01*
X150391666Y-80812343D02*
X150367857Y-80907581D01*
X150367857Y-80907581D02*
X150344047Y-80955200D01*
X150344047Y-80955200D02*
X150296428Y-81002820D01*
X150296428Y-81002820D02*
X150225000Y-81026629D01*
X150225000Y-81026629D02*
X150105952Y-81026629D01*
X150582143Y-80574248D02*
X150605952Y-80550439D01*
X150605952Y-80550439D02*
X150653571Y-80526629D01*
X150653571Y-80526629D02*
X150772619Y-80526629D01*
X150772619Y-80526629D02*
X150820238Y-80550439D01*
X150820238Y-80550439D02*
X150844047Y-80574248D01*
X150844047Y-80574248D02*
X150867857Y-80621867D01*
X150867857Y-80621867D02*
X150867857Y-80669486D01*
X150867857Y-80669486D02*
X150844047Y-80740915D01*
X150844047Y-80740915D02*
X150558333Y-81026629D01*
X150558333Y-81026629D02*
X150867857Y-81026629D01*
X155906666Y-81476629D02*
X155740000Y-81238534D01*
X155620952Y-81476629D02*
X155620952Y-80976629D01*
X155620952Y-80976629D02*
X155811428Y-80976629D01*
X155811428Y-80976629D02*
X155859047Y-81000439D01*
X155859047Y-81000439D02*
X155882857Y-81024248D01*
X155882857Y-81024248D02*
X155906666Y-81071867D01*
X155906666Y-81071867D02*
X155906666Y-81143296D01*
X155906666Y-81143296D02*
X155882857Y-81190915D01*
X155882857Y-81190915D02*
X155859047Y-81214724D01*
X155859047Y-81214724D02*
X155811428Y-81238534D01*
X155811428Y-81238534D02*
X155620952Y-81238534D01*
X156144762Y-81476629D02*
X156240000Y-81476629D01*
X156240000Y-81476629D02*
X156287619Y-81452820D01*
X156287619Y-81452820D02*
X156311428Y-81429010D01*
X156311428Y-81429010D02*
X156359047Y-81357581D01*
X156359047Y-81357581D02*
X156382857Y-81262343D01*
X156382857Y-81262343D02*
X156382857Y-81071867D01*
X156382857Y-81071867D02*
X156359047Y-81024248D01*
X156359047Y-81024248D02*
X156335238Y-81000439D01*
X156335238Y-81000439D02*
X156287619Y-80976629D01*
X156287619Y-80976629D02*
X156192381Y-80976629D01*
X156192381Y-80976629D02*
X156144762Y-81000439D01*
X156144762Y-81000439D02*
X156120952Y-81024248D01*
X156120952Y-81024248D02*
X156097143Y-81071867D01*
X156097143Y-81071867D02*
X156097143Y-81190915D01*
X156097143Y-81190915D02*
X156120952Y-81238534D01*
X156120952Y-81238534D02*
X156144762Y-81262343D01*
X156144762Y-81262343D02*
X156192381Y-81286153D01*
X156192381Y-81286153D02*
X156287619Y-81286153D01*
X156287619Y-81286153D02*
X156335238Y-81262343D01*
X156335238Y-81262343D02*
X156359047Y-81238534D01*
X156359047Y-81238534D02*
X156382857Y-81190915D01*
X125691666Y-76451629D02*
X125525000Y-76213534D01*
X125405952Y-76451629D02*
X125405952Y-75951629D01*
X125405952Y-75951629D02*
X125596428Y-75951629D01*
X125596428Y-75951629D02*
X125644047Y-75975439D01*
X125644047Y-75975439D02*
X125667857Y-75999248D01*
X125667857Y-75999248D02*
X125691666Y-76046867D01*
X125691666Y-76046867D02*
X125691666Y-76118296D01*
X125691666Y-76118296D02*
X125667857Y-76165915D01*
X125667857Y-76165915D02*
X125644047Y-76189724D01*
X125644047Y-76189724D02*
X125596428Y-76213534D01*
X125596428Y-76213534D02*
X125405952Y-76213534D01*
X125858333Y-75951629D02*
X126167857Y-75951629D01*
X126167857Y-75951629D02*
X126001190Y-76142105D01*
X126001190Y-76142105D02*
X126072619Y-76142105D01*
X126072619Y-76142105D02*
X126120238Y-76165915D01*
X126120238Y-76165915D02*
X126144047Y-76189724D01*
X126144047Y-76189724D02*
X126167857Y-76237343D01*
X126167857Y-76237343D02*
X126167857Y-76356391D01*
X126167857Y-76356391D02*
X126144047Y-76404010D01*
X126144047Y-76404010D02*
X126120238Y-76427820D01*
X126120238Y-76427820D02*
X126072619Y-76451629D01*
X126072619Y-76451629D02*
X125929762Y-76451629D01*
X125929762Y-76451629D02*
X125882143Y-76427820D01*
X125882143Y-76427820D02*
X125858333Y-76404010D01*
X138629010Y-77683333D02*
X138652820Y-77707142D01*
X138652820Y-77707142D02*
X138676629Y-77778571D01*
X138676629Y-77778571D02*
X138676629Y-77826190D01*
X138676629Y-77826190D02*
X138652820Y-77897618D01*
X138652820Y-77897618D02*
X138605200Y-77945237D01*
X138605200Y-77945237D02*
X138557581Y-77969047D01*
X138557581Y-77969047D02*
X138462343Y-77992856D01*
X138462343Y-77992856D02*
X138390915Y-77992856D01*
X138390915Y-77992856D02*
X138295677Y-77969047D01*
X138295677Y-77969047D02*
X138248058Y-77945237D01*
X138248058Y-77945237D02*
X138200439Y-77897618D01*
X138200439Y-77897618D02*
X138176629Y-77826190D01*
X138176629Y-77826190D02*
X138176629Y-77778571D01*
X138176629Y-77778571D02*
X138200439Y-77707142D01*
X138200439Y-77707142D02*
X138224248Y-77683333D01*
X138176629Y-77254761D02*
X138176629Y-77349999D01*
X138176629Y-77349999D02*
X138200439Y-77397618D01*
X138200439Y-77397618D02*
X138224248Y-77421428D01*
X138224248Y-77421428D02*
X138295677Y-77469047D01*
X138295677Y-77469047D02*
X138390915Y-77492856D01*
X138390915Y-77492856D02*
X138581391Y-77492856D01*
X138581391Y-77492856D02*
X138629010Y-77469047D01*
X138629010Y-77469047D02*
X138652820Y-77445237D01*
X138652820Y-77445237D02*
X138676629Y-77397618D01*
X138676629Y-77397618D02*
X138676629Y-77302380D01*
X138676629Y-77302380D02*
X138652820Y-77254761D01*
X138652820Y-77254761D02*
X138629010Y-77230952D01*
X138629010Y-77230952D02*
X138581391Y-77207142D01*
X138581391Y-77207142D02*
X138462343Y-77207142D01*
X138462343Y-77207142D02*
X138414724Y-77230952D01*
X138414724Y-77230952D02*
X138390915Y-77254761D01*
X138390915Y-77254761D02*
X138367105Y-77302380D01*
X138367105Y-77302380D02*
X138367105Y-77397618D01*
X138367105Y-77397618D02*
X138390915Y-77445237D01*
X138390915Y-77445237D02*
X138414724Y-77469047D01*
X138414724Y-77469047D02*
X138462343Y-77492856D01*
X115769047Y-77126629D02*
X115769047Y-77531391D01*
X115769047Y-77531391D02*
X115792857Y-77579010D01*
X115792857Y-77579010D02*
X115816666Y-77602820D01*
X115816666Y-77602820D02*
X115864285Y-77626629D01*
X115864285Y-77626629D02*
X115959523Y-77626629D01*
X115959523Y-77626629D02*
X116007142Y-77602820D01*
X116007142Y-77602820D02*
X116030952Y-77579010D01*
X116030952Y-77579010D02*
X116054761Y-77531391D01*
X116054761Y-77531391D02*
X116054761Y-77126629D01*
X116554762Y-77626629D02*
X116269048Y-77626629D01*
X116411905Y-77626629D02*
X116411905Y-77126629D01*
X116411905Y-77126629D02*
X116364286Y-77198058D01*
X116364286Y-77198058D02*
X116316667Y-77245677D01*
X116316667Y-77245677D02*
X116269048Y-77269486D01*
X159338571Y-80349010D02*
X159314762Y-80372820D01*
X159314762Y-80372820D02*
X159243333Y-80396629D01*
X159243333Y-80396629D02*
X159195714Y-80396629D01*
X159195714Y-80396629D02*
X159124286Y-80372820D01*
X159124286Y-80372820D02*
X159076667Y-80325200D01*
X159076667Y-80325200D02*
X159052857Y-80277581D01*
X159052857Y-80277581D02*
X159029048Y-80182343D01*
X159029048Y-80182343D02*
X159029048Y-80110915D01*
X159029048Y-80110915D02*
X159052857Y-80015677D01*
X159052857Y-80015677D02*
X159076667Y-79968058D01*
X159076667Y-79968058D02*
X159124286Y-79920439D01*
X159124286Y-79920439D02*
X159195714Y-79896629D01*
X159195714Y-79896629D02*
X159243333Y-79896629D01*
X159243333Y-79896629D02*
X159314762Y-79920439D01*
X159314762Y-79920439D02*
X159338571Y-79944248D01*
X159814762Y-80396629D02*
X159529048Y-80396629D01*
X159671905Y-80396629D02*
X159671905Y-79896629D01*
X159671905Y-79896629D02*
X159624286Y-79968058D01*
X159624286Y-79968058D02*
X159576667Y-80015677D01*
X159576667Y-80015677D02*
X159529048Y-80039486D01*
X160052857Y-80396629D02*
X160148095Y-80396629D01*
X160148095Y-80396629D02*
X160195714Y-80372820D01*
X160195714Y-80372820D02*
X160219523Y-80349010D01*
X160219523Y-80349010D02*
X160267142Y-80277581D01*
X160267142Y-80277581D02*
X160290952Y-80182343D01*
X160290952Y-80182343D02*
X160290952Y-79991867D01*
X160290952Y-79991867D02*
X160267142Y-79944248D01*
X160267142Y-79944248D02*
X160243333Y-79920439D01*
X160243333Y-79920439D02*
X160195714Y-79896629D01*
X160195714Y-79896629D02*
X160100476Y-79896629D01*
X160100476Y-79896629D02*
X160052857Y-79920439D01*
X160052857Y-79920439D02*
X160029047Y-79944248D01*
X160029047Y-79944248D02*
X160005238Y-79991867D01*
X160005238Y-79991867D02*
X160005238Y-80110915D01*
X160005238Y-80110915D02*
X160029047Y-80158534D01*
X160029047Y-80158534D02*
X160052857Y-80182343D01*
X160052857Y-80182343D02*
X160100476Y-80206153D01*
X160100476Y-80206153D02*
X160195714Y-80206153D01*
X160195714Y-80206153D02*
X160243333Y-80182343D01*
X160243333Y-80182343D02*
X160267142Y-80158534D01*
X160267142Y-80158534D02*
X160290952Y-80110915D01*
X155718571Y-80639010D02*
X155694762Y-80662820D01*
X155694762Y-80662820D02*
X155623333Y-80686629D01*
X155623333Y-80686629D02*
X155575714Y-80686629D01*
X155575714Y-80686629D02*
X155504286Y-80662820D01*
X155504286Y-80662820D02*
X155456667Y-80615200D01*
X155456667Y-80615200D02*
X155432857Y-80567581D01*
X155432857Y-80567581D02*
X155409048Y-80472343D01*
X155409048Y-80472343D02*
X155409048Y-80400915D01*
X155409048Y-80400915D02*
X155432857Y-80305677D01*
X155432857Y-80305677D02*
X155456667Y-80258058D01*
X155456667Y-80258058D02*
X155504286Y-80210439D01*
X155504286Y-80210439D02*
X155575714Y-80186629D01*
X155575714Y-80186629D02*
X155623333Y-80186629D01*
X155623333Y-80186629D02*
X155694762Y-80210439D01*
X155694762Y-80210439D02*
X155718571Y-80234248D01*
X156194762Y-80686629D02*
X155909048Y-80686629D01*
X156051905Y-80686629D02*
X156051905Y-80186629D01*
X156051905Y-80186629D02*
X156004286Y-80258058D01*
X156004286Y-80258058D02*
X155956667Y-80305677D01*
X155956667Y-80305677D02*
X155909048Y-80329486D01*
X156361428Y-80186629D02*
X156694761Y-80186629D01*
X156694761Y-80186629D02*
X156480476Y-80686629D01*
X163503571Y-83954010D02*
X163479762Y-83977820D01*
X163479762Y-83977820D02*
X163408333Y-84001629D01*
X163408333Y-84001629D02*
X163360714Y-84001629D01*
X163360714Y-84001629D02*
X163289286Y-83977820D01*
X163289286Y-83977820D02*
X163241667Y-83930200D01*
X163241667Y-83930200D02*
X163217857Y-83882581D01*
X163217857Y-83882581D02*
X163194048Y-83787343D01*
X163194048Y-83787343D02*
X163194048Y-83715915D01*
X163194048Y-83715915D02*
X163217857Y-83620677D01*
X163217857Y-83620677D02*
X163241667Y-83573058D01*
X163241667Y-83573058D02*
X163289286Y-83525439D01*
X163289286Y-83525439D02*
X163360714Y-83501629D01*
X163360714Y-83501629D02*
X163408333Y-83501629D01*
X163408333Y-83501629D02*
X163479762Y-83525439D01*
X163479762Y-83525439D02*
X163503571Y-83549248D01*
X163694048Y-83549248D02*
X163717857Y-83525439D01*
X163717857Y-83525439D02*
X163765476Y-83501629D01*
X163765476Y-83501629D02*
X163884524Y-83501629D01*
X163884524Y-83501629D02*
X163932143Y-83525439D01*
X163932143Y-83525439D02*
X163955952Y-83549248D01*
X163955952Y-83549248D02*
X163979762Y-83596867D01*
X163979762Y-83596867D02*
X163979762Y-83644486D01*
X163979762Y-83644486D02*
X163955952Y-83715915D01*
X163955952Y-83715915D02*
X163670238Y-84001629D01*
X163670238Y-84001629D02*
X163979762Y-84001629D01*
X164432142Y-83501629D02*
X164194047Y-83501629D01*
X164194047Y-83501629D02*
X164170238Y-83739724D01*
X164170238Y-83739724D02*
X164194047Y-83715915D01*
X164194047Y-83715915D02*
X164241666Y-83692105D01*
X164241666Y-83692105D02*
X164360714Y-83692105D01*
X164360714Y-83692105D02*
X164408333Y-83715915D01*
X164408333Y-83715915D02*
X164432142Y-83739724D01*
X164432142Y-83739724D02*
X164455952Y-83787343D01*
X164455952Y-83787343D02*
X164455952Y-83906391D01*
X164455952Y-83906391D02*
X164432142Y-83954010D01*
X164432142Y-83954010D02*
X164408333Y-83977820D01*
X164408333Y-83977820D02*
X164360714Y-84001629D01*
X164360714Y-84001629D02*
X164241666Y-84001629D01*
X164241666Y-84001629D02*
X164194047Y-83977820D01*
X164194047Y-83977820D02*
X164170238Y-83954010D01*
X173178571Y-76556629D02*
X173011905Y-76318534D01*
X172892857Y-76556629D02*
X172892857Y-76056629D01*
X172892857Y-76056629D02*
X173083333Y-76056629D01*
X173083333Y-76056629D02*
X173130952Y-76080439D01*
X173130952Y-76080439D02*
X173154762Y-76104248D01*
X173154762Y-76104248D02*
X173178571Y-76151867D01*
X173178571Y-76151867D02*
X173178571Y-76223296D01*
X173178571Y-76223296D02*
X173154762Y-76270915D01*
X173154762Y-76270915D02*
X173130952Y-76294724D01*
X173130952Y-76294724D02*
X173083333Y-76318534D01*
X173083333Y-76318534D02*
X172892857Y-76318534D01*
X173654762Y-76556629D02*
X173369048Y-76556629D01*
X173511905Y-76556629D02*
X173511905Y-76056629D01*
X173511905Y-76056629D02*
X173464286Y-76128058D01*
X173464286Y-76128058D02*
X173416667Y-76175677D01*
X173416667Y-76175677D02*
X173369048Y-76199486D01*
X173821428Y-76056629D02*
X174154761Y-76056629D01*
X174154761Y-76056629D02*
X173940476Y-76556629D01*
X158286629Y-78991428D02*
X158048534Y-79158094D01*
X158286629Y-79277142D02*
X157786629Y-79277142D01*
X157786629Y-79277142D02*
X157786629Y-79086666D01*
X157786629Y-79086666D02*
X157810439Y-79039047D01*
X157810439Y-79039047D02*
X157834248Y-79015237D01*
X157834248Y-79015237D02*
X157881867Y-78991428D01*
X157881867Y-78991428D02*
X157953296Y-78991428D01*
X157953296Y-78991428D02*
X158000915Y-79015237D01*
X158000915Y-79015237D02*
X158024724Y-79039047D01*
X158024724Y-79039047D02*
X158048534Y-79086666D01*
X158048534Y-79086666D02*
X158048534Y-79277142D01*
X158286629Y-78515237D02*
X158286629Y-78800951D01*
X158286629Y-78658094D02*
X157786629Y-78658094D01*
X157786629Y-78658094D02*
X157858058Y-78705713D01*
X157858058Y-78705713D02*
X157905677Y-78753332D01*
X157905677Y-78753332D02*
X157929486Y-78800951D01*
X157786629Y-78062857D02*
X157786629Y-78300952D01*
X157786629Y-78300952D02*
X158024724Y-78324761D01*
X158024724Y-78324761D02*
X158000915Y-78300952D01*
X158000915Y-78300952D02*
X157977105Y-78253333D01*
X157977105Y-78253333D02*
X157977105Y-78134285D01*
X157977105Y-78134285D02*
X158000915Y-78086666D01*
X158000915Y-78086666D02*
X158024724Y-78062857D01*
X158024724Y-78062857D02*
X158072343Y-78039047D01*
X158072343Y-78039047D02*
X158191391Y-78039047D01*
X158191391Y-78039047D02*
X158239010Y-78062857D01*
X158239010Y-78062857D02*
X158262820Y-78086666D01*
X158262820Y-78086666D02*
X158286629Y-78134285D01*
X158286629Y-78134285D02*
X158286629Y-78253333D01*
X158286629Y-78253333D02*
X158262820Y-78300952D01*
X158262820Y-78300952D02*
X158239010Y-78324761D01*
X169129010Y-80771428D02*
X169152820Y-80795237D01*
X169152820Y-80795237D02*
X169176629Y-80866666D01*
X169176629Y-80866666D02*
X169176629Y-80914285D01*
X169176629Y-80914285D02*
X169152820Y-80985713D01*
X169152820Y-80985713D02*
X169105200Y-81033332D01*
X169105200Y-81033332D02*
X169057581Y-81057142D01*
X169057581Y-81057142D02*
X168962343Y-81080951D01*
X168962343Y-81080951D02*
X168890915Y-81080951D01*
X168890915Y-81080951D02*
X168795677Y-81057142D01*
X168795677Y-81057142D02*
X168748058Y-81033332D01*
X168748058Y-81033332D02*
X168700439Y-80985713D01*
X168700439Y-80985713D02*
X168676629Y-80914285D01*
X168676629Y-80914285D02*
X168676629Y-80866666D01*
X168676629Y-80866666D02*
X168700439Y-80795237D01*
X168700439Y-80795237D02*
X168724248Y-80771428D01*
X168724248Y-80580951D02*
X168700439Y-80557142D01*
X168700439Y-80557142D02*
X168676629Y-80509523D01*
X168676629Y-80509523D02*
X168676629Y-80390475D01*
X168676629Y-80390475D02*
X168700439Y-80342856D01*
X168700439Y-80342856D02*
X168724248Y-80319047D01*
X168724248Y-80319047D02*
X168771867Y-80295237D01*
X168771867Y-80295237D02*
X168819486Y-80295237D01*
X168819486Y-80295237D02*
X168890915Y-80319047D01*
X168890915Y-80319047D02*
X169176629Y-80604761D01*
X169176629Y-80604761D02*
X169176629Y-80295237D01*
X169176629Y-79819047D02*
X169176629Y-80104761D01*
X169176629Y-79961904D02*
X168676629Y-79961904D01*
X168676629Y-79961904D02*
X168748058Y-80009523D01*
X168748058Y-80009523D02*
X168795677Y-80057142D01*
X168795677Y-80057142D02*
X168819486Y-80104761D01*
X130066666Y-76329010D02*
X130042857Y-76352820D01*
X130042857Y-76352820D02*
X129971428Y-76376629D01*
X129971428Y-76376629D02*
X129923809Y-76376629D01*
X129923809Y-76376629D02*
X129852381Y-76352820D01*
X129852381Y-76352820D02*
X129804762Y-76305200D01*
X129804762Y-76305200D02*
X129780952Y-76257581D01*
X129780952Y-76257581D02*
X129757143Y-76162343D01*
X129757143Y-76162343D02*
X129757143Y-76090915D01*
X129757143Y-76090915D02*
X129780952Y-75995677D01*
X129780952Y-75995677D02*
X129804762Y-75948058D01*
X129804762Y-75948058D02*
X129852381Y-75900439D01*
X129852381Y-75900439D02*
X129923809Y-75876629D01*
X129923809Y-75876629D02*
X129971428Y-75876629D01*
X129971428Y-75876629D02*
X130042857Y-75900439D01*
X130042857Y-75900439D02*
X130066666Y-75924248D01*
X130304762Y-76376629D02*
X130400000Y-76376629D01*
X130400000Y-76376629D02*
X130447619Y-76352820D01*
X130447619Y-76352820D02*
X130471428Y-76329010D01*
X130471428Y-76329010D02*
X130519047Y-76257581D01*
X130519047Y-76257581D02*
X130542857Y-76162343D01*
X130542857Y-76162343D02*
X130542857Y-75971867D01*
X130542857Y-75971867D02*
X130519047Y-75924248D01*
X130519047Y-75924248D02*
X130495238Y-75900439D01*
X130495238Y-75900439D02*
X130447619Y-75876629D01*
X130447619Y-75876629D02*
X130352381Y-75876629D01*
X130352381Y-75876629D02*
X130304762Y-75900439D01*
X130304762Y-75900439D02*
X130280952Y-75924248D01*
X130280952Y-75924248D02*
X130257143Y-75971867D01*
X130257143Y-75971867D02*
X130257143Y-76090915D01*
X130257143Y-76090915D02*
X130280952Y-76138534D01*
X130280952Y-76138534D02*
X130304762Y-76162343D01*
X130304762Y-76162343D02*
X130352381Y-76186153D01*
X130352381Y-76186153D02*
X130447619Y-76186153D01*
X130447619Y-76186153D02*
X130495238Y-76162343D01*
X130495238Y-76162343D02*
X130519047Y-76138534D01*
X130519047Y-76138534D02*
X130542857Y-76090915D01*
X171428571Y-82654010D02*
X171404762Y-82677820D01*
X171404762Y-82677820D02*
X171333333Y-82701629D01*
X171333333Y-82701629D02*
X171285714Y-82701629D01*
X171285714Y-82701629D02*
X171214286Y-82677820D01*
X171214286Y-82677820D02*
X171166667Y-82630200D01*
X171166667Y-82630200D02*
X171142857Y-82582581D01*
X171142857Y-82582581D02*
X171119048Y-82487343D01*
X171119048Y-82487343D02*
X171119048Y-82415915D01*
X171119048Y-82415915D02*
X171142857Y-82320677D01*
X171142857Y-82320677D02*
X171166667Y-82273058D01*
X171166667Y-82273058D02*
X171214286Y-82225439D01*
X171214286Y-82225439D02*
X171285714Y-82201629D01*
X171285714Y-82201629D02*
X171333333Y-82201629D01*
X171333333Y-82201629D02*
X171404762Y-82225439D01*
X171404762Y-82225439D02*
X171428571Y-82249248D01*
X171619048Y-82249248D02*
X171642857Y-82225439D01*
X171642857Y-82225439D02*
X171690476Y-82201629D01*
X171690476Y-82201629D02*
X171809524Y-82201629D01*
X171809524Y-82201629D02*
X171857143Y-82225439D01*
X171857143Y-82225439D02*
X171880952Y-82249248D01*
X171880952Y-82249248D02*
X171904762Y-82296867D01*
X171904762Y-82296867D02*
X171904762Y-82344486D01*
X171904762Y-82344486D02*
X171880952Y-82415915D01*
X171880952Y-82415915D02*
X171595238Y-82701629D01*
X171595238Y-82701629D02*
X171904762Y-82701629D01*
X172333333Y-82368296D02*
X172333333Y-82701629D01*
X172214285Y-82177820D02*
X172095238Y-82534962D01*
X172095238Y-82534962D02*
X172404761Y-82534962D01*
X159069010Y-79131428D02*
X159092820Y-79155237D01*
X159092820Y-79155237D02*
X159116629Y-79226666D01*
X159116629Y-79226666D02*
X159116629Y-79274285D01*
X159116629Y-79274285D02*
X159092820Y-79345713D01*
X159092820Y-79345713D02*
X159045200Y-79393332D01*
X159045200Y-79393332D02*
X158997581Y-79417142D01*
X158997581Y-79417142D02*
X158902343Y-79440951D01*
X158902343Y-79440951D02*
X158830915Y-79440951D01*
X158830915Y-79440951D02*
X158735677Y-79417142D01*
X158735677Y-79417142D02*
X158688058Y-79393332D01*
X158688058Y-79393332D02*
X158640439Y-79345713D01*
X158640439Y-79345713D02*
X158616629Y-79274285D01*
X158616629Y-79274285D02*
X158616629Y-79226666D01*
X158616629Y-79226666D02*
X158640439Y-79155237D01*
X158640439Y-79155237D02*
X158664248Y-79131428D01*
X159116629Y-78655237D02*
X159116629Y-78940951D01*
X159116629Y-78798094D02*
X158616629Y-78798094D01*
X158616629Y-78798094D02*
X158688058Y-78845713D01*
X158688058Y-78845713D02*
X158735677Y-78893332D01*
X158735677Y-78893332D02*
X158759486Y-78940951D01*
X158783296Y-78226666D02*
X159116629Y-78226666D01*
X158592820Y-78345714D02*
X158949962Y-78464761D01*
X158949962Y-78464761D02*
X158949962Y-78155238D01*
X149333334Y-77677820D02*
X149404762Y-77701629D01*
X149404762Y-77701629D02*
X149523810Y-77701629D01*
X149523810Y-77701629D02*
X149571429Y-77677820D01*
X149571429Y-77677820D02*
X149595238Y-77654010D01*
X149595238Y-77654010D02*
X149619048Y-77606391D01*
X149619048Y-77606391D02*
X149619048Y-77558772D01*
X149619048Y-77558772D02*
X149595238Y-77511153D01*
X149595238Y-77511153D02*
X149571429Y-77487343D01*
X149571429Y-77487343D02*
X149523810Y-77463534D01*
X149523810Y-77463534D02*
X149428572Y-77439724D01*
X149428572Y-77439724D02*
X149380953Y-77415915D01*
X149380953Y-77415915D02*
X149357143Y-77392105D01*
X149357143Y-77392105D02*
X149333334Y-77344486D01*
X149333334Y-77344486D02*
X149333334Y-77296867D01*
X149333334Y-77296867D02*
X149357143Y-77249248D01*
X149357143Y-77249248D02*
X149380953Y-77225439D01*
X149380953Y-77225439D02*
X149428572Y-77201629D01*
X149428572Y-77201629D02*
X149547619Y-77201629D01*
X149547619Y-77201629D02*
X149619048Y-77225439D01*
X149785714Y-77201629D02*
X149904762Y-77701629D01*
X149904762Y-77701629D02*
X150000000Y-77344486D01*
X150000000Y-77344486D02*
X150095238Y-77701629D01*
X150095238Y-77701629D02*
X150214286Y-77201629D01*
X150357143Y-77201629D02*
X150666667Y-77201629D01*
X150666667Y-77201629D02*
X150500000Y-77392105D01*
X150500000Y-77392105D02*
X150571429Y-77392105D01*
X150571429Y-77392105D02*
X150619048Y-77415915D01*
X150619048Y-77415915D02*
X150642857Y-77439724D01*
X150642857Y-77439724D02*
X150666667Y-77487343D01*
X150666667Y-77487343D02*
X150666667Y-77606391D01*
X150666667Y-77606391D02*
X150642857Y-77654010D01*
X150642857Y-77654010D02*
X150619048Y-77677820D01*
X150619048Y-77677820D02*
X150571429Y-77701629D01*
X150571429Y-77701629D02*
X150428572Y-77701629D01*
X150428572Y-77701629D02*
X150380953Y-77677820D01*
X150380953Y-77677820D02*
X150357143Y-77654010D01*
X138629010Y-78733333D02*
X138652820Y-78757142D01*
X138652820Y-78757142D02*
X138676629Y-78828571D01*
X138676629Y-78828571D02*
X138676629Y-78876190D01*
X138676629Y-78876190D02*
X138652820Y-78947618D01*
X138652820Y-78947618D02*
X138605200Y-78995237D01*
X138605200Y-78995237D02*
X138557581Y-79019047D01*
X138557581Y-79019047D02*
X138462343Y-79042856D01*
X138462343Y-79042856D02*
X138390915Y-79042856D01*
X138390915Y-79042856D02*
X138295677Y-79019047D01*
X138295677Y-79019047D02*
X138248058Y-78995237D01*
X138248058Y-78995237D02*
X138200439Y-78947618D01*
X138200439Y-78947618D02*
X138176629Y-78876190D01*
X138176629Y-78876190D02*
X138176629Y-78828571D01*
X138176629Y-78828571D02*
X138200439Y-78757142D01*
X138200439Y-78757142D02*
X138224248Y-78733333D01*
X138676629Y-78257142D02*
X138676629Y-78542856D01*
X138676629Y-78399999D02*
X138176629Y-78399999D01*
X138176629Y-78399999D02*
X138248058Y-78447618D01*
X138248058Y-78447618D02*
X138295677Y-78495237D01*
X138295677Y-78495237D02*
X138319486Y-78542856D01*
X138679010Y-79783333D02*
X138702820Y-79807142D01*
X138702820Y-79807142D02*
X138726629Y-79878571D01*
X138726629Y-79878571D02*
X138726629Y-79926190D01*
X138726629Y-79926190D02*
X138702820Y-79997618D01*
X138702820Y-79997618D02*
X138655200Y-80045237D01*
X138655200Y-80045237D02*
X138607581Y-80069047D01*
X138607581Y-80069047D02*
X138512343Y-80092856D01*
X138512343Y-80092856D02*
X138440915Y-80092856D01*
X138440915Y-80092856D02*
X138345677Y-80069047D01*
X138345677Y-80069047D02*
X138298058Y-80045237D01*
X138298058Y-80045237D02*
X138250439Y-79997618D01*
X138250439Y-79997618D02*
X138226629Y-79926190D01*
X138226629Y-79926190D02*
X138226629Y-79878571D01*
X138226629Y-79878571D02*
X138250439Y-79807142D01*
X138250439Y-79807142D02*
X138274248Y-79783333D01*
X138226629Y-79616666D02*
X138226629Y-79307142D01*
X138226629Y-79307142D02*
X138417105Y-79473809D01*
X138417105Y-79473809D02*
X138417105Y-79402380D01*
X138417105Y-79402380D02*
X138440915Y-79354761D01*
X138440915Y-79354761D02*
X138464724Y-79330952D01*
X138464724Y-79330952D02*
X138512343Y-79307142D01*
X138512343Y-79307142D02*
X138631391Y-79307142D01*
X138631391Y-79307142D02*
X138679010Y-79330952D01*
X138679010Y-79330952D02*
X138702820Y-79354761D01*
X138702820Y-79354761D02*
X138726629Y-79402380D01*
X138726629Y-79402380D02*
X138726629Y-79545237D01*
X138726629Y-79545237D02*
X138702820Y-79592856D01*
X138702820Y-79592856D02*
X138679010Y-79616666D01*
X171229010Y-85546428D02*
X171252820Y-85570237D01*
X171252820Y-85570237D02*
X171276629Y-85641666D01*
X171276629Y-85641666D02*
X171276629Y-85689285D01*
X171276629Y-85689285D02*
X171252820Y-85760713D01*
X171252820Y-85760713D02*
X171205200Y-85808332D01*
X171205200Y-85808332D02*
X171157581Y-85832142D01*
X171157581Y-85832142D02*
X171062343Y-85855951D01*
X171062343Y-85855951D02*
X170990915Y-85855951D01*
X170990915Y-85855951D02*
X170895677Y-85832142D01*
X170895677Y-85832142D02*
X170848058Y-85808332D01*
X170848058Y-85808332D02*
X170800439Y-85760713D01*
X170800439Y-85760713D02*
X170776629Y-85689285D01*
X170776629Y-85689285D02*
X170776629Y-85641666D01*
X170776629Y-85641666D02*
X170800439Y-85570237D01*
X170800439Y-85570237D02*
X170824248Y-85546428D01*
X170824248Y-85355951D02*
X170800439Y-85332142D01*
X170800439Y-85332142D02*
X170776629Y-85284523D01*
X170776629Y-85284523D02*
X170776629Y-85165475D01*
X170776629Y-85165475D02*
X170800439Y-85117856D01*
X170800439Y-85117856D02*
X170824248Y-85094047D01*
X170824248Y-85094047D02*
X170871867Y-85070237D01*
X170871867Y-85070237D02*
X170919486Y-85070237D01*
X170919486Y-85070237D02*
X170990915Y-85094047D01*
X170990915Y-85094047D02*
X171276629Y-85379761D01*
X171276629Y-85379761D02*
X171276629Y-85070237D01*
X170776629Y-84903571D02*
X170776629Y-84594047D01*
X170776629Y-84594047D02*
X170967105Y-84760714D01*
X170967105Y-84760714D02*
X170967105Y-84689285D01*
X170967105Y-84689285D02*
X170990915Y-84641666D01*
X170990915Y-84641666D02*
X171014724Y-84617857D01*
X171014724Y-84617857D02*
X171062343Y-84594047D01*
X171062343Y-84594047D02*
X171181391Y-84594047D01*
X171181391Y-84594047D02*
X171229010Y-84617857D01*
X171229010Y-84617857D02*
X171252820Y-84641666D01*
X171252820Y-84641666D02*
X171276629Y-84689285D01*
X171276629Y-84689285D02*
X171276629Y-84832142D01*
X171276629Y-84832142D02*
X171252820Y-84879761D01*
X171252820Y-84879761D02*
X171229010Y-84903571D01*
X161569047Y-80576629D02*
X161569047Y-80981391D01*
X161569047Y-80981391D02*
X161592857Y-81029010D01*
X161592857Y-81029010D02*
X161616666Y-81052820D01*
X161616666Y-81052820D02*
X161664285Y-81076629D01*
X161664285Y-81076629D02*
X161759523Y-81076629D01*
X161759523Y-81076629D02*
X161807142Y-81052820D01*
X161807142Y-81052820D02*
X161830952Y-81029010D01*
X161830952Y-81029010D02*
X161854761Y-80981391D01*
X161854761Y-80981391D02*
X161854761Y-80576629D01*
X162330952Y-80576629D02*
X162092857Y-80576629D01*
X162092857Y-80576629D02*
X162069048Y-80814724D01*
X162069048Y-80814724D02*
X162092857Y-80790915D01*
X162092857Y-80790915D02*
X162140476Y-80767105D01*
X162140476Y-80767105D02*
X162259524Y-80767105D01*
X162259524Y-80767105D02*
X162307143Y-80790915D01*
X162307143Y-80790915D02*
X162330952Y-80814724D01*
X162330952Y-80814724D02*
X162354762Y-80862343D01*
X162354762Y-80862343D02*
X162354762Y-80981391D01*
X162354762Y-80981391D02*
X162330952Y-81029010D01*
X162330952Y-81029010D02*
X162307143Y-81052820D01*
X162307143Y-81052820D02*
X162259524Y-81076629D01*
X162259524Y-81076629D02*
X162140476Y-81076629D01*
X162140476Y-81076629D02*
X162092857Y-81052820D01*
X162092857Y-81052820D02*
X162069048Y-81029010D01*
X138626666Y-85529010D02*
X138602857Y-85552820D01*
X138602857Y-85552820D02*
X138531428Y-85576629D01*
X138531428Y-85576629D02*
X138483809Y-85576629D01*
X138483809Y-85576629D02*
X138412381Y-85552820D01*
X138412381Y-85552820D02*
X138364762Y-85505200D01*
X138364762Y-85505200D02*
X138340952Y-85457581D01*
X138340952Y-85457581D02*
X138317143Y-85362343D01*
X138317143Y-85362343D02*
X138317143Y-85290915D01*
X138317143Y-85290915D02*
X138340952Y-85195677D01*
X138340952Y-85195677D02*
X138364762Y-85148058D01*
X138364762Y-85148058D02*
X138412381Y-85100439D01*
X138412381Y-85100439D02*
X138483809Y-85076629D01*
X138483809Y-85076629D02*
X138531428Y-85076629D01*
X138531428Y-85076629D02*
X138602857Y-85100439D01*
X138602857Y-85100439D02*
X138626666Y-85124248D01*
X138912381Y-85290915D02*
X138864762Y-85267105D01*
X138864762Y-85267105D02*
X138840952Y-85243296D01*
X138840952Y-85243296D02*
X138817143Y-85195677D01*
X138817143Y-85195677D02*
X138817143Y-85171867D01*
X138817143Y-85171867D02*
X138840952Y-85124248D01*
X138840952Y-85124248D02*
X138864762Y-85100439D01*
X138864762Y-85100439D02*
X138912381Y-85076629D01*
X138912381Y-85076629D02*
X139007619Y-85076629D01*
X139007619Y-85076629D02*
X139055238Y-85100439D01*
X139055238Y-85100439D02*
X139079047Y-85124248D01*
X139079047Y-85124248D02*
X139102857Y-85171867D01*
X139102857Y-85171867D02*
X139102857Y-85195677D01*
X139102857Y-85195677D02*
X139079047Y-85243296D01*
X139079047Y-85243296D02*
X139055238Y-85267105D01*
X139055238Y-85267105D02*
X139007619Y-85290915D01*
X139007619Y-85290915D02*
X138912381Y-85290915D01*
X138912381Y-85290915D02*
X138864762Y-85314724D01*
X138864762Y-85314724D02*
X138840952Y-85338534D01*
X138840952Y-85338534D02*
X138817143Y-85386153D01*
X138817143Y-85386153D02*
X138817143Y-85481391D01*
X138817143Y-85481391D02*
X138840952Y-85529010D01*
X138840952Y-85529010D02*
X138864762Y-85552820D01*
X138864762Y-85552820D02*
X138912381Y-85576629D01*
X138912381Y-85576629D02*
X139007619Y-85576629D01*
X139007619Y-85576629D02*
X139055238Y-85552820D01*
X139055238Y-85552820D02*
X139079047Y-85529010D01*
X139079047Y-85529010D02*
X139102857Y-85481391D01*
X139102857Y-85481391D02*
X139102857Y-85386153D01*
X139102857Y-85386153D02*
X139079047Y-85338534D01*
X139079047Y-85338534D02*
X139055238Y-85314724D01*
X139055238Y-85314724D02*
X139007619Y-85290915D01*
X140711905Y-84038534D02*
X140711905Y-84276629D01*
X140545239Y-83776629D02*
X140711905Y-84038534D01*
X140711905Y-84038534D02*
X140878572Y-83776629D01*
X141307143Y-84276629D02*
X141021429Y-84276629D01*
X141164286Y-84276629D02*
X141164286Y-83776629D01*
X141164286Y-83776629D02*
X141116667Y-83848058D01*
X141116667Y-83848058D02*
X141069048Y-83895677D01*
X141069048Y-83895677D02*
X141021429Y-83919486D01*
X162101666Y-84276629D02*
X161935000Y-84038534D01*
X161815952Y-84276629D02*
X161815952Y-83776629D01*
X161815952Y-83776629D02*
X162006428Y-83776629D01*
X162006428Y-83776629D02*
X162054047Y-83800439D01*
X162054047Y-83800439D02*
X162077857Y-83824248D01*
X162077857Y-83824248D02*
X162101666Y-83871867D01*
X162101666Y-83871867D02*
X162101666Y-83943296D01*
X162101666Y-83943296D02*
X162077857Y-83990915D01*
X162077857Y-83990915D02*
X162054047Y-84014724D01*
X162054047Y-84014724D02*
X162006428Y-84038534D01*
X162006428Y-84038534D02*
X161815952Y-84038534D01*
X162387381Y-83990915D02*
X162339762Y-83967105D01*
X162339762Y-83967105D02*
X162315952Y-83943296D01*
X162315952Y-83943296D02*
X162292143Y-83895677D01*
X162292143Y-83895677D02*
X162292143Y-83871867D01*
X162292143Y-83871867D02*
X162315952Y-83824248D01*
X162315952Y-83824248D02*
X162339762Y-83800439D01*
X162339762Y-83800439D02*
X162387381Y-83776629D01*
X162387381Y-83776629D02*
X162482619Y-83776629D01*
X162482619Y-83776629D02*
X162530238Y-83800439D01*
X162530238Y-83800439D02*
X162554047Y-83824248D01*
X162554047Y-83824248D02*
X162577857Y-83871867D01*
X162577857Y-83871867D02*
X162577857Y-83895677D01*
X162577857Y-83895677D02*
X162554047Y-83943296D01*
X162554047Y-83943296D02*
X162530238Y-83967105D01*
X162530238Y-83967105D02*
X162482619Y-83990915D01*
X162482619Y-83990915D02*
X162387381Y-83990915D01*
X162387381Y-83990915D02*
X162339762Y-84014724D01*
X162339762Y-84014724D02*
X162315952Y-84038534D01*
X162315952Y-84038534D02*
X162292143Y-84086153D01*
X162292143Y-84086153D02*
X162292143Y-84181391D01*
X162292143Y-84181391D02*
X162315952Y-84229010D01*
X162315952Y-84229010D02*
X162339762Y-84252820D01*
X162339762Y-84252820D02*
X162387381Y-84276629D01*
X162387381Y-84276629D02*
X162482619Y-84276629D01*
X162482619Y-84276629D02*
X162530238Y-84252820D01*
X162530238Y-84252820D02*
X162554047Y-84229010D01*
X162554047Y-84229010D02*
X162577857Y-84181391D01*
X162577857Y-84181391D02*
X162577857Y-84086153D01*
X162577857Y-84086153D02*
X162554047Y-84038534D01*
X162554047Y-84038534D02*
X162530238Y-84014724D01*
X162530238Y-84014724D02*
X162482619Y-83990915D01*
X126066666Y-82054010D02*
X126042857Y-82077820D01*
X126042857Y-82077820D02*
X125971428Y-82101629D01*
X125971428Y-82101629D02*
X125923809Y-82101629D01*
X125923809Y-82101629D02*
X125852381Y-82077820D01*
X125852381Y-82077820D02*
X125804762Y-82030200D01*
X125804762Y-82030200D02*
X125780952Y-81982581D01*
X125780952Y-81982581D02*
X125757143Y-81887343D01*
X125757143Y-81887343D02*
X125757143Y-81815915D01*
X125757143Y-81815915D02*
X125780952Y-81720677D01*
X125780952Y-81720677D02*
X125804762Y-81673058D01*
X125804762Y-81673058D02*
X125852381Y-81625439D01*
X125852381Y-81625439D02*
X125923809Y-81601629D01*
X125923809Y-81601629D02*
X125971428Y-81601629D01*
X125971428Y-81601629D02*
X126042857Y-81625439D01*
X126042857Y-81625439D02*
X126066666Y-81649248D01*
X126495238Y-81768296D02*
X126495238Y-82101629D01*
X126376190Y-81577820D02*
X126257143Y-81934962D01*
X126257143Y-81934962D02*
X126566666Y-81934962D01*
X161563571Y-85451629D02*
X161396905Y-85213534D01*
X161277857Y-85451629D02*
X161277857Y-84951629D01*
X161277857Y-84951629D02*
X161468333Y-84951629D01*
X161468333Y-84951629D02*
X161515952Y-84975439D01*
X161515952Y-84975439D02*
X161539762Y-84999248D01*
X161539762Y-84999248D02*
X161563571Y-85046867D01*
X161563571Y-85046867D02*
X161563571Y-85118296D01*
X161563571Y-85118296D02*
X161539762Y-85165915D01*
X161539762Y-85165915D02*
X161515952Y-85189724D01*
X161515952Y-85189724D02*
X161468333Y-85213534D01*
X161468333Y-85213534D02*
X161277857Y-85213534D01*
X162039762Y-85451629D02*
X161754048Y-85451629D01*
X161896905Y-85451629D02*
X161896905Y-84951629D01*
X161896905Y-84951629D02*
X161849286Y-85023058D01*
X161849286Y-85023058D02*
X161801667Y-85070677D01*
X161801667Y-85070677D02*
X161754048Y-85094486D01*
X162349285Y-84951629D02*
X162396904Y-84951629D01*
X162396904Y-84951629D02*
X162444523Y-84975439D01*
X162444523Y-84975439D02*
X162468333Y-84999248D01*
X162468333Y-84999248D02*
X162492142Y-85046867D01*
X162492142Y-85046867D02*
X162515952Y-85142105D01*
X162515952Y-85142105D02*
X162515952Y-85261153D01*
X162515952Y-85261153D02*
X162492142Y-85356391D01*
X162492142Y-85356391D02*
X162468333Y-85404010D01*
X162468333Y-85404010D02*
X162444523Y-85427820D01*
X162444523Y-85427820D02*
X162396904Y-85451629D01*
X162396904Y-85451629D02*
X162349285Y-85451629D01*
X162349285Y-85451629D02*
X162301666Y-85427820D01*
X162301666Y-85427820D02*
X162277857Y-85404010D01*
X162277857Y-85404010D02*
X162254047Y-85356391D01*
X162254047Y-85356391D02*
X162230238Y-85261153D01*
X162230238Y-85261153D02*
X162230238Y-85142105D01*
X162230238Y-85142105D02*
X162254047Y-85046867D01*
X162254047Y-85046867D02*
X162277857Y-84999248D01*
X162277857Y-84999248D02*
X162301666Y-84975439D01*
X162301666Y-84975439D02*
X162349285Y-84951629D01*
X161588571Y-83226629D02*
X161421905Y-82988534D01*
X161302857Y-83226629D02*
X161302857Y-82726629D01*
X161302857Y-82726629D02*
X161493333Y-82726629D01*
X161493333Y-82726629D02*
X161540952Y-82750439D01*
X161540952Y-82750439D02*
X161564762Y-82774248D01*
X161564762Y-82774248D02*
X161588571Y-82821867D01*
X161588571Y-82821867D02*
X161588571Y-82893296D01*
X161588571Y-82893296D02*
X161564762Y-82940915D01*
X161564762Y-82940915D02*
X161540952Y-82964724D01*
X161540952Y-82964724D02*
X161493333Y-82988534D01*
X161493333Y-82988534D02*
X161302857Y-82988534D01*
X162064762Y-83226629D02*
X161779048Y-83226629D01*
X161921905Y-83226629D02*
X161921905Y-82726629D01*
X161921905Y-82726629D02*
X161874286Y-82798058D01*
X161874286Y-82798058D02*
X161826667Y-82845677D01*
X161826667Y-82845677D02*
X161779048Y-82869486D01*
X162540952Y-83226629D02*
X162255238Y-83226629D01*
X162398095Y-83226629D02*
X162398095Y-82726629D01*
X162398095Y-82726629D02*
X162350476Y-82798058D01*
X162350476Y-82798058D02*
X162302857Y-82845677D01*
X162302857Y-82845677D02*
X162255238Y-82869486D01*
X139438571Y-76369010D02*
X139414762Y-76392820D01*
X139414762Y-76392820D02*
X139343333Y-76416629D01*
X139343333Y-76416629D02*
X139295714Y-76416629D01*
X139295714Y-76416629D02*
X139224286Y-76392820D01*
X139224286Y-76392820D02*
X139176667Y-76345200D01*
X139176667Y-76345200D02*
X139152857Y-76297581D01*
X139152857Y-76297581D02*
X139129048Y-76202343D01*
X139129048Y-76202343D02*
X139129048Y-76130915D01*
X139129048Y-76130915D02*
X139152857Y-76035677D01*
X139152857Y-76035677D02*
X139176667Y-75988058D01*
X139176667Y-75988058D02*
X139224286Y-75940439D01*
X139224286Y-75940439D02*
X139295714Y-75916629D01*
X139295714Y-75916629D02*
X139343333Y-75916629D01*
X139343333Y-75916629D02*
X139414762Y-75940439D01*
X139414762Y-75940439D02*
X139438571Y-75964248D01*
X139914762Y-76416629D02*
X139629048Y-76416629D01*
X139771905Y-76416629D02*
X139771905Y-75916629D01*
X139771905Y-75916629D02*
X139724286Y-75988058D01*
X139724286Y-75988058D02*
X139676667Y-76035677D01*
X139676667Y-76035677D02*
X139629048Y-76059486D01*
X140367142Y-75916629D02*
X140129047Y-75916629D01*
X140129047Y-75916629D02*
X140105238Y-76154724D01*
X140105238Y-76154724D02*
X140129047Y-76130915D01*
X140129047Y-76130915D02*
X140176666Y-76107105D01*
X140176666Y-76107105D02*
X140295714Y-76107105D01*
X140295714Y-76107105D02*
X140343333Y-76130915D01*
X140343333Y-76130915D02*
X140367142Y-76154724D01*
X140367142Y-76154724D02*
X140390952Y-76202343D01*
X140390952Y-76202343D02*
X140390952Y-76321391D01*
X140390952Y-76321391D02*
X140367142Y-76369010D01*
X140367142Y-76369010D02*
X140343333Y-76392820D01*
X140343333Y-76392820D02*
X140295714Y-76416629D01*
X140295714Y-76416629D02*
X140176666Y-76416629D01*
X140176666Y-76416629D02*
X140129047Y-76392820D01*
X140129047Y-76392820D02*
X140105238Y-76369010D01*
X124616666Y-76454010D02*
X124592857Y-76477820D01*
X124592857Y-76477820D02*
X124521428Y-76501629D01*
X124521428Y-76501629D02*
X124473809Y-76501629D01*
X124473809Y-76501629D02*
X124402381Y-76477820D01*
X124402381Y-76477820D02*
X124354762Y-76430200D01*
X124354762Y-76430200D02*
X124330952Y-76382581D01*
X124330952Y-76382581D02*
X124307143Y-76287343D01*
X124307143Y-76287343D02*
X124307143Y-76215915D01*
X124307143Y-76215915D02*
X124330952Y-76120677D01*
X124330952Y-76120677D02*
X124354762Y-76073058D01*
X124354762Y-76073058D02*
X124402381Y-76025439D01*
X124402381Y-76025439D02*
X124473809Y-76001629D01*
X124473809Y-76001629D02*
X124521428Y-76001629D01*
X124521428Y-76001629D02*
X124592857Y-76025439D01*
X124592857Y-76025439D02*
X124616666Y-76049248D01*
X124783333Y-76001629D02*
X125116666Y-76001629D01*
X125116666Y-76001629D02*
X124902381Y-76501629D01*
X132166666Y-76429010D02*
X132142857Y-76452820D01*
X132142857Y-76452820D02*
X132071428Y-76476629D01*
X132071428Y-76476629D02*
X132023809Y-76476629D01*
X132023809Y-76476629D02*
X131952381Y-76452820D01*
X131952381Y-76452820D02*
X131904762Y-76405200D01*
X131904762Y-76405200D02*
X131880952Y-76357581D01*
X131880952Y-76357581D02*
X131857143Y-76262343D01*
X131857143Y-76262343D02*
X131857143Y-76190915D01*
X131857143Y-76190915D02*
X131880952Y-76095677D01*
X131880952Y-76095677D02*
X131904762Y-76048058D01*
X131904762Y-76048058D02*
X131952381Y-76000439D01*
X131952381Y-76000439D02*
X132023809Y-75976629D01*
X132023809Y-75976629D02*
X132071428Y-75976629D01*
X132071428Y-75976629D02*
X132142857Y-76000439D01*
X132142857Y-76000439D02*
X132166666Y-76024248D01*
X132619047Y-75976629D02*
X132380952Y-75976629D01*
X132380952Y-75976629D02*
X132357143Y-76214724D01*
X132357143Y-76214724D02*
X132380952Y-76190915D01*
X132380952Y-76190915D02*
X132428571Y-76167105D01*
X132428571Y-76167105D02*
X132547619Y-76167105D01*
X132547619Y-76167105D02*
X132595238Y-76190915D01*
X132595238Y-76190915D02*
X132619047Y-76214724D01*
X132619047Y-76214724D02*
X132642857Y-76262343D01*
X132642857Y-76262343D02*
X132642857Y-76381391D01*
X132642857Y-76381391D02*
X132619047Y-76429010D01*
X132619047Y-76429010D02*
X132595238Y-76452820D01*
X132595238Y-76452820D02*
X132547619Y-76476629D01*
X132547619Y-76476629D02*
X132428571Y-76476629D01*
X132428571Y-76476629D02*
X132380952Y-76452820D01*
X132380952Y-76452820D02*
X132357143Y-76429010D01*
X134969047Y-84826629D02*
X134969047Y-85231391D01*
X134969047Y-85231391D02*
X134992857Y-85279010D01*
X134992857Y-85279010D02*
X135016666Y-85302820D01*
X135016666Y-85302820D02*
X135064285Y-85326629D01*
X135064285Y-85326629D02*
X135159523Y-85326629D01*
X135159523Y-85326629D02*
X135207142Y-85302820D01*
X135207142Y-85302820D02*
X135230952Y-85279010D01*
X135230952Y-85279010D02*
X135254761Y-85231391D01*
X135254761Y-85231391D02*
X135254761Y-84826629D01*
X135445238Y-84826629D02*
X135754762Y-84826629D01*
X135754762Y-84826629D02*
X135588095Y-85017105D01*
X135588095Y-85017105D02*
X135659524Y-85017105D01*
X135659524Y-85017105D02*
X135707143Y-85040915D01*
X135707143Y-85040915D02*
X135730952Y-85064724D01*
X135730952Y-85064724D02*
X135754762Y-85112343D01*
X135754762Y-85112343D02*
X135754762Y-85231391D01*
X135754762Y-85231391D02*
X135730952Y-85279010D01*
X135730952Y-85279010D02*
X135707143Y-85302820D01*
X135707143Y-85302820D02*
X135659524Y-85326629D01*
X135659524Y-85326629D02*
X135516667Y-85326629D01*
X135516667Y-85326629D02*
X135469048Y-85302820D01*
X135469048Y-85302820D02*
X135445238Y-85279010D01*
X171316666Y-80701629D02*
X171078571Y-80701629D01*
X171078571Y-80701629D02*
X171078571Y-80201629D01*
X171459524Y-80249248D02*
X171483333Y-80225439D01*
X171483333Y-80225439D02*
X171530952Y-80201629D01*
X171530952Y-80201629D02*
X171650000Y-80201629D01*
X171650000Y-80201629D02*
X171697619Y-80225439D01*
X171697619Y-80225439D02*
X171721428Y-80249248D01*
X171721428Y-80249248D02*
X171745238Y-80296867D01*
X171745238Y-80296867D02*
X171745238Y-80344486D01*
X171745238Y-80344486D02*
X171721428Y-80415915D01*
X171721428Y-80415915D02*
X171435714Y-80701629D01*
X171435714Y-80701629D02*
X171745238Y-80701629D01*
X165278571Y-76554010D02*
X165254762Y-76577820D01*
X165254762Y-76577820D02*
X165183333Y-76601629D01*
X165183333Y-76601629D02*
X165135714Y-76601629D01*
X165135714Y-76601629D02*
X165064286Y-76577820D01*
X165064286Y-76577820D02*
X165016667Y-76530200D01*
X165016667Y-76530200D02*
X164992857Y-76482581D01*
X164992857Y-76482581D02*
X164969048Y-76387343D01*
X164969048Y-76387343D02*
X164969048Y-76315915D01*
X164969048Y-76315915D02*
X164992857Y-76220677D01*
X164992857Y-76220677D02*
X165016667Y-76173058D01*
X165016667Y-76173058D02*
X165064286Y-76125439D01*
X165064286Y-76125439D02*
X165135714Y-76101629D01*
X165135714Y-76101629D02*
X165183333Y-76101629D01*
X165183333Y-76101629D02*
X165254762Y-76125439D01*
X165254762Y-76125439D02*
X165278571Y-76149248D01*
X165469048Y-76149248D02*
X165492857Y-76125439D01*
X165492857Y-76125439D02*
X165540476Y-76101629D01*
X165540476Y-76101629D02*
X165659524Y-76101629D01*
X165659524Y-76101629D02*
X165707143Y-76125439D01*
X165707143Y-76125439D02*
X165730952Y-76149248D01*
X165730952Y-76149248D02*
X165754762Y-76196867D01*
X165754762Y-76196867D02*
X165754762Y-76244486D01*
X165754762Y-76244486D02*
X165730952Y-76315915D01*
X165730952Y-76315915D02*
X165445238Y-76601629D01*
X165445238Y-76601629D02*
X165754762Y-76601629D01*
X166064285Y-76101629D02*
X166111904Y-76101629D01*
X166111904Y-76101629D02*
X166159523Y-76125439D01*
X166159523Y-76125439D02*
X166183333Y-76149248D01*
X166183333Y-76149248D02*
X166207142Y-76196867D01*
X166207142Y-76196867D02*
X166230952Y-76292105D01*
X166230952Y-76292105D02*
X166230952Y-76411153D01*
X166230952Y-76411153D02*
X166207142Y-76506391D01*
X166207142Y-76506391D02*
X166183333Y-76554010D01*
X166183333Y-76554010D02*
X166159523Y-76577820D01*
X166159523Y-76577820D02*
X166111904Y-76601629D01*
X166111904Y-76601629D02*
X166064285Y-76601629D01*
X166064285Y-76601629D02*
X166016666Y-76577820D01*
X166016666Y-76577820D02*
X165992857Y-76554010D01*
X165992857Y-76554010D02*
X165969047Y-76506391D01*
X165969047Y-76506391D02*
X165945238Y-76411153D01*
X165945238Y-76411153D02*
X165945238Y-76292105D01*
X165945238Y-76292105D02*
X165969047Y-76196867D01*
X165969047Y-76196867D02*
X165992857Y-76149248D01*
X165992857Y-76149248D02*
X166016666Y-76125439D01*
X166016666Y-76125439D02*
X166064285Y-76101629D01*
X168855952Y-77601629D02*
X168855952Y-77101629D01*
X168855952Y-77101629D02*
X168975000Y-77101629D01*
X168975000Y-77101629D02*
X169046428Y-77125439D01*
X169046428Y-77125439D02*
X169094047Y-77173058D01*
X169094047Y-77173058D02*
X169117857Y-77220677D01*
X169117857Y-77220677D02*
X169141666Y-77315915D01*
X169141666Y-77315915D02*
X169141666Y-77387343D01*
X169141666Y-77387343D02*
X169117857Y-77482581D01*
X169117857Y-77482581D02*
X169094047Y-77530200D01*
X169094047Y-77530200D02*
X169046428Y-77577820D01*
X169046428Y-77577820D02*
X168975000Y-77601629D01*
X168975000Y-77601629D02*
X168855952Y-77601629D01*
X169308333Y-77101629D02*
X169617857Y-77101629D01*
X169617857Y-77101629D02*
X169451190Y-77292105D01*
X169451190Y-77292105D02*
X169522619Y-77292105D01*
X169522619Y-77292105D02*
X169570238Y-77315915D01*
X169570238Y-77315915D02*
X169594047Y-77339724D01*
X169594047Y-77339724D02*
X169617857Y-77387343D01*
X169617857Y-77387343D02*
X169617857Y-77506391D01*
X169617857Y-77506391D02*
X169594047Y-77554010D01*
X169594047Y-77554010D02*
X169570238Y-77577820D01*
X169570238Y-77577820D02*
X169522619Y-77601629D01*
X169522619Y-77601629D02*
X169379762Y-77601629D01*
X169379762Y-77601629D02*
X169332143Y-77577820D01*
X169332143Y-77577820D02*
X169308333Y-77554010D01*
X160928571Y-80029010D02*
X160904762Y-80052820D01*
X160904762Y-80052820D02*
X160833333Y-80076629D01*
X160833333Y-80076629D02*
X160785714Y-80076629D01*
X160785714Y-80076629D02*
X160714286Y-80052820D01*
X160714286Y-80052820D02*
X160666667Y-80005200D01*
X160666667Y-80005200D02*
X160642857Y-79957581D01*
X160642857Y-79957581D02*
X160619048Y-79862343D01*
X160619048Y-79862343D02*
X160619048Y-79790915D01*
X160619048Y-79790915D02*
X160642857Y-79695677D01*
X160642857Y-79695677D02*
X160666667Y-79648058D01*
X160666667Y-79648058D02*
X160714286Y-79600439D01*
X160714286Y-79600439D02*
X160785714Y-79576629D01*
X160785714Y-79576629D02*
X160833333Y-79576629D01*
X160833333Y-79576629D02*
X160904762Y-79600439D01*
X160904762Y-79600439D02*
X160928571Y-79624248D01*
X161404762Y-80076629D02*
X161119048Y-80076629D01*
X161261905Y-80076629D02*
X161261905Y-79576629D01*
X161261905Y-79576629D02*
X161214286Y-79648058D01*
X161214286Y-79648058D02*
X161166667Y-79695677D01*
X161166667Y-79695677D02*
X161119048Y-79719486D01*
X161833333Y-79576629D02*
X161738095Y-79576629D01*
X161738095Y-79576629D02*
X161690476Y-79600439D01*
X161690476Y-79600439D02*
X161666666Y-79624248D01*
X161666666Y-79624248D02*
X161619047Y-79695677D01*
X161619047Y-79695677D02*
X161595238Y-79790915D01*
X161595238Y-79790915D02*
X161595238Y-79981391D01*
X161595238Y-79981391D02*
X161619047Y-80029010D01*
X161619047Y-80029010D02*
X161642857Y-80052820D01*
X161642857Y-80052820D02*
X161690476Y-80076629D01*
X161690476Y-80076629D02*
X161785714Y-80076629D01*
X161785714Y-80076629D02*
X161833333Y-80052820D01*
X161833333Y-80052820D02*
X161857142Y-80029010D01*
X161857142Y-80029010D02*
X161880952Y-79981391D01*
X161880952Y-79981391D02*
X161880952Y-79862343D01*
X161880952Y-79862343D02*
X161857142Y-79814724D01*
X161857142Y-79814724D02*
X161833333Y-79790915D01*
X161833333Y-79790915D02*
X161785714Y-79767105D01*
X161785714Y-79767105D02*
X161690476Y-79767105D01*
X161690476Y-79767105D02*
X161642857Y-79790915D01*
X161642857Y-79790915D02*
X161619047Y-79814724D01*
X161619047Y-79814724D02*
X161595238Y-79862343D01*
X125006629Y-78958333D02*
X124768534Y-79124999D01*
X125006629Y-79244047D02*
X124506629Y-79244047D01*
X124506629Y-79244047D02*
X124506629Y-79053571D01*
X124506629Y-79053571D02*
X124530439Y-79005952D01*
X124530439Y-79005952D02*
X124554248Y-78982142D01*
X124554248Y-78982142D02*
X124601867Y-78958333D01*
X124601867Y-78958333D02*
X124673296Y-78958333D01*
X124673296Y-78958333D02*
X124720915Y-78982142D01*
X124720915Y-78982142D02*
X124744724Y-79005952D01*
X124744724Y-79005952D02*
X124768534Y-79053571D01*
X124768534Y-79053571D02*
X124768534Y-79244047D01*
X124506629Y-78505952D02*
X124506629Y-78744047D01*
X124506629Y-78744047D02*
X124744724Y-78767856D01*
X124744724Y-78767856D02*
X124720915Y-78744047D01*
X124720915Y-78744047D02*
X124697105Y-78696428D01*
X124697105Y-78696428D02*
X124697105Y-78577380D01*
X124697105Y-78577380D02*
X124720915Y-78529761D01*
X124720915Y-78529761D02*
X124744724Y-78505952D01*
X124744724Y-78505952D02*
X124792343Y-78482142D01*
X124792343Y-78482142D02*
X124911391Y-78482142D01*
X124911391Y-78482142D02*
X124959010Y-78505952D01*
X124959010Y-78505952D02*
X124982820Y-78529761D01*
X124982820Y-78529761D02*
X125006629Y-78577380D01*
X125006629Y-78577380D02*
X125006629Y-78696428D01*
X125006629Y-78696428D02*
X124982820Y-78744047D01*
X124982820Y-78744047D02*
X124959010Y-78767856D01*
X162728571Y-76551629D02*
X162561905Y-76313534D01*
X162442857Y-76551629D02*
X162442857Y-76051629D01*
X162442857Y-76051629D02*
X162633333Y-76051629D01*
X162633333Y-76051629D02*
X162680952Y-76075439D01*
X162680952Y-76075439D02*
X162704762Y-76099248D01*
X162704762Y-76099248D02*
X162728571Y-76146867D01*
X162728571Y-76146867D02*
X162728571Y-76218296D01*
X162728571Y-76218296D02*
X162704762Y-76265915D01*
X162704762Y-76265915D02*
X162680952Y-76289724D01*
X162680952Y-76289724D02*
X162633333Y-76313534D01*
X162633333Y-76313534D02*
X162442857Y-76313534D01*
X163204762Y-76551629D02*
X162919048Y-76551629D01*
X163061905Y-76551629D02*
X163061905Y-76051629D01*
X163061905Y-76051629D02*
X163014286Y-76123058D01*
X163014286Y-76123058D02*
X162966667Y-76170677D01*
X162966667Y-76170677D02*
X162919048Y-76194486D01*
X163395238Y-76099248D02*
X163419047Y-76075439D01*
X163419047Y-76075439D02*
X163466666Y-76051629D01*
X163466666Y-76051629D02*
X163585714Y-76051629D01*
X163585714Y-76051629D02*
X163633333Y-76075439D01*
X163633333Y-76075439D02*
X163657142Y-76099248D01*
X163657142Y-76099248D02*
X163680952Y-76146867D01*
X163680952Y-76146867D02*
X163680952Y-76194486D01*
X163680952Y-76194486D02*
X163657142Y-76265915D01*
X163657142Y-76265915D02*
X163371428Y-76551629D01*
X163371428Y-76551629D02*
X163680952Y-76551629D01*
X171418571Y-79351629D02*
X171251905Y-79113534D01*
X171132857Y-79351629D02*
X171132857Y-78851629D01*
X171132857Y-78851629D02*
X171323333Y-78851629D01*
X171323333Y-78851629D02*
X171370952Y-78875439D01*
X171370952Y-78875439D02*
X171394762Y-78899248D01*
X171394762Y-78899248D02*
X171418571Y-78946867D01*
X171418571Y-78946867D02*
X171418571Y-79018296D01*
X171418571Y-79018296D02*
X171394762Y-79065915D01*
X171394762Y-79065915D02*
X171370952Y-79089724D01*
X171370952Y-79089724D02*
X171323333Y-79113534D01*
X171323333Y-79113534D02*
X171132857Y-79113534D01*
X171894762Y-79351629D02*
X171609048Y-79351629D01*
X171751905Y-79351629D02*
X171751905Y-78851629D01*
X171751905Y-78851629D02*
X171704286Y-78923058D01*
X171704286Y-78923058D02*
X171656667Y-78970677D01*
X171656667Y-78970677D02*
X171609048Y-78994486D01*
X172323333Y-78851629D02*
X172228095Y-78851629D01*
X172228095Y-78851629D02*
X172180476Y-78875439D01*
X172180476Y-78875439D02*
X172156666Y-78899248D01*
X172156666Y-78899248D02*
X172109047Y-78970677D01*
X172109047Y-78970677D02*
X172085238Y-79065915D01*
X172085238Y-79065915D02*
X172085238Y-79256391D01*
X172085238Y-79256391D02*
X172109047Y-79304010D01*
X172109047Y-79304010D02*
X172132857Y-79327820D01*
X172132857Y-79327820D02*
X172180476Y-79351629D01*
X172180476Y-79351629D02*
X172275714Y-79351629D01*
X172275714Y-79351629D02*
X172323333Y-79327820D01*
X172323333Y-79327820D02*
X172347142Y-79304010D01*
X172347142Y-79304010D02*
X172370952Y-79256391D01*
X172370952Y-79256391D02*
X172370952Y-79137343D01*
X172370952Y-79137343D02*
X172347142Y-79089724D01*
X172347142Y-79089724D02*
X172323333Y-79065915D01*
X172323333Y-79065915D02*
X172275714Y-79042105D01*
X172275714Y-79042105D02*
X172180476Y-79042105D01*
X172180476Y-79042105D02*
X172132857Y-79065915D01*
X172132857Y-79065915D02*
X172109047Y-79089724D01*
X172109047Y-79089724D02*
X172085238Y-79137343D01*
X136226629Y-80783333D02*
X135988534Y-80949999D01*
X136226629Y-81069047D02*
X135726629Y-81069047D01*
X135726629Y-81069047D02*
X135726629Y-80878571D01*
X135726629Y-80878571D02*
X135750439Y-80830952D01*
X135750439Y-80830952D02*
X135774248Y-80807142D01*
X135774248Y-80807142D02*
X135821867Y-80783333D01*
X135821867Y-80783333D02*
X135893296Y-80783333D01*
X135893296Y-80783333D02*
X135940915Y-80807142D01*
X135940915Y-80807142D02*
X135964724Y-80830952D01*
X135964724Y-80830952D02*
X135988534Y-80878571D01*
X135988534Y-80878571D02*
X135988534Y-81069047D01*
X135893296Y-80354761D02*
X136226629Y-80354761D01*
X135702820Y-80473809D02*
X136059962Y-80592856D01*
X136059962Y-80592856D02*
X136059962Y-80283333D01*
X161618571Y-82116629D02*
X161451905Y-81878534D01*
X161332857Y-82116629D02*
X161332857Y-81616629D01*
X161332857Y-81616629D02*
X161523333Y-81616629D01*
X161523333Y-81616629D02*
X161570952Y-81640439D01*
X161570952Y-81640439D02*
X161594762Y-81664248D01*
X161594762Y-81664248D02*
X161618571Y-81711867D01*
X161618571Y-81711867D02*
X161618571Y-81783296D01*
X161618571Y-81783296D02*
X161594762Y-81830915D01*
X161594762Y-81830915D02*
X161570952Y-81854724D01*
X161570952Y-81854724D02*
X161523333Y-81878534D01*
X161523333Y-81878534D02*
X161332857Y-81878534D01*
X162094762Y-82116629D02*
X161809048Y-82116629D01*
X161951905Y-82116629D02*
X161951905Y-81616629D01*
X161951905Y-81616629D02*
X161904286Y-81688058D01*
X161904286Y-81688058D02*
X161856667Y-81735677D01*
X161856667Y-81735677D02*
X161809048Y-81759486D01*
X162261428Y-81616629D02*
X162570952Y-81616629D01*
X162570952Y-81616629D02*
X162404285Y-81807105D01*
X162404285Y-81807105D02*
X162475714Y-81807105D01*
X162475714Y-81807105D02*
X162523333Y-81830915D01*
X162523333Y-81830915D02*
X162547142Y-81854724D01*
X162547142Y-81854724D02*
X162570952Y-81902343D01*
X162570952Y-81902343D02*
X162570952Y-82021391D01*
X162570952Y-82021391D02*
X162547142Y-82069010D01*
X162547142Y-82069010D02*
X162523333Y-82092820D01*
X162523333Y-82092820D02*
X162475714Y-82116629D01*
X162475714Y-82116629D02*
X162332857Y-82116629D01*
X162332857Y-82116629D02*
X162285238Y-82092820D01*
X162285238Y-82092820D02*
X162261428Y-82069010D01*
X173829010Y-80731428D02*
X173852820Y-80755237D01*
X173852820Y-80755237D02*
X173876629Y-80826666D01*
X173876629Y-80826666D02*
X173876629Y-80874285D01*
X173876629Y-80874285D02*
X173852820Y-80945713D01*
X173852820Y-80945713D02*
X173805200Y-80993332D01*
X173805200Y-80993332D02*
X173757581Y-81017142D01*
X173757581Y-81017142D02*
X173662343Y-81040951D01*
X173662343Y-81040951D02*
X173590915Y-81040951D01*
X173590915Y-81040951D02*
X173495677Y-81017142D01*
X173495677Y-81017142D02*
X173448058Y-80993332D01*
X173448058Y-80993332D02*
X173400439Y-80945713D01*
X173400439Y-80945713D02*
X173376629Y-80874285D01*
X173376629Y-80874285D02*
X173376629Y-80826666D01*
X173376629Y-80826666D02*
X173400439Y-80755237D01*
X173400439Y-80755237D02*
X173424248Y-80731428D01*
X173424248Y-80540951D02*
X173400439Y-80517142D01*
X173400439Y-80517142D02*
X173376629Y-80469523D01*
X173376629Y-80469523D02*
X173376629Y-80350475D01*
X173376629Y-80350475D02*
X173400439Y-80302856D01*
X173400439Y-80302856D02*
X173424248Y-80279047D01*
X173424248Y-80279047D02*
X173471867Y-80255237D01*
X173471867Y-80255237D02*
X173519486Y-80255237D01*
X173519486Y-80255237D02*
X173590915Y-80279047D01*
X173590915Y-80279047D02*
X173876629Y-80564761D01*
X173876629Y-80564761D02*
X173876629Y-80255237D01*
X173424248Y-80064761D02*
X173400439Y-80040952D01*
X173400439Y-80040952D02*
X173376629Y-79993333D01*
X173376629Y-79993333D02*
X173376629Y-79874285D01*
X173376629Y-79874285D02*
X173400439Y-79826666D01*
X173400439Y-79826666D02*
X173424248Y-79802857D01*
X173424248Y-79802857D02*
X173471867Y-79779047D01*
X173471867Y-79779047D02*
X173519486Y-79779047D01*
X173519486Y-79779047D02*
X173590915Y-79802857D01*
X173590915Y-79802857D02*
X173876629Y-80088571D01*
X173876629Y-80088571D02*
X173876629Y-79779047D01*
X152778571Y-81126629D02*
X152611905Y-80888534D01*
X152492857Y-81126629D02*
X152492857Y-80626629D01*
X152492857Y-80626629D02*
X152683333Y-80626629D01*
X152683333Y-80626629D02*
X152730952Y-80650439D01*
X152730952Y-80650439D02*
X152754762Y-80674248D01*
X152754762Y-80674248D02*
X152778571Y-80721867D01*
X152778571Y-80721867D02*
X152778571Y-80793296D01*
X152778571Y-80793296D02*
X152754762Y-80840915D01*
X152754762Y-80840915D02*
X152730952Y-80864724D01*
X152730952Y-80864724D02*
X152683333Y-80888534D01*
X152683333Y-80888534D02*
X152492857Y-80888534D01*
X153254762Y-81126629D02*
X152969048Y-81126629D01*
X153111905Y-81126629D02*
X153111905Y-80626629D01*
X153111905Y-80626629D02*
X153064286Y-80698058D01*
X153064286Y-80698058D02*
X153016667Y-80745677D01*
X153016667Y-80745677D02*
X152969048Y-80769486D01*
X153683333Y-80793296D02*
X153683333Y-81126629D01*
X153564285Y-80602820D02*
X153445238Y-80959962D01*
X153445238Y-80959962D02*
X153754761Y-80959962D01*
X126991666Y-76354010D02*
X126967857Y-76377820D01*
X126967857Y-76377820D02*
X126896428Y-76401629D01*
X126896428Y-76401629D02*
X126848809Y-76401629D01*
X126848809Y-76401629D02*
X126777381Y-76377820D01*
X126777381Y-76377820D02*
X126729762Y-76330200D01*
X126729762Y-76330200D02*
X126705952Y-76282581D01*
X126705952Y-76282581D02*
X126682143Y-76187343D01*
X126682143Y-76187343D02*
X126682143Y-76115915D01*
X126682143Y-76115915D02*
X126705952Y-76020677D01*
X126705952Y-76020677D02*
X126729762Y-75973058D01*
X126729762Y-75973058D02*
X126777381Y-75925439D01*
X126777381Y-75925439D02*
X126848809Y-75901629D01*
X126848809Y-75901629D02*
X126896428Y-75901629D01*
X126896428Y-75901629D02*
X126967857Y-75925439D01*
X126967857Y-75925439D02*
X126991666Y-75949248D01*
X127182143Y-75949248D02*
X127205952Y-75925439D01*
X127205952Y-75925439D02*
X127253571Y-75901629D01*
X127253571Y-75901629D02*
X127372619Y-75901629D01*
X127372619Y-75901629D02*
X127420238Y-75925439D01*
X127420238Y-75925439D02*
X127444047Y-75949248D01*
X127444047Y-75949248D02*
X127467857Y-75996867D01*
X127467857Y-75996867D02*
X127467857Y-76044486D01*
X127467857Y-76044486D02*
X127444047Y-76115915D01*
X127444047Y-76115915D02*
X127158333Y-76401629D01*
X127158333Y-76401629D02*
X127467857Y-76401629D01*
X117941666Y-80976629D02*
X117775000Y-80738534D01*
X117655952Y-80976629D02*
X117655952Y-80476629D01*
X117655952Y-80476629D02*
X117846428Y-80476629D01*
X117846428Y-80476629D02*
X117894047Y-80500439D01*
X117894047Y-80500439D02*
X117917857Y-80524248D01*
X117917857Y-80524248D02*
X117941666Y-80571867D01*
X117941666Y-80571867D02*
X117941666Y-80643296D01*
X117941666Y-80643296D02*
X117917857Y-80690915D01*
X117917857Y-80690915D02*
X117894047Y-80714724D01*
X117894047Y-80714724D02*
X117846428Y-80738534D01*
X117846428Y-80738534D02*
X117655952Y-80738534D01*
X118108333Y-80476629D02*
X118441666Y-80476629D01*
X118441666Y-80476629D02*
X118227381Y-80976629D01*
X133728571Y-85929010D02*
X133704762Y-85952820D01*
X133704762Y-85952820D02*
X133633333Y-85976629D01*
X133633333Y-85976629D02*
X133585714Y-85976629D01*
X133585714Y-85976629D02*
X133514286Y-85952820D01*
X133514286Y-85952820D02*
X133466667Y-85905200D01*
X133466667Y-85905200D02*
X133442857Y-85857581D01*
X133442857Y-85857581D02*
X133419048Y-85762343D01*
X133419048Y-85762343D02*
X133419048Y-85690915D01*
X133419048Y-85690915D02*
X133442857Y-85595677D01*
X133442857Y-85595677D02*
X133466667Y-85548058D01*
X133466667Y-85548058D02*
X133514286Y-85500439D01*
X133514286Y-85500439D02*
X133585714Y-85476629D01*
X133585714Y-85476629D02*
X133633333Y-85476629D01*
X133633333Y-85476629D02*
X133704762Y-85500439D01*
X133704762Y-85500439D02*
X133728571Y-85524248D01*
X134204762Y-85976629D02*
X133919048Y-85976629D01*
X134061905Y-85976629D02*
X134061905Y-85476629D01*
X134061905Y-85476629D02*
X134014286Y-85548058D01*
X134014286Y-85548058D02*
X133966667Y-85595677D01*
X133966667Y-85595677D02*
X133919048Y-85619486D01*
X134514285Y-85476629D02*
X134561904Y-85476629D01*
X134561904Y-85476629D02*
X134609523Y-85500439D01*
X134609523Y-85500439D02*
X134633333Y-85524248D01*
X134633333Y-85524248D02*
X134657142Y-85571867D01*
X134657142Y-85571867D02*
X134680952Y-85667105D01*
X134680952Y-85667105D02*
X134680952Y-85786153D01*
X134680952Y-85786153D02*
X134657142Y-85881391D01*
X134657142Y-85881391D02*
X134633333Y-85929010D01*
X134633333Y-85929010D02*
X134609523Y-85952820D01*
X134609523Y-85952820D02*
X134561904Y-85976629D01*
X134561904Y-85976629D02*
X134514285Y-85976629D01*
X134514285Y-85976629D02*
X134466666Y-85952820D01*
X134466666Y-85952820D02*
X134442857Y-85929010D01*
X134442857Y-85929010D02*
X134419047Y-85881391D01*
X134419047Y-85881391D02*
X134395238Y-85786153D01*
X134395238Y-85786153D02*
X134395238Y-85667105D01*
X134395238Y-85667105D02*
X134419047Y-85571867D01*
X134419047Y-85571867D02*
X134442857Y-85524248D01*
X134442857Y-85524248D02*
X134466666Y-85500439D01*
X134466666Y-85500439D02*
X134514285Y-85476629D01*
X148338571Y-82849010D02*
X148314762Y-82872820D01*
X148314762Y-82872820D02*
X148243333Y-82896629D01*
X148243333Y-82896629D02*
X148195714Y-82896629D01*
X148195714Y-82896629D02*
X148124286Y-82872820D01*
X148124286Y-82872820D02*
X148076667Y-82825200D01*
X148076667Y-82825200D02*
X148052857Y-82777581D01*
X148052857Y-82777581D02*
X148029048Y-82682343D01*
X148029048Y-82682343D02*
X148029048Y-82610915D01*
X148029048Y-82610915D02*
X148052857Y-82515677D01*
X148052857Y-82515677D02*
X148076667Y-82468058D01*
X148076667Y-82468058D02*
X148124286Y-82420439D01*
X148124286Y-82420439D02*
X148195714Y-82396629D01*
X148195714Y-82396629D02*
X148243333Y-82396629D01*
X148243333Y-82396629D02*
X148314762Y-82420439D01*
X148314762Y-82420439D02*
X148338571Y-82444248D01*
X148814762Y-82896629D02*
X148529048Y-82896629D01*
X148671905Y-82896629D02*
X148671905Y-82396629D01*
X148671905Y-82396629D02*
X148624286Y-82468058D01*
X148624286Y-82468058D02*
X148576667Y-82515677D01*
X148576667Y-82515677D02*
X148529048Y-82539486D01*
X149100476Y-82610915D02*
X149052857Y-82587105D01*
X149052857Y-82587105D02*
X149029047Y-82563296D01*
X149029047Y-82563296D02*
X149005238Y-82515677D01*
X149005238Y-82515677D02*
X149005238Y-82491867D01*
X149005238Y-82491867D02*
X149029047Y-82444248D01*
X149029047Y-82444248D02*
X149052857Y-82420439D01*
X149052857Y-82420439D02*
X149100476Y-82396629D01*
X149100476Y-82396629D02*
X149195714Y-82396629D01*
X149195714Y-82396629D02*
X149243333Y-82420439D01*
X149243333Y-82420439D02*
X149267142Y-82444248D01*
X149267142Y-82444248D02*
X149290952Y-82491867D01*
X149290952Y-82491867D02*
X149290952Y-82515677D01*
X149290952Y-82515677D02*
X149267142Y-82563296D01*
X149267142Y-82563296D02*
X149243333Y-82587105D01*
X149243333Y-82587105D02*
X149195714Y-82610915D01*
X149195714Y-82610915D02*
X149100476Y-82610915D01*
X149100476Y-82610915D02*
X149052857Y-82634724D01*
X149052857Y-82634724D02*
X149029047Y-82658534D01*
X149029047Y-82658534D02*
X149005238Y-82706153D01*
X149005238Y-82706153D02*
X149005238Y-82801391D01*
X149005238Y-82801391D02*
X149029047Y-82849010D01*
X149029047Y-82849010D02*
X149052857Y-82872820D01*
X149052857Y-82872820D02*
X149100476Y-82896629D01*
X149100476Y-82896629D02*
X149195714Y-82896629D01*
X149195714Y-82896629D02*
X149243333Y-82872820D01*
X149243333Y-82872820D02*
X149267142Y-82849010D01*
X149267142Y-82849010D02*
X149290952Y-82801391D01*
X149290952Y-82801391D02*
X149290952Y-82706153D01*
X149290952Y-82706153D02*
X149267142Y-82658534D01*
X149267142Y-82658534D02*
X149243333Y-82634724D01*
X149243333Y-82634724D02*
X149195714Y-82610915D01*
X139378571Y-79979010D02*
X139354762Y-80002820D01*
X139354762Y-80002820D02*
X139283333Y-80026629D01*
X139283333Y-80026629D02*
X139235714Y-80026629D01*
X139235714Y-80026629D02*
X139164286Y-80002820D01*
X139164286Y-80002820D02*
X139116667Y-79955200D01*
X139116667Y-79955200D02*
X139092857Y-79907581D01*
X139092857Y-79907581D02*
X139069048Y-79812343D01*
X139069048Y-79812343D02*
X139069048Y-79740915D01*
X139069048Y-79740915D02*
X139092857Y-79645677D01*
X139092857Y-79645677D02*
X139116667Y-79598058D01*
X139116667Y-79598058D02*
X139164286Y-79550439D01*
X139164286Y-79550439D02*
X139235714Y-79526629D01*
X139235714Y-79526629D02*
X139283333Y-79526629D01*
X139283333Y-79526629D02*
X139354762Y-79550439D01*
X139354762Y-79550439D02*
X139378571Y-79574248D01*
X139854762Y-80026629D02*
X139569048Y-80026629D01*
X139711905Y-80026629D02*
X139711905Y-79526629D01*
X139711905Y-79526629D02*
X139664286Y-79598058D01*
X139664286Y-79598058D02*
X139616667Y-79645677D01*
X139616667Y-79645677D02*
X139569048Y-79669486D01*
X140330952Y-80026629D02*
X140045238Y-80026629D01*
X140188095Y-80026629D02*
X140188095Y-79526629D01*
X140188095Y-79526629D02*
X140140476Y-79598058D01*
X140140476Y-79598058D02*
X140092857Y-79645677D01*
X140092857Y-79645677D02*
X140045238Y-79669486D01*
X172704010Y-83971428D02*
X172727820Y-83995237D01*
X172727820Y-83995237D02*
X172751629Y-84066666D01*
X172751629Y-84066666D02*
X172751629Y-84114285D01*
X172751629Y-84114285D02*
X172727820Y-84185713D01*
X172727820Y-84185713D02*
X172680200Y-84233332D01*
X172680200Y-84233332D02*
X172632581Y-84257142D01*
X172632581Y-84257142D02*
X172537343Y-84280951D01*
X172537343Y-84280951D02*
X172465915Y-84280951D01*
X172465915Y-84280951D02*
X172370677Y-84257142D01*
X172370677Y-84257142D02*
X172323058Y-84233332D01*
X172323058Y-84233332D02*
X172275439Y-84185713D01*
X172275439Y-84185713D02*
X172251629Y-84114285D01*
X172251629Y-84114285D02*
X172251629Y-84066666D01*
X172251629Y-84066666D02*
X172275439Y-83995237D01*
X172275439Y-83995237D02*
X172299248Y-83971428D01*
X172299248Y-83780951D02*
X172275439Y-83757142D01*
X172275439Y-83757142D02*
X172251629Y-83709523D01*
X172251629Y-83709523D02*
X172251629Y-83590475D01*
X172251629Y-83590475D02*
X172275439Y-83542856D01*
X172275439Y-83542856D02*
X172299248Y-83519047D01*
X172299248Y-83519047D02*
X172346867Y-83495237D01*
X172346867Y-83495237D02*
X172394486Y-83495237D01*
X172394486Y-83495237D02*
X172465915Y-83519047D01*
X172465915Y-83519047D02*
X172751629Y-83804761D01*
X172751629Y-83804761D02*
X172751629Y-83495237D01*
X172251629Y-83066666D02*
X172251629Y-83161904D01*
X172251629Y-83161904D02*
X172275439Y-83209523D01*
X172275439Y-83209523D02*
X172299248Y-83233333D01*
X172299248Y-83233333D02*
X172370677Y-83280952D01*
X172370677Y-83280952D02*
X172465915Y-83304761D01*
X172465915Y-83304761D02*
X172656391Y-83304761D01*
X172656391Y-83304761D02*
X172704010Y-83280952D01*
X172704010Y-83280952D02*
X172727820Y-83257142D01*
X172727820Y-83257142D02*
X172751629Y-83209523D01*
X172751629Y-83209523D02*
X172751629Y-83114285D01*
X172751629Y-83114285D02*
X172727820Y-83066666D01*
X172727820Y-83066666D02*
X172704010Y-83042857D01*
X172704010Y-83042857D02*
X172656391Y-83019047D01*
X172656391Y-83019047D02*
X172537343Y-83019047D01*
X172537343Y-83019047D02*
X172489724Y-83042857D01*
X172489724Y-83042857D02*
X172465915Y-83066666D01*
X172465915Y-83066666D02*
X172442105Y-83114285D01*
X172442105Y-83114285D02*
X172442105Y-83209523D01*
X172442105Y-83209523D02*
X172465915Y-83257142D01*
X172465915Y-83257142D02*
X172489724Y-83280952D01*
X172489724Y-83280952D02*
X172537343Y-83304761D01*
X163526629Y-85108333D02*
X163526629Y-85346428D01*
X163526629Y-85346428D02*
X163026629Y-85346428D01*
X163526629Y-84679761D02*
X163526629Y-84965475D01*
X163526629Y-84822618D02*
X163026629Y-84822618D01*
X163026629Y-84822618D02*
X163098058Y-84870237D01*
X163098058Y-84870237D02*
X163145677Y-84917856D01*
X163145677Y-84917856D02*
X163169486Y-84965475D01*
X146479047Y-75966629D02*
X146479047Y-76371391D01*
X146479047Y-76371391D02*
X146502857Y-76419010D01*
X146502857Y-76419010D02*
X146526666Y-76442820D01*
X146526666Y-76442820D02*
X146574285Y-76466629D01*
X146574285Y-76466629D02*
X146669523Y-76466629D01*
X146669523Y-76466629D02*
X146717142Y-76442820D01*
X146717142Y-76442820D02*
X146740952Y-76419010D01*
X146740952Y-76419010D02*
X146764761Y-76371391D01*
X146764761Y-76371391D02*
X146764761Y-75966629D01*
X147217143Y-76133296D02*
X147217143Y-76466629D01*
X147098095Y-75942820D02*
X146979048Y-76299962D01*
X146979048Y-76299962D02*
X147288571Y-76299962D01*
X116028571Y-79429010D02*
X116004762Y-79452820D01*
X116004762Y-79452820D02*
X115933333Y-79476629D01*
X115933333Y-79476629D02*
X115885714Y-79476629D01*
X115885714Y-79476629D02*
X115814286Y-79452820D01*
X115814286Y-79452820D02*
X115766667Y-79405200D01*
X115766667Y-79405200D02*
X115742857Y-79357581D01*
X115742857Y-79357581D02*
X115719048Y-79262343D01*
X115719048Y-79262343D02*
X115719048Y-79190915D01*
X115719048Y-79190915D02*
X115742857Y-79095677D01*
X115742857Y-79095677D02*
X115766667Y-79048058D01*
X115766667Y-79048058D02*
X115814286Y-79000439D01*
X115814286Y-79000439D02*
X115885714Y-78976629D01*
X115885714Y-78976629D02*
X115933333Y-78976629D01*
X115933333Y-78976629D02*
X116004762Y-79000439D01*
X116004762Y-79000439D02*
X116028571Y-79024248D01*
X116504762Y-79476629D02*
X116219048Y-79476629D01*
X116361905Y-79476629D02*
X116361905Y-78976629D01*
X116361905Y-78976629D02*
X116314286Y-79048058D01*
X116314286Y-79048058D02*
X116266667Y-79095677D01*
X116266667Y-79095677D02*
X116219048Y-79119486D01*
X116695238Y-79024248D02*
X116719047Y-79000439D01*
X116719047Y-79000439D02*
X116766666Y-78976629D01*
X116766666Y-78976629D02*
X116885714Y-78976629D01*
X116885714Y-78976629D02*
X116933333Y-79000439D01*
X116933333Y-79000439D02*
X116957142Y-79024248D01*
X116957142Y-79024248D02*
X116980952Y-79071867D01*
X116980952Y-79071867D02*
X116980952Y-79119486D01*
X116980952Y-79119486D02*
X116957142Y-79190915D01*
X116957142Y-79190915D02*
X116671428Y-79476629D01*
X116671428Y-79476629D02*
X116980952Y-79476629D01*
X154808334Y-77927820D02*
X154879762Y-77951629D01*
X154879762Y-77951629D02*
X154998810Y-77951629D01*
X154998810Y-77951629D02*
X155046429Y-77927820D01*
X155046429Y-77927820D02*
X155070238Y-77904010D01*
X155070238Y-77904010D02*
X155094048Y-77856391D01*
X155094048Y-77856391D02*
X155094048Y-77808772D01*
X155094048Y-77808772D02*
X155070238Y-77761153D01*
X155070238Y-77761153D02*
X155046429Y-77737343D01*
X155046429Y-77737343D02*
X154998810Y-77713534D01*
X154998810Y-77713534D02*
X154903572Y-77689724D01*
X154903572Y-77689724D02*
X154855953Y-77665915D01*
X154855953Y-77665915D02*
X154832143Y-77642105D01*
X154832143Y-77642105D02*
X154808334Y-77594486D01*
X154808334Y-77594486D02*
X154808334Y-77546867D01*
X154808334Y-77546867D02*
X154832143Y-77499248D01*
X154832143Y-77499248D02*
X154855953Y-77475439D01*
X154855953Y-77475439D02*
X154903572Y-77451629D01*
X154903572Y-77451629D02*
X155022619Y-77451629D01*
X155022619Y-77451629D02*
X155094048Y-77475439D01*
X155260714Y-77451629D02*
X155379762Y-77951629D01*
X155379762Y-77951629D02*
X155475000Y-77594486D01*
X155475000Y-77594486D02*
X155570238Y-77951629D01*
X155570238Y-77951629D02*
X155689286Y-77451629D01*
X156094048Y-77618296D02*
X156094048Y-77951629D01*
X155975000Y-77427820D02*
X155855953Y-77784962D01*
X155855953Y-77784962D02*
X156165476Y-77784962D01*
X175233772Y-81033332D02*
X175233772Y-80795237D01*
X175376629Y-81080951D02*
X174876629Y-80914285D01*
X174876629Y-80914285D02*
X175376629Y-80747618D01*
X175114724Y-80580952D02*
X175114724Y-80414285D01*
X175376629Y-80342857D02*
X175376629Y-80580952D01*
X175376629Y-80580952D02*
X174876629Y-80580952D01*
X174876629Y-80580952D02*
X174876629Y-80342857D01*
X175376629Y-79866666D02*
X175376629Y-80152380D01*
X175376629Y-80009523D02*
X174876629Y-80009523D01*
X174876629Y-80009523D02*
X174948058Y-80057142D01*
X174948058Y-80057142D02*
X174995677Y-80104761D01*
X174995677Y-80104761D02*
X175019486Y-80152380D01*
X116528571Y-76429010D02*
X116504762Y-76452820D01*
X116504762Y-76452820D02*
X116433333Y-76476629D01*
X116433333Y-76476629D02*
X116385714Y-76476629D01*
X116385714Y-76476629D02*
X116314286Y-76452820D01*
X116314286Y-76452820D02*
X116266667Y-76405200D01*
X116266667Y-76405200D02*
X116242857Y-76357581D01*
X116242857Y-76357581D02*
X116219048Y-76262343D01*
X116219048Y-76262343D02*
X116219048Y-76190915D01*
X116219048Y-76190915D02*
X116242857Y-76095677D01*
X116242857Y-76095677D02*
X116266667Y-76048058D01*
X116266667Y-76048058D02*
X116314286Y-76000439D01*
X116314286Y-76000439D02*
X116385714Y-75976629D01*
X116385714Y-75976629D02*
X116433333Y-75976629D01*
X116433333Y-75976629D02*
X116504762Y-76000439D01*
X116504762Y-76000439D02*
X116528571Y-76024248D01*
X117004762Y-76476629D02*
X116719048Y-76476629D01*
X116861905Y-76476629D02*
X116861905Y-75976629D01*
X116861905Y-75976629D02*
X116814286Y-76048058D01*
X116814286Y-76048058D02*
X116766667Y-76095677D01*
X116766667Y-76095677D02*
X116719048Y-76119486D01*
X117171428Y-75976629D02*
X117480952Y-75976629D01*
X117480952Y-75976629D02*
X117314285Y-76167105D01*
X117314285Y-76167105D02*
X117385714Y-76167105D01*
X117385714Y-76167105D02*
X117433333Y-76190915D01*
X117433333Y-76190915D02*
X117457142Y-76214724D01*
X117457142Y-76214724D02*
X117480952Y-76262343D01*
X117480952Y-76262343D02*
X117480952Y-76381391D01*
X117480952Y-76381391D02*
X117457142Y-76429010D01*
X117457142Y-76429010D02*
X117433333Y-76452820D01*
X117433333Y-76452820D02*
X117385714Y-76476629D01*
X117385714Y-76476629D02*
X117242857Y-76476629D01*
X117242857Y-76476629D02*
X117195238Y-76452820D01*
X117195238Y-76452820D02*
X117171428Y-76429010D01*
X112483334Y-84702820D02*
X112554762Y-84726629D01*
X112554762Y-84726629D02*
X112673810Y-84726629D01*
X112673810Y-84726629D02*
X112721429Y-84702820D01*
X112721429Y-84702820D02*
X112745238Y-84679010D01*
X112745238Y-84679010D02*
X112769048Y-84631391D01*
X112769048Y-84631391D02*
X112769048Y-84583772D01*
X112769048Y-84583772D02*
X112745238Y-84536153D01*
X112745238Y-84536153D02*
X112721429Y-84512343D01*
X112721429Y-84512343D02*
X112673810Y-84488534D01*
X112673810Y-84488534D02*
X112578572Y-84464724D01*
X112578572Y-84464724D02*
X112530953Y-84440915D01*
X112530953Y-84440915D02*
X112507143Y-84417105D01*
X112507143Y-84417105D02*
X112483334Y-84369486D01*
X112483334Y-84369486D02*
X112483334Y-84321867D01*
X112483334Y-84321867D02*
X112507143Y-84274248D01*
X112507143Y-84274248D02*
X112530953Y-84250439D01*
X112530953Y-84250439D02*
X112578572Y-84226629D01*
X112578572Y-84226629D02*
X112697619Y-84226629D01*
X112697619Y-84226629D02*
X112769048Y-84250439D01*
X112935714Y-84226629D02*
X113054762Y-84726629D01*
X113054762Y-84726629D02*
X113150000Y-84369486D01*
X113150000Y-84369486D02*
X113245238Y-84726629D01*
X113245238Y-84726629D02*
X113364286Y-84226629D01*
X113530953Y-84274248D02*
X113554762Y-84250439D01*
X113554762Y-84250439D02*
X113602381Y-84226629D01*
X113602381Y-84226629D02*
X113721429Y-84226629D01*
X113721429Y-84226629D02*
X113769048Y-84250439D01*
X113769048Y-84250439D02*
X113792857Y-84274248D01*
X113792857Y-84274248D02*
X113816667Y-84321867D01*
X113816667Y-84321867D02*
X113816667Y-84369486D01*
X113816667Y-84369486D02*
X113792857Y-84440915D01*
X113792857Y-84440915D02*
X113507143Y-84726629D01*
X113507143Y-84726629D02*
X113816667Y-84726629D01*
D12*
%TO.C,Y2*%
X169200000Y-83100000D02*
X165900000Y-83100000D01*
X169200000Y-85900000D02*
X169200000Y-83100000D01*
%TO.C,SW1*%
X111600000Y-79700000D02*
X111600000Y-80000000D01*
X111600000Y-82500000D02*
X111600000Y-82200000D01*
X114900000Y-79700000D02*
X111600000Y-79700000D01*
X114900000Y-80000000D02*
X114900000Y-79700000D01*
X114900000Y-82200000D02*
X114900000Y-82500000D01*
X114900000Y-82500000D02*
X111600000Y-82500000D01*
%TO.C,U2*%
X118752500Y-77902500D02*
X119035000Y-77902500D01*
X118752500Y-80650000D02*
X118752500Y-77902500D01*
X118752500Y-80650000D02*
X118752500Y-83397500D01*
X118752500Y-83397500D02*
X119035000Y-83397500D01*
X124247500Y-77902500D02*
X123965000Y-77902500D01*
X124247500Y-80650000D02*
X124247500Y-77902500D01*
X124247500Y-80650000D02*
X124247500Y-83397500D01*
X124247500Y-83397500D02*
X123965000Y-83397500D01*
X119035000Y-84168750D02*
X118705000Y-84408750D01*
X118705000Y-83928750D01*
X119035000Y-84168750D01*
G36*
X119035000Y-84168750D02*
G01*
X118705000Y-84408750D01*
X118705000Y-83928750D01*
X119035000Y-84168750D01*
G37*
%TO.C,R1*%
X125711359Y-79570000D02*
X126018641Y-79570000D01*
X125711359Y-80330000D02*
X126018641Y-80330000D01*
%TO.C,J2*%
X148670000Y-83350000D02*
X148670000Y-86010000D01*
X156350000Y-83350000D02*
X148670000Y-83350000D01*
X156350000Y-83350000D02*
X156350000Y-86010000D01*
X156350000Y-86010000D02*
X148670000Y-86010000D01*
X157620000Y-83350000D02*
X158950000Y-83350000D01*
X158950000Y-83350000D02*
X158950000Y-84680000D01*
%TO.C,D1*%
X116965000Y-83165000D02*
X116965000Y-85450000D01*
X118435000Y-83165000D02*
X116965000Y-83165000D01*
X118435000Y-85450000D02*
X118435000Y-83165000D01*
%TO.C,R2*%
X135883641Y-75850000D02*
X135576359Y-75850000D01*
X135883641Y-76610000D02*
X135576359Y-76610000D01*
%TO.C,D2*%
X149715000Y-80000000D02*
X149715000Y-82285000D01*
X149715000Y-82285000D02*
X151185000Y-82285000D01*
X151185000Y-82285000D02*
X151185000Y-80000000D01*
%TO.C,R9*%
X157953641Y-80650000D02*
X157646359Y-80650000D01*
X157953641Y-81410000D02*
X157646359Y-81410000D01*
%TO.C,R3*%
X125570000Y-77171359D02*
X125570000Y-77478641D01*
X126330000Y-77171359D02*
X126330000Y-77478641D01*
%TO.C,C6*%
X137072164Y-77320000D02*
X137287836Y-77320000D01*
X137072164Y-78040000D02*
X137287836Y-78040000D01*
D13*
%TO.C,U1*%
X111717500Y-76060000D02*
X112077500Y-76060000D01*
X111717500Y-77030000D02*
X111717500Y-76060000D01*
X111717500Y-78860000D02*
X111717500Y-77890000D01*
X113467500Y-78860000D02*
X111717500Y-78860000D01*
X113467500Y-78860000D02*
X115217500Y-78860000D01*
X114857500Y-76060000D02*
X112077500Y-76060000D01*
X115217500Y-76060000D02*
X114857500Y-76060000D01*
X115217500Y-76130000D02*
X115217500Y-76060000D01*
X115217500Y-77800000D02*
X115217500Y-77120000D01*
X115217500Y-78860000D02*
X115217500Y-78790000D01*
D14*
X115637500Y-76580000D02*
G75*
G02*
X115437500Y-76580000I-100000J0D01*
G01*
X115437500Y-76580000D02*
G75*
G02*
X115637500Y-76580000I100000J0D01*
G01*
D12*
%TO.C,C19*%
X160745580Y-78260000D02*
X160464420Y-78260000D01*
X160745580Y-79280000D02*
X160464420Y-79280000D01*
%TO.C,C17*%
X157682164Y-79660000D02*
X157897836Y-79660000D01*
X157682164Y-80380000D02*
X157897836Y-80380000D01*
%TO.C,C25*%
X164890000Y-85207836D02*
X164890000Y-84992164D01*
X165610000Y-85207836D02*
X165610000Y-84992164D01*
%TO.C,R17*%
X171596359Y-75970000D02*
X171903641Y-75970000D01*
X171596359Y-76730000D02*
X171903641Y-76730000D01*
%TO.C,R15*%
X158070000Y-76953641D02*
X158070000Y-76646359D01*
X158830000Y-76953641D02*
X158830000Y-76646359D01*
%TO.C,C21*%
X169440000Y-80877836D02*
X169440000Y-80662164D01*
X170160000Y-80877836D02*
X170160000Y-80662164D01*
%TO.C,R6*%
X116570000Y-82006359D02*
X116570000Y-82313641D01*
X117330000Y-82006359D02*
X117330000Y-82313641D01*
%TO.C,C9*%
X128552164Y-75870000D02*
X128767836Y-75870000D01*
X128552164Y-76590000D02*
X128767836Y-76590000D01*
%TO.C,C24*%
X169622164Y-82040000D02*
X169837836Y-82040000D01*
X169622164Y-82760000D02*
X169837836Y-82760000D01*
%TO.C,C14*%
X159190000Y-76907836D02*
X159190000Y-76692164D01*
X159910000Y-76907836D02*
X159910000Y-76692164D01*
%TO.C,SW3*%
X148750000Y-76075000D02*
X152050000Y-76075000D01*
X148750000Y-76375000D02*
X148750000Y-76075000D01*
X148750000Y-78575000D02*
X148750000Y-78875000D01*
X148750000Y-78875000D02*
X152050000Y-78875000D01*
X152050000Y-76075000D02*
X152050000Y-76375000D01*
X152050000Y-78875000D02*
X152050000Y-78575000D01*
%TO.C,C1*%
X137062164Y-78320000D02*
X137277836Y-78320000D01*
X137062164Y-79040000D02*
X137277836Y-79040000D01*
%TO.C,C3*%
X137062164Y-79310000D02*
X137277836Y-79310000D01*
X137062164Y-80030000D02*
X137277836Y-80030000D01*
%TO.C,C23*%
X169590000Y-85207836D02*
X169590000Y-84992164D01*
X170310000Y-85207836D02*
X170310000Y-84992164D01*
D15*
%TO.C,U5*%
X163100000Y-77250000D02*
X163100000Y-77545000D01*
X163100000Y-77250000D02*
X163395000Y-77250000D01*
X163100000Y-82250000D02*
X163100000Y-81955000D01*
X163100000Y-82250000D02*
X163395000Y-82250000D01*
X168100000Y-77250000D02*
X167805000Y-77250000D01*
X168100000Y-77250000D02*
X168100000Y-77545000D01*
X168100000Y-82250000D02*
X167805000Y-82250000D01*
X168100000Y-82250000D02*
X168100000Y-81955000D01*
D14*
X169160000Y-81500000D02*
G75*
G02*
X168960000Y-81500000I-100000J0D01*
G01*
X168960000Y-81500000D02*
G75*
G02*
X169160000Y-81500000I100000J0D01*
G01*
D12*
%TO.C,C8*%
X137072164Y-84890000D02*
X137287836Y-84890000D01*
X137072164Y-85610000D02*
X137287836Y-85610000D01*
%TO.C,Y1*%
X136380000Y-81280000D02*
X136380000Y-84580000D01*
X136380000Y-84580000D02*
X140380000Y-84580000D01*
%TO.C,R8*%
X160296359Y-83745000D02*
X160603641Y-83745000D01*
X160296359Y-84505000D02*
X160603641Y-84505000D01*
%TO.C,J1*%
X107320000Y-83485000D02*
X107320000Y-75805000D01*
X109980000Y-75805000D02*
X107320000Y-75805000D01*
X109980000Y-83485000D02*
X107320000Y-83485000D01*
X109980000Y-83485000D02*
X109980000Y-75805000D01*
X109980000Y-84755000D02*
X109980000Y-86085000D01*
X109980000Y-86085000D02*
X108650000Y-86085000D01*
%TO.C,C4*%
X126297836Y-80610000D02*
X126082164Y-80610000D01*
X126297836Y-81330000D02*
X126082164Y-81330000D01*
%TO.C,R10*%
X160296359Y-84870000D02*
X160603641Y-84870000D01*
X160296359Y-85630000D02*
X160603641Y-85630000D01*
%TO.C,R11*%
X160306359Y-82595000D02*
X160613641Y-82595000D01*
X160306359Y-83355000D02*
X160613641Y-83355000D01*
%TO.C,C15*%
X139250000Y-77849420D02*
X139250000Y-78130580D01*
X140270000Y-77849420D02*
X140270000Y-78130580D01*
%TO.C,C7*%
X124565000Y-77432836D02*
X124565000Y-77217164D01*
X125285000Y-77432836D02*
X125285000Y-77217164D01*
%TO.C,C5*%
X133702164Y-75870000D02*
X133917836Y-75870000D01*
X133702164Y-76590000D02*
X133917836Y-76590000D01*
%TO.C,U3*%
X128040000Y-77290000D02*
X128690000Y-77290000D01*
X128040000Y-77940000D02*
X128040000Y-77290000D01*
X128040000Y-83860000D02*
X128040000Y-84210000D01*
X128690000Y-84510000D02*
X128280000Y-84510000D01*
X135260000Y-77290000D02*
X134610000Y-77290000D01*
X135260000Y-77940000D02*
X135260000Y-77290000D01*
X135260000Y-83860000D02*
X135260000Y-84510000D01*
X135260000Y-84510000D02*
X134610000Y-84510000D01*
X128040000Y-84510000D02*
X127710000Y-84750000D01*
X127710000Y-84270000D01*
X128040000Y-84510000D01*
G36*
X128040000Y-84510000D02*
G01*
X127710000Y-84750000D01*
X127710000Y-84270000D01*
X128040000Y-84510000D01*
G37*
%TO.C,C20*%
X169632164Y-76040000D02*
X169847836Y-76040000D01*
X169632164Y-76760000D02*
X169847836Y-76760000D01*
%TO.C,D3*%
X170375000Y-78445000D02*
X172660000Y-78445000D01*
X172660000Y-76975000D02*
X170375000Y-76975000D01*
X172660000Y-78445000D02*
X172660000Y-76975000D01*
%TO.C,C16*%
X161277836Y-77140000D02*
X161062164Y-77140000D01*
X161277836Y-77860000D02*
X161062164Y-77860000D01*
%TO.C,R5*%
X125696359Y-78495000D02*
X126003641Y-78495000D01*
X125696359Y-79255000D02*
X126003641Y-79255000D01*
%TO.C,R12*%
X160996359Y-76020000D02*
X161303641Y-76020000D01*
X160996359Y-76780000D02*
X161303641Y-76780000D01*
%TO.C,R16*%
X170093641Y-78645000D02*
X169786359Y-78645000D01*
X170093641Y-79405000D02*
X169786359Y-79405000D01*
%TO.C,R4*%
X137343641Y-80320000D02*
X137036359Y-80320000D01*
X137343641Y-81080000D02*
X137036359Y-81080000D01*
%TO.C,R13*%
X160296359Y-81495000D02*
X160603641Y-81495000D01*
X160296359Y-82255000D02*
X160603641Y-82255000D01*
%TO.C,C22*%
X172390000Y-80857836D02*
X172390000Y-80642164D01*
X173110000Y-80857836D02*
X173110000Y-80642164D01*
%TO.C,R14*%
X151470000Y-81236359D02*
X151470000Y-81543641D01*
X152230000Y-81236359D02*
X152230000Y-81543641D01*
%TO.C,C2*%
X126615000Y-77332836D02*
X126615000Y-77117164D01*
X127335000Y-77332836D02*
X127335000Y-77117164D01*
%TO.C,R7*%
X117620000Y-81996359D02*
X117620000Y-82303641D01*
X118380000Y-81996359D02*
X118380000Y-82303641D01*
%TO.C,C10*%
X132457836Y-85240000D02*
X132242164Y-85240000D01*
X132457836Y-85960000D02*
X132242164Y-85960000D01*
%TO.C,C18*%
X148240000Y-80940580D02*
X148240000Y-80659420D01*
X149260000Y-80940580D02*
X149260000Y-80659420D01*
%TO.C,C11*%
X139122164Y-80310000D02*
X139337836Y-80310000D01*
X139122164Y-81030000D02*
X139337836Y-81030000D01*
%TO.C,C26*%
X170842164Y-83040000D02*
X171057836Y-83040000D01*
X170842164Y-83760000D02*
X171057836Y-83760000D01*
%TO.C,U4*%
X140850000Y-79040000D02*
X140850000Y-82800000D01*
X140850000Y-82800000D02*
X142110000Y-82800000D01*
X147670000Y-79040000D02*
X147670000Y-82800000D01*
X147670000Y-82800000D02*
X146410000Y-82800000D01*
X147900000Y-78000000D02*
X147570000Y-77760000D01*
X147900000Y-77520000D01*
X147900000Y-78000000D01*
G36*
X147900000Y-78000000D02*
G01*
X147570000Y-77760000D01*
X147900000Y-77520000D01*
X147900000Y-78000000D01*
G37*
%TO.C,C12*%
X116452164Y-78000000D02*
X116667836Y-78000000D01*
X116452164Y-78720000D02*
X116667836Y-78720000D01*
%TO.C,SW4*%
X153825000Y-76075000D02*
X153825000Y-76375000D01*
X153825000Y-78875000D02*
X153825000Y-78575000D01*
X157125000Y-76075000D02*
X153825000Y-76075000D01*
X157125000Y-76375000D02*
X157125000Y-76075000D01*
X157125000Y-78575000D02*
X157125000Y-78875000D01*
X157125000Y-78875000D02*
X153825000Y-78875000D01*
D16*
%TO.C,AE1*%
X174030000Y-82000000D02*
G75*
G02*
X173970000Y-82000000I-30000J0D01*
G01*
X173970000Y-82000000D02*
G75*
G02*
X174030000Y-82000000I30000J0D01*
G01*
D12*
%TO.C,C13*%
X117690000Y-76792164D02*
X117690000Y-77007836D01*
X118410000Y-76792164D02*
X118410000Y-77007836D01*
%TO.C,SW2*%
X111600000Y-83100000D02*
X111600000Y-83400000D01*
X111600000Y-85900000D02*
X111600000Y-85600000D01*
X114900000Y-83100000D02*
X111600000Y-83100000D01*
X114900000Y-83400000D02*
X114900000Y-83100000D01*
X114900000Y-85600000D02*
X114900000Y-85900000D01*
X114900000Y-85900000D02*
X111600000Y-85900000D01*
%TD*%
M02*
