%TF.GenerationSoftware,KiCad,Pcbnew,8.0.4*%
%TF.CreationDate,2024-09-10T00:37:33+02:00*%
%TF.ProjectId,ESP32_PICO_LED,45535033-325f-4504-9943-4f5f4c45442e,rev?*%
%TF.SameCoordinates,Original*%
%TF.FileFunction,Copper,L4,Bot*%
%TF.FilePolarity,Positive*%
%FSLAX46Y46*%
G04 Gerber Fmt 4.6, Leading zero omitted, Abs format (unit mm)*
G04 Created by KiCad (PCBNEW 8.0.4) date 2024-09-10 00:37:33*
%MOMM*%
%LPD*%
G01*
G04 APERTURE LIST*
G04 Aperture macros list*
%AMRoundRect*
0 Rectangle with rounded corners*
0 $1 Rounding radius*
0 $2 $3 $4 $5 $6 $7 $8 $9 X,Y pos of 4 corners*
0 Add a 4 corners polygon primitive as box body*
4,1,4,$2,$3,$4,$5,$6,$7,$8,$9,$2,$3,0*
0 Add four circle primitives for the rounded corners*
1,1,$1+$1,$2,$3*
1,1,$1+$1,$4,$5*
1,1,$1+$1,$6,$7*
1,1,$1+$1,$8,$9*
0 Add four rect primitives between the rounded corners*
20,1,$1+$1,$2,$3,$4,$5,0*
20,1,$1+$1,$4,$5,$6,$7,0*
20,1,$1+$1,$6,$7,$8,$9,0*
20,1,$1+$1,$8,$9,$2,$3,0*%
G04 Aperture macros list end*
%ADD10C,0.090000*%
%TA.AperFunction,NonConductor*%
%ADD11C,0.090000*%
%TD*%
%TA.AperFunction,ComponentPad*%
%ADD12C,0.500000*%
%TD*%
%TA.AperFunction,SMDPad,CuDef*%
%ADD13R,1.000000X1.000000*%
%TD*%
%TA.AperFunction,SMDPad,CuDef*%
%ADD14RoundRect,0.183824X-0.441176X1.316176X-0.441176X-1.316176X0.441176X-1.316176X0.441176X1.316176X0*%
%TD*%
%TA.AperFunction,SMDPad,CuDef*%
%ADD15RoundRect,0.183824X0.441176X-1.316176X0.441176X1.316176X-0.441176X1.316176X-0.441176X-1.316176X0*%
%TD*%
%TA.AperFunction,SMDPad,CuDef*%
%ADD16RoundRect,0.183824X1.316176X0.441176X-1.316176X0.441176X-1.316176X-0.441176X1.316176X-0.441176X0*%
%TD*%
%TA.AperFunction,ViaPad*%
%ADD17C,0.450000*%
%TD*%
%TA.AperFunction,ViaPad*%
%ADD18C,0.800000*%
%TD*%
%TA.AperFunction,Conductor*%
%ADD19C,0.700000*%
%TD*%
%TA.AperFunction,Conductor*%
%ADD20C,0.152400*%
%TD*%
%TA.AperFunction,Conductor*%
%ADD21C,0.156464*%
%TD*%
G04 APERTURE END LIST*
D10*
D11*
X111222543Y-75950796D02*
X111222543Y-76284129D01*
X111103495Y-75760320D02*
X110984448Y-76117462D01*
X110984448Y-76117462D02*
X111293971Y-76117462D01*
D12*
%TO.P,U5,33,GND*%
%TO.N,GND*%
X166300000Y-79750000D03*
X165600000Y-80450000D03*
X165600000Y-79050000D03*
X164900000Y-79750000D03*
%TD*%
D13*
%TO.P,J3,1,Pin_1*%
%TO.N,SWCLK*%
X140740000Y-77100000D03*
%TD*%
D14*
%TO.P,J4,1,Pin_1*%
%TO.N,+5V*%
X148290000Y-84410000D03*
%TO.P,J4,2,Pin_2*%
%TO.N,LED_4_D*%
X150790000Y-84410000D03*
%TO.P,J4,3,Pin_3*%
%TO.N,LED_4_C*%
X153290000Y-84410000D03*
%TO.P,J4,4,Pin_4*%
%TO.N,GND*%
X155790000Y-84410000D03*
%TD*%
%TO.P,J7,1,Pin_1*%
%TO.N,+5V*%
X119210000Y-84400000D03*
%TO.P,J7,2,Pin_2*%
%TO.N,LED_3_D*%
X121710000Y-84400000D03*
%TO.P,J7,3,Pin_3*%
%TO.N,LED_3_C*%
X124210000Y-84400000D03*
%TO.P,J7,4,Pin_4*%
%TO.N,GND*%
X126710000Y-84400000D03*
%TD*%
D13*
%TO.P,J8,1,Pin_1*%
%TO.N,SWDIO*%
X138200000Y-77100000D03*
%TD*%
%TO.P,J5,1,Pin_1*%
%TO.N,GND*%
X143400000Y-77100000D03*
%TD*%
D15*
%TO.P,J6,1,Pin_1*%
%TO.N,+5V*%
X156000000Y-77600000D03*
%TO.P,J6,2,Pin_2*%
%TO.N,LED_2_D*%
X153500000Y-77600000D03*
%TO.P,J6,3,Pin_3*%
%TO.N,LED_2_C*%
X151000000Y-77600000D03*
%TO.P,J6,4,Pin_4*%
%TO.N,GND*%
X148500000Y-77600000D03*
%TD*%
D16*
%TO.P,J9,1,Pin_1*%
%TO.N,+5V*%
X108250000Y-77050000D03*
%TO.P,J9,2,Pin_2*%
%TO.N,LED_1_D*%
X108250000Y-79550000D03*
%TO.P,J9,3,Pin_3*%
%TO.N,LED_1_C*%
X108250000Y-82050000D03*
%TO.P,J9,4,Pin_4*%
%TO.N,GND*%
X108250000Y-84550000D03*
%TD*%
D17*
%TO.N,GND*%
X138280000Y-79650000D03*
X158710000Y-79950000D03*
X120400000Y-82300000D03*
X154720000Y-81070000D03*
X145600000Y-76175000D03*
X131240000Y-85560000D03*
X134040000Y-82030000D03*
X172650000Y-79310000D03*
X172190000Y-82030000D03*
X171620000Y-82030000D03*
X170520000Y-85560000D03*
X110123320Y-76354946D03*
X113150000Y-84550000D03*
X171770000Y-79990000D03*
X171170000Y-80010000D03*
X138420000Y-84840000D03*
X170390000Y-79980000D03*
X125180000Y-80970000D03*
X140280000Y-81000000D03*
X117404732Y-78833694D03*
X154760000Y-78540000D03*
X172750000Y-82050000D03*
X168250000Y-77100000D03*
X126990000Y-76180000D03*
X126160000Y-84130000D03*
X146700000Y-76325000D03*
X172650000Y-78560000D03*
X165550000Y-85848000D03*
X119400000Y-78950000D03*
X170840000Y-82380000D03*
X129450000Y-76052000D03*
X172000000Y-83420000D03*
X117493254Y-77350000D03*
X134410000Y-76570000D03*
%TO.N,+3.3V*%
X133350000Y-85600000D03*
X166370000Y-76270000D03*
X162320000Y-78010000D03*
X168050000Y-80700008D03*
X136554016Y-76315416D03*
X115450000Y-78400000D03*
X171110000Y-79000000D03*
X129000000Y-85240000D03*
X168170000Y-82220000D03*
X158930000Y-81040000D03*
X133780000Y-81300000D03*
D18*
X144350000Y-79350000D03*
D17*
X132890000Y-76210000D03*
X158350000Y-77940000D03*
X119092049Y-76191350D03*
D18*
X144450000Y-80250000D03*
X144375007Y-81266134D03*
D17*
X127186992Y-80346992D03*
X127230000Y-78680000D03*
X147642862Y-81066800D03*
X161080000Y-76900000D03*
D18*
%TO.N,+5V*%
X113249964Y-82800000D03*
D17*
X147775000Y-84524996D03*
D18*
X141975742Y-79337407D03*
X157400000Y-84325000D03*
X156000000Y-77600000D03*
X111225000Y-78200000D03*
D17*
X148425000Y-84600000D03*
%TO.N,MIC_PDM_DATA*%
X133132462Y-78947394D03*
X115508609Y-76928114D03*
%TO.N,SWCLK*%
X134038827Y-79930196D03*
%TO.N,SWDIO*%
X133914296Y-79366212D03*
%TO.N,/esp32_wifi_section/IO9*%
X157390000Y-76210000D03*
X162320000Y-76800000D03*
%TO.N,MIC_PDM_CLK*%
X132850002Y-78415000D03*
X116691497Y-76928200D03*
%TO.N,BUTTON*%
X118890740Y-81629313D03*
X132000000Y-78947998D03*
%TO.N,QSPI_SD0*%
X123150000Y-79200000D03*
X123190000Y-82258928D03*
%TO.N,QSPI_SD3*%
X121340000Y-81760000D03*
X121340000Y-79100000D03*
%TO.N,Net-(U3-VREG_VOUT)*%
X129325000Y-80905000D03*
X134060450Y-80580306D03*
%TO.N,QSPI_CLK*%
X122290000Y-79140000D03*
X122430000Y-81990000D03*
%TO.N,/UART1_RX*%
X133860743Y-83414319D03*
X159150000Y-85200000D03*
%TO.N,Net-(U5-CHIP_EN)*%
X159290000Y-77590000D03*
X169050000Y-78200000D03*
%TO.N,Net-(U3-RUN)*%
X124150000Y-80800000D03*
X134050000Y-78450000D03*
%TO.N,/UART1_TX*%
X159200000Y-84050000D03*
X133350000Y-83071800D03*
%TO.N,LED_1_C*%
X129869818Y-78124166D03*
%TO.N,LED_1_D*%
X129748119Y-76676145D03*
%TO.N,LED_2_C*%
X132000000Y-76300000D03*
%TO.N,LED_2_D*%
X131196601Y-76331033D03*
%TO.N,LED_4_C*%
X134980000Y-85841402D03*
%TO.N,LED_4_D*%
X135060000Y-85200000D03*
%TO.N,LED_3_D*%
X129725002Y-85334998D03*
%TO.N,LED_3_C*%
X129241800Y-83433837D03*
%TD*%
D19*
%TO.N,GND*%
X148550000Y-77450000D02*
X148550000Y-77302524D01*
%TO.N,+5V*%
X115000000Y-82800000D02*
X116600000Y-84400000D01*
X113249964Y-82800000D02*
X115000000Y-82800000D01*
X108250000Y-77050000D02*
X109400000Y-78200000D01*
X119210000Y-84400000D02*
X116600000Y-84400000D01*
X109400000Y-78200000D02*
X111225000Y-78200000D01*
D20*
%TO.N,MIC_PDM_DATA*%
X124243988Y-78155984D02*
X125238004Y-79150000D01*
X116736479Y-78155984D02*
X124243988Y-78155984D01*
X115508609Y-76928114D02*
X116736479Y-78155984D01*
X131550000Y-78450000D02*
X132200000Y-78450000D01*
X125238004Y-79150000D02*
X130850000Y-79150000D01*
X130850000Y-79150000D02*
X131550000Y-78450000D01*
X132200000Y-78450000D02*
X132697394Y-78947394D01*
X132697394Y-78947394D02*
X133132462Y-78947394D01*
D21*
%TO.N,SWCLK*%
X140740000Y-77100000D02*
X139100000Y-78740000D01*
X139100000Y-78740000D02*
X135229024Y-78740000D01*
X135229024Y-78740000D02*
X134264512Y-79704512D01*
X134264512Y-79704512D02*
X134038827Y-79930196D01*
%TO.N,SWDIO*%
X137820000Y-78230000D02*
X135050508Y-78230000D01*
X138200000Y-77100000D02*
X138200000Y-77850000D01*
X138200000Y-77850000D02*
X137820000Y-78230000D01*
X135050508Y-78230000D02*
X133914296Y-79366212D01*
D20*
%TO.N,/esp32_wifi_section/IO9*%
X161780000Y-76260000D02*
X162320000Y-76800000D01*
X157390000Y-76210000D02*
X157440000Y-76260000D01*
X157440000Y-76260000D02*
X161780000Y-76260000D01*
%TO.N,MIC_PDM_CLK*%
X129290000Y-78800000D02*
X130700000Y-78800000D01*
X131370600Y-78129400D02*
X132564402Y-78129400D01*
X132564402Y-78129400D02*
X132850002Y-78415000D01*
X128290000Y-77800000D02*
X129290000Y-78800000D01*
X130700000Y-78800000D02*
X131370600Y-78129400D01*
X116691497Y-77591497D02*
X116900000Y-77800000D01*
X116900000Y-77800000D02*
X128290000Y-77800000D01*
X116691497Y-76928200D02*
X116691497Y-77591497D01*
D21*
%TO.N,BUTTON*%
X120240000Y-78670000D02*
X120460000Y-78450000D01*
X125190000Y-79500000D02*
X131447998Y-79500000D01*
X120090687Y-81629313D02*
X120240000Y-81480000D01*
X120240000Y-81480000D02*
X120240000Y-78670000D01*
X124140000Y-78450000D02*
X125190000Y-79500000D01*
X118890740Y-81629313D02*
X120090687Y-81629313D01*
X120460000Y-78450000D02*
X123270000Y-78450000D01*
X131447998Y-79500000D02*
X132000000Y-78947998D01*
X123190000Y-78450000D02*
X124140000Y-78450000D01*
%TO.N,QSPI_SD0*%
X123190000Y-82258928D02*
X123150000Y-82218928D01*
X123150000Y-82218928D02*
X123150000Y-79200000D01*
%TO.N,QSPI_SD3*%
X121340000Y-81760000D02*
X121340000Y-79100000D01*
D20*
%TO.N,Net-(U3-VREG_VOUT)*%
X129649694Y-80580306D02*
X129325000Y-80905000D01*
X134060450Y-80580306D02*
X129649694Y-80580306D01*
D21*
%TO.N,QSPI_CLK*%
X122430000Y-81990000D02*
X122290000Y-81850000D01*
X122290000Y-81850000D02*
X122290000Y-79140000D01*
D20*
%TO.N,/UART1_RX*%
X134845662Y-82429400D02*
X133860743Y-83414319D01*
X159150000Y-85200000D02*
X159150000Y-85110000D01*
X145440000Y-82420000D02*
X145440000Y-82429400D01*
X145440000Y-82429400D02*
X134845662Y-82429400D01*
X146340000Y-81520000D02*
X145440000Y-82420000D01*
X155560000Y-81520000D02*
X146340000Y-81520000D01*
X159150000Y-85110000D02*
X155560000Y-81520000D01*
D21*
%TO.N,Net-(U5-CHIP_EN)*%
X163910000Y-77410000D02*
X159470000Y-77410000D01*
X164700000Y-78200000D02*
X163910000Y-77410000D01*
X169050000Y-78200000D02*
X164700000Y-78200000D01*
X159470000Y-77410000D02*
X159290000Y-77590000D01*
D20*
%TO.N,Net-(U3-RUN)*%
X133560662Y-79124761D02*
X133560662Y-78939338D01*
X125168568Y-79781432D02*
X132903991Y-79781432D01*
X133560662Y-78939338D02*
X134050000Y-78450000D01*
X132903991Y-79781432D02*
X133560662Y-79124761D01*
X124150000Y-80800000D02*
X125168568Y-79781432D01*
%TO.N,/UART1_TX*%
X133350000Y-83071800D02*
X133603767Y-83071800D01*
X147721400Y-80590000D02*
X147770000Y-80638600D01*
X146520000Y-80590000D02*
X147721400Y-80590000D01*
X155788600Y-80638600D02*
X159200000Y-84050000D01*
X134528200Y-82147367D02*
X144962633Y-82147367D01*
X144962633Y-82147367D02*
X146520000Y-80590000D01*
X147770000Y-80638600D02*
X155788600Y-80638600D01*
X133603767Y-83071800D02*
X134528200Y-82147367D01*
X159250000Y-84050000D02*
X159200000Y-84050000D01*
%TO.N,LED_1_C*%
X117800000Y-76500000D02*
X118750000Y-77450000D01*
X108250000Y-82050000D02*
X111735132Y-82050000D01*
X118750000Y-77450000D02*
X129195652Y-77450000D01*
X129195652Y-77450000D02*
X129869818Y-78124166D01*
X111735132Y-82050000D02*
X114839400Y-78945732D01*
X114839400Y-76880600D02*
X115220000Y-76500000D01*
X115220000Y-76500000D02*
X117800000Y-76500000D01*
X114839400Y-78945732D02*
X114839400Y-76880600D01*
%TO.N,LED_1_D*%
X113840000Y-79550000D02*
X114560000Y-78830000D01*
X114560000Y-78830000D02*
X114560000Y-76620000D01*
X108250000Y-79550000D02*
X113840000Y-79550000D01*
X118457176Y-76657176D02*
X129729150Y-76657176D01*
X129729150Y-76657176D02*
X129748119Y-76676145D01*
X114959400Y-76220600D02*
X118020600Y-76220600D01*
X114560000Y-76620000D02*
X114959400Y-76220600D01*
X118020600Y-76220600D02*
X118457176Y-76657176D01*
%TO.N,LED_2_C*%
X144329400Y-76231068D02*
X147868932Y-79770600D01*
X132000000Y-76450000D02*
X132845600Y-77295600D01*
X151000000Y-79375000D02*
X151000000Y-77600000D01*
X137502869Y-75995600D02*
X144165731Y-75995600D01*
X144329400Y-76159269D02*
X144329400Y-76231068D01*
X132845600Y-77295600D02*
X136202869Y-77295600D01*
X147868932Y-79770600D02*
X150604400Y-79770600D01*
X150604400Y-79770600D02*
X151000000Y-79375000D01*
X136202869Y-77295600D02*
X137502869Y-75995600D01*
X144165731Y-75995600D02*
X144329400Y-76159269D01*
X132000000Y-76300000D02*
X132000000Y-76450000D01*
%TO.N,LED_2_D*%
X144003200Y-76300000D02*
X147753200Y-80050000D01*
X132275000Y-77575000D02*
X136318600Y-77575000D01*
X131196601Y-76496601D02*
X132275000Y-77575000D01*
X153050000Y-80050000D02*
X153500000Y-79600000D01*
X131196601Y-76331033D02*
X131196601Y-76496601D01*
X153500000Y-79600000D02*
X153500000Y-77600000D01*
X147753200Y-80050000D02*
X153050000Y-80050000D01*
X136318600Y-77575000D02*
X137593600Y-76300000D01*
X137593600Y-76300000D02*
X144003200Y-76300000D01*
%TO.N,LED_4_C*%
X145850000Y-82720000D02*
X146620000Y-81950000D01*
X152820000Y-81950000D02*
X153180000Y-82310000D01*
X134420000Y-85281402D02*
X134420000Y-83650000D01*
X134980000Y-85841402D02*
X134420000Y-85281402D01*
X135350000Y-82720000D02*
X145850000Y-82720000D01*
X146620000Y-81950000D02*
X152820000Y-81950000D01*
X134420000Y-83650000D02*
X135350000Y-82720000D01*
X153180000Y-82310000D02*
X153180000Y-84430000D01*
%TO.N,LED_4_D*%
X150290000Y-82300000D02*
X146960000Y-82300000D01*
X146960000Y-82300000D02*
X146130000Y-83130000D01*
X135660000Y-83220000D02*
X135060000Y-83820000D01*
X135850000Y-83130000D02*
X135760000Y-83220000D01*
X135760000Y-83220000D02*
X135660000Y-83220000D01*
X135060000Y-83820000D02*
X135060000Y-85200000D01*
X146130000Y-83130000D02*
X135850000Y-83130000D01*
X150680000Y-82690000D02*
X150290000Y-82300000D01*
X150680000Y-84430000D02*
X150680000Y-82690000D01*
%TO.N,LED_3_D*%
X129725002Y-85334998D02*
X129725002Y-83235002D01*
X124200000Y-81910000D02*
X123105000Y-83005000D01*
X121710000Y-84400000D02*
X121710000Y-83310000D01*
X127830000Y-81910000D02*
X124200000Y-81910000D01*
X123070000Y-83040000D02*
X121710000Y-84400000D01*
X129460000Y-82970000D02*
X128890000Y-82970000D01*
X128890000Y-82970000D02*
X127830000Y-81910000D01*
X129725002Y-83235002D02*
X129460000Y-82970000D01*
%TO.N,LED_3_C*%
X129241800Y-83433837D02*
X128833837Y-83433837D01*
X124420000Y-82330000D02*
X124210000Y-82540000D01*
X124210000Y-82540000D02*
X124210000Y-84400000D01*
X127730000Y-82330000D02*
X124420000Y-82330000D01*
X128833837Y-83433837D02*
X127730000Y-82330000D01*
%TD*%
%TA.AperFunction,Conductor*%
%TO.N,GND*%
G36*
X115296390Y-77297533D02*
G01*
X115375483Y-77337833D01*
X115375485Y-77337833D01*
X115375487Y-77337834D01*
X115375485Y-77337834D01*
X115515737Y-77360047D01*
X115578872Y-77389976D01*
X115584021Y-77394839D01*
X116515064Y-78325882D01*
X116566581Y-78377399D01*
X116594702Y-78393635D01*
X116629676Y-78413828D01*
X116678016Y-78426780D01*
X116700051Y-78432684D01*
X116772907Y-78432684D01*
X119853424Y-78432684D01*
X119920463Y-78452369D01*
X119966218Y-78505173D01*
X119976162Y-78574331D01*
X119973199Y-78588777D01*
X119961268Y-78633304D01*
X119961268Y-81226581D01*
X119941583Y-81293620D01*
X119888779Y-81339375D01*
X119837268Y-81350581D01*
X119265118Y-81350581D01*
X119198079Y-81330896D01*
X119177436Y-81314261D01*
X119143964Y-81280788D01*
X119143961Y-81280786D01*
X119143960Y-81280785D01*
X119023866Y-81219594D01*
X119023864Y-81219593D01*
X119023861Y-81219592D01*
X118890742Y-81198509D01*
X118890738Y-81198509D01*
X118757618Y-81219592D01*
X118757614Y-81219593D01*
X118757614Y-81219594D01*
X118743901Y-81226581D01*
X118637518Y-81280786D01*
X118637514Y-81280789D01*
X118542216Y-81376087D01*
X118542213Y-81376091D01*
X118542212Y-81376093D01*
X118492682Y-81473302D01*
X118481019Y-81496191D01*
X118459936Y-81629310D01*
X118459936Y-81629315D01*
X118481019Y-81762434D01*
X118481020Y-81762437D01*
X118481021Y-81762439D01*
X118542212Y-81882533D01*
X118542213Y-81882534D01*
X118542216Y-81882538D01*
X118637514Y-81977836D01*
X118637518Y-81977839D01*
X118637520Y-81977841D01*
X118757614Y-82039032D01*
X118757616Y-82039032D01*
X118757618Y-82039033D01*
X118890738Y-82060117D01*
X118890740Y-82060117D01*
X118890742Y-82060117D01*
X119023861Y-82039033D01*
X119023861Y-82039032D01*
X119023866Y-82039032D01*
X119143960Y-81977841D01*
X119177436Y-81944365D01*
X119238758Y-81910879D01*
X119265118Y-81908045D01*
X120127381Y-81908045D01*
X120127383Y-81908045D01*
X120198274Y-81889050D01*
X120261832Y-81852354D01*
X120463041Y-81651146D01*
X120484226Y-81614450D01*
X120499737Y-81587586D01*
X120518732Y-81516696D01*
X120518732Y-78852732D01*
X120538417Y-78785693D01*
X120591221Y-78739938D01*
X120642732Y-78728732D01*
X120849271Y-78728732D01*
X120916310Y-78748417D01*
X120962065Y-78801221D01*
X120972009Y-78870379D01*
X120959756Y-78909026D01*
X120930279Y-78966876D01*
X120909196Y-79099997D01*
X120909196Y-79100002D01*
X120930279Y-79233121D01*
X120930280Y-79233124D01*
X120930281Y-79233126D01*
X120991472Y-79353220D01*
X120991473Y-79353221D01*
X120991475Y-79353224D01*
X121024948Y-79386696D01*
X121058434Y-79448018D01*
X121061268Y-79474378D01*
X121061268Y-81385621D01*
X121041583Y-81452660D01*
X121024949Y-81473302D01*
X120991476Y-81506774D01*
X120991473Y-81506778D01*
X120930279Y-81626878D01*
X120909196Y-81759997D01*
X120909196Y-81760002D01*
X120930279Y-81893121D01*
X120930280Y-81893124D01*
X120930281Y-81893126D01*
X120991472Y-82013220D01*
X120991473Y-82013221D01*
X120991476Y-82013225D01*
X121086774Y-82108523D01*
X121086778Y-82108526D01*
X121086780Y-82108528D01*
X121206874Y-82169719D01*
X121206876Y-82169719D01*
X121206878Y-82169720D01*
X121339998Y-82190804D01*
X121340000Y-82190804D01*
X121340002Y-82190804D01*
X121473121Y-82169720D01*
X121473121Y-82169719D01*
X121473126Y-82169719D01*
X121593220Y-82108528D01*
X121688528Y-82013220D01*
X121749719Y-81893126D01*
X121750365Y-81889047D01*
X121764795Y-81797943D01*
X121782742Y-81760081D01*
X121768291Y-81737594D01*
X121764795Y-81722057D01*
X121749720Y-81626878D01*
X121749719Y-81626876D01*
X121749719Y-81626874D01*
X121688528Y-81506780D01*
X121688526Y-81506778D01*
X121688523Y-81506774D01*
X121655051Y-81473302D01*
X121621566Y-81411979D01*
X121618732Y-81385621D01*
X121618732Y-79474378D01*
X121638417Y-79407339D01*
X121655052Y-79386696D01*
X121688524Y-79353224D01*
X121688528Y-79353220D01*
X121694324Y-79341843D01*
X121742296Y-79291048D01*
X121810116Y-79274251D01*
X121876252Y-79296786D01*
X121915292Y-79341840D01*
X121941472Y-79393220D01*
X121941474Y-79393222D01*
X121941475Y-79393224D01*
X121974948Y-79426696D01*
X122008434Y-79488018D01*
X122011268Y-79514378D01*
X122011268Y-81702659D01*
X121993468Y-81763277D01*
X122010245Y-81801447D01*
X122011268Y-81817340D01*
X122011268Y-81894824D01*
X122010723Y-81894824D01*
X122010402Y-81919243D01*
X121999196Y-81989996D01*
X121999196Y-81990002D01*
X122020279Y-82123121D01*
X122020280Y-82123124D01*
X122020281Y-82123126D01*
X122081472Y-82243220D01*
X122081473Y-82243221D01*
X122081476Y-82243225D01*
X122176774Y-82338523D01*
X122176778Y-82338526D01*
X122176780Y-82338528D01*
X122296874Y-82399719D01*
X122296876Y-82399719D01*
X122296878Y-82399720D01*
X122429998Y-82420804D01*
X122430000Y-82420804D01*
X122430002Y-82420804D01*
X122563121Y-82399720D01*
X122563121Y-82399719D01*
X122563126Y-82399719D01*
X122628142Y-82366591D01*
X122696808Y-82353696D01*
X122761548Y-82379972D01*
X122794918Y-82420780D01*
X122841472Y-82512148D01*
X122841474Y-82512150D01*
X122841476Y-82512153D01*
X122936323Y-82607000D01*
X122969808Y-82668323D01*
X122964824Y-82738015D01*
X122936324Y-82782361D01*
X122900102Y-82818584D01*
X122720126Y-82998560D01*
X122658803Y-83032045D01*
X122589111Y-83027061D01*
X122533178Y-82985189D01*
X122521045Y-82965340D01*
X122468282Y-82857414D01*
X122468282Y-82857413D01*
X122377586Y-82766717D01*
X122377583Y-82766715D01*
X122262357Y-82710385D01*
X122262355Y-82710384D01*
X122262354Y-82710384D01*
X122187650Y-82699500D01*
X121232350Y-82699500D01*
X121157646Y-82710384D01*
X121157644Y-82710384D01*
X121157642Y-82710385D01*
X121042416Y-82766715D01*
X121042413Y-82766717D01*
X120951717Y-82857413D01*
X120951715Y-82857416D01*
X120895385Y-82972642D01*
X120895384Y-82972644D01*
X120895384Y-82972646D01*
X120884500Y-83047350D01*
X120884500Y-85752650D01*
X120895384Y-85827354D01*
X120895384Y-85827355D01*
X120895385Y-85827357D01*
X120927984Y-85894040D01*
X120939744Y-85962913D01*
X120912400Y-86027210D01*
X120854636Y-86066517D01*
X120816584Y-86072500D01*
X120103416Y-86072500D01*
X120036377Y-86052815D01*
X119990622Y-86000011D01*
X119980678Y-85930853D01*
X119992016Y-85894040D01*
X120017750Y-85841399D01*
X120024616Y-85827354D01*
X120035500Y-85752650D01*
X120035500Y-83047350D01*
X120024616Y-82972646D01*
X120008008Y-82938674D01*
X119968284Y-82857416D01*
X119968282Y-82857413D01*
X119877586Y-82766717D01*
X119877583Y-82766715D01*
X119762357Y-82710385D01*
X119762355Y-82710384D01*
X119762354Y-82710384D01*
X119687650Y-82699500D01*
X118732350Y-82699500D01*
X118657646Y-82710384D01*
X118657644Y-82710384D01*
X118657642Y-82710385D01*
X118542416Y-82766715D01*
X118542413Y-82766717D01*
X118451717Y-82857413D01*
X118451715Y-82857416D01*
X118395385Y-82972642D01*
X118395384Y-82972644D01*
X118395384Y-82972646D01*
X118384500Y-83047350D01*
X118384500Y-83047355D01*
X118384500Y-83725500D01*
X118364815Y-83792539D01*
X118312011Y-83838294D01*
X118260500Y-83849500D01*
X116879387Y-83849500D01*
X116812348Y-83829815D01*
X116791706Y-83813181D01*
X115338016Y-82359491D01*
X115338015Y-82359490D01*
X115212485Y-82287016D01*
X115212480Y-82287014D01*
X115154263Y-82271414D01*
X115154263Y-82271415D01*
X115113368Y-82260457D01*
X115072475Y-82249500D01*
X115072474Y-82249500D01*
X113514787Y-82249500D01*
X113467334Y-82240061D01*
X113406726Y-82214956D01*
X113406724Y-82214955D01*
X113249965Y-82194318D01*
X113249963Y-82194318D01*
X113093203Y-82214955D01*
X113093201Y-82214956D01*
X112947124Y-82275463D01*
X112821682Y-82371718D01*
X112725427Y-82497160D01*
X112664920Y-82643237D01*
X112664919Y-82643239D01*
X112644282Y-82799998D01*
X112644282Y-82800001D01*
X112664919Y-82956760D01*
X112664920Y-82956762D01*
X112709795Y-83065101D01*
X112725428Y-83102841D01*
X112821682Y-83228282D01*
X112947123Y-83324536D01*
X113093202Y-83385044D01*
X113137349Y-83390856D01*
X113249963Y-83405682D01*
X113249964Y-83405682D01*
X113249965Y-83405682D01*
X113302218Y-83398802D01*
X113406726Y-83385044D01*
X113467334Y-83359938D01*
X113514787Y-83350500D01*
X114720613Y-83350500D01*
X114787652Y-83370185D01*
X114808294Y-83386819D01*
X116261985Y-84840510D01*
X116261987Y-84840511D01*
X116261991Y-84840514D01*
X116350247Y-84891468D01*
X116350250Y-84891469D01*
X116350255Y-84891472D01*
X116387515Y-84912984D01*
X116527525Y-84950500D01*
X116527526Y-84950500D01*
X116672474Y-84950500D01*
X118260500Y-84950500D01*
X118327539Y-84970185D01*
X118373294Y-85022989D01*
X118384500Y-85074500D01*
X118384500Y-85752650D01*
X118395384Y-85827354D01*
X118395384Y-85827355D01*
X118395385Y-85827357D01*
X118427984Y-85894040D01*
X118439744Y-85962913D01*
X118412400Y-86027210D01*
X118354636Y-86066517D01*
X118316584Y-86072500D01*
X106501500Y-86072500D01*
X106434461Y-86052815D01*
X106388706Y-86000011D01*
X106377500Y-85948500D01*
X106377500Y-82764238D01*
X106397185Y-82697199D01*
X106449989Y-82651444D01*
X106519147Y-82641500D01*
X106582703Y-82670525D01*
X106612901Y-82709779D01*
X106616717Y-82717586D01*
X106707413Y-82808282D01*
X106707416Y-82808284D01*
X106807912Y-82857413D01*
X106822646Y-82864616D01*
X106897350Y-82875500D01*
X106897356Y-82875500D01*
X109602644Y-82875500D01*
X109602650Y-82875500D01*
X109677354Y-82864616D01*
X109734970Y-82836449D01*
X109792583Y-82808284D01*
X109792586Y-82808282D01*
X109883282Y-82717586D01*
X109883284Y-82717583D01*
X109915930Y-82650804D01*
X109939616Y-82602354D01*
X109950500Y-82527650D01*
X109950500Y-82450700D01*
X109970185Y-82383661D01*
X110022989Y-82337906D01*
X110074500Y-82326700D01*
X111771560Y-82326700D01*
X111771565Y-82326699D01*
X111841935Y-82307844D01*
X111841936Y-82307844D01*
X111898017Y-82275464D01*
X111905030Y-82271415D01*
X115060815Y-79115630D01*
X115085801Y-79072355D01*
X115097244Y-79052536D01*
X115097244Y-79052535D01*
X115116099Y-78982165D01*
X115116100Y-78982159D01*
X115116100Y-78909768D01*
X115135785Y-78842729D01*
X115188589Y-78796974D01*
X115257747Y-78787030D01*
X115296389Y-78799281D01*
X115316874Y-78809719D01*
X115316876Y-78809719D01*
X115316878Y-78809720D01*
X115449998Y-78830804D01*
X115450000Y-78830804D01*
X115450002Y-78830804D01*
X115583121Y-78809720D01*
X115583121Y-78809719D01*
X115583126Y-78809719D01*
X115703220Y-78748528D01*
X115798528Y-78653220D01*
X115859719Y-78533126D01*
X115861724Y-78520466D01*
X115880804Y-78400002D01*
X115880804Y-78399997D01*
X115859720Y-78266878D01*
X115859719Y-78266876D01*
X115859719Y-78266874D01*
X115798528Y-78146780D01*
X115798526Y-78146778D01*
X115798523Y-78146774D01*
X115703225Y-78051476D01*
X115703221Y-78051473D01*
X115703220Y-78051472D01*
X115583126Y-77990281D01*
X115583124Y-77990280D01*
X115583121Y-77990279D01*
X115450002Y-77969196D01*
X115449998Y-77969196D01*
X115316876Y-77990279D01*
X115296394Y-78000716D01*
X115227724Y-78013612D01*
X115162984Y-77987335D01*
X115122728Y-77930228D01*
X115116100Y-77890231D01*
X115116100Y-77408019D01*
X115135785Y-77340980D01*
X115188589Y-77295225D01*
X115257747Y-77285281D01*
X115296390Y-77297533D01*
G37*
%TD.AperFunction*%
%TA.AperFunction,Conductor*%
G36*
X143904264Y-76596385D02*
G01*
X143924906Y-76613019D01*
X147413505Y-80101619D01*
X147446990Y-80162942D01*
X147442006Y-80232634D01*
X147400134Y-80288567D01*
X147334670Y-80312984D01*
X147325824Y-80313300D01*
X146483568Y-80313300D01*
X146413198Y-80332155D01*
X146413196Y-80332155D01*
X146350108Y-80368581D01*
X146350099Y-80368587D01*
X145163449Y-81555237D01*
X145102126Y-81588722D01*
X145032434Y-81583738D01*
X144976501Y-81541866D01*
X144952084Y-81476402D01*
X144959420Y-81431141D01*
X144957947Y-81430747D01*
X144960049Y-81422899D01*
X144960051Y-81422896D01*
X144976230Y-81300002D01*
X144980689Y-81266135D01*
X144980689Y-81266132D01*
X144960051Y-81109373D01*
X144960051Y-81109372D01*
X144899543Y-80963293D01*
X144829499Y-80872009D01*
X144804306Y-80806842D01*
X144818344Y-80738397D01*
X144852388Y-80698150D01*
X144878282Y-80678282D01*
X144974536Y-80552841D01*
X145035044Y-80406762D01*
X145050378Y-80290288D01*
X145055682Y-80250001D01*
X145055682Y-80249998D01*
X145039003Y-80123311D01*
X145035044Y-80093238D01*
X144974536Y-79947159D01*
X144878282Y-79821718D01*
X144878279Y-79821716D01*
X144873334Y-79815271D01*
X144874804Y-79814142D01*
X144846249Y-79761847D01*
X144851233Y-79692155D01*
X144869039Y-79660003D01*
X144874536Y-79652841D01*
X144935044Y-79506762D01*
X144949401Y-79397710D01*
X144955682Y-79350001D01*
X144955682Y-79349998D01*
X144936095Y-79201223D01*
X144935044Y-79193238D01*
X144874536Y-79047159D01*
X144778282Y-78921718D01*
X144652841Y-78825464D01*
X144623054Y-78813126D01*
X144506762Y-78764956D01*
X144506760Y-78764955D01*
X144350001Y-78744318D01*
X144349999Y-78744318D01*
X144193239Y-78764955D01*
X144193237Y-78764956D01*
X144047160Y-78825463D01*
X143921718Y-78921718D01*
X143825463Y-79047160D01*
X143764956Y-79193237D01*
X143764955Y-79193239D01*
X143744318Y-79349998D01*
X143744318Y-79350001D01*
X143764955Y-79506760D01*
X143764956Y-79506762D01*
X143818667Y-79636433D01*
X143825464Y-79652841D01*
X143921718Y-79778282D01*
X143921720Y-79778283D01*
X143926666Y-79784729D01*
X143925195Y-79785857D01*
X143953750Y-79838152D01*
X143948766Y-79907844D01*
X143930960Y-79939996D01*
X143925464Y-79947157D01*
X143864956Y-80093237D01*
X143864955Y-80093239D01*
X143844318Y-80249998D01*
X143844318Y-80250001D01*
X143864955Y-80406760D01*
X143864956Y-80406762D01*
X143925464Y-80552842D01*
X143995506Y-80644122D01*
X144020700Y-80709291D01*
X144006662Y-80777736D01*
X143972619Y-80817982D01*
X143946726Y-80837850D01*
X143850470Y-80963294D01*
X143789963Y-81109371D01*
X143789962Y-81109373D01*
X143769325Y-81266132D01*
X143769325Y-81266135D01*
X143789962Y-81422894D01*
X143789963Y-81422896D01*
X143850471Y-81568976D01*
X143928896Y-81671181D01*
X143954090Y-81736350D01*
X143940052Y-81804795D01*
X143891238Y-81854784D01*
X143830520Y-81870667D01*
X134491766Y-81870667D01*
X134421397Y-81889522D01*
X134358299Y-81925953D01*
X133638942Y-82645310D01*
X133577619Y-82678795D01*
X133507927Y-82673811D01*
X133494965Y-82668113D01*
X133483126Y-82662081D01*
X133483124Y-82662080D01*
X133350002Y-82640996D01*
X133349998Y-82640996D01*
X133216878Y-82662079D01*
X133096778Y-82723273D01*
X133096774Y-82723276D01*
X133001476Y-82818574D01*
X133001473Y-82818578D01*
X132940279Y-82938678D01*
X132919196Y-83071797D01*
X132919196Y-83071802D01*
X132940279Y-83204921D01*
X132940280Y-83204924D01*
X132940281Y-83204926D01*
X133001472Y-83325020D01*
X133001473Y-83325021D01*
X133001476Y-83325025D01*
X133096774Y-83420323D01*
X133096778Y-83420326D01*
X133096780Y-83420328D01*
X133216874Y-83481519D01*
X133216876Y-83481519D01*
X133216878Y-83481520D01*
X133349998Y-83502604D01*
X133352189Y-83502604D01*
X133354754Y-83503357D01*
X133359639Y-83504131D01*
X133359539Y-83504762D01*
X133419228Y-83522289D01*
X133462673Y-83570308D01*
X133512215Y-83667539D01*
X133512217Y-83667541D01*
X133512219Y-83667544D01*
X133607517Y-83762842D01*
X133607521Y-83762845D01*
X133607523Y-83762847D01*
X133727617Y-83824038D01*
X133727619Y-83824038D01*
X133727621Y-83824039D01*
X133860741Y-83845123D01*
X133860743Y-83845123D01*
X133860745Y-83845123D01*
X133999902Y-83823083D01*
X134069196Y-83832038D01*
X134122648Y-83877034D01*
X134143287Y-83943786D01*
X134143300Y-83945556D01*
X134143300Y-85317835D01*
X134162155Y-85388205D01*
X134162155Y-85388206D01*
X134198581Y-85451294D01*
X134198587Y-85451303D01*
X134513274Y-85765989D01*
X134546759Y-85827312D01*
X134548066Y-85834272D01*
X134563086Y-85929102D01*
X134554132Y-85998395D01*
X134509136Y-86051847D01*
X134442384Y-86072487D01*
X134440613Y-86072500D01*
X133778611Y-86072500D01*
X133711572Y-86052815D01*
X133665817Y-86000011D01*
X133655873Y-85930853D01*
X133684898Y-85867297D01*
X133690930Y-85860819D01*
X133698523Y-85853225D01*
X133698528Y-85853220D01*
X133759719Y-85733126D01*
X133772929Y-85649720D01*
X133780804Y-85600002D01*
X133780804Y-85599997D01*
X133759720Y-85466878D01*
X133759719Y-85466876D01*
X133759719Y-85466874D01*
X133698528Y-85346780D01*
X133698526Y-85346778D01*
X133698523Y-85346774D01*
X133603225Y-85251476D01*
X133603221Y-85251473D01*
X133603220Y-85251472D01*
X133483126Y-85190281D01*
X133483124Y-85190280D01*
X133483121Y-85190279D01*
X133350002Y-85169196D01*
X133349998Y-85169196D01*
X133216878Y-85190279D01*
X133216874Y-85190280D01*
X133216874Y-85190281D01*
X133194125Y-85201872D01*
X133096778Y-85251473D01*
X133096774Y-85251476D01*
X133001476Y-85346774D01*
X133001473Y-85346778D01*
X132940279Y-85466878D01*
X132919196Y-85599997D01*
X132919196Y-85600002D01*
X132940279Y-85733121D01*
X132940280Y-85733124D01*
X132940281Y-85733126D01*
X133001472Y-85853220D01*
X133001473Y-85853221D01*
X133001476Y-85853225D01*
X133009070Y-85860819D01*
X133042555Y-85922142D01*
X133037571Y-85991834D01*
X132995699Y-86047767D01*
X132930235Y-86072184D01*
X132921389Y-86072500D01*
X125103416Y-86072500D01*
X125036377Y-86052815D01*
X124990622Y-86000011D01*
X124980678Y-85930853D01*
X124992016Y-85894040D01*
X125017750Y-85841399D01*
X125024616Y-85827354D01*
X125035500Y-85752650D01*
X125035500Y-83047350D01*
X125024616Y-82972646D01*
X125008008Y-82938674D01*
X124968284Y-82857416D01*
X124968282Y-82857413D01*
X124929250Y-82818381D01*
X124895765Y-82757058D01*
X124900749Y-82687366D01*
X124942621Y-82631433D01*
X125008085Y-82607016D01*
X125016931Y-82606700D01*
X127564025Y-82606700D01*
X127631064Y-82626385D01*
X127651706Y-82643019D01*
X128612422Y-83603735D01*
X128663939Y-83655252D01*
X128685229Y-83667544D01*
X128727034Y-83691681D01*
X128797405Y-83710536D01*
X128797409Y-83710537D01*
X128865390Y-83710537D01*
X128932429Y-83730222D01*
X128953072Y-83746857D01*
X128988575Y-83782361D01*
X128988578Y-83782363D01*
X128988580Y-83782365D01*
X129108674Y-83843556D01*
X129108676Y-83843556D01*
X129108678Y-83843557D01*
X129241798Y-83864641D01*
X129241800Y-83864641D01*
X129241801Y-83864641D01*
X129256801Y-83862265D01*
X129304904Y-83854646D01*
X129374197Y-83863600D01*
X129427649Y-83908596D01*
X129448289Y-83975347D01*
X129448302Y-83977119D01*
X129448302Y-84789843D01*
X129428617Y-84856882D01*
X129375813Y-84902637D01*
X129306655Y-84912581D01*
X129262538Y-84894678D01*
X129261915Y-84895903D01*
X129253221Y-84891473D01*
X129253220Y-84891472D01*
X129133126Y-84830281D01*
X129133124Y-84830280D01*
X129133121Y-84830279D01*
X129000002Y-84809196D01*
X128999998Y-84809196D01*
X128866878Y-84830279D01*
X128866874Y-84830280D01*
X128866874Y-84830281D01*
X128746780Y-84891472D01*
X128746778Y-84891473D01*
X128746774Y-84891476D01*
X128651476Y-84986774D01*
X128651473Y-84986778D01*
X128590279Y-85106878D01*
X128569196Y-85239997D01*
X128569196Y-85240002D01*
X128590279Y-85373121D01*
X128590280Y-85373124D01*
X128590281Y-85373126D01*
X128651472Y-85493220D01*
X128651473Y-85493221D01*
X128651476Y-85493225D01*
X128746774Y-85588523D01*
X128746778Y-85588526D01*
X128746780Y-85588528D01*
X128866874Y-85649719D01*
X128866876Y-85649719D01*
X128866878Y-85649720D01*
X128999998Y-85670804D01*
X129000000Y-85670804D01*
X129000002Y-85670804D01*
X129133121Y-85649720D01*
X129133121Y-85649719D01*
X129133126Y-85649719D01*
X129253220Y-85588528D01*
X129253222Y-85588525D01*
X129254803Y-85587720D01*
X129323472Y-85574824D01*
X129388212Y-85601100D01*
X129398779Y-85610524D01*
X129471776Y-85683521D01*
X129471780Y-85683524D01*
X129471782Y-85683526D01*
X129591876Y-85744717D01*
X129591878Y-85744717D01*
X129591880Y-85744718D01*
X129725000Y-85765802D01*
X129725002Y-85765802D01*
X129725004Y-85765802D01*
X129858123Y-85744718D01*
X129858123Y-85744717D01*
X129858128Y-85744717D01*
X129978222Y-85683526D01*
X130073530Y-85588218D01*
X130134721Y-85468124D01*
X130134722Y-85468119D01*
X130155806Y-85335000D01*
X130155806Y-85334995D01*
X130134722Y-85201876D01*
X130134721Y-85201874D01*
X130134721Y-85201872D01*
X130073530Y-85081778D01*
X130073528Y-85081776D01*
X130073525Y-85081772D01*
X130038021Y-85046268D01*
X130004536Y-84984945D01*
X130001702Y-84958587D01*
X130001702Y-83198577D01*
X130001701Y-83198570D01*
X129982846Y-83128200D01*
X129982846Y-83128198D01*
X129946420Y-83065110D01*
X129946417Y-83065104D01*
X129894900Y-83013587D01*
X129819987Y-82938674D01*
X129629901Y-82748587D01*
X129629892Y-82748581D01*
X129566804Y-82712155D01*
X129496433Y-82693300D01*
X129496428Y-82693300D01*
X129055975Y-82693300D01*
X128988936Y-82673615D01*
X128968294Y-82656981D01*
X127999901Y-81688587D01*
X127999892Y-81688581D01*
X127936804Y-81652155D01*
X127866433Y-81633300D01*
X127866428Y-81633300D01*
X124236428Y-81633300D01*
X124163572Y-81633300D01*
X124163566Y-81633300D01*
X124093197Y-81652155D01*
X124030099Y-81688586D01*
X123713434Y-82005251D01*
X123652111Y-82038736D01*
X123582419Y-82033752D01*
X123538072Y-82005251D01*
X123465051Y-81932230D01*
X123431566Y-81870907D01*
X123428732Y-81844549D01*
X123428732Y-79574378D01*
X123448417Y-79507339D01*
X123465052Y-79486696D01*
X123498524Y-79453224D01*
X123498528Y-79453220D01*
X123559719Y-79333126D01*
X123563112Y-79311706D01*
X123580804Y-79200002D01*
X123580804Y-79199997D01*
X123559720Y-79066878D01*
X123559719Y-79066876D01*
X123559719Y-79066874D01*
X123498528Y-78946780D01*
X123498526Y-78946778D01*
X123498523Y-78946774D01*
X123492162Y-78940413D01*
X123458677Y-78879090D01*
X123463661Y-78809398D01*
X123505533Y-78753465D01*
X123570997Y-78729048D01*
X123579843Y-78728732D01*
X123973184Y-78728732D01*
X124040223Y-78748417D01*
X124060865Y-78765051D01*
X124839569Y-79543755D01*
X124873054Y-79605078D01*
X124868070Y-79674770D01*
X124839569Y-79719117D01*
X124225411Y-80333274D01*
X124164088Y-80366759D01*
X124157128Y-80368066D01*
X124016878Y-80390279D01*
X123896778Y-80451473D01*
X123896774Y-80451476D01*
X123801476Y-80546774D01*
X123801473Y-80546778D01*
X123740279Y-80666878D01*
X123719196Y-80799997D01*
X123719196Y-80800002D01*
X123740279Y-80933121D01*
X123740280Y-80933124D01*
X123740281Y-80933126D01*
X123801472Y-81053220D01*
X123801473Y-81053221D01*
X123801476Y-81053225D01*
X123896774Y-81148523D01*
X123896778Y-81148526D01*
X123896780Y-81148528D01*
X124016874Y-81209719D01*
X124016876Y-81209719D01*
X124016878Y-81209720D01*
X124149998Y-81230804D01*
X124150000Y-81230804D01*
X124150002Y-81230804D01*
X124283121Y-81209720D01*
X124283121Y-81209719D01*
X124283126Y-81209719D01*
X124403220Y-81148528D01*
X124498528Y-81053220D01*
X124559719Y-80933126D01*
X124580804Y-80800000D01*
X124580803Y-80799996D01*
X124581932Y-80792870D01*
X124611861Y-80729735D01*
X124616706Y-80724605D01*
X125246862Y-80094451D01*
X125308185Y-80060966D01*
X125334543Y-80058132D01*
X126657202Y-80058132D01*
X126724241Y-80077817D01*
X126769996Y-80130621D01*
X126779940Y-80199779D01*
X126778570Y-80205669D01*
X126756188Y-80346989D01*
X126756188Y-80346994D01*
X126777271Y-80480113D01*
X126777272Y-80480116D01*
X126777273Y-80480118D01*
X126838464Y-80600212D01*
X126838465Y-80600213D01*
X126838468Y-80600217D01*
X126933766Y-80695515D01*
X126933770Y-80695518D01*
X126933772Y-80695520D01*
X127053866Y-80756711D01*
X127053868Y-80756711D01*
X127053870Y-80756712D01*
X127186990Y-80777796D01*
X127186992Y-80777796D01*
X127186994Y-80777796D01*
X127320113Y-80756712D01*
X127320113Y-80756711D01*
X127320118Y-80756711D01*
X127440212Y-80695520D01*
X127535520Y-80600212D01*
X127596711Y-80480118D01*
X127598035Y-80471760D01*
X127617796Y-80346994D01*
X127617796Y-80346989D01*
X127595185Y-80204227D01*
X127598371Y-80203722D01*
X127596859Y-80150597D01*
X127632946Y-80090767D01*
X127695650Y-80059946D01*
X127716782Y-80058132D01*
X129587512Y-80058132D01*
X129654551Y-80077817D01*
X129700306Y-80130621D01*
X129710250Y-80199779D01*
X129681225Y-80263335D01*
X129622447Y-80301109D01*
X129619604Y-80301907D01*
X129542891Y-80322461D01*
X129479799Y-80358889D01*
X129479796Y-80358891D01*
X129400409Y-80438276D01*
X129339085Y-80471760D01*
X129332127Y-80473066D01*
X129191878Y-80495279D01*
X129071778Y-80556473D01*
X129071774Y-80556476D01*
X128976476Y-80651774D01*
X128976473Y-80651778D01*
X128915279Y-80771878D01*
X128894196Y-80904997D01*
X128894196Y-80905002D01*
X128915279Y-81038121D01*
X128915280Y-81038124D01*
X128915281Y-81038126D01*
X128971533Y-81148526D01*
X128976473Y-81158221D01*
X128976476Y-81158225D01*
X129071774Y-81253523D01*
X129071778Y-81253526D01*
X129071780Y-81253528D01*
X129191874Y-81314719D01*
X129191876Y-81314719D01*
X129191878Y-81314720D01*
X129324998Y-81335804D01*
X129325000Y-81335804D01*
X129325002Y-81335804D01*
X129458121Y-81314720D01*
X129458121Y-81314719D01*
X129458126Y-81314719D01*
X129578220Y-81253528D01*
X129673528Y-81158220D01*
X129734719Y-81038126D01*
X129734724Y-81038097D01*
X129746839Y-80961608D01*
X129776768Y-80898473D01*
X129836080Y-80861542D01*
X129869312Y-80857006D01*
X133325988Y-80857006D01*
X133393027Y-80876691D01*
X133438782Y-80929495D01*
X133448726Y-80998653D01*
X133433260Y-81036738D01*
X133435903Y-81038085D01*
X133431473Y-81046778D01*
X133431472Y-81046780D01*
X133374690Y-81158221D01*
X133370279Y-81166878D01*
X133349196Y-81299997D01*
X133349196Y-81300002D01*
X133370279Y-81433121D01*
X133370280Y-81433124D01*
X133370281Y-81433126D01*
X133422157Y-81534938D01*
X133431473Y-81553221D01*
X133431476Y-81553225D01*
X133526774Y-81648523D01*
X133526778Y-81648526D01*
X133526780Y-81648528D01*
X133646874Y-81709719D01*
X133646876Y-81709719D01*
X133646878Y-81709720D01*
X133779998Y-81730804D01*
X133780000Y-81730804D01*
X133780002Y-81730804D01*
X133913121Y-81709720D01*
X133913121Y-81709719D01*
X133913126Y-81709719D01*
X134033220Y-81648528D01*
X134128528Y-81553220D01*
X134189719Y-81433126D01*
X134189720Y-81433121D01*
X134210804Y-81300002D01*
X134210804Y-81299997D01*
X134189720Y-81166876D01*
X134175271Y-81138518D01*
X134162375Y-81069848D01*
X134188652Y-81005108D01*
X134229458Y-80971742D01*
X134313670Y-80928834D01*
X134408978Y-80833526D01*
X134470169Y-80713432D01*
X134473006Y-80695520D01*
X134491254Y-80580308D01*
X134491254Y-80580303D01*
X134470170Y-80447184D01*
X134470169Y-80447182D01*
X134470169Y-80447180D01*
X134408978Y-80327086D01*
X134408976Y-80327084D01*
X134403239Y-80319187D01*
X134404547Y-80318236D01*
X134376378Y-80266647D01*
X134381362Y-80196955D01*
X134387059Y-80183994D01*
X134387351Y-80183419D01*
X134387355Y-80183416D01*
X134448546Y-80063322D01*
X134469631Y-79930196D01*
X134469630Y-79930191D01*
X134470218Y-79926481D01*
X134500147Y-79863346D01*
X134504993Y-79858215D01*
X135025804Y-79337405D01*
X141370060Y-79337405D01*
X141370060Y-79337408D01*
X141390697Y-79494167D01*
X141390698Y-79494169D01*
X141451206Y-79640248D01*
X141547460Y-79765689D01*
X141672901Y-79861943D01*
X141818980Y-79922451D01*
X141877825Y-79930198D01*
X141975741Y-79943089D01*
X141975742Y-79943089D01*
X141975743Y-79943089D01*
X142073659Y-79930198D01*
X142132504Y-79922451D01*
X142278583Y-79861943D01*
X142404024Y-79765689D01*
X142500278Y-79640248D01*
X142560786Y-79494169D01*
X142576740Y-79372989D01*
X142581424Y-79337408D01*
X142581424Y-79337405D01*
X142560786Y-79180646D01*
X142560786Y-79180645D01*
X142500278Y-79034566D01*
X142404024Y-78909125D01*
X142278583Y-78812871D01*
X142270973Y-78809719D01*
X142132504Y-78752363D01*
X142132502Y-78752362D01*
X141975743Y-78731725D01*
X141975741Y-78731725D01*
X141818981Y-78752362D01*
X141818979Y-78752363D01*
X141672902Y-78812870D01*
X141547460Y-78909125D01*
X141451205Y-79034567D01*
X141390698Y-79180644D01*
X141390697Y-79180646D01*
X141370060Y-79337405D01*
X135025804Y-79337405D01*
X135308159Y-79055051D01*
X135369482Y-79021566D01*
X135395840Y-79018732D01*
X139136694Y-79018732D01*
X139136696Y-79018732D01*
X139207587Y-78999737D01*
X139271145Y-78963041D01*
X140397367Y-77836819D01*
X140458690Y-77803334D01*
X140485048Y-77800500D01*
X141259750Y-77800500D01*
X141259751Y-77800499D01*
X141280285Y-77796415D01*
X141318229Y-77788868D01*
X141318229Y-77788867D01*
X141318231Y-77788867D01*
X141384552Y-77744552D01*
X141428867Y-77678231D01*
X141428867Y-77678229D01*
X141428868Y-77678229D01*
X141437552Y-77634568D01*
X141440500Y-77619748D01*
X141440500Y-76700700D01*
X141460185Y-76633661D01*
X141512989Y-76587906D01*
X141564500Y-76576700D01*
X143837225Y-76576700D01*
X143904264Y-76596385D01*
G37*
%TD.AperFunction*%
%TA.AperFunction,Conductor*%
G36*
X147590108Y-82596385D02*
G01*
X147635863Y-82649189D01*
X147645807Y-82718347D01*
X147616782Y-82781903D01*
X147610750Y-82788381D01*
X147531717Y-82867413D01*
X147531715Y-82867416D01*
X147475385Y-82982642D01*
X147475384Y-82982644D01*
X147475384Y-82982646D01*
X147464500Y-83057350D01*
X147464500Y-83057355D01*
X147464500Y-84182385D01*
X147444815Y-84249424D01*
X147428181Y-84270066D01*
X147426476Y-84271770D01*
X147426473Y-84271774D01*
X147365279Y-84391874D01*
X147344196Y-84524993D01*
X147344196Y-84524998D01*
X147365279Y-84658117D01*
X147365280Y-84658120D01*
X147365281Y-84658122D01*
X147414681Y-84755074D01*
X147426473Y-84778217D01*
X147428176Y-84779920D01*
X147429585Y-84782501D01*
X147432211Y-84786115D01*
X147431744Y-84786453D01*
X147461665Y-84841241D01*
X147464500Y-84867606D01*
X147464500Y-85762650D01*
X147471007Y-85807310D01*
X147475384Y-85837355D01*
X147503096Y-85894040D01*
X147514854Y-85962913D01*
X147487511Y-86027210D01*
X147429747Y-86066517D01*
X147391695Y-86072500D01*
X135519387Y-86072500D01*
X135452348Y-86052815D01*
X135406593Y-86000011D01*
X135396649Y-85930853D01*
X135396914Y-85929102D01*
X135410804Y-85841404D01*
X135410804Y-85841399D01*
X135389720Y-85708280D01*
X135389719Y-85708278D01*
X135389719Y-85708276D01*
X135350875Y-85632041D01*
X135337980Y-85563375D01*
X135364256Y-85498634D01*
X135373681Y-85488067D01*
X135408524Y-85453224D01*
X135408528Y-85453220D01*
X135469719Y-85333126D01*
X135483681Y-85244974D01*
X135490804Y-85200002D01*
X135490804Y-85199997D01*
X135469720Y-85066878D01*
X135469719Y-85066876D01*
X135469719Y-85066874D01*
X135408528Y-84946780D01*
X135408526Y-84946778D01*
X135408523Y-84946774D01*
X135373019Y-84911270D01*
X135339534Y-84849947D01*
X135336700Y-84823589D01*
X135336700Y-83985975D01*
X135356385Y-83918936D01*
X135373019Y-83898294D01*
X135548273Y-83723040D01*
X135743134Y-83528178D01*
X135798721Y-83496086D01*
X135866804Y-83477844D01*
X135901775Y-83457652D01*
X135929898Y-83441415D01*
X135929904Y-83441408D01*
X135936345Y-83436468D01*
X135937510Y-83437986D01*
X135989618Y-83409534D01*
X136015976Y-83406700D01*
X146166428Y-83406700D01*
X146166433Y-83406699D01*
X146236803Y-83387844D01*
X146236804Y-83387844D01*
X146285134Y-83359939D01*
X146299898Y-83351415D01*
X147038294Y-82613019D01*
X147099617Y-82579534D01*
X147125975Y-82576700D01*
X147523069Y-82576700D01*
X147590108Y-82596385D01*
G37*
%TD.AperFunction*%
%TA.AperFunction,Conductor*%
G36*
X155239308Y-75847185D02*
G01*
X155285063Y-75899989D01*
X155295007Y-75969147D01*
X155265982Y-76032703D01*
X155259950Y-76039181D01*
X155241717Y-76057413D01*
X155241715Y-76057416D01*
X155185385Y-76172642D01*
X155185384Y-76172644D01*
X155185384Y-76172646D01*
X155174500Y-76247350D01*
X155174500Y-78952650D01*
X155185384Y-79027354D01*
X155185384Y-79027355D01*
X155185385Y-79027357D01*
X155241715Y-79142583D01*
X155241717Y-79142586D01*
X155332413Y-79233282D01*
X155332416Y-79233284D01*
X155442835Y-79287264D01*
X155447646Y-79289616D01*
X155522350Y-79300500D01*
X155522356Y-79300500D01*
X156477644Y-79300500D01*
X156477650Y-79300500D01*
X156552354Y-79289616D01*
X156625995Y-79253615D01*
X156667583Y-79233284D01*
X156667586Y-79233282D01*
X156758282Y-79142586D01*
X156758284Y-79142583D01*
X156792616Y-79072355D01*
X156814616Y-79027354D01*
X156818602Y-78999997D01*
X170679196Y-78999997D01*
X170679196Y-79000002D01*
X170700279Y-79133121D01*
X170700280Y-79133124D01*
X170700281Y-79133126D01*
X170753198Y-79236981D01*
X170761473Y-79253221D01*
X170761476Y-79253225D01*
X170856774Y-79348523D01*
X170856778Y-79348526D01*
X170856780Y-79348528D01*
X170976874Y-79409719D01*
X170976876Y-79409719D01*
X170976878Y-79409720D01*
X171109998Y-79430804D01*
X171110000Y-79430804D01*
X171110002Y-79430804D01*
X171243121Y-79409720D01*
X171243121Y-79409719D01*
X171243126Y-79409719D01*
X171363220Y-79348528D01*
X171458528Y-79253220D01*
X171519719Y-79133126D01*
X171522491Y-79115624D01*
X171540804Y-79000002D01*
X171540804Y-78999997D01*
X171519720Y-78866878D01*
X171519719Y-78866876D01*
X171519719Y-78866874D01*
X171458528Y-78746780D01*
X171458526Y-78746778D01*
X171458523Y-78746774D01*
X171363225Y-78651476D01*
X171363221Y-78651473D01*
X171363220Y-78651472D01*
X171243126Y-78590281D01*
X171243124Y-78590280D01*
X171243121Y-78590279D01*
X171110002Y-78569196D01*
X171109998Y-78569196D01*
X170976878Y-78590279D01*
X170856778Y-78651473D01*
X170856774Y-78651476D01*
X170761476Y-78746774D01*
X170761473Y-78746778D01*
X170700279Y-78866878D01*
X170679196Y-78999997D01*
X156818602Y-78999997D01*
X156825500Y-78952650D01*
X156825500Y-76546611D01*
X156845185Y-76479572D01*
X156897989Y-76433817D01*
X156967147Y-76423873D01*
X157030703Y-76452898D01*
X157037181Y-76458930D01*
X157136774Y-76558523D01*
X157136778Y-76558526D01*
X157136780Y-76558528D01*
X157256874Y-76619719D01*
X157256876Y-76619719D01*
X157256878Y-76619720D01*
X157389998Y-76640804D01*
X157390000Y-76640804D01*
X157390002Y-76640804D01*
X157523121Y-76619720D01*
X157523121Y-76619719D01*
X157523126Y-76619719D01*
X157643220Y-76558528D01*
X157643221Y-76558526D01*
X157651915Y-76554097D01*
X157652893Y-76556018D01*
X157706485Y-76536902D01*
X157713554Y-76536700D01*
X160585211Y-76536700D01*
X160652250Y-76556385D01*
X160698005Y-76609189D01*
X160707949Y-76678347D01*
X160695696Y-76716994D01*
X160670279Y-76766876D01*
X160649196Y-76899997D01*
X160649196Y-76900002D01*
X160663113Y-76987870D01*
X160654158Y-77057163D01*
X160609162Y-77110615D01*
X160542411Y-77131255D01*
X160540640Y-77131268D01*
X159433304Y-77131268D01*
X159362410Y-77150264D01*
X159359083Y-77151642D01*
X159355832Y-77152026D01*
X159354562Y-77152367D01*
X159354512Y-77152182D01*
X159299759Y-77158662D01*
X159299759Y-77159196D01*
X159295247Y-77159196D01*
X159292247Y-77159551D01*
X159290005Y-77159196D01*
X159289998Y-77159196D01*
X159156878Y-77180279D01*
X159036778Y-77241473D01*
X159036774Y-77241476D01*
X158941476Y-77336774D01*
X158941473Y-77336778D01*
X158880279Y-77456878D01*
X158862065Y-77571879D01*
X158832136Y-77635014D01*
X158772824Y-77671945D01*
X158702961Y-77670947D01*
X158651911Y-77640162D01*
X158603225Y-77591476D01*
X158603221Y-77591473D01*
X158603220Y-77591472D01*
X158483126Y-77530281D01*
X158483124Y-77530280D01*
X158483121Y-77530279D01*
X158350002Y-77509196D01*
X158349998Y-77509196D01*
X158216878Y-77530279D01*
X158096778Y-77591473D01*
X158096774Y-77591476D01*
X158001476Y-77686774D01*
X158001473Y-77686778D01*
X157940279Y-77806878D01*
X157919196Y-77939997D01*
X157919196Y-77940002D01*
X157940279Y-78073121D01*
X157940280Y-78073124D01*
X157940281Y-78073126D01*
X157985453Y-78161780D01*
X158001473Y-78193221D01*
X158001476Y-78193225D01*
X158096774Y-78288523D01*
X158096778Y-78288526D01*
X158096780Y-78288528D01*
X158216874Y-78349719D01*
X158216876Y-78349719D01*
X158216878Y-78349720D01*
X158349998Y-78370804D01*
X158350000Y-78370804D01*
X158350002Y-78370804D01*
X158483121Y-78349720D01*
X158483121Y-78349719D01*
X158483126Y-78349719D01*
X158603220Y-78288528D01*
X158698528Y-78193220D01*
X158759719Y-78073126D01*
X158761263Y-78063381D01*
X158777934Y-77958121D01*
X158807863Y-77894986D01*
X158867174Y-77858054D01*
X158937036Y-77859052D01*
X158988088Y-77889837D01*
X159036774Y-77938523D01*
X159036778Y-77938526D01*
X159036780Y-77938528D01*
X159156874Y-77999719D01*
X159156876Y-77999719D01*
X159156878Y-77999720D01*
X159289998Y-78020804D01*
X159290000Y-78020804D01*
X159290002Y-78020804D01*
X159423121Y-77999720D01*
X159423121Y-77999719D01*
X159423126Y-77999719D01*
X159543220Y-77938528D01*
X159638528Y-77843220D01*
X159682746Y-77756436D01*
X159730719Y-77705641D01*
X159793230Y-77688732D01*
X161803795Y-77688732D01*
X161870834Y-77708417D01*
X161916589Y-77761221D01*
X161926533Y-77830379D01*
X161914280Y-77869026D01*
X161910279Y-77876876D01*
X161889196Y-78009997D01*
X161889196Y-78010002D01*
X161910279Y-78143121D01*
X161910280Y-78143124D01*
X161910281Y-78143126D01*
X161971472Y-78263220D01*
X161971473Y-78263221D01*
X161971476Y-78263225D01*
X162066774Y-78358523D01*
X162066778Y-78358526D01*
X162066780Y-78358528D01*
X162186874Y-78419719D01*
X162186876Y-78419719D01*
X162186878Y-78419720D01*
X162319998Y-78440804D01*
X162320000Y-78440804D01*
X162320002Y-78440804D01*
X162453121Y-78419720D01*
X162453121Y-78419719D01*
X162453126Y-78419719D01*
X162573220Y-78358528D01*
X162668528Y-78263220D01*
X162729719Y-78143126D01*
X162732722Y-78124166D01*
X162750804Y-78010002D01*
X162750804Y-78009997D01*
X162729720Y-77876876D01*
X162726922Y-77871385D01*
X162725719Y-77869025D01*
X162712824Y-77800357D01*
X162739101Y-77735617D01*
X162796207Y-77695360D01*
X162836205Y-77688732D01*
X163743184Y-77688732D01*
X163810223Y-77708417D01*
X163830865Y-77725051D01*
X164528853Y-78423040D01*
X164592407Y-78459734D01*
X164592408Y-78459734D01*
X164592413Y-78459737D01*
X164663304Y-78478732D01*
X168675622Y-78478732D01*
X168742661Y-78498417D01*
X168763304Y-78515052D01*
X168796775Y-78548524D01*
X168796778Y-78548526D01*
X168796780Y-78548528D01*
X168916874Y-78609719D01*
X168916876Y-78609719D01*
X168916878Y-78609720D01*
X169049998Y-78630804D01*
X169050000Y-78630804D01*
X169050002Y-78630804D01*
X169183121Y-78609720D01*
X169183121Y-78609719D01*
X169183126Y-78609719D01*
X169303220Y-78548528D01*
X169398528Y-78453220D01*
X169459719Y-78333126D01*
X169459953Y-78331648D01*
X169480804Y-78200002D01*
X169480804Y-78199997D01*
X169459720Y-78066878D01*
X169459719Y-78066876D01*
X169459719Y-78066874D01*
X169398528Y-77946780D01*
X169398526Y-77946778D01*
X169398523Y-77946774D01*
X169303225Y-77851476D01*
X169303221Y-77851473D01*
X169303220Y-77851472D01*
X169183126Y-77790281D01*
X169183124Y-77790280D01*
X169183121Y-77790279D01*
X169050002Y-77769196D01*
X169049998Y-77769196D01*
X168916878Y-77790279D01*
X168796778Y-77851473D01*
X168796775Y-77851475D01*
X168763304Y-77884948D01*
X168701982Y-77918434D01*
X168675622Y-77921268D01*
X164866816Y-77921268D01*
X164799777Y-77901583D01*
X164779135Y-77884949D01*
X164081146Y-77186959D01*
X164017592Y-77150265D01*
X164017589Y-77150264D01*
X164017588Y-77150263D01*
X164017587Y-77150263D01*
X163946696Y-77131268D01*
X163946695Y-77131268D01*
X162831110Y-77131268D01*
X162764071Y-77111583D01*
X162718316Y-77058779D01*
X162708372Y-76989621D01*
X162720625Y-76950974D01*
X162720920Y-76950393D01*
X162729719Y-76933126D01*
X162729719Y-76933124D01*
X162729720Y-76933123D01*
X162750804Y-76800002D01*
X162750804Y-76799997D01*
X162729720Y-76666878D01*
X162729719Y-76666876D01*
X162729719Y-76666874D01*
X162668528Y-76546780D01*
X162668526Y-76546778D01*
X162668523Y-76546774D01*
X162573225Y-76451476D01*
X162573221Y-76451473D01*
X162573220Y-76451472D01*
X162453126Y-76390281D01*
X162453124Y-76390280D01*
X162453121Y-76390279D01*
X162312870Y-76368066D01*
X162249735Y-76338137D01*
X162244587Y-76333274D01*
X161950495Y-76039181D01*
X161917010Y-75977858D01*
X161921994Y-75908166D01*
X161963866Y-75852233D01*
X162029330Y-75827816D01*
X162038176Y-75827500D01*
X165915629Y-75827500D01*
X165982668Y-75847185D01*
X166028423Y-75899989D01*
X166038367Y-75969147D01*
X166023122Y-76006668D01*
X166025903Y-76008085D01*
X166021473Y-76016778D01*
X166021472Y-76016780D01*
X165990853Y-76076874D01*
X165960279Y-76136878D01*
X165939196Y-76269997D01*
X165939196Y-76270002D01*
X165960279Y-76403121D01*
X165960280Y-76403124D01*
X165960281Y-76403126D01*
X166021472Y-76523220D01*
X166021473Y-76523221D01*
X166021476Y-76523225D01*
X166116774Y-76618523D01*
X166116778Y-76618526D01*
X166116780Y-76618528D01*
X166236874Y-76679719D01*
X166236876Y-76679719D01*
X166236878Y-76679720D01*
X166369998Y-76700804D01*
X166370000Y-76700804D01*
X166370002Y-76700804D01*
X166503121Y-76679720D01*
X166503121Y-76679719D01*
X166503126Y-76679719D01*
X166623220Y-76618528D01*
X166718528Y-76523220D01*
X166779719Y-76403126D01*
X166779720Y-76403121D01*
X166800804Y-76270002D01*
X166800804Y-76269997D01*
X166779720Y-76136878D01*
X166779719Y-76136876D01*
X166779719Y-76136874D01*
X166718528Y-76016780D01*
X166718526Y-76016778D01*
X166714097Y-76008085D01*
X166717609Y-76006295D01*
X166700578Y-75958664D01*
X166716357Y-75890599D01*
X166766429Y-75841870D01*
X166824371Y-75827500D01*
X172826000Y-75827500D01*
X172893039Y-75847185D01*
X172938794Y-75899989D01*
X172950000Y-75951500D01*
X172950000Y-80176000D01*
X172930315Y-80243039D01*
X172877511Y-80288794D01*
X172826000Y-80300000D01*
X168231954Y-80300000D01*
X168193244Y-80290709D01*
X168192402Y-80293303D01*
X168183124Y-80290288D01*
X168050002Y-80269204D01*
X168049998Y-80269204D01*
X167916875Y-80290288D01*
X167907598Y-80293303D01*
X167906755Y-80290709D01*
X167868046Y-80300000D01*
X167650000Y-80300000D01*
X167650000Y-80518036D01*
X167640708Y-80556757D01*
X167643297Y-80557598D01*
X167640280Y-80566883D01*
X167619196Y-80700005D01*
X167619196Y-80700010D01*
X167640279Y-80833130D01*
X167643297Y-80842416D01*
X167640701Y-80843259D01*
X167650000Y-80881979D01*
X167650000Y-81800000D01*
X167704101Y-81800000D01*
X167771140Y-81819685D01*
X167816895Y-81872489D01*
X167826839Y-81941647D01*
X167814586Y-81980294D01*
X167760279Y-82086876D01*
X167739196Y-82219997D01*
X167739196Y-82220002D01*
X167760279Y-82353121D01*
X167760280Y-82353124D01*
X167760281Y-82353126D01*
X167821472Y-82473220D01*
X167821473Y-82473221D01*
X167821476Y-82473225D01*
X167916774Y-82568523D01*
X167916778Y-82568526D01*
X167916780Y-82568528D01*
X168036874Y-82629719D01*
X168036876Y-82629719D01*
X168036878Y-82629720D01*
X168169998Y-82650804D01*
X168170000Y-82650804D01*
X168170002Y-82650804D01*
X168303121Y-82629720D01*
X168303121Y-82629719D01*
X168303126Y-82629719D01*
X168423220Y-82568528D01*
X168518528Y-82473220D01*
X168579719Y-82353126D01*
X168582031Y-82338528D01*
X168600804Y-82220002D01*
X168600804Y-82219997D01*
X168579720Y-82086876D01*
X168525414Y-81980294D01*
X168512518Y-81911625D01*
X168538795Y-81846885D01*
X168595901Y-81806628D01*
X168635899Y-81800000D01*
X172826000Y-81800000D01*
X172893039Y-81819685D01*
X172938794Y-81872489D01*
X172950000Y-81924000D01*
X172950000Y-85948500D01*
X172930315Y-86015539D01*
X172877511Y-86061294D01*
X172826000Y-86072500D01*
X154188305Y-86072500D01*
X154121266Y-86052815D01*
X154075511Y-86000011D01*
X154065567Y-85930853D01*
X154076904Y-85894040D01*
X154089978Y-85867297D01*
X154104616Y-85837354D01*
X154115500Y-85762650D01*
X154115500Y-83057350D01*
X154104616Y-82982646D01*
X154091961Y-82956760D01*
X154048284Y-82867416D01*
X154048282Y-82867413D01*
X153957586Y-82776717D01*
X153957583Y-82776715D01*
X153842357Y-82720385D01*
X153842355Y-82720384D01*
X153842354Y-82720384D01*
X153767650Y-82709500D01*
X153767644Y-82709500D01*
X153580700Y-82709500D01*
X153513661Y-82689815D01*
X153467906Y-82637011D01*
X153456700Y-82585500D01*
X153456700Y-82273575D01*
X153456700Y-82273572D01*
X153451891Y-82255624D01*
X153437844Y-82203197D01*
X153437844Y-82203195D01*
X153401418Y-82140107D01*
X153401412Y-82140098D01*
X153269695Y-82008381D01*
X153236210Y-81947058D01*
X153241194Y-81877366D01*
X153283066Y-81821433D01*
X153348530Y-81797016D01*
X153357376Y-81796700D01*
X155394025Y-81796700D01*
X155461064Y-81816385D01*
X155481706Y-81833019D01*
X157214830Y-83566143D01*
X157248315Y-83627466D01*
X157243331Y-83697158D01*
X157201459Y-83753091D01*
X157174603Y-83768385D01*
X157097159Y-83800464D01*
X156971718Y-83896718D01*
X156875463Y-84022160D01*
X156814956Y-84168237D01*
X156814955Y-84168239D01*
X156794318Y-84324998D01*
X156794318Y-84325001D01*
X156814955Y-84481760D01*
X156814956Y-84481762D01*
X156875464Y-84627841D01*
X156971718Y-84753282D01*
X157097159Y-84849536D01*
X157243238Y-84910044D01*
X157265570Y-84912984D01*
X157399999Y-84930682D01*
X157400000Y-84930682D01*
X157400001Y-84930682D01*
X157452254Y-84923802D01*
X157556762Y-84910044D01*
X157702841Y-84849536D01*
X157828282Y-84753282D01*
X157924536Y-84627841D01*
X157956614Y-84550398D01*
X158000455Y-84495994D01*
X158066749Y-84473929D01*
X158134448Y-84491208D01*
X158158856Y-84510169D01*
X158692225Y-85043538D01*
X158725710Y-85104861D01*
X158727017Y-85150617D01*
X158719196Y-85199997D01*
X158719196Y-85200002D01*
X158740279Y-85333121D01*
X158740280Y-85333124D01*
X158740281Y-85333126D01*
X158801472Y-85453220D01*
X158801473Y-85453221D01*
X158801476Y-85453225D01*
X158896774Y-85548523D01*
X158896778Y-85548526D01*
X158896780Y-85548528D01*
X159016874Y-85609719D01*
X159016876Y-85609719D01*
X159016878Y-85609720D01*
X159149998Y-85630804D01*
X159150000Y-85630804D01*
X159150002Y-85630804D01*
X159283121Y-85609720D01*
X159283121Y-85609719D01*
X159283126Y-85609719D01*
X159403220Y-85548528D01*
X159498528Y-85453220D01*
X159559719Y-85333126D01*
X159573681Y-85244974D01*
X159580804Y-85200002D01*
X159580804Y-85199997D01*
X159559720Y-85066878D01*
X159559719Y-85066876D01*
X159559719Y-85066874D01*
X159498528Y-84946780D01*
X159498526Y-84946778D01*
X159498523Y-84946774D01*
X159403225Y-84851476D01*
X159403222Y-84851474D01*
X159403220Y-84851472D01*
X159320249Y-84809196D01*
X159283123Y-84790279D01*
X159249807Y-84785003D01*
X159186672Y-84755074D01*
X159181524Y-84750211D01*
X159123562Y-84692249D01*
X159090077Y-84630926D01*
X159095061Y-84561234D01*
X159136933Y-84505301D01*
X159191846Y-84482094D01*
X159199995Y-84480803D01*
X159200000Y-84480804D01*
X159333126Y-84459719D01*
X159453220Y-84398528D01*
X159548528Y-84303220D01*
X159609719Y-84183126D01*
X159609720Y-84183121D01*
X159630804Y-84050002D01*
X159630804Y-84049997D01*
X159609720Y-83916878D01*
X159609719Y-83916876D01*
X159609719Y-83916874D01*
X159548528Y-83796780D01*
X159548526Y-83796778D01*
X159548523Y-83796774D01*
X159453225Y-83701476D01*
X159453221Y-83701473D01*
X159453220Y-83701472D01*
X159333126Y-83640281D01*
X159333124Y-83640280D01*
X159333121Y-83640279D01*
X159192870Y-83618066D01*
X159129735Y-83588137D01*
X159124587Y-83583274D01*
X156581311Y-81039997D01*
X158499196Y-81039997D01*
X158499196Y-81040002D01*
X158520279Y-81173121D01*
X158520280Y-81173124D01*
X158520281Y-81173126D01*
X158580707Y-81291718D01*
X158581473Y-81293221D01*
X158581476Y-81293225D01*
X158676774Y-81388523D01*
X158676778Y-81388526D01*
X158676780Y-81388528D01*
X158796874Y-81449719D01*
X158796876Y-81449719D01*
X158796878Y-81449720D01*
X158929998Y-81470804D01*
X158930000Y-81470804D01*
X158930002Y-81470804D01*
X159063121Y-81449720D01*
X159063121Y-81449719D01*
X159063126Y-81449719D01*
X159183220Y-81388528D01*
X159278528Y-81293220D01*
X159339719Y-81173126D01*
X159340086Y-81170811D01*
X159360804Y-81040002D01*
X159360804Y-81039997D01*
X159339720Y-80906878D01*
X159339719Y-80906876D01*
X159339719Y-80906874D01*
X159278528Y-80786780D01*
X159278526Y-80786778D01*
X159278523Y-80786774D01*
X159183225Y-80691476D01*
X159183221Y-80691473D01*
X159183220Y-80691472D01*
X159063126Y-80630281D01*
X159063124Y-80630280D01*
X159063121Y-80630279D01*
X158930002Y-80609196D01*
X158929998Y-80609196D01*
X158796878Y-80630279D01*
X158676778Y-80691473D01*
X158676774Y-80691476D01*
X158581476Y-80786774D01*
X158581473Y-80786778D01*
X158520279Y-80906878D01*
X158499196Y-81039997D01*
X156581311Y-81039997D01*
X155958501Y-80417187D01*
X155958492Y-80417181D01*
X155895404Y-80380755D01*
X155825033Y-80361900D01*
X155825028Y-80361900D01*
X153428776Y-80361900D01*
X153361737Y-80342215D01*
X153315982Y-80289411D01*
X153306038Y-80220253D01*
X153335063Y-80156697D01*
X153341095Y-80150219D01*
X153721412Y-79769901D01*
X153721415Y-79769898D01*
X153740420Y-79736981D01*
X153757844Y-79706804D01*
X153757844Y-79706803D01*
X153776699Y-79636433D01*
X153776700Y-79636427D01*
X153776700Y-79424500D01*
X153796385Y-79357461D01*
X153849189Y-79311706D01*
X153900700Y-79300500D01*
X153977644Y-79300500D01*
X153977650Y-79300500D01*
X154052354Y-79289616D01*
X154125995Y-79253615D01*
X154167583Y-79233284D01*
X154167586Y-79233282D01*
X154258282Y-79142586D01*
X154258284Y-79142583D01*
X154292616Y-79072355D01*
X154314616Y-79027354D01*
X154325500Y-78952650D01*
X154325500Y-76247350D01*
X154314616Y-76172646D01*
X154306742Y-76156540D01*
X154258284Y-76057416D01*
X154258282Y-76057413D01*
X154240050Y-76039181D01*
X154206565Y-75977858D01*
X154211549Y-75908166D01*
X154253421Y-75852233D01*
X154318885Y-75827816D01*
X154327731Y-75827500D01*
X155172269Y-75827500D01*
X155239308Y-75847185D01*
G37*
%TD.AperFunction*%
%TA.AperFunction,Conductor*%
G36*
X155689664Y-80934985D02*
G01*
X155710306Y-80951619D01*
X155838466Y-81079779D01*
X155871951Y-81141102D01*
X155866967Y-81210794D01*
X155825095Y-81266727D01*
X155759631Y-81291144D01*
X155691358Y-81276292D01*
X155688784Y-81274847D01*
X155666801Y-81262154D01*
X155596433Y-81243300D01*
X155596428Y-81243300D01*
X148190897Y-81243300D01*
X148123858Y-81223615D01*
X148078103Y-81170811D01*
X148068159Y-81101653D01*
X148068423Y-81099904D01*
X148071610Y-81079779D01*
X148073666Y-81066800D01*
X148072383Y-81058699D01*
X148081337Y-80989405D01*
X148126333Y-80935953D01*
X148193085Y-80915313D01*
X148194856Y-80915300D01*
X155622625Y-80915300D01*
X155689664Y-80934985D01*
G37*
%TD.AperFunction*%
%TA.AperFunction,Conductor*%
G36*
X150239308Y-75847185D02*
G01*
X150285063Y-75899989D01*
X150295007Y-75969147D01*
X150265982Y-76032703D01*
X150259950Y-76039181D01*
X150241717Y-76057413D01*
X150241715Y-76057416D01*
X150185385Y-76172642D01*
X150185384Y-76172644D01*
X150185384Y-76172646D01*
X150174500Y-76247350D01*
X150174500Y-78952650D01*
X150185384Y-79027354D01*
X150185384Y-79027355D01*
X150185385Y-79027357D01*
X150241715Y-79142583D01*
X150241717Y-79142586D01*
X150332412Y-79233281D01*
X150332413Y-79233281D01*
X150332414Y-79233282D01*
X150374005Y-79253615D01*
X150383996Y-79258499D01*
X150435579Y-79305627D01*
X150453493Y-79373161D01*
X150432052Y-79439660D01*
X150378063Y-79484010D01*
X150329536Y-79493900D01*
X148034907Y-79493900D01*
X147967868Y-79474215D01*
X147947226Y-79457581D01*
X144627258Y-76137613D01*
X144595163Y-76082022D01*
X144588786Y-76058220D01*
X144588786Y-76058219D01*
X144588327Y-76056510D01*
X144587244Y-76052466D01*
X144579230Y-76038585D01*
X144564747Y-76013500D01*
X144548274Y-75945600D01*
X144571126Y-75879573D01*
X144626048Y-75836382D01*
X144672134Y-75827500D01*
X150172269Y-75827500D01*
X150239308Y-75847185D01*
G37*
%TD.AperFunction*%
%TA.AperFunction,Conductor*%
G36*
X110673659Y-75847185D02*
G01*
X110719414Y-75899989D01*
X110730620Y-75951500D01*
X110730620Y-76534629D01*
X111544471Y-76534629D01*
X111544471Y-75951500D01*
X111564156Y-75884461D01*
X111616960Y-75838706D01*
X111668471Y-75827500D01*
X114661824Y-75827500D01*
X114728863Y-75847185D01*
X114774618Y-75899989D01*
X114784562Y-75969147D01*
X114755537Y-76032703D01*
X114749505Y-76039181D01*
X114338587Y-76450098D01*
X114338583Y-76450104D01*
X114311021Y-76497843D01*
X114302156Y-76513197D01*
X114290152Y-76557998D01*
X114290011Y-76558526D01*
X114283300Y-76583569D01*
X114283300Y-78664025D01*
X114263615Y-78731064D01*
X114246981Y-78751706D01*
X113761706Y-79236981D01*
X113700383Y-79270466D01*
X113674025Y-79273300D01*
X110074500Y-79273300D01*
X110007461Y-79253615D01*
X109961706Y-79200811D01*
X109950500Y-79149300D01*
X109950500Y-79072355D01*
X109950500Y-79072350D01*
X109939616Y-78997646D01*
X109932045Y-78982160D01*
X109906038Y-78928961D01*
X109894278Y-78860088D01*
X109921621Y-78795790D01*
X109979386Y-78756483D01*
X110017438Y-78750500D01*
X110960177Y-78750500D01*
X111007629Y-78759938D01*
X111068238Y-78785044D01*
X111125890Y-78792634D01*
X111224999Y-78805682D01*
X111225000Y-78805682D01*
X111225001Y-78805682D01*
X111291144Y-78796974D01*
X111381762Y-78785044D01*
X111527841Y-78724536D01*
X111653282Y-78628282D01*
X111749536Y-78502841D01*
X111810044Y-78356762D01*
X111830682Y-78200000D01*
X111830257Y-78196774D01*
X111811843Y-78056903D01*
X111810044Y-78043238D01*
X111749536Y-77897159D01*
X111653282Y-77771718D01*
X111527841Y-77675464D01*
X111519345Y-77671945D01*
X111381762Y-77614956D01*
X111381760Y-77614955D01*
X111225001Y-77594318D01*
X111224999Y-77594318D01*
X111068239Y-77614955D01*
X111068237Y-77614956D01*
X111007630Y-77640061D01*
X110960177Y-77649500D01*
X110074500Y-77649500D01*
X110007461Y-77629815D01*
X109961706Y-77577011D01*
X109950500Y-77525500D01*
X109950500Y-77410301D01*
X112380000Y-77410301D01*
X112380000Y-77509699D01*
X112405726Y-77605709D01*
X112455425Y-77691790D01*
X112525710Y-77762075D01*
X112611791Y-77811774D01*
X112707801Y-77837500D01*
X112707804Y-77837500D01*
X112807196Y-77837500D01*
X112807199Y-77837500D01*
X112903209Y-77811774D01*
X112989290Y-77762075D01*
X113059575Y-77691790D01*
X113109274Y-77605709D01*
X113135000Y-77509699D01*
X113135000Y-77410301D01*
X113109274Y-77314291D01*
X113059575Y-77228210D01*
X112989290Y-77157925D01*
X112903209Y-77108226D01*
X112807199Y-77082500D01*
X112707801Y-77082500D01*
X112611791Y-77108226D01*
X112611789Y-77108226D01*
X112611789Y-77108227D01*
X112525710Y-77157925D01*
X112525707Y-77157927D01*
X112455427Y-77228207D01*
X112455425Y-77228210D01*
X112405726Y-77314291D01*
X112380000Y-77410301D01*
X109950500Y-77410301D01*
X109950500Y-76572355D01*
X109950500Y-76572350D01*
X109939616Y-76497646D01*
X109923243Y-76464154D01*
X109883284Y-76382416D01*
X109883282Y-76382413D01*
X109792586Y-76291717D01*
X109792583Y-76291715D01*
X109677357Y-76235385D01*
X109677355Y-76235384D01*
X109677354Y-76235384D01*
X109602650Y-76224500D01*
X106897350Y-76224500D01*
X106822646Y-76235384D01*
X106822644Y-76235384D01*
X106822642Y-76235385D01*
X106707416Y-76291715D01*
X106707413Y-76291717D01*
X106616717Y-76382413D01*
X106616717Y-76382414D01*
X106612900Y-76390222D01*
X106565772Y-76441804D01*
X106498238Y-76459718D01*
X106431739Y-76438277D01*
X106387389Y-76384287D01*
X106377500Y-76335761D01*
X106377500Y-75951500D01*
X106397185Y-75884461D01*
X106449989Y-75838706D01*
X106501500Y-75827500D01*
X110606620Y-75827500D01*
X110673659Y-75847185D01*
G37*
%TD.AperFunction*%
%TA.AperFunction,Conductor*%
G36*
X130866062Y-75847185D02*
G01*
X130911817Y-75899989D01*
X130921761Y-75969147D01*
X130892736Y-76032703D01*
X130886704Y-76039181D01*
X130848077Y-76077807D01*
X130848074Y-76077811D01*
X130848073Y-76077813D01*
X130790225Y-76191347D01*
X130786880Y-76197911D01*
X130765797Y-76331030D01*
X130765797Y-76331035D01*
X130786880Y-76464154D01*
X130786881Y-76464157D01*
X130786882Y-76464159D01*
X130847733Y-76583585D01*
X130848074Y-76584254D01*
X130848077Y-76584258D01*
X130943375Y-76679556D01*
X130943378Y-76679558D01*
X130943381Y-76679561D01*
X131017358Y-76717254D01*
X131048744Y-76740057D01*
X131949706Y-77641019D01*
X131983191Y-77702342D01*
X131978207Y-77772034D01*
X131936335Y-77827967D01*
X131870871Y-77852384D01*
X131862025Y-77852700D01*
X131334166Y-77852700D01*
X131263796Y-77871555D01*
X131263795Y-77871555D01*
X131200707Y-77907981D01*
X131200698Y-77907987D01*
X130621706Y-78486981D01*
X130560383Y-78520466D01*
X130534025Y-78523300D01*
X130346348Y-78523300D01*
X130279309Y-78503615D01*
X130233554Y-78450811D01*
X130223610Y-78381653D01*
X130235861Y-78343010D01*
X130279537Y-78257292D01*
X130279538Y-78257287D01*
X130300622Y-78124168D01*
X130300622Y-78124163D01*
X130279538Y-77991044D01*
X130279537Y-77991042D01*
X130279537Y-77991040D01*
X130218346Y-77870946D01*
X130218344Y-77870944D01*
X130218341Y-77870940D01*
X130123043Y-77775642D01*
X130123039Y-77775639D01*
X130123038Y-77775638D01*
X130002944Y-77714447D01*
X130002942Y-77714446D01*
X130002939Y-77714445D01*
X129862688Y-77692232D01*
X129799553Y-77662303D01*
X129794405Y-77657440D01*
X129369030Y-77232064D01*
X129335545Y-77170741D01*
X129340529Y-77101049D01*
X129382401Y-77045116D01*
X129447865Y-77020699D01*
X129513002Y-77033897D01*
X129614993Y-77085864D01*
X129614995Y-77085864D01*
X129614997Y-77085865D01*
X129748117Y-77106949D01*
X129748119Y-77106949D01*
X129748121Y-77106949D01*
X129881240Y-77085865D01*
X129881240Y-77085864D01*
X129881245Y-77085864D01*
X130001339Y-77024673D01*
X130096647Y-76929365D01*
X130157838Y-76809271D01*
X130159306Y-76800002D01*
X130178923Y-76676147D01*
X130178923Y-76676142D01*
X130157839Y-76543023D01*
X130157838Y-76543021D01*
X130157838Y-76543019D01*
X130096647Y-76422925D01*
X130096645Y-76422923D01*
X130096642Y-76422919D01*
X130001344Y-76327621D01*
X130001340Y-76327618D01*
X130001339Y-76327617D01*
X129881245Y-76266426D01*
X129881243Y-76266425D01*
X129881240Y-76266424D01*
X129748121Y-76245341D01*
X129748117Y-76245341D01*
X129614997Y-76266424D01*
X129494897Y-76327618D01*
X129494893Y-76327621D01*
X129478358Y-76344157D01*
X129417035Y-76377642D01*
X129390677Y-76380476D01*
X119638084Y-76380476D01*
X119571045Y-76360791D01*
X119525290Y-76307987D01*
X119515346Y-76238829D01*
X119515611Y-76237079D01*
X119522853Y-76191353D01*
X119522853Y-76191347D01*
X119501769Y-76058228D01*
X119501768Y-76058226D01*
X119501768Y-76058224D01*
X119476071Y-76007791D01*
X119463176Y-75939126D01*
X119489452Y-75874386D01*
X119546558Y-75834128D01*
X119586557Y-75827500D01*
X130799023Y-75827500D01*
X130866062Y-75847185D01*
G37*
%TD.AperFunction*%
%TA.AperFunction,Conductor*%
G36*
X117701064Y-76796385D02*
G01*
X117721706Y-76813019D01*
X118220306Y-77311619D01*
X118253791Y-77372942D01*
X118248807Y-77442634D01*
X118206935Y-77498567D01*
X118141471Y-77522984D01*
X118132625Y-77523300D01*
X117092197Y-77523300D01*
X117025158Y-77503615D01*
X116979403Y-77450811D01*
X116968197Y-77399300D01*
X116968197Y-77304610D01*
X116987882Y-77237571D01*
X117004517Y-77216928D01*
X117040021Y-77181424D01*
X117040025Y-77181420D01*
X117101216Y-77061326D01*
X117101217Y-77061321D01*
X117122301Y-76928202D01*
X117122301Y-76928199D01*
X117121018Y-76920099D01*
X117129972Y-76850805D01*
X117174968Y-76797353D01*
X117241720Y-76776713D01*
X117243491Y-76776700D01*
X117634025Y-76776700D01*
X117701064Y-76796385D01*
G37*
%TD.AperFunction*%
%TA.AperFunction,Conductor*%
G36*
X136207860Y-75847185D02*
G01*
X136253615Y-75899989D01*
X136263559Y-75969147D01*
X136234534Y-76032703D01*
X136228502Y-76039181D01*
X136205492Y-76062190D01*
X136205489Y-76062194D01*
X136205488Y-76062196D01*
X136152266Y-76166651D01*
X136144295Y-76182294D01*
X136123212Y-76315413D01*
X136123212Y-76315418D01*
X136144295Y-76448537D01*
X136144296Y-76448540D01*
X136144297Y-76448542D01*
X136200337Y-76558526D01*
X136205489Y-76568637D01*
X136205492Y-76568641D01*
X136284322Y-76647471D01*
X136317807Y-76708794D01*
X136312823Y-76778486D01*
X136284324Y-76822831D01*
X136124573Y-76982582D01*
X136063252Y-77016066D01*
X136036894Y-77018900D01*
X133011575Y-77018900D01*
X132944536Y-76999215D01*
X132923894Y-76982581D01*
X132793798Y-76852485D01*
X132760313Y-76791162D01*
X132765297Y-76721470D01*
X132807169Y-76665537D01*
X132872633Y-76641120D01*
X132881479Y-76640804D01*
X132890002Y-76640804D01*
X133023121Y-76619720D01*
X133023121Y-76619719D01*
X133023126Y-76619719D01*
X133143220Y-76558528D01*
X133238528Y-76463220D01*
X133299719Y-76343126D01*
X133300509Y-76338137D01*
X133320804Y-76210002D01*
X133320804Y-76209997D01*
X133299720Y-76076876D01*
X133264521Y-76007794D01*
X133251625Y-75939125D01*
X133277902Y-75874385D01*
X133335008Y-75834128D01*
X133375006Y-75827500D01*
X136140821Y-75827500D01*
X136207860Y-75847185D01*
G37*
%TD.AperFunction*%
%TD*%
M02*
