%TF.GenerationSoftware,KiCad,Pcbnew,8.0.4*%
%TF.CreationDate,2024-09-10T00:37:33+02:00*%
%TF.ProjectId,ESP32_PICO_LED,45535033-325f-4504-9943-4f5f4c45442e,rev?*%
%TF.SameCoordinates,Original*%
%TF.FileFunction,Copper,L3,Inr*%
%TF.FilePolarity,Positive*%
%FSLAX46Y46*%
G04 Gerber Fmt 4.6, Leading zero omitted, Abs format (unit mm)*
G04 Created by KiCad (PCBNEW 8.0.4) date 2024-09-10 00:37:33*
%MOMM*%
%LPD*%
G01*
G04 APERTURE LIST*
%ADD10C,0.090000*%
%TA.AperFunction,NonConductor*%
%ADD11C,0.090000*%
%TD*%
%TA.AperFunction,ComponentPad*%
%ADD12C,0.500000*%
%TD*%
%TA.AperFunction,ViaPad*%
%ADD13C,0.450000*%
%TD*%
%TA.AperFunction,ViaPad*%
%ADD14C,0.800000*%
%TD*%
%TA.AperFunction,Conductor*%
%ADD15C,0.700000*%
%TD*%
%TA.AperFunction,Conductor*%
%ADD16C,0.500000*%
%TD*%
G04 APERTURE END LIST*
D10*
D11*
X110980638Y-75794129D02*
X111290162Y-75794129D01*
X111290162Y-75794129D02*
X111123495Y-75984605D01*
X111123495Y-75984605D02*
X111194924Y-75984605D01*
X111194924Y-75984605D02*
X111242543Y-76008415D01*
X111242543Y-76008415D02*
X111266352Y-76032224D01*
X111266352Y-76032224D02*
X111290162Y-76079843D01*
X111290162Y-76079843D02*
X111290162Y-76198891D01*
X111290162Y-76198891D02*
X111266352Y-76246510D01*
X111266352Y-76246510D02*
X111242543Y-76270320D01*
X111242543Y-76270320D02*
X111194924Y-76294129D01*
X111194924Y-76294129D02*
X111052067Y-76294129D01*
X111052067Y-76294129D02*
X111004448Y-76270320D01*
X111004448Y-76270320D02*
X110980638Y-76246510D01*
D12*
%TO.N,GND*%
%TO.C,U5*%
X166300000Y-79750000D03*
X165600000Y-80450000D03*
X165600000Y-79050000D03*
X164900000Y-79750000D03*
%TD*%
D13*
%TO.N,GND*%
X138280000Y-79650000D03*
X158710000Y-79950000D03*
X120400000Y-82300000D03*
X154720000Y-81070000D03*
X145600000Y-76175000D03*
X131240000Y-85560000D03*
X134040000Y-82030000D03*
X172650000Y-79310000D03*
X172190000Y-82030000D03*
X171620000Y-82030000D03*
X170520000Y-85560000D03*
X110123320Y-76354946D03*
X113150000Y-84550000D03*
X171770000Y-79990000D03*
X171170000Y-80010000D03*
X138420000Y-84840000D03*
X170390000Y-79980000D03*
X125180000Y-80970000D03*
X140280000Y-81000000D03*
X117404732Y-78833694D03*
X154760000Y-78540000D03*
X172750000Y-82050000D03*
X168250000Y-77100000D03*
X126990000Y-76180000D03*
X126160000Y-84130000D03*
X146700000Y-76325000D03*
X172650000Y-78560000D03*
X165550000Y-85848000D03*
X119400000Y-78950000D03*
X170840000Y-82380000D03*
X129450000Y-76052000D03*
X172000000Y-83420000D03*
X117493254Y-77350000D03*
X134410000Y-76570000D03*
%TO.N,+3.3V*%
X133350000Y-85600000D03*
X166370000Y-76270000D03*
X162320000Y-78010000D03*
X168050000Y-80700008D03*
X136554016Y-76315416D03*
X115450000Y-78400000D03*
X171110000Y-79000000D03*
X129000000Y-85240000D03*
X168170000Y-82220000D03*
X158930000Y-81040000D03*
X133780000Y-81300000D03*
D14*
X144350000Y-79350000D03*
D13*
X132890000Y-76210000D03*
X158350000Y-77940000D03*
X119092049Y-76191350D03*
D14*
X144450000Y-80250000D03*
X144375007Y-81266134D03*
D13*
X127186992Y-80346992D03*
X127230000Y-78680000D03*
X147642862Y-81066800D03*
X161080000Y-76900000D03*
D14*
%TO.N,+5V*%
X113249964Y-82800000D03*
D13*
X147775000Y-84524996D03*
D14*
X141975742Y-79337407D03*
X157400000Y-84325000D03*
X156000000Y-77600000D03*
X111225000Y-78200000D03*
D13*
X148425000Y-84600000D03*
%TO.N,MIC_PDM_DATA*%
X133132462Y-78947394D03*
X115508609Y-76928114D03*
%TO.N,SWCLK*%
X134038827Y-79930196D03*
%TO.N,SWDIO*%
X133914296Y-79366212D03*
%TO.N,/esp32_wifi_section/IO9*%
X157390000Y-76210000D03*
X162320000Y-76800000D03*
%TO.N,MIC_PDM_CLK*%
X132850002Y-78415000D03*
X116691497Y-76928200D03*
%TO.N,BUTTON*%
X118890740Y-81629313D03*
X132000000Y-78947998D03*
%TO.N,QSPI_SD0*%
X123150000Y-79200000D03*
X123190000Y-82258928D03*
%TO.N,QSPI_SD3*%
X121340000Y-81760000D03*
X121340000Y-79100000D03*
%TO.N,Net-(U3-VREG_VOUT)*%
X129325000Y-80905000D03*
X134060450Y-80580306D03*
%TO.N,QSPI_CLK*%
X122290000Y-79140000D03*
X122430000Y-81990000D03*
%TO.N,/UART1_RX*%
X133860743Y-83414319D03*
X159150000Y-85200000D03*
%TO.N,Net-(U5-CHIP_EN)*%
X159290000Y-77590000D03*
X169050000Y-78200000D03*
%TO.N,Net-(U3-RUN)*%
X124150000Y-80800000D03*
X134050000Y-78450000D03*
%TO.N,/UART1_TX*%
X159200000Y-84050000D03*
X133350000Y-83071800D03*
%TO.N,LED_1_C*%
X129869818Y-78124166D03*
%TO.N,LED_1_D*%
X129748119Y-76676145D03*
%TO.N,LED_2_C*%
X132000000Y-76300000D03*
%TO.N,LED_2_D*%
X131196601Y-76331033D03*
%TO.N,LED_4_C*%
X134980000Y-85841402D03*
%TO.N,LED_4_D*%
X135060000Y-85200000D03*
%TO.N,LED_3_D*%
X129725002Y-85334998D03*
%TO.N,LED_3_C*%
X129241800Y-83433837D03*
%TD*%
D15*
%TO.N,+5V*%
X149325000Y-78045000D02*
X142865000Y-78045000D01*
D16*
X141975742Y-79337407D02*
X141982593Y-79337407D01*
D15*
X149770000Y-77600000D02*
X149325000Y-78045000D01*
X148700000Y-84325000D02*
X148425000Y-84600000D01*
X141975742Y-78934258D02*
X141975742Y-79337407D01*
X141975742Y-83035742D02*
X143464996Y-84524996D01*
X143464996Y-84524996D02*
X147775000Y-84524996D01*
X111900000Y-78200000D02*
X111225000Y-78200000D01*
X142865000Y-78045000D02*
X141975742Y-78934258D01*
X113249964Y-79549964D02*
X111900000Y-78200000D01*
X141975742Y-79337407D02*
X141975742Y-83035742D01*
X156000000Y-77600000D02*
X149770000Y-77600000D01*
X157400000Y-84325000D02*
X148700000Y-84325000D01*
X147775000Y-84524996D02*
X147850004Y-84600000D01*
X147850004Y-84600000D02*
X148425000Y-84600000D01*
X113249964Y-82800000D02*
X113249964Y-79549964D01*
%TD*%
%TA.AperFunction,Conductor*%
%TO.N,GND*%
G36*
X110673177Y-75847185D02*
G01*
X110718932Y-75899989D01*
X110730138Y-75951500D01*
X110730138Y-76547957D01*
X111543990Y-76547957D01*
X111543990Y-75951500D01*
X111563675Y-75884461D01*
X111616479Y-75838706D01*
X111667990Y-75827500D01*
X118597541Y-75827500D01*
X118664580Y-75847185D01*
X118710335Y-75899989D01*
X118720279Y-75969147D01*
X118708027Y-76007789D01*
X118695334Y-76032703D01*
X118682328Y-76058228D01*
X118661245Y-76191347D01*
X118661245Y-76191352D01*
X118682328Y-76324471D01*
X118682329Y-76324474D01*
X118682330Y-76324476D01*
X118737690Y-76433126D01*
X118743522Y-76444571D01*
X118743525Y-76444575D01*
X118838823Y-76539873D01*
X118838827Y-76539876D01*
X118838829Y-76539878D01*
X118958923Y-76601069D01*
X118958925Y-76601069D01*
X118958927Y-76601070D01*
X119092047Y-76622154D01*
X119092049Y-76622154D01*
X119092051Y-76622154D01*
X119225170Y-76601070D01*
X119225170Y-76601069D01*
X119225175Y-76601069D01*
X119345269Y-76539878D01*
X119440577Y-76444570D01*
X119501768Y-76324476D01*
X119503203Y-76315416D01*
X119522853Y-76191352D01*
X119522853Y-76191347D01*
X119501769Y-76058228D01*
X119501768Y-76058226D01*
X119501768Y-76058224D01*
X119476071Y-76007791D01*
X119463176Y-75939126D01*
X119489452Y-75874386D01*
X119546558Y-75834128D01*
X119586557Y-75827500D01*
X130799023Y-75827500D01*
X130866062Y-75847185D01*
X130911817Y-75899989D01*
X130921761Y-75969147D01*
X130892736Y-76032703D01*
X130886704Y-76039181D01*
X130848077Y-76077807D01*
X130848074Y-76077811D01*
X130848073Y-76077813D01*
X130790225Y-76191347D01*
X130786880Y-76197911D01*
X130765797Y-76331030D01*
X130765797Y-76331035D01*
X130786880Y-76464154D01*
X130786881Y-76464157D01*
X130786882Y-76464159D01*
X130845741Y-76579676D01*
X130848074Y-76584254D01*
X130848077Y-76584258D01*
X130943375Y-76679556D01*
X130943379Y-76679559D01*
X130943381Y-76679561D01*
X131063475Y-76740752D01*
X131063477Y-76740752D01*
X131063479Y-76740753D01*
X131196599Y-76761837D01*
X131196601Y-76761837D01*
X131196603Y-76761837D01*
X131329722Y-76740753D01*
X131329722Y-76740752D01*
X131329727Y-76740752D01*
X131449821Y-76679561D01*
X131526136Y-76603245D01*
X131587456Y-76569761D01*
X131657148Y-76574745D01*
X131701497Y-76603246D01*
X131746774Y-76648523D01*
X131746778Y-76648526D01*
X131746780Y-76648528D01*
X131866874Y-76709719D01*
X131866876Y-76709719D01*
X131866878Y-76709720D01*
X131999998Y-76730804D01*
X132000000Y-76730804D01*
X132000002Y-76730804D01*
X132133121Y-76709720D01*
X132133121Y-76709719D01*
X132133126Y-76709719D01*
X132253220Y-76648528D01*
X132348528Y-76553220D01*
X132366549Y-76517850D01*
X132414523Y-76467054D01*
X132482344Y-76450259D01*
X132548479Y-76472796D01*
X132564715Y-76486464D01*
X132636774Y-76558523D01*
X132636778Y-76558526D01*
X132636780Y-76558528D01*
X132756874Y-76619719D01*
X132756876Y-76619719D01*
X132756878Y-76619720D01*
X132889998Y-76640804D01*
X132890000Y-76640804D01*
X132890002Y-76640804D01*
X133023121Y-76619720D01*
X133023121Y-76619719D01*
X133023126Y-76619719D01*
X133143220Y-76558528D01*
X133238528Y-76463220D01*
X133299719Y-76343126D01*
X133301634Y-76331035D01*
X133320804Y-76210002D01*
X133320804Y-76209997D01*
X133299720Y-76076876D01*
X133264521Y-76007794D01*
X133251625Y-75939125D01*
X133277902Y-75874385D01*
X133335008Y-75834128D01*
X133375006Y-75827500D01*
X136140821Y-75827500D01*
X136207860Y-75847185D01*
X136253615Y-75899989D01*
X136263559Y-75969147D01*
X136234534Y-76032703D01*
X136228502Y-76039181D01*
X136205492Y-76062190D01*
X136205489Y-76062194D01*
X136205488Y-76062196D01*
X136152266Y-76166651D01*
X136144295Y-76182294D01*
X136123212Y-76315413D01*
X136123212Y-76315418D01*
X136144295Y-76448537D01*
X136144296Y-76448540D01*
X136144297Y-76448542D01*
X136200337Y-76558526D01*
X136205489Y-76568637D01*
X136205492Y-76568641D01*
X136300790Y-76663939D01*
X136300794Y-76663942D01*
X136300796Y-76663944D01*
X136420890Y-76725135D01*
X136420892Y-76725135D01*
X136420894Y-76725136D01*
X136554014Y-76746220D01*
X136554016Y-76746220D01*
X136554018Y-76746220D01*
X136687137Y-76725136D01*
X136687137Y-76725135D01*
X136687142Y-76725135D01*
X136807236Y-76663944D01*
X136902544Y-76568636D01*
X136963735Y-76448542D01*
X136963736Y-76448537D01*
X136984820Y-76315418D01*
X136984820Y-76315413D01*
X136963736Y-76182294D01*
X136963735Y-76182292D01*
X136963735Y-76182290D01*
X136902544Y-76062196D01*
X136902542Y-76062194D01*
X136902539Y-76062190D01*
X136879530Y-76039181D01*
X136846045Y-75977858D01*
X136851029Y-75908166D01*
X136892901Y-75852233D01*
X136958365Y-75827816D01*
X136967211Y-75827500D01*
X156904994Y-75827500D01*
X156972033Y-75847185D01*
X157017788Y-75899989D01*
X157027732Y-75969147D01*
X157015479Y-76007794D01*
X156980279Y-76076876D01*
X156959196Y-76209997D01*
X156959196Y-76210002D01*
X156980279Y-76343121D01*
X156980280Y-76343124D01*
X156980281Y-76343126D01*
X157041472Y-76463220D01*
X157041473Y-76463221D01*
X157041476Y-76463225D01*
X157136774Y-76558523D01*
X157136778Y-76558526D01*
X157136780Y-76558528D01*
X157256874Y-76619719D01*
X157256876Y-76619719D01*
X157256878Y-76619720D01*
X157389998Y-76640804D01*
X157390000Y-76640804D01*
X157390002Y-76640804D01*
X157523121Y-76619720D01*
X157523121Y-76619719D01*
X157523126Y-76619719D01*
X157643220Y-76558528D01*
X157738528Y-76463220D01*
X157799719Y-76343126D01*
X157801634Y-76331035D01*
X157820804Y-76210002D01*
X157820804Y-76209997D01*
X157799720Y-76076876D01*
X157764521Y-76007794D01*
X157751625Y-75939125D01*
X157777902Y-75874385D01*
X157835008Y-75834128D01*
X157875006Y-75827500D01*
X165915629Y-75827500D01*
X165982668Y-75847185D01*
X166028423Y-75899989D01*
X166038367Y-75969147D01*
X166023122Y-76006668D01*
X166025903Y-76008085D01*
X166021473Y-76016778D01*
X166021472Y-76016780D01*
X165990853Y-76076874D01*
X165960279Y-76136878D01*
X165939196Y-76269997D01*
X165939196Y-76270002D01*
X165960279Y-76403121D01*
X165960280Y-76403124D01*
X165960281Y-76403126D01*
X166021472Y-76523220D01*
X166021473Y-76523221D01*
X166021476Y-76523225D01*
X166116774Y-76618523D01*
X166116778Y-76618526D01*
X166116780Y-76618528D01*
X166236874Y-76679719D01*
X166236876Y-76679719D01*
X166236878Y-76679720D01*
X166369998Y-76700804D01*
X166370000Y-76700804D01*
X166370002Y-76700804D01*
X166503121Y-76679720D01*
X166503121Y-76679719D01*
X166503126Y-76679719D01*
X166623220Y-76618528D01*
X166718528Y-76523220D01*
X166779719Y-76403126D01*
X166779720Y-76403121D01*
X166800804Y-76270002D01*
X166800804Y-76269997D01*
X166779720Y-76136878D01*
X166779719Y-76136876D01*
X166779719Y-76136874D01*
X166718528Y-76016780D01*
X166718526Y-76016778D01*
X166714097Y-76008085D01*
X166717609Y-76006295D01*
X166700578Y-75958664D01*
X166716357Y-75890599D01*
X166766429Y-75841870D01*
X166824371Y-75827500D01*
X172826000Y-75827500D01*
X172893039Y-75847185D01*
X172938794Y-75899989D01*
X172950000Y-75951500D01*
X172950000Y-80176000D01*
X172930315Y-80243039D01*
X172877511Y-80288794D01*
X172826000Y-80300000D01*
X168231954Y-80300000D01*
X168193244Y-80290709D01*
X168192402Y-80293303D01*
X168183124Y-80290288D01*
X168050002Y-80269204D01*
X168049998Y-80269204D01*
X167916875Y-80290288D01*
X167907598Y-80293303D01*
X167906755Y-80290709D01*
X167868046Y-80300000D01*
X167650000Y-80300000D01*
X167650000Y-80518036D01*
X167640708Y-80556757D01*
X167643297Y-80557598D01*
X167640280Y-80566883D01*
X167619196Y-80700005D01*
X167619196Y-80700010D01*
X167640279Y-80833130D01*
X167643297Y-80842416D01*
X167640701Y-80843259D01*
X167650000Y-80881979D01*
X167650000Y-81800000D01*
X167704101Y-81800000D01*
X167771140Y-81819685D01*
X167816895Y-81872489D01*
X167826839Y-81941647D01*
X167814586Y-81980294D01*
X167760279Y-82086876D01*
X167739196Y-82219997D01*
X167739196Y-82220002D01*
X167760279Y-82353121D01*
X167760280Y-82353124D01*
X167760281Y-82353126D01*
X167794765Y-82420804D01*
X167821473Y-82473221D01*
X167821476Y-82473225D01*
X167916774Y-82568523D01*
X167916778Y-82568526D01*
X167916780Y-82568528D01*
X168036874Y-82629719D01*
X168036876Y-82629719D01*
X168036878Y-82629720D01*
X168169998Y-82650804D01*
X168170000Y-82650804D01*
X168170002Y-82650804D01*
X168303121Y-82629720D01*
X168303121Y-82629719D01*
X168303126Y-82629719D01*
X168423220Y-82568528D01*
X168518528Y-82473220D01*
X168579719Y-82353126D01*
X168582031Y-82338528D01*
X168600804Y-82220002D01*
X168600804Y-82219997D01*
X168579720Y-82086876D01*
X168525414Y-81980294D01*
X168512518Y-81911625D01*
X168538795Y-81846885D01*
X168595901Y-81806628D01*
X168635899Y-81800000D01*
X172826000Y-81800000D01*
X172893039Y-81819685D01*
X172938794Y-81872489D01*
X172950000Y-81924000D01*
X172950000Y-85948500D01*
X172930315Y-86015539D01*
X172877511Y-86061294D01*
X172826000Y-86072500D01*
X135519387Y-86072500D01*
X135452348Y-86052815D01*
X135406593Y-86000011D01*
X135396649Y-85930853D01*
X135396914Y-85929102D01*
X135410804Y-85841404D01*
X135410804Y-85841399D01*
X135389720Y-85708280D01*
X135389719Y-85708278D01*
X135389719Y-85708276D01*
X135350875Y-85632041D01*
X135337980Y-85563375D01*
X135364256Y-85498634D01*
X135373681Y-85488067D01*
X135408524Y-85453224D01*
X135408528Y-85453220D01*
X135469719Y-85333126D01*
X135482652Y-85251472D01*
X135490804Y-85200002D01*
X135490804Y-85199997D01*
X158719196Y-85199997D01*
X158719196Y-85200002D01*
X158740279Y-85333121D01*
X158740280Y-85333124D01*
X158740281Y-85333126D01*
X158801472Y-85453220D01*
X158801473Y-85453221D01*
X158801476Y-85453225D01*
X158896774Y-85548523D01*
X158896778Y-85548526D01*
X158896780Y-85548528D01*
X159016874Y-85609719D01*
X159016876Y-85609719D01*
X159016878Y-85609720D01*
X159149998Y-85630804D01*
X159150000Y-85630804D01*
X159150002Y-85630804D01*
X159283121Y-85609720D01*
X159283121Y-85609719D01*
X159283126Y-85609719D01*
X159403220Y-85548528D01*
X159498528Y-85453220D01*
X159559719Y-85333126D01*
X159572652Y-85251472D01*
X159580804Y-85200002D01*
X159580804Y-85199997D01*
X159559720Y-85066878D01*
X159559719Y-85066876D01*
X159559719Y-85066874D01*
X159498528Y-84946780D01*
X159498526Y-84946778D01*
X159498523Y-84946774D01*
X159403225Y-84851476D01*
X159403221Y-84851473D01*
X159403220Y-84851472D01*
X159283126Y-84790281D01*
X159283124Y-84790280D01*
X159283121Y-84790279D01*
X159150002Y-84769196D01*
X159149998Y-84769196D01*
X159016878Y-84790279D01*
X158896778Y-84851473D01*
X158896774Y-84851476D01*
X158801476Y-84946774D01*
X158801473Y-84946778D01*
X158740279Y-85066878D01*
X158719196Y-85199997D01*
X135490804Y-85199997D01*
X135469720Y-85066878D01*
X135469719Y-85066876D01*
X135469719Y-85066874D01*
X135408528Y-84946780D01*
X135408526Y-84946778D01*
X135408523Y-84946774D01*
X135313225Y-84851476D01*
X135313221Y-84851473D01*
X135313220Y-84851472D01*
X135193126Y-84790281D01*
X135193124Y-84790280D01*
X135193121Y-84790279D01*
X135060002Y-84769196D01*
X135059998Y-84769196D01*
X134926878Y-84790279D01*
X134806778Y-84851473D01*
X134806774Y-84851476D01*
X134711476Y-84946774D01*
X134711473Y-84946778D01*
X134650279Y-85066878D01*
X134629196Y-85199997D01*
X134629196Y-85200002D01*
X134650279Y-85333123D01*
X134689123Y-85409358D01*
X134702019Y-85478027D01*
X134675742Y-85542767D01*
X134666320Y-85553332D01*
X134631476Y-85588176D01*
X134631473Y-85588180D01*
X134570279Y-85708280D01*
X134549196Y-85841399D01*
X134549196Y-85841404D01*
X134563086Y-85929102D01*
X134554131Y-85998396D01*
X134509135Y-86051848D01*
X134442384Y-86072487D01*
X134440613Y-86072500D01*
X133778611Y-86072500D01*
X133711572Y-86052815D01*
X133665817Y-86000011D01*
X133655873Y-85930853D01*
X133684898Y-85867297D01*
X133690930Y-85860819D01*
X133698523Y-85853225D01*
X133698528Y-85853220D01*
X133759719Y-85733126D01*
X133772929Y-85649720D01*
X133780804Y-85600002D01*
X133780804Y-85599997D01*
X133759720Y-85466878D01*
X133759719Y-85466876D01*
X133759719Y-85466874D01*
X133698528Y-85346780D01*
X133698526Y-85346778D01*
X133698523Y-85346774D01*
X133603225Y-85251476D01*
X133603221Y-85251473D01*
X133603220Y-85251472D01*
X133483126Y-85190281D01*
X133483124Y-85190280D01*
X133483121Y-85190279D01*
X133350002Y-85169196D01*
X133349998Y-85169196D01*
X133216878Y-85190279D01*
X133216874Y-85190280D01*
X133216874Y-85190281D01*
X133194125Y-85201872D01*
X133096778Y-85251473D01*
X133096774Y-85251476D01*
X133001476Y-85346774D01*
X133001473Y-85346778D01*
X132940279Y-85466878D01*
X132919196Y-85599997D01*
X132919196Y-85600002D01*
X132940279Y-85733121D01*
X132940280Y-85733124D01*
X132940281Y-85733126D01*
X133001472Y-85853220D01*
X133001473Y-85853221D01*
X133001476Y-85853225D01*
X133009070Y-85860819D01*
X133042555Y-85922142D01*
X133037571Y-85991834D01*
X132995699Y-86047767D01*
X132930235Y-86072184D01*
X132921389Y-86072500D01*
X106501500Y-86072500D01*
X106434461Y-86052815D01*
X106388706Y-86000011D01*
X106377500Y-85948500D01*
X106377500Y-85239997D01*
X128569196Y-85239997D01*
X128569196Y-85240002D01*
X128590279Y-85373121D01*
X128590280Y-85373124D01*
X128590281Y-85373126D01*
X128651296Y-85492874D01*
X128651473Y-85493221D01*
X128651476Y-85493225D01*
X128746774Y-85588523D01*
X128746778Y-85588526D01*
X128746780Y-85588528D01*
X128866874Y-85649719D01*
X128866876Y-85649719D01*
X128866878Y-85649720D01*
X128999998Y-85670804D01*
X129000000Y-85670804D01*
X129000002Y-85670804D01*
X129133121Y-85649720D01*
X129133121Y-85649719D01*
X129133126Y-85649719D01*
X129253220Y-85588528D01*
X129253222Y-85588525D01*
X129254803Y-85587720D01*
X129323472Y-85574824D01*
X129388212Y-85601100D01*
X129398779Y-85610524D01*
X129471776Y-85683521D01*
X129471780Y-85683524D01*
X129471782Y-85683526D01*
X129591876Y-85744717D01*
X129591878Y-85744717D01*
X129591880Y-85744718D01*
X129725000Y-85765802D01*
X129725002Y-85765802D01*
X129725004Y-85765802D01*
X129858123Y-85744718D01*
X129858123Y-85744717D01*
X129858128Y-85744717D01*
X129978222Y-85683526D01*
X130073530Y-85588218D01*
X130134721Y-85468124D01*
X130134722Y-85468119D01*
X130155806Y-85335000D01*
X130155806Y-85334995D01*
X130134722Y-85201876D01*
X130134721Y-85201874D01*
X130134721Y-85201872D01*
X130073530Y-85081778D01*
X130073528Y-85081776D01*
X130073525Y-85081772D01*
X129978227Y-84986474D01*
X129978223Y-84986471D01*
X129978222Y-84986470D01*
X129858128Y-84925279D01*
X129858126Y-84925278D01*
X129858123Y-84925277D01*
X129725004Y-84904194D01*
X129725000Y-84904194D01*
X129591878Y-84925277D01*
X129470197Y-84987277D01*
X129401528Y-85000173D01*
X129336788Y-84973896D01*
X129326222Y-84964473D01*
X129253225Y-84891476D01*
X129253221Y-84891473D01*
X129253220Y-84891472D01*
X129133126Y-84830281D01*
X129133124Y-84830280D01*
X129133121Y-84830279D01*
X129000002Y-84809196D01*
X128999998Y-84809196D01*
X128866878Y-84830279D01*
X128746778Y-84891473D01*
X128746774Y-84891476D01*
X128651476Y-84986774D01*
X128651473Y-84986778D01*
X128590279Y-85106878D01*
X128569196Y-85239997D01*
X106377500Y-85239997D01*
X106377500Y-83433834D01*
X128810996Y-83433834D01*
X128810996Y-83433839D01*
X128832079Y-83566958D01*
X128832080Y-83566961D01*
X128832081Y-83566963D01*
X128883328Y-83667540D01*
X128893273Y-83687058D01*
X128893276Y-83687062D01*
X128988574Y-83782360D01*
X128988578Y-83782363D01*
X128988580Y-83782365D01*
X129108674Y-83843556D01*
X129108676Y-83843556D01*
X129108678Y-83843557D01*
X129241798Y-83864641D01*
X129241800Y-83864641D01*
X129241802Y-83864641D01*
X129374921Y-83843557D01*
X129374921Y-83843556D01*
X129374926Y-83843556D01*
X129495020Y-83782365D01*
X129590328Y-83687057D01*
X129651519Y-83566963D01*
X129651520Y-83566958D01*
X129672604Y-83433839D01*
X129672604Y-83433834D01*
X129651520Y-83300715D01*
X129651519Y-83300713D01*
X129651519Y-83300711D01*
X129590328Y-83180617D01*
X129590326Y-83180615D01*
X129590323Y-83180611D01*
X129495025Y-83085313D01*
X129495021Y-83085310D01*
X129495020Y-83085309D01*
X129468501Y-83071797D01*
X132919196Y-83071797D01*
X132919196Y-83071802D01*
X132940279Y-83204921D01*
X132940280Y-83204924D01*
X132940281Y-83204926D01*
X133001472Y-83325020D01*
X133001473Y-83325021D01*
X133001476Y-83325025D01*
X133096774Y-83420323D01*
X133096778Y-83420326D01*
X133096780Y-83420328D01*
X133216874Y-83481519D01*
X133216876Y-83481519D01*
X133216878Y-83481520D01*
X133349998Y-83502604D01*
X133352189Y-83502604D01*
X133354754Y-83503357D01*
X133359639Y-83504131D01*
X133359539Y-83504762D01*
X133419228Y-83522289D01*
X133462673Y-83570308D01*
X133512215Y-83667539D01*
X133512217Y-83667541D01*
X133512219Y-83667544D01*
X133607517Y-83762842D01*
X133607521Y-83762845D01*
X133607523Y-83762847D01*
X133727617Y-83824038D01*
X133727619Y-83824038D01*
X133727621Y-83824039D01*
X133860741Y-83845123D01*
X133860743Y-83845123D01*
X133860745Y-83845123D01*
X133993864Y-83824039D01*
X133993864Y-83824038D01*
X133993869Y-83824038D01*
X134113963Y-83762847D01*
X134209271Y-83667539D01*
X134270462Y-83547445D01*
X134270463Y-83547440D01*
X134291547Y-83414321D01*
X134291547Y-83414316D01*
X134270463Y-83281197D01*
X134270462Y-83281195D01*
X134270462Y-83281193D01*
X134209271Y-83161099D01*
X134209269Y-83161097D01*
X134209266Y-83161093D01*
X134113968Y-83065795D01*
X134113964Y-83065792D01*
X134113963Y-83065791D01*
X133993869Y-83004600D01*
X133993867Y-83004599D01*
X133993864Y-83004598D01*
X133860745Y-82983515D01*
X133858553Y-82983515D01*
X133855985Y-82982761D01*
X133851104Y-82981988D01*
X133851203Y-82981357D01*
X133791514Y-82963830D01*
X133748069Y-82915810D01*
X133698528Y-82818580D01*
X133698525Y-82818577D01*
X133698523Y-82818574D01*
X133603225Y-82723276D01*
X133603221Y-82723273D01*
X133603220Y-82723272D01*
X133483126Y-82662081D01*
X133483124Y-82662080D01*
X133483121Y-82662079D01*
X133350002Y-82640996D01*
X133349998Y-82640996D01*
X133216878Y-82662079D01*
X133096778Y-82723273D01*
X133096774Y-82723276D01*
X133001476Y-82818574D01*
X133001473Y-82818578D01*
X132940279Y-82938678D01*
X132919196Y-83071797D01*
X129468501Y-83071797D01*
X129374926Y-83024118D01*
X129374924Y-83024117D01*
X129374921Y-83024116D01*
X129241802Y-83003033D01*
X129241798Y-83003033D01*
X129108678Y-83024116D01*
X128988578Y-83085310D01*
X128988574Y-83085313D01*
X128893276Y-83180611D01*
X128893273Y-83180615D01*
X128832079Y-83300715D01*
X128810996Y-83433834D01*
X106377500Y-83433834D01*
X106377500Y-78199998D01*
X110619318Y-78199998D01*
X110619318Y-78200001D01*
X110639955Y-78356760D01*
X110639956Y-78356762D01*
X110687974Y-78472689D01*
X110700464Y-78502841D01*
X110796718Y-78628282D01*
X110922159Y-78724536D01*
X111068238Y-78785044D01*
X111146619Y-78795363D01*
X111224999Y-78805682D01*
X111225000Y-78805682D01*
X111225001Y-78805682D01*
X111279378Y-78798523D01*
X111381762Y-78785044D01*
X111442370Y-78759938D01*
X111489823Y-78750500D01*
X111620613Y-78750500D01*
X111687652Y-78770185D01*
X111708294Y-78786819D01*
X112663145Y-79741670D01*
X112696630Y-79802993D01*
X112699464Y-79829351D01*
X112699464Y-82535176D01*
X112690025Y-82582628D01*
X112664921Y-82643234D01*
X112664919Y-82643239D01*
X112644282Y-82799998D01*
X112644282Y-82800001D01*
X112664919Y-82956760D01*
X112664920Y-82956762D01*
X112725428Y-83102841D01*
X112821682Y-83228282D01*
X112947123Y-83324536D01*
X113093202Y-83385044D01*
X113171583Y-83395363D01*
X113249963Y-83405682D01*
X113249964Y-83405682D01*
X113249965Y-83405682D01*
X113302218Y-83398802D01*
X113406726Y-83385044D01*
X113552805Y-83324536D01*
X113678246Y-83228282D01*
X113774500Y-83102841D01*
X113835008Y-82956762D01*
X113855646Y-82800000D01*
X113835008Y-82643238D01*
X113809903Y-82582628D01*
X113800464Y-82535176D01*
X113800464Y-81629310D01*
X118459936Y-81629310D01*
X118459936Y-81629315D01*
X118481019Y-81762434D01*
X118481020Y-81762437D01*
X118481021Y-81762439D01*
X118542212Y-81882533D01*
X118542213Y-81882534D01*
X118542216Y-81882538D01*
X118637514Y-81977836D01*
X118637518Y-81977839D01*
X118637520Y-81977841D01*
X118757614Y-82039032D01*
X118757616Y-82039032D01*
X118757618Y-82039033D01*
X118890738Y-82060117D01*
X118890740Y-82060117D01*
X118890742Y-82060117D01*
X119023861Y-82039033D01*
X119023861Y-82039032D01*
X119023866Y-82039032D01*
X119143960Y-81977841D01*
X119239268Y-81882533D01*
X119300459Y-81762439D01*
X119300845Y-81760002D01*
X119300846Y-81759997D01*
X120909196Y-81759997D01*
X120909196Y-81760002D01*
X120930279Y-81893121D01*
X120930280Y-81893124D01*
X120930281Y-81893126D01*
X120991472Y-82013220D01*
X120991473Y-82013221D01*
X120991476Y-82013225D01*
X121086774Y-82108523D01*
X121086778Y-82108526D01*
X121086780Y-82108528D01*
X121206874Y-82169719D01*
X121206876Y-82169719D01*
X121206878Y-82169720D01*
X121339998Y-82190804D01*
X121340000Y-82190804D01*
X121340002Y-82190804D01*
X121473121Y-82169720D01*
X121473121Y-82169719D01*
X121473126Y-82169719D01*
X121593220Y-82108528D01*
X121688528Y-82013220D01*
X121700361Y-81989997D01*
X121999196Y-81989997D01*
X121999196Y-81990002D01*
X122020279Y-82123121D01*
X122020280Y-82123124D01*
X122020281Y-82123126D01*
X122069641Y-82220000D01*
X122081473Y-82243221D01*
X122081476Y-82243225D01*
X122176774Y-82338523D01*
X122176778Y-82338526D01*
X122176780Y-82338528D01*
X122296874Y-82399719D01*
X122296876Y-82399719D01*
X122296878Y-82399720D01*
X122429998Y-82420804D01*
X122430000Y-82420804D01*
X122430002Y-82420804D01*
X122563121Y-82399720D01*
X122563121Y-82399719D01*
X122563126Y-82399719D01*
X122628142Y-82366591D01*
X122696808Y-82353696D01*
X122761548Y-82379972D01*
X122794918Y-82420780D01*
X122841472Y-82512148D01*
X122841474Y-82512150D01*
X122841476Y-82512153D01*
X122936774Y-82607451D01*
X122936778Y-82607454D01*
X122936780Y-82607456D01*
X123056874Y-82668647D01*
X123056876Y-82668647D01*
X123056878Y-82668648D01*
X123189998Y-82689732D01*
X123190000Y-82689732D01*
X123190002Y-82689732D01*
X123323121Y-82668648D01*
X123323121Y-82668647D01*
X123323126Y-82668647D01*
X123443220Y-82607456D01*
X123538528Y-82512148D01*
X123599719Y-82392054D01*
X123603752Y-82366592D01*
X123620804Y-82258930D01*
X123620804Y-82258925D01*
X123599720Y-82125806D01*
X123599719Y-82125804D01*
X123599719Y-82125802D01*
X123538528Y-82005708D01*
X123538526Y-82005706D01*
X123538523Y-82005702D01*
X123443225Y-81910404D01*
X123443221Y-81910401D01*
X123443220Y-81910400D01*
X123323126Y-81849209D01*
X123323124Y-81849208D01*
X123323121Y-81849207D01*
X123190002Y-81828124D01*
X123189998Y-81828124D01*
X123056875Y-81849208D01*
X123056874Y-81849208D01*
X122991858Y-81882335D01*
X122923189Y-81895231D01*
X122858449Y-81868954D01*
X122825082Y-81828147D01*
X122778528Y-81736780D01*
X122778526Y-81736778D01*
X122778523Y-81736774D01*
X122683225Y-81641476D01*
X122683221Y-81641473D01*
X122683220Y-81641472D01*
X122563126Y-81580281D01*
X122563124Y-81580280D01*
X122563121Y-81580279D01*
X122430002Y-81559196D01*
X122429998Y-81559196D01*
X122296878Y-81580279D01*
X122176778Y-81641473D01*
X122176774Y-81641476D01*
X122081476Y-81736774D01*
X122081473Y-81736778D01*
X122020279Y-81856878D01*
X121999196Y-81989997D01*
X121700361Y-81989997D01*
X121749719Y-81893126D01*
X121753149Y-81871472D01*
X121770804Y-81760002D01*
X121770804Y-81759997D01*
X121749720Y-81626878D01*
X121749719Y-81626876D01*
X121749719Y-81626874D01*
X121688528Y-81506780D01*
X121688526Y-81506778D01*
X121688523Y-81506774D01*
X121593225Y-81411476D01*
X121593221Y-81411473D01*
X121593220Y-81411472D01*
X121473126Y-81350281D01*
X121473124Y-81350280D01*
X121473121Y-81350279D01*
X121340002Y-81329196D01*
X121339998Y-81329196D01*
X121206878Y-81350279D01*
X121086778Y-81411473D01*
X121086774Y-81411476D01*
X120991476Y-81506774D01*
X120991473Y-81506778D01*
X120930279Y-81626878D01*
X120909196Y-81759997D01*
X119300846Y-81759997D01*
X119321544Y-81629315D01*
X119321544Y-81629310D01*
X119300460Y-81496191D01*
X119300459Y-81496189D01*
X119300459Y-81496187D01*
X119239268Y-81376093D01*
X119239266Y-81376091D01*
X119239263Y-81376087D01*
X119143965Y-81280789D01*
X119143961Y-81280786D01*
X119143960Y-81280785D01*
X119023866Y-81219594D01*
X119023864Y-81219593D01*
X119023861Y-81219592D01*
X118890742Y-81198509D01*
X118890738Y-81198509D01*
X118757618Y-81219592D01*
X118637518Y-81280786D01*
X118637514Y-81280789D01*
X118542216Y-81376087D01*
X118542213Y-81376091D01*
X118481019Y-81496191D01*
X118459936Y-81629310D01*
X113800464Y-81629310D01*
X113800464Y-80799997D01*
X123719196Y-80799997D01*
X123719196Y-80800002D01*
X123740279Y-80933121D01*
X123740280Y-80933124D01*
X123740281Y-80933126D01*
X123801472Y-81053220D01*
X123801473Y-81053221D01*
X123801476Y-81053225D01*
X123896774Y-81148523D01*
X123896778Y-81148526D01*
X123896780Y-81148528D01*
X124016874Y-81209719D01*
X124016876Y-81209719D01*
X124016878Y-81209720D01*
X124149998Y-81230804D01*
X124150000Y-81230804D01*
X124150002Y-81230804D01*
X124283121Y-81209720D01*
X124283121Y-81209719D01*
X124283126Y-81209719D01*
X124403220Y-81148528D01*
X124498528Y-81053220D01*
X124559719Y-80933126D01*
X124563877Y-80906874D01*
X124564174Y-80904997D01*
X128894196Y-80904997D01*
X128894196Y-80905002D01*
X128915279Y-81038121D01*
X128915280Y-81038124D01*
X128915281Y-81038126D01*
X128971533Y-81148526D01*
X128976473Y-81158221D01*
X128976476Y-81158225D01*
X129071774Y-81253523D01*
X129071778Y-81253526D01*
X129071780Y-81253528D01*
X129191874Y-81314719D01*
X129191876Y-81314719D01*
X129191878Y-81314720D01*
X129324998Y-81335804D01*
X129325000Y-81335804D01*
X129325002Y-81335804D01*
X129458121Y-81314720D01*
X129458121Y-81314719D01*
X129458126Y-81314719D01*
X129578220Y-81253528D01*
X129673528Y-81158220D01*
X129734719Y-81038126D01*
X129739949Y-81005108D01*
X129755804Y-80905002D01*
X129755804Y-80904997D01*
X129734720Y-80771878D01*
X129734719Y-80771876D01*
X129734719Y-80771874D01*
X129673528Y-80651780D01*
X129673526Y-80651778D01*
X129673523Y-80651774D01*
X129578225Y-80556476D01*
X129578221Y-80556473D01*
X129578220Y-80556472D01*
X129458126Y-80495281D01*
X129458124Y-80495280D01*
X129458121Y-80495279D01*
X129325002Y-80474196D01*
X129324998Y-80474196D01*
X129191878Y-80495279D01*
X129071778Y-80556473D01*
X129071774Y-80556476D01*
X128976476Y-80651774D01*
X128976473Y-80651778D01*
X128915279Y-80771878D01*
X128894196Y-80904997D01*
X124564174Y-80904997D01*
X124580804Y-80800002D01*
X124580804Y-80799997D01*
X124559720Y-80666878D01*
X124559719Y-80666876D01*
X124559719Y-80666874D01*
X124498528Y-80546780D01*
X124498526Y-80546778D01*
X124498523Y-80546774D01*
X124403225Y-80451476D01*
X124403221Y-80451473D01*
X124403220Y-80451472D01*
X124283126Y-80390281D01*
X124283124Y-80390280D01*
X124283121Y-80390279D01*
X124150002Y-80369196D01*
X124149998Y-80369196D01*
X124016878Y-80390279D01*
X123896778Y-80451473D01*
X123896774Y-80451476D01*
X123801476Y-80546774D01*
X123801473Y-80546778D01*
X123740279Y-80666878D01*
X123719196Y-80799997D01*
X113800464Y-80799997D01*
X113800464Y-80346989D01*
X126756188Y-80346989D01*
X126756188Y-80346994D01*
X126777271Y-80480113D01*
X126777272Y-80480116D01*
X126777273Y-80480118D01*
X126838464Y-80600212D01*
X126838465Y-80600213D01*
X126838468Y-80600217D01*
X126933766Y-80695515D01*
X126933770Y-80695518D01*
X126933772Y-80695520D01*
X127053866Y-80756711D01*
X127053868Y-80756711D01*
X127053870Y-80756712D01*
X127186990Y-80777796D01*
X127186992Y-80777796D01*
X127186994Y-80777796D01*
X127320113Y-80756712D01*
X127320113Y-80756711D01*
X127320118Y-80756711D01*
X127440212Y-80695520D01*
X127535520Y-80600212D01*
X127596711Y-80480118D01*
X127597649Y-80474196D01*
X127617796Y-80346994D01*
X127617796Y-80346989D01*
X127596712Y-80213870D01*
X127596711Y-80213868D01*
X127596711Y-80213866D01*
X127535520Y-80093772D01*
X127535518Y-80093770D01*
X127535515Y-80093766D01*
X127440217Y-79998468D01*
X127440213Y-79998465D01*
X127440212Y-79998464D01*
X127320118Y-79937273D01*
X127320116Y-79937272D01*
X127320113Y-79937271D01*
X127186994Y-79916188D01*
X127186990Y-79916188D01*
X127053870Y-79937271D01*
X126933770Y-79998465D01*
X126933766Y-79998468D01*
X126838468Y-80093766D01*
X126838465Y-80093770D01*
X126777271Y-80213870D01*
X126756188Y-80346989D01*
X113800464Y-80346989D01*
X113800464Y-79477491D01*
X113800464Y-79477489D01*
X113762948Y-79337479D01*
X113734380Y-79287998D01*
X113690474Y-79211949D01*
X113578522Y-79099997D01*
X120909196Y-79099997D01*
X120909196Y-79100002D01*
X120930279Y-79233121D01*
X120930280Y-79233124D01*
X120930281Y-79233126D01*
X120991472Y-79353220D01*
X120991473Y-79353221D01*
X120991476Y-79353225D01*
X121086774Y-79448523D01*
X121086778Y-79448526D01*
X121086780Y-79448528D01*
X121206874Y-79509719D01*
X121206876Y-79509719D01*
X121206878Y-79509720D01*
X121339998Y-79530804D01*
X121340000Y-79530804D01*
X121340002Y-79530804D01*
X121473121Y-79509720D01*
X121473121Y-79509719D01*
X121473126Y-79509719D01*
X121593220Y-79448528D01*
X121688528Y-79353220D01*
X121694324Y-79341843D01*
X121742296Y-79291048D01*
X121810116Y-79274251D01*
X121876252Y-79296786D01*
X121915292Y-79341840D01*
X121941472Y-79393220D01*
X121941474Y-79393222D01*
X121941476Y-79393225D01*
X122036774Y-79488523D01*
X122036778Y-79488526D01*
X122036780Y-79488528D01*
X122156874Y-79549719D01*
X122156876Y-79549719D01*
X122156878Y-79549720D01*
X122289998Y-79570804D01*
X122290000Y-79570804D01*
X122290002Y-79570804D01*
X122423121Y-79549720D01*
X122423121Y-79549719D01*
X122423126Y-79549719D01*
X122543220Y-79488528D01*
X122605538Y-79426209D01*
X122666859Y-79392726D01*
X122736551Y-79397710D01*
X122792485Y-79439581D01*
X122798006Y-79448449D01*
X122801476Y-79453225D01*
X122896774Y-79548523D01*
X122896778Y-79548526D01*
X122896780Y-79548528D01*
X123016874Y-79609719D01*
X123016876Y-79609719D01*
X123016878Y-79609720D01*
X123149998Y-79630804D01*
X123150000Y-79630804D01*
X123150002Y-79630804D01*
X123283121Y-79609720D01*
X123283121Y-79609719D01*
X123283126Y-79609719D01*
X123403220Y-79548528D01*
X123498528Y-79453220D01*
X123559719Y-79333126D01*
X123565612Y-79295920D01*
X123580804Y-79200002D01*
X123580804Y-79199997D01*
X123559720Y-79066878D01*
X123559719Y-79066876D01*
X123559719Y-79066874D01*
X123498528Y-78946780D01*
X123498526Y-78946778D01*
X123498523Y-78946774D01*
X123403225Y-78851476D01*
X123403221Y-78851473D01*
X123403220Y-78851472D01*
X123283126Y-78790281D01*
X123283124Y-78790280D01*
X123283121Y-78790279D01*
X123150002Y-78769196D01*
X123149998Y-78769196D01*
X123016878Y-78790279D01*
X123016874Y-78790280D01*
X123016874Y-78790281D01*
X122968604Y-78814876D01*
X122896778Y-78851473D01*
X122896777Y-78851473D01*
X122834462Y-78913789D01*
X122773138Y-78947273D01*
X122703447Y-78942288D01*
X122647513Y-78900417D01*
X122641993Y-78891551D01*
X122638529Y-78886782D01*
X122638528Y-78886780D01*
X122638525Y-78886777D01*
X122638523Y-78886774D01*
X122543225Y-78791476D01*
X122543221Y-78791473D01*
X122543220Y-78791472D01*
X122423126Y-78730281D01*
X122423124Y-78730280D01*
X122423121Y-78730279D01*
X122290002Y-78709196D01*
X122289998Y-78709196D01*
X122156878Y-78730279D01*
X122036778Y-78791473D01*
X122036774Y-78791476D01*
X121941476Y-78886774D01*
X121941470Y-78886782D01*
X121935673Y-78898160D01*
X121887697Y-78948955D01*
X121819876Y-78965748D01*
X121753741Y-78943208D01*
X121714707Y-78898159D01*
X121688528Y-78846780D01*
X121688526Y-78846778D01*
X121688523Y-78846774D01*
X121593225Y-78751476D01*
X121593221Y-78751473D01*
X121593220Y-78751472D01*
X121473126Y-78690281D01*
X121473124Y-78690280D01*
X121473121Y-78690279D01*
X121408200Y-78679997D01*
X126799196Y-78679997D01*
X126799196Y-78680002D01*
X126820279Y-78813121D01*
X126820280Y-78813124D01*
X126820281Y-78813126D01*
X126881472Y-78933220D01*
X126881473Y-78933221D01*
X126881476Y-78933225D01*
X126976774Y-79028523D01*
X126976778Y-79028526D01*
X126976780Y-79028528D01*
X127096874Y-79089719D01*
X127096876Y-79089719D01*
X127096878Y-79089720D01*
X127229998Y-79110804D01*
X127230000Y-79110804D01*
X127230002Y-79110804D01*
X127363121Y-79089720D01*
X127363121Y-79089719D01*
X127363126Y-79089719D01*
X127483220Y-79028528D01*
X127563753Y-78947995D01*
X131569196Y-78947995D01*
X131569196Y-78948000D01*
X131590279Y-79081119D01*
X131590280Y-79081122D01*
X131590281Y-79081124D01*
X131651165Y-79200615D01*
X131651473Y-79201219D01*
X131651476Y-79201223D01*
X131746774Y-79296521D01*
X131746778Y-79296524D01*
X131746780Y-79296526D01*
X131866874Y-79357717D01*
X131866876Y-79357717D01*
X131866878Y-79357718D01*
X131999998Y-79378802D01*
X132000000Y-79378802D01*
X132000002Y-79378802D01*
X132133121Y-79357718D01*
X132133121Y-79357717D01*
X132133126Y-79357717D01*
X132253220Y-79296526D01*
X132348528Y-79201218D01*
X132409719Y-79081124D01*
X132409815Y-79080520D01*
X132430804Y-78948000D01*
X132430804Y-78947996D01*
X132422522Y-78895707D01*
X132431476Y-78826414D01*
X132476472Y-78772962D01*
X132543224Y-78752322D01*
X132601286Y-78765823D01*
X132640503Y-78785805D01*
X132691297Y-78833778D01*
X132708092Y-78901599D01*
X132706680Y-78915683D01*
X132701658Y-78947394D01*
X132701658Y-78947396D01*
X132722741Y-79080515D01*
X132722742Y-79080518D01*
X132722743Y-79080520D01*
X132783934Y-79200614D01*
X132783935Y-79200615D01*
X132783938Y-79200619D01*
X132879236Y-79295917D01*
X132879240Y-79295920D01*
X132879242Y-79295922D01*
X132999336Y-79357113D01*
X132999338Y-79357113D01*
X132999340Y-79357114D01*
X133132460Y-79378198D01*
X133132462Y-79378198D01*
X133132464Y-79378198D01*
X133265584Y-79357114D01*
X133265585Y-79357113D01*
X133265588Y-79357113D01*
X133313818Y-79332538D01*
X133382484Y-79319642D01*
X133447225Y-79345918D01*
X133487482Y-79403024D01*
X133492584Y-79423624D01*
X133504575Y-79499334D01*
X133504576Y-79499337D01*
X133504577Y-79499338D01*
X133560819Y-79609720D01*
X133565769Y-79619433D01*
X133565772Y-79619437D01*
X133603983Y-79657648D01*
X133637468Y-79718971D01*
X133632484Y-79788663D01*
X133630010Y-79794291D01*
X133629107Y-79797071D01*
X133608023Y-79930193D01*
X133608023Y-79930198D01*
X133629106Y-80063317D01*
X133629107Y-80063320D01*
X133629108Y-80063322D01*
X133690299Y-80183416D01*
X133690300Y-80183417D01*
X133696038Y-80191315D01*
X133694728Y-80192266D01*
X133722898Y-80243854D01*
X133717914Y-80313546D01*
X133712217Y-80326506D01*
X133650729Y-80447182D01*
X133629646Y-80580303D01*
X133629646Y-80580308D01*
X133650729Y-80713429D01*
X133665178Y-80741786D01*
X133678074Y-80810455D01*
X133651797Y-80875196D01*
X133610989Y-80908564D01*
X133526781Y-80951471D01*
X133526774Y-80951476D01*
X133431476Y-81046774D01*
X133431473Y-81046778D01*
X133370279Y-81166878D01*
X133349196Y-81299997D01*
X133349196Y-81300002D01*
X133370279Y-81433121D01*
X133370280Y-81433124D01*
X133370281Y-81433126D01*
X133407807Y-81506774D01*
X133431473Y-81553221D01*
X133431476Y-81553225D01*
X133526774Y-81648523D01*
X133526778Y-81648526D01*
X133526780Y-81648528D01*
X133646874Y-81709719D01*
X133646876Y-81709719D01*
X133646878Y-81709720D01*
X133779998Y-81730804D01*
X133780000Y-81730804D01*
X133780002Y-81730804D01*
X133913121Y-81709720D01*
X133913121Y-81709719D01*
X133913126Y-81709719D01*
X134033220Y-81648528D01*
X134128528Y-81553220D01*
X134189719Y-81433126D01*
X134193148Y-81411476D01*
X134210804Y-81300002D01*
X134210804Y-81299997D01*
X134189720Y-81166876D01*
X134175271Y-81138518D01*
X134162375Y-81069848D01*
X134188652Y-81005108D01*
X134229458Y-80971742D01*
X134313670Y-80928834D01*
X134408978Y-80833526D01*
X134470169Y-80713432D01*
X134473006Y-80695520D01*
X134491254Y-80580308D01*
X134491254Y-80580303D01*
X134470170Y-80447184D01*
X134470169Y-80447182D01*
X134470169Y-80447180D01*
X134408978Y-80327086D01*
X134408976Y-80327084D01*
X134403239Y-80319187D01*
X134404547Y-80318236D01*
X134376378Y-80266647D01*
X134381362Y-80196955D01*
X134387059Y-80183994D01*
X134387351Y-80183419D01*
X134387355Y-80183416D01*
X134448546Y-80063322D01*
X134458818Y-79998468D01*
X134469631Y-79930198D01*
X134469631Y-79930193D01*
X134448547Y-79797074D01*
X134448546Y-79797072D01*
X134448546Y-79797070D01*
X134387355Y-79676976D01*
X134387353Y-79676974D01*
X134387350Y-79676970D01*
X134349139Y-79638759D01*
X134315654Y-79577436D01*
X134320638Y-79507744D01*
X134323111Y-79502118D01*
X134324016Y-79499334D01*
X134345100Y-79366214D01*
X134345100Y-79366209D01*
X134340538Y-79337405D01*
X141370060Y-79337405D01*
X141370060Y-79337408D01*
X141390697Y-79494167D01*
X141390698Y-79494169D01*
X141413214Y-79548528D01*
X141415803Y-79554777D01*
X141425242Y-79602230D01*
X141425242Y-83108217D01*
X141435323Y-83145839D01*
X141462758Y-83248227D01*
X141535232Y-83373757D01*
X143126981Y-84965506D01*
X143232177Y-85026240D01*
X143252511Y-85037980D01*
X143392521Y-85075496D01*
X147539362Y-85075496D01*
X147601362Y-85092109D01*
X147626936Y-85106874D01*
X147637519Y-85112984D01*
X147777529Y-85150500D01*
X147777530Y-85150500D01*
X147777532Y-85150500D01*
X148497472Y-85150500D01*
X148497474Y-85150500D01*
X148497475Y-85150500D01*
X148637485Y-85112984D01*
X148643251Y-85109654D01*
X148648069Y-85106874D01*
X148722907Y-85063665D01*
X148763015Y-85040510D01*
X148891706Y-84911819D01*
X148953029Y-84878334D01*
X148979387Y-84875500D01*
X157135177Y-84875500D01*
X157182629Y-84884938D01*
X157243238Y-84910044D01*
X157256721Y-84911819D01*
X157399999Y-84930682D01*
X157400000Y-84930682D01*
X157400001Y-84930682D01*
X157452254Y-84923802D01*
X157556762Y-84910044D01*
X157702841Y-84849536D01*
X157828282Y-84753282D01*
X157924536Y-84627841D01*
X157985044Y-84481762D01*
X158005682Y-84325000D01*
X157985044Y-84168238D01*
X157936067Y-84049997D01*
X158769196Y-84049997D01*
X158769196Y-84050002D01*
X158790279Y-84183121D01*
X158790280Y-84183124D01*
X158790281Y-84183126D01*
X158851472Y-84303220D01*
X158851473Y-84303221D01*
X158851476Y-84303225D01*
X158946774Y-84398523D01*
X158946778Y-84398526D01*
X158946780Y-84398528D01*
X159066874Y-84459719D01*
X159066876Y-84459719D01*
X159066878Y-84459720D01*
X159199998Y-84480804D01*
X159200000Y-84480804D01*
X159200002Y-84480804D01*
X159333121Y-84459720D01*
X159333121Y-84459719D01*
X159333126Y-84459719D01*
X159453220Y-84398528D01*
X159548528Y-84303220D01*
X159609719Y-84183126D01*
X159630804Y-84050000D01*
X159626394Y-84022159D01*
X159609720Y-83916878D01*
X159609719Y-83916876D01*
X159609719Y-83916874D01*
X159548528Y-83796780D01*
X159548526Y-83796778D01*
X159548523Y-83796774D01*
X159453225Y-83701476D01*
X159453221Y-83701473D01*
X159453220Y-83701472D01*
X159333126Y-83640281D01*
X159333124Y-83640280D01*
X159333121Y-83640279D01*
X159200002Y-83619196D01*
X159199998Y-83619196D01*
X159066878Y-83640279D01*
X158946778Y-83701473D01*
X158946774Y-83701476D01*
X158851476Y-83796774D01*
X158851473Y-83796778D01*
X158851472Y-83796780D01*
X158806782Y-83884490D01*
X158790279Y-83916878D01*
X158769196Y-84049997D01*
X157936067Y-84049997D01*
X157924536Y-84022159D01*
X157828282Y-83896718D01*
X157702841Y-83800464D01*
X157693942Y-83796778D01*
X157556762Y-83739956D01*
X157556760Y-83739955D01*
X157400001Y-83719318D01*
X157399999Y-83719318D01*
X157243239Y-83739955D01*
X157243237Y-83739956D01*
X157199955Y-83757884D01*
X157187980Y-83762845D01*
X157182630Y-83765061D01*
X157135177Y-83774500D01*
X148627525Y-83774500D01*
X148544375Y-83796780D01*
X148544374Y-83796779D01*
X148487519Y-83812014D01*
X148487514Y-83812016D01*
X148361986Y-83884489D01*
X148361983Y-83884491D01*
X148233294Y-84013181D01*
X148171971Y-84046666D01*
X148145613Y-84049500D01*
X148085643Y-84049500D01*
X148023644Y-84032888D01*
X147987485Y-84012012D01*
X147987486Y-84012012D01*
X147952482Y-84002633D01*
X147847475Y-83974496D01*
X147847472Y-83974496D01*
X143744383Y-83974496D01*
X143677344Y-83954811D01*
X143656702Y-83938177D01*
X142562561Y-82844036D01*
X142529076Y-82782713D01*
X142526242Y-82756355D01*
X142526242Y-79602230D01*
X142535681Y-79554777D01*
X142537776Y-79549719D01*
X142560786Y-79494169D01*
X142581424Y-79337407D01*
X142562612Y-79194517D01*
X142573377Y-79125484D01*
X142597867Y-79090656D01*
X143056706Y-78631819D01*
X143118029Y-78598334D01*
X143144387Y-78595500D01*
X143982694Y-78595500D01*
X144049733Y-78615185D01*
X144095488Y-78667989D01*
X144105432Y-78737147D01*
X144076407Y-78800703D01*
X144053143Y-78819910D01*
X144053608Y-78820516D01*
X144047160Y-78825463D01*
X144047159Y-78825464D01*
X143949478Y-78900417D01*
X143921718Y-78921718D01*
X143825463Y-79047160D01*
X143764956Y-79193237D01*
X143764955Y-79193239D01*
X143744318Y-79349998D01*
X143744318Y-79350001D01*
X143764955Y-79506760D01*
X143764956Y-79506762D01*
X143811627Y-79619437D01*
X143825464Y-79652841D01*
X143921718Y-79778282D01*
X143921720Y-79778283D01*
X143926666Y-79784729D01*
X143925195Y-79785857D01*
X143953750Y-79838152D01*
X143948766Y-79907844D01*
X143930960Y-79939996D01*
X143925464Y-79947157D01*
X143864956Y-80093237D01*
X143864955Y-80093239D01*
X143844318Y-80249998D01*
X143844318Y-80250001D01*
X143864955Y-80406760D01*
X143864956Y-80406762D01*
X143925464Y-80552842D01*
X143995506Y-80644122D01*
X144020700Y-80709291D01*
X144006662Y-80777736D01*
X143972619Y-80817982D01*
X143946726Y-80837850D01*
X143850470Y-80963294D01*
X143789963Y-81109371D01*
X143789962Y-81109373D01*
X143769325Y-81266132D01*
X143769325Y-81266135D01*
X143789962Y-81422894D01*
X143789963Y-81422896D01*
X143850471Y-81568975D01*
X143946725Y-81694416D01*
X144072166Y-81790670D01*
X144218245Y-81851178D01*
X144261511Y-81856874D01*
X144375006Y-81871816D01*
X144375007Y-81871816D01*
X144375008Y-81871816D01*
X144427261Y-81864936D01*
X144531769Y-81851178D01*
X144677848Y-81790670D01*
X144803289Y-81694416D01*
X144899543Y-81568975D01*
X144960051Y-81422896D01*
X144976230Y-81300002D01*
X144980689Y-81266135D01*
X144980689Y-81266132D01*
X144960051Y-81109373D01*
X144960051Y-81109372D01*
X144942416Y-81066797D01*
X147212058Y-81066797D01*
X147212058Y-81066802D01*
X147233141Y-81199921D01*
X147233142Y-81199924D01*
X147233143Y-81199926D01*
X147291633Y-81314719D01*
X147294335Y-81320021D01*
X147294338Y-81320025D01*
X147389636Y-81415323D01*
X147389640Y-81415326D01*
X147389642Y-81415328D01*
X147509736Y-81476519D01*
X147509738Y-81476519D01*
X147509740Y-81476520D01*
X147642860Y-81497604D01*
X147642862Y-81497604D01*
X147642864Y-81497604D01*
X147775983Y-81476520D01*
X147775983Y-81476519D01*
X147775988Y-81476519D01*
X147896082Y-81415328D01*
X147991390Y-81320020D01*
X148052581Y-81199926D01*
X148052582Y-81199921D01*
X148073666Y-81066802D01*
X148073666Y-81066797D01*
X148069421Y-81039997D01*
X158499196Y-81039997D01*
X158499196Y-81040002D01*
X158520279Y-81173121D01*
X158520280Y-81173124D01*
X158520281Y-81173126D01*
X158581472Y-81293220D01*
X158581473Y-81293221D01*
X158581476Y-81293225D01*
X158676774Y-81388523D01*
X158676778Y-81388526D01*
X158676780Y-81388528D01*
X158796874Y-81449719D01*
X158796876Y-81449719D01*
X158796878Y-81449720D01*
X158929998Y-81470804D01*
X158930000Y-81470804D01*
X158930002Y-81470804D01*
X159063121Y-81449720D01*
X159063121Y-81449719D01*
X159063126Y-81449719D01*
X159183220Y-81388528D01*
X159278528Y-81293220D01*
X159339719Y-81173126D01*
X159343616Y-81148523D01*
X159360804Y-81040002D01*
X159360804Y-81039997D01*
X159339720Y-80906878D01*
X159339719Y-80906876D01*
X159339719Y-80906874D01*
X159278528Y-80786780D01*
X159278526Y-80786778D01*
X159278523Y-80786774D01*
X159183225Y-80691476D01*
X159183221Y-80691473D01*
X159183220Y-80691472D01*
X159063126Y-80630281D01*
X159063124Y-80630280D01*
X159063121Y-80630279D01*
X158930002Y-80609196D01*
X158929998Y-80609196D01*
X158796878Y-80630279D01*
X158676778Y-80691473D01*
X158676774Y-80691476D01*
X158581476Y-80786774D01*
X158581473Y-80786778D01*
X158520279Y-80906878D01*
X158499196Y-81039997D01*
X148069421Y-81039997D01*
X148052582Y-80933678D01*
X148052581Y-80933676D01*
X148052581Y-80933674D01*
X147991390Y-80813580D01*
X147991388Y-80813578D01*
X147991385Y-80813574D01*
X147896087Y-80718276D01*
X147896083Y-80718273D01*
X147896082Y-80718272D01*
X147775988Y-80657081D01*
X147775986Y-80657080D01*
X147775983Y-80657079D01*
X147642864Y-80635996D01*
X147642860Y-80635996D01*
X147509740Y-80657079D01*
X147389640Y-80718273D01*
X147389636Y-80718276D01*
X147294338Y-80813574D01*
X147294335Y-80813578D01*
X147233141Y-80933678D01*
X147212058Y-81066797D01*
X144942416Y-81066797D01*
X144899543Y-80963293D01*
X144829499Y-80872009D01*
X144804306Y-80806842D01*
X144818344Y-80738397D01*
X144852388Y-80698150D01*
X144878282Y-80678282D01*
X144974536Y-80552841D01*
X145035044Y-80406762D01*
X145055682Y-80250000D01*
X145050925Y-80213870D01*
X145035114Y-80093770D01*
X145035044Y-80093238D01*
X144974536Y-79947159D01*
X144878282Y-79821718D01*
X144878279Y-79821716D01*
X144873334Y-79815271D01*
X144874804Y-79814142D01*
X144846249Y-79761847D01*
X144851233Y-79692155D01*
X144869039Y-79660003D01*
X144874536Y-79652841D01*
X144935044Y-79506762D01*
X144954666Y-79357717D01*
X144955682Y-79350001D01*
X144955682Y-79349998D01*
X144936095Y-79201219D01*
X144935044Y-79193238D01*
X144874536Y-79047159D01*
X144838347Y-78999997D01*
X170679196Y-78999997D01*
X170679196Y-79000002D01*
X170700279Y-79133121D01*
X170700280Y-79133124D01*
X170700281Y-79133126D01*
X170751234Y-79233126D01*
X170761473Y-79253221D01*
X170761476Y-79253225D01*
X170856774Y-79348523D01*
X170856778Y-79348526D01*
X170856780Y-79348528D01*
X170976874Y-79409719D01*
X170976876Y-79409719D01*
X170976878Y-79409720D01*
X171109998Y-79430804D01*
X171110000Y-79430804D01*
X171110002Y-79430804D01*
X171243121Y-79409720D01*
X171243121Y-79409719D01*
X171243126Y-79409719D01*
X171363220Y-79348528D01*
X171458528Y-79253220D01*
X171519719Y-79133126D01*
X171519720Y-79133121D01*
X171540804Y-79000002D01*
X171540804Y-78999997D01*
X171519720Y-78866878D01*
X171519719Y-78866876D01*
X171519719Y-78866874D01*
X171458528Y-78746780D01*
X171458526Y-78746778D01*
X171458523Y-78746774D01*
X171363225Y-78651476D01*
X171363221Y-78651473D01*
X171363220Y-78651472D01*
X171243126Y-78590281D01*
X171243124Y-78590280D01*
X171243121Y-78590279D01*
X171110002Y-78569196D01*
X171109998Y-78569196D01*
X170976878Y-78590279D01*
X170856778Y-78651473D01*
X170856774Y-78651476D01*
X170761476Y-78746774D01*
X170761473Y-78746778D01*
X170700279Y-78866878D01*
X170679196Y-78999997D01*
X144838347Y-78999997D01*
X144778282Y-78921718D01*
X144652841Y-78825464D01*
X144652839Y-78825463D01*
X144646392Y-78820516D01*
X144647658Y-78818865D01*
X144607092Y-78776324D01*
X144593867Y-78707718D01*
X144619833Y-78642852D01*
X144676745Y-78602321D01*
X144717306Y-78595500D01*
X149397472Y-78595500D01*
X149397474Y-78595500D01*
X149397475Y-78595500D01*
X149537485Y-78557984D01*
X149571615Y-78538279D01*
X149663015Y-78485510D01*
X149961706Y-78186819D01*
X150023029Y-78153334D01*
X150049387Y-78150500D01*
X155735177Y-78150500D01*
X155782629Y-78159938D01*
X155843238Y-78185044D01*
X155856721Y-78186819D01*
X155999999Y-78205682D01*
X156000000Y-78205682D01*
X156000001Y-78205682D01*
X156052254Y-78198802D01*
X156156762Y-78185044D01*
X156302841Y-78124536D01*
X156428282Y-78028282D01*
X156496025Y-77939997D01*
X157919196Y-77939997D01*
X157919196Y-77940002D01*
X157940279Y-78073121D01*
X157940280Y-78073124D01*
X157940281Y-78073126D01*
X157998211Y-78186819D01*
X158001473Y-78193221D01*
X158001476Y-78193225D01*
X158096774Y-78288523D01*
X158096778Y-78288526D01*
X158096780Y-78288528D01*
X158216874Y-78349719D01*
X158216876Y-78349719D01*
X158216878Y-78349720D01*
X158349998Y-78370804D01*
X158350000Y-78370804D01*
X158350002Y-78370804D01*
X158483121Y-78349720D01*
X158483121Y-78349719D01*
X158483126Y-78349719D01*
X158603220Y-78288528D01*
X158698528Y-78193220D01*
X158759719Y-78073126D01*
X158763149Y-78051473D01*
X158777934Y-77958121D01*
X158807863Y-77894986D01*
X158867174Y-77858054D01*
X158937036Y-77859052D01*
X158988088Y-77889837D01*
X159036774Y-77938523D01*
X159036778Y-77938526D01*
X159036780Y-77938528D01*
X159156874Y-77999719D01*
X159156876Y-77999719D01*
X159156878Y-77999720D01*
X159289998Y-78020804D01*
X159290000Y-78020804D01*
X159290002Y-78020804D01*
X159358235Y-78009997D01*
X161889196Y-78009997D01*
X161889196Y-78010002D01*
X161910279Y-78143121D01*
X161910280Y-78143124D01*
X161910281Y-78143126D01*
X161968449Y-78257287D01*
X161971473Y-78263221D01*
X161971476Y-78263225D01*
X162066774Y-78358523D01*
X162066778Y-78358526D01*
X162066780Y-78358528D01*
X162186874Y-78419719D01*
X162186876Y-78419719D01*
X162186878Y-78419720D01*
X162319998Y-78440804D01*
X162320000Y-78440804D01*
X162320002Y-78440804D01*
X162453121Y-78419720D01*
X162453121Y-78419719D01*
X162453126Y-78419719D01*
X162573220Y-78358528D01*
X162668528Y-78263220D01*
X162700742Y-78199997D01*
X168619196Y-78199997D01*
X168619196Y-78200002D01*
X168640279Y-78333121D01*
X168640280Y-78333124D01*
X168640281Y-78333126D01*
X168699833Y-78450003D01*
X168701473Y-78453221D01*
X168701476Y-78453225D01*
X168796774Y-78548523D01*
X168796778Y-78548526D01*
X168796780Y-78548528D01*
X168916874Y-78609719D01*
X168916876Y-78609719D01*
X168916878Y-78609720D01*
X169049998Y-78630804D01*
X169050000Y-78630804D01*
X169050002Y-78630804D01*
X169183121Y-78609720D01*
X169183121Y-78609719D01*
X169183126Y-78609719D01*
X169303220Y-78548528D01*
X169398528Y-78453220D01*
X169459719Y-78333126D01*
X169459720Y-78333121D01*
X169480804Y-78200002D01*
X169480804Y-78199997D01*
X169459720Y-78066878D01*
X169459719Y-78066876D01*
X169459719Y-78066874D01*
X169398528Y-77946780D01*
X169398526Y-77946778D01*
X169398523Y-77946774D01*
X169303225Y-77851476D01*
X169303221Y-77851473D01*
X169303220Y-77851472D01*
X169183126Y-77790281D01*
X169183124Y-77790280D01*
X169183121Y-77790279D01*
X169050002Y-77769196D01*
X169049998Y-77769196D01*
X168916878Y-77790279D01*
X168796778Y-77851473D01*
X168796774Y-77851476D01*
X168701476Y-77946774D01*
X168701473Y-77946778D01*
X168640279Y-78066878D01*
X168619196Y-78199997D01*
X162700742Y-78199997D01*
X162729719Y-78143126D01*
X162729720Y-78143121D01*
X162750804Y-78010002D01*
X162750804Y-78009997D01*
X162729720Y-77876878D01*
X162729719Y-77876876D01*
X162729719Y-77876874D01*
X162668528Y-77756780D01*
X162668526Y-77756778D01*
X162668523Y-77756774D01*
X162573225Y-77661476D01*
X162573221Y-77661473D01*
X162573220Y-77661472D01*
X162453126Y-77600281D01*
X162453124Y-77600280D01*
X162453121Y-77600279D01*
X162320002Y-77579196D01*
X162319998Y-77579196D01*
X162186878Y-77600279D01*
X162066778Y-77661473D01*
X162066774Y-77661476D01*
X161971476Y-77756774D01*
X161971473Y-77756778D01*
X161971472Y-77756780D01*
X161913302Y-77870946D01*
X161910279Y-77876878D01*
X161889196Y-78009997D01*
X159358235Y-78009997D01*
X159423121Y-77999720D01*
X159423121Y-77999719D01*
X159423126Y-77999719D01*
X159543220Y-77938528D01*
X159638528Y-77843220D01*
X159699719Y-77723126D01*
X159704682Y-77691790D01*
X159720804Y-77590002D01*
X159720804Y-77589997D01*
X159699720Y-77456878D01*
X159699719Y-77456876D01*
X159699719Y-77456874D01*
X159638528Y-77336780D01*
X159638526Y-77336778D01*
X159638523Y-77336774D01*
X159543225Y-77241476D01*
X159543221Y-77241473D01*
X159543220Y-77241472D01*
X159423126Y-77180281D01*
X159423124Y-77180280D01*
X159423121Y-77180279D01*
X159290002Y-77159196D01*
X159289998Y-77159196D01*
X159156878Y-77180279D01*
X159036778Y-77241473D01*
X159036774Y-77241476D01*
X158941476Y-77336774D01*
X158941473Y-77336778D01*
X158880279Y-77456878D01*
X158862065Y-77571879D01*
X158832136Y-77635014D01*
X158772824Y-77671945D01*
X158702961Y-77670947D01*
X158651911Y-77640162D01*
X158603225Y-77591476D01*
X158603221Y-77591473D01*
X158603220Y-77591472D01*
X158483126Y-77530281D01*
X158483124Y-77530280D01*
X158483121Y-77530279D01*
X158350002Y-77509196D01*
X158349998Y-77509196D01*
X158216878Y-77530279D01*
X158096778Y-77591473D01*
X158096774Y-77591476D01*
X158001476Y-77686774D01*
X158001473Y-77686778D01*
X157940279Y-77806878D01*
X157919196Y-77939997D01*
X156496025Y-77939997D01*
X156524536Y-77902841D01*
X156585044Y-77756762D01*
X156604930Y-77605710D01*
X156605682Y-77600001D01*
X156605682Y-77599998D01*
X156585044Y-77443239D01*
X156585044Y-77443238D01*
X156524536Y-77297159D01*
X156428282Y-77171718D01*
X156302841Y-77075464D01*
X156268501Y-77061240D01*
X156156762Y-77014956D01*
X156156760Y-77014955D01*
X156000001Y-76994318D01*
X155999999Y-76994318D01*
X155843239Y-77014955D01*
X155843237Y-77014956D01*
X155782630Y-77040061D01*
X155735177Y-77049500D01*
X149697525Y-77049500D01*
X149600626Y-77075464D01*
X149600625Y-77075463D01*
X149557519Y-77087014D01*
X149557514Y-77087016D01*
X149431986Y-77159489D01*
X149431983Y-77159491D01*
X149133294Y-77458181D01*
X149071971Y-77491666D01*
X149045613Y-77494500D01*
X142792525Y-77494500D01*
X142669271Y-77527526D01*
X142669270Y-77527525D01*
X142652517Y-77532015D01*
X142652514Y-77532016D01*
X142526986Y-77604489D01*
X142526983Y-77604491D01*
X141535233Y-78596241D01*
X141535229Y-78596246D01*
X141470018Y-78709195D01*
X141470019Y-78709196D01*
X141462759Y-78721770D01*
X141462758Y-78721772D01*
X141462758Y-78721773D01*
X141425242Y-78861783D01*
X141425242Y-78861785D01*
X141425242Y-79072583D01*
X141415803Y-79120035D01*
X141390699Y-79180641D01*
X141390697Y-79180646D01*
X141370060Y-79337405D01*
X134340538Y-79337405D01*
X134324016Y-79233090D01*
X134324015Y-79233088D01*
X134324015Y-79233086D01*
X134262824Y-79112992D01*
X134262822Y-79112990D01*
X134262819Y-79112986D01*
X134188822Y-79038989D01*
X134155337Y-78977666D01*
X134160321Y-78907974D01*
X134202193Y-78852041D01*
X134220197Y-78840829D01*
X134303220Y-78798528D01*
X134398528Y-78703220D01*
X134459719Y-78583126D01*
X134460755Y-78576588D01*
X134480804Y-78450002D01*
X134480804Y-78449997D01*
X134459720Y-78316878D01*
X134459719Y-78316876D01*
X134459719Y-78316874D01*
X134398528Y-78196780D01*
X134398526Y-78196778D01*
X134398523Y-78196774D01*
X134303225Y-78101476D01*
X134303221Y-78101473D01*
X134303220Y-78101472D01*
X134183126Y-78040281D01*
X134183124Y-78040280D01*
X134183121Y-78040279D01*
X134050002Y-78019196D01*
X134049998Y-78019196D01*
X133916878Y-78040279D01*
X133916874Y-78040280D01*
X133916874Y-78040281D01*
X133852422Y-78073121D01*
X133796778Y-78101473D01*
X133796774Y-78101476D01*
X133701476Y-78196774D01*
X133701473Y-78196778D01*
X133640279Y-78316878D01*
X133619196Y-78449997D01*
X133619196Y-78450003D01*
X133631455Y-78527406D01*
X133622500Y-78596699D01*
X133577504Y-78650151D01*
X133510752Y-78670790D01*
X133443438Y-78652065D01*
X133421301Y-78634484D01*
X133385687Y-78598870D01*
X133385682Y-78598866D01*
X133341960Y-78576588D01*
X133291165Y-78528612D01*
X133274371Y-78460791D01*
X133275783Y-78446712D01*
X133280806Y-78415000D01*
X133278430Y-78400000D01*
X133259722Y-78281878D01*
X133259721Y-78281876D01*
X133259721Y-78281874D01*
X133198530Y-78161780D01*
X133198528Y-78161778D01*
X133198525Y-78161774D01*
X133103227Y-78066476D01*
X133103223Y-78066473D01*
X133103222Y-78066472D01*
X132983128Y-78005281D01*
X132983126Y-78005280D01*
X132983123Y-78005279D01*
X132850004Y-77984196D01*
X132850000Y-77984196D01*
X132716880Y-78005279D01*
X132716876Y-78005280D01*
X132716876Y-78005281D01*
X132707611Y-78010002D01*
X132596780Y-78066473D01*
X132596776Y-78066476D01*
X132501478Y-78161774D01*
X132501475Y-78161778D01*
X132440281Y-78281878D01*
X132421573Y-78400002D01*
X132419198Y-78415000D01*
X132425252Y-78453221D01*
X132427480Y-78467291D01*
X132418524Y-78536585D01*
X132373527Y-78590036D01*
X132306776Y-78610675D01*
X132248712Y-78597173D01*
X132133126Y-78538279D01*
X132133124Y-78538278D01*
X132133121Y-78538277D01*
X132000002Y-78517194D01*
X131999998Y-78517194D01*
X131866878Y-78538277D01*
X131746778Y-78599471D01*
X131746774Y-78599474D01*
X131651476Y-78694772D01*
X131651473Y-78694776D01*
X131651472Y-78694778D01*
X131597501Y-78800703D01*
X131590279Y-78814876D01*
X131569196Y-78947995D01*
X127563753Y-78947995D01*
X127578528Y-78933220D01*
X127639719Y-78813126D01*
X127639720Y-78813121D01*
X127660804Y-78680002D01*
X127660804Y-78679997D01*
X127639720Y-78546878D01*
X127639719Y-78546876D01*
X127639719Y-78546874D01*
X127578528Y-78426780D01*
X127578526Y-78426778D01*
X127578523Y-78426774D01*
X127483225Y-78331476D01*
X127483221Y-78331473D01*
X127483220Y-78331472D01*
X127363126Y-78270281D01*
X127363124Y-78270280D01*
X127363121Y-78270279D01*
X127230002Y-78249196D01*
X127229998Y-78249196D01*
X127096878Y-78270279D01*
X127096874Y-78270280D01*
X127096874Y-78270281D01*
X127074114Y-78281878D01*
X126976778Y-78331473D01*
X126976774Y-78331476D01*
X126881476Y-78426774D01*
X126881473Y-78426778D01*
X126820279Y-78546878D01*
X126799196Y-78679997D01*
X121408200Y-78679997D01*
X121340002Y-78669196D01*
X121339998Y-78669196D01*
X121206878Y-78690279D01*
X121086778Y-78751473D01*
X121086774Y-78751476D01*
X120991476Y-78846774D01*
X120991473Y-78846778D01*
X120930279Y-78966878D01*
X120909196Y-79099997D01*
X113578522Y-79099997D01*
X112878522Y-78399997D01*
X115019196Y-78399997D01*
X115019196Y-78400002D01*
X115040279Y-78533121D01*
X115040280Y-78533124D01*
X115040281Y-78533126D01*
X115101472Y-78653220D01*
X115101473Y-78653221D01*
X115101476Y-78653225D01*
X115196774Y-78748523D01*
X115196778Y-78748526D01*
X115196780Y-78748528D01*
X115316874Y-78809719D01*
X115316876Y-78809719D01*
X115316878Y-78809720D01*
X115449998Y-78830804D01*
X115450000Y-78830804D01*
X115450002Y-78830804D01*
X115583121Y-78809720D01*
X115583121Y-78809719D01*
X115583126Y-78809719D01*
X115703220Y-78748528D01*
X115798528Y-78653220D01*
X115859719Y-78533126D01*
X115860625Y-78527406D01*
X115880804Y-78400002D01*
X115880804Y-78399997D01*
X115859720Y-78266878D01*
X115859719Y-78266876D01*
X115859719Y-78266874D01*
X115798528Y-78146780D01*
X115798526Y-78146778D01*
X115798523Y-78146774D01*
X115775912Y-78124163D01*
X129439014Y-78124163D01*
X129439014Y-78124168D01*
X129460097Y-78257287D01*
X129460098Y-78257290D01*
X129460099Y-78257292D01*
X129521290Y-78377386D01*
X129521291Y-78377387D01*
X129521294Y-78377391D01*
X129616592Y-78472689D01*
X129616596Y-78472692D01*
X129616598Y-78472694D01*
X129736692Y-78533885D01*
X129736694Y-78533885D01*
X129736696Y-78533886D01*
X129869816Y-78554970D01*
X129869818Y-78554970D01*
X129869820Y-78554970D01*
X130002939Y-78533886D01*
X130002939Y-78533885D01*
X130002944Y-78533885D01*
X130123038Y-78472694D01*
X130218346Y-78377386D01*
X130279537Y-78257292D01*
X130288611Y-78200000D01*
X130300622Y-78124168D01*
X130300622Y-78124163D01*
X130279538Y-77991044D01*
X130279537Y-77991042D01*
X130279537Y-77991040D01*
X130218346Y-77870946D01*
X130218344Y-77870944D01*
X130218341Y-77870940D01*
X130123043Y-77775642D01*
X130123039Y-77775639D01*
X130123038Y-77775638D01*
X130002944Y-77714447D01*
X130002942Y-77714446D01*
X130002939Y-77714445D01*
X129869820Y-77693362D01*
X129869816Y-77693362D01*
X129736696Y-77714445D01*
X129616596Y-77775639D01*
X129616592Y-77775642D01*
X129521294Y-77870940D01*
X129521291Y-77870944D01*
X129460097Y-77991044D01*
X129439014Y-78124163D01*
X115775912Y-78124163D01*
X115703225Y-78051476D01*
X115703221Y-78051473D01*
X115703220Y-78051472D01*
X115583126Y-77990281D01*
X115583124Y-77990280D01*
X115583121Y-77990279D01*
X115450002Y-77969196D01*
X115449998Y-77969196D01*
X115316878Y-77990279D01*
X115196778Y-78051473D01*
X115196774Y-78051476D01*
X115101476Y-78146774D01*
X115101473Y-78146778D01*
X115040279Y-78266878D01*
X115019196Y-78399997D01*
X112878522Y-78399997D01*
X112499854Y-78021329D01*
X112466369Y-77960006D01*
X112471353Y-77890314D01*
X112513225Y-77834381D01*
X112578689Y-77809964D01*
X112619622Y-77813872D01*
X112707801Y-77837500D01*
X112707804Y-77837500D01*
X112807196Y-77837500D01*
X112807199Y-77837500D01*
X112903209Y-77811774D01*
X112989290Y-77762075D01*
X113059575Y-77691790D01*
X113109274Y-77605709D01*
X113135000Y-77509699D01*
X113135000Y-77410301D01*
X113109274Y-77314291D01*
X113059575Y-77228210D01*
X112989290Y-77157925D01*
X112903209Y-77108226D01*
X112807199Y-77082500D01*
X112707801Y-77082500D01*
X112611791Y-77108226D01*
X112611789Y-77108226D01*
X112611789Y-77108227D01*
X112525710Y-77157925D01*
X112525707Y-77157927D01*
X112455427Y-77228207D01*
X112455425Y-77228210D01*
X112415617Y-77297160D01*
X112405726Y-77314291D01*
X112380000Y-77410301D01*
X112380000Y-77509699D01*
X112385515Y-77530281D01*
X112407685Y-77613021D01*
X112406022Y-77682871D01*
X112366859Y-77740733D01*
X112302631Y-77768237D01*
X112233728Y-77756650D01*
X112225911Y-77752502D01*
X112205526Y-77740733D01*
X112112485Y-77687016D01*
X112112480Y-77687014D01*
X112069374Y-77675463D01*
X112069374Y-77675464D01*
X112017155Y-77661472D01*
X111972475Y-77649500D01*
X111972474Y-77649500D01*
X111489823Y-77649500D01*
X111442370Y-77640061D01*
X111381762Y-77614956D01*
X111381760Y-77614955D01*
X111225001Y-77594318D01*
X111224999Y-77594318D01*
X111068239Y-77614955D01*
X111068237Y-77614956D01*
X110922160Y-77675463D01*
X110796718Y-77771718D01*
X110700463Y-77897160D01*
X110639956Y-78043237D01*
X110639955Y-78043239D01*
X110619318Y-78199998D01*
X106377500Y-78199998D01*
X106377500Y-76928111D01*
X115077805Y-76928111D01*
X115077805Y-76928116D01*
X115098888Y-77061235D01*
X115098889Y-77061238D01*
X115098890Y-77061240D01*
X115160081Y-77181334D01*
X115160082Y-77181335D01*
X115160085Y-77181339D01*
X115255383Y-77276637D01*
X115255387Y-77276640D01*
X115255389Y-77276642D01*
X115375483Y-77337833D01*
X115375485Y-77337833D01*
X115375487Y-77337834D01*
X115508607Y-77358918D01*
X115508609Y-77358918D01*
X115508611Y-77358918D01*
X115641730Y-77337834D01*
X115641730Y-77337833D01*
X115641735Y-77337833D01*
X115761829Y-77276642D01*
X115857137Y-77181334D01*
X115918328Y-77061240D01*
X115918329Y-77061235D01*
X115939400Y-76928197D01*
X116260693Y-76928197D01*
X116260693Y-76928202D01*
X116281776Y-77061321D01*
X116281777Y-77061324D01*
X116281778Y-77061326D01*
X116342926Y-77181335D01*
X116342970Y-77181421D01*
X116342973Y-77181425D01*
X116438271Y-77276723D01*
X116438275Y-77276726D01*
X116438277Y-77276728D01*
X116558371Y-77337919D01*
X116558373Y-77337919D01*
X116558375Y-77337920D01*
X116691495Y-77359004D01*
X116691497Y-77359004D01*
X116691499Y-77359004D01*
X116824618Y-77337920D01*
X116824618Y-77337919D01*
X116824623Y-77337919D01*
X116944717Y-77276728D01*
X117040025Y-77181420D01*
X117101216Y-77061326D01*
X117101230Y-77061240D01*
X117122301Y-76928202D01*
X117122301Y-76928197D01*
X117101217Y-76795078D01*
X117101216Y-76795076D01*
X117101216Y-76795074D01*
X117040617Y-76676142D01*
X129317315Y-76676142D01*
X129317315Y-76676147D01*
X129338398Y-76809266D01*
X129338399Y-76809269D01*
X129338400Y-76809271D01*
X129399591Y-76929365D01*
X129399592Y-76929366D01*
X129399595Y-76929370D01*
X129494893Y-77024668D01*
X129494897Y-77024671D01*
X129494899Y-77024673D01*
X129614993Y-77085864D01*
X129614995Y-77085864D01*
X129614997Y-77085865D01*
X129748117Y-77106949D01*
X129748119Y-77106949D01*
X129748121Y-77106949D01*
X129881240Y-77085865D01*
X129881240Y-77085864D01*
X129881245Y-77085864D01*
X130001339Y-77024673D01*
X130096647Y-76929365D01*
X130111611Y-76899997D01*
X160649196Y-76899997D01*
X160649196Y-76900002D01*
X160670279Y-77033121D01*
X160670280Y-77033124D01*
X160670281Y-77033126D01*
X160731472Y-77153220D01*
X160731473Y-77153221D01*
X160731476Y-77153225D01*
X160826774Y-77248523D01*
X160826778Y-77248526D01*
X160826780Y-77248528D01*
X160946874Y-77309719D01*
X160946876Y-77309719D01*
X160946878Y-77309720D01*
X161079998Y-77330804D01*
X161080000Y-77330804D01*
X161080002Y-77330804D01*
X161213121Y-77309720D01*
X161213121Y-77309719D01*
X161213126Y-77309719D01*
X161333220Y-77248528D01*
X161428528Y-77153220D01*
X161489719Y-77033126D01*
X161495866Y-76994318D01*
X161510804Y-76900002D01*
X161510804Y-76899997D01*
X161494966Y-76799997D01*
X161889196Y-76799997D01*
X161889196Y-76800002D01*
X161910279Y-76933121D01*
X161910280Y-76933124D01*
X161910281Y-76933126D01*
X161969577Y-77049500D01*
X161971473Y-77053221D01*
X161971476Y-77053225D01*
X162066774Y-77148523D01*
X162066778Y-77148526D01*
X162066780Y-77148528D01*
X162186874Y-77209719D01*
X162186876Y-77209719D01*
X162186878Y-77209720D01*
X162319998Y-77230804D01*
X162320000Y-77230804D01*
X162320002Y-77230804D01*
X162453121Y-77209720D01*
X162453121Y-77209719D01*
X162453126Y-77209719D01*
X162573220Y-77148528D01*
X162668528Y-77053220D01*
X162729719Y-76933126D01*
X162730513Y-76928114D01*
X162750804Y-76800002D01*
X162750804Y-76799997D01*
X162729720Y-76666878D01*
X162729719Y-76666876D01*
X162729719Y-76666874D01*
X162668528Y-76546780D01*
X162668526Y-76546778D01*
X162668523Y-76546774D01*
X162573225Y-76451476D01*
X162573221Y-76451473D01*
X162573220Y-76451472D01*
X162453126Y-76390281D01*
X162453124Y-76390280D01*
X162453121Y-76390279D01*
X162320002Y-76369196D01*
X162319998Y-76369196D01*
X162186878Y-76390279D01*
X162066778Y-76451473D01*
X162066774Y-76451476D01*
X161971476Y-76546774D01*
X161971473Y-76546778D01*
X161910279Y-76666878D01*
X161889196Y-76799997D01*
X161494966Y-76799997D01*
X161489720Y-76766878D01*
X161489719Y-76766876D01*
X161489719Y-76766874D01*
X161428528Y-76646780D01*
X161428526Y-76646778D01*
X161428523Y-76646774D01*
X161333225Y-76551476D01*
X161333221Y-76551473D01*
X161333220Y-76551472D01*
X161213126Y-76490281D01*
X161213124Y-76490280D01*
X161213121Y-76490279D01*
X161080002Y-76469196D01*
X161079998Y-76469196D01*
X160946878Y-76490279D01*
X160826778Y-76551473D01*
X160826774Y-76551476D01*
X160731476Y-76646774D01*
X160731473Y-76646778D01*
X160731472Y-76646780D01*
X160672848Y-76761837D01*
X160670279Y-76766878D01*
X160649196Y-76899997D01*
X130111611Y-76899997D01*
X130157838Y-76809271D01*
X130159306Y-76800002D01*
X130178923Y-76676147D01*
X130178923Y-76676142D01*
X130157839Y-76543023D01*
X130157838Y-76543021D01*
X130157838Y-76543019D01*
X130096647Y-76422925D01*
X130096645Y-76422923D01*
X130096642Y-76422919D01*
X130001344Y-76327621D01*
X130001340Y-76327618D01*
X130001339Y-76327617D01*
X129881245Y-76266426D01*
X129881243Y-76266425D01*
X129881240Y-76266424D01*
X129748121Y-76245341D01*
X129748117Y-76245341D01*
X129614997Y-76266424D01*
X129494897Y-76327618D01*
X129494893Y-76327621D01*
X129399595Y-76422919D01*
X129399592Y-76422923D01*
X129338398Y-76543023D01*
X129317315Y-76676142D01*
X117040617Y-76676142D01*
X117040025Y-76674980D01*
X117040023Y-76674978D01*
X117040020Y-76674974D01*
X116944722Y-76579676D01*
X116944718Y-76579673D01*
X116944717Y-76579672D01*
X116824623Y-76518481D01*
X116824621Y-76518480D01*
X116824618Y-76518479D01*
X116691499Y-76497396D01*
X116691495Y-76497396D01*
X116558375Y-76518479D01*
X116438275Y-76579673D01*
X116438271Y-76579676D01*
X116342973Y-76674974D01*
X116342970Y-76674978D01*
X116281776Y-76795078D01*
X116260693Y-76928197D01*
X115939400Y-76928197D01*
X115939413Y-76928116D01*
X115939413Y-76928111D01*
X115918329Y-76794992D01*
X115918328Y-76794990D01*
X115918328Y-76794988D01*
X115857137Y-76674894D01*
X115857135Y-76674892D01*
X115857132Y-76674888D01*
X115761834Y-76579590D01*
X115761830Y-76579587D01*
X115761829Y-76579586D01*
X115641735Y-76518395D01*
X115641733Y-76518394D01*
X115641730Y-76518393D01*
X115508611Y-76497310D01*
X115508607Y-76497310D01*
X115375487Y-76518393D01*
X115375483Y-76518394D01*
X115375483Y-76518395D01*
X115366004Y-76523225D01*
X115255387Y-76579587D01*
X115255383Y-76579590D01*
X115160085Y-76674888D01*
X115160082Y-76674892D01*
X115098888Y-76794992D01*
X115077805Y-76928111D01*
X106377500Y-76928111D01*
X106377500Y-75951500D01*
X106397185Y-75884461D01*
X106449989Y-75838706D01*
X106501500Y-75827500D01*
X110606138Y-75827500D01*
X110673177Y-75847185D01*
G37*
%TD.AperFunction*%
%TD*%
M02*
