G04 #@! TF.GenerationSoftware,KiCad,Pcbnew,(6.0.4)*
G04 #@! TF.CreationDate,2022-04-25T16:44:11-05:00*
G04 #@! TF.ProjectId,FireflyV1,46697265-666c-4795-9631-2e6b69636164,rev?*
G04 #@! TF.SameCoordinates,Original*
G04 #@! TF.FileFunction,Copper,L2,Bot*
G04 #@! TF.FilePolarity,Positive*
%FSLAX46Y46*%
G04 Gerber Fmt 4.6, Leading zero omitted, Abs format (unit mm)*
G04 Created by KiCad (PCBNEW (6.0.4)) date 2022-04-25 16:44:11*
%MOMM*%
%LPD*%
G01*
G04 APERTURE LIST*
G04 Aperture macros list*
%AMRoundRect*
0 Rectangle with rounded corners*
0 $1 Rounding radius*
0 $2 $3 $4 $5 $6 $7 $8 $9 X,Y pos of 4 corners*
0 Add a 4 corners polygon primitive as box body*
4,1,4,$2,$3,$4,$5,$6,$7,$8,$9,$2,$3,0*
0 Add four circle primitives for the rounded corners*
1,1,$1+$1,$2,$3*
1,1,$1+$1,$4,$5*
1,1,$1+$1,$6,$7*
1,1,$1+$1,$8,$9*
0 Add four rect primitives between the rounded corners*
20,1,$1+$1,$2,$3,$4,$5,0*
20,1,$1+$1,$4,$5,$6,$7,0*
20,1,$1+$1,$6,$7,$8,$9,0*
20,1,$1+$1,$8,$9,$2,$3,0*%
G04 Aperture macros list end*
G04 #@! TA.AperFunction,ComponentPad*
%ADD10C,1.800000*%
G04 #@! TD*
G04 #@! TA.AperFunction,ComponentPad*
%ADD11C,4.800000*%
G04 #@! TD*
G04 #@! TA.AperFunction,ComponentPad*
%ADD12R,1.700000X1.700000*%
G04 #@! TD*
G04 #@! TA.AperFunction,ComponentPad*
%ADD13O,1.700000X1.700000*%
G04 #@! TD*
G04 #@! TA.AperFunction,ComponentPad*
%ADD14C,2.010000*%
G04 #@! TD*
G04 #@! TA.AperFunction,ComponentPad*
%ADD15C,4.460000*%
G04 #@! TD*
G04 #@! TA.AperFunction,SMDPad,CuDef*
%ADD16RoundRect,0.337500X0.337500X-1.662500X0.337500X1.662500X-0.337500X1.662500X-0.337500X-1.662500X0*%
G04 #@! TD*
G04 #@! TA.AperFunction,SMDPad,CuDef*
%ADD17RoundRect,0.500000X-1.500000X-0.500000X1.500000X-0.500000X1.500000X0.500000X-1.500000X0.500000X0*%
G04 #@! TD*
G04 #@! TA.AperFunction,ViaPad*
%ADD18C,1.500000*%
G04 #@! TD*
G04 #@! TA.AperFunction,Conductor*
%ADD19C,1.500000*%
G04 #@! TD*
G04 #@! TA.AperFunction,Conductor*
%ADD20C,2.000000*%
G04 #@! TD*
G04 #@! TA.AperFunction,Conductor*
%ADD21C,1.300000*%
G04 #@! TD*
G04 #@! TA.AperFunction,Conductor*
%ADD22C,1.000000*%
G04 #@! TD*
G04 #@! TA.AperFunction,Conductor*
%ADD23C,0.300000*%
G04 #@! TD*
G04 #@! TA.AperFunction,Conductor*
%ADD24C,0.700000*%
G04 #@! TD*
G04 APERTURE END LIST*
D10*
X61873821Y-39320000D03*
X56873821Y-39320000D03*
X59373821Y-39320000D03*
X61873821Y-53820000D03*
X56873821Y-53820000D03*
D11*
X53773821Y-46820000D03*
X64973821Y-46820000D03*
D12*
X21000000Y-24660000D03*
D13*
X21000000Y-27200000D03*
X21000000Y-29740000D03*
X21000000Y-32280000D03*
D14*
X18921321Y-37000000D03*
X15121321Y-37000000D03*
X15121321Y-45640000D03*
X18921321Y-45640000D03*
X70673821Y-53540000D03*
X74473821Y-53540000D03*
X74473821Y-44900000D03*
X70673821Y-44900000D03*
X15313821Y-50082500D03*
X15313821Y-53882500D03*
X23953821Y-53882500D03*
X23953821Y-50082500D03*
D12*
X20703821Y-20250000D03*
D13*
X18163821Y-20250000D03*
X15623821Y-20250000D03*
X38330000Y-33650000D03*
X40870000Y-33690000D03*
X53570000Y-33690000D03*
X63730000Y-33690000D03*
X73890000Y-33690000D03*
D10*
X36253821Y-39840000D03*
X33753821Y-39840000D03*
X31253821Y-39840000D03*
D15*
X38153821Y-46840000D03*
X29353821Y-46840000D03*
D16*
X19853821Y-15250000D03*
X18153821Y-15250000D03*
X16453821Y-15250000D03*
D17*
X15993821Y-32840000D03*
X15993821Y-29840000D03*
X15993821Y-26840000D03*
D18*
X69569264Y-39000000D03*
X25000000Y-19560000D03*
X23000000Y-42000000D03*
X23000000Y-45900000D03*
X74000000Y-39000000D03*
X74000000Y-42000000D03*
X23000000Y-40000000D03*
X23000000Y-44000000D03*
X69730000Y-41940000D03*
X38574625Y-39074125D03*
D19*
X23283821Y-22400000D02*
X25083821Y-24200000D01*
X16383821Y-22400000D02*
X23283821Y-22400000D01*
X25083821Y-24200000D02*
X25123821Y-24200000D01*
X15623821Y-21640000D02*
X16383821Y-22400000D01*
D20*
X20720000Y-32380000D02*
X20433821Y-32666179D01*
D21*
X20720000Y-32380000D02*
X20460000Y-32640000D01*
D20*
X25000000Y-19560000D02*
X20923821Y-19560000D01*
D21*
X20460000Y-32640000D02*
X17633821Y-32640000D01*
D22*
X20703821Y-16100000D02*
X19853821Y-15250000D01*
D21*
X20703821Y-19780000D02*
X20703821Y-16100000D01*
D20*
X20433821Y-35487500D02*
X18921321Y-37000000D01*
X20433821Y-32666179D02*
X20433821Y-35487500D01*
D22*
X20923821Y-19560000D02*
X20703821Y-19780000D01*
D23*
X20433821Y-29740000D02*
X16093821Y-29740000D01*
X16093821Y-29740000D02*
X15993821Y-29840000D01*
X18163821Y-15260000D02*
X18153821Y-15250000D01*
X18163821Y-19780000D02*
X18163821Y-15260000D01*
D20*
X15623821Y-21640000D02*
X15623821Y-26470000D01*
D22*
X15623821Y-16080000D02*
X16453821Y-15250000D01*
X16453821Y-27200000D02*
X16093821Y-26840000D01*
D21*
X15623821Y-19780000D02*
X15623821Y-16080000D01*
D20*
X16453821Y-27200000D02*
X16653821Y-27000000D01*
X15623821Y-19780000D02*
X15623821Y-21640000D01*
X16653821Y-27000000D02*
X24603821Y-27000000D01*
D22*
X15623821Y-26470000D02*
X15993821Y-26840000D01*
D24*
X63730000Y-34360000D02*
X63730000Y-33690000D01*
X38574625Y-39074125D02*
X38930500Y-39430000D01*
X57260000Y-35680000D02*
X62410000Y-35680000D01*
X53510000Y-39430000D02*
X57260000Y-35680000D01*
X62410000Y-35680000D02*
X63730000Y-34360000D01*
X38930500Y-39430000D02*
X53510000Y-39430000D01*
D23*
X53570000Y-35093821D02*
X53570000Y-33690000D01*
X51623821Y-37040000D02*
X53570000Y-35093821D01*
X36553821Y-37040000D02*
X51623821Y-37040000D01*
X33753821Y-39840000D02*
X36553821Y-37040000D01*
G04 #@! TA.AperFunction,Conductor*
G36*
X14294756Y-35520002D02*
G01*
X14341249Y-35573658D01*
X14351353Y-35643932D01*
X14321859Y-35708512D01*
X14292469Y-35733433D01*
X14259239Y-35753796D01*
X14249778Y-35764253D01*
X14253562Y-35773031D01*
X15108509Y-36627978D01*
X15122453Y-36635592D01*
X15124286Y-36635461D01*
X15130901Y-36631210D01*
X15986037Y-35776074D01*
X15992797Y-35763694D01*
X15987069Y-35756043D01*
X15950173Y-35733433D01*
X15902541Y-35680786D01*
X15890934Y-35610744D01*
X15919037Y-35545546D01*
X15977927Y-35505892D01*
X16016007Y-35500000D01*
X18026635Y-35500000D01*
X18094756Y-35520002D01*
X18141249Y-35573658D01*
X18151353Y-35643932D01*
X18121859Y-35708512D01*
X18092469Y-35733433D01*
X18059239Y-35753796D01*
X18049778Y-35764253D01*
X18053562Y-35773031D01*
X18908509Y-36627978D01*
X18922453Y-36635592D01*
X18924286Y-36635461D01*
X18930901Y-36631210D01*
X19786037Y-35776074D01*
X19792797Y-35763694D01*
X19787069Y-35756043D01*
X19750173Y-35733433D01*
X19702541Y-35680786D01*
X19690934Y-35610744D01*
X19719037Y-35545546D01*
X19777927Y-35505892D01*
X19816007Y-35500000D01*
X20338186Y-35500000D01*
X20406307Y-35520002D01*
X20452800Y-35573658D01*
X20464185Y-35625633D01*
X20464620Y-35776074D01*
X20465782Y-36177504D01*
X20445978Y-36245683D01*
X20392457Y-36292331D01*
X20322212Y-36302638D01*
X20257546Y-36273332D01*
X20232350Y-36243704D01*
X20167524Y-36137917D01*
X20157068Y-36128457D01*
X20148290Y-36132241D01*
X19293343Y-36987188D01*
X19285729Y-37001132D01*
X19285860Y-37002965D01*
X19290111Y-37009580D01*
X20145247Y-37864716D01*
X20157627Y-37871476D01*
X20165277Y-37865749D01*
X20237087Y-37748566D01*
X20289735Y-37700935D01*
X20359776Y-37689328D01*
X20424974Y-37717431D01*
X20464628Y-37776321D01*
X20470519Y-37814033D01*
X20490825Y-44829783D01*
X20490908Y-44858506D01*
X20471104Y-44926685D01*
X20417583Y-44973333D01*
X20347338Y-44983640D01*
X20282673Y-44954334D01*
X20257476Y-44924706D01*
X20167524Y-44777917D01*
X20157068Y-44768457D01*
X20148290Y-44772241D01*
X19293343Y-45627188D01*
X19285729Y-45641132D01*
X19285860Y-45642965D01*
X19290111Y-45649580D01*
X20145247Y-46504716D01*
X20157627Y-46511476D01*
X20165277Y-46505749D01*
X20261976Y-46347950D01*
X20314624Y-46300319D01*
X20384665Y-46288712D01*
X20449863Y-46316815D01*
X20489517Y-46375705D01*
X20495408Y-46413420D01*
X20500000Y-48000000D01*
X26533821Y-48000000D01*
X26536623Y-47831436D01*
X26557755Y-47763657D01*
X26612176Y-47718062D01*
X26682608Y-47709128D01*
X26746690Y-47739690D01*
X26778112Y-47783187D01*
X26908270Y-48081817D01*
X26911712Y-48088573D01*
X27075172Y-48366627D01*
X27079395Y-48372912D01*
X27233881Y-48575338D01*
X27245407Y-48583800D01*
X27257472Y-48577139D01*
X28981799Y-46852812D01*
X28988177Y-46841132D01*
X29718229Y-46841132D01*
X29718360Y-46842965D01*
X29722611Y-46849580D01*
X31448429Y-48575398D01*
X31461552Y-48582564D01*
X31471854Y-48575174D01*
X31578981Y-48443589D01*
X31583385Y-48437462D01*
X31755511Y-48164658D01*
X31759159Y-48158022D01*
X31897255Y-47866537D01*
X31900080Y-47859510D01*
X32002162Y-47553529D01*
X32004116Y-47546237D01*
X32068701Y-47230208D01*
X32069768Y-47222707D01*
X32096041Y-46899682D01*
X32096246Y-46895204D01*
X32096802Y-46842221D01*
X32096692Y-46837789D01*
X32095322Y-46815068D01*
X35411156Y-46815068D01*
X35427193Y-47137212D01*
X35428024Y-47144741D01*
X35482646Y-47462622D01*
X35484379Y-47470009D01*
X35576794Y-47779023D01*
X35579397Y-47786136D01*
X35708270Y-48081817D01*
X35711712Y-48088573D01*
X35875172Y-48366627D01*
X35879395Y-48372912D01*
X36033881Y-48575338D01*
X36045407Y-48583800D01*
X36057472Y-48577139D01*
X37781799Y-46852812D01*
X37788177Y-46841132D01*
X38518229Y-46841132D01*
X38518360Y-46842965D01*
X38522611Y-46849580D01*
X40248429Y-48575398D01*
X40261552Y-48582564D01*
X40271854Y-48575174D01*
X40378981Y-48443589D01*
X40383385Y-48437462D01*
X40555511Y-48164658D01*
X40559159Y-48158022D01*
X40697255Y-47866537D01*
X40700080Y-47859510D01*
X40802162Y-47553529D01*
X40804116Y-47546237D01*
X40868701Y-47230208D01*
X40869768Y-47222707D01*
X40896041Y-46899682D01*
X40896246Y-46895204D01*
X40896802Y-46842221D01*
X40896692Y-46837789D01*
X40877186Y-46514242D01*
X40876278Y-46506740D01*
X40818326Y-46189424D01*
X40816525Y-46182091D01*
X40720870Y-45874031D01*
X40718198Y-45866960D01*
X40586236Y-45572646D01*
X40582719Y-45565919D01*
X40416360Y-45289598D01*
X40412070Y-45283354D01*
X40273186Y-45105272D01*
X40261394Y-45096803D01*
X40249681Y-45103350D01*
X38525843Y-46827188D01*
X38518229Y-46841132D01*
X37788177Y-46841132D01*
X37789413Y-46838868D01*
X37789282Y-46837035D01*
X37785031Y-46830420D01*
X36058918Y-45104307D01*
X36045983Y-45097244D01*
X36035421Y-45104904D01*
X35911998Y-45259790D01*
X35907642Y-45265988D01*
X35738393Y-45540562D01*
X35734813Y-45547238D01*
X35599776Y-45840156D01*
X35597027Y-45847207D01*
X35498156Y-46154234D01*
X35496273Y-46161567D01*
X35435003Y-46478248D01*
X35434016Y-46485747D01*
X35411235Y-46807487D01*
X35411156Y-46815068D01*
X32095322Y-46815068D01*
X32077186Y-46514242D01*
X32076278Y-46506740D01*
X32018326Y-46189424D01*
X32016525Y-46182091D01*
X31920870Y-45874031D01*
X31918198Y-45866960D01*
X31786236Y-45572646D01*
X31782719Y-45565919D01*
X31616360Y-45289598D01*
X31612070Y-45283354D01*
X31473186Y-45105272D01*
X31461394Y-45096803D01*
X31449681Y-45103350D01*
X29725843Y-46827188D01*
X29718229Y-46841132D01*
X28988177Y-46841132D01*
X28989413Y-46838868D01*
X28989282Y-46837035D01*
X28985031Y-46830420D01*
X27258918Y-45104307D01*
X27245983Y-45097244D01*
X27235421Y-45104904D01*
X27111998Y-45259790D01*
X27107642Y-45265988D01*
X26938393Y-45540562D01*
X26934813Y-45547238D01*
X26811462Y-45814807D01*
X26764778Y-45868296D01*
X26696586Y-45888055D01*
X26628537Y-45867810D01*
X26582236Y-45813989D01*
X26571053Y-45759962D01*
X26586513Y-44829783D01*
X26587935Y-44744233D01*
X26609067Y-44676454D01*
X26663488Y-44630859D01*
X26714250Y-44620327D01*
X27482749Y-44622349D01*
X27550816Y-44642531D01*
X27597168Y-44696308D01*
X27600538Y-44714375D01*
X27616952Y-44743921D01*
X29341009Y-46467978D01*
X29354953Y-46475592D01*
X29356786Y-46475461D01*
X29363401Y-46471210D01*
X31089742Y-44744869D01*
X31114777Y-44699022D01*
X31115040Y-44697814D01*
X31165242Y-44647611D01*
X31225959Y-44632197D01*
X36288478Y-44645517D01*
X36356545Y-44665699D01*
X36398292Y-44710329D01*
X36416954Y-44743923D01*
X38141009Y-46467978D01*
X38154953Y-46475592D01*
X38156786Y-46475461D01*
X38163401Y-46471210D01*
X39889742Y-44744869D01*
X39902812Y-44720933D01*
X39953015Y-44670730D01*
X40013730Y-44655318D01*
X51493838Y-44685523D01*
X51561904Y-44705705D01*
X51608256Y-44759482D01*
X51618175Y-44829783D01*
X51588636Y-44893517D01*
X51588801Y-44893646D01*
X51588252Y-44894346D01*
X51588019Y-44894849D01*
X51586561Y-44896503D01*
X51384109Y-45154699D01*
X51379977Y-45160644D01*
X51208541Y-45440404D01*
X51205120Y-45446783D01*
X51066973Y-45744397D01*
X51064313Y-45751116D01*
X50961289Y-46062633D01*
X50959412Y-46069637D01*
X50892877Y-46390922D01*
X50891820Y-46398082D01*
X50862653Y-46724882D01*
X50862425Y-46732134D01*
X50871014Y-47060123D01*
X50871620Y-47067339D01*
X50917852Y-47392176D01*
X50919281Y-47399265D01*
X51002541Y-47716632D01*
X51004781Y-47723527D01*
X51123964Y-48029214D01*
X51126979Y-48035801D01*
X51280512Y-48325776D01*
X51284258Y-48331961D01*
X51470101Y-48602364D01*
X51474543Y-48608090D01*
X51533443Y-48675607D01*
X51546616Y-48684011D01*
X51556467Y-48678144D01*
X53684726Y-46549885D01*
X53747038Y-46515859D01*
X53817853Y-46520924D01*
X53862916Y-46549885D01*
X55989094Y-48676063D01*
X56002448Y-48683355D01*
X56012420Y-48676301D01*
X56110049Y-48559537D01*
X56114359Y-48553734D01*
X56294504Y-48279490D01*
X56298118Y-48273228D01*
X56445546Y-47980099D01*
X56448419Y-47973461D01*
X56561176Y-47665340D01*
X56563272Y-47658399D01*
X56639865Y-47339364D01*
X56641149Y-47332225D01*
X56680665Y-47005683D01*
X56681089Y-47000113D01*
X56686661Y-46822797D01*
X56686588Y-46817204D01*
X56667653Y-46488816D01*
X56666821Y-46481626D01*
X56610410Y-46158403D01*
X56608755Y-46151348D01*
X56515571Y-45836767D01*
X56513115Y-45829942D01*
X56384389Y-45528148D01*
X56381168Y-45521659D01*
X56218599Y-45236646D01*
X56214667Y-45230591D01*
X56020414Y-44966147D01*
X56015804Y-44960576D01*
X55968165Y-44909310D01*
X55936446Y-44845793D01*
X55944102Y-44775211D01*
X55988702Y-44719972D01*
X56060797Y-44697539D01*
X62670353Y-44714929D01*
X62738420Y-44735111D01*
X62784772Y-44788888D01*
X62794691Y-44859189D01*
X62769175Y-44918676D01*
X62584109Y-45154699D01*
X62579977Y-45160644D01*
X62408541Y-45440404D01*
X62405120Y-45446783D01*
X62266973Y-45744397D01*
X62264313Y-45751116D01*
X62161289Y-46062633D01*
X62159412Y-46069637D01*
X62092877Y-46390922D01*
X62091820Y-46398082D01*
X62062653Y-46724882D01*
X62062425Y-46732134D01*
X62071014Y-47060123D01*
X62071620Y-47067339D01*
X62117852Y-47392176D01*
X62119281Y-47399265D01*
X62202541Y-47716632D01*
X62204781Y-47723527D01*
X62323964Y-48029214D01*
X62326979Y-48035801D01*
X62480512Y-48325776D01*
X62484258Y-48331961D01*
X62670101Y-48602364D01*
X62674543Y-48608090D01*
X62733443Y-48675607D01*
X62746616Y-48684011D01*
X62756467Y-48678144D01*
X64884726Y-46549885D01*
X64947038Y-46515859D01*
X65017853Y-46520924D01*
X65062916Y-46549885D01*
X67189094Y-48676063D01*
X67202448Y-48683355D01*
X67212420Y-48676301D01*
X67310049Y-48559537D01*
X67314359Y-48553734D01*
X67494504Y-48279490D01*
X67498118Y-48273228D01*
X67645546Y-47980099D01*
X67648419Y-47973461D01*
X67761176Y-47665340D01*
X67763272Y-47658399D01*
X67839865Y-47339364D01*
X67841149Y-47332225D01*
X67880665Y-47005683D01*
X67881089Y-47000113D01*
X67886661Y-46822797D01*
X67886588Y-46817204D01*
X67867653Y-46488816D01*
X67866821Y-46481626D01*
X67810410Y-46158403D01*
X67808755Y-46151348D01*
X67804299Y-46136306D01*
X69802345Y-46136306D01*
X69808072Y-46143956D01*
X69980590Y-46249675D01*
X69989384Y-46254156D01*
X70200260Y-46341504D01*
X70209645Y-46344553D01*
X70431591Y-46397838D01*
X70441338Y-46399381D01*
X70668891Y-46417290D01*
X70678751Y-46417290D01*
X70906304Y-46399381D01*
X70916051Y-46397838D01*
X71137997Y-46344553D01*
X71147382Y-46341504D01*
X71358258Y-46254156D01*
X71367052Y-46249675D01*
X71535904Y-46146203D01*
X71544858Y-46136306D01*
X73602345Y-46136306D01*
X73608072Y-46143956D01*
X73780590Y-46249675D01*
X73789384Y-46254156D01*
X74000260Y-46341504D01*
X74009645Y-46344553D01*
X74231591Y-46397838D01*
X74241338Y-46399381D01*
X74468891Y-46417290D01*
X74478751Y-46417290D01*
X74706304Y-46399381D01*
X74716051Y-46397838D01*
X74937997Y-46344553D01*
X74947382Y-46341504D01*
X75158258Y-46254156D01*
X75167052Y-46249675D01*
X75335904Y-46146203D01*
X75345364Y-46135747D01*
X75341580Y-46126969D01*
X74486633Y-45272022D01*
X74472689Y-45264408D01*
X74470856Y-45264539D01*
X74464241Y-45268790D01*
X73609105Y-46123926D01*
X73602345Y-46136306D01*
X71544858Y-46136306D01*
X71545364Y-46135747D01*
X71541580Y-46126969D01*
X70686633Y-45272022D01*
X70672689Y-45264408D01*
X70670856Y-45264539D01*
X70664241Y-45268790D01*
X69809105Y-46123926D01*
X69802345Y-46136306D01*
X67804299Y-46136306D01*
X67715571Y-45836767D01*
X67713115Y-45829942D01*
X67584389Y-45528148D01*
X67581168Y-45521659D01*
X67418599Y-45236646D01*
X67414667Y-45230591D01*
X67220414Y-44966147D01*
X67215804Y-44960576D01*
X67195615Y-44938849D01*
X67163897Y-44875332D01*
X67171553Y-44804749D01*
X67216155Y-44749511D01*
X67288247Y-44727079D01*
X67361415Y-44727271D01*
X69033417Y-44731671D01*
X69101483Y-44751852D01*
X69147835Y-44805629D01*
X69158696Y-44867554D01*
X69156531Y-44895067D01*
X69156531Y-44904930D01*
X69174440Y-45132483D01*
X69175983Y-45142230D01*
X69229268Y-45364176D01*
X69232317Y-45373561D01*
X69319665Y-45584437D01*
X69324146Y-45593231D01*
X69427618Y-45762083D01*
X69438074Y-45771543D01*
X69446852Y-45767759D01*
X70479137Y-44735474D01*
X70869533Y-44736502D01*
X71897747Y-45764716D01*
X71910127Y-45771476D01*
X71917777Y-45765749D01*
X72023496Y-45593231D01*
X72027977Y-45584437D01*
X72115325Y-45373561D01*
X72118374Y-45364176D01*
X72171659Y-45142230D01*
X72173202Y-45132483D01*
X72191111Y-44904930D01*
X72191111Y-44895072D01*
X72189625Y-44876193D01*
X72204221Y-44806713D01*
X72254063Y-44756153D01*
X72315568Y-44740306D01*
X72832631Y-44741667D01*
X72900697Y-44761848D01*
X72947049Y-44815625D01*
X72957909Y-44877554D01*
X72956531Y-44895060D01*
X72956531Y-44904930D01*
X72974440Y-45132483D01*
X72975983Y-45142230D01*
X73029268Y-45364176D01*
X73032317Y-45373561D01*
X73119665Y-45584437D01*
X73124146Y-45593231D01*
X73227618Y-45762083D01*
X73238074Y-45771543D01*
X73246852Y-45767759D01*
X74269165Y-44745446D01*
X74679557Y-44746526D01*
X75697747Y-45764716D01*
X75710127Y-45771476D01*
X75717777Y-45765749D01*
X75766567Y-45686131D01*
X75819215Y-45638500D01*
X75889256Y-45626893D01*
X75954454Y-45654996D01*
X75994108Y-45713886D01*
X76000000Y-45751966D01*
X76000000Y-52688034D01*
X75979998Y-52756155D01*
X75926342Y-52802648D01*
X75856068Y-52812752D01*
X75791488Y-52783258D01*
X75766567Y-52753869D01*
X75720024Y-52677917D01*
X75709568Y-52668457D01*
X75700790Y-52672241D01*
X74845843Y-53527188D01*
X74838229Y-53541132D01*
X74838360Y-53542965D01*
X74842611Y-53549580D01*
X75697747Y-54404716D01*
X75710127Y-54411476D01*
X75717777Y-54405749D01*
X75766567Y-54326131D01*
X75819215Y-54278500D01*
X75889256Y-54266893D01*
X75954454Y-54294996D01*
X75994108Y-54353886D01*
X76000000Y-54391966D01*
X76000000Y-55305500D01*
X75979998Y-55373621D01*
X75926342Y-55420114D01*
X75874000Y-55431500D01*
X63624548Y-55431500D01*
X63556427Y-55411498D01*
X63509934Y-55357842D01*
X63498548Y-55305440D01*
X63498800Y-54776306D01*
X69802345Y-54776306D01*
X69808072Y-54783956D01*
X69980590Y-54889675D01*
X69989384Y-54894156D01*
X70200260Y-54981504D01*
X70209645Y-54984553D01*
X70431591Y-55037838D01*
X70441338Y-55039381D01*
X70668891Y-55057290D01*
X70678751Y-55057290D01*
X70906304Y-55039381D01*
X70916051Y-55037838D01*
X71137997Y-54984553D01*
X71147382Y-54981504D01*
X71358258Y-54894156D01*
X71367052Y-54889675D01*
X71535904Y-54786203D01*
X71544858Y-54776306D01*
X73602345Y-54776306D01*
X73608072Y-54783956D01*
X73780590Y-54889675D01*
X73789384Y-54894156D01*
X74000260Y-54981504D01*
X74009645Y-54984553D01*
X74231591Y-55037838D01*
X74241338Y-55039381D01*
X74468891Y-55057290D01*
X74478751Y-55057290D01*
X74706304Y-55039381D01*
X74716051Y-55037838D01*
X74937997Y-54984553D01*
X74947382Y-54981504D01*
X75158258Y-54894156D01*
X75167052Y-54889675D01*
X75335904Y-54786203D01*
X75345364Y-54775747D01*
X75341580Y-54766969D01*
X74486633Y-53912022D01*
X74472689Y-53904408D01*
X74470856Y-53904539D01*
X74464241Y-53908790D01*
X73609105Y-54763926D01*
X73602345Y-54776306D01*
X71544858Y-54776306D01*
X71545364Y-54775747D01*
X71541580Y-54766969D01*
X70686633Y-53912022D01*
X70672689Y-53904408D01*
X70670856Y-53904539D01*
X70664241Y-53908790D01*
X69809105Y-54763926D01*
X69802345Y-54776306D01*
X63498800Y-54776306D01*
X63499387Y-53544930D01*
X69156531Y-53544930D01*
X69174440Y-53772483D01*
X69175983Y-53782230D01*
X69229268Y-54004176D01*
X69232317Y-54013561D01*
X69319665Y-54224437D01*
X69324146Y-54233231D01*
X69427618Y-54402083D01*
X69438074Y-54411543D01*
X69446852Y-54407759D01*
X70301799Y-53552812D01*
X70308177Y-53541132D01*
X71038229Y-53541132D01*
X71038360Y-53542965D01*
X71042611Y-53549580D01*
X71897747Y-54404716D01*
X71910127Y-54411476D01*
X71917777Y-54405749D01*
X72023496Y-54233231D01*
X72027977Y-54224437D01*
X72115325Y-54013561D01*
X72118374Y-54004176D01*
X72171659Y-53782230D01*
X72173202Y-53772483D01*
X72191111Y-53544930D01*
X72956531Y-53544930D01*
X72974440Y-53772483D01*
X72975983Y-53782230D01*
X73029268Y-54004176D01*
X73032317Y-54013561D01*
X73119665Y-54224437D01*
X73124146Y-54233231D01*
X73227618Y-54402083D01*
X73238074Y-54411543D01*
X73246852Y-54407759D01*
X74101799Y-53552812D01*
X74109413Y-53538868D01*
X74109282Y-53537035D01*
X74105031Y-53530420D01*
X73249895Y-52675284D01*
X73237515Y-52668524D01*
X73229865Y-52674251D01*
X73124146Y-52846769D01*
X73119665Y-52855563D01*
X73032317Y-53066439D01*
X73029268Y-53075824D01*
X72975983Y-53297770D01*
X72974440Y-53307517D01*
X72956531Y-53535070D01*
X72956531Y-53544930D01*
X72191111Y-53544930D01*
X72191111Y-53535070D01*
X72173202Y-53307517D01*
X72171659Y-53297770D01*
X72118374Y-53075824D01*
X72115325Y-53066439D01*
X72027977Y-52855563D01*
X72023496Y-52846769D01*
X71920024Y-52677917D01*
X71909568Y-52668457D01*
X71900790Y-52672241D01*
X71045843Y-53527188D01*
X71038229Y-53541132D01*
X70308177Y-53541132D01*
X70309413Y-53538868D01*
X70309282Y-53537035D01*
X70305031Y-53530420D01*
X69449895Y-52675284D01*
X69437515Y-52668524D01*
X69429865Y-52674251D01*
X69324146Y-52846769D01*
X69319665Y-52855563D01*
X69232317Y-53066439D01*
X69229268Y-53075824D01*
X69175983Y-53297770D01*
X69174440Y-53307517D01*
X69156531Y-53535070D01*
X69156531Y-53544930D01*
X63499387Y-53544930D01*
X63499432Y-53449661D01*
X63499977Y-52304253D01*
X69802278Y-52304253D01*
X69806062Y-52313031D01*
X70661009Y-53167978D01*
X70674953Y-53175592D01*
X70676786Y-53175461D01*
X70683401Y-53171210D01*
X71538537Y-52316074D01*
X71544992Y-52304253D01*
X73602278Y-52304253D01*
X73606062Y-52313031D01*
X74461009Y-53167978D01*
X74474953Y-53175592D01*
X74476786Y-53175461D01*
X74483401Y-53171210D01*
X75338537Y-52316074D01*
X75345297Y-52303694D01*
X75339570Y-52296044D01*
X75167052Y-52190325D01*
X75158258Y-52185844D01*
X74947382Y-52098496D01*
X74937997Y-52095447D01*
X74716051Y-52042162D01*
X74706304Y-52040619D01*
X74478751Y-52022710D01*
X74468891Y-52022710D01*
X74241338Y-52040619D01*
X74231591Y-52042162D01*
X74009645Y-52095447D01*
X74000260Y-52098496D01*
X73789384Y-52185844D01*
X73780590Y-52190325D01*
X73611738Y-52293797D01*
X73602278Y-52304253D01*
X71544992Y-52304253D01*
X71545297Y-52303694D01*
X71539570Y-52296044D01*
X71367052Y-52190325D01*
X71358258Y-52185844D01*
X71147382Y-52098496D01*
X71137997Y-52095447D01*
X70916051Y-52042162D01*
X70906304Y-52040619D01*
X70678751Y-52022710D01*
X70668891Y-52022710D01*
X70441338Y-52040619D01*
X70431591Y-52042162D01*
X70209645Y-52095447D01*
X70200260Y-52098496D01*
X69989384Y-52185844D01*
X69980590Y-52190325D01*
X69811738Y-52293797D01*
X69802278Y-52304253D01*
X63499977Y-52304253D01*
X63500000Y-52256843D01*
X63486413Y-52256855D01*
X63486412Y-52256855D01*
X61999252Y-52258197D01*
X60000000Y-52260000D01*
X60000000Y-55305500D01*
X59979998Y-55373621D01*
X59926342Y-55420114D01*
X59874000Y-55431500D01*
X57260895Y-55431500D01*
X57192774Y-55411498D01*
X57146281Y-55357842D01*
X57136177Y-55287568D01*
X57165671Y-55222988D01*
X57224688Y-55184814D01*
X57384378Y-55136905D01*
X57393973Y-55133144D01*
X57592599Y-55035838D01*
X57601457Y-55030559D01*
X57658918Y-54989572D01*
X57667318Y-54978874D01*
X57660331Y-54965721D01*
X56886632Y-54192021D01*
X56872689Y-54184408D01*
X56870855Y-54184539D01*
X56864241Y-54188790D01*
X56084001Y-54969031D01*
X56077244Y-54981406D01*
X56082525Y-54988461D01*
X56258901Y-55091527D01*
X56268184Y-55095974D01*
X56474824Y-55174883D01*
X56484721Y-55177759D01*
X56505711Y-55182029D01*
X56568476Y-55215211D01*
X56603339Y-55277058D01*
X56599230Y-55347936D01*
X56557454Y-55405340D01*
X56491275Y-55431046D01*
X56480591Y-55431500D01*
X24768546Y-55431500D01*
X24700425Y-55411498D01*
X24653932Y-55357842D01*
X24643828Y-55287568D01*
X24673322Y-55222988D01*
X24702711Y-55198067D01*
X24815904Y-55128703D01*
X24825364Y-55118247D01*
X24821580Y-55109469D01*
X23966633Y-54254522D01*
X23952689Y-54246908D01*
X23950856Y-54247039D01*
X23944241Y-54251290D01*
X23089105Y-55106426D01*
X23082345Y-55118806D01*
X23088072Y-55126456D01*
X23204931Y-55198067D01*
X23252562Y-55250715D01*
X23264169Y-55320756D01*
X23236066Y-55385954D01*
X23177176Y-55425608D01*
X23139096Y-55431500D01*
X16128546Y-55431500D01*
X16060425Y-55411498D01*
X16013932Y-55357842D01*
X16003828Y-55287568D01*
X16033322Y-55222988D01*
X16062711Y-55198067D01*
X16175904Y-55128703D01*
X16185364Y-55118247D01*
X16181580Y-55109469D01*
X15326633Y-54254522D01*
X15312689Y-54246908D01*
X15310856Y-54247039D01*
X15304241Y-54251290D01*
X14449105Y-55106426D01*
X14442345Y-55118806D01*
X14448072Y-55126456D01*
X14564931Y-55198067D01*
X14612562Y-55250715D01*
X14624169Y-55320756D01*
X14596066Y-55385954D01*
X14537176Y-55425608D01*
X14499096Y-55431500D01*
X13984500Y-55431500D01*
X13916379Y-55411498D01*
X13869886Y-55357842D01*
X13858500Y-55305500D01*
X13858500Y-54839298D01*
X13878502Y-54771177D01*
X13932158Y-54724684D01*
X14002432Y-54714580D01*
X14069032Y-54745862D01*
X14078074Y-54754043D01*
X14086852Y-54750259D01*
X14941799Y-53895312D01*
X14948177Y-53883632D01*
X15678229Y-53883632D01*
X15678360Y-53885465D01*
X15682611Y-53892080D01*
X16537747Y-54747216D01*
X16550127Y-54753976D01*
X16557777Y-54748249D01*
X16663496Y-54575731D01*
X16667977Y-54566937D01*
X16755325Y-54356061D01*
X16758374Y-54346676D01*
X16811659Y-54124730D01*
X16813202Y-54114983D01*
X16831111Y-53887430D01*
X22436531Y-53887430D01*
X22454440Y-54114983D01*
X22455983Y-54124730D01*
X22509268Y-54346676D01*
X22512317Y-54356061D01*
X22599665Y-54566937D01*
X22604146Y-54575731D01*
X22707618Y-54744583D01*
X22718074Y-54754043D01*
X22726852Y-54750259D01*
X23581799Y-53895312D01*
X23588177Y-53883632D01*
X24318229Y-53883632D01*
X24318360Y-53885465D01*
X24322611Y-53892080D01*
X25177747Y-54747216D01*
X25190127Y-54753976D01*
X25197777Y-54748249D01*
X25303496Y-54575731D01*
X25307977Y-54566937D01*
X25395325Y-54356061D01*
X25398374Y-54346676D01*
X25451659Y-54124730D01*
X25453202Y-54114983D01*
X25471111Y-53887430D01*
X25471111Y-53877570D01*
X25453202Y-53650017D01*
X25451659Y-53640270D01*
X25398374Y-53418324D01*
X25395325Y-53408939D01*
X25307977Y-53198063D01*
X25303496Y-53189269D01*
X25200024Y-53020417D01*
X25189568Y-53010957D01*
X25180790Y-53014741D01*
X24325843Y-53869688D01*
X24318229Y-53883632D01*
X23588177Y-53883632D01*
X23589413Y-53881368D01*
X23589282Y-53879535D01*
X23585031Y-53872920D01*
X22729895Y-53017784D01*
X22717515Y-53011024D01*
X22709865Y-53016751D01*
X22604146Y-53189269D01*
X22599665Y-53198063D01*
X22512317Y-53408939D01*
X22509268Y-53418324D01*
X22455983Y-53640270D01*
X22454440Y-53650017D01*
X22436531Y-53877570D01*
X22436531Y-53887430D01*
X16831111Y-53887430D01*
X16831111Y-53877570D01*
X16813202Y-53650017D01*
X16811659Y-53640270D01*
X16758374Y-53418324D01*
X16755325Y-53408939D01*
X16667977Y-53198063D01*
X16663496Y-53189269D01*
X16560024Y-53020417D01*
X16549568Y-53010957D01*
X16540790Y-53014741D01*
X15685843Y-53869688D01*
X15678229Y-53883632D01*
X14948177Y-53883632D01*
X14949413Y-53881368D01*
X14949282Y-53879535D01*
X14945031Y-53872920D01*
X14089895Y-53017784D01*
X14077515Y-53011024D01*
X14060009Y-53024129D01*
X13993489Y-53048940D01*
X13924115Y-53033849D01*
X13873913Y-52983647D01*
X13858500Y-52923261D01*
X13858500Y-52646753D01*
X14442278Y-52646753D01*
X14446062Y-52655531D01*
X15301009Y-53510478D01*
X15314953Y-53518092D01*
X15316786Y-53517961D01*
X15323401Y-53513710D01*
X16178537Y-52658574D01*
X16184992Y-52646753D01*
X23082278Y-52646753D01*
X23086062Y-52655531D01*
X23941009Y-53510478D01*
X23954953Y-53518092D01*
X23956786Y-53517961D01*
X23963401Y-53513710D01*
X24818537Y-52658574D01*
X24825297Y-52646194D01*
X24819570Y-52638544D01*
X24647052Y-52532825D01*
X24638258Y-52528344D01*
X24427382Y-52440996D01*
X24417997Y-52437947D01*
X24196051Y-52384662D01*
X24186304Y-52383119D01*
X23958751Y-52365210D01*
X23948891Y-52365210D01*
X23721338Y-52383119D01*
X23711591Y-52384662D01*
X23489645Y-52437947D01*
X23480260Y-52440996D01*
X23269384Y-52528344D01*
X23260590Y-52532825D01*
X23091738Y-52636297D01*
X23082278Y-52646753D01*
X16184992Y-52646753D01*
X16185297Y-52646194D01*
X16179570Y-52638544D01*
X16007052Y-52532825D01*
X15998258Y-52528344D01*
X15787382Y-52440996D01*
X15777997Y-52437947D01*
X15556051Y-52384662D01*
X15546304Y-52383119D01*
X15318751Y-52365210D01*
X15308891Y-52365210D01*
X15081338Y-52383119D01*
X15071591Y-52384662D01*
X14849645Y-52437947D01*
X14840260Y-52440996D01*
X14629384Y-52528344D01*
X14620590Y-52532825D01*
X14451738Y-52636297D01*
X14442278Y-52646753D01*
X13858500Y-52646753D01*
X13858500Y-52132703D01*
X43890743Y-52132703D01*
X43928268Y-52417734D01*
X44004129Y-52695036D01*
X44116923Y-52959476D01*
X44264561Y-53206161D01*
X44444313Y-53430528D01*
X44652851Y-53628423D01*
X44842936Y-53765013D01*
X44864278Y-53780349D01*
X44886317Y-53796186D01*
X44890112Y-53798195D01*
X44890113Y-53798196D01*
X44911869Y-53809715D01*
X45140392Y-53930712D01*
X45164699Y-53939607D01*
X45366788Y-54013561D01*
X45410373Y-54029511D01*
X45691264Y-54090755D01*
X45719841Y-54093004D01*
X45914282Y-54108307D01*
X45914291Y-54108307D01*
X45916739Y-54108500D01*
X46072271Y-54108500D01*
X46074407Y-54108354D01*
X46074418Y-54108354D01*
X46282548Y-54094165D01*
X46282554Y-54094164D01*
X46286825Y-54093873D01*
X46291020Y-54093004D01*
X46291022Y-54093004D01*
X46427583Y-54064724D01*
X46568342Y-54035574D01*
X46839343Y-53939607D01*
X47064560Y-53823364D01*
X47091005Y-53809715D01*
X47091006Y-53809715D01*
X47094812Y-53807750D01*
X47098313Y-53805289D01*
X47098317Y-53805287D01*
X47119160Y-53790638D01*
X55461714Y-53790638D01*
X55474448Y-54011468D01*
X55475882Y-54021670D01*
X55524506Y-54237439D01*
X55527594Y-54247292D01*
X55610807Y-54452220D01*
X55615455Y-54461421D01*
X55703918Y-54605781D01*
X55714374Y-54615242D01*
X55723152Y-54611458D01*
X56501800Y-53832811D01*
X56508177Y-53821132D01*
X57238229Y-53821132D01*
X57238360Y-53822966D01*
X57242611Y-53829580D01*
X58020128Y-54607096D01*
X58032134Y-54613652D01*
X58043873Y-54604684D01*
X58081831Y-54551859D01*
X58087142Y-54543020D01*
X58185139Y-54344737D01*
X58188938Y-54335142D01*
X58253236Y-54123517D01*
X58255415Y-54113436D01*
X58284523Y-53892338D01*
X58285042Y-53885663D01*
X58286565Y-53823364D01*
X58286371Y-53816646D01*
X58268100Y-53594400D01*
X58266417Y-53584238D01*
X58212531Y-53369708D01*
X58209210Y-53359953D01*
X58121014Y-53157118D01*
X58116136Y-53148020D01*
X58043045Y-53035038D01*
X58032359Y-53025835D01*
X58022794Y-53030238D01*
X57245842Y-53807189D01*
X57238229Y-53821132D01*
X56508177Y-53821132D01*
X56509413Y-53818868D01*
X56509282Y-53817034D01*
X56505031Y-53810420D01*
X55727683Y-53033073D01*
X55716151Y-53026776D01*
X55703869Y-53036399D01*
X55648288Y-53117877D01*
X55643200Y-53126833D01*
X55550073Y-53327459D01*
X55546510Y-53337146D01*
X55487402Y-53550280D01*
X55485471Y-53560400D01*
X55461966Y-53780349D01*
X55461714Y-53790638D01*
X47119160Y-53790638D01*
X47319243Y-53650017D01*
X47330023Y-53642441D01*
X47408403Y-53569606D01*
X47537479Y-53449661D01*
X47537481Y-53449658D01*
X47540622Y-53446740D01*
X47722713Y-53224268D01*
X47872927Y-52979142D01*
X47988483Y-52715898D01*
X48000347Y-52674251D01*
X48004204Y-52660711D01*
X56079329Y-52660711D01*
X56086072Y-52673040D01*
X56861010Y-53447979D01*
X56874953Y-53455592D01*
X56876787Y-53455461D01*
X56883401Y-53451210D01*
X57662815Y-52671795D01*
X57669832Y-52658944D01*
X57662058Y-52648274D01*
X57659723Y-52646430D01*
X57651141Y-52640729D01*
X57457499Y-52533833D01*
X57448093Y-52529606D01*
X57239593Y-52455772D01*
X57229630Y-52453140D01*
X57011868Y-52414350D01*
X57001617Y-52413381D01*
X56780437Y-52410679D01*
X56770153Y-52411399D01*
X56551514Y-52444855D01*
X56541487Y-52447244D01*
X56331247Y-52515961D01*
X56321737Y-52519958D01*
X56125546Y-52622089D01*
X56116828Y-52627578D01*
X56087782Y-52649386D01*
X56079329Y-52660711D01*
X48004204Y-52660711D01*
X48044298Y-52519958D01*
X48067244Y-52439406D01*
X48107751Y-52154784D01*
X48107845Y-52136951D01*
X48109235Y-51871583D01*
X48109235Y-51871576D01*
X48109257Y-51867297D01*
X48071732Y-51582266D01*
X48056628Y-51527053D01*
X48002365Y-51328703D01*
X47995871Y-51304964D01*
X47883077Y-51040524D01*
X47735439Y-50793839D01*
X47555687Y-50569472D01*
X47347149Y-50371577D01*
X47113683Y-50203814D01*
X47091843Y-50192250D01*
X47068654Y-50179972D01*
X46859608Y-50069288D01*
X46589627Y-49970489D01*
X46308736Y-49909245D01*
X46277685Y-49906801D01*
X46085718Y-49891693D01*
X46085709Y-49891693D01*
X46083261Y-49891500D01*
X45927729Y-49891500D01*
X45925593Y-49891646D01*
X45925582Y-49891646D01*
X45717452Y-49905835D01*
X45717446Y-49905836D01*
X45713175Y-49906127D01*
X45708980Y-49906996D01*
X45708978Y-49906996D01*
X45572417Y-49935276D01*
X45431658Y-49964426D01*
X45160657Y-50060393D01*
X44905188Y-50192250D01*
X44901687Y-50194711D01*
X44901683Y-50194713D01*
X44891594Y-50201804D01*
X44669977Y-50357559D01*
X44654892Y-50371577D01*
X44565633Y-50454522D01*
X44459378Y-50553260D01*
X44277287Y-50775732D01*
X44127073Y-51020858D01*
X44011517Y-51284102D01*
X44010342Y-51288229D01*
X44010341Y-51288230D01*
X44001631Y-51318806D01*
X43932756Y-51560594D01*
X43892249Y-51845216D01*
X43892227Y-51849505D01*
X43892226Y-51849512D01*
X43891319Y-52022710D01*
X43890743Y-52132703D01*
X13858500Y-52132703D01*
X13858500Y-51318806D01*
X14442345Y-51318806D01*
X14448072Y-51326456D01*
X14620590Y-51432175D01*
X14629384Y-51436656D01*
X14840260Y-51524004D01*
X14849645Y-51527053D01*
X15071591Y-51580338D01*
X15081338Y-51581881D01*
X15308891Y-51599790D01*
X15318751Y-51599790D01*
X15546304Y-51581881D01*
X15556051Y-51580338D01*
X15777997Y-51527053D01*
X15787382Y-51524004D01*
X15998258Y-51436656D01*
X16007052Y-51432175D01*
X16175904Y-51328703D01*
X16184858Y-51318806D01*
X23082345Y-51318806D01*
X23088072Y-51326456D01*
X23260590Y-51432175D01*
X23269384Y-51436656D01*
X23480260Y-51524004D01*
X23489645Y-51527053D01*
X23711591Y-51580338D01*
X23721338Y-51581881D01*
X23948891Y-51599790D01*
X23958751Y-51599790D01*
X24186304Y-51581881D01*
X24196051Y-51580338D01*
X24417997Y-51527053D01*
X24427382Y-51524004D01*
X24638258Y-51436656D01*
X24647052Y-51432175D01*
X24815904Y-51328703D01*
X24825364Y-51318247D01*
X24821580Y-51309469D01*
X23966633Y-50454522D01*
X23952689Y-50446908D01*
X23950856Y-50447039D01*
X23944241Y-50451290D01*
X23089105Y-51306426D01*
X23082345Y-51318806D01*
X16184858Y-51318806D01*
X16185364Y-51318247D01*
X16181580Y-51309469D01*
X15326633Y-50454522D01*
X15312689Y-50446908D01*
X15310856Y-50447039D01*
X15304241Y-50451290D01*
X14449105Y-51306426D01*
X14442345Y-51318806D01*
X13858500Y-51318806D01*
X13858500Y-51039298D01*
X13878502Y-50971177D01*
X13932158Y-50924684D01*
X14002432Y-50914580D01*
X14069032Y-50945862D01*
X14078074Y-50954043D01*
X14086852Y-50950259D01*
X14941799Y-50095312D01*
X14948177Y-50083632D01*
X15678229Y-50083632D01*
X15678360Y-50085465D01*
X15682611Y-50092080D01*
X16537747Y-50947216D01*
X16550127Y-50953976D01*
X16557777Y-50948249D01*
X16663496Y-50775731D01*
X16667977Y-50766937D01*
X16755325Y-50556061D01*
X16758374Y-50546676D01*
X16811659Y-50324730D01*
X16813202Y-50314983D01*
X16831111Y-50087430D01*
X22436531Y-50087430D01*
X22454440Y-50314983D01*
X22455983Y-50324730D01*
X22509268Y-50546676D01*
X22512317Y-50556061D01*
X22599665Y-50766937D01*
X22604146Y-50775731D01*
X22707618Y-50944583D01*
X22718074Y-50954043D01*
X22726852Y-50950259D01*
X23581799Y-50095312D01*
X23588177Y-50083632D01*
X24318229Y-50083632D01*
X24318360Y-50085465D01*
X24322611Y-50092080D01*
X25177747Y-50947216D01*
X25190127Y-50953976D01*
X25197777Y-50948249D01*
X25303496Y-50775731D01*
X25307977Y-50766937D01*
X25395325Y-50556061D01*
X25398374Y-50546676D01*
X25451659Y-50324730D01*
X25453202Y-50314983D01*
X25471111Y-50087430D01*
X25471111Y-50077570D01*
X25453202Y-49850017D01*
X25451659Y-49840270D01*
X25398374Y-49618324D01*
X25395325Y-49608939D01*
X25307977Y-49398063D01*
X25303496Y-49389269D01*
X25200024Y-49220417D01*
X25189568Y-49210957D01*
X25180790Y-49214741D01*
X24325843Y-50069688D01*
X24318229Y-50083632D01*
X23588177Y-50083632D01*
X23589413Y-50081368D01*
X23589282Y-50079535D01*
X23585031Y-50072920D01*
X22729895Y-49217784D01*
X22717515Y-49211024D01*
X22709865Y-49216751D01*
X22604146Y-49389269D01*
X22599665Y-49398063D01*
X22512317Y-49608939D01*
X22509268Y-49618324D01*
X22455983Y-49840270D01*
X22454440Y-49850017D01*
X22436531Y-50077570D01*
X22436531Y-50087430D01*
X16831111Y-50087430D01*
X16831111Y-50077570D01*
X16813202Y-49850017D01*
X16811659Y-49840270D01*
X16758374Y-49618324D01*
X16755325Y-49608939D01*
X16667977Y-49398063D01*
X16663496Y-49389269D01*
X16560024Y-49220417D01*
X16549568Y-49210957D01*
X16540790Y-49214741D01*
X15685843Y-50069688D01*
X15678229Y-50083632D01*
X14948177Y-50083632D01*
X14949413Y-50081368D01*
X14949282Y-50079535D01*
X14945031Y-50072920D01*
X14089895Y-49217784D01*
X14077515Y-49211024D01*
X14060009Y-49224129D01*
X13993489Y-49248940D01*
X13924115Y-49233849D01*
X13873913Y-49183647D01*
X13858500Y-49123261D01*
X13858500Y-48846753D01*
X14442278Y-48846753D01*
X14446062Y-48855531D01*
X15301009Y-49710478D01*
X15314953Y-49718092D01*
X15316786Y-49717961D01*
X15323401Y-49713710D01*
X16178537Y-48858574D01*
X16184992Y-48846753D01*
X23082278Y-48846753D01*
X23086062Y-48855531D01*
X23941009Y-49710478D01*
X23954953Y-49718092D01*
X23956786Y-49717961D01*
X23963401Y-49713710D01*
X24729353Y-48947758D01*
X27611187Y-48947758D01*
X27618712Y-48958191D01*
X27761894Y-49073518D01*
X27768078Y-49077912D01*
X28041745Y-49248586D01*
X28048416Y-49252208D01*
X28340611Y-49388772D01*
X28347665Y-49391565D01*
X28654154Y-49492036D01*
X28661486Y-49493960D01*
X28977835Y-49556885D01*
X28985333Y-49557913D01*
X29306959Y-49582379D01*
X29314522Y-49582497D01*
X29636748Y-49568147D01*
X29644289Y-49567355D01*
X29962455Y-49514397D01*
X29969833Y-49512707D01*
X30279356Y-49421903D01*
X30286451Y-49419349D01*
X30582816Y-49292020D01*
X30589589Y-49288614D01*
X30868494Y-49126612D01*
X30874809Y-49122416D01*
X31089546Y-48960308D01*
X31098002Y-48948917D01*
X31097366Y-48947758D01*
X36411187Y-48947758D01*
X36418712Y-48958191D01*
X36561894Y-49073518D01*
X36568078Y-49077912D01*
X36841745Y-49248586D01*
X36848416Y-49252208D01*
X37140611Y-49388772D01*
X37147665Y-49391565D01*
X37454154Y-49492036D01*
X37461486Y-49493960D01*
X37777835Y-49556885D01*
X37785333Y-49557913D01*
X38106959Y-49582379D01*
X38114522Y-49582497D01*
X38436748Y-49568147D01*
X38444289Y-49567355D01*
X38762455Y-49514397D01*
X38769833Y-49512707D01*
X39079356Y-49421903D01*
X39086451Y-49419349D01*
X39382816Y-49292020D01*
X39389589Y-49288614D01*
X39668494Y-49126612D01*
X39674809Y-49122416D01*
X39769559Y-49050888D01*
X51908473Y-49050888D01*
X51908491Y-49051141D01*
X51914405Y-49059884D01*
X51937973Y-49081329D01*
X51943600Y-49085886D01*
X52210046Y-49277346D01*
X52216176Y-49281236D01*
X52502853Y-49440799D01*
X52509373Y-49443951D01*
X52812501Y-49569510D01*
X52819352Y-49571896D01*
X53134884Y-49661778D01*
X53141973Y-49663363D01*
X53465757Y-49716385D01*
X53472963Y-49717142D01*
X53800698Y-49732597D01*
X53807948Y-49732521D01*
X54135277Y-49710207D01*
X54142486Y-49709296D01*
X54465087Y-49649505D01*
X54472117Y-49647778D01*
X54785724Y-49551300D01*
X54792501Y-49548780D01*
X55092952Y-49416891D01*
X55099387Y-49413612D01*
X55382671Y-49248075D01*
X55388720Y-49244056D01*
X55631224Y-49061979D01*
X55639502Y-49050888D01*
X63108473Y-49050888D01*
X63108491Y-49051141D01*
X63114405Y-49059884D01*
X63137973Y-49081329D01*
X63143600Y-49085886D01*
X63410046Y-49277346D01*
X63416176Y-49281236D01*
X63702853Y-49440799D01*
X63709373Y-49443951D01*
X64012501Y-49569510D01*
X64019352Y-49571896D01*
X64334884Y-49661778D01*
X64341973Y-49663363D01*
X64665757Y-49716385D01*
X64672963Y-49717142D01*
X65000698Y-49732597D01*
X65007948Y-49732521D01*
X65335277Y-49710207D01*
X65342486Y-49709296D01*
X65665087Y-49649505D01*
X65672117Y-49647778D01*
X65985724Y-49551300D01*
X65992501Y-49548780D01*
X66292952Y-49416891D01*
X66299387Y-49413612D01*
X66582671Y-49248075D01*
X66588720Y-49244056D01*
X66831224Y-49061979D01*
X66839678Y-49050652D01*
X66832933Y-49038322D01*
X64986633Y-47192022D01*
X64972689Y-47184408D01*
X64970856Y-47184539D01*
X64964241Y-47188790D01*
X63116087Y-49036944D01*
X63108473Y-49050888D01*
X55639502Y-49050888D01*
X55639678Y-49050652D01*
X55632933Y-49038322D01*
X53786633Y-47192022D01*
X53772689Y-47184408D01*
X53770856Y-47184539D01*
X53764241Y-47188790D01*
X51916087Y-49036944D01*
X51908473Y-49050888D01*
X39769559Y-49050888D01*
X39889546Y-48960308D01*
X39898002Y-48948917D01*
X39891284Y-48936673D01*
X38166633Y-47212022D01*
X38152689Y-47204408D01*
X38150856Y-47204539D01*
X38144241Y-47208790D01*
X36418302Y-48934729D01*
X36411187Y-48947758D01*
X31097366Y-48947758D01*
X31091284Y-48936673D01*
X29366633Y-47212022D01*
X29352689Y-47204408D01*
X29350856Y-47204539D01*
X29344241Y-47208790D01*
X27618302Y-48934729D01*
X27611187Y-48947758D01*
X24729353Y-48947758D01*
X24818537Y-48858574D01*
X24825297Y-48846194D01*
X24819570Y-48838544D01*
X24647052Y-48732825D01*
X24638258Y-48728344D01*
X24427382Y-48640996D01*
X24417997Y-48637947D01*
X24196051Y-48584662D01*
X24186304Y-48583119D01*
X23958751Y-48565210D01*
X23948891Y-48565210D01*
X23721338Y-48583119D01*
X23711591Y-48584662D01*
X23489645Y-48637947D01*
X23480260Y-48640996D01*
X23269384Y-48728344D01*
X23260590Y-48732825D01*
X23091738Y-48836297D01*
X23082278Y-48846753D01*
X16184992Y-48846753D01*
X16185297Y-48846194D01*
X16179570Y-48838544D01*
X16007052Y-48732825D01*
X15998258Y-48728344D01*
X15787382Y-48640996D01*
X15777997Y-48637947D01*
X15556051Y-48584662D01*
X15546304Y-48583119D01*
X15318751Y-48565210D01*
X15308891Y-48565210D01*
X15081338Y-48583119D01*
X15071591Y-48584662D01*
X14849645Y-48637947D01*
X14840260Y-48640996D01*
X14629384Y-48728344D01*
X14620590Y-48732825D01*
X14451738Y-48836297D01*
X14442278Y-48846753D01*
X13858500Y-48846753D01*
X13858500Y-46876306D01*
X14249845Y-46876306D01*
X14255572Y-46883956D01*
X14428090Y-46989675D01*
X14436884Y-46994156D01*
X14647760Y-47081504D01*
X14657145Y-47084553D01*
X14879091Y-47137838D01*
X14888838Y-47139381D01*
X15116391Y-47157290D01*
X15126251Y-47157290D01*
X15353804Y-47139381D01*
X15363551Y-47137838D01*
X15585497Y-47084553D01*
X15594882Y-47081504D01*
X15805758Y-46994156D01*
X15814552Y-46989675D01*
X15983404Y-46886203D01*
X15992358Y-46876306D01*
X18049845Y-46876306D01*
X18055572Y-46883956D01*
X18228090Y-46989675D01*
X18236884Y-46994156D01*
X18447760Y-47081504D01*
X18457145Y-47084553D01*
X18679091Y-47137838D01*
X18688838Y-47139381D01*
X18916391Y-47157290D01*
X18926251Y-47157290D01*
X19153804Y-47139381D01*
X19163551Y-47137838D01*
X19385497Y-47084553D01*
X19394882Y-47081504D01*
X19605758Y-46994156D01*
X19614552Y-46989675D01*
X19783404Y-46886203D01*
X19792864Y-46875747D01*
X19789080Y-46866969D01*
X18934133Y-46012022D01*
X18920189Y-46004408D01*
X18918356Y-46004539D01*
X18911741Y-46008790D01*
X18056605Y-46863926D01*
X18049845Y-46876306D01*
X15992358Y-46876306D01*
X15992864Y-46875747D01*
X15989080Y-46866969D01*
X15134133Y-46012022D01*
X15120189Y-46004408D01*
X15118356Y-46004539D01*
X15111741Y-46008790D01*
X14256605Y-46863926D01*
X14249845Y-46876306D01*
X13858500Y-46876306D01*
X13858500Y-46595801D01*
X13878502Y-46527680D01*
X13895405Y-46506706D01*
X14749299Y-45652812D01*
X14755677Y-45641132D01*
X15485729Y-45641132D01*
X15485860Y-45642965D01*
X15490111Y-45649580D01*
X16345247Y-46504716D01*
X16357627Y-46511476D01*
X16365277Y-46505749D01*
X16470996Y-46333231D01*
X16475477Y-46324437D01*
X16562825Y-46113561D01*
X16565874Y-46104176D01*
X16619159Y-45882230D01*
X16620702Y-45872483D01*
X16638611Y-45644930D01*
X17404031Y-45644930D01*
X17421940Y-45872483D01*
X17423483Y-45882230D01*
X17476768Y-46104176D01*
X17479817Y-46113561D01*
X17567165Y-46324437D01*
X17571646Y-46333231D01*
X17675118Y-46502083D01*
X17685574Y-46511543D01*
X17694352Y-46507759D01*
X18549299Y-45652812D01*
X18556913Y-45638868D01*
X18556782Y-45637035D01*
X18552531Y-45630420D01*
X17697395Y-44775284D01*
X17685015Y-44768524D01*
X17677365Y-44774251D01*
X17571646Y-44946769D01*
X17567165Y-44955563D01*
X17479817Y-45166439D01*
X17476768Y-45175824D01*
X17423483Y-45397770D01*
X17421940Y-45407517D01*
X17404031Y-45635070D01*
X17404031Y-45644930D01*
X16638611Y-45644930D01*
X16638611Y-45635070D01*
X16620702Y-45407517D01*
X16619159Y-45397770D01*
X16565874Y-45175824D01*
X16562825Y-45166439D01*
X16475477Y-44955563D01*
X16470996Y-44946769D01*
X16367524Y-44777917D01*
X16357068Y-44768457D01*
X16348290Y-44772241D01*
X15493343Y-45627188D01*
X15485729Y-45641132D01*
X14755677Y-45641132D01*
X14756913Y-45638868D01*
X14756782Y-45637035D01*
X14752531Y-45630420D01*
X13895405Y-44773294D01*
X13861379Y-44710982D01*
X13858500Y-44684199D01*
X13858500Y-44404253D01*
X14249778Y-44404253D01*
X14253562Y-44413031D01*
X15108509Y-45267978D01*
X15122453Y-45275592D01*
X15124286Y-45275461D01*
X15130901Y-45271210D01*
X15986037Y-44416074D01*
X15992492Y-44404253D01*
X18049778Y-44404253D01*
X18053562Y-44413031D01*
X18908509Y-45267978D01*
X18922453Y-45275592D01*
X18924286Y-45275461D01*
X18930901Y-45271210D01*
X19786037Y-44416074D01*
X19792797Y-44403694D01*
X19787070Y-44396044D01*
X19614552Y-44290325D01*
X19605758Y-44285844D01*
X19394882Y-44198496D01*
X19385497Y-44195447D01*
X19163551Y-44142162D01*
X19153804Y-44140619D01*
X18926251Y-44122710D01*
X18916391Y-44122710D01*
X18688838Y-44140619D01*
X18679091Y-44142162D01*
X18457145Y-44195447D01*
X18447760Y-44198496D01*
X18236884Y-44285844D01*
X18228090Y-44290325D01*
X18059238Y-44393797D01*
X18049778Y-44404253D01*
X15992492Y-44404253D01*
X15992797Y-44403694D01*
X15987070Y-44396044D01*
X15814552Y-44290325D01*
X15805758Y-44285844D01*
X15594882Y-44198496D01*
X15585497Y-44195447D01*
X15363551Y-44142162D01*
X15353804Y-44140619D01*
X15126251Y-44122710D01*
X15116391Y-44122710D01*
X14888838Y-44140619D01*
X14879091Y-44142162D01*
X14657145Y-44195447D01*
X14647760Y-44198496D01*
X14436884Y-44285844D01*
X14428090Y-44290325D01*
X14259238Y-44393797D01*
X14249778Y-44404253D01*
X13858500Y-44404253D01*
X13858500Y-38236306D01*
X14249845Y-38236306D01*
X14255572Y-38243956D01*
X14428090Y-38349675D01*
X14436884Y-38354156D01*
X14647760Y-38441504D01*
X14657145Y-38444553D01*
X14879091Y-38497838D01*
X14888838Y-38499381D01*
X15116391Y-38517290D01*
X15126251Y-38517290D01*
X15353804Y-38499381D01*
X15363551Y-38497838D01*
X15585497Y-38444553D01*
X15594882Y-38441504D01*
X15805758Y-38354156D01*
X15814552Y-38349675D01*
X15983404Y-38246203D01*
X15992358Y-38236306D01*
X18049845Y-38236306D01*
X18055572Y-38243956D01*
X18228090Y-38349675D01*
X18236884Y-38354156D01*
X18447760Y-38441504D01*
X18457145Y-38444553D01*
X18679091Y-38497838D01*
X18688838Y-38499381D01*
X18916391Y-38517290D01*
X18926251Y-38517290D01*
X19153804Y-38499381D01*
X19163551Y-38497838D01*
X19385497Y-38444553D01*
X19394882Y-38441504D01*
X19605758Y-38354156D01*
X19614552Y-38349675D01*
X19783404Y-38246203D01*
X19792864Y-38235747D01*
X19789080Y-38226969D01*
X18934133Y-37372022D01*
X18920189Y-37364408D01*
X18918356Y-37364539D01*
X18911741Y-37368790D01*
X18056605Y-38223926D01*
X18049845Y-38236306D01*
X15992358Y-38236306D01*
X15992864Y-38235747D01*
X15989080Y-38226969D01*
X15134133Y-37372022D01*
X15120189Y-37364408D01*
X15118356Y-37364539D01*
X15111741Y-37368790D01*
X14256605Y-38223926D01*
X14249845Y-38236306D01*
X13858500Y-38236306D01*
X13858500Y-37955801D01*
X13878502Y-37887680D01*
X13895405Y-37866706D01*
X14749299Y-37012812D01*
X14755677Y-37001132D01*
X15485729Y-37001132D01*
X15485860Y-37002965D01*
X15490111Y-37009580D01*
X16345247Y-37864716D01*
X16357627Y-37871476D01*
X16365277Y-37865749D01*
X16470996Y-37693231D01*
X16475477Y-37684437D01*
X16562825Y-37473561D01*
X16565874Y-37464176D01*
X16619159Y-37242230D01*
X16620702Y-37232483D01*
X16638611Y-37004930D01*
X17404031Y-37004930D01*
X17421940Y-37232483D01*
X17423483Y-37242230D01*
X17476768Y-37464176D01*
X17479817Y-37473561D01*
X17567165Y-37684437D01*
X17571646Y-37693231D01*
X17675118Y-37862083D01*
X17685574Y-37871543D01*
X17694352Y-37867759D01*
X18549299Y-37012812D01*
X18556913Y-36998868D01*
X18556782Y-36997035D01*
X18552531Y-36990420D01*
X17697395Y-36135284D01*
X17685015Y-36128524D01*
X17677365Y-36134251D01*
X17571646Y-36306769D01*
X17567165Y-36315563D01*
X17479817Y-36526439D01*
X17476768Y-36535824D01*
X17423483Y-36757770D01*
X17421940Y-36767517D01*
X17404031Y-36995070D01*
X17404031Y-37004930D01*
X16638611Y-37004930D01*
X16638611Y-36995070D01*
X16620702Y-36767517D01*
X16619159Y-36757770D01*
X16565874Y-36535824D01*
X16562825Y-36526439D01*
X16475477Y-36315563D01*
X16470996Y-36306769D01*
X16367524Y-36137917D01*
X16357068Y-36128457D01*
X16348290Y-36132241D01*
X15493343Y-36987188D01*
X15485729Y-37001132D01*
X14755677Y-37001132D01*
X14756913Y-36998868D01*
X14756782Y-36997035D01*
X14752531Y-36990420D01*
X13895405Y-36133294D01*
X13861379Y-36070982D01*
X13858500Y-36044199D01*
X13858500Y-35626000D01*
X13878502Y-35557879D01*
X13932158Y-35511386D01*
X13984500Y-35500000D01*
X14226635Y-35500000D01*
X14294756Y-35520002D01*
G37*
G04 #@! TD.AperFunction*
G04 #@! TA.AperFunction,Conductor*
G36*
X74942121Y-22020002D02*
G01*
X74988614Y-22073658D01*
X75000000Y-22126000D01*
X75000000Y-32576040D01*
X74979998Y-32644161D01*
X74926342Y-32690654D01*
X74856068Y-32700758D01*
X74795908Y-32674922D01*
X74648139Y-32558222D01*
X74639552Y-32552517D01*
X74453117Y-32449599D01*
X74443705Y-32445369D01*
X74242959Y-32374280D01*
X74232988Y-32371646D01*
X74161837Y-32358972D01*
X74148540Y-32360432D01*
X74144000Y-32374989D01*
X74144000Y-35008517D01*
X74148064Y-35022359D01*
X74161478Y-35024393D01*
X74168184Y-35023534D01*
X74178262Y-35021392D01*
X74382255Y-34960191D01*
X74391842Y-34956433D01*
X74583095Y-34862739D01*
X74591945Y-34857464D01*
X74765328Y-34733792D01*
X74773193Y-34727145D01*
X74785060Y-34715319D01*
X74847431Y-34681403D01*
X74918238Y-34686591D01*
X74975000Y-34729237D01*
X74999694Y-34795800D01*
X75000000Y-34804570D01*
X75000000Y-42855219D01*
X74979998Y-42923340D01*
X74926342Y-42969833D01*
X74874344Y-42981219D01*
X68011936Y-42999967D01*
X68011934Y-42999967D01*
X68000000Y-43000000D01*
X66022530Y-43790988D01*
X65975735Y-43800000D01*
X25000000Y-43800000D01*
X25000000Y-46874000D01*
X24979998Y-46942121D01*
X24926342Y-46988614D01*
X24874000Y-47000000D01*
X22126000Y-47000000D01*
X22057879Y-46979998D01*
X22011386Y-46926342D01*
X22000000Y-46874000D01*
X22000000Y-37019668D01*
X22005995Y-36981266D01*
X22636872Y-35009776D01*
X22636872Y-35009774D01*
X22640000Y-35000000D01*
X22593846Y-32000000D01*
X28238557Y-32000000D01*
X28238585Y-32013610D01*
X28239982Y-32690654D01*
X28257126Y-41000000D01*
X30412940Y-41000000D01*
X30476509Y-41017212D01*
X30643143Y-41114584D01*
X30859515Y-41197209D01*
X30864581Y-41198240D01*
X30864582Y-41198240D01*
X30917667Y-41209040D01*
X31086477Y-41243385D01*
X31217145Y-41248176D01*
X31312770Y-41251683D01*
X31312774Y-41251683D01*
X31317934Y-41251872D01*
X31323054Y-41251216D01*
X31323056Y-41251216D01*
X31396091Y-41241860D01*
X31547668Y-41222442D01*
X31552616Y-41220957D01*
X31552623Y-41220956D01*
X31764568Y-41157369D01*
X31769511Y-41155886D01*
X31850057Y-41116427D01*
X31972870Y-41056262D01*
X31972873Y-41056260D01*
X31977505Y-41053991D01*
X31981703Y-41050996D01*
X31981709Y-41050993D01*
X32020363Y-41023421D01*
X32093531Y-41000000D01*
X32912940Y-41000000D01*
X32976509Y-41017212D01*
X33143143Y-41114584D01*
X33359515Y-41197209D01*
X33364581Y-41198240D01*
X33364582Y-41198240D01*
X33417667Y-41209040D01*
X33586477Y-41243385D01*
X33717145Y-41248176D01*
X33812770Y-41251683D01*
X33812774Y-41251683D01*
X33817934Y-41251872D01*
X33823054Y-41251216D01*
X33823056Y-41251216D01*
X33896091Y-41241860D01*
X34047668Y-41222442D01*
X34052616Y-41220957D01*
X34052623Y-41220956D01*
X34264568Y-41157369D01*
X34269511Y-41155886D01*
X34350057Y-41116427D01*
X34472870Y-41056262D01*
X34472873Y-41056260D01*
X34477505Y-41053991D01*
X34481703Y-41050996D01*
X34481709Y-41050993D01*
X34520363Y-41023421D01*
X34593531Y-41000000D01*
X35412940Y-41000000D01*
X35476509Y-41017212D01*
X35643143Y-41114584D01*
X35859515Y-41197209D01*
X35864581Y-41198240D01*
X35864582Y-41198240D01*
X35917667Y-41209040D01*
X36086477Y-41243385D01*
X36217145Y-41248176D01*
X36312770Y-41251683D01*
X36312774Y-41251683D01*
X36317934Y-41251872D01*
X36323054Y-41251216D01*
X36323056Y-41251216D01*
X36396091Y-41241860D01*
X36547668Y-41222442D01*
X36552616Y-41220957D01*
X36552623Y-41220956D01*
X36764568Y-41157369D01*
X36769511Y-41155886D01*
X36850057Y-41116427D01*
X36972870Y-41056262D01*
X36972873Y-41056260D01*
X36977505Y-41053991D01*
X36981703Y-41050996D01*
X36981709Y-41050993D01*
X37020363Y-41023421D01*
X37093531Y-41000000D01*
X65910000Y-41000000D01*
X65910028Y-40986520D01*
X65924520Y-33957966D01*
X72558257Y-33957966D01*
X72588565Y-34092446D01*
X72591645Y-34102275D01*
X72671770Y-34299603D01*
X72676413Y-34308794D01*
X72787694Y-34490388D01*
X72793777Y-34498699D01*
X72933213Y-34659667D01*
X72940580Y-34666883D01*
X73104434Y-34802916D01*
X73112881Y-34808831D01*
X73296756Y-34916279D01*
X73306042Y-34920729D01*
X73505001Y-34996703D01*
X73514899Y-34999579D01*
X73618250Y-35020606D01*
X73632299Y-35019410D01*
X73636000Y-35009065D01*
X73636000Y-33962115D01*
X73631525Y-33946876D01*
X73630135Y-33945671D01*
X73622452Y-33944000D01*
X72573225Y-33944000D01*
X72559694Y-33947973D01*
X72558257Y-33957966D01*
X65924520Y-33957966D01*
X65925621Y-33424183D01*
X72554389Y-33424183D01*
X72555912Y-33432607D01*
X72568292Y-33436000D01*
X73617885Y-33436000D01*
X73633124Y-33431525D01*
X73634329Y-33430135D01*
X73636000Y-33422452D01*
X73636000Y-32373102D01*
X73632082Y-32359758D01*
X73617806Y-32357771D01*
X73579324Y-32363660D01*
X73569288Y-32366051D01*
X73366868Y-32432212D01*
X73357359Y-32436209D01*
X73168463Y-32534542D01*
X73159738Y-32540036D01*
X72989433Y-32667905D01*
X72981726Y-32674748D01*
X72834590Y-32828717D01*
X72828104Y-32836727D01*
X72708098Y-33012649D01*
X72703000Y-33021623D01*
X72613338Y-33214783D01*
X72609775Y-33224470D01*
X72554389Y-33424183D01*
X65925621Y-33424183D01*
X65928520Y-32018117D01*
X65928520Y-32018116D01*
X65928557Y-32000000D01*
X28238557Y-32000000D01*
X22593846Y-32000000D01*
X22441968Y-22127937D01*
X22460920Y-22059518D01*
X22513854Y-22012205D01*
X22567953Y-22000000D01*
X74874000Y-22000000D01*
X74942121Y-22020002D01*
G37*
G04 #@! TD.AperFunction*
M02*
