G04 #@! TF.GenerationSoftware,KiCad,Pcbnew,(6.0.4)*
G04 #@! TF.CreationDate,2022-04-25T16:44:11-05:00*
G04 #@! TF.ProjectId,FireflyV1,46697265-666c-4795-9631-2e6b69636164,rev?*
G04 #@! TF.SameCoordinates,Original*
G04 #@! TF.FileFunction,Copper,L1,Top*
G04 #@! TF.FilePolarity,Positive*
%FSLAX46Y46*%
G04 Gerber Fmt 4.6, Leading zero omitted, Abs format (unit mm)*
G04 Created by KiCad (PCBNEW (6.0.4)) date 2022-04-25 16:44:11*
%MOMM*%
%LPD*%
G01*
G04 APERTURE LIST*
G04 Aperture macros list*
%AMRoundRect*
0 Rectangle with rounded corners*
0 $1 Rounding radius*
0 $2 $3 $4 $5 $6 $7 $8 $9 X,Y pos of 4 corners*
0 Add a 4 corners polygon primitive as box body*
4,1,4,$2,$3,$4,$5,$6,$7,$8,$9,$2,$3,0*
0 Add four circle primitives for the rounded corners*
1,1,$1+$1,$2,$3*
1,1,$1+$1,$4,$5*
1,1,$1+$1,$6,$7*
1,1,$1+$1,$8,$9*
0 Add four rect primitives between the rounded corners*
20,1,$1+$1,$2,$3,$4,$5,0*
20,1,$1+$1,$4,$5,$6,$7,0*
20,1,$1+$1,$6,$7,$8,$9,0*
20,1,$1+$1,$8,$9,$2,$3,0*%
%AMHorizOval*
0 Thick line with rounded ends*
0 $1 width*
0 $2 $3 position (X,Y) of the first rounded end (center of the circle)*
0 $4 $5 position (X,Y) of the second rounded end (center of the circle)*
0 Add line between two ends*
20,1,$1,$2,$3,$4,$5,0*
0 Add two circle primitives to create the rounded ends*
1,1,$1,$2,$3*
1,1,$1,$4,$5*%
G04 Aperture macros list end*
G04 #@! TA.AperFunction,SMDPad,CuDef*
%ADD10R,1.400000X0.950000*%
G04 #@! TD*
G04 #@! TA.AperFunction,ComponentPad*
%ADD11C,1.800000*%
G04 #@! TD*
G04 #@! TA.AperFunction,ComponentPad*
%ADD12C,4.800000*%
G04 #@! TD*
G04 #@! TA.AperFunction,ComponentPad*
%ADD13R,1.700000X1.700000*%
G04 #@! TD*
G04 #@! TA.AperFunction,ComponentPad*
%ADD14O,1.700000X1.700000*%
G04 #@! TD*
G04 #@! TA.AperFunction,SMDPad,CuDef*
%ADD15R,1.200000X0.700000*%
G04 #@! TD*
G04 #@! TA.AperFunction,SMDPad,CuDef*
%ADD16R,1.200000X0.760000*%
G04 #@! TD*
G04 #@! TA.AperFunction,SMDPad,CuDef*
%ADD17R,1.200000X0.800000*%
G04 #@! TD*
G04 #@! TA.AperFunction,ComponentPad*
%ADD18C,2.010000*%
G04 #@! TD*
G04 #@! TA.AperFunction,SMDPad,CuDef*
%ADD19RoundRect,0.337500X1.662500X0.337500X-1.662500X0.337500X-1.662500X-0.337500X1.662500X-0.337500X0*%
G04 #@! TD*
G04 #@! TA.AperFunction,SMDPad,CuDef*
%ADD20R,0.700000X1.200000*%
G04 #@! TD*
G04 #@! TA.AperFunction,SMDPad,CuDef*
%ADD21R,0.760000X1.200000*%
G04 #@! TD*
G04 #@! TA.AperFunction,SMDPad,CuDef*
%ADD22R,0.800000X1.200000*%
G04 #@! TD*
G04 #@! TA.AperFunction,SMDPad,CuDef*
%ADD23R,1.700000X3.500000*%
G04 #@! TD*
G04 #@! TA.AperFunction,SMDPad,CuDef*
%ADD24R,3.500000X1.700000*%
G04 #@! TD*
G04 #@! TA.AperFunction,SMDPad,CuDef*
%ADD25R,0.950000X1.400000*%
G04 #@! TD*
G04 #@! TA.AperFunction,ComponentPad*
%ADD26C,4.460000*%
G04 #@! TD*
G04 #@! TA.AperFunction,SMDPad,CuDef*
%ADD27RoundRect,0.500000X-0.500000X1.500000X-0.500000X-1.500000X0.500000X-1.500000X0.500000X1.500000X0*%
G04 #@! TD*
G04 #@! TA.AperFunction,SMDPad,CuDef*
%ADD28C,0.910000*%
G04 #@! TD*
G04 #@! TA.AperFunction,SMDPad,CuDef*
%ADD29HorizOval,0.910000X-0.070711X0.070711X0.070711X-0.070711X0*%
G04 #@! TD*
G04 #@! TA.AperFunction,SMDPad,CuDef*
%ADD30R,1.470000X1.020000*%
G04 #@! TD*
G04 #@! TA.AperFunction,ViaPad*
%ADD31C,1.500000*%
G04 #@! TD*
G04 #@! TA.AperFunction,Conductor*
%ADD32C,0.300000*%
G04 #@! TD*
G04 #@! TA.AperFunction,Conductor*
%ADD33C,1.000000*%
G04 #@! TD*
G04 #@! TA.AperFunction,Conductor*
%ADD34C,0.700000*%
G04 #@! TD*
G04 #@! TA.AperFunction,Conductor*
%ADD35C,1.500000*%
G04 #@! TD*
G04 #@! TA.AperFunction,Conductor*
%ADD36C,1.300000*%
G04 #@! TD*
G04 #@! TA.AperFunction,Conductor*
%ADD37C,2.000000*%
G04 #@! TD*
G04 #@! TA.AperFunction,Conductor*
%ADD38C,0.500000*%
G04 #@! TD*
G04 APERTURE END LIST*
D10*
X25000000Y-41750000D03*
X25000000Y-39850000D03*
D11*
X61873821Y-39320000D03*
X56873821Y-39320000D03*
X59373821Y-39320000D03*
X61873821Y-53820000D03*
X56873821Y-53820000D03*
D12*
X53773821Y-46820000D03*
X64973821Y-46820000D03*
D13*
X21000000Y-24660000D03*
D14*
X21000000Y-27200000D03*
X21000000Y-29740000D03*
X21000000Y-32280000D03*
D15*
X19001321Y-40820000D03*
D16*
X19001321Y-42840000D03*
D17*
X19001321Y-44070000D03*
D15*
X19001321Y-41820000D03*
D16*
X19001321Y-39800000D03*
D17*
X19001321Y-38570000D03*
D18*
X18921321Y-37000000D03*
X15121321Y-37000000D03*
X15121321Y-45640000D03*
X18921321Y-45640000D03*
D19*
X16093821Y-31540000D03*
X16093821Y-29840000D03*
X16093821Y-28140000D03*
D15*
X70593821Y-49720000D03*
D16*
X70593821Y-47700000D03*
D17*
X70593821Y-46470000D03*
D15*
X70593821Y-48720000D03*
D16*
X70593821Y-50740000D03*
D17*
X70593821Y-51970000D03*
D18*
X70673821Y-53540000D03*
X74473821Y-53540000D03*
X74473821Y-44900000D03*
X70673821Y-44900000D03*
D20*
X19133821Y-50002500D03*
D21*
X21153821Y-50002500D03*
D22*
X22383821Y-50002500D03*
D20*
X20133821Y-50002500D03*
D21*
X18113821Y-50002500D03*
D22*
X16883821Y-50002500D03*
D18*
X15313821Y-50082500D03*
X15313821Y-53882500D03*
X23953821Y-53882500D03*
X23953821Y-50082500D03*
D13*
X20703821Y-20250000D03*
D14*
X18163821Y-20250000D03*
X15623821Y-20250000D03*
D23*
X73890000Y-15010000D03*
X71350000Y-15010000D03*
X68810000Y-15010000D03*
X66270000Y-15010000D03*
X63730000Y-15010000D03*
X61190000Y-15010000D03*
X58650000Y-15010000D03*
X56110000Y-15010000D03*
X53570000Y-15010000D03*
X51030000Y-15010000D03*
X48490000Y-15010000D03*
X45950000Y-15010000D03*
X43410000Y-15010000D03*
X40870000Y-15010000D03*
X38330000Y-15010000D03*
X35790000Y-15010000D03*
X33250000Y-15010000D03*
X30710000Y-15010000D03*
X28170000Y-15010000D03*
X25630000Y-15010000D03*
X25630000Y-34590000D03*
X28170000Y-34590000D03*
X30710000Y-34590000D03*
X33250000Y-34590000D03*
X35790000Y-34590000D03*
X38330000Y-34590000D03*
D14*
X38330000Y-33650000D03*
X40870000Y-33690000D03*
D23*
X40870000Y-34590000D03*
X43410000Y-34590000D03*
X45950000Y-34590000D03*
X48490000Y-34590000D03*
X51030000Y-34590000D03*
D14*
X53570000Y-33690000D03*
D23*
X53570000Y-34590000D03*
X56110000Y-34590000D03*
X58650000Y-34590000D03*
X61190000Y-34590000D03*
D14*
X63730000Y-33690000D03*
D23*
X63730000Y-34590000D03*
X66270000Y-34590000D03*
X68810000Y-34590000D03*
X71350000Y-34590000D03*
D14*
X73890000Y-33690000D03*
D23*
X73890000Y-34590000D03*
D24*
X24960000Y-22260000D03*
X24960000Y-24800000D03*
X24960000Y-27340000D03*
D10*
X47160000Y-38160000D03*
X47160000Y-40060000D03*
D25*
X21850000Y-37800000D03*
X23750000Y-37800000D03*
D11*
X36253821Y-39840000D03*
X33753821Y-39840000D03*
X31253821Y-39840000D03*
D26*
X38153821Y-46840000D03*
X29353821Y-46840000D03*
D27*
X21143821Y-15270000D03*
X18143821Y-15270000D03*
X15143821Y-15270000D03*
D28*
X45900000Y-46240000D03*
X45900000Y-44590000D03*
X45900000Y-42940000D03*
X43560000Y-42940000D03*
X43560000Y-44590000D03*
D29*
X43660000Y-46140000D03*
D30*
X48970000Y-47230000D03*
X48970000Y-45630000D03*
D10*
X42520000Y-38160000D03*
X42520000Y-40060000D03*
D30*
X44470000Y-38310000D03*
X44470000Y-39910000D03*
X49200000Y-38310000D03*
X49200000Y-39910000D03*
D31*
X69569264Y-39000000D03*
X25000000Y-19560000D03*
X23000000Y-42000000D03*
X23000000Y-45900000D03*
X74000000Y-39000000D03*
X74000000Y-42000000D03*
X23000000Y-40000000D03*
X23000000Y-44000000D03*
X69730000Y-41940000D03*
X38574625Y-39074125D03*
D32*
X44570000Y-37050000D02*
X45950000Y-35670000D01*
X45950000Y-35670000D02*
X45950000Y-33690000D01*
X43630000Y-37050000D02*
X44570000Y-37050000D01*
X42520000Y-38160000D02*
X43630000Y-37050000D01*
D33*
X21400000Y-39800000D02*
X23000000Y-41400000D01*
X20600000Y-39800000D02*
X21400000Y-39800000D01*
X23000000Y-41400000D02*
X23000000Y-42000000D01*
X20600000Y-39800000D02*
X22800000Y-39800000D01*
X22800000Y-39800000D02*
X23000000Y-40000000D01*
D34*
X20600000Y-39800000D02*
X19001321Y-39800000D01*
D35*
X21153821Y-47746179D02*
X23000000Y-45900000D01*
D33*
X21153821Y-48220000D02*
X21153821Y-47746179D01*
X21840000Y-42840000D02*
X23000000Y-44000000D01*
X22680000Y-42000000D02*
X23000000Y-42000000D01*
X21840000Y-42840000D02*
X22680000Y-42000000D01*
D35*
X23000000Y-40000000D02*
X23000000Y-45900000D01*
D32*
X22200000Y-36400000D02*
X22200000Y-30940000D01*
X22200000Y-30940000D02*
X21000000Y-29740000D01*
X21850000Y-37800000D02*
X21850000Y-36750000D01*
X21850000Y-36750000D02*
X22200000Y-36400000D01*
X24750000Y-34570000D02*
X23750000Y-35570000D01*
X23750000Y-35570000D02*
X23750000Y-37800000D01*
X25630000Y-34570000D02*
X24750000Y-34570000D01*
X24290489Y-32490489D02*
X23299520Y-31499520D01*
X23299520Y-31499520D02*
X23299520Y-30299520D01*
X23299520Y-30299520D02*
X22200000Y-29200000D01*
X22200000Y-29200000D02*
X22200000Y-26400000D01*
X26829511Y-32490489D02*
X24290489Y-32490489D01*
X22200000Y-26400000D02*
X21800000Y-26000000D01*
X26829511Y-38020489D02*
X26829511Y-32490489D01*
X25000000Y-39850000D02*
X26829511Y-38020489D01*
X27800000Y-34060000D02*
X27800000Y-38950000D01*
X27800000Y-38950000D02*
X25000000Y-41750000D01*
X28170000Y-33690000D02*
X27800000Y-34060000D01*
X23200000Y-28800000D02*
X22800000Y-28800000D01*
X26200000Y-31800000D02*
X23200000Y-28800000D01*
X28170000Y-32970000D02*
X27000000Y-31800000D01*
X28170000Y-33690000D02*
X28170000Y-32970000D01*
X27000000Y-31800000D02*
X26200000Y-31800000D01*
X22800000Y-32600000D02*
X24800000Y-34600000D01*
X21940000Y-29740000D02*
X22800000Y-30600000D01*
X22800000Y-30600000D02*
X22800000Y-32600000D01*
X16193821Y-29740000D02*
X21940000Y-29740000D01*
X16093821Y-29840000D02*
X16193821Y-29740000D01*
X18163821Y-24789022D02*
X18163821Y-15290000D01*
X19294799Y-25920000D02*
X18163821Y-24789022D01*
X22750000Y-25920000D02*
X19294799Y-25920000D01*
X22750000Y-28750000D02*
X22750000Y-25920000D01*
X18163821Y-15290000D02*
X18143821Y-15270000D01*
X22860489Y-18679511D02*
X22860489Y-20953332D01*
X21000000Y-22813821D02*
X21000000Y-24660000D01*
X25630000Y-15910000D02*
X22860489Y-18679511D01*
X22860489Y-20953332D02*
X21000000Y-22813821D01*
D36*
X21000000Y-32280000D02*
X16833821Y-32280000D01*
D35*
X15623821Y-25790000D02*
X17033821Y-27200000D01*
X15623821Y-20250000D02*
X15623821Y-25790000D01*
D33*
X15623821Y-15750000D02*
X15143821Y-15270000D01*
X15623821Y-20250000D02*
X15623821Y-15750000D01*
X20703821Y-15710000D02*
X21143821Y-15270000D01*
X20703821Y-20250000D02*
X20703821Y-15710000D01*
D35*
X69375000Y-41585000D02*
X69375000Y-39515736D01*
D33*
X69375000Y-39515736D02*
X69730000Y-39160736D01*
X69730000Y-41940000D02*
X69375000Y-41585000D01*
X69730000Y-39160736D02*
X69569264Y-39000000D01*
D34*
X70593821Y-53460000D02*
X70673821Y-53540000D01*
D36*
X29353821Y-46840000D02*
X29110000Y-46596179D01*
D34*
X18921321Y-38490000D02*
X19001321Y-38570000D01*
D32*
X53773821Y-50720000D02*
X56873821Y-53820000D01*
D36*
X30710000Y-36349022D02*
X30710000Y-33690000D01*
D34*
X22463821Y-50082500D02*
X22383821Y-50002500D01*
D32*
X59373821Y-39320000D02*
X56110000Y-36056179D01*
D35*
X29110000Y-37949022D02*
X30710000Y-36349022D01*
D37*
X25000000Y-19560000D02*
X27633821Y-19560000D01*
D35*
X38640000Y-30550000D02*
X39320000Y-31230000D01*
D32*
X36253821Y-39840000D02*
X36253821Y-41073821D01*
X50060000Y-45630000D02*
X49314022Y-45630000D01*
D33*
X16833821Y-32280000D02*
X16093821Y-31540000D01*
D37*
X39320000Y-31230000D02*
X43420000Y-31230000D01*
D32*
X45770000Y-39365000D02*
X44695000Y-38290000D01*
D33*
X70673821Y-43326179D02*
X72000000Y-42000000D01*
D34*
X18921321Y-44150000D02*
X19001321Y-44070000D01*
D32*
X38153821Y-42973821D02*
X38153821Y-46840000D01*
X43410000Y-33690000D02*
X43410000Y-31240000D01*
X49314022Y-45630000D02*
X46530000Y-45630000D01*
X56110000Y-31340000D02*
X56220000Y-31230000D01*
D33*
X70673821Y-44900000D02*
X70673821Y-43326179D01*
D35*
X68810000Y-32630978D02*
X68810000Y-33690000D01*
D34*
X18921321Y-37000000D02*
X18921321Y-38490000D01*
X70593821Y-44980000D02*
X70673821Y-44900000D01*
D37*
X27633821Y-19560000D02*
X38743821Y-30670000D01*
D32*
X36253821Y-41073821D02*
X38153821Y-42973821D01*
X53773821Y-46820000D02*
X51250000Y-46820000D01*
D34*
X18921321Y-45640000D02*
X18921321Y-44150000D01*
D35*
X29110000Y-46596179D02*
X29110000Y-37949022D01*
D34*
X70593821Y-46470000D02*
X70593821Y-44980000D01*
D32*
X53773821Y-46820000D02*
X53773821Y-50720000D01*
X46530000Y-45630000D02*
X45770000Y-46390000D01*
D34*
X16803821Y-50082500D02*
X16883821Y-50002500D01*
D37*
X56220000Y-31230000D02*
X67409022Y-31230000D01*
D32*
X56110000Y-36056179D02*
X56110000Y-33690000D01*
X51250000Y-46820000D02*
X50060000Y-45630000D01*
X44695000Y-38290000D02*
X44470000Y-38290000D01*
X46220000Y-41040000D02*
X45770000Y-40590000D01*
X56110000Y-35349022D02*
X53149022Y-38310000D01*
X45770000Y-40590000D02*
X45770000Y-39365000D01*
X56110000Y-33690000D02*
X56110000Y-35349022D01*
D35*
X67409022Y-31230000D02*
X68810000Y-32630978D01*
D32*
X57653821Y-41040000D02*
X46220000Y-41040000D01*
D34*
X23953821Y-50082500D02*
X22463821Y-50082500D01*
D32*
X59373821Y-39320000D02*
X57653821Y-41040000D01*
D34*
X70593821Y-51970000D02*
X70593821Y-53460000D01*
D37*
X43420000Y-31230000D02*
X56220000Y-31230000D01*
D33*
X68810000Y-35810000D02*
X68810000Y-33690000D01*
D32*
X43410000Y-31240000D02*
X43420000Y-31230000D01*
X49314022Y-45630000D02*
X48970000Y-45630000D01*
D35*
X30710000Y-22636179D02*
X30710000Y-33690000D01*
D33*
X72000000Y-42000000D02*
X72000000Y-39000000D01*
D32*
X56110000Y-33690000D02*
X56110000Y-31340000D01*
X45900000Y-46240000D02*
X45900000Y-42940000D01*
X53149022Y-38310000D02*
X49300000Y-38310000D01*
D34*
X15313821Y-50082500D02*
X16803821Y-50082500D01*
D35*
X27633821Y-19560000D02*
X30710000Y-22636179D01*
D33*
X72000000Y-39000000D02*
X68810000Y-35810000D01*
D32*
X39800000Y-40830000D02*
X43560000Y-44590000D01*
X38330000Y-35640000D02*
X39800000Y-37110000D01*
X39800000Y-37110000D02*
X39800000Y-40830000D01*
X38330000Y-33690000D02*
X38330000Y-35640000D01*
X41060000Y-40440000D02*
X43560000Y-42940000D01*
X41060000Y-33880000D02*
X41060000Y-40440000D01*
X40870000Y-33690000D02*
X41060000Y-33880000D01*
X51030000Y-35440000D02*
X51030000Y-33690000D01*
X49670000Y-36800000D02*
X51030000Y-35440000D01*
X48320000Y-36800000D02*
X49670000Y-36800000D01*
X47210000Y-37910000D02*
X48320000Y-36800000D01*
X58650000Y-33690000D02*
X58650000Y-36196179D01*
X63060000Y-37320000D02*
X63873821Y-38133821D01*
X61873821Y-43220000D02*
X61873821Y-53820000D01*
X63873821Y-38133821D02*
X63873821Y-41220000D01*
X59773821Y-37320000D02*
X63060000Y-37320000D01*
X58650000Y-36196179D02*
X59773821Y-37320000D01*
X63873821Y-41220000D02*
X61873821Y-43220000D01*
D34*
X21840000Y-42840000D02*
X19001321Y-42840000D01*
D33*
X72703821Y-50546179D02*
X72703821Y-46890000D01*
D34*
X68525000Y-50625000D02*
X68640000Y-50740000D01*
D33*
X72625000Y-50625000D02*
X72703821Y-50546179D01*
D34*
X71775000Y-47700000D02*
X72585000Y-46890000D01*
D33*
X74000000Y-42000000D02*
X74000000Y-42500000D01*
D34*
X70593821Y-47700000D02*
X69200000Y-47700000D01*
D33*
X69730000Y-41940000D02*
X68430000Y-43240000D01*
D36*
X20720000Y-27200000D02*
X17033821Y-27200000D01*
D33*
X72575000Y-43925000D02*
X72575000Y-46761179D01*
X68525000Y-50625000D02*
X68393821Y-50493821D01*
X68393821Y-50493821D02*
X68393821Y-46529022D01*
X74000000Y-42000000D02*
X74000000Y-39000000D01*
D34*
X69200000Y-47700000D02*
X68393821Y-46893821D01*
D33*
X72575000Y-46761179D02*
X72703821Y-46890000D01*
D34*
X70593821Y-47700000D02*
X71775000Y-47700000D01*
X72625000Y-50625000D02*
X72480489Y-50769511D01*
D33*
X68430000Y-43240000D02*
X68430000Y-46492843D01*
D34*
X68430000Y-46492843D02*
X68393821Y-46529022D01*
X72480489Y-50769511D02*
X70593821Y-50769511D01*
D33*
X74000000Y-42500000D02*
X72575000Y-43925000D01*
X74000000Y-39000000D02*
X74000000Y-33800000D01*
D34*
X18113821Y-48702500D02*
X18596321Y-48220000D01*
D36*
X17033821Y-27200000D02*
X16093821Y-28140000D01*
D34*
X18113821Y-50002500D02*
X18113821Y-48702500D01*
X21153821Y-50002500D02*
X21153821Y-48220000D01*
D33*
X18596321Y-48220000D02*
X21153821Y-48220000D01*
D34*
X68640000Y-50740000D02*
X70593821Y-50740000D01*
D33*
X74000000Y-33800000D02*
X73890000Y-33690000D01*
D34*
X68393821Y-46893821D02*
X68393821Y-46529022D01*
D32*
X45030000Y-47510000D02*
X43660000Y-46140000D01*
D38*
X38574625Y-39074125D02*
X38574625Y-41174625D01*
D32*
X48970000Y-47230000D02*
X48690000Y-47510000D01*
D34*
X38574625Y-39074125D02*
X37160500Y-37660000D01*
X33433821Y-37660000D02*
X31253821Y-39840000D01*
D32*
X48690000Y-47510000D02*
X45030000Y-47510000D01*
D38*
X38574625Y-41174625D02*
X43540000Y-46140000D01*
D34*
X37160500Y-37660000D02*
X33433821Y-37660000D01*
X43540000Y-46140000D02*
X43660000Y-46140000D01*
D32*
X44470000Y-39890000D02*
X42730000Y-39890000D01*
X61873821Y-39320000D02*
X59513821Y-41680000D01*
X59513821Y-41680000D02*
X45540000Y-41680000D01*
X45540000Y-41680000D02*
X44470000Y-40610000D01*
X42730000Y-39890000D02*
X42520000Y-40100000D01*
X44470000Y-40610000D02*
X44470000Y-39890000D01*
X52740000Y-39320000D02*
X52150000Y-39910000D01*
X49300000Y-39910000D02*
X47170000Y-39910000D01*
X47170000Y-39910000D02*
X47160000Y-39920000D01*
X56873821Y-39320000D02*
X52740000Y-39320000D01*
X52150000Y-39910000D02*
X49300000Y-39910000D01*
M02*
