%FSLAX45Y45*%
G04 Gerber Fmt 4.5, Leading zero omitted, Abs format (unit mm)*
G04 Created by KiCad (PCBNEW (6.0.4)) date 2022-09-10 18:37:36*
%MOMM*%
%LPD*%
G01*
G04 APERTURE LIST*
%TA.AperFunction,Profile*%
%ADD10C,0.100000*%
%TD*%
%ADD11C,0.200000*%
%ADD12C,0.030000*%
%ADD13C,0.070000*%
%ADD14C,0.120000*%
%ADD15C,0.328000*%
G04 APERTURE END LIST*
D10*
X25990000Y-12640000D02*
G75*
G03*
X25990000Y-12640000I-13200000J0D01*
G01*
D11*
D12*
X821900Y-15905700D02*
X851900Y-15935700D01*
X851900Y-15905700D02*
X821900Y-15935700D01*
X860870Y-10703570D02*
X890870Y-10733570D01*
X890870Y-10703570D02*
X860870Y-10733570D01*
X923500Y-9708100D02*
X953500Y-9738100D01*
X953500Y-9708100D02*
X923500Y-9738100D01*
X1520400Y-11536900D02*
X1550400Y-11566900D01*
X1550400Y-11536900D02*
X1520400Y-11566900D01*
X1583900Y-14229300D02*
X1613900Y-14259300D01*
X1613900Y-14229300D02*
X1583900Y-14259300D01*
X2231600Y-17340800D02*
X2261600Y-17370800D01*
X2261600Y-17340800D02*
X2231600Y-17370800D01*
X2285000Y-17015000D02*
X2315000Y-17045000D01*
X2315000Y-17015000D02*
X2285000Y-17045000D01*
X2345900Y-8336500D02*
X2375900Y-8366500D01*
X2375900Y-8336500D02*
X2345900Y-8366500D01*
X3438100Y-14407100D02*
X3468100Y-14437100D01*
X3468100Y-14407100D02*
X3438100Y-14437100D01*
X3501600Y-11270200D02*
X3531600Y-11300200D01*
X3531600Y-11270200D02*
X3501600Y-11300200D01*
X3755600Y-19804600D02*
X3785600Y-19834600D01*
X3785600Y-19804600D02*
X3755600Y-19834600D01*
X3793700Y-5936200D02*
X3823700Y-5966200D01*
X3823700Y-5936200D02*
X3793700Y-5966200D01*
X3793700Y-16274000D02*
X3823700Y-16304000D01*
X3823700Y-16274000D02*
X3793700Y-16304000D01*
X4047700Y-9327100D02*
X4077700Y-9357100D01*
X4077700Y-9327100D02*
X4047700Y-9357100D01*
X4123900Y-4005800D02*
X4153900Y-4035800D01*
X4153900Y-4005800D02*
X4123900Y-4035800D01*
X4187400Y-21823900D02*
X4217400Y-21853900D01*
X4217400Y-21823900D02*
X4187400Y-21853900D01*
X5381200Y-12845000D02*
X5411200Y-12875000D01*
X5411200Y-12845000D02*
X5381200Y-12875000D01*
X5393900Y-18915600D02*
X5423900Y-18945600D01*
X5423900Y-18915600D02*
X5393900Y-18945600D01*
X5610630Y-11000430D02*
X5640630Y-11030430D01*
X5640630Y-11000430D02*
X5610630Y-11030430D01*
X5660600Y-6710900D02*
X5690600Y-6740900D01*
X5690600Y-6710900D02*
X5660600Y-6740900D01*
X5675000Y-20765000D02*
X5705000Y-20795000D01*
X5705000Y-20765000D02*
X5675000Y-20795000D01*
X5907490Y-6547530D02*
X5937490Y-6577530D01*
X5937490Y-6547530D02*
X5907490Y-6577530D01*
X6067000Y-3675600D02*
X6097000Y-3705600D01*
X6097000Y-3675600D02*
X6067000Y-3705600D01*
X6143200Y-22077900D02*
X6173200Y-22107900D01*
X6173200Y-22077900D02*
X6143200Y-22107900D01*
X6422600Y-9111200D02*
X6452600Y-9141200D01*
X6452600Y-9111200D02*
X6422600Y-9141200D01*
X6473400Y-16642300D02*
X6503400Y-16672300D01*
X6503400Y-16642300D02*
X6473400Y-16672300D01*
X6778200Y-14572200D02*
X6808200Y-14602200D01*
X6808200Y-14572200D02*
X6778200Y-14602200D01*
X6798070Y-17234490D02*
X6828070Y-17264490D01*
X6828070Y-17234490D02*
X6798070Y-17264490D01*
X6829000Y-11181300D02*
X6859000Y-11211300D01*
X6859000Y-11181300D02*
X6829000Y-11211300D01*
X6879800Y-20350700D02*
X6909800Y-20380700D01*
X6909800Y-20350700D02*
X6879800Y-20380700D01*
X6892500Y-5212300D02*
X6922500Y-5242300D01*
X6922500Y-5212300D02*
X6892500Y-5242300D01*
X8416500Y-17378900D02*
X8446500Y-17408900D01*
X8446500Y-17378900D02*
X8416500Y-17408900D01*
X8429200Y-2227800D02*
X8459200Y-2257800D01*
X8459200Y-2227800D02*
X8429200Y-2257800D01*
X8429200Y-8298400D02*
X8459200Y-8328400D01*
X8459200Y-8298400D02*
X8429200Y-8328400D01*
X8429200Y-23449500D02*
X8459200Y-23479500D01*
X8459200Y-23449500D02*
X8429200Y-23479500D01*
X8435000Y-17055000D02*
X8465000Y-17085000D01*
X8465000Y-17055000D02*
X8435000Y-17085000D01*
X8848300Y-14013400D02*
X8878300Y-14043400D01*
X8878300Y-14013400D02*
X8848300Y-14043400D01*
X8899100Y-11740100D02*
X8929100Y-11770100D01*
X8929100Y-11740100D02*
X8899100Y-11770100D01*
X9105000Y-3875000D02*
X9135000Y-3905000D01*
X9135000Y-3875000D02*
X9105000Y-3905000D01*
X9191200Y-19474400D02*
X9221200Y-19504400D01*
X9221200Y-19474400D02*
X9191200Y-19504400D01*
X9225000Y-24995000D02*
X9255000Y-25025000D01*
X9255000Y-24995000D02*
X9225000Y-25025000D01*
X9242000Y-6291800D02*
X9272000Y-6321800D01*
X9272000Y-6291800D02*
X9242000Y-6321800D01*
X9465000Y-9815000D02*
X9495000Y-9845000D01*
X9495000Y-9815000D02*
X9465000Y-9845000D01*
X9584900Y-3866100D02*
X9614900Y-3896100D01*
X9614900Y-3866100D02*
X9584900Y-3896100D01*
X9623000Y-21900100D02*
X9653000Y-21930100D01*
X9653000Y-21900100D02*
X9623000Y-21930100D01*
X9699200Y-24986200D02*
X9729200Y-25016200D01*
X9729200Y-24986200D02*
X9699200Y-25016200D01*
X9775400Y-716500D02*
X9805400Y-746500D01*
X9805400Y-716500D02*
X9775400Y-746500D01*
X9785000Y-395000D02*
X9815000Y-425000D01*
X9815000Y-395000D02*
X9785000Y-425000D01*
X9927800Y-15867600D02*
X9957800Y-15897600D01*
X9957800Y-15867600D02*
X9927800Y-15897600D01*
X9940500Y-9809700D02*
X9970500Y-9839700D01*
X9970500Y-9809700D02*
X9940500Y-9839700D01*
X10985000Y-12825000D02*
X11015000Y-12855000D01*
X11015000Y-12825000D02*
X10985000Y-12855000D01*
X11005000Y-11795000D02*
X11035000Y-11825000D01*
X11035000Y-11795000D02*
X11005000Y-11825000D01*
X11005000Y-13865000D02*
X11035000Y-13895000D01*
X11035000Y-13865000D02*
X11005000Y-13895000D01*
X11005000Y-14925000D02*
X11035000Y-14955000D01*
X11035000Y-14925000D02*
X11005000Y-14955000D01*
X11025000Y-10685000D02*
X11055000Y-10715000D01*
X11055000Y-10685000D02*
X11025000Y-10715000D01*
X11025000Y-14605000D02*
X11055000Y-14635000D01*
X11055000Y-14605000D02*
X11025000Y-14635000D01*
X11337500Y-6698200D02*
X11367500Y-6728200D01*
X11367500Y-6698200D02*
X11337500Y-6728200D01*
X11345000Y-6385000D02*
X11375000Y-6415000D01*
X11375000Y-6385000D02*
X11345000Y-6415000D01*
X11439100Y-19068000D02*
X11469100Y-19098000D01*
X11469100Y-19068000D02*
X11439100Y-19098000D01*
X11477200Y-3281900D02*
X11507200Y-3311900D01*
X11507200Y-3281900D02*
X11477200Y-3311900D01*
X11540700Y-22446200D02*
X11570700Y-22476200D01*
X11570700Y-22446200D02*
X11540700Y-22476200D01*
X11629600Y-24376600D02*
X11659600Y-24406600D01*
X11659600Y-24376600D02*
X11629600Y-24406600D01*
X11667700Y-1389600D02*
X11697700Y-1419600D01*
X11697700Y-1389600D02*
X11667700Y-1419600D01*
X11725000Y-14365000D02*
X11755000Y-14395000D01*
X11755000Y-14365000D02*
X11725000Y-14395000D01*
X11775000Y-10585000D02*
X11805000Y-10615000D01*
X11805000Y-10585000D02*
X11775000Y-10615000D01*
X11883600Y-8768300D02*
X11913600Y-8798300D01*
X11913600Y-8768300D02*
X11883600Y-8798300D01*
X11934400Y-16972500D02*
X11964400Y-17002500D01*
X11964400Y-16972500D02*
X11934400Y-17002500D01*
X12345000Y-12315000D02*
X12375000Y-12345000D01*
X12375000Y-12315000D02*
X12345000Y-12345000D01*
X12345000Y-12615000D02*
X12375000Y-12645000D01*
X12375000Y-12615000D02*
X12345000Y-12645000D01*
X12365000Y-13865000D02*
X12395000Y-13895000D01*
X12395000Y-13865000D02*
X12365000Y-13895000D01*
X12365000Y-14155000D02*
X12395000Y-14185000D01*
X12395000Y-14155000D02*
X12365000Y-14185000D01*
X12485000Y-20407860D02*
X12515000Y-20437860D01*
X12515000Y-20407860D02*
X12485000Y-20437860D01*
X12855000Y-14265000D02*
X12885000Y-14295000D01*
X12885000Y-14265000D02*
X12855000Y-14295000D01*
X12975800Y-5250400D02*
X13005800Y-5280400D01*
X13005800Y-5250400D02*
X12975800Y-5280400D01*
X12975800Y-20414200D02*
X13005800Y-20444200D01*
X13005800Y-20414200D02*
X12975800Y-20444200D01*
X12985000Y-20095000D02*
X13015000Y-20125000D01*
X13015000Y-20095000D02*
X12985000Y-20125000D01*
X13085000Y-12315000D02*
X13115000Y-12345000D01*
X13115000Y-12315000D02*
X13085000Y-12345000D01*
X13095000Y-12615000D02*
X13125000Y-12645000D01*
X13125000Y-12615000D02*
X13095000Y-12645000D01*
X13095000Y-14135000D02*
X13125000Y-14165000D01*
X13125000Y-14135000D02*
X13095000Y-14165000D01*
X13705000Y-14385000D02*
X13735000Y-14415000D01*
X13735000Y-14385000D02*
X13705000Y-14415000D01*
X13725000Y-14655000D02*
X13755000Y-14685000D01*
X13755000Y-14655000D02*
X13725000Y-14685000D01*
X13725000Y-14915000D02*
X13755000Y-14945000D01*
X13755000Y-14915000D02*
X13725000Y-14945000D01*
X13735000Y-10575000D02*
X13765000Y-10605000D01*
X13765000Y-10575000D02*
X13735000Y-10605000D01*
X13765000Y-12875000D02*
X13795000Y-12905000D01*
X13795000Y-12875000D02*
X13765000Y-12905000D01*
X13785000Y-13385000D02*
X13815000Y-13415000D01*
X13815000Y-13385000D02*
X13785000Y-13415000D01*
X13805000Y-13635000D02*
X13835000Y-13665000D01*
X13835000Y-13635000D02*
X13805000Y-13665000D01*
X13825000Y-13885000D02*
X13855000Y-13915000D01*
X13855000Y-13885000D02*
X13825000Y-13915000D01*
X13825000Y-14145000D02*
X13855000Y-14175000D01*
X13855000Y-14145000D02*
X13825000Y-14175000D01*
X14093400Y-17048700D02*
X14123400Y-17078700D01*
X14123400Y-17048700D02*
X14093400Y-17078700D01*
X14144200Y-8717500D02*
X14174200Y-8747500D01*
X14174200Y-8717500D02*
X14144200Y-8747500D01*
X14205000Y-6655000D02*
X14235000Y-6685000D01*
X14235000Y-6655000D02*
X14205000Y-6685000D01*
X14360100Y-1453100D02*
X14390100Y-1483100D01*
X14390100Y-1453100D02*
X14360100Y-1483100D01*
X14461700Y-22471600D02*
X14491700Y-22501600D01*
X14491700Y-22471600D02*
X14461700Y-22501600D01*
X14499800Y-24427400D02*
X14529800Y-24457400D01*
X14529800Y-24427400D02*
X14499800Y-24457400D01*
X14512500Y-3269200D02*
X14542500Y-3299200D01*
X14542500Y-3269200D02*
X14512500Y-3299200D01*
X14614100Y-19118800D02*
X14644100Y-19148800D01*
X14644100Y-19118800D02*
X14614100Y-19148800D01*
X14690300Y-6660100D02*
X14720300Y-6690100D01*
X14720300Y-6660100D02*
X14690300Y-6690100D01*
X15005000Y-14935000D02*
X15035000Y-14965000D01*
X15035000Y-14935000D02*
X15005000Y-14965000D01*
X15015000Y-13875000D02*
X15045000Y-13905000D01*
X15045000Y-13875000D02*
X15015000Y-13905000D01*
X15025000Y-10675000D02*
X15055000Y-10705000D01*
X15055000Y-10675000D02*
X15025000Y-10705000D01*
X15025000Y-12825000D02*
X15055000Y-12855000D01*
X15055000Y-12825000D02*
X15025000Y-12855000D01*
X15035000Y-11785000D02*
X15065000Y-11815000D01*
X15065000Y-11785000D02*
X15035000Y-11815000D01*
X15785000Y-12465000D02*
X15815000Y-12495000D01*
X15815000Y-12465000D02*
X15785000Y-12495000D01*
X15785000Y-12995000D02*
X15815000Y-13025000D01*
X15815000Y-12995000D02*
X15785000Y-13025000D01*
X15785000Y-13135000D02*
X15815000Y-13165000D01*
X15815000Y-13135000D02*
X15785000Y-13165000D01*
X15998400Y-9797000D02*
X16028400Y-9827000D01*
X16028400Y-9797000D02*
X15998400Y-9827000D01*
X15998400Y-15867600D02*
X16028400Y-15897600D01*
X16028400Y-15867600D02*
X15998400Y-15897600D01*
X16005000Y-9475000D02*
X16035000Y-9505000D01*
X16035000Y-9475000D02*
X16005000Y-9505000D01*
X16025000Y-10685000D02*
X16055000Y-10715000D01*
X16055000Y-10685000D02*
X16025000Y-10715000D01*
X16027530Y-24655990D02*
X16057530Y-24685990D01*
X16057530Y-24655990D02*
X16027530Y-24685990D01*
X16138100Y-551400D02*
X16168100Y-581400D01*
X16168100Y-551400D02*
X16138100Y-581400D01*
X16165000Y-13085000D02*
X16195000Y-13115000D01*
X16195000Y-13085000D02*
X16165000Y-13115000D01*
X16305000Y-13005000D02*
X16335000Y-13035000D01*
X16335000Y-13005000D02*
X16305000Y-13035000D01*
X16305000Y-13085000D02*
X16335000Y-13115000D01*
X16335000Y-13085000D02*
X16305000Y-13115000D01*
X16315900Y-24973500D02*
X16345900Y-25003500D01*
X16345900Y-24973500D02*
X16315900Y-25003500D01*
X16544500Y-21963600D02*
X16574500Y-21993600D01*
X16574500Y-21963600D02*
X16544500Y-21993600D01*
X16595300Y-3802600D02*
X16625300Y-3832600D01*
X16625300Y-3802600D02*
X16595300Y-3832600D01*
X16605000Y-3485000D02*
X16635000Y-3515000D01*
X16635000Y-3485000D02*
X16605000Y-3515000D01*
X16785800Y-6342600D02*
X16815800Y-6372600D01*
X16815800Y-6342600D02*
X16785800Y-6372600D01*
X16823900Y-19423600D02*
X16853900Y-19453600D01*
X16853900Y-19423600D02*
X16823900Y-19453600D01*
X17025000Y-17375000D02*
X17055000Y-17405000D01*
X17055000Y-17375000D02*
X17025000Y-17405000D01*
X17128700Y-11778200D02*
X17158700Y-11808200D01*
X17158700Y-11778200D02*
X17128700Y-11808200D01*
X17192200Y-13962600D02*
X17222200Y-13992600D01*
X17222200Y-13962600D02*
X17192200Y-13992600D01*
X17471600Y-1986500D02*
X17501600Y-2016500D01*
X17501600Y-1986500D02*
X17471600Y-2016500D01*
X17509700Y-8285700D02*
X17539700Y-8315700D01*
X17539700Y-8285700D02*
X17509700Y-8315700D01*
X17509700Y-17378900D02*
X17539700Y-17408900D01*
X17539700Y-17378900D02*
X17509700Y-17408900D01*
X17522400Y-23449500D02*
X17552400Y-23479500D01*
X17552400Y-23449500D02*
X17522400Y-23479500D01*
X17535000Y-17065000D02*
X17565000Y-17095000D01*
X17565000Y-17065000D02*
X17535000Y-17095000D01*
X18545000Y-20365000D02*
X18575000Y-20395000D01*
X18575000Y-20365000D02*
X18545000Y-20395000D01*
X18775000Y-14515000D02*
X18805000Y-14545000D01*
X18805000Y-14515000D02*
X18775000Y-14545000D01*
X19033700Y-20363400D02*
X19063700Y-20393400D01*
X19063700Y-20363400D02*
X19033700Y-20393400D01*
X19198800Y-11295600D02*
X19228800Y-11325600D01*
X19228800Y-11295600D02*
X19198800Y-11325600D01*
X19262300Y-14508700D02*
X19292300Y-14538700D01*
X19292300Y-14508700D02*
X19262300Y-14538700D01*
X19275000Y-5453600D02*
X19305000Y-5483600D01*
X19305000Y-5453600D02*
X19275000Y-5483600D01*
X19554400Y-16705800D02*
X19584400Y-16735800D01*
X19584400Y-16705800D02*
X19554400Y-16735800D01*
X19605200Y-9060400D02*
X19635200Y-9090400D01*
X19635200Y-9060400D02*
X19605200Y-9090400D01*
X19910000Y-22166800D02*
X19940000Y-22196800D01*
X19940000Y-22166800D02*
X19910000Y-22196800D01*
X19960800Y-3751800D02*
X19990800Y-3781800D01*
X19990800Y-3751800D02*
X19960800Y-3781800D01*
X20519600Y-6774400D02*
X20549600Y-6804400D01*
X20549600Y-6774400D02*
X20519600Y-6804400D01*
X20525000Y-6465000D02*
X20555000Y-6495000D01*
X20555000Y-6465000D02*
X20525000Y-6495000D01*
X20557700Y-12845000D02*
X20587700Y-12875000D01*
X20587700Y-12845000D02*
X20557700Y-12875000D01*
X20557700Y-18902900D02*
X20587700Y-18932900D01*
X20587700Y-18902900D02*
X20557700Y-18932900D01*
X20565000Y-12525000D02*
X20595000Y-12555000D01*
X20595000Y-12525000D02*
X20565000Y-12555000D01*
X21095000Y-13005000D02*
X21125000Y-13035000D01*
X21125000Y-13005000D02*
X21095000Y-13035000D01*
X21105000Y-12405000D02*
X21135000Y-12435000D01*
X21135000Y-12405000D02*
X21105000Y-12435000D01*
X21903900Y-21722300D02*
X21933900Y-21752300D01*
X21933900Y-21722300D02*
X21903900Y-21752300D01*
X21916600Y-3993100D02*
X21946600Y-4023100D01*
X21946600Y-3993100D02*
X21916600Y-4023100D01*
X22030900Y-9390600D02*
X22060900Y-9420600D01*
X22060900Y-9390600D02*
X22030900Y-9420600D01*
X22035000Y-9065000D02*
X22065000Y-9095000D01*
X22065000Y-9065000D02*
X22035000Y-9095000D01*
X22215000Y-17365000D02*
X22245000Y-17395000D01*
X22245000Y-17365000D02*
X22215000Y-17395000D01*
X22221400Y-5999700D02*
X22251400Y-6029700D01*
X22251400Y-5999700D02*
X22221400Y-6029700D01*
X22246800Y-16248600D02*
X22276800Y-16278600D01*
X22276800Y-16248600D02*
X22246800Y-16278600D01*
X22255000Y-15925000D02*
X22285000Y-15955000D01*
X22285000Y-15925000D02*
X22255000Y-15955000D01*
X22284900Y-19766500D02*
X22314900Y-19796500D01*
X22314900Y-19766500D02*
X22284900Y-19796500D01*
X22589700Y-11448000D02*
X22619700Y-11478000D01*
X22619700Y-11448000D02*
X22589700Y-11478000D01*
X22653200Y-14343600D02*
X22683200Y-14373600D01*
X22683200Y-14343600D02*
X22653200Y-14373600D01*
X22828510Y-8922410D02*
X22858510Y-8952410D01*
X22858510Y-8922410D02*
X22828510Y-8952410D01*
X23580300Y-8298400D02*
X23610300Y-8328400D01*
X23610300Y-8298400D02*
X23580300Y-8328400D01*
X23595000Y-7975000D02*
X23625000Y-8005000D01*
X23625000Y-7975000D02*
X23595000Y-8005000D01*
X23808900Y-17366200D02*
X23838900Y-17396200D01*
X23838900Y-17366200D02*
X23808900Y-17396200D01*
X24135000Y-8805000D02*
X24165000Y-8835000D01*
X24165000Y-8805000D02*
X24135000Y-8835000D01*
X24418500Y-14280100D02*
X24448500Y-14310100D01*
X24448500Y-14280100D02*
X24418500Y-14310100D01*
X24507400Y-11486100D02*
X24537400Y-11516100D01*
X24537400Y-11486100D02*
X24507400Y-11516100D01*
X24515000Y-11165000D02*
X24545000Y-11195000D01*
X24545000Y-11165000D02*
X24515000Y-11195000D01*
X25129700Y-16108900D02*
X25159700Y-16138900D01*
X25159700Y-16108900D02*
X25129700Y-16138900D01*
X25167800Y-9606500D02*
X25197800Y-9636500D01*
X25197800Y-9606500D02*
X25167800Y-9636500D01*
X25175000Y-9285000D02*
X25205000Y-9315000D01*
X25205000Y-9285000D02*
X25175000Y-9315000D01*
D13*
X12363000Y-25251200D02*
G75*
G03*
X12363000Y-25251200I-35000J0D01*
G01*
D11*
X12303000Y-25211200D02*
X12303000Y-25291200D01*
X12353000Y-25211200D02*
X12353000Y-25291200D01*
X12303000Y-25291200D02*
G75*
G03*
X12353000Y-25291200I25000J0D01*
G01*
X12353000Y-25211200D02*
G75*
G03*
X12303000Y-25211200I-25000J0D01*
G01*
D13*
X12363000Y-25631200D02*
G75*
G03*
X12363000Y-25631200I-35000J0D01*
G01*
D11*
X12303000Y-25591200D02*
X12303000Y-25671200D01*
X12353000Y-25591200D02*
X12353000Y-25671200D01*
X12303000Y-25671200D02*
G75*
G03*
X12353000Y-25671200I25000J0D01*
G01*
X12353000Y-25591200D02*
G75*
G03*
X12303000Y-25591200I-25000J0D01*
G01*
D13*
X12443000Y351200D02*
G75*
G03*
X12443000Y351200I-35000J0D01*
G01*
D11*
X12433000Y311200D02*
X12433000Y391200D01*
X12383000Y311200D02*
X12383000Y391200D01*
X12433000Y391200D02*
G75*
G03*
X12383000Y391200I-25000J0D01*
G01*
X12383000Y311200D02*
G75*
G03*
X12433000Y311200I25000J0D01*
G01*
D13*
X12443000Y-28800D02*
G75*
G03*
X12443000Y-28800I-35000J0D01*
G01*
D11*
X12433000Y-68800D02*
X12433000Y11200D01*
X12383000Y-68800D02*
X12383000Y11200D01*
X12433000Y11200D02*
G75*
G03*
X12383000Y11200I-25000J0D01*
G01*
X12383000Y-68800D02*
G75*
G03*
X12433000Y-68800I25000J0D01*
G01*
D13*
X13227000Y-25251200D02*
G75*
G03*
X13227000Y-25251200I-35000J0D01*
G01*
D11*
X13167000Y-25211200D02*
X13167000Y-25291200D01*
X13217000Y-25211200D02*
X13217000Y-25291200D01*
X13167000Y-25291200D02*
G75*
G03*
X13217000Y-25291200I25000J0D01*
G01*
X13217000Y-25211200D02*
G75*
G03*
X13167000Y-25211200I-25000J0D01*
G01*
D13*
X13227000Y-25631200D02*
G75*
G03*
X13227000Y-25631200I-35000J0D01*
G01*
D11*
X13167000Y-25591200D02*
X13167000Y-25671200D01*
X13217000Y-25591200D02*
X13217000Y-25671200D01*
X13167000Y-25671200D02*
G75*
G03*
X13217000Y-25671200I25000J0D01*
G01*
X13217000Y-25591200D02*
G75*
G03*
X13167000Y-25591200I-25000J0D01*
G01*
D13*
X13307000Y351200D02*
G75*
G03*
X13307000Y351200I-35000J0D01*
G01*
D11*
X13297000Y311200D02*
X13297000Y391200D01*
X13247000Y311200D02*
X13247000Y391200D01*
X13297000Y391200D02*
G75*
G03*
X13247000Y391200I-25000J0D01*
G01*
X13247000Y311200D02*
G75*
G03*
X13297000Y311200I25000J0D01*
G01*
D13*
X13307000Y-28800D02*
G75*
G03*
X13307000Y-28800I-35000J0D01*
G01*
D11*
X13297000Y-68800D02*
X13297000Y11200D01*
X13247000Y-68800D02*
X13247000Y11200D01*
X13297000Y11200D02*
G75*
G03*
X13247000Y11200I-25000J0D01*
G01*
X13247000Y-68800D02*
G75*
G03*
X13297000Y-68800I25000J0D01*
G01*
D14*
X22080000Y-12480000D02*
X22080000Y-12600000D01*
X22020000Y-12540000D02*
X22140000Y-12540000D01*
X22080000Y-12730000D02*
X22080000Y-12850000D01*
X22020000Y-12790000D02*
X22140000Y-12790000D01*
X22080000Y-12980000D02*
X22080000Y-13100000D01*
X22020000Y-13040000D02*
X22140000Y-13040000D01*
X23530000Y-12480000D02*
X23530000Y-12600000D01*
X23470000Y-12540000D02*
X23590000Y-12540000D01*
X23530000Y-12980000D02*
X23530000Y-13100000D01*
X23470000Y-13040000D02*
X23590000Y-13040000D01*
D15*
X22945967Y-12345967D02*
X22945967Y-12114033D01*
X22714033Y-12114033D01*
X22714033Y-12345967D01*
X22945967Y-12345967D01*
X22945967Y-13465967D02*
X22945967Y-13234033D01*
X22714033Y-13234033D01*
X22714033Y-13465967D01*
X22945967Y-13465967D01*
D11*
X-157381Y-26155476D02*
X-157381Y-25955476D01*
X-109762Y-25955476D01*
X-81190Y-25965000D01*
X-62143Y-25984048D01*
X-52619Y-26003095D01*
X-43095Y-26041190D01*
X-43095Y-26069762D01*
X-52619Y-26107857D01*
X-62143Y-26126905D01*
X-81190Y-26145952D01*
X-109762Y-26155476D01*
X-157381Y-26155476D01*
X42619Y-26155476D02*
X42619Y-26022143D01*
X42619Y-26060238D02*
X52143Y-26041190D01*
X61667Y-26031667D01*
X80714Y-26022143D01*
X99762Y-26022143D01*
X166429Y-26155476D02*
X166429Y-26022143D01*
X166429Y-25955476D02*
X156905Y-25965000D01*
X166429Y-25974524D01*
X175952Y-25965000D01*
X166429Y-25955476D01*
X166429Y-25974524D01*
X290238Y-26155476D02*
X271190Y-26145952D01*
X261667Y-26126905D01*
X261667Y-25955476D01*
X395000Y-26155476D02*
X375952Y-26145952D01*
X366428Y-26126905D01*
X366428Y-25955476D01*
X623571Y-26155476D02*
X623571Y-25955476D01*
X690238Y-26098333D01*
X756905Y-25955476D01*
X756905Y-26155476D01*
X937857Y-26155476D02*
X937857Y-26050714D01*
X928333Y-26031667D01*
X909286Y-26022143D01*
X871190Y-26022143D01*
X852143Y-26031667D01*
X937857Y-26145952D02*
X918809Y-26155476D01*
X871190Y-26155476D01*
X852143Y-26145952D01*
X842619Y-26126905D01*
X842619Y-26107857D01*
X852143Y-26088809D01*
X871190Y-26079286D01*
X918809Y-26079286D01*
X937857Y-26069762D01*
X1033095Y-26022143D02*
X1033095Y-26222143D01*
X1033095Y-26031667D02*
X1052143Y-26022143D01*
X1090238Y-26022143D01*
X1109286Y-26031667D01*
X1118810Y-26041190D01*
X1128333Y-26060238D01*
X1128333Y-26117381D01*
X1118810Y-26136428D01*
X1109286Y-26145952D01*
X1090238Y-26155476D01*
X1052143Y-26155476D01*
X1033095Y-26145952D01*
X1214048Y-26136428D02*
X1223571Y-26145952D01*
X1214048Y-26155476D01*
X1204524Y-26145952D01*
X1214048Y-26136428D01*
X1214048Y-26155476D01*
X1214048Y-26031667D02*
X1223571Y-26041190D01*
X1214048Y-26050714D01*
X1204524Y-26041190D01*
X1214048Y-26031667D01*
X1214048Y-26050714D01*
D12*
X-445000Y-26470000D02*
X-415000Y-26500000D01*
X-415000Y-26470000D02*
X-445000Y-26500000D01*
D11*
X-119286Y-26375476D02*
X-100238Y-26375476D01*
X-81190Y-26385000D01*
X-71667Y-26394524D01*
X-62143Y-26413571D01*
X-52619Y-26451667D01*
X-52619Y-26499286D01*
X-62143Y-26537381D01*
X-71667Y-26556428D01*
X-81190Y-26565952D01*
X-100238Y-26575476D01*
X-119286Y-26575476D01*
X-138333Y-26565952D01*
X-147857Y-26556428D01*
X-157381Y-26537381D01*
X-166905Y-26499286D01*
X-166905Y-26451667D01*
X-157381Y-26413571D01*
X-147857Y-26394524D01*
X-138333Y-26385000D01*
X-119286Y-26375476D01*
X33095Y-26556428D02*
X42619Y-26565952D01*
X33095Y-26575476D01*
X23571Y-26565952D01*
X33095Y-26556428D01*
X33095Y-26575476D01*
X109286Y-26375476D02*
X233095Y-26375476D01*
X166429Y-26451667D01*
X195000Y-26451667D01*
X214048Y-26461190D01*
X223571Y-26470714D01*
X233095Y-26489762D01*
X233095Y-26537381D01*
X223571Y-26556428D01*
X214048Y-26565952D01*
X195000Y-26575476D01*
X137857Y-26575476D01*
X118809Y-26565952D01*
X109286Y-26556428D01*
X356905Y-26375476D02*
X375952Y-26375476D01*
X395000Y-26385000D01*
X404524Y-26394524D01*
X414048Y-26413571D01*
X423571Y-26451667D01*
X423571Y-26499286D01*
X414048Y-26537381D01*
X404524Y-26556428D01*
X395000Y-26565952D01*
X375952Y-26575476D01*
X356905Y-26575476D01*
X337857Y-26565952D01*
X328333Y-26556428D01*
X318810Y-26537381D01*
X309286Y-26499286D01*
X309286Y-26451667D01*
X318810Y-26413571D01*
X328333Y-26394524D01*
X337857Y-26385000D01*
X356905Y-26375476D01*
X547381Y-26375476D02*
X566429Y-26375476D01*
X585476Y-26385000D01*
X595000Y-26394524D01*
X604524Y-26413571D01*
X614048Y-26451667D01*
X614048Y-26499286D01*
X604524Y-26537381D01*
X595000Y-26556428D01*
X585476Y-26565952D01*
X566429Y-26575476D01*
X547381Y-26575476D01*
X528333Y-26565952D01*
X518809Y-26556428D01*
X509286Y-26537381D01*
X499762Y-26499286D01*
X499762Y-26451667D01*
X509286Y-26413571D01*
X518809Y-26394524D01*
X528333Y-26385000D01*
X547381Y-26375476D01*
X699762Y-26575476D02*
X699762Y-26442143D01*
X699762Y-26461190D02*
X709286Y-26451667D01*
X728333Y-26442143D01*
X756905Y-26442143D01*
X775952Y-26451667D01*
X785476Y-26470714D01*
X785476Y-26575476D01*
X785476Y-26470714D02*
X795000Y-26451667D01*
X814048Y-26442143D01*
X842619Y-26442143D01*
X861667Y-26451667D01*
X871190Y-26470714D01*
X871190Y-26575476D01*
X966428Y-26575476D02*
X966428Y-26442143D01*
X966428Y-26461190D02*
X975952Y-26451667D01*
X995000Y-26442143D01*
X1023571Y-26442143D01*
X1042619Y-26451667D01*
X1052143Y-26470714D01*
X1052143Y-26575476D01*
X1052143Y-26470714D02*
X1061667Y-26451667D01*
X1080714Y-26442143D01*
X1109286Y-26442143D01*
X1128333Y-26451667D01*
X1137857Y-26470714D01*
X1137857Y-26575476D01*
X1528333Y-26365952D02*
X1356905Y-26623095D01*
X1785476Y-26375476D02*
X1804524Y-26375476D01*
X1823571Y-26385000D01*
X1833095Y-26394524D01*
X1842619Y-26413571D01*
X1852143Y-26451667D01*
X1852143Y-26499286D01*
X1842619Y-26537381D01*
X1833095Y-26556428D01*
X1823571Y-26565952D01*
X1804524Y-26575476D01*
X1785476Y-26575476D01*
X1766428Y-26565952D01*
X1756905Y-26556428D01*
X1747381Y-26537381D01*
X1737857Y-26499286D01*
X1737857Y-26451667D01*
X1747381Y-26413571D01*
X1756905Y-26394524D01*
X1766428Y-26385000D01*
X1785476Y-26375476D01*
X1937857Y-26556428D02*
X1947381Y-26565952D01*
X1937857Y-26575476D01*
X1928333Y-26565952D01*
X1937857Y-26556428D01*
X1937857Y-26575476D01*
X2071190Y-26375476D02*
X2090238Y-26375476D01*
X2109286Y-26385000D01*
X2118810Y-26394524D01*
X2128333Y-26413571D01*
X2137857Y-26451667D01*
X2137857Y-26499286D01*
X2128333Y-26537381D01*
X2118810Y-26556428D01*
X2109286Y-26565952D01*
X2090238Y-26575476D01*
X2071190Y-26575476D01*
X2052143Y-26565952D01*
X2042619Y-26556428D01*
X2033095Y-26537381D01*
X2023571Y-26499286D01*
X2023571Y-26451667D01*
X2033095Y-26413571D01*
X2042619Y-26394524D01*
X2052143Y-26385000D01*
X2071190Y-26375476D01*
X2328333Y-26575476D02*
X2214048Y-26575476D01*
X2271190Y-26575476D02*
X2271190Y-26375476D01*
X2252143Y-26404048D01*
X2233095Y-26423095D01*
X2214048Y-26432619D01*
X2518810Y-26575476D02*
X2404524Y-26575476D01*
X2461667Y-26575476D02*
X2461667Y-26375476D01*
X2442619Y-26404048D01*
X2423571Y-26423095D01*
X2404524Y-26432619D01*
X2633095Y-26461190D02*
X2614048Y-26451667D01*
X2604524Y-26442143D01*
X2595000Y-26423095D01*
X2595000Y-26413571D01*
X2604524Y-26394524D01*
X2614048Y-26385000D01*
X2633095Y-26375476D01*
X2671190Y-26375476D01*
X2690238Y-26385000D01*
X2699762Y-26394524D01*
X2709286Y-26413571D01*
X2709286Y-26423095D01*
X2699762Y-26442143D01*
X2690238Y-26451667D01*
X2671190Y-26461190D01*
X2633095Y-26461190D01*
X2614048Y-26470714D01*
X2604524Y-26480238D01*
X2595000Y-26499286D01*
X2595000Y-26537381D01*
X2604524Y-26556428D01*
X2614048Y-26565952D01*
X2633095Y-26575476D01*
X2671190Y-26575476D01*
X2690238Y-26565952D01*
X2699762Y-26556428D01*
X2709286Y-26537381D01*
X2709286Y-26499286D01*
X2699762Y-26480238D01*
X2690238Y-26470714D01*
X2671190Y-26461190D01*
X2785476Y-26375476D02*
X2785476Y-26413571D01*
X2861667Y-26375476D02*
X2861667Y-26413571D01*
X3156905Y-26651667D02*
X3147381Y-26642143D01*
X3128333Y-26613571D01*
X3118809Y-26594524D01*
X3109286Y-26565952D01*
X3099762Y-26518333D01*
X3099762Y-26480238D01*
X3109286Y-26432619D01*
X3118809Y-26404048D01*
X3128333Y-26385000D01*
X3147381Y-26356428D01*
X3156905Y-26346905D01*
X3337857Y-26575476D02*
X3223571Y-26575476D01*
X3280714Y-26575476D02*
X3280714Y-26375476D01*
X3261667Y-26404048D01*
X3242619Y-26423095D01*
X3223571Y-26432619D01*
X3509286Y-26375476D02*
X3471190Y-26375476D01*
X3452143Y-26385000D01*
X3442619Y-26394524D01*
X3423571Y-26423095D01*
X3414048Y-26461190D01*
X3414048Y-26537381D01*
X3423571Y-26556428D01*
X3433095Y-26565952D01*
X3452143Y-26575476D01*
X3490238Y-26575476D01*
X3509286Y-26565952D01*
X3518809Y-26556428D01*
X3528333Y-26537381D01*
X3528333Y-26489762D01*
X3518809Y-26470714D01*
X3509286Y-26461190D01*
X3490238Y-26451667D01*
X3452143Y-26451667D01*
X3433095Y-26461190D01*
X3423571Y-26470714D01*
X3414048Y-26489762D01*
X3595000Y-26375476D02*
X3728333Y-26375476D01*
X3642619Y-26575476D01*
X3956905Y-26575476D02*
X3956905Y-26375476D01*
X4042619Y-26575476D02*
X4042619Y-26470714D01*
X4033095Y-26451667D01*
X4014048Y-26442143D01*
X3985476Y-26442143D01*
X3966428Y-26451667D01*
X3956905Y-26461190D01*
X4166428Y-26575476D02*
X4147381Y-26565952D01*
X4137857Y-26556428D01*
X4128333Y-26537381D01*
X4128333Y-26480238D01*
X4137857Y-26461190D01*
X4147381Y-26451667D01*
X4166428Y-26442143D01*
X4195000Y-26442143D01*
X4214048Y-26451667D01*
X4223571Y-26461190D01*
X4233095Y-26480238D01*
X4233095Y-26537381D01*
X4223571Y-26556428D01*
X4214048Y-26565952D01*
X4195000Y-26575476D01*
X4166428Y-26575476D01*
X4347381Y-26575476D02*
X4328333Y-26565952D01*
X4318810Y-26546905D01*
X4318810Y-26375476D01*
X4499762Y-26565952D02*
X4480714Y-26575476D01*
X4442619Y-26575476D01*
X4423571Y-26565952D01*
X4414048Y-26546905D01*
X4414048Y-26470714D01*
X4423571Y-26451667D01*
X4442619Y-26442143D01*
X4480714Y-26442143D01*
X4499762Y-26451667D01*
X4509286Y-26470714D01*
X4509286Y-26489762D01*
X4414048Y-26508809D01*
X4585476Y-26565952D02*
X4604524Y-26575476D01*
X4642619Y-26575476D01*
X4661667Y-26565952D01*
X4671190Y-26546905D01*
X4671190Y-26537381D01*
X4661667Y-26518333D01*
X4642619Y-26508809D01*
X4614048Y-26508809D01*
X4595000Y-26499286D01*
X4585476Y-26480238D01*
X4585476Y-26470714D01*
X4595000Y-26451667D01*
X4614048Y-26442143D01*
X4642619Y-26442143D01*
X4661667Y-26451667D01*
X4737857Y-26651667D02*
X4747381Y-26642143D01*
X4766429Y-26613571D01*
X4775952Y-26594524D01*
X4785476Y-26565952D01*
X4795000Y-26518333D01*
X4795000Y-26480238D01*
X4785476Y-26432619D01*
X4775952Y-26404048D01*
X4766429Y-26385000D01*
X4747381Y-26356428D01*
X4737857Y-26346905D01*
D13*
X-415000Y-26749000D02*
G75*
G03*
X-415000Y-26749000I-35000J0D01*
G01*
D11*
X-119286Y-26639476D02*
X-100238Y-26639476D01*
X-81190Y-26649000D01*
X-71667Y-26658524D01*
X-62143Y-26677571D01*
X-52619Y-26715667D01*
X-52619Y-26763286D01*
X-62143Y-26801381D01*
X-71667Y-26820428D01*
X-81190Y-26829952D01*
X-100238Y-26839476D01*
X-119286Y-26839476D01*
X-138333Y-26829952D01*
X-147857Y-26820428D01*
X-157381Y-26801381D01*
X-166905Y-26763286D01*
X-166905Y-26715667D01*
X-157381Y-26677571D01*
X-147857Y-26658524D01*
X-138333Y-26649000D01*
X-119286Y-26639476D01*
X33095Y-26820428D02*
X42619Y-26829952D01*
X33095Y-26839476D01*
X23571Y-26829952D01*
X33095Y-26820428D01*
X33095Y-26839476D01*
X109286Y-26639476D02*
X242619Y-26639476D01*
X156905Y-26839476D01*
X356905Y-26639476D02*
X375952Y-26639476D01*
X395000Y-26649000D01*
X404524Y-26658524D01*
X414048Y-26677571D01*
X423571Y-26715667D01*
X423571Y-26763286D01*
X414048Y-26801381D01*
X404524Y-26820428D01*
X395000Y-26829952D01*
X375952Y-26839476D01*
X356905Y-26839476D01*
X337857Y-26829952D01*
X328333Y-26820428D01*
X318810Y-26801381D01*
X309286Y-26763286D01*
X309286Y-26715667D01*
X318810Y-26677571D01*
X328333Y-26658524D01*
X337857Y-26649000D01*
X356905Y-26639476D01*
X547381Y-26639476D02*
X566429Y-26639476D01*
X585476Y-26649000D01*
X595000Y-26658524D01*
X604524Y-26677571D01*
X614048Y-26715667D01*
X614048Y-26763286D01*
X604524Y-26801381D01*
X595000Y-26820428D01*
X585476Y-26829952D01*
X566429Y-26839476D01*
X547381Y-26839476D01*
X528333Y-26829952D01*
X518809Y-26820428D01*
X509286Y-26801381D01*
X499762Y-26763286D01*
X499762Y-26715667D01*
X509286Y-26677571D01*
X518809Y-26658524D01*
X528333Y-26649000D01*
X547381Y-26639476D01*
X699762Y-26839476D02*
X699762Y-26706143D01*
X699762Y-26725190D02*
X709286Y-26715667D01*
X728333Y-26706143D01*
X756905Y-26706143D01*
X775952Y-26715667D01*
X785476Y-26734714D01*
X785476Y-26839476D01*
X785476Y-26734714D02*
X795000Y-26715667D01*
X814048Y-26706143D01*
X842619Y-26706143D01*
X861667Y-26715667D01*
X871190Y-26734714D01*
X871190Y-26839476D01*
X966428Y-26839476D02*
X966428Y-26706143D01*
X966428Y-26725190D02*
X975952Y-26715667D01*
X995000Y-26706143D01*
X1023571Y-26706143D01*
X1042619Y-26715667D01*
X1052143Y-26734714D01*
X1052143Y-26839476D01*
X1052143Y-26734714D02*
X1061667Y-26715667D01*
X1080714Y-26706143D01*
X1109286Y-26706143D01*
X1128333Y-26715667D01*
X1137857Y-26734714D01*
X1137857Y-26839476D01*
X1528333Y-26629952D02*
X1356905Y-26887095D01*
X1785476Y-26639476D02*
X1804524Y-26639476D01*
X1823571Y-26649000D01*
X1833095Y-26658524D01*
X1842619Y-26677571D01*
X1852143Y-26715667D01*
X1852143Y-26763286D01*
X1842619Y-26801381D01*
X1833095Y-26820428D01*
X1823571Y-26829952D01*
X1804524Y-26839476D01*
X1785476Y-26839476D01*
X1766428Y-26829952D01*
X1756905Y-26820428D01*
X1747381Y-26801381D01*
X1737857Y-26763286D01*
X1737857Y-26715667D01*
X1747381Y-26677571D01*
X1756905Y-26658524D01*
X1766428Y-26649000D01*
X1785476Y-26639476D01*
X1937857Y-26820428D02*
X1947381Y-26829952D01*
X1937857Y-26839476D01*
X1928333Y-26829952D01*
X1937857Y-26820428D01*
X1937857Y-26839476D01*
X2071190Y-26639476D02*
X2090238Y-26639476D01*
X2109286Y-26649000D01*
X2118810Y-26658524D01*
X2128333Y-26677571D01*
X2137857Y-26715667D01*
X2137857Y-26763286D01*
X2128333Y-26801381D01*
X2118810Y-26820428D01*
X2109286Y-26829952D01*
X2090238Y-26839476D01*
X2071190Y-26839476D01*
X2052143Y-26829952D01*
X2042619Y-26820428D01*
X2033095Y-26801381D01*
X2023571Y-26763286D01*
X2023571Y-26715667D01*
X2033095Y-26677571D01*
X2042619Y-26658524D01*
X2052143Y-26649000D01*
X2071190Y-26639476D01*
X2214048Y-26658524D02*
X2223571Y-26649000D01*
X2242619Y-26639476D01*
X2290238Y-26639476D01*
X2309286Y-26649000D01*
X2318810Y-26658524D01*
X2328333Y-26677571D01*
X2328333Y-26696619D01*
X2318810Y-26725190D01*
X2204524Y-26839476D01*
X2328333Y-26839476D01*
X2395000Y-26639476D02*
X2528333Y-26639476D01*
X2442619Y-26839476D01*
X2690238Y-26639476D02*
X2652143Y-26639476D01*
X2633095Y-26649000D01*
X2623571Y-26658524D01*
X2604524Y-26687095D01*
X2595000Y-26725190D01*
X2595000Y-26801381D01*
X2604524Y-26820428D01*
X2614048Y-26829952D01*
X2633095Y-26839476D01*
X2671190Y-26839476D01*
X2690238Y-26829952D01*
X2699762Y-26820428D01*
X2709286Y-26801381D01*
X2709286Y-26753762D01*
X2699762Y-26734714D01*
X2690238Y-26725190D01*
X2671190Y-26715667D01*
X2633095Y-26715667D01*
X2614048Y-26725190D01*
X2604524Y-26734714D01*
X2595000Y-26753762D01*
X2785476Y-26639476D02*
X2785476Y-26677571D01*
X2861667Y-26639476D02*
X2861667Y-26677571D01*
X3156905Y-26915667D02*
X3147381Y-26906143D01*
X3128333Y-26877571D01*
X3118809Y-26858524D01*
X3109286Y-26829952D01*
X3099762Y-26782333D01*
X3099762Y-26744238D01*
X3109286Y-26696619D01*
X3118809Y-26668048D01*
X3128333Y-26649000D01*
X3147381Y-26620428D01*
X3156905Y-26610905D01*
X3271190Y-26639476D02*
X3290238Y-26639476D01*
X3309286Y-26649000D01*
X3318809Y-26658524D01*
X3328333Y-26677571D01*
X3337857Y-26715667D01*
X3337857Y-26763286D01*
X3328333Y-26801381D01*
X3318809Y-26820428D01*
X3309286Y-26829952D01*
X3290238Y-26839476D01*
X3271190Y-26839476D01*
X3252143Y-26829952D01*
X3242619Y-26820428D01*
X3233095Y-26801381D01*
X3223571Y-26763286D01*
X3223571Y-26715667D01*
X3233095Y-26677571D01*
X3242619Y-26658524D01*
X3252143Y-26649000D01*
X3271190Y-26639476D01*
X3575952Y-26839476D02*
X3575952Y-26639476D01*
X3661667Y-26839476D02*
X3661667Y-26734714D01*
X3652143Y-26715667D01*
X3633095Y-26706143D01*
X3604524Y-26706143D01*
X3585476Y-26715667D01*
X3575952Y-26725190D01*
X3785476Y-26839476D02*
X3766428Y-26829952D01*
X3756905Y-26820428D01*
X3747381Y-26801381D01*
X3747381Y-26744238D01*
X3756905Y-26725190D01*
X3766428Y-26715667D01*
X3785476Y-26706143D01*
X3814048Y-26706143D01*
X3833095Y-26715667D01*
X3842619Y-26725190D01*
X3852143Y-26744238D01*
X3852143Y-26801381D01*
X3842619Y-26820428D01*
X3833095Y-26829952D01*
X3814048Y-26839476D01*
X3785476Y-26839476D01*
X3966428Y-26839476D02*
X3947381Y-26829952D01*
X3937857Y-26810905D01*
X3937857Y-26639476D01*
X4118809Y-26829952D02*
X4099762Y-26839476D01*
X4061667Y-26839476D01*
X4042619Y-26829952D01*
X4033095Y-26810905D01*
X4033095Y-26734714D01*
X4042619Y-26715667D01*
X4061667Y-26706143D01*
X4099762Y-26706143D01*
X4118809Y-26715667D01*
X4128333Y-26734714D01*
X4128333Y-26753762D01*
X4033095Y-26772809D01*
X4204524Y-26829952D02*
X4223571Y-26839476D01*
X4261667Y-26839476D01*
X4280714Y-26829952D01*
X4290238Y-26810905D01*
X4290238Y-26801381D01*
X4280714Y-26782333D01*
X4261667Y-26772809D01*
X4233095Y-26772809D01*
X4214048Y-26763286D01*
X4204524Y-26744238D01*
X4204524Y-26734714D01*
X4214048Y-26715667D01*
X4233095Y-26706143D01*
X4261667Y-26706143D01*
X4280714Y-26715667D01*
X4528333Y-26763286D02*
X4680714Y-26763286D01*
X4604524Y-26839476D02*
X4604524Y-26687095D01*
X4956905Y-26725190D02*
X4937857Y-26715667D01*
X4928333Y-26706143D01*
X4918810Y-26687095D01*
X4918810Y-26677571D01*
X4928333Y-26658524D01*
X4937857Y-26649000D01*
X4956905Y-26639476D01*
X4995000Y-26639476D01*
X5014048Y-26649000D01*
X5023571Y-26658524D01*
X5033095Y-26677571D01*
X5033095Y-26687095D01*
X5023571Y-26706143D01*
X5014048Y-26715667D01*
X4995000Y-26725190D01*
X4956905Y-26725190D01*
X4937857Y-26734714D01*
X4928333Y-26744238D01*
X4918810Y-26763286D01*
X4918810Y-26801381D01*
X4928333Y-26820428D01*
X4937857Y-26829952D01*
X4956905Y-26839476D01*
X4995000Y-26839476D01*
X5014048Y-26829952D01*
X5023571Y-26820428D01*
X5033095Y-26801381D01*
X5033095Y-26763286D01*
X5023571Y-26744238D01*
X5014048Y-26734714D01*
X4995000Y-26725190D01*
X5261667Y-26829952D02*
X5280714Y-26839476D01*
X5318810Y-26839476D01*
X5337857Y-26829952D01*
X5347381Y-26810905D01*
X5347381Y-26801381D01*
X5337857Y-26782333D01*
X5318810Y-26772809D01*
X5290238Y-26772809D01*
X5271190Y-26763286D01*
X5261667Y-26744238D01*
X5261667Y-26734714D01*
X5271190Y-26715667D01*
X5290238Y-26706143D01*
X5318810Y-26706143D01*
X5337857Y-26715667D01*
X5461667Y-26839476D02*
X5442619Y-26829952D01*
X5433095Y-26810905D01*
X5433095Y-26639476D01*
X5566429Y-26839476D02*
X5547381Y-26829952D01*
X5537857Y-26820428D01*
X5528333Y-26801381D01*
X5528333Y-26744238D01*
X5537857Y-26725190D01*
X5547381Y-26715667D01*
X5566429Y-26706143D01*
X5595000Y-26706143D01*
X5614048Y-26715667D01*
X5623571Y-26725190D01*
X5633095Y-26744238D01*
X5633095Y-26801381D01*
X5623571Y-26820428D01*
X5614048Y-26829952D01*
X5595000Y-26839476D01*
X5566429Y-26839476D01*
X5690238Y-26706143D02*
X5766428Y-26706143D01*
X5718809Y-26639476D02*
X5718809Y-26810905D01*
X5728333Y-26829952D01*
X5747381Y-26839476D01*
X5766428Y-26839476D01*
X5823571Y-26829952D02*
X5842619Y-26839476D01*
X5880714Y-26839476D01*
X5899762Y-26829952D01*
X5909286Y-26810905D01*
X5909286Y-26801381D01*
X5899762Y-26782333D01*
X5880714Y-26772809D01*
X5852143Y-26772809D01*
X5833095Y-26763286D01*
X5823571Y-26744238D01*
X5823571Y-26734714D01*
X5833095Y-26715667D01*
X5852143Y-26706143D01*
X5880714Y-26706143D01*
X5899762Y-26715667D01*
X5975952Y-26915667D02*
X5985476Y-26906143D01*
X6004524Y-26877571D01*
X6014048Y-26858524D01*
X6023571Y-26829952D01*
X6033095Y-26782333D01*
X6033095Y-26744238D01*
X6023571Y-26696619D01*
X6014048Y-26668048D01*
X6004524Y-26649000D01*
X5985476Y-26620428D01*
X5975952Y-26610905D01*
D14*
X-475000Y-26953000D02*
X-475000Y-27073000D01*
X-535000Y-27013000D02*
X-415000Y-27013000D01*
D11*
X-52619Y-27103476D02*
X-166905Y-27103476D01*
X-109762Y-27103476D02*
X-109762Y-26903476D01*
X-128809Y-26932048D01*
X-147857Y-26951095D01*
X-166905Y-26960619D01*
X33095Y-27084428D02*
X42619Y-27093952D01*
X33095Y-27103476D01*
X23571Y-27093952D01*
X33095Y-27084428D01*
X33095Y-27103476D01*
X118809Y-26922524D02*
X128333Y-26913000D01*
X147381Y-26903476D01*
X195000Y-26903476D01*
X214048Y-26913000D01*
X223571Y-26922524D01*
X233095Y-26941571D01*
X233095Y-26960619D01*
X223571Y-26989190D01*
X109286Y-27103476D01*
X233095Y-27103476D01*
X356905Y-26903476D02*
X375952Y-26903476D01*
X395000Y-26913000D01*
X404524Y-26922524D01*
X414048Y-26941571D01*
X423571Y-26979667D01*
X423571Y-27027286D01*
X414048Y-27065381D01*
X404524Y-27084428D01*
X395000Y-27093952D01*
X375952Y-27103476D01*
X356905Y-27103476D01*
X337857Y-27093952D01*
X328333Y-27084428D01*
X318810Y-27065381D01*
X309286Y-27027286D01*
X309286Y-26979667D01*
X318810Y-26941571D01*
X328333Y-26922524D01*
X337857Y-26913000D01*
X356905Y-26903476D01*
X547381Y-26903476D02*
X566429Y-26903476D01*
X585476Y-26913000D01*
X595000Y-26922524D01*
X604524Y-26941571D01*
X614048Y-26979667D01*
X614048Y-27027286D01*
X604524Y-27065381D01*
X595000Y-27084428D01*
X585476Y-27093952D01*
X566429Y-27103476D01*
X547381Y-27103476D01*
X528333Y-27093952D01*
X518809Y-27084428D01*
X509286Y-27065381D01*
X499762Y-27027286D01*
X499762Y-26979667D01*
X509286Y-26941571D01*
X518809Y-26922524D01*
X528333Y-26913000D01*
X547381Y-26903476D01*
X699762Y-27103476D02*
X699762Y-26970143D01*
X699762Y-26989190D02*
X709286Y-26979667D01*
X728333Y-26970143D01*
X756905Y-26970143D01*
X775952Y-26979667D01*
X785476Y-26998714D01*
X785476Y-27103476D01*
X785476Y-26998714D02*
X795000Y-26979667D01*
X814048Y-26970143D01*
X842619Y-26970143D01*
X861667Y-26979667D01*
X871190Y-26998714D01*
X871190Y-27103476D01*
X966428Y-27103476D02*
X966428Y-26970143D01*
X966428Y-26989190D02*
X975952Y-26979667D01*
X995000Y-26970143D01*
X1023571Y-26970143D01*
X1042619Y-26979667D01*
X1052143Y-26998714D01*
X1052143Y-27103476D01*
X1052143Y-26998714D02*
X1061667Y-26979667D01*
X1080714Y-26970143D01*
X1109286Y-26970143D01*
X1128333Y-26979667D01*
X1137857Y-26998714D01*
X1137857Y-27103476D01*
X1528333Y-26893952D02*
X1356905Y-27151095D01*
X1785476Y-26903476D02*
X1804524Y-26903476D01*
X1823571Y-26913000D01*
X1833095Y-26922524D01*
X1842619Y-26941571D01*
X1852143Y-26979667D01*
X1852143Y-27027286D01*
X1842619Y-27065381D01*
X1833095Y-27084428D01*
X1823571Y-27093952D01*
X1804524Y-27103476D01*
X1785476Y-27103476D01*
X1766428Y-27093952D01*
X1756905Y-27084428D01*
X1747381Y-27065381D01*
X1737857Y-27027286D01*
X1737857Y-26979667D01*
X1747381Y-26941571D01*
X1756905Y-26922524D01*
X1766428Y-26913000D01*
X1785476Y-26903476D01*
X1937857Y-27084428D02*
X1947381Y-27093952D01*
X1937857Y-27103476D01*
X1928333Y-27093952D01*
X1937857Y-27084428D01*
X1937857Y-27103476D01*
X2071190Y-26903476D02*
X2090238Y-26903476D01*
X2109286Y-26913000D01*
X2118810Y-26922524D01*
X2128333Y-26941571D01*
X2137857Y-26979667D01*
X2137857Y-27027286D01*
X2128333Y-27065381D01*
X2118810Y-27084428D01*
X2109286Y-27093952D01*
X2090238Y-27103476D01*
X2071190Y-27103476D01*
X2052143Y-27093952D01*
X2042619Y-27084428D01*
X2033095Y-27065381D01*
X2023571Y-27027286D01*
X2023571Y-26979667D01*
X2033095Y-26941571D01*
X2042619Y-26922524D01*
X2052143Y-26913000D01*
X2071190Y-26903476D01*
X2309286Y-26970143D02*
X2309286Y-27103476D01*
X2261667Y-26893952D02*
X2214048Y-27036809D01*
X2337857Y-27036809D01*
X2395000Y-26903476D02*
X2528333Y-26903476D01*
X2442619Y-27103476D01*
X2595000Y-26922524D02*
X2604524Y-26913000D01*
X2623571Y-26903476D01*
X2671190Y-26903476D01*
X2690238Y-26913000D01*
X2699762Y-26922524D01*
X2709286Y-26941571D01*
X2709286Y-26960619D01*
X2699762Y-26989190D01*
X2585476Y-27103476D01*
X2709286Y-27103476D01*
X2785476Y-26903476D02*
X2785476Y-26941571D01*
X2861667Y-26903476D02*
X2861667Y-26941571D01*
X3156905Y-27179667D02*
X3147381Y-27170143D01*
X3128333Y-27141571D01*
X3118809Y-27122524D01*
X3109286Y-27093952D01*
X3099762Y-27046333D01*
X3099762Y-27008238D01*
X3109286Y-26960619D01*
X3118809Y-26932048D01*
X3128333Y-26913000D01*
X3147381Y-26884428D01*
X3156905Y-26874905D01*
X3328333Y-26903476D02*
X3233095Y-26903476D01*
X3223571Y-26998714D01*
X3233095Y-26989190D01*
X3252143Y-26979667D01*
X3299762Y-26979667D01*
X3318809Y-26989190D01*
X3328333Y-26998714D01*
X3337857Y-27017762D01*
X3337857Y-27065381D01*
X3328333Y-27084428D01*
X3318809Y-27093952D01*
X3299762Y-27103476D01*
X3252143Y-27103476D01*
X3233095Y-27093952D01*
X3223571Y-27084428D01*
X3575952Y-27103476D02*
X3575952Y-26903476D01*
X3661667Y-27103476D02*
X3661667Y-26998714D01*
X3652143Y-26979667D01*
X3633095Y-26970143D01*
X3604524Y-26970143D01*
X3585476Y-26979667D01*
X3575952Y-26989190D01*
X3785476Y-27103476D02*
X3766428Y-27093952D01*
X3756905Y-27084428D01*
X3747381Y-27065381D01*
X3747381Y-27008238D01*
X3756905Y-26989190D01*
X3766428Y-26979667D01*
X3785476Y-26970143D01*
X3814048Y-26970143D01*
X3833095Y-26979667D01*
X3842619Y-26989190D01*
X3852143Y-27008238D01*
X3852143Y-27065381D01*
X3842619Y-27084428D01*
X3833095Y-27093952D01*
X3814048Y-27103476D01*
X3785476Y-27103476D01*
X3966428Y-27103476D02*
X3947381Y-27093952D01*
X3937857Y-27074905D01*
X3937857Y-26903476D01*
X4118809Y-27093952D02*
X4099762Y-27103476D01*
X4061667Y-27103476D01*
X4042619Y-27093952D01*
X4033095Y-27074905D01*
X4033095Y-26998714D01*
X4042619Y-26979667D01*
X4061667Y-26970143D01*
X4099762Y-26970143D01*
X4118809Y-26979667D01*
X4128333Y-26998714D01*
X4128333Y-27017762D01*
X4033095Y-27036809D01*
X4204524Y-27093952D02*
X4223571Y-27103476D01*
X4261667Y-27103476D01*
X4280714Y-27093952D01*
X4290238Y-27074905D01*
X4290238Y-27065381D01*
X4280714Y-27046333D01*
X4261667Y-27036809D01*
X4233095Y-27036809D01*
X4214048Y-27027286D01*
X4204524Y-27008238D01*
X4204524Y-26998714D01*
X4214048Y-26979667D01*
X4233095Y-26970143D01*
X4261667Y-26970143D01*
X4280714Y-26979667D01*
X4356905Y-27179667D02*
X4366429Y-27170143D01*
X4385476Y-27141571D01*
X4395000Y-27122524D01*
X4404524Y-27093952D01*
X4414048Y-27046333D01*
X4414048Y-27008238D01*
X4404524Y-26960619D01*
X4395000Y-26932048D01*
X4385476Y-26913000D01*
X4366429Y-26884428D01*
X4356905Y-26874905D01*
X-444289Y-27347711D02*
X-444289Y-27206289D01*
X-585711Y-27206289D01*
X-585711Y-27347711D01*
X-444289Y-27347711D01*
X-176428Y-27167476D02*
X-52619Y-27167476D01*
X-119286Y-27243667D01*
X-90714Y-27243667D01*
X-71667Y-27253190D01*
X-62143Y-27262714D01*
X-52619Y-27281762D01*
X-52619Y-27329381D01*
X-62143Y-27348428D01*
X-71667Y-27357952D01*
X-90714Y-27367476D01*
X-147857Y-27367476D01*
X-166905Y-27357952D01*
X-176428Y-27348428D01*
X33095Y-27348428D02*
X42619Y-27357952D01*
X33095Y-27367476D01*
X23571Y-27357952D01*
X33095Y-27348428D01*
X33095Y-27367476D01*
X118809Y-27186524D02*
X128333Y-27177000D01*
X147381Y-27167476D01*
X195000Y-27167476D01*
X214048Y-27177000D01*
X223571Y-27186524D01*
X233095Y-27205571D01*
X233095Y-27224619D01*
X223571Y-27253190D01*
X109286Y-27367476D01*
X233095Y-27367476D01*
X347381Y-27253190D02*
X328333Y-27243667D01*
X318810Y-27234143D01*
X309286Y-27215095D01*
X309286Y-27205571D01*
X318810Y-27186524D01*
X328333Y-27177000D01*
X347381Y-27167476D01*
X385476Y-27167476D01*
X404524Y-27177000D01*
X414048Y-27186524D01*
X423571Y-27205571D01*
X423571Y-27215095D01*
X414048Y-27234143D01*
X404524Y-27243667D01*
X385476Y-27253190D01*
X347381Y-27253190D01*
X328333Y-27262714D01*
X318810Y-27272238D01*
X309286Y-27291286D01*
X309286Y-27329381D01*
X318810Y-27348428D01*
X328333Y-27357952D01*
X347381Y-27367476D01*
X385476Y-27367476D01*
X404524Y-27357952D01*
X414048Y-27348428D01*
X423571Y-27329381D01*
X423571Y-27291286D01*
X414048Y-27272238D01*
X404524Y-27262714D01*
X385476Y-27253190D01*
X547381Y-27167476D02*
X566429Y-27167476D01*
X585476Y-27177000D01*
X595000Y-27186524D01*
X604524Y-27205571D01*
X614048Y-27243667D01*
X614048Y-27291286D01*
X604524Y-27329381D01*
X595000Y-27348428D01*
X585476Y-27357952D01*
X566429Y-27367476D01*
X547381Y-27367476D01*
X528333Y-27357952D01*
X518809Y-27348428D01*
X509286Y-27329381D01*
X499762Y-27291286D01*
X499762Y-27243667D01*
X509286Y-27205571D01*
X518809Y-27186524D01*
X528333Y-27177000D01*
X547381Y-27167476D01*
X699762Y-27367476D02*
X699762Y-27234143D01*
X699762Y-27253190D02*
X709286Y-27243667D01*
X728333Y-27234143D01*
X756905Y-27234143D01*
X775952Y-27243667D01*
X785476Y-27262714D01*
X785476Y-27367476D01*
X785476Y-27262714D02*
X795000Y-27243667D01*
X814048Y-27234143D01*
X842619Y-27234143D01*
X861667Y-27243667D01*
X871190Y-27262714D01*
X871190Y-27367476D01*
X966428Y-27367476D02*
X966428Y-27234143D01*
X966428Y-27253190D02*
X975952Y-27243667D01*
X995000Y-27234143D01*
X1023571Y-27234143D01*
X1042619Y-27243667D01*
X1052143Y-27262714D01*
X1052143Y-27367476D01*
X1052143Y-27262714D02*
X1061667Y-27243667D01*
X1080714Y-27234143D01*
X1109286Y-27234143D01*
X1128333Y-27243667D01*
X1137857Y-27262714D01*
X1137857Y-27367476D01*
X1528333Y-27157952D02*
X1356905Y-27415095D01*
X1785476Y-27167476D02*
X1804524Y-27167476D01*
X1823571Y-27177000D01*
X1833095Y-27186524D01*
X1842619Y-27205571D01*
X1852143Y-27243667D01*
X1852143Y-27291286D01*
X1842619Y-27329381D01*
X1833095Y-27348428D01*
X1823571Y-27357952D01*
X1804524Y-27367476D01*
X1785476Y-27367476D01*
X1766428Y-27357952D01*
X1756905Y-27348428D01*
X1747381Y-27329381D01*
X1737857Y-27291286D01*
X1737857Y-27243667D01*
X1747381Y-27205571D01*
X1756905Y-27186524D01*
X1766428Y-27177000D01*
X1785476Y-27167476D01*
X1937857Y-27348428D02*
X1947381Y-27357952D01*
X1937857Y-27367476D01*
X1928333Y-27357952D01*
X1937857Y-27348428D01*
X1937857Y-27367476D01*
X2137857Y-27367476D02*
X2023571Y-27367476D01*
X2080714Y-27367476D02*
X2080714Y-27167476D01*
X2061667Y-27196048D01*
X2042619Y-27215095D01*
X2023571Y-27224619D01*
X2214048Y-27186524D02*
X2223571Y-27177000D01*
X2242619Y-27167476D01*
X2290238Y-27167476D01*
X2309286Y-27177000D01*
X2318810Y-27186524D01*
X2328333Y-27205571D01*
X2328333Y-27224619D01*
X2318810Y-27253190D01*
X2204524Y-27367476D01*
X2328333Y-27367476D01*
X2423571Y-27367476D02*
X2461667Y-27367476D01*
X2480714Y-27357952D01*
X2490238Y-27348428D01*
X2509286Y-27319857D01*
X2518810Y-27281762D01*
X2518810Y-27205571D01*
X2509286Y-27186524D01*
X2499762Y-27177000D01*
X2480714Y-27167476D01*
X2442619Y-27167476D01*
X2423571Y-27177000D01*
X2414048Y-27186524D01*
X2404524Y-27205571D01*
X2404524Y-27253190D01*
X2414048Y-27272238D01*
X2423571Y-27281762D01*
X2442619Y-27291286D01*
X2480714Y-27291286D01*
X2499762Y-27281762D01*
X2509286Y-27272238D01*
X2518810Y-27253190D01*
X2709286Y-27367476D02*
X2595000Y-27367476D01*
X2652143Y-27367476D02*
X2652143Y-27167476D01*
X2633095Y-27196048D01*
X2614048Y-27215095D01*
X2595000Y-27224619D01*
X2785476Y-27167476D02*
X2785476Y-27205571D01*
X2861667Y-27167476D02*
X2861667Y-27205571D01*
X3156905Y-27443667D02*
X3147381Y-27434143D01*
X3128333Y-27405571D01*
X3118809Y-27386524D01*
X3109286Y-27357952D01*
X3099762Y-27310333D01*
X3099762Y-27272238D01*
X3109286Y-27224619D01*
X3118809Y-27196048D01*
X3128333Y-27177000D01*
X3147381Y-27148428D01*
X3156905Y-27138905D01*
X3223571Y-27186524D02*
X3233095Y-27177000D01*
X3252143Y-27167476D01*
X3299762Y-27167476D01*
X3318809Y-27177000D01*
X3328333Y-27186524D01*
X3337857Y-27205571D01*
X3337857Y-27224619D01*
X3328333Y-27253190D01*
X3214048Y-27367476D01*
X3337857Y-27367476D01*
X3575952Y-27367476D02*
X3575952Y-27167476D01*
X3661667Y-27367476D02*
X3661667Y-27262714D01*
X3652143Y-27243667D01*
X3633095Y-27234143D01*
X3604524Y-27234143D01*
X3585476Y-27243667D01*
X3575952Y-27253190D01*
X3785476Y-27367476D02*
X3766428Y-27357952D01*
X3756905Y-27348428D01*
X3747381Y-27329381D01*
X3747381Y-27272238D01*
X3756905Y-27253190D01*
X3766428Y-27243667D01*
X3785476Y-27234143D01*
X3814048Y-27234143D01*
X3833095Y-27243667D01*
X3842619Y-27253190D01*
X3852143Y-27272238D01*
X3852143Y-27329381D01*
X3842619Y-27348428D01*
X3833095Y-27357952D01*
X3814048Y-27367476D01*
X3785476Y-27367476D01*
X3966428Y-27367476D02*
X3947381Y-27357952D01*
X3937857Y-27338905D01*
X3937857Y-27167476D01*
X4118809Y-27357952D02*
X4099762Y-27367476D01*
X4061667Y-27367476D01*
X4042619Y-27357952D01*
X4033095Y-27338905D01*
X4033095Y-27262714D01*
X4042619Y-27243667D01*
X4061667Y-27234143D01*
X4099762Y-27234143D01*
X4118809Y-27243667D01*
X4128333Y-27262714D01*
X4128333Y-27281762D01*
X4033095Y-27300809D01*
X4204524Y-27357952D02*
X4223571Y-27367476D01*
X4261667Y-27367476D01*
X4280714Y-27357952D01*
X4290238Y-27338905D01*
X4290238Y-27329381D01*
X4280714Y-27310333D01*
X4261667Y-27300809D01*
X4233095Y-27300809D01*
X4214048Y-27291286D01*
X4204524Y-27272238D01*
X4204524Y-27262714D01*
X4214048Y-27243667D01*
X4233095Y-27234143D01*
X4261667Y-27234143D01*
X4280714Y-27243667D01*
X4356905Y-27443667D02*
X4366429Y-27434143D01*
X4385476Y-27405571D01*
X4395000Y-27386524D01*
X4404524Y-27357952D01*
X4414048Y-27310333D01*
X4414048Y-27272238D01*
X4404524Y-27224619D01*
X4395000Y-27196048D01*
X4385476Y-27177000D01*
X4366429Y-27148428D01*
X4356905Y-27138905D01*
M02*
