%TF.GenerationSoftware,KiCad,Pcbnew,(6.0.4)*%
%TF.CreationDate,2022-09-10T17:39:23-05:00*%
%TF.ProjectId,CircleBoard,43697263-6c65-4426-9f61-72642e6b6963,rev?*%
%TF.SameCoordinates,Original*%
%TF.FileFunction,Copper,L2,Bot*%
%TF.FilePolarity,Positive*%
%FSLAX46Y46*%
G04 Gerber Fmt 4.6, Leading zero omitted, Abs format (unit mm)*
G04 Created by KiCad (PCBNEW (6.0.4)) date 2022-09-10 17:39:23*
%MOMM*%
%LPD*%
G01*
G04 APERTURE LIST*
%TA.AperFunction,ComponentPad*%
%ADD10O,1.100000X1.900000*%
%TD*%
%TA.AperFunction,ComponentPad*%
%ADD11C,1.800000*%
%TD*%
%TA.AperFunction,ComponentPad*%
%ADD12C,4.800000*%
%TD*%
%TA.AperFunction,ViaPad*%
%ADD13C,0.600000*%
%TD*%
%TA.AperFunction,ViaPad*%
%ADD14C,0.450000*%
%TD*%
%TA.AperFunction,Conductor*%
%ADD15C,0.500000*%
%TD*%
%TA.AperFunction,Conductor*%
%ADD16C,0.250000*%
%TD*%
%TA.AperFunction,Conductor*%
%ADD17C,0.200000*%
%TD*%
%TA.AperFunction,Conductor*%
%ADD18C,0.350000*%
%TD*%
G04 APERTURE END LIST*
D10*
X131920000Y-256312000D03*
X123280000Y-252512000D03*
X131920000Y-252512000D03*
X123280000Y-256312000D03*
X124080000Y3512000D03*
X132720000Y-288000D03*
X124080000Y-288000D03*
X132720000Y3512000D03*
D11*
X220800000Y-125400000D03*
X220800000Y-130400000D03*
X220800000Y-127900000D03*
X235300000Y-125400000D03*
X235300000Y-130400000D03*
D12*
X228300000Y-133500000D03*
X228300000Y-122300000D03*
D13*
X110200000Y-138800000D03*
X84315000Y-173939000D03*
X54089000Y-189306000D03*
X92570000Y-63068000D03*
X113525000Y-67132000D03*
X143751000Y-14681000D03*
X161531000Y-5664000D03*
X145148000Y-244424000D03*
X165595000Y-219786000D03*
X145275000Y-32842000D03*
X68948000Y-203657000D03*
X68440000Y-111963000D03*
X150300000Y-138900000D03*
X205727000Y-189179000D03*
X41389000Y-40208000D03*
X199250000Y-221818000D03*
X67932000Y-145872000D03*
X99555000Y-98247000D03*
X97904000Y-7315000D03*
X40627000Y-93421000D03*
X131100000Y-141500000D03*
X238239000Y-173812000D03*
X192900000Y-54686000D03*
X129908000Y-52654000D03*
X226682000Y-143586000D03*
X222618000Y-162636000D03*
X110200000Y-149400000D03*
X8369000Y-159207000D03*
X38087000Y-59512000D03*
X171437000Y-117932000D03*
X84442000Y-83134000D03*
X150500000Y-118000000D03*
X15989000Y-142443000D03*
X115557000Y-224612000D03*
X95999000Y-38811000D03*
X119494000Y-169875000D03*
X84442000Y-22428000D03*
X146291000Y-191338000D03*
X251828000Y-96215000D03*
X190487000Y-203784000D03*
X147053000Y-66751000D03*
X117900000Y-106000000D03*
X175247000Y-83007000D03*
X150400000Y-106900000D03*
X245224000Y-115011000D03*
X116827000Y-14046000D03*
X141084000Y-170637000D03*
X141592000Y-87325000D03*
X9385000Y-97231000D03*
X60820000Y-36906000D03*
X92062000Y-194894000D03*
X160134000Y-158826000D03*
X205346000Y-67894000D03*
X219189000Y-217373000D03*
X172072000Y-139776000D03*
X192773000Y-145237000D03*
X137200000Y-144000000D03*
X114541000Y-190830000D03*
X195694000Y-167208000D03*
X129908000Y-204292000D03*
X163309000Y-249885000D03*
X117400000Y-143800000D03*
X160134000Y-98120000D03*
X220459000Y-94056000D03*
D14*
X158000000Y-131500000D03*
D13*
X69075000Y-52273000D03*
X35166000Y-112852000D03*
X116446000Y-243916000D03*
X196202000Y-90754000D03*
X226047000Y-114630000D03*
X174866000Y-20015000D03*
X192138000Y-113106000D03*
X168389000Y-194386000D03*
X175374000Y-234645000D03*
X123600000Y-126300000D03*
X23609000Y-83515000D03*
X99428000Y-158826000D03*
X64884000Y-166573000D03*
X144767000Y-224866000D03*
X168008000Y-63576000D03*
X22466000Y-173558000D03*
X110000000Y-128400000D03*
X38087000Y-162890000D03*
X88633000Y-140284000D03*
X166103000Y-38176000D03*
X137500000Y-105900000D03*
X53962000Y-128600000D03*
X222364000Y-60147000D03*
X110200000Y-118100000D03*
X37706000Y-198196000D03*
X114922000Y-32969000D03*
X110400000Y-107000000D03*
X235953000Y-83134000D03*
X64376000Y-91262000D03*
X244335000Y-142951000D03*
X34531000Y-144221000D03*
X61582000Y-220929000D03*
X251447000Y-161239000D03*
X42024000Y-218389000D03*
X89141000Y-117551000D03*
X150200000Y-149500000D03*
X219316000Y-40081000D03*
X96380000Y-219151000D03*
X199758000Y-37668000D03*
X222999000Y-197815000D03*
X150400000Y-128400000D03*
D14*
X158000000Y-124800000D03*
D13*
X123800000Y-141700000D03*
X84442000Y-234645000D03*
X56756000Y-67259000D03*
X118986000Y-87833000D03*
X205727000Y-128600000D03*
X15354000Y-115519000D03*
X131100000Y-126300000D03*
X97142000Y-250012000D03*
X175247000Y-173939000D03*
X166200000Y-35000000D03*
X91200000Y-38900000D03*
X113600000Y-64000000D03*
X59224900Y-65625300D03*
X205400000Y-64800000D03*
X142200000Y-66700000D03*
X241500000Y-88200000D03*
X236100000Y-79900000D03*
X228435100Y-89374100D03*
X220500000Y-90800000D03*
X56256300Y-110154300D03*
X8758700Y-107185700D03*
X160200000Y-94900000D03*
X94800000Y-98300000D03*
X245300000Y-111800000D03*
X160400000Y-107000000D03*
X222300000Y-173800000D03*
X175500000Y-170800000D03*
X170400000Y-173900000D03*
X84500000Y-170700000D03*
X23000000Y-170300000D03*
X68130700Y-172494900D03*
X185600000Y-203800000D03*
X130000000Y-201100000D03*
X56900000Y-207800000D03*
X125000000Y-204228600D03*
X160425300Y-246709900D03*
X92400000Y-250100000D03*
X187900000Y-145300000D03*
X110400000Y-146200000D03*
X123600000Y-123300000D03*
X98000000Y-4100000D03*
X251900000Y-93000000D03*
X131000000Y-123300000D03*
X137400000Y-146700000D03*
X123800000Y-138800000D03*
X205800000Y-125400000D03*
X128700000Y-142800000D03*
X222700000Y-159400000D03*
X137400000Y-149300000D03*
D14*
X138400000Y-141600000D03*
X211100000Y-130200000D03*
X138400000Y-139000000D03*
X211200000Y-124200000D03*
X163200000Y-131000000D03*
X138200000Y-136500000D03*
X138000000Y-134000000D03*
X161800000Y-131000000D03*
X137800000Y-128900000D03*
X158000000Y-130100000D03*
X163200000Y-130200000D03*
D15*
X128700000Y-142800000D02*
X124700000Y-138800000D01*
X132820000Y3800000D02*
X132820000Y0D01*
X122860000Y-256200000D02*
X122860000Y-252400000D01*
X131500000Y-256200000D02*
X131500000Y-252400000D01*
X124180000Y3800000D02*
X124180000Y0D01*
D16*
X159065200Y-40000000D02*
X92300000Y-40000000D01*
X164065200Y-35000000D02*
X159065200Y-40000000D01*
X166200000Y-35000000D02*
X164065200Y-35000000D01*
X92300000Y-40000000D02*
X91200000Y-38900000D01*
X111974700Y-65625300D02*
X59224900Y-65625300D01*
X113600000Y-64000000D02*
X111974700Y-65625300D01*
X143274700Y-65625300D02*
X142200000Y-66700000D01*
X204574700Y-65625300D02*
X143274700Y-65625300D01*
X205400000Y-64800000D02*
X204574700Y-65625300D01*
X241500000Y-84500000D02*
X236900000Y-79900000D01*
X236900000Y-79900000D02*
X236100000Y-79900000D01*
X241500000Y-88200000D02*
X241500000Y-84500000D01*
X220500000Y-90800000D02*
X220692800Y-90607200D01*
X220692800Y-90607200D02*
X227202000Y-90607200D01*
X227202000Y-90607200D02*
X228435100Y-89374100D01*
X56256300Y-110154300D02*
X53287700Y-107185700D01*
X53287700Y-107185700D02*
X8758700Y-107185700D01*
X153300000Y-99700000D02*
X158100000Y-94900000D01*
X96200000Y-99700000D02*
X153300000Y-99700000D01*
X94800000Y-98300000D02*
X96200000Y-99700000D01*
X158100000Y-94900000D02*
X160200000Y-94900000D01*
X239400000Y-107000000D02*
X244200000Y-111800000D01*
X244200000Y-111800000D02*
X245300000Y-111800000D01*
X160400000Y-107000000D02*
X239400000Y-107000000D01*
X177994900Y-172494900D02*
X216405100Y-172494900D01*
X216405100Y-172494900D02*
X217710200Y-173800000D01*
X175500000Y-170800000D02*
X176300000Y-170800000D01*
X176300000Y-170800000D02*
X177994900Y-172494900D01*
X217710200Y-173800000D02*
X222300000Y-173800000D01*
X86200000Y-170700000D02*
X84500000Y-170700000D01*
X170100000Y-173600000D02*
X89100000Y-173600000D01*
X170400000Y-173900000D02*
X170100000Y-173600000D01*
X89100000Y-173600000D02*
X86200000Y-170700000D01*
X24100000Y-170300000D02*
X26294900Y-172494900D01*
X23000000Y-170300000D02*
X24100000Y-170300000D01*
X26294900Y-172494900D02*
X68130700Y-172494900D01*
X183980900Y-202180900D02*
X185600000Y-203800000D01*
X130000000Y-201100000D02*
X131080900Y-202180900D01*
X131080900Y-202180900D02*
X183980900Y-202180900D01*
X121428600Y-207800000D02*
X125000000Y-204228600D01*
X56900000Y-207800000D02*
X121428600Y-207800000D01*
X94100000Y-248400000D02*
X98000000Y-248400000D01*
X98000000Y-248400000D02*
X99690100Y-246709900D01*
X99690100Y-246709900D02*
X160425300Y-246709900D01*
X92400000Y-250100000D02*
X94100000Y-248400000D01*
X111300000Y-145300000D02*
X110400000Y-146200000D01*
X187900000Y-145300000D02*
X111300000Y-145300000D01*
D15*
X118440030Y-67740030D02*
X92200000Y-93980060D01*
X90450489Y-39750489D02*
X118440030Y-67740030D01*
X92200000Y-93980060D02*
X92200000Y-97700000D01*
X98000000Y-4100000D02*
X90450489Y-11649511D01*
X90450489Y-11649511D02*
X90450489Y-39750489D01*
X117800000Y-123300000D02*
X123600000Y-123300000D01*
X92200000Y-97700000D02*
X117800000Y-123300000D01*
X132900000Y-123300000D02*
X131000000Y-123300000D01*
X163200000Y-93000000D02*
X132900000Y-123300000D01*
X251900000Y-93000000D02*
X163200000Y-93000000D01*
X206900000Y-133400000D02*
X206900000Y-126500000D01*
X206900000Y-126500000D02*
X205800000Y-125400000D01*
X137400000Y-146700000D02*
X193600000Y-146700000D01*
D16*
X124700000Y-138800000D02*
X123800000Y-138800000D01*
D15*
X193600000Y-146700000D02*
X206900000Y-133400000D01*
X216300000Y-153000000D02*
X222700000Y-159400000D01*
X141100000Y-153000000D02*
X216300000Y-153000000D01*
X137400000Y-149300000D02*
X141100000Y-153000000D01*
D17*
X206199520Y-124599520D02*
X200065486Y-124599520D01*
X200065486Y-124599520D02*
X183065006Y-141600000D01*
X211100000Y-130200000D02*
X211100000Y-129500000D01*
X211100000Y-129500000D02*
X206199520Y-124599520D01*
X183065006Y-141600000D02*
X138400000Y-141600000D01*
X138400000Y-139000000D02*
X140425480Y-136974520D01*
X210900000Y-123900000D02*
X211200000Y-124200000D01*
X184225480Y-136974520D02*
X197300000Y-123900000D01*
X197300000Y-123900000D02*
X210900000Y-123900000D01*
X140425480Y-136974520D02*
X184225480Y-136974520D01*
D18*
X157700000Y-136500000D02*
X163200000Y-131000000D01*
X138200000Y-136500000D02*
X157700000Y-136500000D01*
X158800000Y-134000000D02*
X161800000Y-131000000D01*
X138000000Y-134000000D02*
X158800000Y-134000000D01*
D17*
X226000000Y-126200000D02*
X234500000Y-126200000D01*
X140300000Y-126400000D02*
X193900000Y-126400000D01*
X197500000Y-122800000D02*
X222600000Y-122800000D01*
X234500000Y-126200000D02*
X235300000Y-125400000D01*
X193900000Y-126400000D02*
X197500000Y-122800000D01*
X137800000Y-128900000D02*
X140300000Y-126400000D01*
X222600000Y-122800000D02*
X226000000Y-126200000D01*
D16*
X163200000Y-130200000D02*
X163100000Y-130100000D01*
X163100000Y-130100000D02*
X158000000Y-130100000D01*
%TA.AperFunction,Conductor*%
G36*
X120180115Y4657418D02*
G01*
X123049294Y4617752D01*
X123117130Y4596810D01*
X123162877Y4542517D01*
X123172009Y4472110D01*
X123157966Y4431063D01*
X123105816Y4336202D01*
X123100988Y4324938D01*
X123041975Y4138905D01*
X123039427Y4126916D01*
X123022393Y3975053D01*
X123022000Y3968029D01*
X123022000Y3784115D01*
X123026475Y3768876D01*
X123027865Y3767671D01*
X123035548Y3766000D01*
X125119885Y3766000D01*
X125135124Y3770475D01*
X125136329Y3771865D01*
X125138000Y3779548D01*
X125138000Y3961124D01*
X125137699Y3967272D01*
X125123473Y4112361D01*
X125121090Y4124396D01*
X125064683Y4311223D01*
X125060008Y4322565D01*
X125016789Y4403849D01*
X125002469Y4473386D01*
X125028017Y4539627D01*
X125085321Y4581539D01*
X125129778Y4588989D01*
X130189037Y4519046D01*
X131626325Y4499175D01*
X131694163Y4478233D01*
X131739909Y4423940D01*
X131749041Y4353533D01*
X131742517Y4330913D01*
X131742850Y4330807D01*
X131681975Y4138905D01*
X131679427Y4126916D01*
X131662393Y3975053D01*
X131662000Y3968029D01*
X131662000Y3784115D01*
X131666475Y3768876D01*
X131667865Y3767671D01*
X131675548Y3766000D01*
X133759885Y3766000D01*
X133775124Y3770475D01*
X133776329Y3771865D01*
X133778000Y3779548D01*
X133778000Y3961124D01*
X133777699Y3967272D01*
X133763473Y4112361D01*
X133761090Y4124396D01*
X133706163Y4306324D01*
X133705622Y4377319D01*
X133743550Y4437335D01*
X133807904Y4467319D01*
X133828527Y4468730D01*
X138793270Y4400093D01*
X138806690Y4399189D01*
X151993586Y2800777D01*
X152006293Y2798572D01*
X156840670Y1702116D01*
X156858901Y1696501D01*
X181362467Y-7937038D01*
X181377088Y-7943899D01*
X188617409Y-11926787D01*
X209968873Y-23672190D01*
X209986580Y-23683980D01*
X210649424Y-24211230D01*
X210651133Y-24212614D01*
X211693373Y-25071770D01*
X212377782Y-25635952D01*
X212420291Y-25670994D01*
X212421951Y-25672388D01*
X213796689Y-26846524D01*
X213808673Y-26858226D01*
X221811980Y-35786990D01*
X234991751Y-50490798D01*
X235006302Y-50510628D01*
X245191869Y-67686289D01*
X245204460Y-67715303D01*
X250858582Y-87115136D01*
X250861020Y-87124949D01*
X251365010Y-89569466D01*
X251780967Y-91586990D01*
X251876489Y-92050305D01*
X251870654Y-92121062D01*
X251827491Y-92177432D01*
X251766255Y-92201058D01*
X251732288Y-92204628D01*
X251732286Y-92204629D01*
X251725288Y-92205364D01*
X251638884Y-92234778D01*
X251598279Y-92241500D01*
X163267070Y-92241500D01*
X163248120Y-92240067D01*
X163233885Y-92237901D01*
X163233881Y-92237901D01*
X163226651Y-92236801D01*
X163219359Y-92237394D01*
X163219356Y-92237394D01*
X163173982Y-92241085D01*
X163163767Y-92241500D01*
X163155707Y-92241500D01*
X163152073Y-92241924D01*
X163152067Y-92241924D01*
X163139042Y-92243443D01*
X163127480Y-92244791D01*
X163123132Y-92245221D01*
X163050364Y-92251140D01*
X163043403Y-92253395D01*
X163037463Y-92254582D01*
X163031588Y-92255971D01*
X163024319Y-92256818D01*
X162955670Y-92281736D01*
X162951542Y-92283153D01*
X162889064Y-92303393D01*
X162889062Y-92303394D01*
X162882101Y-92305649D01*
X162875846Y-92309445D01*
X162870372Y-92311951D01*
X162864942Y-92314670D01*
X162858063Y-92317167D01*
X162851943Y-92321180D01*
X162851942Y-92321180D01*
X162797024Y-92357186D01*
X162793320Y-92359523D01*
X162730893Y-92397405D01*
X162722516Y-92404803D01*
X162722492Y-92404776D01*
X162719500Y-92407429D01*
X162716267Y-92410132D01*
X162710148Y-92414144D01*
X162705116Y-92419456D01*
X162656872Y-92470383D01*
X162654494Y-92472825D01*
X160873224Y-94254095D01*
X160810912Y-94288121D01*
X160740097Y-94283056D01*
X160709854Y-94265857D01*
X160709815Y-94265918D01*
X160708554Y-94265118D01*
X160556666Y-94168727D01*
X160527463Y-94158328D01*
X160392425Y-94110243D01*
X160392420Y-94110242D01*
X160385790Y-94107881D01*
X160378802Y-94107048D01*
X160378799Y-94107047D01*
X160255698Y-94092368D01*
X160205680Y-94086404D01*
X160198677Y-94087140D01*
X160198676Y-94087140D01*
X160032288Y-94104628D01*
X160032286Y-94104629D01*
X160025288Y-94105364D01*
X159853579Y-94163818D01*
X159717039Y-94247819D01*
X159651019Y-94266500D01*
X158178767Y-94266500D01*
X158167584Y-94265973D01*
X158160091Y-94264298D01*
X158152165Y-94264547D01*
X158152164Y-94264547D01*
X158092014Y-94266438D01*
X158088055Y-94266500D01*
X158060144Y-94266500D01*
X158056210Y-94266997D01*
X158056209Y-94266997D01*
X158056144Y-94267005D01*
X158044307Y-94267938D01*
X158012490Y-94268938D01*
X158008029Y-94269078D01*
X158000110Y-94269327D01*
X157982454Y-94274456D01*
X157980658Y-94274978D01*
X157961306Y-94278986D01*
X157954235Y-94279880D01*
X157941203Y-94281526D01*
X157933834Y-94284443D01*
X157933832Y-94284444D01*
X157900097Y-94297800D01*
X157888869Y-94301645D01*
X157846407Y-94313982D01*
X157839584Y-94318017D01*
X157839582Y-94318018D01*
X157828972Y-94324293D01*
X157811224Y-94332988D01*
X157792383Y-94340448D01*
X157785967Y-94345110D01*
X157785966Y-94345110D01*
X157756613Y-94366436D01*
X157746693Y-94372952D01*
X157715465Y-94391420D01*
X157715462Y-94391422D01*
X157708638Y-94395458D01*
X157694317Y-94409779D01*
X157679284Y-94422619D01*
X157662893Y-94434528D01*
X157657842Y-94440634D01*
X157634702Y-94468605D01*
X157626712Y-94477384D01*
X153074500Y-99029595D01*
X153012188Y-99063621D01*
X152985405Y-99066500D01*
X96514595Y-99066500D01*
X96446474Y-99046498D01*
X96425499Y-99029595D01*
X95634420Y-98238515D01*
X95600395Y-98176203D01*
X95598301Y-98163465D01*
X95594182Y-98126745D01*
X95593397Y-98119745D01*
X95533745Y-97948448D01*
X95437626Y-97794624D01*
X95423941Y-97780843D01*
X95314778Y-97670915D01*
X95314774Y-97670912D01*
X95309815Y-97665918D01*
X95298697Y-97658862D01*
X95250538Y-97628300D01*
X95156666Y-97568727D01*
X95127463Y-97558328D01*
X94992425Y-97510243D01*
X94992420Y-97510242D01*
X94985790Y-97507881D01*
X94978802Y-97507048D01*
X94978799Y-97507047D01*
X94855698Y-97492368D01*
X94805680Y-97486404D01*
X94798677Y-97487140D01*
X94798676Y-97487140D01*
X94632288Y-97504628D01*
X94632286Y-97504629D01*
X94625288Y-97505364D01*
X94453579Y-97563818D01*
X94447575Y-97567512D01*
X94305095Y-97655166D01*
X94305092Y-97655168D01*
X94299088Y-97658862D01*
X94294053Y-97663793D01*
X94294050Y-97663795D01*
X94180806Y-97774692D01*
X94169493Y-97785771D01*
X94071235Y-97938238D01*
X94068826Y-97944858D01*
X94068824Y-97944861D01*
X94011606Y-98102066D01*
X94009197Y-98108685D01*
X94004662Y-98144581D01*
X93976282Y-98209654D01*
X93917223Y-98249056D01*
X93846237Y-98250273D01*
X93790562Y-98217881D01*
X92995405Y-97422724D01*
X92961379Y-97360412D01*
X92958500Y-97333629D01*
X92958500Y-94346431D01*
X92978502Y-94278310D01*
X92995405Y-94257336D01*
X96464101Y-90788640D01*
X219686463Y-90788640D01*
X219704163Y-90969160D01*
X219761418Y-91141273D01*
X219765065Y-91147295D01*
X219765066Y-91147297D01*
X219821633Y-91240700D01*
X219855380Y-91296424D01*
X219981382Y-91426902D01*
X220133159Y-91526222D01*
X220139763Y-91528678D01*
X220139765Y-91528679D01*
X220296558Y-91586990D01*
X220296560Y-91586990D01*
X220303168Y-91589448D01*
X220386995Y-91600633D01*
X220475980Y-91612507D01*
X220475984Y-91612507D01*
X220482961Y-91613438D01*
X220489972Y-91612800D01*
X220489976Y-91612800D01*
X220632459Y-91599832D01*
X220663600Y-91596998D01*
X220670302Y-91594820D01*
X220670304Y-91594820D01*
X220829409Y-91543124D01*
X220829412Y-91543123D01*
X220836108Y-91540947D01*
X220991912Y-91448069D01*
X221123266Y-91322982D01*
X221140547Y-91296973D01*
X221194902Y-91251303D01*
X221245494Y-91240700D01*
X227123233Y-91240700D01*
X227134416Y-91241227D01*
X227141909Y-91242902D01*
X227149835Y-91242653D01*
X227149836Y-91242653D01*
X227209986Y-91240762D01*
X227213945Y-91240700D01*
X227241856Y-91240700D01*
X227245791Y-91240203D01*
X227245856Y-91240195D01*
X227257693Y-91239262D01*
X227289951Y-91238248D01*
X227293970Y-91238122D01*
X227301889Y-91237873D01*
X227321343Y-91232221D01*
X227340700Y-91228213D01*
X227352930Y-91226668D01*
X227352931Y-91226668D01*
X227360797Y-91225674D01*
X227368168Y-91222755D01*
X227368170Y-91222755D01*
X227401912Y-91209396D01*
X227413142Y-91205551D01*
X227447983Y-91195429D01*
X227447984Y-91195429D01*
X227455593Y-91193218D01*
X227462412Y-91189185D01*
X227462417Y-91189183D01*
X227473028Y-91182907D01*
X227490776Y-91174212D01*
X227509617Y-91166752D01*
X227545387Y-91140764D01*
X227555307Y-91134248D01*
X227586535Y-91115780D01*
X227586538Y-91115778D01*
X227593362Y-91111742D01*
X227607683Y-91097421D01*
X227622717Y-91084580D01*
X227632694Y-91077331D01*
X227639107Y-91072672D01*
X227667298Y-91038595D01*
X227675288Y-91029816D01*
X228495277Y-90209827D01*
X228557589Y-90175801D01*
X228572937Y-90173443D01*
X228598700Y-90171098D01*
X228605402Y-90168920D01*
X228605404Y-90168920D01*
X228764509Y-90117224D01*
X228764512Y-90117223D01*
X228771208Y-90115047D01*
X228927012Y-90022169D01*
X229058366Y-89897082D01*
X229158743Y-89746002D01*
X229223155Y-89576438D01*
X229224135Y-89569466D01*
X229247848Y-89400739D01*
X229247848Y-89400736D01*
X229248399Y-89396817D01*
X229248716Y-89374100D01*
X229228497Y-89193845D01*
X229226180Y-89187191D01*
X229171164Y-89029206D01*
X229171162Y-89029203D01*
X229168845Y-89022548D01*
X229165109Y-89016569D01*
X229076459Y-88874698D01*
X229072726Y-88868724D01*
X229052215Y-88848069D01*
X228949878Y-88745015D01*
X228949874Y-88745012D01*
X228944915Y-88740018D01*
X228933797Y-88732962D01*
X228866731Y-88690401D01*
X228791766Y-88642827D01*
X228762563Y-88632428D01*
X228627525Y-88584343D01*
X228627520Y-88584342D01*
X228620890Y-88581981D01*
X228613902Y-88581148D01*
X228613899Y-88581147D01*
X228490798Y-88566468D01*
X228440780Y-88560504D01*
X228433777Y-88561240D01*
X228433776Y-88561240D01*
X228267388Y-88578728D01*
X228267386Y-88578729D01*
X228260388Y-88579464D01*
X228088679Y-88637918D01*
X228082675Y-88641612D01*
X227940195Y-88729266D01*
X227940192Y-88729268D01*
X227934188Y-88732962D01*
X227929153Y-88737893D01*
X227929150Y-88737895D01*
X227812960Y-88851677D01*
X227804593Y-88859871D01*
X227706335Y-89012338D01*
X227703926Y-89018958D01*
X227703924Y-89018961D01*
X227646706Y-89176166D01*
X227644297Y-89182785D01*
X227637238Y-89238667D01*
X227608857Y-89303741D01*
X227601327Y-89311969D01*
X226976499Y-89936796D01*
X226914187Y-89970821D01*
X226887404Y-89973700D01*
X220771563Y-89973700D01*
X220760379Y-89973173D01*
X220752891Y-89971499D01*
X220744968Y-89971748D01*
X220684833Y-89973638D01*
X220680875Y-89973700D01*
X220652944Y-89973700D01*
X220649029Y-89974195D01*
X220649025Y-89974195D01*
X220648967Y-89974203D01*
X220648938Y-89974206D01*
X220637096Y-89975139D01*
X220592910Y-89976527D01*
X220575544Y-89981572D01*
X220573458Y-89982178D01*
X220554106Y-89986186D01*
X220552381Y-89986404D01*
X220545060Y-89987329D01*
X220514348Y-89987437D01*
X220512678Y-89987238D01*
X220512674Y-89987238D01*
X220505680Y-89986404D01*
X220498677Y-89987140D01*
X220498676Y-89987140D01*
X220332288Y-90004628D01*
X220332286Y-90004629D01*
X220325288Y-90005364D01*
X220153579Y-90063818D01*
X220147575Y-90067512D01*
X220005095Y-90155166D01*
X220005092Y-90155168D01*
X219999088Y-90158862D01*
X219994053Y-90163793D01*
X219994050Y-90163795D01*
X219947044Y-90209827D01*
X219869493Y-90285771D01*
X219771235Y-90438238D01*
X219709197Y-90608685D01*
X219686463Y-90788640D01*
X96464101Y-90788640D01*
X107364101Y-79888640D01*
X235286463Y-79888640D01*
X235304163Y-80069160D01*
X235361418Y-80241273D01*
X235455380Y-80396424D01*
X235581382Y-80526902D01*
X235733159Y-80626222D01*
X235739763Y-80628678D01*
X235739765Y-80628679D01*
X235896558Y-80686990D01*
X235896560Y-80686990D01*
X235903168Y-80689448D01*
X235986995Y-80700633D01*
X236075980Y-80712507D01*
X236075984Y-80712507D01*
X236082961Y-80713438D01*
X236089972Y-80712800D01*
X236089976Y-80712800D01*
X236232459Y-80699832D01*
X236263600Y-80696998D01*
X236270302Y-80694820D01*
X236270304Y-80694820D01*
X236429409Y-80643124D01*
X236429412Y-80643123D01*
X236436108Y-80640947D01*
X236456688Y-80628679D01*
X236545409Y-80575791D01*
X236614164Y-80558091D01*
X236681573Y-80580373D01*
X236699021Y-80594925D01*
X240829595Y-84725499D01*
X240863621Y-84787811D01*
X240866500Y-84814594D01*
X240866500Y-87653331D01*
X240846411Y-87721586D01*
X240775054Y-87832310D01*
X240775050Y-87832319D01*
X240771235Y-87838238D01*
X240768826Y-87844858D01*
X240768825Y-87844859D01*
X240728516Y-87955606D01*
X240709197Y-88008685D01*
X240686463Y-88188640D01*
X240704163Y-88369160D01*
X240761418Y-88541273D01*
X240765065Y-88547295D01*
X240765066Y-88547297D01*
X240822921Y-88642827D01*
X240855380Y-88696424D01*
X240860269Y-88701487D01*
X240860270Y-88701488D01*
X240902304Y-88745015D01*
X240981382Y-88826902D01*
X241133159Y-88926222D01*
X241139763Y-88928678D01*
X241139765Y-88928679D01*
X241296558Y-88986990D01*
X241296560Y-88986990D01*
X241303168Y-88989448D01*
X241386995Y-89000633D01*
X241475980Y-89012507D01*
X241475984Y-89012507D01*
X241482961Y-89013438D01*
X241489972Y-89012800D01*
X241489976Y-89012800D01*
X241632459Y-88999832D01*
X241663600Y-88996998D01*
X241670302Y-88994820D01*
X241670304Y-88994820D01*
X241829409Y-88943124D01*
X241829412Y-88943123D01*
X241836108Y-88940947D01*
X241991912Y-88848069D01*
X242123266Y-88722982D01*
X242223643Y-88571902D01*
X242288055Y-88402338D01*
X242289035Y-88395366D01*
X242312748Y-88226639D01*
X242312748Y-88226636D01*
X242313299Y-88222717D01*
X242313616Y-88200000D01*
X242293397Y-88019745D01*
X242291080Y-88013091D01*
X242236064Y-87855106D01*
X242236062Y-87855103D01*
X242233745Y-87848448D01*
X242152646Y-87718661D01*
X242133500Y-87651892D01*
X242133500Y-84578763D01*
X242134027Y-84567579D01*
X242135701Y-84560091D01*
X242133562Y-84492032D01*
X242133500Y-84488075D01*
X242133500Y-84460144D01*
X242132994Y-84456138D01*
X242132061Y-84444292D01*
X242130922Y-84408037D01*
X242130673Y-84400110D01*
X242125022Y-84380658D01*
X242121014Y-84361306D01*
X242119468Y-84349068D01*
X242119467Y-84349066D01*
X242118474Y-84341203D01*
X242102194Y-84300086D01*
X242098359Y-84288885D01*
X242086018Y-84246406D01*
X242081985Y-84239587D01*
X242081983Y-84239582D01*
X242075707Y-84228971D01*
X242067010Y-84211221D01*
X242059552Y-84192383D01*
X242033571Y-84156623D01*
X242027053Y-84146701D01*
X242008578Y-84115460D01*
X242008574Y-84115455D01*
X242004542Y-84108637D01*
X241990218Y-84094313D01*
X241977376Y-84079278D01*
X241965472Y-84062893D01*
X241931406Y-84034711D01*
X241922627Y-84026722D01*
X237403652Y-79507747D01*
X237396112Y-79499461D01*
X237392000Y-79492982D01*
X237342348Y-79446356D01*
X237339507Y-79443602D01*
X237319770Y-79423865D01*
X237316573Y-79421385D01*
X237307551Y-79413680D01*
X237281100Y-79388841D01*
X237275321Y-79383414D01*
X237268375Y-79379595D01*
X237268372Y-79379593D01*
X237257566Y-79373652D01*
X237241047Y-79362801D01*
X237240583Y-79362441D01*
X237225041Y-79350386D01*
X237217772Y-79347241D01*
X237217768Y-79347238D01*
X237184463Y-79332826D01*
X237173813Y-79327609D01*
X237135060Y-79306305D01*
X237115437Y-79301267D01*
X237096734Y-79294863D01*
X237085420Y-79289967D01*
X237085419Y-79289967D01*
X237078145Y-79286819D01*
X237070322Y-79285580D01*
X237070312Y-79285577D01*
X237034476Y-79279901D01*
X237022856Y-79277495D01*
X236987711Y-79268472D01*
X236987710Y-79268472D01*
X236980030Y-79266500D01*
X236959776Y-79266500D01*
X236940065Y-79264949D01*
X236927886Y-79263020D01*
X236920057Y-79261780D01*
X236912165Y-79262526D01*
X236876039Y-79265941D01*
X236864181Y-79266500D01*
X236647338Y-79266500D01*
X236579824Y-79246885D01*
X236546583Y-79225790D01*
X236456666Y-79168727D01*
X236427463Y-79158328D01*
X236292425Y-79110243D01*
X236292420Y-79110242D01*
X236285790Y-79107881D01*
X236278802Y-79107048D01*
X236278799Y-79107047D01*
X236155698Y-79092368D01*
X236105680Y-79086404D01*
X236098677Y-79087140D01*
X236098676Y-79087140D01*
X235932288Y-79104628D01*
X235932286Y-79104629D01*
X235925288Y-79105364D01*
X235753579Y-79163818D01*
X235747575Y-79167512D01*
X235605095Y-79255166D01*
X235605092Y-79255168D01*
X235599088Y-79258862D01*
X235594053Y-79263793D01*
X235594050Y-79263795D01*
X235474525Y-79380843D01*
X235469493Y-79385771D01*
X235371235Y-79538238D01*
X235368826Y-79544858D01*
X235368824Y-79544861D01*
X235311606Y-79702066D01*
X235309197Y-79708685D01*
X235286463Y-79888640D01*
X107364101Y-79888640D01*
X118956682Y-68296059D01*
X118962370Y-68290712D01*
X119002948Y-68254875D01*
X119008434Y-68250030D01*
X119045665Y-68197349D01*
X119049746Y-68191894D01*
X119085221Y-68147056D01*
X119089764Y-68141314D01*
X119093786Y-68132709D01*
X119105033Y-68113345D01*
X119110514Y-68105590D01*
X119134627Y-68045757D01*
X119137334Y-68039531D01*
X119164652Y-67981080D01*
X119166585Y-67971787D01*
X119173078Y-67950350D01*
X119173892Y-67948330D01*
X119173893Y-67948327D01*
X119176628Y-67941540D01*
X119186329Y-67877768D01*
X119187535Y-67871061D01*
X119199180Y-67815076D01*
X119200670Y-67807915D01*
X119200413Y-67798425D01*
X119201801Y-67776063D01*
X119202127Y-67773917D01*
X119203228Y-67766681D01*
X119199050Y-67715303D01*
X119198001Y-67702411D01*
X119197632Y-67695605D01*
X119196085Y-67638425D01*
X119196085Y-67638424D01*
X119195887Y-67631110D01*
X119193452Y-67621927D01*
X119189660Y-67599859D01*
X119188890Y-67590393D01*
X119169009Y-67529021D01*
X119167088Y-67522493D01*
X119152433Y-67467225D01*
X119150556Y-67460146D01*
X119146081Y-67451782D01*
X119137308Y-67431165D01*
X119136638Y-67429097D01*
X119136637Y-67429094D01*
X119134381Y-67422131D01*
X119100918Y-67366985D01*
X119097541Y-67361066D01*
X119087988Y-67343211D01*
X119067112Y-67304196D01*
X119060826Y-67297078D01*
X119047552Y-67279040D01*
X119045541Y-67275726D01*
X119045537Y-67275721D01*
X119042625Y-67270922D01*
X119035227Y-67262546D01*
X118996061Y-67223380D01*
X118990715Y-67217693D01*
X118971931Y-67196424D01*
X118950030Y-67171626D01*
X118939289Y-67164035D01*
X118922914Y-67150233D01*
X118461321Y-66688640D01*
X141386463Y-66688640D01*
X141404163Y-66869160D01*
X141461418Y-67041273D01*
X141465065Y-67047295D01*
X141465066Y-67047297D01*
X141535765Y-67164035D01*
X141555380Y-67196424D01*
X141681382Y-67326902D01*
X141833159Y-67426222D01*
X141839763Y-67428678D01*
X141839765Y-67428679D01*
X141996558Y-67486990D01*
X141996560Y-67486990D01*
X142003168Y-67489448D01*
X142086995Y-67500633D01*
X142175980Y-67512507D01*
X142175984Y-67512507D01*
X142182961Y-67513438D01*
X142189972Y-67512800D01*
X142189976Y-67512800D01*
X142332459Y-67499832D01*
X142363600Y-67496998D01*
X142370302Y-67494820D01*
X142370304Y-67494820D01*
X142529409Y-67443124D01*
X142529412Y-67443123D01*
X142536108Y-67440947D01*
X142660175Y-67366988D01*
X142685860Y-67351677D01*
X142685862Y-67351676D01*
X142691912Y-67348069D01*
X142823266Y-67222982D01*
X142923643Y-67071902D01*
X142988055Y-66902338D01*
X142991779Y-66875844D01*
X142997639Y-66834145D01*
X143026927Y-66769471D01*
X143033318Y-66762586D01*
X143500199Y-66295705D01*
X143562511Y-66261679D01*
X143589294Y-66258800D01*
X204495933Y-66258800D01*
X204507116Y-66259327D01*
X204514609Y-66261002D01*
X204522535Y-66260753D01*
X204522536Y-66260753D01*
X204582686Y-66258862D01*
X204586645Y-66258800D01*
X204614556Y-66258800D01*
X204618491Y-66258303D01*
X204618556Y-66258295D01*
X204630393Y-66257362D01*
X204662651Y-66256348D01*
X204666670Y-66256222D01*
X204674589Y-66255973D01*
X204694043Y-66250321D01*
X204713400Y-66246313D01*
X204725630Y-66244768D01*
X204725631Y-66244768D01*
X204733497Y-66243774D01*
X204740868Y-66240855D01*
X204740870Y-66240855D01*
X204774612Y-66227496D01*
X204785842Y-66223651D01*
X204820683Y-66213529D01*
X204820684Y-66213529D01*
X204828293Y-66211318D01*
X204835112Y-66207285D01*
X204835117Y-66207283D01*
X204845728Y-66201007D01*
X204863476Y-66192312D01*
X204882317Y-66184852D01*
X204918087Y-66158864D01*
X204928007Y-66152348D01*
X204959235Y-66133880D01*
X204959238Y-66133878D01*
X204966062Y-66129842D01*
X204980383Y-66115521D01*
X204995417Y-66102680D01*
X205005394Y-66095431D01*
X205011807Y-66090772D01*
X205039998Y-66056695D01*
X205047988Y-66047916D01*
X205460177Y-65635727D01*
X205522489Y-65601701D01*
X205537837Y-65599343D01*
X205563600Y-65596998D01*
X205570302Y-65594820D01*
X205570304Y-65594820D01*
X205729409Y-65543124D01*
X205729412Y-65543123D01*
X205736108Y-65540947D01*
X205891912Y-65448069D01*
X206023266Y-65322982D01*
X206123643Y-65171902D01*
X206188055Y-65002338D01*
X206189618Y-64991218D01*
X206212748Y-64826639D01*
X206212748Y-64826636D01*
X206213299Y-64822717D01*
X206213616Y-64800000D01*
X206193397Y-64619745D01*
X206190308Y-64610874D01*
X206136064Y-64455106D01*
X206136062Y-64455103D01*
X206133745Y-64448448D01*
X206123662Y-64432312D01*
X206041359Y-64300598D01*
X206037626Y-64294624D01*
X206023941Y-64280843D01*
X205914778Y-64170915D01*
X205914774Y-64170912D01*
X205909815Y-64165918D01*
X205898697Y-64158862D01*
X205850538Y-64128300D01*
X205756666Y-64068727D01*
X205727463Y-64058328D01*
X205592425Y-64010243D01*
X205592420Y-64010242D01*
X205585790Y-64007881D01*
X205578802Y-64007048D01*
X205578799Y-64007047D01*
X205455698Y-63992368D01*
X205405680Y-63986404D01*
X205398677Y-63987140D01*
X205398676Y-63987140D01*
X205232288Y-64004628D01*
X205232286Y-64004629D01*
X205225288Y-64005364D01*
X205053579Y-64063818D01*
X205047575Y-64067512D01*
X204905095Y-64155166D01*
X204905092Y-64155168D01*
X204899088Y-64158862D01*
X204894053Y-64163793D01*
X204894050Y-64163795D01*
X204774525Y-64280843D01*
X204769493Y-64285771D01*
X204671235Y-64438238D01*
X204668826Y-64444858D01*
X204668824Y-64444861D01*
X204627436Y-64558573D01*
X204609197Y-64608685D01*
X204602137Y-64664568D01*
X204573757Y-64729641D01*
X204566227Y-64737868D01*
X204349200Y-64954895D01*
X204286888Y-64988921D01*
X204260105Y-64991800D01*
X143353467Y-64991800D01*
X143342284Y-64991273D01*
X143334791Y-64989598D01*
X143326865Y-64989847D01*
X143326864Y-64989847D01*
X143266714Y-64991738D01*
X143262755Y-64991800D01*
X143234844Y-64991800D01*
X143230910Y-64992297D01*
X143230909Y-64992297D01*
X143230844Y-64992305D01*
X143219007Y-64993238D01*
X143187190Y-64994238D01*
X143182729Y-64994378D01*
X143174810Y-64994627D01*
X143157154Y-64999756D01*
X143155358Y-65000278D01*
X143136006Y-65004286D01*
X143128935Y-65005180D01*
X143115903Y-65006826D01*
X143108534Y-65009743D01*
X143108532Y-65009744D01*
X143074797Y-65023100D01*
X143063569Y-65026945D01*
X143021107Y-65039282D01*
X143014285Y-65043316D01*
X143014279Y-65043319D01*
X143003668Y-65049594D01*
X142985918Y-65058290D01*
X142974456Y-65062828D01*
X142974451Y-65062831D01*
X142967083Y-65065748D01*
X142960668Y-65070409D01*
X142931325Y-65091727D01*
X142921407Y-65098243D01*
X142902719Y-65109295D01*
X142883337Y-65120758D01*
X142869013Y-65135082D01*
X142853981Y-65147921D01*
X142837593Y-65159828D01*
X142827605Y-65171902D01*
X142809412Y-65193893D01*
X142801422Y-65202673D01*
X142138908Y-65865187D01*
X142076596Y-65899213D01*
X142062986Y-65901402D01*
X142054210Y-65902324D01*
X142032288Y-65904628D01*
X142032286Y-65904628D01*
X142025288Y-65905364D01*
X141869792Y-65958299D01*
X141865118Y-65959890D01*
X141853579Y-65963818D01*
X141847575Y-65967512D01*
X141705095Y-66055166D01*
X141705092Y-66055168D01*
X141699088Y-66058862D01*
X141694053Y-66063793D01*
X141694050Y-66063795D01*
X141622482Y-66133880D01*
X141569493Y-66185771D01*
X141471235Y-66338238D01*
X141468826Y-66344858D01*
X141468824Y-66344861D01*
X141434888Y-66438100D01*
X141409197Y-66508685D01*
X141386463Y-66688640D01*
X118461321Y-66688640D01*
X92621276Y-40848595D01*
X92587250Y-40786283D01*
X92592315Y-40715468D01*
X92634862Y-40658632D01*
X92701382Y-40633821D01*
X92710371Y-40633500D01*
X158986433Y-40633500D01*
X158997616Y-40634027D01*
X159005109Y-40635702D01*
X159013035Y-40635453D01*
X159013036Y-40635453D01*
X159073186Y-40633562D01*
X159077145Y-40633500D01*
X159105056Y-40633500D01*
X159108991Y-40633003D01*
X159109056Y-40632995D01*
X159120893Y-40632062D01*
X159153151Y-40631048D01*
X159157170Y-40630922D01*
X159165089Y-40630673D01*
X159184543Y-40625021D01*
X159203900Y-40621013D01*
X159216130Y-40619468D01*
X159216131Y-40619468D01*
X159223997Y-40618474D01*
X159231368Y-40615555D01*
X159231370Y-40615555D01*
X159265112Y-40602196D01*
X159276342Y-40598351D01*
X159311183Y-40588229D01*
X159311184Y-40588229D01*
X159318793Y-40586018D01*
X159325612Y-40581985D01*
X159325617Y-40581983D01*
X159336228Y-40575707D01*
X159353976Y-40567012D01*
X159372817Y-40559552D01*
X159408587Y-40533564D01*
X159418507Y-40527048D01*
X159449735Y-40508580D01*
X159449738Y-40508578D01*
X159456562Y-40504542D01*
X159470883Y-40490221D01*
X159485917Y-40477380D01*
X159495894Y-40470131D01*
X159502307Y-40465472D01*
X159530498Y-40431395D01*
X159538488Y-40422616D01*
X164290700Y-35670405D01*
X164353012Y-35636379D01*
X164379795Y-35633500D01*
X165653903Y-35633500D01*
X165722896Y-35654068D01*
X165747862Y-35670405D01*
X165833159Y-35726222D01*
X165839763Y-35728678D01*
X165839765Y-35728679D01*
X165996558Y-35786990D01*
X165996560Y-35786990D01*
X166003168Y-35789448D01*
X166086995Y-35800633D01*
X166175980Y-35812507D01*
X166175984Y-35812507D01*
X166182961Y-35813438D01*
X166189972Y-35812800D01*
X166189976Y-35812800D01*
X166332459Y-35799832D01*
X166363600Y-35796998D01*
X166370302Y-35794820D01*
X166370304Y-35794820D01*
X166529409Y-35743124D01*
X166529412Y-35743123D01*
X166536108Y-35740947D01*
X166691912Y-35648069D01*
X166823266Y-35522982D01*
X166923643Y-35371902D01*
X166988055Y-35202338D01*
X167013299Y-35022717D01*
X167013616Y-35000000D01*
X166993397Y-34819745D01*
X166933745Y-34648448D01*
X166837626Y-34494624D01*
X166809634Y-34466436D01*
X166714778Y-34370915D01*
X166714774Y-34370912D01*
X166709815Y-34365918D01*
X166698697Y-34358862D01*
X166650538Y-34328300D01*
X166556666Y-34268727D01*
X166527463Y-34258328D01*
X166392425Y-34210243D01*
X166392420Y-34210242D01*
X166385790Y-34207881D01*
X166378802Y-34207048D01*
X166378799Y-34207047D01*
X166255698Y-34192368D01*
X166205680Y-34186404D01*
X166198677Y-34187140D01*
X166198676Y-34187140D01*
X166032288Y-34204628D01*
X166032286Y-34204629D01*
X166025288Y-34205364D01*
X165853579Y-34263818D01*
X165717039Y-34347819D01*
X165651019Y-34366500D01*
X164143967Y-34366500D01*
X164132784Y-34365973D01*
X164125291Y-34364298D01*
X164117365Y-34364547D01*
X164117364Y-34364547D01*
X164057201Y-34366438D01*
X164053243Y-34366500D01*
X164025344Y-34366500D01*
X164021354Y-34367004D01*
X164009520Y-34367936D01*
X163965311Y-34369326D01*
X163957697Y-34371538D01*
X163957692Y-34371539D01*
X163945859Y-34374977D01*
X163926496Y-34378988D01*
X163906403Y-34381526D01*
X163899036Y-34384443D01*
X163899031Y-34384444D01*
X163865292Y-34397802D01*
X163854065Y-34401646D01*
X163811607Y-34413982D01*
X163804781Y-34418019D01*
X163794172Y-34424293D01*
X163776424Y-34432988D01*
X163757583Y-34440448D01*
X163751167Y-34445110D01*
X163751166Y-34445110D01*
X163721813Y-34466436D01*
X163711893Y-34472952D01*
X163680665Y-34491420D01*
X163680662Y-34491422D01*
X163673838Y-34495458D01*
X163659517Y-34509779D01*
X163644484Y-34522619D01*
X163628093Y-34534528D01*
X163623042Y-34540634D01*
X163599902Y-34568605D01*
X163591912Y-34577384D01*
X158839700Y-39329595D01*
X158777388Y-39363621D01*
X158750605Y-39366500D01*
X92614595Y-39366500D01*
X92546474Y-39346498D01*
X92525499Y-39329595D01*
X92034420Y-38838515D01*
X92000395Y-38776203D01*
X91998301Y-38763465D01*
X91994182Y-38726745D01*
X91993397Y-38719745D01*
X91933745Y-38548448D01*
X91837626Y-38394624D01*
X91832664Y-38389627D01*
X91714778Y-38270915D01*
X91714774Y-38270912D01*
X91709815Y-38265918D01*
X91556666Y-38168727D01*
X91527463Y-38158328D01*
X91392425Y-38110243D01*
X91392420Y-38110242D01*
X91385790Y-38107881D01*
X91343725Y-38102865D01*
X91320069Y-38100044D01*
X91254796Y-38072116D01*
X91214984Y-38013333D01*
X91208989Y-37974930D01*
X91208989Y-12015882D01*
X91228991Y-11947761D01*
X91245894Y-11926787D01*
X98314179Y-4858502D01*
X98338753Y-4839370D01*
X98491912Y-4748069D01*
X98623266Y-4622982D01*
X98723643Y-4471902D01*
X98788055Y-4302338D01*
X98813299Y-4122717D01*
X98813616Y-4100000D01*
X98793397Y-3919745D01*
X98791080Y-3913091D01*
X98736064Y-3755106D01*
X98736062Y-3755103D01*
X98733745Y-3748448D01*
X98637626Y-3594624D01*
X98623941Y-3580843D01*
X98514778Y-3470915D01*
X98514774Y-3470912D01*
X98509815Y-3465918D01*
X98498697Y-3458862D01*
X98450538Y-3428300D01*
X98356666Y-3368727D01*
X98300741Y-3348813D01*
X98192425Y-3310243D01*
X98192420Y-3310242D01*
X98185790Y-3307881D01*
X98178802Y-3307048D01*
X98178799Y-3307047D01*
X98055698Y-3292368D01*
X98005680Y-3286404D01*
X97998677Y-3287140D01*
X97998676Y-3287140D01*
X97832288Y-3304628D01*
X97832286Y-3304629D01*
X97825288Y-3305364D01*
X97653579Y-3363818D01*
X97647575Y-3367512D01*
X97505095Y-3455166D01*
X97505092Y-3455168D01*
X97499088Y-3458862D01*
X97494053Y-3463793D01*
X97494050Y-3463795D01*
X97374525Y-3580843D01*
X97369493Y-3585771D01*
X97271235Y-3738238D01*
X97268825Y-3744860D01*
X97265692Y-3751170D01*
X97264021Y-3750340D01*
X97241269Y-3786050D01*
X89961578Y-11065741D01*
X89947166Y-11078127D01*
X89935571Y-11086660D01*
X89935566Y-11086665D01*
X89929671Y-11091003D01*
X89924932Y-11096581D01*
X89924929Y-11096584D01*
X89895454Y-11131279D01*
X89888524Y-11138795D01*
X89882829Y-11144490D01*
X89880549Y-11147372D01*
X89865208Y-11166762D01*
X89862417Y-11170166D01*
X89819898Y-11220214D01*
X89815156Y-11225796D01*
X89811828Y-11232312D01*
X89808461Y-11237361D01*
X89805294Y-11242490D01*
X89800755Y-11248227D01*
X89769834Y-11314386D01*
X89767931Y-11318280D01*
X89734720Y-11383319D01*
X89732981Y-11390427D01*
X89730882Y-11396070D01*
X89728965Y-11401833D01*
X89725867Y-11408461D01*
X89724377Y-11415623D01*
X89724377Y-11415624D01*
X89711003Y-11479923D01*
X89710033Y-11484207D01*
X89692681Y-11555121D01*
X89691989Y-11566275D01*
X89691953Y-11566273D01*
X89691714Y-11570266D01*
X89691340Y-11574458D01*
X89689849Y-11581626D01*
X89690047Y-11588943D01*
X89691943Y-11659032D01*
X89691989Y-11662439D01*
X89691989Y-39683419D01*
X89690556Y-39702369D01*
X89687290Y-39723838D01*
X89687883Y-39731130D01*
X89687883Y-39731133D01*
X89691574Y-39776507D01*
X89691989Y-39786722D01*
X89691989Y-39794782D01*
X89692414Y-39798426D01*
X89695278Y-39822996D01*
X89695711Y-39827371D01*
X89701629Y-39900126D01*
X89703885Y-39907090D01*
X89705076Y-39913049D01*
X89706460Y-39918904D01*
X89707307Y-39926170D01*
X89732224Y-39994816D01*
X89733641Y-39998944D01*
X89756138Y-40068388D01*
X89759934Y-40074643D01*
X89762440Y-40080117D01*
X89765159Y-40085547D01*
X89767656Y-40092426D01*
X89771669Y-40098546D01*
X89771669Y-40098547D01*
X89807675Y-40153465D01*
X89810012Y-40157169D01*
X89847894Y-40219596D01*
X89851610Y-40223804D01*
X89851611Y-40223805D01*
X89855292Y-40227973D01*
X89855265Y-40227997D01*
X89857918Y-40230989D01*
X89860621Y-40234222D01*
X89864633Y-40240341D01*
X89869945Y-40245373D01*
X89920872Y-40293617D01*
X89923314Y-40295995D01*
X112954053Y-63326734D01*
X112988079Y-63389046D01*
X112983014Y-63459861D01*
X112968518Y-63485143D01*
X112969493Y-63485771D01*
X112871235Y-63638238D01*
X112809197Y-63808685D01*
X112802137Y-63864568D01*
X112773757Y-63929641D01*
X112766227Y-63937868D01*
X111749200Y-64954895D01*
X111686888Y-64988921D01*
X111660105Y-64991800D01*
X59772238Y-64991800D01*
X59704724Y-64972185D01*
X59671483Y-64951090D01*
X59581566Y-64894027D01*
X59552363Y-64883628D01*
X59417325Y-64835543D01*
X59417320Y-64835542D01*
X59410690Y-64833181D01*
X59403702Y-64832348D01*
X59403699Y-64832347D01*
X59280598Y-64817668D01*
X59230580Y-64811704D01*
X59223577Y-64812440D01*
X59223576Y-64812440D01*
X59057188Y-64829928D01*
X59057186Y-64829929D01*
X59050188Y-64830664D01*
X58878479Y-64889118D01*
X58872475Y-64892812D01*
X58729995Y-64980466D01*
X58729992Y-64980468D01*
X58723988Y-64984162D01*
X58718953Y-64989093D01*
X58718950Y-64989095D01*
X58599425Y-65106143D01*
X58594393Y-65111071D01*
X58496135Y-65263538D01*
X58434097Y-65433985D01*
X58411363Y-65613940D01*
X58429063Y-65794460D01*
X58486318Y-65966573D01*
X58489965Y-65972595D01*
X58489966Y-65972597D01*
X58572276Y-66108507D01*
X58580280Y-66121724D01*
X58585169Y-66126787D01*
X58585170Y-66126788D01*
X58592019Y-66133880D01*
X58706282Y-66252202D01*
X58858059Y-66351522D01*
X58864663Y-66353978D01*
X58864665Y-66353979D01*
X59021458Y-66412290D01*
X59021460Y-66412290D01*
X59028068Y-66414748D01*
X59111895Y-66425933D01*
X59200880Y-66437807D01*
X59200884Y-66437807D01*
X59207861Y-66438738D01*
X59214872Y-66438100D01*
X59214876Y-66438100D01*
X59357359Y-66425132D01*
X59388500Y-66422298D01*
X59395202Y-66420120D01*
X59395204Y-66420120D01*
X59554309Y-66368424D01*
X59554312Y-66368423D01*
X59561008Y-66366247D01*
X59711440Y-66276571D01*
X59775958Y-66258800D01*
X111895933Y-66258800D01*
X111907116Y-66259327D01*
X111914609Y-66261002D01*
X111922535Y-66260753D01*
X111922536Y-66260753D01*
X111982686Y-66258862D01*
X111986645Y-66258800D01*
X112014556Y-66258800D01*
X112018491Y-66258303D01*
X112018556Y-66258295D01*
X112030393Y-66257362D01*
X112062651Y-66256348D01*
X112066670Y-66256222D01*
X112074589Y-66255973D01*
X112094043Y-66250321D01*
X112113400Y-66246313D01*
X112125630Y-66244768D01*
X112125631Y-66244768D01*
X112133497Y-66243774D01*
X112140868Y-66240855D01*
X112140870Y-66240855D01*
X112174612Y-66227496D01*
X112185842Y-66223651D01*
X112220683Y-66213529D01*
X112220684Y-66213529D01*
X112228293Y-66211318D01*
X112235112Y-66207285D01*
X112235117Y-66207283D01*
X112245728Y-66201007D01*
X112263476Y-66192312D01*
X112282317Y-66184852D01*
X112318087Y-66158864D01*
X112328007Y-66152348D01*
X112359235Y-66133880D01*
X112359238Y-66133878D01*
X112366062Y-66129842D01*
X112380383Y-66115521D01*
X112395417Y-66102680D01*
X112405394Y-66095431D01*
X112411807Y-66090772D01*
X112439998Y-66056695D01*
X112447988Y-66047916D01*
X113660177Y-64835727D01*
X113722489Y-64801701D01*
X113737837Y-64799343D01*
X113763600Y-64796998D01*
X113770302Y-64794820D01*
X113770304Y-64794820D01*
X113929409Y-64743124D01*
X113929412Y-64743123D01*
X113936108Y-64740947D01*
X114032513Y-64683478D01*
X114085860Y-64651677D01*
X114085862Y-64651676D01*
X114091912Y-64648069D01*
X114097013Y-64643212D01*
X114102626Y-64638951D01*
X114103413Y-64639988D01*
X114159980Y-64610874D01*
X114230651Y-64617670D01*
X114272837Y-64645518D01*
X117278254Y-67650935D01*
X117312280Y-67713247D01*
X117307215Y-67784062D01*
X117278254Y-67829125D01*
X91711089Y-93396290D01*
X91696677Y-93408676D01*
X91685082Y-93417209D01*
X91685077Y-93417214D01*
X91679182Y-93421552D01*
X91674443Y-93427130D01*
X91674440Y-93427133D01*
X91644965Y-93461828D01*
X91638035Y-93469344D01*
X91632340Y-93475039D01*
X91630060Y-93477921D01*
X91614719Y-93497311D01*
X91611928Y-93500715D01*
X91593011Y-93522982D01*
X91564667Y-93556345D01*
X91561339Y-93562861D01*
X91557972Y-93567910D01*
X91554805Y-93573039D01*
X91550266Y-93578776D01*
X91519345Y-93644935D01*
X91517442Y-93648829D01*
X91484231Y-93713868D01*
X91482492Y-93720976D01*
X91480393Y-93726619D01*
X91478476Y-93732382D01*
X91475378Y-93739010D01*
X91473888Y-93746172D01*
X91473888Y-93746173D01*
X91460514Y-93810472D01*
X91459544Y-93814756D01*
X91442192Y-93885670D01*
X91441500Y-93896824D01*
X91441464Y-93896822D01*
X91441225Y-93900815D01*
X91440851Y-93905007D01*
X91439360Y-93912175D01*
X91439558Y-93919492D01*
X91441454Y-93989581D01*
X91441500Y-93992988D01*
X91441500Y-97632930D01*
X91440067Y-97651880D01*
X91438506Y-97662143D01*
X91436801Y-97673349D01*
X91437394Y-97680641D01*
X91437394Y-97680644D01*
X91441085Y-97726018D01*
X91441500Y-97736233D01*
X91441500Y-97744293D01*
X91441925Y-97747937D01*
X91444789Y-97772507D01*
X91445222Y-97776882D01*
X91451140Y-97849637D01*
X91453396Y-97856601D01*
X91454587Y-97862560D01*
X91455971Y-97868415D01*
X91456818Y-97875681D01*
X91481735Y-97944327D01*
X91483150Y-97948448D01*
X91505649Y-98017899D01*
X91509445Y-98024154D01*
X91511951Y-98029628D01*
X91514670Y-98035058D01*
X91517167Y-98041937D01*
X91521180Y-98048057D01*
X91521180Y-98048058D01*
X91557186Y-98102976D01*
X91559523Y-98106680D01*
X91597405Y-98169107D01*
X91601121Y-98173315D01*
X91601122Y-98173316D01*
X91604803Y-98177484D01*
X91604776Y-98177508D01*
X91607429Y-98180500D01*
X91610132Y-98183733D01*
X91614144Y-98189852D01*
X91619456Y-98194884D01*
X91670383Y-98243128D01*
X91672825Y-98245506D01*
X117216230Y-123788911D01*
X117228616Y-123803323D01*
X117237149Y-123814918D01*
X117237154Y-123814923D01*
X117241492Y-123820818D01*
X117247070Y-123825557D01*
X117247073Y-123825560D01*
X117281768Y-123855035D01*
X117289284Y-123861965D01*
X117294979Y-123867660D01*
X117297861Y-123869940D01*
X117317251Y-123885281D01*
X117320655Y-123888072D01*
X117366361Y-123926902D01*
X117376285Y-123935333D01*
X117382801Y-123938661D01*
X117387850Y-123942028D01*
X117392979Y-123945195D01*
X117398716Y-123949734D01*
X117464875Y-123980655D01*
X117468769Y-123982558D01*
X117533808Y-124015769D01*
X117540916Y-124017508D01*
X117546559Y-124019607D01*
X117552322Y-124021524D01*
X117558950Y-124024622D01*
X117620095Y-124037340D01*
X117630412Y-124039486D01*
X117634696Y-124040456D01*
X117705610Y-124057808D01*
X117711212Y-124058156D01*
X117711215Y-124058156D01*
X117716764Y-124058500D01*
X117716762Y-124058536D01*
X117720755Y-124058775D01*
X117724947Y-124059149D01*
X117732115Y-124060640D01*
X117809520Y-124058546D01*
X117812928Y-124058500D01*
X123297282Y-124058500D01*
X123341202Y-124066403D01*
X123396558Y-124086990D01*
X123396560Y-124086991D01*
X123403168Y-124089448D01*
X123478473Y-124099496D01*
X123575980Y-124112507D01*
X123575984Y-124112507D01*
X123582961Y-124113438D01*
X123589972Y-124112800D01*
X123589976Y-124112800D01*
X123732459Y-124099832D01*
X123763600Y-124096998D01*
X123770302Y-124094820D01*
X123770304Y-124094820D01*
X123929409Y-124043124D01*
X123929412Y-124043123D01*
X123936108Y-124040947D01*
X124091912Y-123948069D01*
X124223266Y-123822982D01*
X124323643Y-123671902D01*
X124388055Y-123502338D01*
X124391003Y-123481361D01*
X124412748Y-123326639D01*
X124412748Y-123326636D01*
X124413299Y-123322717D01*
X124413616Y-123300000D01*
X124393397Y-123119745D01*
X124391080Y-123113091D01*
X124336064Y-122955106D01*
X124336062Y-122955103D01*
X124333745Y-122948448D01*
X124237626Y-122794624D01*
X124115877Y-122672022D01*
X124114778Y-122670915D01*
X124114774Y-122670912D01*
X124109815Y-122665918D01*
X124098697Y-122658862D01*
X124050538Y-122628300D01*
X123956666Y-122568727D01*
X123927463Y-122558328D01*
X123792425Y-122510243D01*
X123792420Y-122510242D01*
X123785790Y-122507881D01*
X123778802Y-122507048D01*
X123778799Y-122507047D01*
X123655698Y-122492368D01*
X123605680Y-122486404D01*
X123598677Y-122487140D01*
X123598676Y-122487140D01*
X123432288Y-122504628D01*
X123432286Y-122504629D01*
X123425288Y-122505364D01*
X123340585Y-122534199D01*
X123338884Y-122534778D01*
X123298279Y-122541500D01*
X118166371Y-122541500D01*
X118098250Y-122521498D01*
X118077276Y-122504595D01*
X96123474Y-100550793D01*
X96089448Y-100488481D01*
X96094513Y-100417666D01*
X96137060Y-100360830D01*
X96200710Y-100336257D01*
X96209215Y-100335453D01*
X96223963Y-100334059D01*
X96235819Y-100333500D01*
X153221233Y-100333500D01*
X153232416Y-100334027D01*
X153239909Y-100335702D01*
X153247835Y-100335453D01*
X153247836Y-100335453D01*
X153307986Y-100333562D01*
X153311945Y-100333500D01*
X153339856Y-100333500D01*
X153343791Y-100333003D01*
X153343856Y-100332995D01*
X153355693Y-100332062D01*
X153387951Y-100331048D01*
X153391970Y-100330922D01*
X153399889Y-100330673D01*
X153419343Y-100325021D01*
X153438700Y-100321013D01*
X153450930Y-100319468D01*
X153450931Y-100319468D01*
X153458797Y-100318474D01*
X153466168Y-100315555D01*
X153466170Y-100315555D01*
X153499912Y-100302196D01*
X153511142Y-100298351D01*
X153545983Y-100288229D01*
X153545984Y-100288229D01*
X153553593Y-100286018D01*
X153560412Y-100281985D01*
X153560417Y-100281983D01*
X153571028Y-100275707D01*
X153588776Y-100267012D01*
X153607617Y-100259552D01*
X153643387Y-100233564D01*
X153653307Y-100227048D01*
X153684535Y-100208580D01*
X153684538Y-100208578D01*
X153691362Y-100204542D01*
X153705683Y-100190221D01*
X153720717Y-100177380D01*
X153730694Y-100170131D01*
X153737107Y-100165472D01*
X153765298Y-100131395D01*
X153773288Y-100122616D01*
X158325500Y-95570405D01*
X158387812Y-95536379D01*
X158414595Y-95533500D01*
X159289629Y-95533500D01*
X159357750Y-95553502D01*
X159404243Y-95607158D01*
X159414347Y-95677432D01*
X159384853Y-95742012D01*
X159378724Y-95748595D01*
X132622724Y-122504595D01*
X132560412Y-122538621D01*
X132533629Y-122541500D01*
X131301966Y-122541500D01*
X131259699Y-122534199D01*
X131192424Y-122510243D01*
X131192422Y-122510242D01*
X131185790Y-122507881D01*
X131178802Y-122507048D01*
X131178799Y-122507047D01*
X131055698Y-122492368D01*
X131005680Y-122486404D01*
X130998677Y-122487140D01*
X130998676Y-122487140D01*
X130832288Y-122504628D01*
X130832286Y-122504629D01*
X130825288Y-122505364D01*
X130653579Y-122563818D01*
X130647575Y-122567512D01*
X130505095Y-122655166D01*
X130505092Y-122655168D01*
X130499088Y-122658862D01*
X130494053Y-122663793D01*
X130494050Y-122663795D01*
X130485649Y-122672022D01*
X130369493Y-122785771D01*
X130271235Y-122938238D01*
X130268826Y-122944858D01*
X130268824Y-122944861D01*
X130211606Y-123102066D01*
X130209197Y-123108685D01*
X130186463Y-123288640D01*
X130204163Y-123469160D01*
X130261418Y-123641273D01*
X130265065Y-123647295D01*
X130265066Y-123647297D01*
X130329220Y-123753228D01*
X130355380Y-123796424D01*
X130360269Y-123801487D01*
X130360270Y-123801488D01*
X130385076Y-123827175D01*
X130481382Y-123926902D01*
X130503858Y-123941610D01*
X130622051Y-124018953D01*
X130633159Y-124026222D01*
X130639763Y-124028678D01*
X130639765Y-124028679D01*
X130796558Y-124086990D01*
X130796560Y-124086990D01*
X130803168Y-124089448D01*
X130878473Y-124099496D01*
X130975980Y-124112507D01*
X130975984Y-124112507D01*
X130982961Y-124113438D01*
X130989972Y-124112800D01*
X130989976Y-124112800D01*
X131132459Y-124099832D01*
X131163600Y-124096998D01*
X131170302Y-124094820D01*
X131170304Y-124094820D01*
X131263105Y-124064667D01*
X131302041Y-124058500D01*
X132832930Y-124058500D01*
X132851880Y-124059933D01*
X132866115Y-124062099D01*
X132866119Y-124062099D01*
X132873349Y-124063199D01*
X132880641Y-124062606D01*
X132880644Y-124062606D01*
X132926018Y-124058915D01*
X132936233Y-124058500D01*
X132944293Y-124058500D01*
X132961680Y-124056473D01*
X132972507Y-124055211D01*
X132976882Y-124054778D01*
X133042339Y-124049454D01*
X133042342Y-124049453D01*
X133049637Y-124048860D01*
X133056601Y-124046604D01*
X133062560Y-124045413D01*
X133068415Y-124044029D01*
X133075681Y-124043182D01*
X133144327Y-124018265D01*
X133148455Y-124016848D01*
X133210936Y-123996607D01*
X133210938Y-123996606D01*
X133217899Y-123994351D01*
X133224154Y-123990555D01*
X133229628Y-123988049D01*
X133235058Y-123985330D01*
X133241937Y-123982833D01*
X133248058Y-123978820D01*
X133302976Y-123942814D01*
X133306680Y-123940477D01*
X133369107Y-123902595D01*
X133377484Y-123895197D01*
X133377508Y-123895224D01*
X133380500Y-123892571D01*
X133383733Y-123889868D01*
X133389852Y-123885856D01*
X133443128Y-123829617D01*
X133445506Y-123827175D01*
X137200490Y-120072191D01*
X226436274Y-120072191D01*
X226442669Y-120083459D01*
X228287188Y-121927978D01*
X228301132Y-121935592D01*
X228302965Y-121935461D01*
X228309580Y-121931210D01*
X230156142Y-120084648D01*
X230163534Y-120071111D01*
X230156747Y-120061411D01*
X230063919Y-119982128D01*
X230058131Y-119977735D01*
X229785809Y-119794741D01*
X229779586Y-119791061D01*
X229488015Y-119640570D01*
X229481404Y-119637627D01*
X229174482Y-119521651D01*
X229167563Y-119519483D01*
X228849350Y-119439553D01*
X228842225Y-119438194D01*
X228516942Y-119395369D01*
X228509700Y-119394838D01*
X228181661Y-119389684D01*
X228174399Y-119389988D01*
X227847926Y-119422575D01*
X227840778Y-119423707D01*
X227520201Y-119493604D01*
X227513223Y-119495552D01*
X227202808Y-119601831D01*
X227196101Y-119604568D01*
X226899964Y-119745819D01*
X226893606Y-119749314D01*
X226615681Y-119923656D01*
X226609757Y-119927865D01*
X226444743Y-120060066D01*
X226436274Y-120072191D01*
X137200490Y-120072191D01*
X150284041Y-106988640D01*
X159586463Y-106988640D01*
X159604163Y-107169160D01*
X159661418Y-107341273D01*
X159665065Y-107347295D01*
X159665066Y-107347297D01*
X159669647Y-107354860D01*
X159755380Y-107496424D01*
X159881382Y-107626902D01*
X160033159Y-107726222D01*
X160039763Y-107728678D01*
X160039765Y-107728679D01*
X160196558Y-107786990D01*
X160196560Y-107786990D01*
X160203168Y-107789448D01*
X160286995Y-107800633D01*
X160375980Y-107812507D01*
X160375984Y-107812507D01*
X160382961Y-107813438D01*
X160389972Y-107812800D01*
X160389976Y-107812800D01*
X160532459Y-107799832D01*
X160563600Y-107796998D01*
X160570302Y-107794820D01*
X160570304Y-107794820D01*
X160729409Y-107743124D01*
X160729412Y-107743123D01*
X160736108Y-107740947D01*
X160886540Y-107651271D01*
X160951058Y-107633500D01*
X239085406Y-107633500D01*
X239153527Y-107653502D01*
X239174501Y-107670405D01*
X243696348Y-112192253D01*
X243703888Y-112200539D01*
X243708000Y-112207018D01*
X243713777Y-112212443D01*
X243757651Y-112253643D01*
X243760493Y-112256398D01*
X243780230Y-112276135D01*
X243783427Y-112278615D01*
X243792447Y-112286318D01*
X243824679Y-112316586D01*
X243831625Y-112320405D01*
X243831628Y-112320407D01*
X243842434Y-112326348D01*
X243858953Y-112337199D01*
X243874959Y-112349614D01*
X243882228Y-112352759D01*
X243882232Y-112352762D01*
X243915537Y-112367174D01*
X243926187Y-112372391D01*
X243964940Y-112393695D01*
X243972615Y-112395666D01*
X243972616Y-112395666D01*
X243984562Y-112398733D01*
X244003267Y-112405137D01*
X244021855Y-112413181D01*
X244029678Y-112414420D01*
X244029688Y-112414423D01*
X244065524Y-112420099D01*
X244077144Y-112422505D01*
X244112289Y-112431528D01*
X244119970Y-112433500D01*
X244140224Y-112433500D01*
X244159934Y-112435051D01*
X244179943Y-112438220D01*
X244187835Y-112437474D01*
X244223961Y-112434059D01*
X244235819Y-112433500D01*
X244753903Y-112433500D01*
X244822896Y-112454068D01*
X244933159Y-112526222D01*
X244939763Y-112528678D01*
X244939765Y-112528679D01*
X245096558Y-112586990D01*
X245096560Y-112586990D01*
X245103168Y-112589448D01*
X245186995Y-112600633D01*
X245275980Y-112612507D01*
X245275984Y-112612507D01*
X245282961Y-112613438D01*
X245289972Y-112612800D01*
X245289976Y-112612800D01*
X245432459Y-112599832D01*
X245463600Y-112596998D01*
X245470302Y-112594820D01*
X245470304Y-112594820D01*
X245629409Y-112543124D01*
X245629412Y-112543123D01*
X245636108Y-112540947D01*
X245791912Y-112448069D01*
X245923266Y-112322982D01*
X246023643Y-112171902D01*
X246088055Y-112002338D01*
X246113299Y-111822717D01*
X246113616Y-111800000D01*
X246093397Y-111619745D01*
X246033745Y-111448448D01*
X245937626Y-111294624D01*
X245932664Y-111289627D01*
X245814778Y-111170915D01*
X245814774Y-111170912D01*
X245809815Y-111165918D01*
X245798697Y-111158862D01*
X245750538Y-111128300D01*
X245656666Y-111068727D01*
X245627463Y-111058328D01*
X245492425Y-111010243D01*
X245492420Y-111010242D01*
X245485790Y-111007881D01*
X245478802Y-111007048D01*
X245478799Y-111007047D01*
X245355698Y-110992368D01*
X245305680Y-110986404D01*
X245298677Y-110987140D01*
X245298676Y-110987140D01*
X245132288Y-111004628D01*
X245132286Y-111004629D01*
X245125288Y-111005364D01*
X244953579Y-111063818D01*
X244817039Y-111147819D01*
X244751019Y-111166500D01*
X244514594Y-111166500D01*
X244446473Y-111146498D01*
X244425499Y-111129595D01*
X239903652Y-106607747D01*
X239896112Y-106599461D01*
X239892000Y-106592982D01*
X239842348Y-106546356D01*
X239839507Y-106543602D01*
X239819770Y-106523865D01*
X239816573Y-106521385D01*
X239807551Y-106513680D01*
X239781100Y-106488841D01*
X239775321Y-106483414D01*
X239768375Y-106479595D01*
X239768372Y-106479593D01*
X239757566Y-106473652D01*
X239741047Y-106462801D01*
X239735123Y-106458206D01*
X239725041Y-106450386D01*
X239717772Y-106447241D01*
X239717768Y-106447238D01*
X239684463Y-106432826D01*
X239673813Y-106427609D01*
X239635060Y-106406305D01*
X239615437Y-106401267D01*
X239596734Y-106394863D01*
X239585420Y-106389967D01*
X239585419Y-106389967D01*
X239578145Y-106386819D01*
X239570322Y-106385580D01*
X239570312Y-106385577D01*
X239534476Y-106379901D01*
X239522856Y-106377495D01*
X239487711Y-106368472D01*
X239487710Y-106368472D01*
X239480030Y-106366500D01*
X239459776Y-106366500D01*
X239440065Y-106364949D01*
X239427886Y-106363020D01*
X239420057Y-106361780D01*
X239412165Y-106362526D01*
X239376039Y-106365941D01*
X239364181Y-106366500D01*
X160947338Y-106366500D01*
X160879824Y-106346885D01*
X160846583Y-106325790D01*
X160756666Y-106268727D01*
X160727463Y-106258328D01*
X160592425Y-106210243D01*
X160592420Y-106210242D01*
X160585790Y-106207881D01*
X160578802Y-106207048D01*
X160578799Y-106207047D01*
X160455698Y-106192368D01*
X160405680Y-106186404D01*
X160398677Y-106187140D01*
X160398676Y-106187140D01*
X160232288Y-106204628D01*
X160232286Y-106204629D01*
X160225288Y-106205364D01*
X160053579Y-106263818D01*
X160047575Y-106267512D01*
X159905095Y-106355166D01*
X159905092Y-106355168D01*
X159899088Y-106358862D01*
X159894053Y-106363793D01*
X159894050Y-106363795D01*
X159774525Y-106480843D01*
X159769493Y-106485771D01*
X159671235Y-106638238D01*
X159668826Y-106644858D01*
X159668824Y-106644861D01*
X159617016Y-106787202D01*
X159609197Y-106808685D01*
X159586463Y-106988640D01*
X150284041Y-106988640D01*
X163477276Y-93795405D01*
X163539588Y-93761379D01*
X163566371Y-93758500D01*
X251597282Y-93758500D01*
X251641202Y-93766403D01*
X251696558Y-93786990D01*
X251696560Y-93786991D01*
X251703168Y-93789448D01*
X251786995Y-93800633D01*
X251875980Y-93812507D01*
X251875984Y-93812507D01*
X251882961Y-93813438D01*
X251889972Y-93812800D01*
X251889976Y-93812800D01*
X252032459Y-93799832D01*
X252063600Y-93796998D01*
X252070300Y-93794821D01*
X252070305Y-93794820D01*
X252091835Y-93787824D01*
X252162803Y-93785797D01*
X252223601Y-93822459D01*
X252254176Y-93882214D01*
X256937994Y-116600272D01*
X256940456Y-116619933D01*
X257759224Y-134443113D01*
X257756297Y-134476494D01*
X247205960Y-181473451D01*
X247183616Y-181521723D01*
X220823268Y-216472408D01*
X220791547Y-216502046D01*
X167809038Y-251088405D01*
X167750889Y-251126364D01*
X167705495Y-251144648D01*
X134216664Y-257496839D01*
X134183091Y-257498641D01*
X133629125Y-257454126D01*
X132952054Y-257399719D01*
X132885755Y-257374325D01*
X132843709Y-257317118D01*
X132839267Y-257246260D01*
X132851732Y-257213424D01*
X132894182Y-257136207D01*
X132899012Y-257124938D01*
X132958025Y-256938905D01*
X132960573Y-256926916D01*
X132977607Y-256775053D01*
X132978000Y-256768029D01*
X132978000Y-256584115D01*
X132973525Y-256568876D01*
X132972135Y-256567671D01*
X132964452Y-256566000D01*
X130880115Y-256566000D01*
X130864876Y-256570475D01*
X130863671Y-256571865D01*
X130862000Y-256579548D01*
X130862000Y-256761124D01*
X130862301Y-256767272D01*
X130876527Y-256912361D01*
X130878910Y-256924396D01*
X130921058Y-257063997D01*
X130921599Y-257134991D01*
X130883671Y-257195008D01*
X130819317Y-257224992D01*
X130790346Y-257226010D01*
X124453908Y-256716832D01*
X124387608Y-256691438D01*
X124345562Y-256634231D01*
X124338000Y-256591237D01*
X124338000Y-256584115D01*
X124333525Y-256568876D01*
X124332135Y-256567671D01*
X124324452Y-256566000D01*
X122576889Y-256566000D01*
X122171042Y-256533387D01*
X122171041Y-256533387D01*
X116029682Y-256039885D01*
X122222000Y-256039885D01*
X122226475Y-256055124D01*
X122227865Y-256056329D01*
X122235548Y-256058000D01*
X123007885Y-256058000D01*
X123023124Y-256053525D01*
X123024329Y-256052135D01*
X123026000Y-256044452D01*
X123026000Y-256039885D01*
X123534000Y-256039885D01*
X123538475Y-256055124D01*
X123539865Y-256056329D01*
X123547548Y-256058000D01*
X124319885Y-256058000D01*
X124335124Y-256053525D01*
X124336329Y-256052135D01*
X124338000Y-256044452D01*
X124338000Y-256039885D01*
X130862000Y-256039885D01*
X130866475Y-256055124D01*
X130867865Y-256056329D01*
X130875548Y-256058000D01*
X131647885Y-256058000D01*
X131663124Y-256053525D01*
X131664329Y-256052135D01*
X131666000Y-256044452D01*
X131666000Y-256039885D01*
X132174000Y-256039885D01*
X132178475Y-256055124D01*
X132179865Y-256056329D01*
X132187548Y-256058000D01*
X132959885Y-256058000D01*
X132975124Y-256053525D01*
X132976329Y-256052135D01*
X132978000Y-256044452D01*
X132978000Y-255862876D01*
X132977699Y-255856728D01*
X132963473Y-255711639D01*
X132961090Y-255699604D01*
X132904683Y-255512777D01*
X132900008Y-255501435D01*
X132808388Y-255329121D01*
X132801601Y-255318905D01*
X132678253Y-255167665D01*
X132669609Y-255158961D01*
X132519237Y-255034562D01*
X132509069Y-255027703D01*
X132337393Y-254934879D01*
X132326093Y-254930129D01*
X132191307Y-254888405D01*
X132177205Y-254888199D01*
X132174000Y-254894955D01*
X132174000Y-256039885D01*
X131666000Y-256039885D01*
X131666000Y-254901953D01*
X131662027Y-254888422D01*
X131654232Y-254887302D01*
X131527658Y-254924554D01*
X131516290Y-254929147D01*
X131343334Y-255019566D01*
X131333072Y-255026282D01*
X131180980Y-255148568D01*
X131172214Y-255157152D01*
X131046764Y-255306656D01*
X131039840Y-255316767D01*
X130945816Y-255487798D01*
X130940988Y-255499062D01*
X130881975Y-255685095D01*
X130879427Y-255697084D01*
X130862393Y-255848947D01*
X130862000Y-255855971D01*
X130862000Y-256039885D01*
X124338000Y-256039885D01*
X124338000Y-255862876D01*
X124337699Y-255856728D01*
X124323473Y-255711639D01*
X124321090Y-255699604D01*
X124264683Y-255512777D01*
X124260008Y-255501435D01*
X124168388Y-255329121D01*
X124161601Y-255318905D01*
X124038253Y-255167665D01*
X124029609Y-255158961D01*
X123879237Y-255034562D01*
X123869069Y-255027703D01*
X123697393Y-254934879D01*
X123686093Y-254930129D01*
X123551307Y-254888405D01*
X123537205Y-254888199D01*
X123534000Y-254894955D01*
X123534000Y-256039885D01*
X123026000Y-256039885D01*
X123026000Y-254901953D01*
X123022027Y-254888422D01*
X123014232Y-254887302D01*
X122887658Y-254924554D01*
X122876290Y-254929147D01*
X122703334Y-255019566D01*
X122693072Y-255026282D01*
X122540980Y-255148568D01*
X122532214Y-255157152D01*
X122406764Y-255306656D01*
X122399840Y-255316767D01*
X122305816Y-255487798D01*
X122300988Y-255499062D01*
X122241975Y-255685095D01*
X122239427Y-255697084D01*
X122222393Y-255848947D01*
X122222000Y-255855971D01*
X122222000Y-256039885D01*
X116029682Y-256039885D01*
X111811749Y-255700944D01*
X111788635Y-255696895D01*
X104837019Y-253797718D01*
X101774809Y-252961124D01*
X122222000Y-252961124D01*
X122222301Y-252967272D01*
X122236527Y-253112361D01*
X122238910Y-253124396D01*
X122295317Y-253311223D01*
X122299992Y-253322565D01*
X122391612Y-253494879D01*
X122398399Y-253505095D01*
X122521747Y-253656335D01*
X122530391Y-253665039D01*
X122680763Y-253789438D01*
X122690931Y-253796297D01*
X122862607Y-253889121D01*
X122873907Y-253893871D01*
X123008693Y-253935595D01*
X123022795Y-253935801D01*
X123026000Y-253929045D01*
X123026000Y-253922047D01*
X123534000Y-253922047D01*
X123537973Y-253935578D01*
X123545768Y-253936698D01*
X123672342Y-253899446D01*
X123683710Y-253894853D01*
X123856666Y-253804434D01*
X123866928Y-253797718D01*
X124019020Y-253675432D01*
X124027786Y-253666848D01*
X124153236Y-253517344D01*
X124160160Y-253507233D01*
X124254184Y-253336202D01*
X124259012Y-253324938D01*
X124318025Y-253138905D01*
X124320573Y-253126916D01*
X124337607Y-252975053D01*
X124338000Y-252968029D01*
X124338000Y-252961124D01*
X130862000Y-252961124D01*
X130862301Y-252967272D01*
X130876527Y-253112361D01*
X130878910Y-253124396D01*
X130935317Y-253311223D01*
X130939992Y-253322565D01*
X131031612Y-253494879D01*
X131038399Y-253505095D01*
X131161747Y-253656335D01*
X131170391Y-253665039D01*
X131320763Y-253789438D01*
X131330931Y-253796297D01*
X131502607Y-253889121D01*
X131513907Y-253893871D01*
X131648693Y-253935595D01*
X131662795Y-253935801D01*
X131666000Y-253929045D01*
X131666000Y-253922047D01*
X132174000Y-253922047D01*
X132177973Y-253935578D01*
X132185768Y-253936698D01*
X132312342Y-253899446D01*
X132323710Y-253894853D01*
X132496666Y-253804434D01*
X132506928Y-253797718D01*
X132659020Y-253675432D01*
X132667786Y-253666848D01*
X132793236Y-253517344D01*
X132800160Y-253507233D01*
X132894184Y-253336202D01*
X132899012Y-253324938D01*
X132958025Y-253138905D01*
X132960573Y-253126916D01*
X132977607Y-252975053D01*
X132978000Y-252968029D01*
X132978000Y-252784115D01*
X132973525Y-252768876D01*
X132972135Y-252767671D01*
X132964452Y-252766000D01*
X132192115Y-252766000D01*
X132176876Y-252770475D01*
X132175671Y-252771865D01*
X132174000Y-252779548D01*
X132174000Y-253922047D01*
X131666000Y-253922047D01*
X131666000Y-252784115D01*
X131661525Y-252768876D01*
X131660135Y-252767671D01*
X131652452Y-252766000D01*
X130880115Y-252766000D01*
X130864876Y-252770475D01*
X130863671Y-252771865D01*
X130862000Y-252779548D01*
X130862000Y-252961124D01*
X124338000Y-252961124D01*
X124338000Y-252784115D01*
X124333525Y-252768876D01*
X124332135Y-252767671D01*
X124324452Y-252766000D01*
X123552115Y-252766000D01*
X123536876Y-252770475D01*
X123535671Y-252771865D01*
X123534000Y-252779548D01*
X123534000Y-253922047D01*
X123026000Y-253922047D01*
X123026000Y-252784115D01*
X123021525Y-252768876D01*
X123020135Y-252767671D01*
X123012452Y-252766000D01*
X122240115Y-252766000D01*
X122224876Y-252770475D01*
X122223671Y-252771865D01*
X122222000Y-252779548D01*
X122222000Y-252961124D01*
X101774809Y-252961124D01*
X99134836Y-252239885D01*
X122222000Y-252239885D01*
X122226475Y-252255124D01*
X122227865Y-252256329D01*
X122235548Y-252258000D01*
X123007885Y-252258000D01*
X123023124Y-252253525D01*
X123024329Y-252252135D01*
X123026000Y-252244452D01*
X123026000Y-252239885D01*
X123534000Y-252239885D01*
X123538475Y-252255124D01*
X123539865Y-252256329D01*
X123547548Y-252258000D01*
X124319885Y-252258000D01*
X124335124Y-252253525D01*
X124336329Y-252252135D01*
X124338000Y-252244452D01*
X124338000Y-252239885D01*
X130862000Y-252239885D01*
X130866475Y-252255124D01*
X130867865Y-252256329D01*
X130875548Y-252258000D01*
X131647885Y-252258000D01*
X131663124Y-252253525D01*
X131664329Y-252252135D01*
X131666000Y-252244452D01*
X131666000Y-252239885D01*
X132174000Y-252239885D01*
X132178475Y-252255124D01*
X132179865Y-252256329D01*
X132187548Y-252258000D01*
X132959885Y-252258000D01*
X132975124Y-252253525D01*
X132976329Y-252252135D01*
X132978000Y-252244452D01*
X132978000Y-252062876D01*
X132977699Y-252056728D01*
X132963473Y-251911639D01*
X132961090Y-251899604D01*
X132904683Y-251712777D01*
X132900008Y-251701435D01*
X132808388Y-251529121D01*
X132801601Y-251518905D01*
X132678253Y-251367665D01*
X132669609Y-251358961D01*
X132519237Y-251234562D01*
X132509069Y-251227703D01*
X132337393Y-251134879D01*
X132326093Y-251130129D01*
X132191307Y-251088405D01*
X132177205Y-251088199D01*
X132174000Y-251094955D01*
X132174000Y-252239885D01*
X131666000Y-252239885D01*
X131666000Y-251101953D01*
X131662027Y-251088422D01*
X131654232Y-251087302D01*
X131527658Y-251124554D01*
X131516290Y-251129147D01*
X131343334Y-251219566D01*
X131333072Y-251226282D01*
X131180980Y-251348568D01*
X131172214Y-251357152D01*
X131046764Y-251506656D01*
X131039840Y-251516767D01*
X130945816Y-251687798D01*
X130940988Y-251699062D01*
X130881975Y-251885095D01*
X130879427Y-251897084D01*
X130862393Y-252048947D01*
X130862000Y-252055971D01*
X130862000Y-252239885D01*
X124338000Y-252239885D01*
X124338000Y-252062876D01*
X124337699Y-252056728D01*
X124323473Y-251911639D01*
X124321090Y-251899604D01*
X124264683Y-251712777D01*
X124260008Y-251701435D01*
X124168388Y-251529121D01*
X124161601Y-251518905D01*
X124038253Y-251367665D01*
X124029609Y-251358961D01*
X123879237Y-251234562D01*
X123869069Y-251227703D01*
X123697393Y-251134879D01*
X123686093Y-251130129D01*
X123551307Y-251088405D01*
X123537205Y-251088199D01*
X123534000Y-251094955D01*
X123534000Y-252239885D01*
X123026000Y-252239885D01*
X123026000Y-251101953D01*
X123022027Y-251088422D01*
X123014232Y-251087302D01*
X122887658Y-251124554D01*
X122876290Y-251129147D01*
X122703334Y-251219566D01*
X122693072Y-251226282D01*
X122540980Y-251348568D01*
X122532214Y-251357152D01*
X122406764Y-251506656D01*
X122399840Y-251516767D01*
X122305816Y-251687798D01*
X122300988Y-251699062D01*
X122241975Y-251885095D01*
X122239427Y-251897084D01*
X122222393Y-252048947D01*
X122222000Y-252055971D01*
X122222000Y-252239885D01*
X99134836Y-252239885D01*
X93214230Y-250622379D01*
X93153790Y-250585132D01*
X93123081Y-250521120D01*
X93129649Y-250456090D01*
X93185555Y-250308920D01*
X93185556Y-250308918D01*
X93188055Y-250302338D01*
X93197639Y-250234145D01*
X93226927Y-250169471D01*
X93233318Y-250162586D01*
X94325500Y-249070405D01*
X94387812Y-249036379D01*
X94414595Y-249033500D01*
X97921233Y-249033500D01*
X97932416Y-249034027D01*
X97939909Y-249035702D01*
X97947835Y-249035453D01*
X97947836Y-249035453D01*
X98007986Y-249033562D01*
X98011945Y-249033500D01*
X98039856Y-249033500D01*
X98043791Y-249033003D01*
X98043856Y-249032995D01*
X98055693Y-249032062D01*
X98087951Y-249031048D01*
X98091970Y-249030922D01*
X98099889Y-249030673D01*
X98119343Y-249025021D01*
X98138700Y-249021013D01*
X98150930Y-249019468D01*
X98150931Y-249019468D01*
X98158797Y-249018474D01*
X98166168Y-249015555D01*
X98166170Y-249015555D01*
X98199912Y-249002196D01*
X98211142Y-248998351D01*
X98245983Y-248988229D01*
X98245984Y-248988229D01*
X98253593Y-248986018D01*
X98260412Y-248981985D01*
X98260417Y-248981983D01*
X98271028Y-248975707D01*
X98288776Y-248967012D01*
X98307617Y-248959552D01*
X98343387Y-248933564D01*
X98353307Y-248927048D01*
X98384535Y-248908580D01*
X98384538Y-248908578D01*
X98391362Y-248904542D01*
X98405683Y-248890221D01*
X98420717Y-248877380D01*
X98430694Y-248870131D01*
X98437107Y-248865472D01*
X98465298Y-248831395D01*
X98473288Y-248822616D01*
X99915599Y-247380305D01*
X99977911Y-247346279D01*
X100004694Y-247343400D01*
X159879203Y-247343400D01*
X159948196Y-247363968D01*
X159973162Y-247380305D01*
X160058459Y-247436122D01*
X160065063Y-247438578D01*
X160065065Y-247438579D01*
X160221858Y-247496890D01*
X160221860Y-247496890D01*
X160228468Y-247499348D01*
X160312295Y-247510533D01*
X160401280Y-247522407D01*
X160401284Y-247522407D01*
X160408261Y-247523338D01*
X160415272Y-247522700D01*
X160415276Y-247522700D01*
X160557759Y-247509732D01*
X160588900Y-247506898D01*
X160595602Y-247504720D01*
X160595604Y-247504720D01*
X160754709Y-247453024D01*
X160754712Y-247453023D01*
X160761408Y-247450847D01*
X160917212Y-247357969D01*
X161048566Y-247232882D01*
X161148943Y-247081802D01*
X161213355Y-246912238D01*
X161238599Y-246732617D01*
X161238916Y-246709900D01*
X161218697Y-246529645D01*
X161159045Y-246358348D01*
X161080422Y-246232524D01*
X161066659Y-246210498D01*
X161062926Y-246204524D01*
X161034925Y-246176327D01*
X160940078Y-246080815D01*
X160940074Y-246080812D01*
X160935115Y-246075818D01*
X160923997Y-246068762D01*
X160875838Y-246038200D01*
X160781966Y-245978627D01*
X160752763Y-245968228D01*
X160617725Y-245920143D01*
X160617720Y-245920142D01*
X160611090Y-245917781D01*
X160604102Y-245916948D01*
X160604099Y-245916947D01*
X160480998Y-245902268D01*
X160430980Y-245896304D01*
X160423977Y-245897040D01*
X160423976Y-245897040D01*
X160257588Y-245914528D01*
X160257586Y-245914529D01*
X160250588Y-245915264D01*
X160078879Y-245973718D01*
X159942339Y-246057719D01*
X159876319Y-246076400D01*
X99768863Y-246076400D01*
X99757679Y-246075873D01*
X99750191Y-246074199D01*
X99742268Y-246074448D01*
X99682133Y-246076338D01*
X99678175Y-246076400D01*
X99650244Y-246076400D01*
X99646329Y-246076895D01*
X99646325Y-246076895D01*
X99646267Y-246076903D01*
X99646238Y-246076906D01*
X99634396Y-246077839D01*
X99590210Y-246079227D01*
X99572844Y-246084272D01*
X99570758Y-246084878D01*
X99551406Y-246088886D01*
X99544335Y-246089780D01*
X99531303Y-246091426D01*
X99523934Y-246094343D01*
X99523932Y-246094344D01*
X99490197Y-246107700D01*
X99478969Y-246111545D01*
X99436507Y-246123882D01*
X99429685Y-246127916D01*
X99429679Y-246127919D01*
X99419068Y-246134194D01*
X99401318Y-246142890D01*
X99389856Y-246147428D01*
X99389851Y-246147431D01*
X99382483Y-246150348D01*
X99376068Y-246155009D01*
X99346725Y-246176327D01*
X99336807Y-246182843D01*
X99318119Y-246193895D01*
X99298737Y-246205358D01*
X99284413Y-246219682D01*
X99269381Y-246232521D01*
X99252993Y-246244428D01*
X99224812Y-246278493D01*
X99216822Y-246287273D01*
X97774500Y-247729595D01*
X97712188Y-247763621D01*
X97685405Y-247766500D01*
X94178767Y-247766500D01*
X94167584Y-247765973D01*
X94160091Y-247764298D01*
X94152165Y-247764547D01*
X94152164Y-247764547D01*
X94092014Y-247766438D01*
X94088055Y-247766500D01*
X94060144Y-247766500D01*
X94056210Y-247766997D01*
X94056209Y-247766997D01*
X94056144Y-247767005D01*
X94044307Y-247767938D01*
X94012049Y-247768952D01*
X94008030Y-247769078D01*
X94000111Y-247769327D01*
X93980657Y-247774979D01*
X93961300Y-247778987D01*
X93949070Y-247780532D01*
X93949069Y-247780532D01*
X93941203Y-247781526D01*
X93933832Y-247784445D01*
X93933830Y-247784445D01*
X93900088Y-247797804D01*
X93888858Y-247801649D01*
X93854017Y-247811771D01*
X93854016Y-247811771D01*
X93846407Y-247813982D01*
X93839588Y-247818015D01*
X93839583Y-247818017D01*
X93828972Y-247824293D01*
X93811224Y-247832988D01*
X93792383Y-247840448D01*
X93785967Y-247845110D01*
X93785966Y-247845110D01*
X93756613Y-247866436D01*
X93746693Y-247872952D01*
X93715465Y-247891420D01*
X93715462Y-247891422D01*
X93708638Y-247895458D01*
X93694317Y-247909779D01*
X93679284Y-247922619D01*
X93662893Y-247934528D01*
X93657842Y-247940634D01*
X93634702Y-247968605D01*
X93626712Y-247977384D01*
X92338908Y-249265187D01*
X92276596Y-249299213D01*
X92262986Y-249301402D01*
X92254210Y-249302324D01*
X92232288Y-249304628D01*
X92232286Y-249304628D01*
X92225288Y-249305364D01*
X92053579Y-249363818D01*
X92047575Y-249367512D01*
X91905095Y-249455166D01*
X91905092Y-249455168D01*
X91899088Y-249458862D01*
X91894053Y-249463793D01*
X91894050Y-249463795D01*
X91774525Y-249580843D01*
X91769493Y-249585771D01*
X91671235Y-249738238D01*
X91609197Y-249908685D01*
X91608314Y-249915675D01*
X91593783Y-250030697D01*
X91565401Y-250095774D01*
X91506341Y-250135175D01*
X91435571Y-250136451D01*
X69235845Y-244071500D01*
X69212842Y-244062720D01*
X68205024Y-243560241D01*
X68203127Y-243559273D01*
X66169481Y-242500624D01*
X66167539Y-242499592D01*
X65132304Y-241937505D01*
X65120253Y-241930056D01*
X40994055Y-225070785D01*
X40982738Y-225061871D01*
X39915845Y-224117964D01*
X39914211Y-224116493D01*
X38223837Y-222567550D01*
X38222228Y-222566050D01*
X36827753Y-221242743D01*
X36815817Y-221229707D01*
X26795505Y-208612507D01*
X26141207Y-207788640D01*
X56086463Y-207788640D01*
X56104163Y-207969160D01*
X56161418Y-208141273D01*
X56165065Y-208147295D01*
X56165066Y-208147297D01*
X56247376Y-208283207D01*
X56255380Y-208296424D01*
X56260269Y-208301487D01*
X56260270Y-208301488D01*
X56267119Y-208308580D01*
X56381382Y-208426902D01*
X56533159Y-208526222D01*
X56539763Y-208528678D01*
X56539765Y-208528679D01*
X56696558Y-208586990D01*
X56696560Y-208586990D01*
X56703168Y-208589448D01*
X56786995Y-208600633D01*
X56875980Y-208612507D01*
X56875984Y-208612507D01*
X56882961Y-208613438D01*
X56889972Y-208612800D01*
X56889976Y-208612800D01*
X57032459Y-208599832D01*
X57063600Y-208596998D01*
X57070302Y-208594820D01*
X57070304Y-208594820D01*
X57229409Y-208543124D01*
X57229412Y-208543123D01*
X57236108Y-208540947D01*
X57386540Y-208451271D01*
X57451058Y-208433500D01*
X121349833Y-208433500D01*
X121361016Y-208434027D01*
X121368509Y-208435702D01*
X121376435Y-208435453D01*
X121376436Y-208435453D01*
X121436586Y-208433562D01*
X121440545Y-208433500D01*
X121468456Y-208433500D01*
X121472391Y-208433003D01*
X121472456Y-208432995D01*
X121484293Y-208432062D01*
X121516551Y-208431048D01*
X121520570Y-208430922D01*
X121528489Y-208430673D01*
X121547943Y-208425021D01*
X121567300Y-208421013D01*
X121579530Y-208419468D01*
X121579531Y-208419468D01*
X121587397Y-208418474D01*
X121594768Y-208415555D01*
X121594770Y-208415555D01*
X121628512Y-208402196D01*
X121639742Y-208398351D01*
X121674583Y-208388229D01*
X121674584Y-208388229D01*
X121682193Y-208386018D01*
X121689012Y-208381985D01*
X121689017Y-208381983D01*
X121699628Y-208375707D01*
X121717376Y-208367012D01*
X121736217Y-208359552D01*
X121771987Y-208333564D01*
X121781907Y-208327048D01*
X121813135Y-208308580D01*
X121813138Y-208308578D01*
X121819962Y-208304542D01*
X121834283Y-208290221D01*
X121849317Y-208277380D01*
X121859294Y-208270131D01*
X121865707Y-208265472D01*
X121893898Y-208231395D01*
X121901888Y-208222616D01*
X125060177Y-205064327D01*
X125122489Y-205030301D01*
X125137837Y-205027943D01*
X125163600Y-205025598D01*
X125170302Y-205023420D01*
X125170304Y-205023420D01*
X125329409Y-204971724D01*
X125329412Y-204971723D01*
X125336108Y-204969547D01*
X125491912Y-204876669D01*
X125623266Y-204751582D01*
X125723643Y-204600502D01*
X125780177Y-204451677D01*
X125785555Y-204437520D01*
X125785556Y-204437518D01*
X125788055Y-204430938D01*
X125789035Y-204423966D01*
X125812748Y-204255239D01*
X125812748Y-204255236D01*
X125813299Y-204251317D01*
X125813616Y-204228600D01*
X125793397Y-204048345D01*
X125791080Y-204041691D01*
X125736064Y-203883706D01*
X125736062Y-203883703D01*
X125733745Y-203877048D01*
X125637626Y-203723224D01*
X125603407Y-203688765D01*
X125514778Y-203599515D01*
X125514774Y-203599512D01*
X125509815Y-203594518D01*
X125498697Y-203587462D01*
X125450538Y-203556900D01*
X125356666Y-203497327D01*
X125327463Y-203486928D01*
X125192425Y-203438843D01*
X125192420Y-203438842D01*
X125185790Y-203436481D01*
X125178802Y-203435648D01*
X125178799Y-203435647D01*
X125055698Y-203420968D01*
X125005680Y-203415004D01*
X124998677Y-203415740D01*
X124998676Y-203415740D01*
X124832288Y-203433228D01*
X124832286Y-203433229D01*
X124825288Y-203433964D01*
X124653579Y-203492418D01*
X124647575Y-203496112D01*
X124505095Y-203583766D01*
X124505092Y-203583768D01*
X124499088Y-203587462D01*
X124494053Y-203592393D01*
X124494050Y-203592395D01*
X124395641Y-203688765D01*
X124369493Y-203714371D01*
X124271235Y-203866838D01*
X124268826Y-203873458D01*
X124268824Y-203873461D01*
X124231560Y-203975844D01*
X124209197Y-204037285D01*
X124202137Y-204093168D01*
X124173757Y-204158241D01*
X124166227Y-204166468D01*
X121203100Y-207129595D01*
X121140788Y-207163621D01*
X121114005Y-207166500D01*
X57447338Y-207166500D01*
X57379824Y-207146885D01*
X57346583Y-207125790D01*
X57256666Y-207068727D01*
X57227463Y-207058328D01*
X57092425Y-207010243D01*
X57092420Y-207010242D01*
X57085790Y-207007881D01*
X57078802Y-207007048D01*
X57078799Y-207007047D01*
X56955698Y-206992368D01*
X56905680Y-206986404D01*
X56898677Y-206987140D01*
X56898676Y-206987140D01*
X56732288Y-207004628D01*
X56732286Y-207004629D01*
X56725288Y-207005364D01*
X56553579Y-207063818D01*
X56547575Y-207067512D01*
X56405095Y-207155166D01*
X56405092Y-207155168D01*
X56399088Y-207158862D01*
X56394053Y-207163793D01*
X56394050Y-207163795D01*
X56391288Y-207166500D01*
X56269493Y-207285771D01*
X56171235Y-207438238D01*
X56109197Y-207608685D01*
X56086463Y-207788640D01*
X26141207Y-207788640D01*
X20820209Y-201088640D01*
X129186463Y-201088640D01*
X129204163Y-201269160D01*
X129261418Y-201441273D01*
X129265065Y-201447295D01*
X129265066Y-201447297D01*
X129349797Y-201587205D01*
X129355380Y-201596424D01*
X129360269Y-201601487D01*
X129360270Y-201601488D01*
X129369810Y-201611367D01*
X129481382Y-201726902D01*
X129487278Y-201730760D01*
X129624302Y-201820426D01*
X129633159Y-201826222D01*
X129639763Y-201828678D01*
X129639765Y-201828679D01*
X129796558Y-201886990D01*
X129796560Y-201886990D01*
X129803168Y-201889448D01*
X129810153Y-201890380D01*
X129810157Y-201890381D01*
X129845087Y-201895041D01*
X129865187Y-201897723D01*
X129930063Y-201926558D01*
X129937617Y-201933521D01*
X130577243Y-202573147D01*
X130584787Y-202581437D01*
X130588900Y-202587918D01*
X130594677Y-202593343D01*
X130638567Y-202634558D01*
X130641409Y-202637313D01*
X130661130Y-202657034D01*
X130664325Y-202659512D01*
X130673347Y-202667218D01*
X130705579Y-202697486D01*
X130712528Y-202701306D01*
X130723332Y-202707246D01*
X130739856Y-202718099D01*
X130755859Y-202730513D01*
X130796443Y-202748076D01*
X130807073Y-202753283D01*
X130845840Y-202774595D01*
X130853517Y-202776566D01*
X130853522Y-202776568D01*
X130865458Y-202779632D01*
X130884166Y-202786037D01*
X130902755Y-202794081D01*
X130910580Y-202795320D01*
X130910582Y-202795321D01*
X130946419Y-202800997D01*
X130958040Y-202803404D01*
X130993189Y-202812428D01*
X131000870Y-202814400D01*
X131021131Y-202814400D01*
X131040840Y-202815951D01*
X131060843Y-202819119D01*
X131068735Y-202818373D01*
X131073962Y-202817879D01*
X131104854Y-202814959D01*
X131116711Y-202814400D01*
X183666306Y-202814400D01*
X183734427Y-202834402D01*
X183755401Y-202851305D01*
X184764750Y-203860654D01*
X184798776Y-203922966D01*
X184801054Y-203937453D01*
X184804163Y-203969160D01*
X184861418Y-204141273D01*
X184865065Y-204147295D01*
X184865066Y-204147297D01*
X184951172Y-204289475D01*
X184955380Y-204296424D01*
X185081382Y-204426902D01*
X185233159Y-204526222D01*
X185239763Y-204528678D01*
X185239765Y-204528679D01*
X185396558Y-204586990D01*
X185396560Y-204586990D01*
X185403168Y-204589448D01*
X185486012Y-204600502D01*
X185575980Y-204612507D01*
X185575984Y-204612507D01*
X185582961Y-204613438D01*
X185589972Y-204612800D01*
X185589976Y-204612800D01*
X185732459Y-204599832D01*
X185763600Y-204596998D01*
X185770302Y-204594820D01*
X185770304Y-204594820D01*
X185929409Y-204543124D01*
X185929412Y-204543123D01*
X185936108Y-204540947D01*
X186091912Y-204448069D01*
X186223266Y-204322982D01*
X186323643Y-204171902D01*
X186370578Y-204048345D01*
X186385555Y-204008920D01*
X186385556Y-204008918D01*
X186388055Y-204002338D01*
X186389035Y-203995366D01*
X186412748Y-203826639D01*
X186412748Y-203826636D01*
X186413299Y-203822717D01*
X186413616Y-203800000D01*
X186393397Y-203619745D01*
X186383873Y-203592395D01*
X186336064Y-203455106D01*
X186336062Y-203455103D01*
X186333745Y-203448448D01*
X186325746Y-203435647D01*
X186241359Y-203300598D01*
X186237626Y-203294624D01*
X186232664Y-203289627D01*
X186114778Y-203170915D01*
X186114774Y-203170912D01*
X186109815Y-203165918D01*
X185956666Y-203068727D01*
X185927463Y-203058328D01*
X185792425Y-203010243D01*
X185792420Y-203010242D01*
X185785790Y-203007881D01*
X185778802Y-203007048D01*
X185778799Y-203007047D01*
X185736008Y-203001945D01*
X185670734Y-202974018D01*
X185661831Y-202965926D01*
X184484552Y-201788647D01*
X184477012Y-201780361D01*
X184472900Y-201773882D01*
X184423248Y-201727256D01*
X184420407Y-201724502D01*
X184400670Y-201704765D01*
X184397473Y-201702285D01*
X184388451Y-201694580D01*
X184362000Y-201669741D01*
X184356221Y-201664314D01*
X184349275Y-201660495D01*
X184349272Y-201660493D01*
X184338466Y-201654552D01*
X184321947Y-201643701D01*
X184321483Y-201643341D01*
X184305941Y-201631286D01*
X184298672Y-201628141D01*
X184298668Y-201628138D01*
X184265363Y-201613726D01*
X184254713Y-201608509D01*
X184215960Y-201587205D01*
X184196337Y-201582167D01*
X184177634Y-201575763D01*
X184166320Y-201570867D01*
X184166319Y-201570867D01*
X184159045Y-201567719D01*
X184151222Y-201566480D01*
X184151212Y-201566477D01*
X184115376Y-201560801D01*
X184103756Y-201558395D01*
X184068611Y-201549372D01*
X184068610Y-201549372D01*
X184060930Y-201547400D01*
X184040676Y-201547400D01*
X184020965Y-201545849D01*
X184008786Y-201543920D01*
X184000957Y-201542680D01*
X183993065Y-201543426D01*
X183956939Y-201546841D01*
X183945081Y-201547400D01*
X131395495Y-201547400D01*
X131327374Y-201527398D01*
X131306400Y-201510495D01*
X130834421Y-201038516D01*
X130800395Y-200976204D01*
X130798301Y-200963465D01*
X130794182Y-200926746D01*
X130793397Y-200919745D01*
X130733745Y-200748448D01*
X130637626Y-200594624D01*
X130623941Y-200580843D01*
X130514778Y-200470915D01*
X130514774Y-200470912D01*
X130509815Y-200465918D01*
X130498697Y-200458862D01*
X130450538Y-200428300D01*
X130356666Y-200368727D01*
X130327463Y-200358328D01*
X130192425Y-200310243D01*
X130192420Y-200310242D01*
X130185790Y-200307881D01*
X130178802Y-200307048D01*
X130178799Y-200307047D01*
X130055698Y-200292368D01*
X130005680Y-200286404D01*
X129998677Y-200287140D01*
X129998676Y-200287140D01*
X129832288Y-200304628D01*
X129832286Y-200304629D01*
X129825288Y-200305364D01*
X129653579Y-200363818D01*
X129647575Y-200367512D01*
X129505095Y-200455166D01*
X129505092Y-200455168D01*
X129499088Y-200458862D01*
X129494053Y-200463793D01*
X129494050Y-200463795D01*
X129374525Y-200580843D01*
X129369493Y-200585771D01*
X129271235Y-200738238D01*
X129268826Y-200744858D01*
X129268824Y-200744861D01*
X129218316Y-200883630D01*
X129209197Y-200908685D01*
X129186463Y-201088640D01*
X20820209Y-201088640D01*
X19368662Y-199260906D01*
X19353929Y-199237464D01*
X5334578Y-170288640D01*
X22186463Y-170288640D01*
X22204163Y-170469160D01*
X22261418Y-170641273D01*
X22265065Y-170647295D01*
X22265066Y-170647297D01*
X22285869Y-170681646D01*
X22355380Y-170796424D01*
X22481382Y-170926902D01*
X22633159Y-171026222D01*
X22639763Y-171028678D01*
X22639765Y-171028679D01*
X22796558Y-171086990D01*
X22796560Y-171086990D01*
X22803168Y-171089448D01*
X22886995Y-171100633D01*
X22975980Y-171112507D01*
X22975984Y-171112507D01*
X22982961Y-171113438D01*
X22989972Y-171112800D01*
X22989976Y-171112800D01*
X23132459Y-171099832D01*
X23163600Y-171096998D01*
X23170302Y-171094820D01*
X23170304Y-171094820D01*
X23329409Y-171043124D01*
X23329412Y-171043123D01*
X23336108Y-171040947D01*
X23456532Y-170969160D01*
X23486541Y-170951271D01*
X23551058Y-170933500D01*
X23785406Y-170933500D01*
X23853527Y-170953502D01*
X23874501Y-170970405D01*
X25791243Y-172887147D01*
X25798787Y-172895437D01*
X25802900Y-172901918D01*
X25808677Y-172907343D01*
X25852567Y-172948558D01*
X25855409Y-172951313D01*
X25875130Y-172971034D01*
X25878325Y-172973512D01*
X25887346Y-172981217D01*
X25919579Y-173011486D01*
X25930758Y-173017632D01*
X25937332Y-173021246D01*
X25953856Y-173032099D01*
X25969859Y-173044513D01*
X26010443Y-173062076D01*
X26021073Y-173067283D01*
X26059840Y-173088595D01*
X26067517Y-173090566D01*
X26067522Y-173090568D01*
X26079458Y-173093632D01*
X26098166Y-173100037D01*
X26116755Y-173108081D01*
X26124580Y-173109320D01*
X26124582Y-173109321D01*
X26160419Y-173114997D01*
X26172040Y-173117404D01*
X26207189Y-173126428D01*
X26214870Y-173128400D01*
X26235131Y-173128400D01*
X26254840Y-173129951D01*
X26274843Y-173133119D01*
X26282735Y-173132373D01*
X26287962Y-173131879D01*
X26318854Y-173128959D01*
X26330711Y-173128400D01*
X67584603Y-173128400D01*
X67653596Y-173148968D01*
X67687135Y-173170915D01*
X67763859Y-173221122D01*
X67770463Y-173223578D01*
X67770465Y-173223579D01*
X67927258Y-173281890D01*
X67927260Y-173281890D01*
X67933868Y-173284348D01*
X68017695Y-173295533D01*
X68106680Y-173307407D01*
X68106684Y-173307407D01*
X68113661Y-173308338D01*
X68120672Y-173307700D01*
X68120676Y-173307700D01*
X68264347Y-173294624D01*
X68294300Y-173291898D01*
X68301002Y-173289720D01*
X68301004Y-173289720D01*
X68460109Y-173238024D01*
X68460112Y-173238023D01*
X68466808Y-173235847D01*
X68579403Y-173168727D01*
X68616560Y-173146577D01*
X68616562Y-173146576D01*
X68622612Y-173142969D01*
X68753966Y-173017882D01*
X68854343Y-172866802D01*
X68918755Y-172697238D01*
X68943999Y-172517617D01*
X68944316Y-172494900D01*
X68924097Y-172314645D01*
X68864445Y-172143348D01*
X68785052Y-172016292D01*
X68772059Y-171995498D01*
X68768326Y-171989524D01*
X68742760Y-171963779D01*
X68645478Y-171865815D01*
X68645474Y-171865812D01*
X68640515Y-171860818D01*
X68629397Y-171853762D01*
X68581238Y-171823200D01*
X68487366Y-171763627D01*
X68458163Y-171753228D01*
X68323125Y-171705143D01*
X68323120Y-171705142D01*
X68316490Y-171702781D01*
X68309502Y-171701948D01*
X68309499Y-171701947D01*
X68186398Y-171687268D01*
X68136380Y-171681304D01*
X68129377Y-171682040D01*
X68129376Y-171682040D01*
X67962988Y-171699528D01*
X67962986Y-171699529D01*
X67955988Y-171700264D01*
X67784279Y-171758718D01*
X67647739Y-171842719D01*
X67581719Y-171861400D01*
X26609495Y-171861400D01*
X26541374Y-171841398D01*
X26520400Y-171824495D01*
X25384545Y-170688640D01*
X83686463Y-170688640D01*
X83704163Y-170869160D01*
X83761418Y-171041273D01*
X83765065Y-171047295D01*
X83765066Y-171047297D01*
X83821980Y-171141273D01*
X83855380Y-171196424D01*
X83981382Y-171326902D01*
X84133159Y-171426222D01*
X84139763Y-171428678D01*
X84139765Y-171428679D01*
X84296558Y-171486990D01*
X84296560Y-171486990D01*
X84303168Y-171489448D01*
X84386995Y-171500633D01*
X84475980Y-171512507D01*
X84475984Y-171512507D01*
X84482961Y-171513438D01*
X84489972Y-171512800D01*
X84489976Y-171512800D01*
X84632459Y-171499832D01*
X84663600Y-171496998D01*
X84670302Y-171494820D01*
X84670304Y-171494820D01*
X84829409Y-171443124D01*
X84829412Y-171443123D01*
X84836108Y-171440947D01*
X84986540Y-171351271D01*
X85051058Y-171333500D01*
X85885406Y-171333500D01*
X85953527Y-171353502D01*
X85974501Y-171370405D01*
X88596343Y-173992247D01*
X88603887Y-174000537D01*
X88608000Y-174007018D01*
X88613777Y-174012443D01*
X88657667Y-174053658D01*
X88660509Y-174056413D01*
X88680230Y-174076134D01*
X88683425Y-174078612D01*
X88692447Y-174086318D01*
X88724679Y-174116586D01*
X88731628Y-174120406D01*
X88742432Y-174126346D01*
X88758956Y-174137199D01*
X88774959Y-174149613D01*
X88815543Y-174167176D01*
X88826173Y-174172383D01*
X88864940Y-174193695D01*
X88872617Y-174195666D01*
X88872622Y-174195668D01*
X88884558Y-174198732D01*
X88903266Y-174205137D01*
X88921855Y-174213181D01*
X88929680Y-174214420D01*
X88929682Y-174214421D01*
X88965519Y-174220097D01*
X88977140Y-174222504D01*
X89012289Y-174231528D01*
X89019970Y-174233500D01*
X89040231Y-174233500D01*
X89059940Y-174235051D01*
X89079943Y-174238219D01*
X89087835Y-174237473D01*
X89093062Y-174236979D01*
X89123954Y-174234059D01*
X89135811Y-174233500D01*
X169585713Y-174233500D01*
X169653834Y-174253502D01*
X169693489Y-174294229D01*
X169737666Y-174367174D01*
X169755380Y-174396424D01*
X169760269Y-174401487D01*
X169760270Y-174401488D01*
X169837121Y-174481068D01*
X169881382Y-174526902D01*
X169887278Y-174530760D01*
X169989477Y-174597637D01*
X170033159Y-174626222D01*
X170039763Y-174628678D01*
X170039765Y-174628679D01*
X170196558Y-174686990D01*
X170196560Y-174686990D01*
X170203168Y-174689448D01*
X170286995Y-174700633D01*
X170375980Y-174712507D01*
X170375984Y-174712507D01*
X170382961Y-174713438D01*
X170389972Y-174712800D01*
X170389976Y-174712800D01*
X170532459Y-174699832D01*
X170563600Y-174696998D01*
X170570302Y-174694820D01*
X170570304Y-174694820D01*
X170729409Y-174643124D01*
X170729412Y-174643123D01*
X170736108Y-174640947D01*
X170891912Y-174548069D01*
X171023266Y-174422982D01*
X171123643Y-174271902D01*
X171171943Y-174144753D01*
X171185555Y-174108920D01*
X171185556Y-174108918D01*
X171188055Y-174102338D01*
X171189035Y-174095366D01*
X171212748Y-173926639D01*
X171212748Y-173926636D01*
X171213299Y-173922717D01*
X171213616Y-173900000D01*
X171193397Y-173719745D01*
X171161011Y-173626744D01*
X171136064Y-173555106D01*
X171136062Y-173555103D01*
X171133745Y-173548448D01*
X171037626Y-173394624D01*
X171032664Y-173389627D01*
X170914778Y-173270915D01*
X170914774Y-173270912D01*
X170909815Y-173265918D01*
X170756666Y-173168727D01*
X170697947Y-173147818D01*
X170592425Y-173110243D01*
X170592420Y-173110242D01*
X170585790Y-173107881D01*
X170578802Y-173107048D01*
X170578799Y-173107047D01*
X170524487Y-173100571D01*
X170476274Y-173081678D01*
X170475320Y-173083413D01*
X170457566Y-173073652D01*
X170441047Y-173062801D01*
X170439430Y-173061547D01*
X170425041Y-173050386D01*
X170417772Y-173047241D01*
X170417768Y-173047238D01*
X170384463Y-173032826D01*
X170373813Y-173027609D01*
X170335060Y-173006305D01*
X170315437Y-173001267D01*
X170296734Y-172994863D01*
X170285420Y-172989967D01*
X170285419Y-172989967D01*
X170278145Y-172986819D01*
X170270322Y-172985580D01*
X170270312Y-172985577D01*
X170234476Y-172979901D01*
X170222856Y-172977495D01*
X170187711Y-172968472D01*
X170187710Y-172968472D01*
X170180030Y-172966500D01*
X170159776Y-172966500D01*
X170140065Y-172964949D01*
X170127886Y-172963020D01*
X170120057Y-172961780D01*
X170112165Y-172962526D01*
X170076039Y-172965941D01*
X170064181Y-172966500D01*
X89414595Y-172966500D01*
X89346474Y-172946498D01*
X89325500Y-172929595D01*
X87184545Y-170788640D01*
X174686463Y-170788640D01*
X174704163Y-170969160D01*
X174761418Y-171141273D01*
X174765065Y-171147295D01*
X174765066Y-171147297D01*
X174791171Y-171190401D01*
X174855380Y-171296424D01*
X174981382Y-171426902D01*
X174987278Y-171430760D01*
X175089477Y-171497637D01*
X175133159Y-171526222D01*
X175139763Y-171528678D01*
X175139765Y-171528679D01*
X175296558Y-171586990D01*
X175296560Y-171586990D01*
X175303168Y-171589448D01*
X175386995Y-171600633D01*
X175475980Y-171612507D01*
X175475984Y-171612507D01*
X175482961Y-171613438D01*
X175489972Y-171612800D01*
X175489976Y-171612800D01*
X175632459Y-171599832D01*
X175663600Y-171596998D01*
X175670302Y-171594820D01*
X175670304Y-171594820D01*
X175829409Y-171543124D01*
X175829412Y-171543123D01*
X175836108Y-171540947D01*
X175856688Y-171528679D01*
X175945409Y-171475791D01*
X176014164Y-171458091D01*
X176081573Y-171480373D01*
X176099021Y-171494925D01*
X177491243Y-172887147D01*
X177498787Y-172895437D01*
X177502900Y-172901918D01*
X177508677Y-172907343D01*
X177552567Y-172948558D01*
X177555409Y-172951313D01*
X177575131Y-172971035D01*
X177578252Y-172973456D01*
X177578259Y-172973462D01*
X177578324Y-172973512D01*
X177587345Y-172981217D01*
X177619579Y-173011486D01*
X177626527Y-173015305D01*
X177626529Y-173015307D01*
X177637332Y-173021246D01*
X177653859Y-173032102D01*
X177663598Y-173039657D01*
X177663600Y-173039658D01*
X177669860Y-173044514D01*
X177710440Y-173062074D01*
X177721088Y-173067291D01*
X177750416Y-173083414D01*
X177759840Y-173088595D01*
X177767516Y-173090566D01*
X177767519Y-173090567D01*
X177779462Y-173093633D01*
X177798166Y-173100037D01*
X177798169Y-173100038D01*
X177816755Y-173108081D01*
X177824578Y-173109320D01*
X177824588Y-173109323D01*
X177860424Y-173114999D01*
X177872044Y-173117405D01*
X177907189Y-173126428D01*
X177914870Y-173128400D01*
X177935124Y-173128400D01*
X177954834Y-173129951D01*
X177974843Y-173133120D01*
X177982735Y-173132374D01*
X178018861Y-173128959D01*
X178030719Y-173128400D01*
X216090506Y-173128400D01*
X216158627Y-173148402D01*
X216179601Y-173165305D01*
X217206548Y-174192253D01*
X217214088Y-174200539D01*
X217218200Y-174207018D01*
X217223977Y-174212443D01*
X217267851Y-174253643D01*
X217270693Y-174256398D01*
X217290430Y-174276135D01*
X217293627Y-174278615D01*
X217302647Y-174286318D01*
X217334879Y-174316586D01*
X217341825Y-174320405D01*
X217341828Y-174320407D01*
X217352634Y-174326348D01*
X217369153Y-174337199D01*
X217385159Y-174349614D01*
X217392428Y-174352759D01*
X217392432Y-174352762D01*
X217425737Y-174367174D01*
X217436387Y-174372391D01*
X217475140Y-174393695D01*
X217482815Y-174395666D01*
X217482816Y-174395666D01*
X217494762Y-174398733D01*
X217513467Y-174405137D01*
X217532055Y-174413181D01*
X217539878Y-174414420D01*
X217539888Y-174414423D01*
X217575724Y-174420099D01*
X217587344Y-174422505D01*
X217622489Y-174431528D01*
X217630170Y-174433500D01*
X217650424Y-174433500D01*
X217670134Y-174435051D01*
X217690143Y-174438220D01*
X217698035Y-174437474D01*
X217734161Y-174434059D01*
X217746019Y-174433500D01*
X221753903Y-174433500D01*
X221822896Y-174454068D01*
X221933159Y-174526222D01*
X221939763Y-174528678D01*
X221939765Y-174528679D01*
X222096558Y-174586990D01*
X222096560Y-174586990D01*
X222103168Y-174589448D01*
X222186995Y-174600633D01*
X222275980Y-174612507D01*
X222275984Y-174612507D01*
X222282961Y-174613438D01*
X222289972Y-174612800D01*
X222289976Y-174612800D01*
X222432459Y-174599832D01*
X222463600Y-174596998D01*
X222470302Y-174594820D01*
X222470304Y-174594820D01*
X222629409Y-174543124D01*
X222629412Y-174543123D01*
X222636108Y-174540947D01*
X222791912Y-174448069D01*
X222923266Y-174322982D01*
X223023643Y-174171902D01*
X223068560Y-174053658D01*
X223085555Y-174008920D01*
X223085556Y-174008918D01*
X223088055Y-174002338D01*
X223113299Y-173822717D01*
X223113616Y-173800000D01*
X223093397Y-173619745D01*
X223091080Y-173613091D01*
X223036064Y-173455106D01*
X223036062Y-173455103D01*
X223033745Y-173448448D01*
X222937626Y-173294624D01*
X222928347Y-173285280D01*
X222814778Y-173170915D01*
X222814774Y-173170912D01*
X222809815Y-173165918D01*
X222798697Y-173158862D01*
X222750538Y-173128300D01*
X222656666Y-173068727D01*
X222618796Y-173055242D01*
X222492425Y-173010243D01*
X222492420Y-173010242D01*
X222485790Y-173007881D01*
X222478802Y-173007048D01*
X222478799Y-173007047D01*
X222355698Y-172992368D01*
X222305680Y-172986404D01*
X222298677Y-172987140D01*
X222298676Y-172987140D01*
X222132288Y-173004628D01*
X222132286Y-173004629D01*
X222125288Y-173005364D01*
X221953579Y-173063818D01*
X221817039Y-173147819D01*
X221751019Y-173166500D01*
X218024794Y-173166500D01*
X217956673Y-173146498D01*
X217935699Y-173129595D01*
X216908752Y-172102647D01*
X216901212Y-172094361D01*
X216897100Y-172087882D01*
X216847448Y-172041256D01*
X216844607Y-172038502D01*
X216824870Y-172018765D01*
X216821673Y-172016285D01*
X216812651Y-172008580D01*
X216798720Y-171995498D01*
X216780421Y-171978314D01*
X216773475Y-171974495D01*
X216773472Y-171974493D01*
X216762666Y-171968552D01*
X216746147Y-171957701D01*
X216745683Y-171957341D01*
X216730141Y-171945286D01*
X216722872Y-171942141D01*
X216722868Y-171942138D01*
X216689563Y-171927726D01*
X216678913Y-171922509D01*
X216640160Y-171901205D01*
X216620537Y-171896167D01*
X216601834Y-171889763D01*
X216590520Y-171884867D01*
X216590519Y-171884867D01*
X216583245Y-171881719D01*
X216575422Y-171880480D01*
X216575412Y-171880477D01*
X216539576Y-171874801D01*
X216527956Y-171872395D01*
X216492811Y-171863372D01*
X216492810Y-171863372D01*
X216485130Y-171861400D01*
X216464876Y-171861400D01*
X216445165Y-171859849D01*
X216432986Y-171857920D01*
X216425157Y-171856680D01*
X216417265Y-171857426D01*
X216381139Y-171860841D01*
X216369281Y-171861400D01*
X178309494Y-171861400D01*
X178241373Y-171841398D01*
X178220399Y-171824495D01*
X176803652Y-170407747D01*
X176796112Y-170399461D01*
X176792000Y-170392982D01*
X176742348Y-170346356D01*
X176739507Y-170343602D01*
X176719770Y-170323865D01*
X176716573Y-170321385D01*
X176707551Y-170313680D01*
X176681100Y-170288841D01*
X176675321Y-170283414D01*
X176668375Y-170279595D01*
X176668372Y-170279593D01*
X176657566Y-170273652D01*
X176641047Y-170262801D01*
X176640583Y-170262441D01*
X176625041Y-170250386D01*
X176617772Y-170247241D01*
X176617768Y-170247238D01*
X176584463Y-170232826D01*
X176573813Y-170227609D01*
X176535060Y-170206305D01*
X176515437Y-170201267D01*
X176496734Y-170194863D01*
X176485420Y-170189967D01*
X176485419Y-170189967D01*
X176478145Y-170186819D01*
X176470322Y-170185580D01*
X176470312Y-170185577D01*
X176434476Y-170179901D01*
X176422856Y-170177495D01*
X176387711Y-170168472D01*
X176387710Y-170168472D01*
X176380030Y-170166500D01*
X176359776Y-170166500D01*
X176340065Y-170164949D01*
X176327886Y-170163020D01*
X176320057Y-170161780D01*
X176312165Y-170162526D01*
X176276039Y-170165941D01*
X176264181Y-170166500D01*
X176047338Y-170166500D01*
X175979824Y-170146885D01*
X175930644Y-170115675D01*
X175856666Y-170068727D01*
X175818582Y-170055166D01*
X175692425Y-170010243D01*
X175692420Y-170010242D01*
X175685790Y-170007881D01*
X175678802Y-170007048D01*
X175678799Y-170007047D01*
X175555698Y-169992368D01*
X175505680Y-169986404D01*
X175498677Y-169987140D01*
X175498676Y-169987140D01*
X175332288Y-170004628D01*
X175332286Y-170004629D01*
X175325288Y-170005364D01*
X175153579Y-170063818D01*
X175116192Y-170086819D01*
X175005095Y-170155166D01*
X175005092Y-170155168D01*
X174999088Y-170158862D01*
X174994053Y-170163793D01*
X174994050Y-170163795D01*
X174874525Y-170280843D01*
X174869493Y-170285771D01*
X174771235Y-170438238D01*
X174709197Y-170608685D01*
X174686463Y-170788640D01*
X87184545Y-170788640D01*
X86703652Y-170307747D01*
X86696112Y-170299461D01*
X86692000Y-170292982D01*
X86671416Y-170273652D01*
X86651811Y-170255242D01*
X86642348Y-170246356D01*
X86639507Y-170243602D01*
X86619770Y-170223865D01*
X86616573Y-170221385D01*
X86607551Y-170213680D01*
X86603761Y-170210121D01*
X86575321Y-170183414D01*
X86568375Y-170179595D01*
X86568372Y-170179593D01*
X86557566Y-170173652D01*
X86541047Y-170162801D01*
X86539731Y-170161780D01*
X86525041Y-170150386D01*
X86517772Y-170147241D01*
X86517768Y-170147238D01*
X86484463Y-170132826D01*
X86473813Y-170127609D01*
X86435060Y-170106305D01*
X86415437Y-170101267D01*
X86396734Y-170094863D01*
X86385420Y-170089967D01*
X86385419Y-170089967D01*
X86378145Y-170086819D01*
X86370322Y-170085580D01*
X86370312Y-170085577D01*
X86334476Y-170079901D01*
X86322856Y-170077495D01*
X86287711Y-170068472D01*
X86287710Y-170068472D01*
X86280030Y-170066500D01*
X86259776Y-170066500D01*
X86240065Y-170064949D01*
X86227886Y-170063020D01*
X86220057Y-170061780D01*
X86212165Y-170062526D01*
X86176039Y-170065941D01*
X86164181Y-170066500D01*
X85047338Y-170066500D01*
X84979824Y-170046885D01*
X84913237Y-170004628D01*
X84856666Y-169968727D01*
X84827463Y-169958328D01*
X84692425Y-169910243D01*
X84692420Y-169910242D01*
X84685790Y-169907881D01*
X84678802Y-169907048D01*
X84678799Y-169907047D01*
X84555698Y-169892368D01*
X84505680Y-169886404D01*
X84498677Y-169887140D01*
X84498676Y-169887140D01*
X84332288Y-169904628D01*
X84332286Y-169904629D01*
X84325288Y-169905364D01*
X84153579Y-169963818D01*
X84147575Y-169967512D01*
X84005095Y-170055166D01*
X84005092Y-170055168D01*
X83999088Y-170058862D01*
X83994053Y-170063793D01*
X83994050Y-170063795D01*
X83875487Y-170179901D01*
X83869493Y-170185771D01*
X83771235Y-170338238D01*
X83768826Y-170344858D01*
X83768824Y-170344861D01*
X83734838Y-170438238D01*
X83709197Y-170508685D01*
X83686463Y-170688640D01*
X25384545Y-170688640D01*
X24603652Y-169907747D01*
X24596112Y-169899461D01*
X24592000Y-169892982D01*
X24542348Y-169846356D01*
X24539507Y-169843602D01*
X24519770Y-169823865D01*
X24516573Y-169821385D01*
X24507551Y-169813680D01*
X24481100Y-169788841D01*
X24475321Y-169783414D01*
X24468375Y-169779595D01*
X24468372Y-169779593D01*
X24457566Y-169773652D01*
X24441047Y-169762801D01*
X24440583Y-169762441D01*
X24425041Y-169750386D01*
X24417772Y-169747241D01*
X24417768Y-169747238D01*
X24384463Y-169732826D01*
X24373813Y-169727609D01*
X24335060Y-169706305D01*
X24315437Y-169701267D01*
X24296734Y-169694863D01*
X24285420Y-169689967D01*
X24285419Y-169689967D01*
X24278145Y-169686819D01*
X24270322Y-169685580D01*
X24270312Y-169685577D01*
X24234476Y-169679901D01*
X24222856Y-169677495D01*
X24187711Y-169668472D01*
X24187710Y-169668472D01*
X24180030Y-169666500D01*
X24159776Y-169666500D01*
X24140065Y-169664949D01*
X24127886Y-169663020D01*
X24120057Y-169661780D01*
X24112165Y-169662526D01*
X24076039Y-169665941D01*
X24064181Y-169666500D01*
X23547338Y-169666500D01*
X23479824Y-169646885D01*
X23446583Y-169625790D01*
X23356666Y-169568727D01*
X23327463Y-169558328D01*
X23192425Y-169510243D01*
X23192420Y-169510242D01*
X23185790Y-169507881D01*
X23178802Y-169507048D01*
X23178799Y-169507047D01*
X23055698Y-169492368D01*
X23005680Y-169486404D01*
X22998677Y-169487140D01*
X22998676Y-169487140D01*
X22832288Y-169504628D01*
X22832286Y-169504629D01*
X22825288Y-169505364D01*
X22653579Y-169563818D01*
X22647575Y-169567512D01*
X22505095Y-169655166D01*
X22505092Y-169655168D01*
X22499088Y-169658862D01*
X22494053Y-169663793D01*
X22494050Y-169663795D01*
X22374525Y-169780843D01*
X22369493Y-169785771D01*
X22271235Y-169938238D01*
X22268826Y-169944858D01*
X22268824Y-169944861D01*
X22211897Y-170101267D01*
X22209197Y-170108685D01*
X22186463Y-170288640D01*
X5334578Y-170288640D01*
X3346026Y-166182442D01*
X3336816Y-166156547D01*
X-480814Y-150028678D01*
X-655989Y-149288640D01*
X136586463Y-149288640D01*
X136604163Y-149469160D01*
X136661418Y-149641273D01*
X136755380Y-149796424D01*
X136881382Y-149926902D01*
X137033159Y-150026222D01*
X137039763Y-150028678D01*
X137039865Y-150028716D01*
X137039964Y-150028780D01*
X137046052Y-150031855D01*
X137045734Y-150032484D01*
X137085037Y-150057718D01*
X140516230Y-153488911D01*
X140528616Y-153503323D01*
X140537149Y-153514918D01*
X140537154Y-153514923D01*
X140541492Y-153520818D01*
X140547070Y-153525557D01*
X140547073Y-153525560D01*
X140581768Y-153555035D01*
X140589284Y-153561965D01*
X140594979Y-153567660D01*
X140597861Y-153569940D01*
X140617251Y-153585281D01*
X140620655Y-153588072D01*
X140670703Y-153630591D01*
X140676285Y-153635333D01*
X140682801Y-153638661D01*
X140687850Y-153642028D01*
X140692979Y-153645195D01*
X140698716Y-153649734D01*
X140764875Y-153680655D01*
X140768769Y-153682558D01*
X140833808Y-153715769D01*
X140840916Y-153717508D01*
X140846559Y-153719607D01*
X140852322Y-153721524D01*
X140858950Y-153724622D01*
X140866112Y-153726112D01*
X140866113Y-153726112D01*
X140930412Y-153739486D01*
X140934696Y-153740456D01*
X141005610Y-153757808D01*
X141011212Y-153758156D01*
X141011215Y-153758156D01*
X141016764Y-153758500D01*
X141016762Y-153758536D01*
X141020755Y-153758775D01*
X141024947Y-153759149D01*
X141032115Y-153760640D01*
X141109520Y-153758546D01*
X141112928Y-153758500D01*
X215933629Y-153758500D01*
X216001750Y-153778502D01*
X216022724Y-153795405D01*
X221940992Y-159713673D01*
X221960595Y-159741771D01*
X221961418Y-159741273D01*
X222055380Y-159896424D01*
X222181382Y-160026902D01*
X222333159Y-160126222D01*
X222339763Y-160128678D01*
X222339765Y-160128679D01*
X222496558Y-160186990D01*
X222496560Y-160186990D01*
X222503168Y-160189448D01*
X222586995Y-160200633D01*
X222675980Y-160212507D01*
X222675984Y-160212507D01*
X222682961Y-160213438D01*
X222689972Y-160212800D01*
X222689976Y-160212800D01*
X222832459Y-160199832D01*
X222863600Y-160196998D01*
X222870302Y-160194820D01*
X222870304Y-160194820D01*
X223029409Y-160143124D01*
X223029412Y-160143123D01*
X223036108Y-160140947D01*
X223191912Y-160048069D01*
X223323266Y-159922982D01*
X223423643Y-159771902D01*
X223488055Y-159602338D01*
X223513299Y-159422717D01*
X223513616Y-159400000D01*
X223493397Y-159219745D01*
X223433745Y-159048448D01*
X223337626Y-158894624D01*
X223332664Y-158889627D01*
X223214778Y-158770915D01*
X223214774Y-158770912D01*
X223209815Y-158765918D01*
X223056666Y-158668727D01*
X223050026Y-158666363D01*
X223047532Y-158665146D01*
X223013675Y-158640994D01*
X216883770Y-152511089D01*
X216871384Y-152496677D01*
X216862851Y-152485082D01*
X216862846Y-152485077D01*
X216858508Y-152479182D01*
X216852930Y-152474443D01*
X216852927Y-152474440D01*
X216818232Y-152444965D01*
X216810716Y-152438035D01*
X216805021Y-152432340D01*
X216798880Y-152427482D01*
X216782749Y-152414719D01*
X216779345Y-152411928D01*
X216729297Y-152369409D01*
X216729295Y-152369408D01*
X216723715Y-152364667D01*
X216717199Y-152361339D01*
X216712150Y-152357972D01*
X216707021Y-152354805D01*
X216701284Y-152350266D01*
X216635125Y-152319345D01*
X216631225Y-152317439D01*
X216566192Y-152284231D01*
X216559084Y-152282492D01*
X216553441Y-152280393D01*
X216547678Y-152278476D01*
X216541050Y-152275378D01*
X216469583Y-152260513D01*
X216465299Y-152259543D01*
X216394390Y-152242192D01*
X216388788Y-152241844D01*
X216388785Y-152241844D01*
X216383236Y-152241500D01*
X216383238Y-152241464D01*
X216379245Y-152241225D01*
X216375053Y-152240851D01*
X216367885Y-152239360D01*
X216301675Y-152241151D01*
X216290479Y-152241454D01*
X216287072Y-152241500D01*
X141466371Y-152241500D01*
X141398250Y-152221498D01*
X141377276Y-152204595D01*
X138158908Y-148986227D01*
X138135281Y-148952858D01*
X138133745Y-148948448D01*
X138130014Y-148942477D01*
X138130012Y-148942473D01*
X138041359Y-148800598D01*
X138037626Y-148794624D01*
X138023941Y-148780843D01*
X137914778Y-148670915D01*
X137914774Y-148670912D01*
X137909815Y-148665918D01*
X137898697Y-148658862D01*
X137850538Y-148628300D01*
X137756666Y-148568727D01*
X137727463Y-148558328D01*
X137592425Y-148510243D01*
X137592420Y-148510242D01*
X137585790Y-148507881D01*
X137578802Y-148507048D01*
X137578799Y-148507047D01*
X137455698Y-148492368D01*
X137405680Y-148486404D01*
X137398677Y-148487140D01*
X137398676Y-148487140D01*
X137232288Y-148504628D01*
X137232286Y-148504629D01*
X137225288Y-148505364D01*
X137053579Y-148563818D01*
X137047575Y-148567512D01*
X136905095Y-148655166D01*
X136905092Y-148655168D01*
X136899088Y-148658862D01*
X136894053Y-148663793D01*
X136894050Y-148663795D01*
X136774525Y-148780843D01*
X136769493Y-148785771D01*
X136671235Y-148938238D01*
X136668826Y-148944858D01*
X136668824Y-148944861D01*
X136666380Y-148951576D01*
X136609197Y-149108685D01*
X136586463Y-149288640D01*
X-655989Y-149288640D01*
X-1377554Y-146240332D01*
X-1380682Y-146219395D01*
X-1382659Y-146188640D01*
X109586463Y-146188640D01*
X109604163Y-146369160D01*
X109661418Y-146541273D01*
X109665065Y-146547295D01*
X109665066Y-146547297D01*
X109675978Y-146565314D01*
X109755380Y-146696424D01*
X109881382Y-146826902D01*
X110033159Y-146926222D01*
X110039763Y-146928678D01*
X110039765Y-146928679D01*
X110196558Y-146986990D01*
X110196560Y-146986990D01*
X110203168Y-146989448D01*
X110286995Y-147000633D01*
X110375980Y-147012507D01*
X110375984Y-147012507D01*
X110382961Y-147013438D01*
X110389972Y-147012800D01*
X110389976Y-147012800D01*
X110532459Y-146999832D01*
X110563600Y-146996998D01*
X110570302Y-146994820D01*
X110570304Y-146994820D01*
X110729409Y-146943124D01*
X110729412Y-146943123D01*
X110736108Y-146940947D01*
X110856532Y-146869160D01*
X110885860Y-146851677D01*
X110885862Y-146851676D01*
X110891912Y-146848069D01*
X111023266Y-146722982D01*
X111123643Y-146571902D01*
X111188055Y-146402338D01*
X111191779Y-146375844D01*
X111197639Y-146334145D01*
X111226927Y-146269471D01*
X111233318Y-146262586D01*
X111525499Y-145970405D01*
X111587811Y-145936379D01*
X111614594Y-145933500D01*
X136718350Y-145933500D01*
X136786471Y-145953502D01*
X136832964Y-146007158D01*
X136843068Y-146077432D01*
X136813574Y-146142012D01*
X136806508Y-146149523D01*
X136769493Y-146185771D01*
X136671235Y-146338238D01*
X136668826Y-146344858D01*
X136668824Y-146344861D01*
X136611606Y-146502066D01*
X136609197Y-146508685D01*
X136586463Y-146688640D01*
X136604163Y-146869160D01*
X136661418Y-147041273D01*
X136755380Y-147196424D01*
X136881382Y-147326902D01*
X137033159Y-147426222D01*
X137039763Y-147428678D01*
X137039765Y-147428679D01*
X137196558Y-147486990D01*
X137196560Y-147486990D01*
X137203168Y-147489448D01*
X137286995Y-147500633D01*
X137375980Y-147512507D01*
X137375984Y-147512507D01*
X137382961Y-147513438D01*
X137389972Y-147512800D01*
X137389976Y-147512800D01*
X137532459Y-147499832D01*
X137563600Y-147496998D01*
X137570302Y-147494820D01*
X137570304Y-147494820D01*
X137663105Y-147464667D01*
X137702041Y-147458500D01*
X193532930Y-147458500D01*
X193551880Y-147459933D01*
X193566115Y-147462099D01*
X193566119Y-147462099D01*
X193573349Y-147463199D01*
X193580641Y-147462606D01*
X193580644Y-147462606D01*
X193626018Y-147458915D01*
X193636233Y-147458500D01*
X193644293Y-147458500D01*
X193657583Y-147456951D01*
X193672507Y-147455211D01*
X193676882Y-147454778D01*
X193742339Y-147449454D01*
X193742342Y-147449453D01*
X193749637Y-147448860D01*
X193756601Y-147446604D01*
X193762560Y-147445413D01*
X193768415Y-147444029D01*
X193775681Y-147443182D01*
X193844327Y-147418265D01*
X193848455Y-147416848D01*
X193910936Y-147396607D01*
X193910938Y-147396606D01*
X193917899Y-147394351D01*
X193924154Y-147390555D01*
X193929628Y-147388049D01*
X193935058Y-147385330D01*
X193941937Y-147382833D01*
X194002976Y-147342814D01*
X194006680Y-147340477D01*
X194069107Y-147302595D01*
X194077484Y-147295197D01*
X194077508Y-147295224D01*
X194080500Y-147292571D01*
X194083733Y-147289868D01*
X194089852Y-147285856D01*
X194143128Y-147229617D01*
X194145506Y-147227175D01*
X205641793Y-135730888D01*
X226434652Y-135730888D01*
X226434670Y-135731141D01*
X226440584Y-135739884D01*
X226464152Y-135761329D01*
X226469779Y-135765886D01*
X226736225Y-135957346D01*
X226742355Y-135961236D01*
X227029032Y-136120799D01*
X227035552Y-136123951D01*
X227338680Y-136249510D01*
X227345531Y-136251896D01*
X227661063Y-136341778D01*
X227668152Y-136343363D01*
X227991936Y-136396385D01*
X227999142Y-136397142D01*
X228326877Y-136412597D01*
X228334127Y-136412521D01*
X228661456Y-136390207D01*
X228668665Y-136389296D01*
X228991266Y-136329505D01*
X228998296Y-136327778D01*
X229311903Y-136231300D01*
X229318680Y-136228780D01*
X229619131Y-136096891D01*
X229625566Y-136093612D01*
X229908850Y-135928075D01*
X229914899Y-135924056D01*
X230157403Y-135741979D01*
X230165857Y-135730652D01*
X230159112Y-135718322D01*
X228312812Y-133872022D01*
X228298868Y-133864408D01*
X228297035Y-133864539D01*
X228290420Y-133868790D01*
X226442266Y-135716944D01*
X226434652Y-135730888D01*
X205641793Y-135730888D01*
X207388911Y-133983770D01*
X207403323Y-133971384D01*
X207414918Y-133962851D01*
X207414923Y-133962846D01*
X207420818Y-133958508D01*
X207425557Y-133952930D01*
X207425560Y-133952927D01*
X207455035Y-133918232D01*
X207461965Y-133910716D01*
X207467660Y-133905021D01*
X207485281Y-133882749D01*
X207488072Y-133879345D01*
X207530591Y-133829297D01*
X207530592Y-133829295D01*
X207535333Y-133823715D01*
X207538661Y-133817199D01*
X207542028Y-133812150D01*
X207545195Y-133807021D01*
X207549734Y-133801284D01*
X207580655Y-133735125D01*
X207582561Y-133731225D01*
X207605816Y-133685683D01*
X207615769Y-133666192D01*
X207617508Y-133659084D01*
X207619607Y-133653441D01*
X207621524Y-133647678D01*
X207624622Y-133641050D01*
X207639487Y-133569583D01*
X207640457Y-133565299D01*
X207656473Y-133499845D01*
X207657808Y-133494390D01*
X207658500Y-133483236D01*
X207658536Y-133483238D01*
X207658775Y-133479245D01*
X207659149Y-133475053D01*
X207660640Y-133467885D01*
X207659132Y-133412134D01*
X225388604Y-133412134D01*
X225397193Y-133740123D01*
X225397799Y-133747339D01*
X225444031Y-134072176D01*
X225445460Y-134079265D01*
X225528720Y-134396632D01*
X225530960Y-134403527D01*
X225650143Y-134709214D01*
X225653158Y-134715801D01*
X225806691Y-135005776D01*
X225810437Y-135011961D01*
X225996280Y-135282364D01*
X226000722Y-135288090D01*
X226059622Y-135355607D01*
X226072795Y-135364011D01*
X226082646Y-135358144D01*
X227927978Y-133512812D01*
X227934356Y-133501132D01*
X228664408Y-133501132D01*
X228664539Y-133502965D01*
X228668790Y-133509580D01*
X230515273Y-135356063D01*
X230528627Y-135363355D01*
X230538599Y-135356301D01*
X230636228Y-135239537D01*
X230640538Y-135233734D01*
X230820683Y-134959490D01*
X230824297Y-134953228D01*
X230971725Y-134660099D01*
X230974598Y-134653461D01*
X231087355Y-134345340D01*
X231089451Y-134338399D01*
X231166044Y-134019364D01*
X231167328Y-134012225D01*
X231206844Y-133685683D01*
X231207268Y-133680113D01*
X231212840Y-133502797D01*
X231212767Y-133497204D01*
X231193832Y-133168816D01*
X231193000Y-133161626D01*
X231136589Y-132838403D01*
X231134934Y-132831348D01*
X231041750Y-132516767D01*
X231039294Y-132509942D01*
X230910568Y-132208148D01*
X230907347Y-132201659D01*
X230744778Y-131916646D01*
X230740846Y-131910591D01*
X230546590Y-131646143D01*
X230542835Y-131641604D01*
X230529417Y-131633626D01*
X230528810Y-131633647D01*
X230520330Y-131638880D01*
X228672022Y-133487188D01*
X228664408Y-133501132D01*
X227934356Y-133501132D01*
X227935592Y-133498868D01*
X227935461Y-133497035D01*
X227931210Y-133490420D01*
X226083604Y-131642814D01*
X226070811Y-131635828D01*
X226060058Y-131643691D01*
X225910288Y-131834699D01*
X225906156Y-131840644D01*
X225734720Y-132120404D01*
X225731299Y-132126783D01*
X225593152Y-132424397D01*
X225590492Y-132431116D01*
X225487468Y-132742633D01*
X225485591Y-132749637D01*
X225419056Y-133070922D01*
X225417999Y-133078082D01*
X225388832Y-133404882D01*
X225388604Y-133412134D01*
X207659132Y-133412134D01*
X207658546Y-133390479D01*
X207658500Y-133387072D01*
X207658500Y-127223239D01*
X207678502Y-127155118D01*
X207732158Y-127108625D01*
X207802432Y-127098521D01*
X207867012Y-127128015D01*
X207873595Y-127134144D01*
X210434514Y-129695063D01*
X210468540Y-129757375D01*
X210463475Y-129828190D01*
X210451334Y-129852407D01*
X210438838Y-129871797D01*
X210436427Y-129878420D01*
X210436426Y-129878423D01*
X210384966Y-130019809D01*
X210384965Y-130019814D01*
X210382556Y-130026432D01*
X210361931Y-130189694D01*
X210377989Y-130353468D01*
X210429932Y-130509615D01*
X210515179Y-130650373D01*
X210520070Y-130655438D01*
X210520071Y-130655439D01*
X210558808Y-130695552D01*
X210629491Y-130768747D01*
X210767189Y-130858854D01*
X210921428Y-130916215D01*
X210928409Y-130917146D01*
X210928411Y-130917147D01*
X211077561Y-130937048D01*
X211077565Y-130937048D01*
X211084542Y-130937979D01*
X211091553Y-130937341D01*
X211091557Y-130937341D01*
X211241403Y-130923704D01*
X211241404Y-130923704D01*
X211248424Y-130923065D01*
X211277062Y-130913760D01*
X211398230Y-130874390D01*
X211398233Y-130874389D01*
X211404929Y-130872213D01*
X211546279Y-130787951D01*
X211665449Y-130674468D01*
X211669673Y-130668111D01*
X211752614Y-130543275D01*
X211752615Y-130543273D01*
X211756515Y-130537403D01*
X211814951Y-130383568D01*
X211817495Y-130365469D01*
X219387095Y-130365469D01*
X219387392Y-130370622D01*
X219387392Y-130370625D01*
X219400129Y-130591529D01*
X219400427Y-130596697D01*
X219401564Y-130601743D01*
X219401565Y-130601749D01*
X219428098Y-130719483D01*
X219451346Y-130822642D01*
X219453288Y-130827424D01*
X219453289Y-130827428D01*
X219524972Y-131003962D01*
X219538484Y-131037237D01*
X219659501Y-131234719D01*
X219811147Y-131409784D01*
X219989349Y-131557730D01*
X220189322Y-131674584D01*
X220405694Y-131757209D01*
X220410760Y-131758240D01*
X220410761Y-131758240D01*
X220463846Y-131769040D01*
X220632656Y-131803385D01*
X220763324Y-131808176D01*
X220858949Y-131811683D01*
X220858953Y-131811683D01*
X220864113Y-131811872D01*
X220869233Y-131811216D01*
X220869235Y-131811216D01*
X220942291Y-131801857D01*
X221093847Y-131782442D01*
X221098795Y-131780957D01*
X221098802Y-131780956D01*
X221310747Y-131717369D01*
X221315690Y-131715886D01*
X221321287Y-131713144D01*
X221519049Y-131616262D01*
X221519052Y-131616260D01*
X221523684Y-131613991D01*
X221712243Y-131479494D01*
X221876303Y-131316005D01*
X221907787Y-131272191D01*
X226436274Y-131272191D01*
X226442669Y-131283459D01*
X228287188Y-133127978D01*
X228301132Y-133135592D01*
X228302965Y-133135461D01*
X228309580Y-133131210D01*
X229879384Y-131561406D01*
X234503423Y-131561406D01*
X234508704Y-131568461D01*
X234685080Y-131671527D01*
X234694363Y-131675974D01*
X234901003Y-131754883D01*
X234910901Y-131757759D01*
X235127653Y-131801857D01*
X235137883Y-131803076D01*
X235358914Y-131811182D01*
X235369223Y-131810714D01*
X235588623Y-131782608D01*
X235598688Y-131780468D01*
X235810557Y-131716905D01*
X235820152Y-131713144D01*
X236018778Y-131615838D01*
X236027636Y-131610559D01*
X236085097Y-131569572D01*
X236093497Y-131558874D01*
X236086510Y-131545721D01*
X235312811Y-130772021D01*
X235298868Y-130764408D01*
X235297034Y-130764539D01*
X235290420Y-130768790D01*
X234510180Y-131549031D01*
X234503423Y-131561406D01*
X229879384Y-131561406D01*
X230156142Y-131284648D01*
X230163534Y-131271111D01*
X230156747Y-131261411D01*
X230063919Y-131182128D01*
X230058131Y-131177735D01*
X229785809Y-130994741D01*
X229779586Y-130991061D01*
X229488015Y-130840570D01*
X229481404Y-130837627D01*
X229174482Y-130721651D01*
X229167563Y-130719483D01*
X228849350Y-130639553D01*
X228842225Y-130638194D01*
X228516942Y-130595369D01*
X228509700Y-130594838D01*
X228181661Y-130589684D01*
X228174399Y-130589988D01*
X227847926Y-130622575D01*
X227840778Y-130623707D01*
X227520201Y-130693604D01*
X227513223Y-130695552D01*
X227202808Y-130801831D01*
X227196101Y-130804568D01*
X226899964Y-130945819D01*
X226893606Y-130949314D01*
X226615681Y-131123656D01*
X226609757Y-131127865D01*
X226444743Y-131260066D01*
X226436274Y-131272191D01*
X221907787Y-131272191D01*
X222011458Y-131127917D01*
X222013879Y-131123020D01*
X222111784Y-130924922D01*
X222111785Y-130924920D01*
X222114078Y-130920280D01*
X222181408Y-130698671D01*
X222211640Y-130469041D01*
X222213327Y-130400000D01*
X222210913Y-130370638D01*
X233887893Y-130370638D01*
X233900627Y-130591468D01*
X233902061Y-130601670D01*
X233950685Y-130817439D01*
X233953773Y-130827292D01*
X234036986Y-131032220D01*
X234041634Y-131041421D01*
X234130097Y-131185781D01*
X234140553Y-131195242D01*
X234149331Y-131191458D01*
X234927979Y-130412811D01*
X234934356Y-130401132D01*
X235664408Y-130401132D01*
X235664539Y-130402966D01*
X235668790Y-130409580D01*
X236446307Y-131187096D01*
X236458313Y-131193652D01*
X236470052Y-131184684D01*
X236508010Y-131131859D01*
X236513321Y-131123020D01*
X236611318Y-130924737D01*
X236615117Y-130915142D01*
X236679415Y-130703517D01*
X236681594Y-130693436D01*
X236710702Y-130472338D01*
X236711221Y-130465663D01*
X236712744Y-130403364D01*
X236712550Y-130396646D01*
X236694279Y-130174400D01*
X236692596Y-130164238D01*
X236638710Y-129949708D01*
X236635389Y-129939953D01*
X236547193Y-129737118D01*
X236542315Y-129728020D01*
X236469224Y-129615038D01*
X236458538Y-129605835D01*
X236448973Y-129610238D01*
X235672021Y-130387189D01*
X235664408Y-130401132D01*
X234934356Y-130401132D01*
X234935592Y-130398868D01*
X234935461Y-130397034D01*
X234931210Y-130390420D01*
X234153862Y-129613073D01*
X234142330Y-129606776D01*
X234130048Y-129616399D01*
X234074467Y-129697877D01*
X234069379Y-129706833D01*
X233976252Y-129907459D01*
X233972689Y-129917146D01*
X233913581Y-130130280D01*
X233911650Y-130140400D01*
X233888145Y-130360349D01*
X233887893Y-130370638D01*
X222210913Y-130370638D01*
X222207032Y-130323434D01*
X222194773Y-130174318D01*
X222194772Y-130174312D01*
X222194349Y-130169167D01*
X222160797Y-130035592D01*
X222139184Y-129949544D01*
X222139183Y-129949540D01*
X222137925Y-129944533D01*
X222133095Y-129933424D01*
X222047630Y-129736868D01*
X222047628Y-129736865D01*
X222045570Y-129732131D01*
X221919764Y-129537665D01*
X221898818Y-129514645D01*
X221849199Y-129460115D01*
X221763887Y-129366358D01*
X221759836Y-129363159D01*
X221759832Y-129363155D01*
X221608295Y-129243479D01*
X221606332Y-129240711D01*
X234505508Y-129240711D01*
X234512251Y-129253040D01*
X235287189Y-130027979D01*
X235301132Y-130035592D01*
X235302966Y-130035461D01*
X235309580Y-130031210D01*
X236088994Y-129251795D01*
X236096011Y-129238944D01*
X236088237Y-129228274D01*
X236085902Y-129226430D01*
X236077320Y-129220729D01*
X235883678Y-129113833D01*
X235874272Y-129109606D01*
X235665772Y-129035772D01*
X235655809Y-129033140D01*
X235438047Y-128994350D01*
X235427796Y-128993381D01*
X235206616Y-128990679D01*
X235196332Y-128991399D01*
X234977693Y-129024855D01*
X234967666Y-129027244D01*
X234757426Y-129095961D01*
X234747916Y-129099958D01*
X234551725Y-129202089D01*
X234543007Y-129207578D01*
X234513961Y-129229386D01*
X234505508Y-129240711D01*
X221606332Y-129240711D01*
X221567232Y-129185562D01*
X221564000Y-129114639D01*
X221587282Y-129066788D01*
X221593496Y-129058873D01*
X221586510Y-129045721D01*
X220812811Y-128272021D01*
X220798868Y-128264408D01*
X220797034Y-128264539D01*
X220790420Y-128268790D01*
X220010180Y-129049031D01*
X220003423Y-129061405D01*
X220012016Y-129072884D01*
X220036827Y-129139404D01*
X220021736Y-129208779D01*
X219986801Y-129249154D01*
X219865790Y-129340012D01*
X219861655Y-129343117D01*
X219858083Y-129346855D01*
X219743748Y-129466500D01*
X219701639Y-129510564D01*
X219698725Y-129514836D01*
X219698724Y-129514837D01*
X219685517Y-129534198D01*
X219571119Y-129701899D01*
X219473602Y-129911981D01*
X219411707Y-130135169D01*
X219387095Y-130365469D01*
X211817495Y-130365469D01*
X211833235Y-130253468D01*
X211837302Y-130224534D01*
X211837303Y-130224527D01*
X211837853Y-130220610D01*
X211838141Y-130200000D01*
X211819798Y-130036466D01*
X211813998Y-130019809D01*
X211778246Y-129917146D01*
X211765680Y-129881060D01*
X211727646Y-129820193D01*
X211708500Y-129753423D01*
X211708500Y-129548136D01*
X211709578Y-129531690D01*
X211712672Y-129508188D01*
X211713750Y-129500000D01*
X211708500Y-129460122D01*
X211708500Y-129460115D01*
X211692838Y-129341150D01*
X211631524Y-129193125D01*
X211568412Y-129110876D01*
X211558477Y-129097928D01*
X211558474Y-129097925D01*
X211533987Y-129066013D01*
X211524682Y-129058873D01*
X211508621Y-129046548D01*
X211496230Y-129035681D01*
X210331187Y-127870638D01*
X219387893Y-127870638D01*
X219400627Y-128091468D01*
X219402061Y-128101670D01*
X219450685Y-128317439D01*
X219453773Y-128327292D01*
X219536986Y-128532220D01*
X219541634Y-128541421D01*
X219630097Y-128685781D01*
X219640553Y-128695242D01*
X219649331Y-128691458D01*
X220427979Y-127912811D01*
X220434356Y-127901132D01*
X221164408Y-127901132D01*
X221164539Y-127902966D01*
X221168790Y-127909580D01*
X221946307Y-128687096D01*
X221958313Y-128693652D01*
X221970052Y-128684684D01*
X222008010Y-128631859D01*
X222013321Y-128623020D01*
X222111318Y-128424737D01*
X222115117Y-128415142D01*
X222179415Y-128203517D01*
X222181594Y-128193436D01*
X222210702Y-127972338D01*
X222211221Y-127965663D01*
X222212744Y-127903364D01*
X222212550Y-127896646D01*
X222194279Y-127674400D01*
X222192596Y-127664238D01*
X222138710Y-127449708D01*
X222135389Y-127439953D01*
X222047193Y-127237118D01*
X222042315Y-127228020D01*
X221969224Y-127115038D01*
X221958538Y-127105835D01*
X221948973Y-127110238D01*
X221172021Y-127887189D01*
X221164408Y-127901132D01*
X220434356Y-127901132D01*
X220435592Y-127898868D01*
X220435461Y-127897034D01*
X220431210Y-127890420D01*
X219653862Y-127113073D01*
X219642330Y-127106776D01*
X219630048Y-127116399D01*
X219574467Y-127197877D01*
X219569379Y-127206833D01*
X219476252Y-127407459D01*
X219472689Y-127417146D01*
X219413581Y-127630280D01*
X219411650Y-127640400D01*
X219388145Y-127860349D01*
X219387893Y-127870638D01*
X210331187Y-127870638D01*
X207826018Y-125365469D01*
X219387095Y-125365469D01*
X219387392Y-125370622D01*
X219387392Y-125370625D01*
X219398435Y-125562151D01*
X219400427Y-125596697D01*
X219401564Y-125601743D01*
X219401565Y-125601749D01*
X219431503Y-125734590D01*
X219451346Y-125822642D01*
X219453288Y-125827424D01*
X219453289Y-125827428D01*
X219509563Y-125966013D01*
X219538484Y-126037237D01*
X219659501Y-126234719D01*
X219811147Y-126409784D01*
X219978671Y-126548865D01*
X219989349Y-126557730D01*
X219988250Y-126559053D01*
X220027845Y-126608576D01*
X220035162Y-126679195D01*
X220012226Y-126731711D01*
X220005508Y-126740712D01*
X220012251Y-126753040D01*
X220787189Y-127527979D01*
X220801132Y-127535592D01*
X220802966Y-127535461D01*
X220809580Y-127531210D01*
X221588994Y-126751795D01*
X221596011Y-126738944D01*
X221586320Y-126725643D01*
X221562371Y-126658808D01*
X221578358Y-126589634D01*
X221614988Y-126548865D01*
X221628137Y-126539486D01*
X221712243Y-126479494D01*
X221876303Y-126316005D01*
X222011458Y-126127917D01*
X222014204Y-126122362D01*
X222111784Y-125924922D01*
X222111785Y-125924920D01*
X222114078Y-125920280D01*
X222181408Y-125698671D01*
X222211640Y-125469041D01*
X222213327Y-125400000D01*
X222203599Y-125281678D01*
X222194773Y-125174318D01*
X222194772Y-125174312D01*
X222194349Y-125169167D01*
X222137925Y-124944533D01*
X222135866Y-124939797D01*
X222047630Y-124736868D01*
X222047628Y-124736865D01*
X222045570Y-124732131D01*
X221919764Y-124537665D01*
X221916095Y-124533632D01*
X221870134Y-124483122D01*
X221763887Y-124366358D01*
X221759836Y-124363159D01*
X221759832Y-124363155D01*
X221586177Y-124226011D01*
X221586172Y-124226008D01*
X221582123Y-124222810D01*
X221577607Y-124220317D01*
X221577604Y-124220315D01*
X221383879Y-124113373D01*
X221383875Y-124113371D01*
X221379355Y-124110876D01*
X221374486Y-124109152D01*
X221374482Y-124109150D01*
X221165903Y-124035288D01*
X221165899Y-124035287D01*
X221161028Y-124033562D01*
X221155935Y-124032655D01*
X221155932Y-124032654D01*
X220938095Y-123993851D01*
X220938089Y-123993850D01*
X220933006Y-123992945D01*
X220860096Y-123992054D01*
X220706581Y-123990179D01*
X220706579Y-123990179D01*
X220701411Y-123990116D01*
X220472464Y-124025150D01*
X220252314Y-124097106D01*
X220247726Y-124099494D01*
X220247722Y-124099496D01*
X220054656Y-124200000D01*
X220046872Y-124204052D01*
X220042739Y-124207155D01*
X220042736Y-124207157D01*
X219865790Y-124340012D01*
X219861655Y-124343117D01*
X219701639Y-124510564D01*
X219698725Y-124514836D01*
X219698724Y-124514837D01*
X219683331Y-124537403D01*
X219571119Y-124701899D01*
X219473602Y-124911981D01*
X219411707Y-125135169D01*
X219387095Y-125365469D01*
X207826018Y-125365469D01*
X207184144Y-124723595D01*
X207150118Y-124661283D01*
X207155183Y-124590468D01*
X207197730Y-124533632D01*
X207264250Y-124508821D01*
X207273239Y-124508500D01*
X210458259Y-124508500D01*
X210526380Y-124528502D01*
X210566034Y-124569228D01*
X210611526Y-124644344D01*
X210611534Y-124644354D01*
X210615179Y-124650373D01*
X210620070Y-124655438D01*
X210620071Y-124655439D01*
X210632778Y-124668597D01*
X210729491Y-124768747D01*
X210867189Y-124858854D01*
X211021428Y-124916215D01*
X211028409Y-124917146D01*
X211028411Y-124917147D01*
X211177561Y-124937048D01*
X211177565Y-124937048D01*
X211184542Y-124937979D01*
X211191553Y-124937341D01*
X211191557Y-124937341D01*
X211341403Y-124923704D01*
X211341404Y-124923704D01*
X211348424Y-124923065D01*
X211428979Y-124896891D01*
X211498230Y-124874390D01*
X211498233Y-124874389D01*
X211504929Y-124872213D01*
X211646279Y-124787951D01*
X211765449Y-124674468D01*
X211781458Y-124650373D01*
X211852614Y-124543275D01*
X211852615Y-124543273D01*
X211856515Y-124537403D01*
X211914951Y-124383568D01*
X211937853Y-124220610D01*
X211938041Y-124207157D01*
X211938086Y-124203962D01*
X211938086Y-124203956D01*
X211938141Y-124200000D01*
X211919798Y-124036466D01*
X211916193Y-124026112D01*
X211879879Y-123921834D01*
X211865680Y-123881060D01*
X211858732Y-123869940D01*
X211782209Y-123747479D01*
X211778476Y-123741505D01*
X211662522Y-123624739D01*
X211664360Y-123622914D01*
X211630614Y-123574435D01*
X211627994Y-123503486D01*
X211664148Y-123442385D01*
X211727597Y-123410529D01*
X211750118Y-123408500D01*
X222295761Y-123408500D01*
X222363882Y-123428502D01*
X222384856Y-123445405D01*
X225535685Y-126596234D01*
X225546552Y-126608625D01*
X225566013Y-126633987D01*
X225572563Y-126639013D01*
X225597925Y-126658474D01*
X225597928Y-126658477D01*
X225685460Y-126725643D01*
X225693124Y-126731524D01*
X225841149Y-126792838D01*
X225849336Y-126793916D01*
X225849337Y-126793916D01*
X225860542Y-126795391D01*
X225891738Y-126799498D01*
X225960115Y-126808500D01*
X225960118Y-126808500D01*
X225960126Y-126808501D01*
X225991811Y-126812672D01*
X226000000Y-126813750D01*
X226031693Y-126809578D01*
X226048136Y-126808500D01*
X234451864Y-126808500D01*
X234468307Y-126809578D01*
X234500000Y-126813750D01*
X234508189Y-126812672D01*
X234539874Y-126808501D01*
X234539884Y-126808500D01*
X234539885Y-126808500D01*
X234539901Y-126808498D01*
X234639457Y-126795391D01*
X234650664Y-126793916D01*
X234650666Y-126793915D01*
X234658851Y-126792838D01*
X234775690Y-126744442D01*
X234846277Y-126736853D01*
X234868855Y-126743141D01*
X234872261Y-126744442D01*
X234900861Y-126755364D01*
X234900867Y-126755366D01*
X234905694Y-126757209D01*
X234910760Y-126758240D01*
X234910761Y-126758240D01*
X234963846Y-126769040D01*
X235132656Y-126803385D01*
X235263324Y-126808176D01*
X235358949Y-126811683D01*
X235358953Y-126811683D01*
X235364113Y-126811872D01*
X235369233Y-126811216D01*
X235369235Y-126811216D01*
X235442270Y-126801860D01*
X235593847Y-126782442D01*
X235598795Y-126780957D01*
X235598802Y-126780956D01*
X235810747Y-126717369D01*
X235815690Y-126715886D01*
X235890586Y-126679195D01*
X236019049Y-126616262D01*
X236019052Y-126616260D01*
X236023684Y-126613991D01*
X236212243Y-126479494D01*
X236376303Y-126316005D01*
X236511458Y-126127917D01*
X236514204Y-126122362D01*
X236611784Y-125924922D01*
X236611785Y-125924920D01*
X236614078Y-125920280D01*
X236681408Y-125698671D01*
X236711640Y-125469041D01*
X236713327Y-125400000D01*
X236703599Y-125281678D01*
X236694773Y-125174318D01*
X236694772Y-125174312D01*
X236694349Y-125169167D01*
X236637925Y-124944533D01*
X236635866Y-124939797D01*
X236547630Y-124736868D01*
X236547628Y-124736865D01*
X236545570Y-124732131D01*
X236419764Y-124537665D01*
X236416095Y-124533632D01*
X236370134Y-124483122D01*
X236263887Y-124366358D01*
X236259836Y-124363159D01*
X236259832Y-124363155D01*
X236086177Y-124226011D01*
X236086172Y-124226008D01*
X236082123Y-124222810D01*
X236077607Y-124220317D01*
X236077604Y-124220315D01*
X235883879Y-124113373D01*
X235883875Y-124113371D01*
X235879355Y-124110876D01*
X235874486Y-124109152D01*
X235874482Y-124109150D01*
X235665903Y-124035288D01*
X235665899Y-124035287D01*
X235661028Y-124033562D01*
X235655935Y-124032655D01*
X235655932Y-124032654D01*
X235438095Y-123993851D01*
X235438089Y-123993850D01*
X235433006Y-123992945D01*
X235360096Y-123992054D01*
X235206581Y-123990179D01*
X235206579Y-123990179D01*
X235201411Y-123990116D01*
X234972464Y-124025150D01*
X234752314Y-124097106D01*
X234747726Y-124099494D01*
X234747722Y-124099496D01*
X234554656Y-124200000D01*
X234546872Y-124204052D01*
X234542739Y-124207155D01*
X234542736Y-124207157D01*
X234365790Y-124340012D01*
X234361655Y-124343117D01*
X234201639Y-124510564D01*
X234198725Y-124514836D01*
X234198724Y-124514837D01*
X234183331Y-124537403D01*
X234071119Y-124701899D01*
X233973602Y-124911981D01*
X233911707Y-125135169D01*
X233887095Y-125365469D01*
X233887392Y-125370622D01*
X233887392Y-125370626D01*
X233892444Y-125458248D01*
X233876396Y-125527407D01*
X233825505Y-125576911D01*
X233766653Y-125591500D01*
X226304239Y-125591500D01*
X226236118Y-125571498D01*
X226215144Y-125554595D01*
X225191437Y-124530888D01*
X226434652Y-124530888D01*
X226434670Y-124531141D01*
X226440584Y-124539884D01*
X226464152Y-124561329D01*
X226469779Y-124565886D01*
X226736225Y-124757346D01*
X226742355Y-124761236D01*
X227029032Y-124920799D01*
X227035552Y-124923951D01*
X227338680Y-125049510D01*
X227345531Y-125051896D01*
X227661063Y-125141778D01*
X227668152Y-125143363D01*
X227991936Y-125196385D01*
X227999142Y-125197142D01*
X228326877Y-125212597D01*
X228334127Y-125212521D01*
X228661456Y-125190207D01*
X228668665Y-125189296D01*
X228991266Y-125129505D01*
X228998296Y-125127778D01*
X229311903Y-125031300D01*
X229318680Y-125028780D01*
X229619131Y-124896891D01*
X229625566Y-124893612D01*
X229908850Y-124728075D01*
X229914899Y-124724056D01*
X230157403Y-124541979D01*
X230165857Y-124530652D01*
X230159112Y-124518322D01*
X228312812Y-122672022D01*
X228298868Y-122664408D01*
X228297035Y-122664539D01*
X228290420Y-122668790D01*
X226442266Y-124516944D01*
X226434652Y-124530888D01*
X225191437Y-124530888D01*
X223064315Y-122403766D01*
X223053448Y-122391375D01*
X223039013Y-122372563D01*
X223033987Y-122366013D01*
X223002075Y-122341526D01*
X223002069Y-122341520D01*
X222913429Y-122273504D01*
X222913427Y-122273503D01*
X222906876Y-122268476D01*
X222770854Y-122212134D01*
X225388604Y-122212134D01*
X225397193Y-122540123D01*
X225397799Y-122547339D01*
X225444031Y-122872176D01*
X225445460Y-122879265D01*
X225528720Y-123196632D01*
X225530960Y-123203527D01*
X225650143Y-123509214D01*
X225653158Y-123515801D01*
X225806691Y-123805776D01*
X225810437Y-123811961D01*
X225996280Y-124082364D01*
X226000722Y-124088090D01*
X226059622Y-124155607D01*
X226072795Y-124164011D01*
X226082646Y-124158144D01*
X227927978Y-122312812D01*
X227934356Y-122301132D01*
X228664408Y-122301132D01*
X228664539Y-122302965D01*
X228668790Y-122309580D01*
X230515273Y-124156063D01*
X230528627Y-124163355D01*
X230538599Y-124156301D01*
X230636228Y-124039537D01*
X230640538Y-124033734D01*
X230820683Y-123759490D01*
X230824297Y-123753228D01*
X230971725Y-123460099D01*
X230974598Y-123453461D01*
X231087355Y-123145340D01*
X231089451Y-123138399D01*
X231166044Y-122819364D01*
X231167328Y-122812225D01*
X231206844Y-122485683D01*
X231207268Y-122480113D01*
X231212840Y-122302797D01*
X231212767Y-122297204D01*
X231193832Y-121968816D01*
X231193000Y-121961626D01*
X231136589Y-121638403D01*
X231134934Y-121631348D01*
X231041750Y-121316767D01*
X231039294Y-121309942D01*
X230910568Y-121008148D01*
X230907347Y-121001659D01*
X230744778Y-120716646D01*
X230740846Y-120710591D01*
X230546590Y-120446143D01*
X230542835Y-120441604D01*
X230529417Y-120433626D01*
X230528810Y-120433647D01*
X230520330Y-120438880D01*
X228672022Y-122287188D01*
X228664408Y-122301132D01*
X227934356Y-122301132D01*
X227935592Y-122298868D01*
X227935461Y-122297035D01*
X227931210Y-122290420D01*
X226083604Y-120442814D01*
X226070811Y-120435828D01*
X226060058Y-120443691D01*
X225910288Y-120634699D01*
X225906156Y-120640644D01*
X225734720Y-120920404D01*
X225731299Y-120926783D01*
X225593152Y-121224397D01*
X225590492Y-121231116D01*
X225487468Y-121542633D01*
X225485591Y-121549637D01*
X225419056Y-121870922D01*
X225417999Y-121878082D01*
X225388832Y-122204882D01*
X225388604Y-122212134D01*
X222770854Y-122212134D01*
X222758851Y-122207162D01*
X222750664Y-122206084D01*
X222750663Y-122206084D01*
X222739458Y-122204609D01*
X222708262Y-122200502D01*
X222639885Y-122191500D01*
X222639882Y-122191500D01*
X222639874Y-122191499D01*
X222608189Y-122187328D01*
X222600000Y-122186250D01*
X222568307Y-122190422D01*
X222551864Y-122191500D01*
X197548136Y-122191500D01*
X197531693Y-122190422D01*
X197500000Y-122186250D01*
X197491811Y-122187328D01*
X197460126Y-122191499D01*
X197460117Y-122191500D01*
X197460115Y-122191500D01*
X197460109Y-122191501D01*
X197460107Y-122191501D01*
X197360543Y-122204609D01*
X197349336Y-122206084D01*
X197349334Y-122206085D01*
X197341149Y-122207162D01*
X197193124Y-122268476D01*
X197155685Y-122297204D01*
X197097937Y-122341515D01*
X197097921Y-122341529D01*
X197072566Y-122360984D01*
X197072563Y-122360987D01*
X197066013Y-122366013D01*
X197060983Y-122372568D01*
X197046548Y-122391379D01*
X197035681Y-122403770D01*
X193684856Y-125754595D01*
X193622544Y-125788621D01*
X193595761Y-125791500D01*
X140348136Y-125791500D01*
X140331693Y-125790422D01*
X140300000Y-125786250D01*
X140291811Y-125787328D01*
X140260126Y-125791499D01*
X140260117Y-125791500D01*
X140260115Y-125791500D01*
X140260109Y-125791501D01*
X140260107Y-125791501D01*
X140160543Y-125804609D01*
X140149336Y-125806084D01*
X140149334Y-125806085D01*
X140141149Y-125807162D01*
X140103777Y-125822642D01*
X140000752Y-125865316D01*
X140000750Y-125865317D01*
X139993124Y-125868476D01*
X139925613Y-125920280D01*
X139866013Y-125966013D01*
X139860987Y-125972563D01*
X139860984Y-125972566D01*
X139846548Y-125991380D01*
X139835681Y-126003771D01*
X137690717Y-128148734D01*
X137640519Y-128176210D01*
X137641495Y-128179078D01*
X137492382Y-128229840D01*
X137492379Y-128229841D01*
X137485715Y-128232110D01*
X137345555Y-128318337D01*
X137227982Y-128433473D01*
X137138838Y-128571797D01*
X137136427Y-128578420D01*
X137136426Y-128578423D01*
X137084966Y-128719809D01*
X137084965Y-128719814D01*
X137082556Y-128726432D01*
X137061931Y-128889694D01*
X137077989Y-129053468D01*
X137129932Y-129209615D01*
X137133581Y-129215640D01*
X137210785Y-129343117D01*
X137215179Y-129350373D01*
X137220070Y-129355438D01*
X137220071Y-129355439D01*
X137227522Y-129363155D01*
X137329491Y-129468747D01*
X137467189Y-129558854D01*
X137621428Y-129616215D01*
X137628409Y-129617146D01*
X137628411Y-129617147D01*
X137777561Y-129637048D01*
X137777565Y-129637048D01*
X137784542Y-129637979D01*
X137791553Y-129637341D01*
X137791557Y-129637341D01*
X137941403Y-129623704D01*
X137941404Y-129623704D01*
X137948424Y-129623065D01*
X138001452Y-129605835D01*
X138098230Y-129574390D01*
X138098233Y-129574389D01*
X138104929Y-129572213D01*
X138246279Y-129487951D01*
X138365449Y-129374468D01*
X138369350Y-129368597D01*
X138452614Y-129243275D01*
X138452615Y-129243273D01*
X138456515Y-129237403D01*
X138514951Y-129083568D01*
X138515931Y-129076592D01*
X138517684Y-129069767D01*
X138520153Y-129070401D01*
X138544588Y-129016454D01*
X138550972Y-129009577D01*
X140515143Y-127045405D01*
X140577455Y-127011380D01*
X140604238Y-127008500D01*
X193026761Y-127008500D01*
X193094882Y-127028502D01*
X193141375Y-127082158D01*
X193151479Y-127152432D01*
X193121985Y-127217012D01*
X193115856Y-127223595D01*
X184010336Y-136329115D01*
X183948024Y-136363141D01*
X183921241Y-136366020D01*
X159104785Y-136366020D01*
X159036664Y-136346018D01*
X158990171Y-136292362D01*
X158980067Y-136222088D01*
X159009561Y-136157508D01*
X159015690Y-136150925D01*
X163471047Y-131695568D01*
X163504638Y-131672308D01*
X163504929Y-131672213D01*
X163510975Y-131668609D01*
X163510979Y-131668607D01*
X163640233Y-131591555D01*
X163646279Y-131587951D01*
X163765449Y-131474468D01*
X163769350Y-131468597D01*
X163852614Y-131343275D01*
X163852615Y-131343273D01*
X163856515Y-131337403D01*
X163914951Y-131183568D01*
X163923507Y-131122689D01*
X163937302Y-131024534D01*
X163937303Y-131024527D01*
X163937853Y-131020610D01*
X163938141Y-131000000D01*
X163919798Y-130836466D01*
X163913071Y-130817147D01*
X163888059Y-130745325D01*
X163865680Y-130681060D01*
X163861947Y-130675085D01*
X163861944Y-130675080D01*
X163857589Y-130668111D01*
X163838450Y-130599743D01*
X163852374Y-130543742D01*
X163852615Y-130543273D01*
X163856515Y-130537403D01*
X163914951Y-130383568D01*
X163933235Y-130253468D01*
X163937302Y-130224534D01*
X163937303Y-130224527D01*
X163937853Y-130220610D01*
X163938141Y-130200000D01*
X163919798Y-130036466D01*
X163913998Y-130019809D01*
X163878246Y-129917146D01*
X163865680Y-129881060D01*
X163778476Y-129741505D01*
X163720499Y-129683122D01*
X163667486Y-129629737D01*
X163667482Y-129629734D01*
X163662522Y-129624739D01*
X163523580Y-129536563D01*
X163462027Y-129514645D01*
X163375189Y-129483723D01*
X163375187Y-129483722D01*
X163368555Y-129481361D01*
X163361569Y-129480528D01*
X163361565Y-129480527D01*
X163243924Y-129466500D01*
X163205153Y-129461877D01*
X163170864Y-129465481D01*
X163137982Y-129464619D01*
X163127888Y-129463020D01*
X163127886Y-129463020D01*
X163120057Y-129461780D01*
X163112165Y-129462526D01*
X163076039Y-129465941D01*
X163064181Y-129466500D01*
X158407359Y-129466500D01*
X158339848Y-129446887D01*
X158323580Y-129436563D01*
X158274447Y-129419068D01*
X158175189Y-129383723D01*
X158175187Y-129383722D01*
X158168555Y-129381361D01*
X158161569Y-129380528D01*
X158161565Y-129380527D01*
X158042733Y-129366358D01*
X158005153Y-129361877D01*
X157998150Y-129362613D01*
X157998149Y-129362613D01*
X157962519Y-129366358D01*
X157841495Y-129379078D01*
X157834827Y-129381348D01*
X157692382Y-129429840D01*
X157692379Y-129429841D01*
X157685715Y-129432110D01*
X157545555Y-129518337D01*
X157494221Y-129568607D01*
X157444654Y-129617147D01*
X157427982Y-129633473D01*
X157338838Y-129771797D01*
X157336427Y-129778420D01*
X157336426Y-129778423D01*
X157284966Y-129919809D01*
X157284965Y-129919814D01*
X157282556Y-129926432D01*
X157261931Y-130089694D01*
X157277989Y-130253468D01*
X157329932Y-130409615D01*
X157333581Y-130415640D01*
X157403335Y-130530816D01*
X157415179Y-130550373D01*
X157529491Y-130668747D01*
X157667189Y-130758854D01*
X157821428Y-130816215D01*
X157828409Y-130817146D01*
X157828411Y-130817147D01*
X157977561Y-130837048D01*
X157977565Y-130837048D01*
X157984542Y-130837979D01*
X157991553Y-130837341D01*
X157991557Y-130837341D01*
X158141403Y-130823704D01*
X158141404Y-130823704D01*
X158148424Y-130823065D01*
X158177062Y-130813760D01*
X158298230Y-130774390D01*
X158298233Y-130774389D01*
X158304929Y-130772213D01*
X158340059Y-130751271D01*
X158404577Y-130733500D01*
X160795695Y-130733500D01*
X160863816Y-130753502D01*
X160910309Y-130807158D01*
X160920413Y-130877432D01*
X160890919Y-130942012D01*
X160884790Y-130948595D01*
X158553790Y-133279595D01*
X158491478Y-133313621D01*
X158464695Y-133316500D01*
X138289000Y-133316500D01*
X138246733Y-133309199D01*
X138175189Y-133283723D01*
X138175187Y-133283723D01*
X138168555Y-133281361D01*
X138161569Y-133280528D01*
X138161565Y-133280527D01*
X138047071Y-133266875D01*
X138005153Y-133261877D01*
X137998150Y-133262613D01*
X137998149Y-133262613D01*
X137954935Y-133267155D01*
X137841495Y-133279078D01*
X137834827Y-133281348D01*
X137692382Y-133329840D01*
X137692379Y-133329841D01*
X137685715Y-133332110D01*
X137545555Y-133418337D01*
X137540522Y-133423266D01*
X137461008Y-133501132D01*
X137427982Y-133533473D01*
X137338838Y-133671797D01*
X137336427Y-133678420D01*
X137336426Y-133678423D01*
X137284966Y-133819809D01*
X137284965Y-133819814D01*
X137282556Y-133826432D01*
X137261931Y-133989694D01*
X137277989Y-134153468D01*
X137329932Y-134309615D01*
X137415179Y-134450373D01*
X137529491Y-134568747D01*
X137667189Y-134658854D01*
X137821428Y-134716215D01*
X137828409Y-134717146D01*
X137828411Y-134717147D01*
X137977561Y-134737048D01*
X137977565Y-134737048D01*
X137984542Y-134737979D01*
X137991553Y-134737341D01*
X137991557Y-134737341D01*
X138141406Y-134723704D01*
X138141409Y-134723703D01*
X138148424Y-134723065D01*
X138251211Y-134689667D01*
X138290148Y-134683500D01*
X158245695Y-134683500D01*
X158313816Y-134703502D01*
X158360309Y-134757158D01*
X158370413Y-134827432D01*
X158340919Y-134892012D01*
X158334790Y-134898595D01*
X157453790Y-135779595D01*
X157391478Y-135813621D01*
X157364695Y-135816500D01*
X138489000Y-135816500D01*
X138446733Y-135809199D01*
X138375189Y-135783723D01*
X138375187Y-135783723D01*
X138368555Y-135781361D01*
X138361569Y-135780528D01*
X138361565Y-135780527D01*
X138238774Y-135765886D01*
X138205153Y-135761877D01*
X138198150Y-135762613D01*
X138198149Y-135762613D01*
X138154935Y-135767155D01*
X138041495Y-135779078D01*
X138034827Y-135781348D01*
X137892382Y-135829840D01*
X137892379Y-135829841D01*
X137885715Y-135832110D01*
X137745555Y-135918337D01*
X137627982Y-136033473D01*
X137538838Y-136171797D01*
X137536427Y-136178420D01*
X137536426Y-136178423D01*
X137484966Y-136319809D01*
X137484965Y-136319814D01*
X137482556Y-136326432D01*
X137461931Y-136489694D01*
X137477989Y-136653468D01*
X137529932Y-136809615D01*
X137615179Y-136950373D01*
X137729491Y-137068747D01*
X137867189Y-137158854D01*
X138021428Y-137216215D01*
X138028409Y-137217146D01*
X138028411Y-137217147D01*
X138177561Y-137237048D01*
X138177565Y-137237048D01*
X138184542Y-137237979D01*
X138191553Y-137237341D01*
X138191557Y-137237341D01*
X138341406Y-137223704D01*
X138341409Y-137223703D01*
X138348424Y-137223065D01*
X138451211Y-137189667D01*
X138490148Y-137183500D01*
X139051761Y-137183500D01*
X139119882Y-137203502D01*
X139166375Y-137257158D01*
X139176479Y-137327432D01*
X139146985Y-137392012D01*
X139140856Y-137398595D01*
X138290717Y-138248734D01*
X138240519Y-138276210D01*
X138241495Y-138279078D01*
X138092382Y-138329840D01*
X138092379Y-138329841D01*
X138085715Y-138332110D01*
X137945555Y-138418337D01*
X137827982Y-138533473D01*
X137738838Y-138671797D01*
X137736427Y-138678420D01*
X137736426Y-138678423D01*
X137684966Y-138819809D01*
X137684965Y-138819814D01*
X137682556Y-138826432D01*
X137661931Y-138989694D01*
X137677989Y-139153468D01*
X137729932Y-139309615D01*
X137815179Y-139450373D01*
X137929491Y-139568747D01*
X138067189Y-139658854D01*
X138221428Y-139716215D01*
X138228409Y-139717146D01*
X138228411Y-139717147D01*
X138377561Y-139737048D01*
X138377565Y-139737048D01*
X138384542Y-139737979D01*
X138391553Y-139737341D01*
X138391557Y-139737341D01*
X138541403Y-139723704D01*
X138541404Y-139723704D01*
X138548424Y-139723065D01*
X138577062Y-139713760D01*
X138698230Y-139674390D01*
X138698233Y-139674389D01*
X138704929Y-139672213D01*
X138846279Y-139587951D01*
X138965449Y-139474468D01*
X138978092Y-139455439D01*
X139052614Y-139343275D01*
X139052615Y-139343273D01*
X139056515Y-139337403D01*
X139114951Y-139183568D01*
X139115931Y-139176592D01*
X139117684Y-139169767D01*
X139120153Y-139170401D01*
X139144588Y-139116454D01*
X139150972Y-139109577D01*
X140640624Y-137619925D01*
X140702936Y-137585899D01*
X140729719Y-137583020D01*
X184177344Y-137583020D01*
X184193787Y-137584098D01*
X184225480Y-137588270D01*
X184233669Y-137587192D01*
X184265354Y-137583021D01*
X184265364Y-137583020D01*
X184265365Y-137583020D01*
X184364937Y-137569911D01*
X184376144Y-137568436D01*
X184376146Y-137568435D01*
X184384331Y-137567358D01*
X184532356Y-137506044D01*
X184627552Y-137432997D01*
X184627555Y-137432994D01*
X184659467Y-137408507D01*
X184678938Y-137383133D01*
X184689796Y-137370753D01*
X197515144Y-124545405D01*
X197577456Y-124511379D01*
X197604239Y-124508500D01*
X198991767Y-124508500D01*
X199059888Y-124528502D01*
X199106381Y-124582158D01*
X199116485Y-124652432D01*
X199086991Y-124717012D01*
X199080862Y-124723595D01*
X182849862Y-140954595D01*
X182787550Y-140988621D01*
X182760767Y-140991500D01*
X138846753Y-140991500D01*
X138779238Y-140971885D01*
X138723580Y-140936563D01*
X138674447Y-140919068D01*
X138575189Y-140883723D01*
X138575187Y-140883722D01*
X138568555Y-140881361D01*
X138561569Y-140880528D01*
X138561565Y-140880527D01*
X138447071Y-140866875D01*
X138405153Y-140861877D01*
X138398150Y-140862613D01*
X138398149Y-140862613D01*
X138354935Y-140867155D01*
X138241495Y-140879078D01*
X138234827Y-140881348D01*
X138092382Y-140929840D01*
X138092379Y-140929841D01*
X138085715Y-140932110D01*
X137945555Y-141018337D01*
X137827982Y-141133473D01*
X137738838Y-141271797D01*
X137736427Y-141278420D01*
X137736426Y-141278423D01*
X137684966Y-141419809D01*
X137684965Y-141419814D01*
X137682556Y-141426432D01*
X137661931Y-141589694D01*
X137677989Y-141753468D01*
X137729932Y-141909615D01*
X137815179Y-142050373D01*
X137820070Y-142055438D01*
X137820071Y-142055439D01*
X137886561Y-142124291D01*
X137929491Y-142168747D01*
X138067189Y-142258854D01*
X138221428Y-142316215D01*
X138228409Y-142317146D01*
X138228411Y-142317147D01*
X138377561Y-142337048D01*
X138377565Y-142337048D01*
X138384542Y-142337979D01*
X138391553Y-142337341D01*
X138391557Y-142337341D01*
X138541403Y-142323704D01*
X138541404Y-142323704D01*
X138548424Y-142323065D01*
X138651335Y-142289627D01*
X138698230Y-142274390D01*
X138698233Y-142274389D01*
X138704929Y-142272213D01*
X138781997Y-142226271D01*
X138846515Y-142208500D01*
X183016870Y-142208500D01*
X183033313Y-142209578D01*
X183065006Y-142213750D01*
X183073195Y-142212672D01*
X183104880Y-142208501D01*
X183104890Y-142208500D01*
X183104891Y-142208500D01*
X183204463Y-142195391D01*
X183215670Y-142193916D01*
X183215672Y-142193915D01*
X183223857Y-142192838D01*
X183371882Y-142131524D01*
X183448797Y-142072505D01*
X183467078Y-142058477D01*
X183467081Y-142058474D01*
X183477638Y-142050373D01*
X183498993Y-142033987D01*
X183504023Y-142027432D01*
X183518458Y-142008621D01*
X183529325Y-141996230D01*
X200280630Y-125244925D01*
X200342942Y-125210899D01*
X200369725Y-125208020D01*
X204866362Y-125208020D01*
X204934483Y-125228022D01*
X204980976Y-125281678D01*
X204991368Y-125349812D01*
X204986463Y-125388640D01*
X205004163Y-125569160D01*
X205061418Y-125741273D01*
X205065065Y-125747295D01*
X205065066Y-125747297D01*
X205100669Y-125806084D01*
X205155380Y-125896424D01*
X205160269Y-125901487D01*
X205160270Y-125901488D01*
X205182900Y-125924922D01*
X205281382Y-126026902D01*
X205433159Y-126126222D01*
X205439763Y-126128678D01*
X205439865Y-126128716D01*
X205439964Y-126128780D01*
X205446052Y-126131855D01*
X205445734Y-126132484D01*
X205485037Y-126157718D01*
X206104595Y-126777276D01*
X206138621Y-126839588D01*
X206141500Y-126866371D01*
X206141500Y-133033629D01*
X206121498Y-133101750D01*
X206104595Y-133122724D01*
X193322724Y-145904595D01*
X193260412Y-145938621D01*
X193233629Y-145941500D01*
X188679511Y-145941500D01*
X188611390Y-145921498D01*
X188564897Y-145867842D01*
X188554793Y-145797568D01*
X188574562Y-145745776D01*
X188623643Y-145671902D01*
X188688055Y-145502338D01*
X188689035Y-145495366D01*
X188712748Y-145326639D01*
X188712748Y-145326636D01*
X188713299Y-145322717D01*
X188713616Y-145300000D01*
X188693397Y-145119745D01*
X188633745Y-144948448D01*
X188555122Y-144822624D01*
X188541359Y-144800598D01*
X188537626Y-144794624D01*
X188509625Y-144766427D01*
X188414778Y-144670915D01*
X188414774Y-144670912D01*
X188409815Y-144665918D01*
X188398697Y-144658862D01*
X188350538Y-144628300D01*
X188256666Y-144568727D01*
X188227463Y-144558328D01*
X188092425Y-144510243D01*
X188092420Y-144510242D01*
X188085790Y-144507881D01*
X188078802Y-144507048D01*
X188078799Y-144507047D01*
X187955698Y-144492368D01*
X187905680Y-144486404D01*
X187898677Y-144487140D01*
X187898676Y-144487140D01*
X187732288Y-144504628D01*
X187732286Y-144504629D01*
X187725288Y-144505364D01*
X187553579Y-144563818D01*
X187417039Y-144647819D01*
X187351019Y-144666500D01*
X111378767Y-144666500D01*
X111367584Y-144665973D01*
X111360091Y-144664298D01*
X111352165Y-144664547D01*
X111352164Y-144664547D01*
X111292014Y-144666438D01*
X111288055Y-144666500D01*
X111260144Y-144666500D01*
X111256210Y-144666997D01*
X111256209Y-144666997D01*
X111256144Y-144667005D01*
X111244307Y-144667938D01*
X111212490Y-144668938D01*
X111208029Y-144669078D01*
X111200110Y-144669327D01*
X111182454Y-144674456D01*
X111180658Y-144674978D01*
X111161306Y-144678986D01*
X111154235Y-144679880D01*
X111141203Y-144681526D01*
X111133834Y-144684443D01*
X111133832Y-144684444D01*
X111100097Y-144697800D01*
X111088869Y-144701645D01*
X111046407Y-144713982D01*
X111039585Y-144718016D01*
X111039579Y-144718019D01*
X111028968Y-144724294D01*
X111011218Y-144732990D01*
X110999756Y-144737528D01*
X110999751Y-144737531D01*
X110992383Y-144740448D01*
X110985968Y-144745109D01*
X110956625Y-144766427D01*
X110946707Y-144772943D01*
X110928019Y-144783995D01*
X110908637Y-144795458D01*
X110894313Y-144809782D01*
X110879281Y-144822621D01*
X110862893Y-144834528D01*
X110834712Y-144868593D01*
X110826722Y-144877373D01*
X110338908Y-145365187D01*
X110276596Y-145399213D01*
X110262986Y-145401402D01*
X110254210Y-145402324D01*
X110232288Y-145404628D01*
X110232286Y-145404628D01*
X110225288Y-145405364D01*
X110053579Y-145463818D01*
X110047575Y-145467512D01*
X109905095Y-145555166D01*
X109905092Y-145555168D01*
X109899088Y-145558862D01*
X109894053Y-145563793D01*
X109894050Y-145563795D01*
X109777665Y-145677768D01*
X109769493Y-145685771D01*
X109671235Y-145838238D01*
X109668826Y-145844858D01*
X109668824Y-145844861D01*
X109636562Y-145933500D01*
X109609197Y-146008685D01*
X109586463Y-146188640D01*
X-1382659Y-146188640D01*
X-1383160Y-146180843D01*
X-1858410Y-138788640D01*
X122986463Y-138788640D01*
X123004163Y-138969160D01*
X123061418Y-139141273D01*
X123065065Y-139147295D01*
X123065066Y-139147297D01*
X123087033Y-139183568D01*
X123155380Y-139296424D01*
X123281382Y-139426902D01*
X123433159Y-139526222D01*
X123439763Y-139528678D01*
X123439765Y-139528679D01*
X123596558Y-139586990D01*
X123596560Y-139586990D01*
X123603168Y-139589448D01*
X123686995Y-139600633D01*
X123775980Y-139612507D01*
X123775984Y-139612507D01*
X123782961Y-139613438D01*
X123789972Y-139612800D01*
X123789976Y-139612800D01*
X123932459Y-139599832D01*
X123963600Y-139596998D01*
X123970302Y-139594820D01*
X123970304Y-139594820D01*
X124129409Y-139543124D01*
X124129412Y-139543123D01*
X124136108Y-139540947D01*
X124142159Y-139537340D01*
X124142161Y-139537339D01*
X124197307Y-139504466D01*
X124266062Y-139486766D01*
X124333471Y-139509048D01*
X124350919Y-139523600D01*
X127940992Y-143113673D01*
X127960595Y-143141771D01*
X127961418Y-143141273D01*
X128055380Y-143296424D01*
X128181382Y-143426902D01*
X128333159Y-143526222D01*
X128339763Y-143528678D01*
X128339765Y-143528679D01*
X128496558Y-143586990D01*
X128496560Y-143586990D01*
X128503168Y-143589448D01*
X128586995Y-143600633D01*
X128675980Y-143612507D01*
X128675984Y-143612507D01*
X128682961Y-143613438D01*
X128689972Y-143612800D01*
X128689976Y-143612800D01*
X128832459Y-143599832D01*
X128863600Y-143596998D01*
X128870302Y-143594820D01*
X128870304Y-143594820D01*
X129029409Y-143543124D01*
X129029412Y-143543123D01*
X129036108Y-143540947D01*
X129191912Y-143448069D01*
X129323266Y-143322982D01*
X129423643Y-143171902D01*
X129488055Y-143002338D01*
X129513299Y-142822717D01*
X129513616Y-142800000D01*
X129493397Y-142619745D01*
X129433745Y-142448448D01*
X129337626Y-142294624D01*
X129298272Y-142254994D01*
X129214778Y-142170915D01*
X129214774Y-142170912D01*
X129209815Y-142165918D01*
X129056666Y-142068727D01*
X129050026Y-142066363D01*
X129047532Y-142065146D01*
X129013675Y-142040994D01*
X125205021Y-138232340D01*
X125101284Y-138150266D01*
X125094653Y-138147167D01*
X125094650Y-138147165D01*
X124947682Y-138078477D01*
X124947678Y-138078476D01*
X124941050Y-138075378D01*
X124933888Y-138073888D01*
X124933887Y-138073888D01*
X124789928Y-138043945D01*
X124767885Y-138039360D01*
X124591079Y-138044143D01*
X124583997Y-138046021D01*
X124583996Y-138046021D01*
X124427198Y-138087596D01*
X124427196Y-138087597D01*
X124420116Y-138089474D01*
X124359770Y-138121764D01*
X124290274Y-138136265D01*
X124232814Y-138117052D01*
X124156666Y-138068727D01*
X124087070Y-138043945D01*
X123992425Y-138010243D01*
X123992420Y-138010242D01*
X123985790Y-138007881D01*
X123978802Y-138007048D01*
X123978799Y-138007047D01*
X123855698Y-137992368D01*
X123805680Y-137986404D01*
X123798677Y-137987140D01*
X123798676Y-137987140D01*
X123632288Y-138004628D01*
X123632286Y-138004629D01*
X123625288Y-138005364D01*
X123453579Y-138063818D01*
X123414929Y-138087596D01*
X123305095Y-138155166D01*
X123305092Y-138155168D01*
X123299088Y-138158862D01*
X123294053Y-138163793D01*
X123294050Y-138163795D01*
X123174525Y-138280843D01*
X123169493Y-138285771D01*
X123071235Y-138438238D01*
X123009197Y-138608685D01*
X122986463Y-138788640D01*
X-1858410Y-138788640D01*
X-3218977Y-117625914D01*
X-3217026Y-117594332D01*
X-2271394Y-112612800D01*
X-1239025Y-107174340D01*
X7945163Y-107174340D01*
X7962863Y-107354860D01*
X8020118Y-107526973D01*
X8023765Y-107532995D01*
X8023766Y-107532997D01*
X8106983Y-107670405D01*
X8114080Y-107682124D01*
X8118969Y-107687187D01*
X8118970Y-107687188D01*
X8156665Y-107726222D01*
X8240082Y-107812602D01*
X8391859Y-107911922D01*
X8398463Y-107914378D01*
X8398465Y-107914379D01*
X8555258Y-107972690D01*
X8555260Y-107972690D01*
X8561868Y-107975148D01*
X8645695Y-107986333D01*
X8734680Y-107998207D01*
X8734684Y-107998207D01*
X8741661Y-107999138D01*
X8748672Y-107998500D01*
X8748676Y-107998500D01*
X8891159Y-107985532D01*
X8922300Y-107982698D01*
X8929002Y-107980520D01*
X8929004Y-107980520D01*
X9088109Y-107928824D01*
X9088112Y-107928823D01*
X9094808Y-107926647D01*
X9245240Y-107836971D01*
X9309758Y-107819200D01*
X52973106Y-107819200D01*
X53041227Y-107839202D01*
X53062201Y-107856105D01*
X55421050Y-110214954D01*
X55455076Y-110277266D01*
X55457354Y-110291753D01*
X55460463Y-110323460D01*
X55517718Y-110495573D01*
X55521365Y-110501595D01*
X55521366Y-110501597D01*
X55532278Y-110519614D01*
X55611680Y-110650724D01*
X55737682Y-110781202D01*
X55889459Y-110880522D01*
X55896063Y-110882978D01*
X55896065Y-110882979D01*
X56052858Y-110941290D01*
X56052860Y-110941290D01*
X56059468Y-110943748D01*
X56143295Y-110954933D01*
X56232280Y-110966807D01*
X56232284Y-110966807D01*
X56239261Y-110967738D01*
X56246272Y-110967100D01*
X56246276Y-110967100D01*
X56388759Y-110954132D01*
X56419900Y-110951298D01*
X56426602Y-110949120D01*
X56426604Y-110949120D01*
X56585709Y-110897424D01*
X56585712Y-110897423D01*
X56592408Y-110895247D01*
X56748212Y-110802369D01*
X56879566Y-110677282D01*
X56979943Y-110526202D01*
X57021723Y-110416217D01*
X57041855Y-110363220D01*
X57041856Y-110363218D01*
X57044355Y-110356638D01*
X57045335Y-110349666D01*
X57069048Y-110180939D01*
X57069048Y-110180936D01*
X57069599Y-110177017D01*
X57069916Y-110154300D01*
X57049697Y-109974045D01*
X56990045Y-109802748D01*
X56893926Y-109648924D01*
X56888964Y-109643927D01*
X56771078Y-109525215D01*
X56771074Y-109525212D01*
X56766115Y-109520218D01*
X56612966Y-109423027D01*
X56583763Y-109412628D01*
X56448725Y-109364543D01*
X56448720Y-109364542D01*
X56442090Y-109362181D01*
X56435102Y-109361348D01*
X56435099Y-109361347D01*
X56392308Y-109356245D01*
X56327034Y-109328318D01*
X56318131Y-109320226D01*
X53791352Y-106793447D01*
X53783812Y-106785161D01*
X53779700Y-106778682D01*
X53730048Y-106732056D01*
X53727207Y-106729302D01*
X53707470Y-106709565D01*
X53704273Y-106707085D01*
X53695251Y-106699380D01*
X53668800Y-106674541D01*
X53663021Y-106669114D01*
X53656075Y-106665295D01*
X53656072Y-106665293D01*
X53645266Y-106659352D01*
X53628747Y-106648501D01*
X53624054Y-106644861D01*
X53612741Y-106636086D01*
X53605472Y-106632941D01*
X53605468Y-106632938D01*
X53572163Y-106618526D01*
X53561513Y-106613309D01*
X53522760Y-106592005D01*
X53503137Y-106586967D01*
X53484434Y-106580563D01*
X53473120Y-106575667D01*
X53473119Y-106575667D01*
X53465845Y-106572519D01*
X53458022Y-106571280D01*
X53458012Y-106571277D01*
X53422176Y-106565601D01*
X53410556Y-106563195D01*
X53375411Y-106554172D01*
X53375410Y-106554172D01*
X53367730Y-106552200D01*
X53347476Y-106552200D01*
X53327765Y-106550649D01*
X53315586Y-106548720D01*
X53307757Y-106547480D01*
X53299865Y-106548226D01*
X53263739Y-106551641D01*
X53251881Y-106552200D01*
X9306038Y-106552200D01*
X9238524Y-106532585D01*
X9155021Y-106479593D01*
X9115366Y-106454427D01*
X9086163Y-106444028D01*
X8951125Y-106395943D01*
X8951120Y-106395942D01*
X8944490Y-106393581D01*
X8937502Y-106392748D01*
X8937499Y-106392747D01*
X8809590Y-106377495D01*
X8764380Y-106372104D01*
X8757377Y-106372840D01*
X8757376Y-106372840D01*
X8590988Y-106390328D01*
X8590986Y-106390329D01*
X8583988Y-106391064D01*
X8461312Y-106432826D01*
X8418977Y-106447238D01*
X8412279Y-106449518D01*
X8373050Y-106473652D01*
X8263795Y-106540866D01*
X8263792Y-106540868D01*
X8257788Y-106544562D01*
X8252753Y-106549493D01*
X8252750Y-106549495D01*
X8133225Y-106666543D01*
X8128193Y-106671471D01*
X8029935Y-106823938D01*
X7967897Y-106994385D01*
X7945163Y-107174340D01*
X-1239025Y-107174340D01*
X2793873Y-85929261D01*
X2797494Y-85914872D01*
X2843815Y-85767962D01*
X2844494Y-85765871D01*
X3571992Y-83591608D01*
X3572708Y-83589529D01*
X3648810Y-83374622D01*
X3654703Y-83360699D01*
X5033585Y-80580373D01*
X18435577Y-53557099D01*
X18443385Y-53543541D01*
X18888009Y-52871788D01*
X18889239Y-52869965D01*
X18904493Y-52847771D01*
X19664673Y-51741701D01*
X19675120Y-51728490D01*
X40387787Y-28863482D01*
X40415530Y-28840522D01*
X43663661Y-26858230D01*
X82185560Y-3348813D01*
X82216252Y-3335309D01*
X91217454Y-737124D01*
X123022000Y-737124D01*
X123022301Y-743272D01*
X123036527Y-888361D01*
X123038910Y-900396D01*
X123095317Y-1087223D01*
X123099992Y-1098565D01*
X123191612Y-1270879D01*
X123198399Y-1281095D01*
X123321747Y-1432335D01*
X123330391Y-1441039D01*
X123480763Y-1565438D01*
X123490931Y-1572297D01*
X123662607Y-1665121D01*
X123673907Y-1669871D01*
X123808693Y-1711595D01*
X123822795Y-1711801D01*
X123826000Y-1705045D01*
X123826000Y-1698047D01*
X124334000Y-1698047D01*
X124337973Y-1711578D01*
X124345768Y-1712698D01*
X124472342Y-1675446D01*
X124483710Y-1670853D01*
X124656666Y-1580434D01*
X124666928Y-1573718D01*
X124819020Y-1451432D01*
X124827786Y-1442848D01*
X124953236Y-1293344D01*
X124960160Y-1283233D01*
X125054184Y-1112202D01*
X125059012Y-1100938D01*
X125118025Y-914905D01*
X125120573Y-902916D01*
X125137607Y-751053D01*
X125138000Y-744029D01*
X125138000Y-737124D01*
X131662000Y-737124D01*
X131662301Y-743272D01*
X131676527Y-888361D01*
X131678910Y-900396D01*
X131735317Y-1087223D01*
X131739992Y-1098565D01*
X131831612Y-1270879D01*
X131838399Y-1281095D01*
X131961747Y-1432335D01*
X131970391Y-1441039D01*
X132120763Y-1565438D01*
X132130931Y-1572297D01*
X132302607Y-1665121D01*
X132313907Y-1669871D01*
X132448693Y-1711595D01*
X132462795Y-1711801D01*
X132466000Y-1705045D01*
X132466000Y-1698047D01*
X132974000Y-1698047D01*
X132977973Y-1711578D01*
X132985768Y-1712698D01*
X133112342Y-1675446D01*
X133123710Y-1670853D01*
X133296666Y-1580434D01*
X133306928Y-1573718D01*
X133459020Y-1451432D01*
X133467786Y-1442848D01*
X133593236Y-1293344D01*
X133600160Y-1283233D01*
X133694184Y-1112202D01*
X133699012Y-1100938D01*
X133758025Y-914905D01*
X133760573Y-902916D01*
X133777607Y-751053D01*
X133778000Y-744029D01*
X133778000Y-560115D01*
X133773525Y-544876D01*
X133772135Y-543671D01*
X133764452Y-542000D01*
X132992115Y-542000D01*
X132976876Y-546475D01*
X132975671Y-547865D01*
X132974000Y-555548D01*
X132974000Y-1698047D01*
X132466000Y-1698047D01*
X132466000Y-560115D01*
X132461525Y-544876D01*
X132460135Y-543671D01*
X132452452Y-542000D01*
X131680115Y-542000D01*
X131664876Y-546475D01*
X131663671Y-547865D01*
X131662000Y-555548D01*
X131662000Y-737124D01*
X125138000Y-737124D01*
X125138000Y-560115D01*
X125133525Y-544876D01*
X125132135Y-543671D01*
X125124452Y-542000D01*
X124352115Y-542000D01*
X124336876Y-546475D01*
X124335671Y-547865D01*
X124334000Y-555548D01*
X124334000Y-1698047D01*
X123826000Y-1698047D01*
X123826000Y-560115D01*
X123821525Y-544876D01*
X123820135Y-543671D01*
X123812452Y-542000D01*
X123040115Y-542000D01*
X123024876Y-546475D01*
X123023671Y-547865D01*
X123022000Y-555548D01*
X123022000Y-737124D01*
X91217454Y-737124D01*
X93716128Y-15885D01*
X123022000Y-15885D01*
X123026475Y-31124D01*
X123027865Y-32329D01*
X123035548Y-34000D01*
X123807885Y-34000D01*
X123823124Y-29525D01*
X123824329Y-28135D01*
X123826000Y-20452D01*
X123826000Y-15885D01*
X124334000Y-15885D01*
X124338475Y-31124D01*
X124339865Y-32329D01*
X124347548Y-34000D01*
X125119885Y-34000D01*
X125135124Y-29525D01*
X125136329Y-28135D01*
X125138000Y-20452D01*
X125138000Y-15885D01*
X131662000Y-15885D01*
X131666475Y-31124D01*
X131667865Y-32329D01*
X131675548Y-34000D01*
X132447885Y-34000D01*
X132463124Y-29525D01*
X132464329Y-28135D01*
X132466000Y-20452D01*
X132466000Y-15885D01*
X132974000Y-15885D01*
X132978475Y-31124D01*
X132979865Y-32329D01*
X132987548Y-34000D01*
X133759885Y-34000D01*
X133775124Y-29525D01*
X133776329Y-28135D01*
X133778000Y-20452D01*
X133778000Y161124D01*
X133777699Y167272D01*
X133763473Y312361D01*
X133761090Y324396D01*
X133704683Y511223D01*
X133700008Y522565D01*
X133608388Y694879D01*
X133601601Y705095D01*
X133478253Y856335D01*
X133469609Y865039D01*
X133319237Y989438D01*
X133309069Y996297D01*
X133137393Y1089121D01*
X133126093Y1093871D01*
X132991307Y1135595D01*
X132977205Y1135801D01*
X132974000Y1129045D01*
X132974000Y-15885D01*
X132466000Y-15885D01*
X132466000Y1122047D01*
X132462027Y1135578D01*
X132454232Y1136698D01*
X132327658Y1099446D01*
X132316290Y1094853D01*
X132143334Y1004434D01*
X132133072Y997718D01*
X131980980Y875432D01*
X131972214Y866848D01*
X131846764Y717344D01*
X131839840Y707233D01*
X131745816Y536202D01*
X131740988Y524938D01*
X131681975Y338905D01*
X131679427Y326916D01*
X131662393Y175053D01*
X131662000Y168029D01*
X131662000Y-15885D01*
X125138000Y-15885D01*
X125138000Y161124D01*
X125137699Y167272D01*
X125123473Y312361D01*
X125121090Y324396D01*
X125064683Y511223D01*
X125060008Y522565D01*
X124968388Y694879D01*
X124961601Y705095D01*
X124838253Y856335D01*
X124829609Y865039D01*
X124679237Y989438D01*
X124669069Y996297D01*
X124497393Y1089121D01*
X124486093Y1093871D01*
X124351307Y1135595D01*
X124337205Y1135801D01*
X124334000Y1129045D01*
X124334000Y-15885D01*
X123826000Y-15885D01*
X123826000Y1122047D01*
X123822027Y1135578D01*
X123814232Y1136698D01*
X123687658Y1099446D01*
X123676290Y1094853D01*
X123503334Y1004434D01*
X123493072Y997718D01*
X123340980Y875432D01*
X123332214Y866848D01*
X123206764Y717344D01*
X123199840Y707233D01*
X123105816Y536202D01*
X123100988Y524938D01*
X123041975Y338905D01*
X123039427Y326916D01*
X123022393Y175053D01*
X123022000Y168029D01*
X123022000Y-15885D01*
X93716128Y-15885D01*
X100694494Y1998411D01*
X100705628Y2001082D01*
X105897584Y2999535D01*
X105902455Y3000373D01*
X106314239Y3062876D01*
X123022000Y3062876D01*
X123022301Y3056728D01*
X123036527Y2911639D01*
X123038910Y2899604D01*
X123095317Y2712777D01*
X123099992Y2701435D01*
X123191612Y2529121D01*
X123198399Y2518905D01*
X123321747Y2367665D01*
X123330391Y2358961D01*
X123480763Y2234562D01*
X123490931Y2227703D01*
X123662607Y2134879D01*
X123673907Y2130129D01*
X123808693Y2088405D01*
X123822795Y2088199D01*
X123826000Y2094955D01*
X123826000Y2101953D01*
X124334000Y2101953D01*
X124337973Y2088422D01*
X124345768Y2087302D01*
X124472342Y2124554D01*
X124483710Y2129147D01*
X124656666Y2219566D01*
X124666928Y2226282D01*
X124819020Y2348568D01*
X124827786Y2357152D01*
X124953236Y2506656D01*
X124960160Y2516767D01*
X125054184Y2687798D01*
X125059012Y2699062D01*
X125118025Y2885095D01*
X125120573Y2897084D01*
X125137607Y3048947D01*
X125138000Y3055971D01*
X125138000Y3062876D01*
X131662000Y3062876D01*
X131662301Y3056728D01*
X131676527Y2911639D01*
X131678910Y2899604D01*
X131735317Y2712777D01*
X131739992Y2701435D01*
X131831612Y2529121D01*
X131838399Y2518905D01*
X131961747Y2367665D01*
X131970391Y2358961D01*
X132120763Y2234562D01*
X132130931Y2227703D01*
X132302607Y2134879D01*
X132313907Y2130129D01*
X132448693Y2088405D01*
X132462795Y2088199D01*
X132466000Y2094955D01*
X132466000Y2101953D01*
X132974000Y2101953D01*
X132977973Y2088422D01*
X132985768Y2087302D01*
X133112342Y2124554D01*
X133123710Y2129147D01*
X133296666Y2219566D01*
X133306928Y2226282D01*
X133459020Y2348568D01*
X133467786Y2357152D01*
X133593236Y2506656D01*
X133600160Y2516767D01*
X133694184Y2687798D01*
X133699012Y2699062D01*
X133758025Y2885095D01*
X133760573Y2897084D01*
X133777607Y3048947D01*
X133778000Y3055971D01*
X133778000Y3239885D01*
X133773525Y3255124D01*
X133772135Y3256329D01*
X133764452Y3258000D01*
X132992115Y3258000D01*
X132976876Y3253525D01*
X132975671Y3252135D01*
X132974000Y3244452D01*
X132974000Y2101953D01*
X132466000Y2101953D01*
X132466000Y3239885D01*
X132461525Y3255124D01*
X132460135Y3256329D01*
X132452452Y3258000D01*
X131680115Y3258000D01*
X131664876Y3253525D01*
X131663671Y3252135D01*
X131662000Y3244452D01*
X131662000Y3062876D01*
X125138000Y3062876D01*
X125138000Y3239885D01*
X125133525Y3255124D01*
X125132135Y3256329D01*
X125124452Y3258000D01*
X124352115Y3258000D01*
X124336876Y3253525D01*
X124335671Y3252135D01*
X124334000Y3244452D01*
X124334000Y2101953D01*
X123826000Y2101953D01*
X123826000Y3239885D01*
X123821525Y3255124D01*
X123820135Y3256329D01*
X123812452Y3258000D01*
X123040115Y3258000D01*
X123024876Y3253525D01*
X123023671Y3252135D01*
X123022000Y3244452D01*
X123022000Y3062876D01*
X106314239Y3062876D01*
X116280514Y4575614D01*
X116287288Y4576454D01*
X116382820Y4585652D01*
X116438644Y4591027D01*
X116440834Y4591219D01*
X117709191Y4691041D01*
X117720819Y4691417D01*
X120180115Y4657418D01*
G37*
%TD.AperFunction*%
M02*
