M48
; DRILL file {KiCad (6.0.4)} date Sat Sep 10 18:37:33 2022
; FORMAT={-:-/ absolute / metric / decimal}
; #@! TF.CreationDate,2022-09-10T18:37:33-05:00
; #@! TF.GenerationSoftware,Kicad,Pcbnew,(6.0.4)
; #@! TF.FileFunction,Plated,1,2,PTH
FMAT,2
METRIC
; #@! TA.AperFunction,Plated,PTH,ViaDrill
T1C0.300
; #@! TA.AperFunction,Plated,PTH,ComponentDrill
T2C0.700
; #@! TA.AperFunction,Plated,PTH,ComponentDrill
T3C1.200
; #@! TA.AperFunction,Plated,PTH,ComponentDrill
T4C3.280
%
G90
G05
T1
X8.369Y-159.207
X8.759Y-107.186
X9.385Y-97.231
X15.354Y-115.519
X15.989Y-142.443
X22.466Y-173.558
X23.0Y-170.3
X23.609Y-83.515
X34.531Y-144.221
X35.166Y-112.852
X37.706Y-198.196
X38.087Y-59.512
X38.087Y-162.89
X40.627Y-93.421
X41.389Y-40.208
X42.024Y-218.389
X53.962Y-128.6
X54.089Y-189.306
X56.256Y-110.154
X56.756Y-67.259
X56.9Y-207.8
X59.225Y-65.625
X60.82Y-36.906
X61.582Y-220.929
X64.376Y-91.262
X64.884Y-166.573
X67.932Y-145.872
X68.131Y-172.495
X68.44Y-111.963
X68.948Y-203.657
X69.075Y-52.273
X84.315Y-173.939
X84.442Y-22.428
X84.442Y-83.134
X84.442Y-234.645
X84.5Y-170.7
X88.633Y-140.284
X89.141Y-117.551
X91.2Y-38.9
X92.062Y-194.894
X92.4Y-250.1
X92.57Y-63.068
X94.8Y-98.3
X95.999Y-38.811
X96.38Y-219.151
X97.142Y-250.012
X97.904Y-7.315
X98.0Y-4.1
X99.428Y-158.826
X99.555Y-98.247
X110.0Y-128.4
X110.2Y-118.1
X110.2Y-138.8
X110.2Y-149.4
X110.4Y-107.0
X110.4Y-146.2
X113.525Y-67.132
X113.6Y-64.0
X114.541Y-190.83
X114.922Y-32.969
X115.557Y-224.612
X116.446Y-243.916
X116.827Y-14.046
X117.4Y-143.8
X117.9Y-106.0
X118.986Y-87.833
X119.494Y-169.875
X123.6Y-123.3
X123.6Y-126.3
X123.8Y-138.8
X123.8Y-141.7
X125.0Y-204.229
X128.7Y-142.8
X129.908Y-52.654
X129.908Y-204.292
X130.0Y-201.1
X131.0Y-123.3
X131.1Y-126.3
X131.1Y-141.5
X137.2Y-144.0
X137.4Y-146.7
X137.4Y-149.3
X137.5Y-105.9
X137.8Y-128.9
X138.0Y-134.0
X138.2Y-136.5
X138.4Y-139.0
X138.4Y-141.6
X141.084Y-170.637
X141.592Y-87.325
X142.2Y-66.7
X143.751Y-14.681
X144.767Y-224.866
X145.148Y-244.424
X145.275Y-32.842
X146.291Y-191.338
X147.053Y-66.751
X150.2Y-149.5
X150.3Y-138.9
X150.4Y-106.9
X150.4Y-128.4
X150.5Y-118.0
X158.0Y-124.8
X158.0Y-130.1
X158.0Y-131.5
X160.134Y-98.12
X160.134Y-158.826
X160.2Y-94.9
X160.4Y-107.0
X160.425Y-246.71
X161.531Y-5.664
X161.8Y-131.0
X163.2Y-130.2
X163.2Y-131.0
X163.309Y-249.885
X165.595Y-219.786
X166.103Y-38.176
X166.2Y-35.0
X168.008Y-63.576
X168.389Y-194.386
X170.4Y-173.9
X171.437Y-117.932
X172.072Y-139.776
X174.866Y-20.015
X175.247Y-83.007
X175.247Y-173.939
X175.374Y-234.645
X175.5Y-170.8
X185.6Y-203.8
X187.9Y-145.3
X190.487Y-203.784
X192.138Y-113.106
X192.773Y-145.237
X192.9Y-54.686
X195.694Y-167.208
X196.202Y-90.754
X199.25Y-221.818
X199.758Y-37.668
X205.346Y-67.894
X205.4Y-64.8
X205.727Y-128.6
X205.727Y-189.179
X205.8Y-125.4
X211.1Y-130.2
X211.2Y-124.2
X219.189Y-217.373
X219.316Y-40.081
X220.459Y-94.056
X220.5Y-90.8
X222.3Y-173.8
X222.364Y-60.147
X222.618Y-162.636
X222.7Y-159.4
X222.999Y-197.815
X226.047Y-114.63
X226.682Y-143.586
X228.435Y-89.374
X235.953Y-83.134
X236.1Y-79.9
X238.239Y-173.812
X241.5Y-88.2
X244.335Y-142.951
X245.224Y-115.011
X245.3Y-111.8
X251.447Y-161.239
X251.828Y-96.215
X251.9Y-93.0
T3
X220.8Y-125.4
X220.8Y-127.9
X220.8Y-130.4
X235.3Y-125.4
X235.3Y-130.4
T4
X228.3Y-122.3
X228.3Y-133.5
T2
X123.28Y-252.112G85X123.28Y-252.912
G05
X123.28Y-255.912G85X123.28Y-256.712
G05
X124.08Y3.112G85X124.08Y3.912
G05
X124.08Y-0.688G85X124.08Y0.112
G05
X131.92Y-252.112G85X131.92Y-252.912
G05
X131.92Y-255.912G85X131.92Y-256.712
G05
X132.72Y3.112G85X132.72Y3.912
G05
X132.72Y-0.688G85X132.72Y0.112
G05
T0
M30
